<svg xmlns="http://www.w3.org/2000/svg">
<defs>
<font id="Garnett Medium">
<font-face  font-family="Garnett" units-per-em="1000" ascent="1070" descent="-323" font-style="normal" font-weight="500" font-stretch="normal" cap-height="774" x-height="571" underline-position="-160" underline-thickness="70" />

<glyph glyph-name="space" unicode="&#x20;" horiz-adv-x="189" d="" />
<glyph glyph-name="exclam" unicode="&#x21;" horiz-adv-x="284" d="M76 539 L76 774 L208 774 L208 539 L178 207 L106 207 L76 539 Z M208 0 L75 0 L75 139 L208 139 L208 0 Z " />
<glyph glyph-name="quotedbl" unicode="&#x22;" horiz-adv-x="422" d="M90 503 L70 774 L179 774 L161 503 L90 503 Z M263 503 L243 774 L352 774 L334 503 L263 503 Z " />
<glyph glyph-name="numbersign" unicode="&#x23;" horiz-adv-x="646" d="M119 235 L13 235 L13 315 L136 315 L172 485 L53 485 L53 565 L189 565 L224 733 L314 733 L279 565 L452 565 L487 733 L577 733 L542 565 L640 565 L640 485 L525 485 L489 315 L600 315 L600 235 L472 235 L433 49 L343 49 L382 235 L209 235 L170 49 L80 49 L119 235 Z M258 489 L220 311 L403 311 L440 489 L258 489 Z " />
<glyph glyph-name="dollar" unicode="&#x24;" horiz-adv-x="666" d="M391 -11 L391 -133 L282 -133 L282 -11 Q167 1 98 57.5 Q29 114 9 213 L135 249 Q147 185 185.5 147.5 Q224 110 287 99 L287 337 Q268 341 248 346 Q228 351 206 358 Q168 369 142.5 382 Q117 395 100 412 Q75 437 62.5 471 Q50 505 50 547 Q50 645 112 708 Q174 771 282 784 L282 878 L391 878 L391 784 Q484 772 544 717.5 Q604 663 629 569 L505 541 Q492 596 462.5 629.5 Q433 663 386 674 L386 439 Q409 434 433 428 Q457 422 480 415 Q520 403 544 391 Q568 379 585 363 Q610 339 622.5 305.5 Q635 272 635 228 Q635 128 570.5 65 Q506 2 391 -11 Z M178 560 Q178 518 200 495.5 Q222 473 287 459 L287 677 Q235 667 206.5 636.5 Q178 606 178 560 Z M507 218 Q507 259 483.5 280.5 Q460 302 386 317 L386 97 Q445 105 476 136.5 Q507 168 507 218 Z " />
<glyph glyph-name="percent" unicode="&#x25;" horiz-adv-x="969" d="M254 386 Q175 386 126 438.5 Q77 491 77 580 Q77 672 126.5 727.5 Q176 783 255 783 Q333 783 383 728 Q433 673 433 582 Q433 495 382.5 440.5 Q332 386 254 386 Z M706 774 L817 774 L258 0 L143 0 L706 774 Z M255 704 Q215 704 192 672 Q169 640 169 582 Q169 528 192 496.5 Q215 465 254 465 Q295 465 317 495.5 Q339 526 339 582 Q339 640 317 672 Q295 704 255 704 Z M714 -8 Q634 -8 585.5 44 Q537 96 537 185 Q537 277 586.5 332.5 Q636 388 715 388 Q794 388 843.5 333 Q893 278 893 187 Q893 100 842.5 46 Q792 -8 714 -8 Z M714 71 Q755 71 777 101.5 Q799 132 799 187 Q799 245 777 277 Q755 309 715 309 Q675 309 652 276.5 Q629 244 629 187 Q629 133 652 102 Q675 71 714 71 Z " />
<glyph glyph-name="ampersand" unicode="&#x26;" horiz-adv-x="831" d="M386 787 Q475 787 527.5 740.5 Q580 694 580 617 Q580 543 530.5 492.5 Q481 442 377 409 Q390 387 407 363.5 Q424 340 445 315 Q469 285 496 258 Q523 231 554 206 Q590 261 611.5 334.5 Q633 408 638 493 L756 470 Q750 387 718 296 Q686 205 643 148 Q689 124 738 112 Q787 100 837 100 Q846 100 851.5 100 Q857 100 862 101 L849 -7 Q841 -9 831.5 -10 Q822 -11 814 -11 Q746 -11 684 6.5 Q622 24 555 63 Q510 26 449 6 Q388 -14 319 -14 Q189 -14 118 44 Q47 102 47 208 Q47 290 90 350 Q133 410 218 447 Q199 487 190.5 521.5 Q182 556 182 590 Q182 680 237 733.5 Q292 787 386 787 Z M389 692 Q353 692 332 665 Q311 638 311 594 Q311 567 317.5 538.5 Q324 510 337 481 Q402 504 432 536 Q462 568 462 614 Q462 651 443 671.5 Q424 692 389 692 Z M254 369 Q217 346 199 313 Q181 280 181 234 Q181 169 224 133.5 Q267 98 346 98 Q379 98 407.5 104.5 Q436 111 460 125 Q428 152 400 179.5 Q372 207 348 236 Q322 267 299 299.5 Q276 332 254 369 Z " />
<glyph glyph-name="quotesingle" unicode="&#x27;" horiz-adv-x="249" d="M90 503 L70 774 L179 774 L161 503 L90 503 Z " />
<glyph glyph-name="parenleft" unicode="&#x28;" horiz-adv-x="330" d="M57 294 Q57 446 113 590 Q169 734 255 815 L369 815 Q279 709 234 578.5 Q189 448 189 294 Q189 142 234 11 Q279 -120 369 -231 L255 -231 Q167 -142 112 0.5 Q57 143 57 294 Z " />
<glyph glyph-name="parenright" unicode="&#x29;" horiz-adv-x="330" d="M273 290 Q273 138 217 -6 Q161 -150 75 -231 L-39 -231 Q51 -125 96 5.5 Q141 136 141 290 Q141 442 96 573 Q51 704 -39 815 L75 815 Q163 726 218 583.5 Q273 441 273 290 Z " />
<glyph glyph-name="asterisk" unicode="&#x2a;" horiz-adv-x="444" d="M222 519 L142 389 L69 442 L168 559 L20 594 L47 680 L188 622 L177 774 L267 774 L256 622 L397 680 L424 594 L276 558 L375 442 L302 389 L222 519 Z " />
<glyph glyph-name="plus" unicode="&#x2b;" horiz-adv-x="579" d="M240 345 L76 345 L76 435 L240 435 L240 613 L339 613 L339 435 L502 435 L502 345 L339 345 L339 170 L240 170 L240 345 Z " />
<glyph glyph-name="comma" unicode="&#x2c;" horiz-adv-x="196" d="M92 0 L32 0 L32 139 L165 139 L165 -3 Q165 -76 134 -108 Q103 -140 30 -144 L14 -80 Q62 -78 77 -65 Q92 -52 92 -13 L92 0 Z " />
<glyph glyph-name="hyphen" unicode="&#x2d;" horiz-adv-x="407" d="M362 279 L45 279 L45 374 L362 374 L362 279 Z " />
<glyph glyph-name="period" unicode="&#x2e;" horiz-adv-x="196" d="M165 0 L32 0 L32 139 L165 139 L165 0 Z " />
<glyph glyph-name="slash" unicode="&#x2f;" horiz-adv-x="433" d="M137 -231 L26 -231 L299 815 L412 815 L137 -231 Z " />
<glyph glyph-name="zero" unicode="0" horiz-adv-x="732" d="M365 -14 Q213 -14 131.5 88.5 Q50 191 50 385 Q50 573 136.5 680 Q223 787 371 787 Q517 787 600 680.5 Q683 574 683 386 Q683 198 598 92 Q513 -14 365 -14 Z M366 102 Q456 102 502 172.5 Q548 243 548 382 Q548 524 502.5 598 Q457 672 370 672 Q280 672 232 598 Q184 524 184 382 Q184 245 230.5 173.5 Q277 102 366 102 Z " />
<glyph glyph-name="one" unicode="1" horiz-adv-x="407" d="M12 582 L12 677 L130 677 Q176 677 190 688.5 Q204 700 206 741 L208 774 L313 774 L313 0 L181 0 L181 582 L12 582 Z " />
<glyph glyph-name="two" unicode="2" horiz-adv-x="671" d="M481 534 Q481 598 446 635 Q411 672 350 672 Q271 672 230.5 617 Q190 562 194 459 L67 482 Q68 625 145.5 706 Q223 787 354 787 Q473 787 543.5 721 Q614 655 614 544 Q614 458 566 385.5 Q518 313 407 229 L247 109 L634 109 L634 0 L63 0 L63 94 L306 278 Q398 349 439.5 409 Q481 469 481 534 Z " />
<glyph glyph-name="three" unicode="3" horiz-adv-x="644" d="M456 566 Q456 620 424 649 Q392 678 332 678 Q268 678 230 640.5 Q192 603 185 531 L64 559 Q83 667 155.5 726 Q228 785 339 785 Q451 785 518 731 Q585 677 585 587 Q585 522 547 476 Q509 430 441 410 L441 408 Q529 391 573 343.5 Q617 296 617 219 Q617 114 541 50.5 Q465 -13 341 -13 Q209 -13 131.5 49 Q54 111 37 232 L163 262 Q171 179 215 138 Q259 97 339 97 Q410 97 449.5 132.5 Q489 168 489 232 Q489 292 448.5 321 Q408 350 321 350 L222 350 L222 453 L304 453 Q379 453 417.5 481.5 Q456 510 456 566 Z " />
<glyph glyph-name="four" unicode="4" horiz-adv-x="666" d="M647 277 L647 169 L519 169 L519 0 L391 0 L391 169 L30 169 L30 287 L389 774 L519 774 L519 277 L647 277 Z M394 631 L140 277 L394 277 L394 631 Z " />
<glyph glyph-name="five" unicode="5" horiz-adv-x="667" d="M391 513 Q499 513 563 447.5 Q627 382 627 272 Q627 141 550 64.5 Q473 -12 341 -12 Q215 -12 135.5 49.5 Q56 111 35 226 L165 260 Q178 181 222 141.5 Q266 102 339 102 Q413 102 454.5 147.5 Q496 193 496 273 Q496 346 455.5 387 Q415 428 344 428 Q292 428 252 407.5 Q212 387 184 346 L70 360 L131 774 L578 774 L577 662 L233 662 L199 434 L201 434 Q235 473 283 493 Q331 513 391 513 Z " />
<glyph glyph-name="six" unicode="6" horiz-adv-x="687" d="M369 -13 Q215 -13 131.5 87.5 Q48 188 48 372 Q48 561 141.5 674 Q235 787 393 787 Q475 787 541.5 751 Q608 715 653 646 L540 576 Q512 623 474 646 Q436 669 385 669 Q286 669 232 588 Q178 507 178 359 L178 357 L180 357 Q209 427 269 464.5 Q329 502 411 502 Q518 502 584.5 435 Q651 368 651 259 Q651 136 573.5 61.5 Q496 -13 369 -13 Z M368 411 Q294 411 248 367.5 Q202 324 202 254 Q202 186 247.5 143.5 Q293 101 366 101 Q437 101 478.5 143.5 Q520 186 520 259 Q520 330 479.5 370.5 Q439 411 368 411 Z " />
<glyph glyph-name="seven" unicode="7" horiz-adv-x="584" d="M341 57 L341 0 L205 0 L205 57 Q205 262 266 414 Q327 566 446 659 L25 659 L25 774 L572 774 L572 690 Q450 609 395.5 464 Q341 319 341 57 Z " />
<glyph glyph-name="eight" unicode="8" horiz-adv-x="701" d="M655 216 Q655 111 571.5 48.5 Q488 -14 348 -14 Q208 -14 127.5 44 Q47 102 47 203 Q47 278 91 329.5 Q135 381 218 404 L218 408 Q155 429 120 472.5 Q85 516 85 574 Q85 668 160 726.5 Q235 785 352 785 Q471 785 543.5 730 Q616 675 616 582 Q616 523 581 477.5 Q546 432 483 409 L483 406 Q566 384 610.5 335.5 Q655 287 655 216 Z M491 562 Q491 616 453 647 Q415 678 352 678 Q287 678 248.5 646 Q210 614 210 558 Q210 502 248 470.5 Q286 439 352 439 Q416 439 453.5 472 Q491 505 491 562 Z M177 228 Q177 165 223.5 130.5 Q270 96 354 96 Q433 96 478.5 133.5 Q524 171 524 235 Q524 295 478 330 Q432 365 354 365 Q273 365 225 328 Q177 291 177 228 Z " />
<glyph glyph-name="nine" unicode="9" horiz-adv-x="691" d="M327 788 Q474 788 557.5 684.5 Q641 581 641 402 Q641 204 556 95.5 Q471 -13 314 -13 Q219 -13 144 25.5 Q69 64 32 132 L143 200 Q171 151 215.5 125.5 Q260 100 316 100 Q414 100 462.5 179 Q511 258 511 417 L511 424 L510 424 Q482 355 421 316 Q360 277 282 277 Q172 277 106 342.5 Q40 408 40 518 Q40 637 120.5 712.5 Q201 788 327 788 Z M331 367 Q395 367 440.5 411 Q486 455 486 522 Q486 591 443.5 632.5 Q401 674 327 674 Q258 674 214.5 631 Q171 588 171 520 Q171 448 213.5 407.5 Q256 367 331 367 Z " />
<glyph glyph-name="colon" unicode="&#x3a;" horiz-adv-x="196" d="M165 0 L32 0 L32 139 L165 139 L165 0 Z M165 387 L32 387 L32 526 L165 526 L165 387 Z " />
<glyph glyph-name="semicolon" unicode="&#x3b;" horiz-adv-x="196" d="M92 0 L32 0 L32 139 L165 139 L165 -3 Q165 -76 134 -108 Q103 -140 30 -144 L14 -80 Q62 -78 77 -65 Q92 -52 92 -13 L92 0 Z M165 387 L32 387 L32 526 L165 526 L165 387 Z " />
<glyph glyph-name="less" unicode="&#x3c;" horiz-adv-x="579" d="M498 96 L64 324 L64 384 L498 611 L498 511 L191 356 L498 199 L498 96 Z " />
<glyph glyph-name="equal" unicode="&#x3d;" horiz-adv-x="579" d="M502 402 L76 402 L76 493 L502 493 L502 402 Z M502 208 L76 208 L76 298 L502 298 L502 208 Z " />
<glyph glyph-name="greater" unicode="&#x3e;" horiz-adv-x="579" d="M80 611 L515 383 L515 323 L80 96 L80 196 L387 351 L80 508 L80 611 Z " />
<glyph glyph-name="question" unicode="&#x3f;" horiz-adv-x="555" d="M283 676 Q213 676 175 636 Q137 596 123 509 L-1 532 Q19 653 95.5 720 Q172 787 290 787 Q405 787 475.5 728 Q546 669 546 573 Q546 515 519.5 470.5 Q493 426 424 373 Q355 321 341.5 297 Q328 273 328 227 L328 204 L211 204 L211 238 Q211 295 231.5 333 Q252 371 316 422 Q370 465 389 495.5 Q408 526 408 564 Q408 616 374.5 646 Q341 676 283 676 Z M336 0 L203 0 L203 139 L336 139 L336 0 Z " />
<glyph glyph-name="at" unicode="&#x40;" horiz-adv-x="940" d="M745 100 Q789 100 812.5 147.5 Q836 195 837 285 Q837 450 745 543.5 Q653 637 491 637 Q327 637 219 522 Q111 407 111 229 Q111 64 210.5 -27 Q310 -118 489 -118 Q550 -118 607 -105.5 Q664 -93 722 -67 L722 -144 Q676 -166 614.5 -178 Q553 -190 488 -190 Q275 -190 152.5 -79 Q30 32 30 228 Q30 329 63 416.5 Q96 504 158 570 Q222 636 308.5 671.5 Q395 707 494 707 Q682 707 799 592.5 Q916 478 916 293 Q916 166 865 98.5 Q814 31 716 31 Q651 31 611.5 58.5 Q572 86 572 132 L570 132 Q547 78 505.5 50 Q464 22 406 22 Q337 22 297 58 Q257 94 257 156 Q257 188 269 214.5 Q281 241 306 262 Q327 278 357.5 288.5 Q388 299 430 305 L496 314 Q536 320 554 333 Q572 346 572 371 Q572 400 551.5 417 Q531 434 496 434 Q454 434 428.5 411.5 Q403 389 392 343 L278 363 Q301 443 358 486 Q415 529 499 529 Q593 529 643.5 481.5 Q694 434 695 344 L695 169 Q695 130 706.5 115 Q718 100 745 100 Z M384 172 Q384 141 404 124 Q424 107 460 107 Q512 107 543 145.5 Q574 184 574 249 L574 274 Q568 269 557 265 Q546 261 520 256 L465 247 Q423 240 403.5 222 Q384 204 384 172 Z " />
<glyph glyph-name="A" unicode="A" horiz-adv-x="738" d="M151 0 L19 0 L282 774 L441 774 L719 0 L578 0 L518 181 L209 181 L151 0 Z M361 656 L242 285 L484 285 L361 656 Z " />
<glyph glyph-name="B" unicode="B" horiz-adv-x="722" d="M408 0 L78 0 L78 774 L383 774 Q521 774 590.5 726 Q660 678 660 582 Q660 519 622 471.5 Q584 424 516 404 L516 403 Q599 387 644.5 338.5 Q690 290 690 219 Q690 110 619.5 55 Q549 0 408 0 Z M529 559 Q529 613 492.5 639 Q456 665 381 665 L209 665 L209 446 L376 446 Q454 446 491.5 474 Q529 502 529 559 Z M557 229 Q557 287 515.5 315 Q474 343 387 343 L209 343 L209 109 L398 109 Q480 109 518.5 138 Q557 167 557 229 Z " />
<glyph glyph-name="C" unicode="C" horiz-adv-x="767" d="M405 -13 Q237 -13 140 91.5 Q43 196 43 378 Q43 562 145 674.5 Q247 787 411 787 Q544 787 630.5 713 Q717 639 744 502 L613 476 Q594 572 542.5 621 Q491 670 409 670 Q300 670 239 594 Q178 518 178 381 Q178 252 239.5 178 Q301 104 409 104 Q493 104 544 148 Q595 192 621 287 L748 256 Q716 126 627.5 56.5 Q539 -13 405 -13 Z " />
<glyph glyph-name="D" unicode="D" horiz-adv-x="790" d="M78 0 L78 774 L325 774 Q528 774 638 673.5 Q748 573 748 389 Q748 208 636 104 Q524 0 326 0 L78 0 Z M613 391 Q613 525 540.5 594 Q468 663 328 663 L209 663 L209 111 L320 111 Q466 111 539.5 181 Q613 251 613 391 Z " />
<glyph glyph-name="E" unicode="E" horiz-adv-x="661" d="M78 0 L78 774 L601 774 L601 665 L209 665 L209 453 L577 453 L577 347 L209 347 L209 109 L621 109 L621 0 L78 0 Z " />
<glyph glyph-name="F" unicode="F" horiz-adv-x="628" d="M78 0 L78 774 L589 774 L589 665 L209 665 L209 424 L554 424 L554 317 L209 317 L209 0 L78 0 Z " />
<glyph glyph-name="G" unicode="G" horiz-adv-x="797" d="M645 0 L634 138 L631 138 Q595 65 529 26 Q463 -13 376 -13 Q219 -13 131 90 Q43 193 43 375 Q43 561 145.5 674 Q248 787 411 787 Q540 787 626.5 716 Q713 645 745 514 L618 483 Q597 575 543.5 622.5 Q490 670 409 670 Q303 670 240.5 592 Q178 514 178 380 Q178 244 239.5 170 Q301 96 416 96 Q515 96 571 145 Q627 194 627 281 L627 288 L406 288 L406 390 L746 390 L746 0 L645 0 Z " />
<glyph glyph-name="H" unicode="H" horiz-adv-x="795" d="M78 0 L78 774 L209 774 L209 457 L586 457 L586 774 L717 774 L717 0 L586 0 L586 342 L209 342 L209 0 L78 0 Z " />
<glyph glyph-name="I" unicode="I" horiz-adv-x="293" d="M81 0 L81 774 L212 774 L212 0 L81 0 Z " />
<glyph glyph-name="J" unicode="J" horiz-adv-x="583" d="M513 774 L513 246 Q513 178 497.5 128.5 Q482 79 451 48 Q420 17 375.5 2 Q331 -13 273 -13 Q156 -13 96 45 Q36 103 36 216 L36 319 L159 348 L159 240 Q159 168 186 134.5 Q213 101 271 101 Q328 101 355 136 Q382 171 382 243 L382 774 L513 774 Z " />
<glyph glyph-name="K" unicode="K" horiz-adv-x="715" d="M707 0 L564 0 L349 400 L209 230 L209 0 L78 0 L78 774 L209 774 L209 372 L531 774 L677 774 L446 480 L707 0 Z " />
<glyph glyph-name="L" unicode="L" horiz-adv-x="638" d="M78 0 L78 774 L209 774 L209 109 L614 109 L614 0 L78 0 Z " />
<glyph glyph-name="M" unicode="M" horiz-adv-x="931" d="M78 0 L78 774 L256 774 L474 154 L689 774 L854 774 L854 0 L730 0 L730 600 L529 0 L403 0 L198 599 L198 0 L78 0 Z " />
<glyph glyph-name="N" unicode="N" horiz-adv-x="778" d="M581 774 L701 774 L701 0 L563 0 L198 608 L198 0 L78 0 L78 774 L239 774 L581 197 L581 774 Z " />
<glyph glyph-name="O" unicode="O" horiz-adv-x="803" d="M405 -13 Q235 -13 139 92 Q43 197 43 382 Q43 565 142 676 Q241 787 405 787 Q568 787 664 678.5 Q760 570 760 387 Q760 203 664 95 Q568 -13 405 -13 Z M574 185 Q600 220 612.5 269.5 Q625 319 625 383 Q625 518 567 594 Q509 670 406 670 Q349 670 304.5 648.5 Q260 627 230 585 Q204 548 191 497 Q178 446 178 383 Q178 252 237.5 178 Q297 104 403 104 Q459 104 502 124.5 Q545 145 574 185 Z " />
<glyph glyph-name="P" unicode="P" horiz-adv-x="678" d="M78 0 L78 774 L364 774 Q504 774 577.5 716 Q651 658 651 547 Q651 426 574.5 361 Q498 296 354 296 L209 296 L209 0 L78 0 Z M516 541 Q516 605 476.5 636 Q437 667 356 667 L209 667 L209 401 L350 401 Q437 401 476.5 434.5 Q516 468 516 541 Z " />
<glyph glyph-name="Q" unicode="Q" horiz-adv-x="803" d="M673 -124 Q609 -124 566 -94.5 Q523 -65 497 -2 Q477 -7 454 -9.5 Q431 -12 406 -12 Q237 -12 140 93.5 Q43 199 43 382 Q43 565 142 676 Q241 787 405 787 Q568 787 664 678.5 Q760 570 760 387 Q760 272 719 183.5 Q678 95 601 45 Q614 7 634 -10.5 Q654 -28 684 -28 Q710 -28 725 -10.5 Q740 7 747 47 L830 24 Q817 -50 777.5 -87 Q738 -124 673 -124 Z M562 170 Q593 206 609 260.5 Q625 315 625 383 Q625 518 567 594 Q509 670 406 670 Q349 670 304.5 648.5 Q260 627 230 585 Q204 548 191 497 Q178 446 178 383 Q178 292 203.5 230 Q229 168 279 136 L281 138 Q274 150 270 165.5 Q266 181 266 199 Q266 254 301 287.5 Q336 321 394 321 Q455 321 496 284.5 Q537 248 562 170 Z M377 225 Q351 225 337.5 211 Q324 197 324 171 Q324 139 347 121.5 Q370 104 411 104 Q423 104 436.5 106 Q450 108 465 111 Q452 172 431.5 198.5 Q411 225 377 225 Z " />
<glyph glyph-name="R" unicode="R" horiz-adv-x="706" d="M451 268 Q437 284 416 290.5 Q395 297 351 297 L209 297 L209 0 L78 0 L78 774 L399 774 Q530 774 601 720 Q672 666 672 566 Q672 480 619.5 424 Q567 368 471 351 L471 349 Q535 335 565 300.5 Q595 266 616 187 Q634 116 647.5 73.5 Q661 31 673 5 L673 0 L531 0 Q521 23 512 58.5 Q503 94 491 156 Q482 206 473.5 229.5 Q465 253 451 268 Z M538 541 Q538 606 497.5 637.5 Q457 669 375 669 L209 669 L209 398 L361 398 Q449 398 493.5 434 Q538 470 538 541 Z " />
<glyph glyph-name="S" unicode="S" horiz-adv-x="666" d="M583 365 Q609 340 622 306.5 Q635 273 635 228 Q635 116 555.5 51.5 Q476 -13 338 -13 Q199 -13 115 44.5 Q31 102 9 213 L135 249 Q150 174 202.5 135 Q255 96 343 96 Q421 96 463 127.5 Q505 159 505 218 Q505 250 489 270 Q473 290 436 302 Q425 306 410 309.5 Q395 313 321 328 Q284 335 257 341.5 Q230 348 205 355 Q170 365 144.5 379 Q119 393 100 412 Q75 437 62.5 471 Q50 505 50 547 Q50 657 127.5 722 Q205 787 333 787 Q450 787 525 731.5 Q600 676 629 569 L505 541 Q489 610 445.5 644 Q402 678 329 678 Q260 678 220 646.5 Q180 615 180 560 Q180 518 207 494 Q234 470 304 456 Q312 454 375.5 442.5 Q439 431 480 418 Q518 406 542 393.5 Q566 381 583 365 Z " />
<glyph glyph-name="T" unicode="T" horiz-adv-x="672" d="M654 774 L654 665 L402 665 L402 0 L270 0 L270 665 L17 665 L17 774 L654 774 Z " />
<glyph glyph-name="U" unicode="U" horiz-adv-x="774" d="M200 774 L200 310 Q200 206 247.5 156 Q295 106 395 106 Q487 106 531.5 157 Q576 208 576 314 L576 774 L706 774 L706 309 Q706 152 625 69.5 Q544 -13 392 -13 Q232 -13 150.5 64.5 Q69 142 69 294 L69 774 L200 774 Z " />
<glyph glyph-name="V" unicode="V" horiz-adv-x="741" d="M303 0 L18 774 L153 774 L377 134 L588 774 L723 774 L449 0 L303 0 Z " />
<glyph glyph-name="W" unicode="W" horiz-adv-x="1047" d="M226 0 L21 774 L151 774 L302 172 L458 774 L590 774 L754 166 L896 774 L1026 774 L829 0 L688 0 L524 618 L367 0 L226 0 Z " />
<glyph glyph-name="X" unicode="X" horiz-adv-x="701" d="M685 0 L543 0 L350 304 L158 0 L15 0 L272 397 L29 774 L172 774 L359 482 L543 774 L676 774 L434 391 L685 0 Z " />
<glyph glyph-name="Y" unicode="Y" horiz-adv-x="651" d="M521 774 L650 774 L397 310 L397 0 L265 0 L265 312 L0 774 L139 774 L333 425 L521 774 Z " />
<glyph glyph-name="Z" unicode="Z" horiz-adv-x="667" d="M489 665 L55 665 L55 774 L630 774 L630 662 L185 109 L641 109 L641 0 L37 0 L37 113 L489 665 Z " />
<glyph glyph-name="bracketleft" unicode="&#x5b;" horiz-adv-x="426" d="M91 -231 L91 815 L417 815 L417 721 L214 721 L214 -137 L420 -137 L420 -231 L91 -231 Z " />
<glyph glyph-name="backslash" unicode="&#x5c;" horiz-adv-x="433" d="M133 815 L408 -231 L296 -231 L22 815 L133 815 Z " />
<glyph glyph-name="bracketright" unicode="&#x5d;" horiz-adv-x="426" d="M337 815 L337 -231 L11 -231 L11 -137 L214 -137 L214 721 L8 721 L8 815 L337 815 Z " />
<glyph glyph-name="asciicircum" unicode="&#x5e;" horiz-adv-x="384" d="M231 774 L356 488 L259 488 L193 662 L124 488 L28 488 L152 774 L231 774 Z " />
<glyph glyph-name="uni005F" unicode="&#x5f;" horiz-adv-x="434" d="M434 -131 L0 -131 L0 -65 L434 -65 L434 -131 Z " />
<glyph glyph-name="grave" unicode="&#x60;" horiz-adv-x="500" d="M277 814 L347 630 L255 630 L154 814 L277 814 Z " />
<glyph glyph-name="a" unicode="a" horiz-adv-x="625" d="M545 -9 Q480 -9 445 20.5 Q410 50 407 108 L405 108 Q377 49 327.5 18 Q278 -13 211 -13 Q131 -13 84 29.5 Q37 72 37 145 Q37 187 52 218.5 Q67 250 98 273 Q122 291 157 303 Q192 315 240 322 L320 333 Q368 340 388.5 356 Q409 372 409 403 Q409 440 383 461 Q357 482 311 482 Q257 482 224.5 454.5 Q192 427 179 370 L61 391 Q86 484 151.5 534 Q217 584 313 584 Q419 584 475.5 529 Q532 474 532 370 L532 153 Q532 116 545.5 101 Q559 86 594 86 Q601 86 606.5 86.5 Q612 87 619 88 L619 1 Q608 -3 587 -6 Q566 -9 545 -9 Z M168 162 Q168 122 192.5 100 Q217 78 262 78 Q329 78 369 127.5 Q409 177 409 259 L409 290 Q399 282 382 276 Q365 270 336 265 L267 253 Q215 244 191.5 222.5 Q168 201 168 162 Z " />
<glyph glyph-name="b" unicode="b" horiz-adv-x="654" d="M389 584 Q494 584 555.5 503.5 Q617 423 617 286 Q617 150 554 68.5 Q491 -13 387 -13 Q320 -13 272.5 18 Q225 49 199 109 L196 109 L196 0 L71 0 L71 815 L198 815 L198 457 L202 457 Q229 519 277 551.5 Q325 584 389 584 Z M487 286 Q487 375 448.5 427 Q410 479 345 479 Q276 479 236.5 427.5 Q197 376 197 285 Q197 197 237 145 Q277 93 345 93 Q412 93 449.5 144 Q487 195 487 286 Z " />
<glyph glyph-name="c" unicode="c" horiz-adv-x="607" d="M316 476 Q247 476 207 425.5 Q167 375 167 286 Q167 197 207 145.5 Q247 94 317 94 Q372 94 406.5 123.5 Q441 153 459 215 L579 189 Q557 94 487.5 40.5 Q418 -13 315 -13 Q184 -13 110.5 65 Q37 143 37 283 Q37 417 115 500.5 Q193 584 317 584 Q420 584 486 527.5 Q552 471 576 364 L451 342 Q438 408 403.5 442 Q369 476 316 476 Z " />
<glyph glyph-name="d" unicode="d" horiz-adv-x="654" d="M268 -13 Q165 -13 101 67.5 Q37 148 37 281 Q37 416 106 500 Q175 584 281 584 Q340 584 383.5 555 Q427 526 452 470 L456 470 L456 815 L583 815 L583 0 L458 0 L458 114 L455 114 Q427 52 379.5 19.5 Q332 -13 268 -13 Z M167 283 Q167 194 205.5 143.5 Q244 93 311 93 Q380 93 418.5 144 Q457 195 457 285 Q457 375 418.5 427 Q380 479 314 479 Q245 479 206 427 Q167 375 167 283 Z " />
<glyph glyph-name="e" unicode="e" horiz-adv-x="605" d="M321 -13 Q190 -13 113.5 67 Q37 147 37 283 Q37 415 115 499.5 Q193 584 315 584 Q391 584 447 551 Q503 518 535 456 Q555 415 565 366 Q575 317 574 259 L165 259 Q170 180 212 135 Q254 90 324 90 Q380 90 416.5 116 Q453 142 473 196 L581 162 Q550 78 482.5 32.5 Q415 -13 321 -13 Z M429 412 Q414 445 384 463.5 Q354 482 314 482 Q254 482 215 444.5 Q176 407 167 340 L446 340 Q445 361 440.5 378 Q436 395 429 412 Z " />
<glyph glyph-name="f" unicode="f" horiz-adv-x="403" d="M250 0 L122 0 L122 475 L9 475 L9 571 L122 571 L122 625 Q122 721 168.5 772 Q215 823 303 823 Q331 823 358.5 818.5 Q386 814 406 806 L387 710 Q373 715 357 718 Q341 721 326 721 Q285 721 266 697 Q247 673 247 620 L247 571 L390 571 L390 475 L250 475 L250 0 Z " />
<glyph glyph-name="g" unicode="g" horiz-adv-x="609" d="M289 -198 Q150 -198 80.5 -166.5 Q11 -135 11 -71 Q11 -32 41 -5.5 Q71 21 127 31 L127 33 Q88 43 68 65.5 Q48 88 48 120 Q48 155 71.5 181.5 Q95 208 141 224 L141 226 Q101 251 80.5 290 Q60 329 60 378 Q60 470 125 527 Q190 584 294 584 Q339 584 379 572 Q419 560 450 538 L519 654 L605 584 L486 503 Q506 478 516 448 Q526 418 526 384 Q526 294 464 241 Q402 188 297 188 Q265 188 235.5 193 Q206 198 180 207 Q164 200 155.5 189.5 Q147 179 147 165 Q147 143 166.5 133 Q186 123 227 123 L440 123 Q526 123 569 91.5 Q612 60 612 -3 Q612 -97 528 -147.5 Q444 -198 289 -198 Z M185 381 Q185 334 214.5 306.5 Q244 279 296 279 Q347 279 374 307.5 Q401 336 401 390 Q401 437 372 465 Q343 493 294 493 Q244 493 214.5 463 Q185 433 185 381 Z M494 -28 Q494 -4 476.5 6 Q459 16 417 16 L236 16 Q180 16 153.5 1.5 Q127 -13 127 -43 Q127 -77 170.5 -94 Q214 -111 300 -111 Q391 -111 442.5 -89 Q494 -67 494 -28 Z " />
<glyph glyph-name="h" unicode="h" horiz-adv-x="654" d="M71 0 L71 815 L198 815 L198 458 L201 458 Q231 518 281.5 550.5 Q332 583 395 583 Q489 583 539 523.5 Q589 464 589 350 L589 0 L462 0 L462 316 Q462 402 433.5 441 Q405 480 343 480 Q275 480 236.5 429 Q198 378 198 289 L198 0 L71 0 Z " />
<glyph glyph-name="i" unicode="i" horiz-adv-x="272" d="M204 686 L69 686 L69 815 L204 815 L204 686 Z M72 0 L72 571 L200 571 L200 0 L72 0 Z " />
<glyph glyph-name="j" unicode="j" horiz-adv-x="272" d="M204 686 L69 686 L69 815 L204 815 L204 686 Z M-38 -184 L-51 -85 Q-36 -88 -24 -89.5 Q-12 -91 0 -91 Q39 -91 55.5 -72.5 Q72 -54 72 -10 L72 571 L200 571 L200 -15 Q200 -108 160 -151.5 Q120 -195 34 -195 Q16 -195 -3 -192 Q-22 -189 -38 -184 Z " />
<glyph glyph-name="k" unicode="k" horiz-adv-x="600" d="M605 0 L464 0 L294 291 L199 194 L199 0 L71 0 L71 815 L199 815 L199 314 L440 571 L588 571 L389 356 L605 0 Z " />
<glyph glyph-name="l" unicode="l" horiz-adv-x="269" d="M71 0 L71 815 L198 815 L198 0 L71 0 Z " />
<glyph glyph-name="m" unicode="m" horiz-adv-x="994" d="M71 0 L71 571 L196 571 L196 453 L198 453 Q227 516 275 549.5 Q323 583 383 583 Q453 583 496 545 Q539 507 552 433 L555 433 Q582 504 632.5 543.5 Q683 583 748 583 Q835 583 881.5 524 Q928 465 928 353 L928 0 L801 0 L801 326 Q801 405 776 442.5 Q751 480 698 480 Q634 480 598.5 429 Q563 378 563 287 L563 0 L436 0 L436 326 Q436 405 411 442.5 Q386 480 332 480 Q269 480 233.5 429 Q198 378 198 287 L198 0 L71 0 Z " />
<glyph glyph-name="n" unicode="n" horiz-adv-x="654" d="M71 0 L71 571 L196 571 L196 453 L198 453 Q228 515 279 549 Q330 583 395 583 Q489 583 539 523.5 Q589 464 589 350 L589 0 L462 0 L462 316 Q462 402 433.5 441 Q405 480 343 480 Q275 480 236.5 429 Q198 378 198 289 L198 0 L71 0 Z " />
<glyph glyph-name="o" unicode="o" horiz-adv-x="630" d="M314 -13 Q186 -13 111.5 66 Q37 145 37 284 Q38 421 114.5 502.5 Q191 584 317 584 Q443 584 518 504.5 Q593 425 593 288 Q593 147 518 67 Q443 -13 314 -13 Z M316 93 Q388 93 425.5 142 Q463 191 463 285 Q463 377 424.5 427.5 Q386 478 316 478 Q244 478 205.5 428.5 Q167 379 167 286 Q167 194 206 143.5 Q245 93 316 93 Z " />
<glyph glyph-name="p" unicode="p" horiz-adv-x="654" d="M198 -185 L71 -185 L71 571 L196 571 L196 451 L199 451 Q227 516 275.5 550 Q324 584 389 584 Q494 584 555.5 503.5 Q617 423 617 286 Q617 150 554 68.5 Q491 -13 387 -13 Q322 -13 275 16.5 Q228 46 202 104 L198 104 L198 -185 Z M487 286 Q487 375 448.5 427 Q410 479 345 479 Q276 479 236.5 427.5 Q197 376 197 285 Q197 197 237 145 Q277 93 345 93 Q412 93 449.5 144 Q487 195 487 286 Z " />
<glyph glyph-name="q" unicode="q" horiz-adv-x="654" d="M37 281 Q37 417 106.5 500.5 Q176 584 283 584 Q343 584 386.5 553.5 Q430 523 455 463 L458 463 L458 571 L583 571 L583 -186 L456 -185 L456 108 L452 108 Q425 49 378 18 Q331 -13 268 -13 Q165 -13 101 67.5 Q37 148 37 281 Z M457 285 Q457 375 418.5 427 Q380 479 314 479 Q245 479 206 427 Q167 375 167 283 Q167 194 205.5 143.5 Q244 93 311 93 Q380 93 418.5 144 Q457 195 457 285 Z " />
<glyph glyph-name="r" unicode="r" horiz-adv-x="520" d="M360 582 Q427 582 463.5 538 Q500 494 500 413 Q500 394 497.5 371 Q495 348 491 329 L373 316 Q377 333 379.5 355 Q382 377 382 394 Q382 442 363 467.5 Q344 493 308 493 Q257 493 227.5 440.5 Q198 388 198 295 L198 0 L71 0 L71 571 L197 571 L197 461 L199 461 Q224 520 265 551 Q306 582 360 582 Z " />
<glyph glyph-name="s" unicode="s" horiz-adv-x="558" d="M293 85 Q346 85 375.5 105.5 Q405 126 405 164 Q405 184 393 196 Q381 208 353 216 Q338 220 306 225.5 Q274 231 272 231 Q182 247 145.5 260 Q109 273 88 293 Q69 312 59 339 Q49 366 49 400 Q49 482 110.5 532.5 Q172 583 272 583 Q368 583 432.5 537 Q497 491 514 410 L403 389 Q393 437 359.5 462.5 Q326 488 272 488 Q224 488 196.5 467.5 Q169 447 169 410 Q169 381 191 366 Q213 351 300 337 Q415 317 442.5 305.5 Q470 294 489 276 Q507 258 516.5 232.5 Q526 207 526 173 Q526 89 461.5 38.5 Q397 -12 290 -12 Q176 -12 107.5 33 Q39 78 20 165 L138 190 Q150 137 188.5 111 Q227 85 293 85 Z " />
<glyph glyph-name="t" unicode="t" horiz-adv-x="423" d="M330 91 Q351 91 367 92.5 Q383 94 397 98 L397 4 Q371 -4 344.5 -8 Q318 -12 287 -12 Q196 -12 153 31.5 Q110 75 110 167 L110 475 L-5 475 L-5 571 L112 571 L112 685 L237 738 L237 571 L397 571 L397 475 L237 475 L237 186 Q237 133 257.5 112 Q278 91 330 91 Z " />
<glyph glyph-name="u" unicode="u" horiz-adv-x="650" d="M258 -12 Q163 -12 113.5 45 Q64 102 64 211 L64 571 L191 571 L191 250 Q191 167 219.5 129 Q248 91 310 91 Q377 91 414.5 140.5 Q452 190 452 280 L452 571 L580 571 L580 0 L455 0 L455 117 L453 117 Q423 55 372.5 21.5 Q322 -12 258 -12 Z " />
<glyph glyph-name="v" unicode="v" horiz-adv-x="582" d="M445 571 L574 571 L368 0 L221 0 L8 571 L140 571 L297 118 L445 571 Z " />
<glyph glyph-name="w" unicode="w" horiz-adv-x="835" d="M670 0 L539 0 L419 424 L303 0 L168 0 L9 571 L139 571 L244 139 L367 571 L474 571 L604 136 L705 571 L826 571 L670 0 Z " />
<glyph glyph-name="x" unicode="x" horiz-adv-x="576" d="M565 0 L429 0 L280 209 L145 0 L9 0 L208 294 L18 571 L154 571 L290 372 L419 571 L547 571 L361 286 L565 0 Z " />
<glyph glyph-name="y" unicode="y" horiz-adv-x="581" d="M572 571 L370 22 Q324 -103 271.5 -150 Q219 -197 126 -197 Q85 -197 43.5 -189.5 Q2 -182 -24 -169 L8 -61 Q38 -74 66 -80 Q94 -86 123 -86 Q152 -86 174 -75 Q196 -64 212 -40 Q218 -32 222.5 -24.5 Q227 -17 230 -9 L6 571 L139 571 L297 132 L443 571 L572 571 Z " />
<glyph glyph-name="z" unicode="z" horiz-adv-x="549" d="M370 471 L52 471 L52 571 L514 571 L514 466 L182 100 L522 100 L522 0 L31 0 L31 105 L370 471 Z " />
<glyph glyph-name="braceleft" unicode="&#x7b;" horiz-adv-x="413" d="M326 -128 L406 -128 L406 -231 L297 -231 Q214 -231 176.5 -196 Q139 -161 142 -85 L152 163 Q154 207 137 223.5 Q120 240 72 240 L5 240 L5 344 L72 344 Q119 344 136.5 360.5 Q154 377 152 420 L142 669 Q139 745 176 780 Q213 815 297 815 L406 815 L406 712 L326 712 Q289 712 275.5 700 Q262 688 262 655 L262 423 Q262 361 235.5 331 Q209 301 147 293 L147 291 Q209 283 235.5 253 Q262 223 262 160 L262 -71 Q262 -104 276 -116 Q290 -128 326 -128 Z " />
<glyph glyph-name="bar" unicode="&#x7c;" horiz-adv-x="234" d="M64 -231 L64 815 L170 815 L170 -231 L64 -231 Z " />
<glyph glyph-name="braceright" unicode="&#x7d;" horiz-adv-x="413" d="M88 713 L8 713 L8 816 L117 816 Q200 816 237.5 781 Q275 746 272 670 L262 422 Q260 378 277 361.5 Q294 345 342 345 L409 345 L409 241 L342 241 Q295 241 277.5 224.5 Q260 208 262 165 L272 -84 Q275 -160 238 -195 Q201 -230 117 -230 L8 -230 L8 -127 L88 -127 Q125 -127 138.5 -115 Q152 -103 152 -70 L152 162 Q152 224 178.5 254 Q205 284 267 292 L267 294 Q205 302 178.5 332 Q152 362 152 425 L152 656 Q152 689 138 701 Q124 713 88 713 Z " />
<glyph glyph-name="asciitilde" unicode="&#x7e;" horiz-adv-x="503" d="M350 374 Q368 374 374 389 Q380 404 380 444 L380 482 L466 469 L466 425 Q466 344 440 305 Q414 266 360 266 Q332 266 308.5 276 Q285 286 257 310 L218 344 Q196 362 184.5 367.5 Q173 373 160 373 Q140 373 131.5 357 Q123 341 123 301 L123 265 L36 278 L36 318 Q36 399 65.5 440 Q95 481 153 481 Q178 481 202 471.5 Q226 462 249 443 L285 411 Q313 387 325.5 380.5 Q338 374 350 374 Z " />
<glyph glyph-name="exclamdown" unicode="&#xa1;" horiz-adv-x="284" d="M209 32 L209 -203 L77 -203 L77 32 L107 364 L179 364 L209 32 Z M77 571 L210 571 L210 432 L77 432 L77 571 Z " />
<glyph glyph-name="cent" unicode="&#xa2;" horiz-adv-x="607" d="M369 -9 L369 -161 L260 -161 L260 -9 Q154 7 95.5 83.5 Q37 160 37 283 Q37 400 97.5 480 Q158 560 260 579 L260 709 L369 709 L369 580 Q450 567 502.5 512 Q555 457 576 364 L451 342 Q441 392 419 423.5 Q397 455 364 468 L364 100 Q399 111 422.5 139 Q446 167 459 215 L579 189 Q560 108 505 56 Q450 4 369 -9 Z M167 286 Q167 216 192.5 168 Q218 120 265 103 L265 468 Q218 451 192.5 403.5 Q167 356 167 286 Z " />
<glyph glyph-name="sterling" unicode="&#xa3;" horiz-adv-x="734" d="M172 321 L38 321 L38 402 L131 402 Q118 435 111.5 465 Q105 495 105 523 Q105 642 183 714.5 Q261 787 390 787 Q512 787 583 717.5 Q654 648 666 516 L531 492 Q525 578 488 621.5 Q451 665 384 665 Q314 665 275.5 625 Q237 585 237 513 Q237 486 241.5 461 Q246 436 258 402 L555 402 L555 321 L289 321 Q313 256 319 230 Q325 204 325 180 L325 164 Q385 125 421 112.5 Q457 100 495 100 Q546 100 566.5 125 Q587 150 586 206 L586 231 L696 231 Q699 211 700.5 194 Q702 177 702 166 Q702 81 655 34.5 Q608 -12 524 -12 Q470 -12 422 7.5 Q374 27 305 85 Q284 42 246.5 18 Q209 -6 162 -6 Q104 -6 70 23.5 Q36 53 36 102 Q36 155 74.5 188 Q113 221 175 221 Q187 221 199 219.5 Q211 218 222 215 Q217 231 208 251 Q199 271 172 321 Z M169 155 Q143 155 128.5 142.5 Q114 130 114 108 Q114 87 127 75.5 Q140 64 163 64 Q192 64 209 83.5 Q226 103 230 139 Q215 147 199.5 151 Q184 155 169 155 Z " />
<glyph glyph-name="currency" unicode="&#xa4;" horiz-adv-x="646" d="M186 194 L125 132 L64 194 L129 259 Q113 287 104.5 318.5 Q96 350 96 384 Q96 418 105 449.5 Q114 481 131 509 L64 575 L125 637 L189 574 Q217 595 250.5 605.5 Q284 616 321 616 Q359 616 393.5 604.5 Q428 593 455 571 L521 637 L583 575 L512 505 Q527 478 534.5 447.5 Q542 417 542 384 Q542 352 534.5 321.5 Q527 291 512 265 L583 194 L521 132 L455 199 Q427 176 392.5 164.5 Q358 153 319 153 Q281 153 247.5 163.5 Q214 174 186 194 Z M319 245 Q375 245 408 283 Q441 321 441 384 Q441 445 408 484 Q375 523 321 523 Q265 523 231 484 Q197 445 197 383 Q197 325 231.5 285 Q266 245 319 245 Z " />
<glyph glyph-name="yen" unicode="&#xa5;" horiz-adv-x="651" d="M265 130 L67 130 L67 218 L265 218 L265 286 L67 286 L67 374 L229 374 L0 774 L139 774 L333 425 L521 774 L650 774 L432 374 L595 374 L595 286 L397 286 L397 218 L595 218 L595 130 L397 130 L397 0 L265 0 L265 130 Z " />
<glyph glyph-name="brokenbar" unicode="&#xa6;" horiz-adv-x="234" d="M64 358 L64 815 L170 815 L170 358 L64 358 Z M64 -231 L64 243 L170 243 L170 -231 L64 -231 Z " />
<glyph glyph-name="section" unicode="&#xa7;" horiz-adv-x="619" d="M489 154 Q509 135 520 109 Q531 83 531 52 Q531 -34 468.5 -83.5 Q406 -133 299 -133 Q196 -133 126 -85.5 Q56 -38 41 44 L160 66 Q170 16 207 -10.5 Q244 -37 303 -37 Q356 -37 386 -15 Q416 7 416 46 Q416 78 396.5 97.5 Q377 117 327 136 L153 205 Q86 233 56.5 269.5 Q27 306 27 360 Q27 406 53 441.5 Q79 477 128 498 Q107 520 96 548 Q85 576 85 606 Q85 691 144 740 Q203 789 302 789 Q395 789 457 742.5 Q519 696 536 613 L430 592 Q419 642 386 669 Q353 696 302 696 Q253 696 225.5 672.5 Q198 649 198 607 Q198 576 218 554 Q238 532 282 516 L465 449 Q530 425 560.5 387.5 Q591 350 591 295 Q591 248 565 212 Q539 176 489 154 Z M128 379 Q128 350 148 329 Q168 308 213 290 L435 202 Q461 215 474 233 Q487 251 487 276 Q487 305 467 326.5 Q447 348 404 364 L176 451 Q152 439 140 421 Q128 403 128 379 Z " />
<glyph glyph-name="dieresis" unicode="&#xa8;" horiz-adv-x="500" d="M210 659 L92 659 L92 776 L210 776 L210 659 Z M408 659 L289 659 L289 776 L408 776 L408 659 Z " />
<glyph glyph-name="copyright" unicode="&#xa9;" horiz-adv-x="878" d="M439 -16 Q266 -16 157 97 Q48 210 48 384 Q48 558 158.5 672 Q269 786 444 786 Q615 786 722.5 672 Q830 558 830 384 Q830 210 721 97 Q612 -16 439 -16 Z M444 723 Q294 723 206 631 Q118 539 118 384 Q118 235 207.5 141 Q297 47 440 47 Q585 47 672.5 139.5 Q760 232 760 384 Q760 538 674.5 630.5 Q589 723 444 723 Z M451 154 Q352 154 294.5 214 Q237 274 237 379 Q237 486 296 551.5 Q355 617 451 617 Q530 617 582 573 Q634 529 649 449 L556 430 Q547 479 520.5 504.5 Q494 530 452 530 Q397 530 366.5 491 Q336 452 336 382 Q336 316 367 278 Q398 240 452 240 Q495 240 521 263 Q547 286 560 335 L651 313 Q634 238 581.5 196 Q529 154 451 154 Z " />
<glyph glyph-name="ordfeminine" unicode="&#xaa;" horiz-adv-x="431" d="M373 381 Q327 381 302 400.5 Q277 420 274 458 L271 458 Q252 420 218.5 399 Q185 378 143 378 Q89 378 57 407 Q25 436 25 485 Q25 538 58 567 Q91 596 162 605 L216 612 Q248 616 261.5 626 Q275 636 275 656 Q275 679 259 692 Q243 705 215 705 Q183 705 163.5 687.5 Q144 670 136 635 L44 650 Q61 714 106.5 748.5 Q152 783 219 783 Q293 783 333 744.5 Q373 706 373 635 L373 494 Q373 473 381.5 464 Q390 455 410 455 Q414 455 419.5 455.5 Q425 456 429 457 L429 390 Q420 386 404 383.5 Q388 381 373 381 Z M128 499 Q128 474 143 461 Q158 448 186 448 Q226 448 250.5 478.5 Q275 509 275 559 L275 579 Q269 574 259.5 570.5 Q250 567 232 563 L189 556 Q157 551 142.5 537 Q128 523 128 499 Z M428 248 L24 248 L24 322 L428 322 L428 248 Z " />
<glyph glyph-name="guillemotleft" unicode="&#xab;" horiz-adv-x="452" d="M140 500 L253 500 L114 296 L255 85 L141 85 L1 292 L140 500 Z M336 500 L449 500 L310 296 L451 85 L337 85 L197 292 L336 500 Z " />
<glyph glyph-name="logicalnot" unicode="&#xac;" horiz-adv-x="553" d="M394 366 L67 366 L67 452 L487 452 L487 176 L394 176 L394 366 Z " />
<glyph glyph-name="uni00AD" unicode="&#xad;" horiz-adv-x="407" d="M362 279 L45 279 L45 374 L362 374 L362 279 Z " />
<glyph glyph-name="registered" unicode="&#xae;" horiz-adv-x="508" d="M255 380 Q159 380 99.5 440 Q40 500 40 593 Q40 686 99.5 747 Q159 808 254 808 Q349 808 408.5 747.5 Q468 687 468 594 Q468 501 408.5 440.5 Q349 380 255 380 Z M254 773 Q173 773 126 724.5 Q79 676 79 593 Q79 513 127.5 464 Q176 415 255 415 Q335 415 382.5 463.5 Q430 512 430 594 Q430 676 382.5 724.5 Q335 773 254 773 Z M295 531 Q290 556 282.5 562.5 Q275 569 252 569 L219 569 L219 478 L166 478 L166 720 L273 720 Q319 720 343.5 702.5 Q368 685 368 653 Q368 627 350.5 609.5 Q333 592 302 588 L302 587 Q321 583 330.5 572.5 Q340 562 347 538 Q355 512 359 500 Q363 488 367 480 L367 478 L308 478 Q304 486 301.5 497 Q299 508 295 531 Z M313 643 Q313 661 301 669 Q289 677 263 677 L219 677 L219 606 L265 606 Q289 606 301 615 Q313 624 313 643 Z " />
<glyph glyph-name="overscore" unicode="&#xaf;" horiz-adv-x="500" d="M409 658 L91 658 L91 737 L409 737 L409 658 Z " />
<glyph glyph-name="degree" unicode="&#xb0;" horiz-adv-x="482" d="M240 473 Q172 473 130 516 Q88 559 88 628 Q88 694 131 738 Q174 782 242 782 Q309 782 351 738 Q393 694 393 628 Q393 561 350.5 517 Q308 473 240 473 Z M242 718 Q203 718 178.5 693 Q154 668 154 628 Q154 588 177.5 563 Q201 538 240 538 Q280 538 303.5 563 Q327 588 327 628 Q327 668 304 693 Q281 718 242 718 Z " />
<glyph glyph-name="plusminus" unicode="&#xb1;" horiz-adv-x="579" d="M240 357 L76 357 L76 447 L240 447 L240 625 L339 625 L339 447 L502 447 L502 357 L339 357 L339 182 L240 182 L240 357 Z M502 -2 L76 -2 L76 89 L502 89 L502 -2 Z " />
<glyph glyph-name="uni00B2" unicode="&#xb2;" horiz-adv-x="350" d="M234 727 Q234 754 219.5 768.5 Q205 783 179 783 Q146 783 129 758.5 Q112 734 113 688 L30 702 Q31 775 72 817 Q113 859 184 859 Q248 859 285.5 825.5 Q323 792 323 735 Q323 692 299.5 657 Q276 622 219 579 L162 537 L330 537 L330 467 L28 467 L28 523 L151 612 Q196 646 215 672.5 Q234 699 234 727 Z " />
<glyph glyph-name="uni00B3" unicode="&#xb3;" horiz-adv-x="333" d="M219 744 Q219 765 206.5 776 Q194 787 170 787 Q142 787 126 771.5 Q110 756 106 725 L28 741 Q40 797 79.5 828 Q119 859 178 859 Q236 859 271 832 Q306 805 306 760 Q306 729 289 706.5 Q272 684 240 671 L240 670 Q281 660 301 637 Q321 614 321 577 Q321 524 281.5 492 Q242 460 176 460 Q107 460 65 492.5 Q23 525 15 585 L96 603 Q101 567 120.5 549 Q140 531 174 531 Q204 531 219.5 545 Q235 559 235 585 Q235 610 217.5 621.5 Q200 633 162 633 L113 633 L113 697 L157 697 Q188 697 203.5 709 Q219 721 219 744 Z " />
<glyph glyph-name="acute" unicode="&#xb4;" horiz-adv-x="500" d="M246 630 L154 630 L224 814 L347 814 L246 630 Z " />
<glyph glyph-name="uni00B5" unicode="&#xb5;" horiz-adv-x="673" d="M64 -185 L64 571 L191 571 L191 232 Q191 160 222 125 Q253 90 317 90 Q381 90 417 143.5 Q453 197 453 297 L453 571 L580 571 L580 153 Q580 115 593.5 100.5 Q607 86 642 86 Q650 86 656 86.5 Q662 87 667 88 L667 1 Q657 -3 636.5 -6 Q616 -9 593 -9 Q524 -9 489.5 24 Q455 57 455 123 L455 126 L452 126 Q427 59 382 23.5 Q337 -12 278 -12 Q252 -12 229 -7 Q206 -2 186 8 L186 -185 L64 -185 Z " />
<glyph glyph-name="paragraph" unicode="&#xb6;" horiz-adv-x="576" d="M372 -130 L300 -130 L300 376 L272 376 Q164 376 102.5 430 Q41 484 41 578 Q41 671 101.5 722.5 Q162 774 273 774 L512 774 L512 -130 L439 -130 L439 717 L372 717 L372 -130 Z " />
<glyph glyph-name="middot" unicode="&#xb7;" horiz-adv-x="197" d="M165 254 L32 254 L32 394 L165 394 L165 254 Z " />
<glyph glyph-name="cedilla" unicode="&#xb8;" horiz-adv-x="500" d="M248 -163 Q278 -163 293 -153.5 Q308 -144 308 -126 Q308 -111 299 -103 Q290 -95 273 -95 Q260 -95 249 -100.5 Q238 -106 233 -116 L184 -106 L220 12 L288 12 L267 -58 Q274 -56 282 -55 Q290 -54 301 -54 Q337 -54 360.5 -75.5 Q384 -97 384 -133 Q384 -178 348.5 -205.5 Q313 -233 253 -233 Q215 -233 178 -225 Q141 -217 116 -204 L145 -139 Q166 -150 194 -156.5 Q222 -163 248 -163 Z " />
<glyph glyph-name="uni00B9" unicode="&#xb9;" horiz-adv-x="219" d="M6 741 L6 806 L69 806 Q92 806 99 811.5 Q106 817 107 836 L108 853 L177 853 L177 467 L89 467 L89 741 L6 741 Z " />
<glyph glyph-name="ordmasculine" unicode="&#xba;" horiz-adv-x="431" d="M215 378 Q126 378 74.5 432 Q23 486 23 580 Q24 672 77 727.5 Q130 783 217 783 Q304 783 356 728.5 Q408 674 408 582 Q408 486 356 432 Q304 378 215 378 Z M216 461 Q260 461 283 491.5 Q306 522 306 581 Q306 638 282.5 669.5 Q259 701 217 701 Q174 701 150 669.5 Q126 638 126 581 Q126 524 149.5 492.5 Q173 461 216 461 Z M414 248 L17 248 L17 322 L414 322 L414 248 Z " />
<glyph glyph-name="guillemotright" unicode="&#xbb;" horiz-adv-x="452" d="M114 500 L255 292 L115 85 L2 85 L141 289 L1 500 L114 500 Z M310 500 L451 292 L311 85 L198 85 L337 289 L197 500 L310 500 Z " />
<glyph glyph-name="onequarter" unicode="&#xbc;" horiz-adv-x="719" d="M569 774 L680 774 L121 0 L6 0 L569 774 Z M20 662 L20 727 L83 727 Q106 727 113 732.5 Q120 738 121 757 L122 774 L191 774 L191 388 L103 388 L103 662 L20 662 Z M711 146 L711 77 L650 77 L650 0 L562 0 L562 77 L388 77 L388 153 L566 386 L650 386 L650 146 L711 146 Z M568 296 L457 146 L568 146 L568 296 Z " />
<glyph glyph-name="onehalf" unicode="&#xbd;" horiz-adv-x="752" d="M569 774 L680 774 L121 0 L6 0 L569 774 Z M20 662 L20 727 L83 727 Q106 727 113 732.5 Q120 738 121 757 L122 774 L191 774 L191 388 L103 388 L103 662 L20 662 Z M636 260 Q636 287 621.5 301.5 Q607 316 581 316 Q548 316 531 291.5 Q514 267 515 221 L432 235 Q433 308 474 350 Q515 392 586 392 Q650 392 687.5 358.5 Q725 325 725 268 Q725 225 701.5 190 Q678 155 621 112 L564 70 L732 70 L732 0 L430 0 L430 56 L553 145 Q598 179 617 205.5 Q636 232 636 260 Z " />
<glyph glyph-name="threequarters" unicode="&#xbe;" horiz-adv-x="820" d="M670 774 L781 774 L222 0 L107 0 L670 774 Z M244 665 Q244 686 231.5 697 Q219 708 195 708 Q167 708 151 692.5 Q135 677 131 646 L53 662 Q65 718 104.5 749 Q144 780 203 780 Q261 780 296 753 Q331 726 331 681 Q331 650 314 627.5 Q297 605 265 592 L265 591 Q306 581 326 558 Q346 535 346 498 Q346 445 306.5 413 Q267 381 201 381 Q132 381 90 413.5 Q48 446 40 506 L121 524 Q126 488 145.5 470 Q165 452 199 452 Q229 452 244.5 466 Q260 480 260 506 Q260 531 242.5 542.5 Q225 554 187 554 L138 554 L138 618 L182 618 Q213 618 228.5 630 Q244 642 244 665 Z M812 146 L812 77 L751 77 L751 0 L663 0 L663 77 L489 77 L489 153 L667 386 L751 386 L751 146 L812 146 Z M669 296 L558 146 L669 146 L669 296 Z " />
<glyph glyph-name="questiondown" unicode="&#xbf;" horiz-adv-x="555" d="M273 -105 Q343 -105 381 -65 Q419 -25 433 62 L557 39 Q537 -82 460.5 -149 Q384 -216 266 -216 Q151 -216 80.5 -157 Q10 -98 10 -2 Q10 56 36.5 100.5 Q63 145 132 198 Q201 250 214.5 274 Q228 298 228 344 L228 367 L345 367 L345 333 Q345 276 324.5 238 Q304 200 240 149 Q186 106 167 75.5 Q148 45 148 7 Q148 -45 181.5 -75 Q215 -105 273 -105 Z M220 571 L353 571 L353 432 L220 432 L220 571 Z " />
<glyph glyph-name="Agrave" unicode="&#xc0;" horiz-adv-x="738" d="M151 0 L19 0 L282 774 L441 774 L719 0 L578 0 L518 181 L209 181 L151 0 Z M361 656 L242 285 L484 285 L361 656 Z M364 975 L415 828 L313 828 L241 975 L364 975 Z " />
<glyph glyph-name="Aacute" unicode="&#xc1;" horiz-adv-x="738" d="M151 0 L19 0 L282 774 L441 774 L719 0 L578 0 L518 181 L209 181 L151 0 Z M361 656 L242 285 L484 285 L361 656 Z M415 828 L313 828 L365 975 L487 975 L415 828 Z " />
<glyph glyph-name="Acircumflex" unicode="&#xc2;" horiz-adv-x="738" d="M151 0 L19 0 L282 774 L441 774 L719 0 L578 0 L518 181 L209 181 L151 0 Z M361 656 L242 285 L484 285 L361 656 Z M293 824 L197 824 L325 972 L404 972 L533 824 L435 824 L363 891 L293 824 Z " />
<glyph glyph-name="Atilde" unicode="&#xc3;" horiz-adv-x="738" d="M151 0 L19 0 L282 774 L441 774 L719 0 L578 0 L518 181 L209 181 L151 0 Z M361 656 L242 285 L484 285 L361 656 Z M288 973 Q309 973 330.5 965.5 Q352 958 386 934 Q411 917 423 912 Q435 907 446 907 Q465 907 473 922.5 Q481 938 480 972 L550 963 Q552 895 528 858.5 Q504 822 456 822 Q435 822 414 829.5 Q393 837 357 860 Q332 877 319.5 882 Q307 887 297 887 Q276 887 266.5 871.5 Q257 856 257 821 L185 830 Q183 897 210 935 Q237 973 288 973 Z " />
<glyph glyph-name="Adieresis" unicode="&#xc4;" horiz-adv-x="738" d="M151 0 L19 0 L282 774 L441 774 L719 0 L578 0 L518 181 L209 181 L151 0 Z M361 656 L242 285 L484 285 L361 656 Z M324 829 L206 829 L206 946 L324 946 L324 829 Z M524 829 L405 829 L405 946 L524 946 L524 829 Z " />
<glyph glyph-name="Aring" unicode="&#xc5;" horiz-adv-x="738" d="M151 0 L19 0 L282 774 L441 774 L719 0 L578 0 L518 181 L209 181 L151 0 Z M361 656 L242 285 L484 285 L361 656 Z M472 925 Q472 876 442 845.5 Q412 815 365 815 Q317 815 287.5 845 Q258 875 258 923 Q258 971 288.5 1002 Q319 1033 366 1033 Q413 1033 442.5 1003 Q472 973 472 925 Z M314 923 Q314 897 328.5 882 Q343 867 367 867 Q391 867 404.5 882 Q418 897 418 924 Q418 952 404 967.5 Q390 983 366 983 Q343 983 328.5 966.5 Q314 950 314 923 Z " />
<glyph glyph-name="AE" unicode="&#xc6;" horiz-adv-x="1052" d="M652 109 L1012 109 L1012 0 L538 0 L513 181 L229 181 L144 0 L6 0 L389 774 L992 774 L992 665 L573 665 L603 453 L968 453 L968 347 L618 347 L652 109 Z M448 649 L278 285 L499 285 L448 649 Z " />
<glyph glyph-name="Ccedilla" unicode="&#xc7;" horiz-adv-x="767" d="M43 378 Q43 562 145 674.5 Q247 787 411 787 Q544 787 630.5 713 Q717 639 744 502 L613 476 Q594 572 542.5 621 Q491 670 409 670 Q300 670 239 594 Q178 518 178 381 Q178 252 239.5 178 Q301 104 409 104 Q493 104 544 148 Q595 192 621 287 L748 256 Q717 132 635 63 Q553 -6 429 -12 L416 -58 Q423 -56 431 -55 Q439 -54 450 -54 Q486 -54 509.5 -75.5 Q533 -97 533 -133 Q533 -178 497.5 -205.5 Q462 -233 402 -233 Q364 -233 327 -225 Q290 -217 265 -204 L294 -139 Q315 -150 343 -156.5 Q371 -163 397 -163 Q427 -163 442 -153.5 Q457 -144 457 -126 Q457 -111 448 -103 Q439 -95 422 -95 Q409 -95 398 -100.5 Q387 -106 382 -116 L333 -106 L362 -11 Q213 3 128 106 Q43 209 43 378 Z " />
<glyph glyph-name="Egrave" unicode="&#xc8;" horiz-adv-x="661" d="M78 0 L78 774 L601 774 L601 665 L209 665 L209 453 L577 453 L577 347 L209 347 L209 109 L621 109 L621 0 L78 0 Z M355 975 L406 828 L304 828 L232 975 L355 975 Z " />
<glyph glyph-name="Eacute" unicode="&#xc9;" horiz-adv-x="661" d="M78 0 L78 774 L601 774 L601 665 L209 665 L209 453 L577 453 L577 347 L209 347 L209 109 L621 109 L621 0 L78 0 Z M406 828 L304 828 L356 975 L478 975 L406 828 Z " />
<glyph glyph-name="Ecircumflex" unicode="&#xca;" horiz-adv-x="661" d="M78 0 L78 774 L601 774 L601 665 L209 665 L209 453 L577 453 L577 347 L209 347 L209 109 L621 109 L621 0 L78 0 Z M283 824 L187 824 L315 972 L394 972 L523 824 L425 824 L353 891 L283 824 Z " />
<glyph glyph-name="Edieresis" unicode="&#xcb;" horiz-adv-x="661" d="M78 0 L78 774 L601 774 L601 665 L209 665 L209 453 L577 453 L577 347 L209 347 L209 109 L621 109 L621 0 L78 0 Z M314 829 L196 829 L196 946 L314 946 L314 829 Z M514 829 L395 829 L395 946 L514 946 L514 829 Z " />
<glyph glyph-name="Igrave" unicode="&#xcc;" horiz-adv-x="293" d="M81 0 L81 774 L212 774 L212 0 L81 0 Z M146 975 L197 828 L95 828 L23 975 L146 975 Z " />
<glyph glyph-name="Iacute" unicode="&#xcd;" horiz-adv-x="293" d="M81 0 L81 774 L212 774 L212 0 L81 0 Z M197 828 L95 828 L147 975 L269 975 L197 828 Z " />
<glyph glyph-name="Icircumflex" unicode="&#xce;" horiz-adv-x="293" d="M81 0 L81 774 L212 774 L212 0 L81 0 Z M74 824 L-22 824 L106 972 L185 972 L314 824 L216 824 L144 891 L74 824 Z " />
<glyph glyph-name="Idieresis" unicode="&#xcf;" horiz-adv-x="293" d="M81 0 L81 774 L212 774 L212 0 L81 0 Z M105 829 L-13 829 L-13 946 L105 946 L105 829 Z M305 829 L186 829 L186 946 L305 946 L305 829 Z " />
<glyph glyph-name="Eth" unicode="&#xd0;" horiz-adv-x="800" d="M88 347 L-10 347 L-10 439 L88 439 L88 774 L335 774 Q538 774 648 673.5 Q758 573 758 389 Q758 208 646 104 Q534 0 336 0 L88 0 L88 347 Z M623 391 Q623 525 550.5 594 Q478 663 338 663 L219 663 L219 439 L391 439 L391 347 L219 347 L219 111 L330 111 Q476 111 549.5 181 Q623 251 623 391 Z " />
<glyph glyph-name="Ntilde" unicode="&#xd1;" horiz-adv-x="778" d="M581 774 L701 774 L701 0 L563 0 L198 608 L198 0 L78 0 L78 774 L239 774 L581 197 L581 774 Z M322 966 Q343 966 364.5 958.5 Q386 951 420 927 Q445 910 457 905 Q469 900 480 900 Q499 900 507 915.5 Q515 931 514 965 L584 956 Q586 888 562 851.5 Q538 815 490 815 Q469 815 448 822.5 Q427 830 391 853 Q366 870 353.5 875 Q341 880 331 880 Q310 880 300.5 864.5 Q291 849 291 814 L219 823 Q217 890 244 928 Q271 966 322 966 Z " />
<glyph glyph-name="Ograve" unicode="&#xd2;" horiz-adv-x="803" d="M405 -13 Q235 -13 139 92 Q43 197 43 382 Q43 565 142 676 Q241 787 405 787 Q568 787 664 678.5 Q760 570 760 387 Q760 203 664 95 Q568 -13 405 -13 Z M574 185 Q600 220 612.5 269.5 Q625 319 625 383 Q625 518 567 594 Q509 670 406 670 Q349 670 304.5 648.5 Q260 627 230 585 Q204 548 191 497 Q178 446 178 383 Q178 252 237.5 178 Q297 104 403 104 Q459 104 502 124.5 Q545 145 574 185 Z M406 975 L457 828 L355 828 L283 975 L406 975 Z " />
<glyph glyph-name="Oacute" unicode="&#xd3;" horiz-adv-x="803" d="M405 -13 Q235 -13 139 92 Q43 197 43 382 Q43 565 142 676 Q241 787 405 787 Q568 787 664 678.5 Q760 570 760 387 Q760 203 664 95 Q568 -13 405 -13 Z M574 185 Q600 220 612.5 269.5 Q625 319 625 383 Q625 518 567 594 Q509 670 406 670 Q349 670 304.5 648.5 Q260 627 230 585 Q204 548 191 497 Q178 446 178 383 Q178 252 237.5 178 Q297 104 403 104 Q459 104 502 124.5 Q545 145 574 185 Z M457 828 L355 828 L407 975 L529 975 L457 828 Z " />
<glyph glyph-name="Ocircumflex" unicode="&#xd4;" horiz-adv-x="803" d="M405 -13 Q235 -13 139 92 Q43 197 43 382 Q43 565 142 676 Q241 787 405 787 Q568 787 664 678.5 Q760 570 760 387 Q760 203 664 95 Q568 -13 405 -13 Z M574 185 Q600 220 612.5 269.5 Q625 319 625 383 Q625 518 567 594 Q509 670 406 670 Q349 670 304.5 648.5 Q260 627 230 585 Q204 548 191 497 Q178 446 178 383 Q178 252 237.5 178 Q297 104 403 104 Q459 104 502 124.5 Q545 145 574 185 Z M335 824 L239 824 L367 972 L446 972 L575 824 L477 824 L405 891 L335 824 Z " />
<glyph glyph-name="Otilde" unicode="&#xd5;" horiz-adv-x="803" d="M405 -13 Q235 -13 139 92 Q43 197 43 382 Q43 565 142 676 Q241 787 405 787 Q568 787 664 678.5 Q760 570 760 387 Q760 203 664 95 Q568 -13 405 -13 Z M574 185 Q600 220 612.5 269.5 Q625 319 625 383 Q625 518 567 594 Q509 670 406 670 Q349 670 304.5 648.5 Q260 627 230 585 Q204 548 191 497 Q178 446 178 383 Q178 252 237.5 178 Q297 104 403 104 Q459 104 502 124.5 Q545 145 574 185 Z M330 973 Q351 973 372.5 965.5 Q394 958 428 934 Q453 917 465 912 Q477 907 488 907 Q507 907 515 922.5 Q523 938 522 972 L592 963 Q594 895 570 858.5 Q546 822 498 822 Q477 822 456 829.5 Q435 837 399 860 Q374 877 361.5 882 Q349 887 339 887 Q318 887 308.5 871.5 Q299 856 299 821 L227 830 Q225 897 252 935 Q279 973 330 973 Z " />
<glyph glyph-name="Odieresis" unicode="&#xd6;" horiz-adv-x="803" d="M405 -13 Q235 -13 139 92 Q43 197 43 382 Q43 565 142 676 Q241 787 405 787 Q568 787 664 678.5 Q760 570 760 387 Q760 203 664 95 Q568 -13 405 -13 Z M574 185 Q600 220 612.5 269.5 Q625 319 625 383 Q625 518 567 594 Q509 670 406 670 Q349 670 304.5 648.5 Q260 627 230 585 Q204 548 191 497 Q178 446 178 383 Q178 252 237.5 178 Q297 104 403 104 Q459 104 502 124.5 Q545 145 574 185 Z M366 829 L248 829 L248 946 L366 946 L366 829 Z M566 829 L447 829 L447 946 L566 946 L566 829 Z " />
<glyph glyph-name="multiply" unicode="&#xd7;" horiz-adv-x="579" d="M149 158 L81 225 L221 367 L80 508 L149 578 L294 432 L431 575 L498 508 L361 365 L498 227 L429 158 L288 300 L149 158 Z " />
<glyph glyph-name="Oslash" unicode="&#xd8;" horiz-adv-x="803" d="M116 -22 L49 38 L117 119 Q80 169 61.5 235.5 Q43 302 43 382 Q43 565 142 676 Q241 787 405 787 Q470 787 525.5 769 Q581 751 625 716 L683 784 L750 730 L685 653 Q722 601 741 533.5 Q760 466 760 387 Q760 203 664 95 Q568 -13 405 -13 Q338 -13 282 4 Q226 21 181 54 L116 -22 Z M230 585 Q204 548 191 497 Q178 446 178 383 Q178 334 186.5 292.5 Q195 251 211 219 L541 623 Q515 646 481 658 Q447 670 406 670 Q349 670 304.5 648.5 Q260 627 230 585 Z M574 185 Q600 220 612.5 269.5 Q625 319 625 383 Q625 434 617 477 Q609 520 593 554 L265 149 Q292 127 326.5 115.5 Q361 104 403 104 Q459 104 502 124.5 Q545 145 574 185 Z " />
<glyph glyph-name="Ugrave" unicode="&#xd9;" horiz-adv-x="774" d="M200 774 L200 310 Q200 206 247.5 156 Q295 106 395 106 Q487 106 531.5 157 Q576 208 576 314 L576 774 L706 774 L706 309 Q706 152 625 69.5 Q544 -13 392 -13 Q232 -13 150.5 64.5 Q69 142 69 294 L69 774 L200 774 Z M387 968 L438 821 L336 821 L264 968 L387 968 Z " />
<glyph glyph-name="Uacute" unicode="&#xda;" horiz-adv-x="774" d="M200 774 L200 310 Q200 206 247.5 156 Q295 106 395 106 Q487 106 531.5 157 Q576 208 576 314 L576 774 L706 774 L706 309 Q706 152 625 69.5 Q544 -13 392 -13 Q232 -13 150.5 64.5 Q69 142 69 294 L69 774 L200 774 Z M438 821 L336 821 L388 968 L510 968 L438 821 Z " />
<glyph glyph-name="Ucircumflex" unicode="&#xdb;" horiz-adv-x="774" d="M200 774 L200 310 Q200 206 247.5 156 Q295 106 395 106 Q487 106 531.5 157 Q576 208 576 314 L576 774 L706 774 L706 309 Q706 152 625 69.5 Q544 -13 392 -13 Q232 -13 150.5 64.5 Q69 142 69 294 L69 774 L200 774 Z M315 817 L219 817 L347 965 L426 965 L555 817 L457 817 L385 884 L315 817 Z " />
<glyph glyph-name="Udieresis" unicode="&#xdc;" horiz-adv-x="774" d="M200 774 L200 310 Q200 206 247.5 156 Q295 106 395 106 Q487 106 531.5 157 Q576 208 576 314 L576 774 L706 774 L706 309 Q706 152 625 69.5 Q544 -13 392 -13 Q232 -13 150.5 64.5 Q69 142 69 294 L69 774 L200 774 Z M346 822 L228 822 L228 939 L346 939 L346 822 Z M546 822 L427 822 L427 939 L546 939 L546 822 Z " />
<glyph glyph-name="Yacute" unicode="&#xdd;" horiz-adv-x="651" d="M521 774 L650 774 L397 310 L397 0 L265 0 L265 312 L0 774 L139 774 L333 425 L521 774 Z M387 828 L285 828 L337 975 L459 975 L387 828 Z " />
<glyph glyph-name="Thorn" unicode="&#xde;" horiz-adv-x="678" d="M78 0 L78 774 L209 774 L209 627 L372 627 Q508 627 579.5 567.5 Q651 508 651 395 Q651 275 577.5 211.5 Q504 148 365 148 L209 148 L209 0 L78 0 Z M516 392 Q516 456 475 487.5 Q434 519 350 519 L209 519 L209 257 L343 257 Q437 257 476.5 288 Q516 319 516 392 Z " />
<glyph glyph-name="germandbls" unicode="&#xdf;" horiz-adv-x="673" d="M458 610 Q458 660 428.5 688 Q399 716 345 716 Q275 716 238.5 670 Q202 624 202 535 L202 0 L75 0 L75 519 Q75 664 148 743 Q221 822 353 822 Q457 822 519.5 770.5 Q582 719 582 634 Q582 571 544 524 Q506 477 440 458 L440 456 Q537 434 587.5 377 Q638 320 638 234 Q638 119 570.5 54.5 Q503 -10 382 -10 Q354 -10 327 -7 Q300 -4 274 2 L274 107 Q299 102 320 99.5 Q341 97 361 97 Q433 97 472 136.5 Q511 176 511 249 Q511 322 462.5 358.5 Q414 395 316 395 L286 395 L286 495 L325 495 Q390 495 424 524.5 Q458 554 458 610 Z " />
<glyph glyph-name="agrave" unicode="&#xe0;" horiz-adv-x="625" d="M545 -9 Q480 -9 445 20.5 Q410 50 407 108 L405 108 Q377 49 327.5 18 Q278 -13 211 -13 Q131 -13 84 29.5 Q37 72 37 145 Q37 187 52 218.5 Q67 250 98 273 Q122 291 157 303 Q192 315 240 322 L320 333 Q368 340 388.5 356 Q409 372 409 403 Q409 440 383 461 Q357 482 311 482 Q257 482 224.5 454.5 Q192 427 179 370 L61 391 Q86 484 151.5 534 Q217 584 313 584 Q419 584 475.5 529 Q532 474 532 370 L532 153 Q532 116 545.5 101 Q559 86 594 86 Q601 86 606.5 86.5 Q612 87 619 88 L619 1 Q608 -3 587 -6 Q566 -9 545 -9 Z M168 162 Q168 122 192.5 100 Q217 78 262 78 Q329 78 369 127.5 Q409 177 409 259 L409 290 Q399 282 382 276 Q365 270 336 265 L267 253 Q215 244 191.5 222.5 Q168 201 168 162 Z M291 814 L361 630 L269 630 L168 814 L291 814 Z " />
<glyph glyph-name="aacute" unicode="&#xe1;" horiz-adv-x="625" d="M545 -9 Q480 -9 445 20.5 Q410 50 407 108 L405 108 Q377 49 327.5 18 Q278 -13 211 -13 Q131 -13 84 29.5 Q37 72 37 145 Q37 187 52 218.5 Q67 250 98 273 Q122 291 157 303 Q192 315 240 322 L320 333 Q368 340 388.5 356 Q409 372 409 403 Q409 440 383 461 Q357 482 311 482 Q257 482 224.5 454.5 Q192 427 179 370 L61 391 Q86 484 151.5 534 Q217 584 313 584 Q419 584 475.5 529 Q532 474 532 370 L532 153 Q532 116 545.5 101 Q559 86 594 86 Q601 86 606.5 86.5 Q612 87 619 88 L619 1 Q608 -3 587 -6 Q566 -9 545 -9 Z M168 162 Q168 122 192.5 100 Q217 78 262 78 Q329 78 369 127.5 Q409 177 409 259 L409 290 Q399 282 382 276 Q365 270 336 265 L267 253 Q215 244 191.5 222.5 Q168 201 168 162 Z M361 630 L269 630 L339 814 L462 814 L361 630 Z " />
<glyph glyph-name="acircumflex" unicode="&#xe2;" horiz-adv-x="625" d="M545 -9 Q480 -9 445 20.5 Q410 50 407 108 L405 108 Q377 49 327.5 18 Q278 -13 211 -13 Q131 -13 84 29.5 Q37 72 37 145 Q37 187 52 218.5 Q67 250 98 273 Q122 291 157 303 Q192 315 240 322 L320 333 Q368 340 388.5 356 Q409 372 409 403 Q409 440 383 461 Q357 482 311 482 Q257 482 224.5 454.5 Q192 427 179 370 L61 391 Q86 484 151.5 534 Q217 584 313 584 Q419 584 475.5 529 Q532 474 532 370 L532 153 Q532 116 545.5 101 Q559 86 594 86 Q601 86 606.5 86.5 Q612 87 619 88 L619 1 Q608 -3 587 -6 Q566 -9 545 -9 Z M168 162 Q168 122 192.5 100 Q217 78 262 78 Q329 78 369 127.5 Q409 177 409 259 L409 290 Q399 282 382 276 Q365 270 336 265 L267 253 Q215 244 191.5 222.5 Q168 201 168 162 Z M240 630 L148 630 L274 814 L353 814 L482 630 L388 630 L312 723 L240 630 Z " />
<glyph glyph-name="atilde" unicode="&#xe3;" horiz-adv-x="625" d="M545 -9 Q480 -9 445 20.5 Q410 50 407 108 L405 108 Q377 49 327.5 18 Q278 -13 211 -13 Q131 -13 84 29.5 Q37 72 37 145 Q37 187 52 218.5 Q67 250 98 273 Q122 291 157 303 Q192 315 240 322 L320 333 Q368 340 388.5 356 Q409 372 409 403 Q409 440 383 461 Q357 482 311 482 Q257 482 224.5 454.5 Q192 427 179 370 L61 391 Q86 484 151.5 534 Q217 584 313 584 Q419 584 475.5 529 Q532 474 532 370 L532 153 Q532 116 545.5 101 Q559 86 594 86 Q601 86 606.5 86.5 Q612 87 619 88 L619 1 Q608 -3 587 -6 Q566 -9 545 -9 Z M168 162 Q168 122 192.5 100 Q217 78 262 78 Q329 78 369 127.5 Q409 177 409 259 L409 290 Q399 282 382 276 Q365 270 336 265 L267 253 Q215 244 191.5 222.5 Q168 201 168 162 Z M234 799 Q255 799 276.5 790.5 Q298 782 332 755 Q357 735 369 729.5 Q381 724 392 724 Q411 724 419 741.5 Q427 759 426 798 L496 789 Q498 717 473.5 678 Q449 639 402 639 Q381 639 360 647.5 Q339 656 303 683 Q278 703 265.5 708.5 Q253 714 243 714 Q222 714 212.5 696 Q203 678 203 638 L131 647 Q129 719 156 759 Q183 799 234 799 Z " />
<glyph glyph-name="adieresis" unicode="&#xe4;" horiz-adv-x="625" d="M545 -9 Q480 -9 445 20.5 Q410 50 407 108 L405 108 Q377 49 327.5 18 Q278 -13 211 -13 Q131 -13 84 29.5 Q37 72 37 145 Q37 187 52 218.5 Q67 250 98 273 Q122 291 157 303 Q192 315 240 322 L320 333 Q368 340 388.5 356 Q409 372 409 403 Q409 440 383 461 Q357 482 311 482 Q257 482 224.5 454.5 Q192 427 179 370 L61 391 Q86 484 151.5 534 Q217 584 313 584 Q419 584 475.5 529 Q532 474 532 370 L532 153 Q532 116 545.5 101 Q559 86 594 86 Q601 86 606.5 86.5 Q612 87 619 88 L619 1 Q608 -3 587 -6 Q566 -9 545 -9 Z M168 162 Q168 122 192.5 100 Q217 78 262 78 Q329 78 369 127.5 Q409 177 409 259 L409 290 Q399 282 382 276 Q365 270 336 265 L267 253 Q215 244 191.5 222.5 Q168 201 168 162 Z M275 659 L157 659 L157 776 L275 776 L275 659 Z M473 659 L354 659 L354 776 L473 776 L473 659 Z " />
<glyph glyph-name="aring" unicode="&#xe5;" horiz-adv-x="625" d="M545 -9 Q480 -9 445 20.5 Q410 50 407 108 L405 108 Q377 49 327.5 18 Q278 -13 211 -13 Q131 -13 84 29.5 Q37 72 37 145 Q37 187 52 218.5 Q67 250 98 273 Q122 291 157 303 Q192 315 240 322 L320 333 Q368 340 388.5 356 Q409 372 409 403 Q409 440 383 461 Q357 482 311 482 Q257 482 224.5 454.5 Q192 427 179 370 L61 391 Q86 484 151.5 534 Q217 584 313 584 Q419 584 475.5 529 Q532 474 532 370 L532 153 Q532 116 545.5 101 Q559 86 594 86 Q601 86 606.5 86.5 Q612 87 619 88 L619 1 Q608 -3 587 -6 Q566 -9 545 -9 Z M168 162 Q168 122 192.5 100 Q217 78 262 78 Q329 78 369 127.5 Q409 177 409 259 L409 290 Q399 282 382 276 Q365 270 336 265 L267 253 Q215 244 191.5 222.5 Q168 201 168 162 Z M433 754 Q433 701 400 667 Q367 633 315 633 Q262 633 229.5 666 Q197 699 197 753 Q197 806 231 840 Q265 874 317 874 Q368 874 400.5 840.5 Q433 807 433 754 Z M256 753 Q256 723 272.5 705 Q289 687 315 687 Q343 687 359 704.5 Q375 722 375 753 Q375 785 359.5 802.5 Q344 820 316 820 Q289 820 272.5 801.5 Q256 783 256 753 Z " />
<glyph glyph-name="ae" unicode="&#xe6;" horiz-adv-x="970" d="M692 90 Q746 90 782 116 Q818 142 838 196 L946 162 Q915 77 849 32 Q783 -13 689 -13 Q603 -13 541 21 Q479 55 449 119 Q415 53 359 20 Q303 -13 227 -13 Q137 -13 87 28.5 Q37 70 37 145 Q37 187 52 218.5 Q67 250 98 273 Q122 291 157 303 Q192 315 240 322 L320 333 Q368 340 388.5 356 Q409 372 409 403 Q409 440 383 461 Q357 482 312 482 Q258 482 225 454.5 Q192 427 179 370 L61 391 Q86 485 149 534.5 Q212 584 305 584 Q366 584 411 561 Q456 538 484 494 Q517 537 568.5 560.5 Q620 584 680 584 Q748 584 802.5 555 Q857 526 890 472 Q915 431 927.5 377.5 Q940 324 939 259 L534 259 Q539 180 581 135 Q623 90 692 90 Z M794 410 Q778 445 748 463.5 Q718 482 678 482 Q618 482 581 445 Q544 408 536 340 L811 340 Q809 361 805 378 Q801 395 794 410 Z M168 161 Q168 121 192.5 99.5 Q217 78 262 78 Q329 78 369 128.5 Q409 179 409 263 L409 289 Q399 281 383 276 Q367 271 336 265 L267 253 Q215 244 191.5 222 Q168 200 168 161 Z " />
<glyph glyph-name="ccedilla" unicode="&#xe7;" horiz-adv-x="607" d="M316 476 Q247 476 207 425.5 Q167 375 167 286 Q167 197 207 145.5 Q247 94 317 94 Q372 94 406.5 123.5 Q441 153 459 215 L579 189 Q558 102 497 49 Q436 -4 346 -12 L332 -59 Q339 -57 347 -56 Q355 -55 366 -55 Q402 -55 425.5 -76.5 Q449 -98 449 -134 Q449 -179 413.5 -206.5 Q378 -234 318 -234 Q280 -234 243 -226 Q206 -218 181 -205 L210 -140 Q231 -151 259 -157.5 Q287 -164 313 -164 Q343 -164 358 -154.5 Q373 -145 373 -127 Q373 -112 364 -104 Q355 -96 338 -96 Q325 -96 314 -101.5 Q303 -107 298 -117 L249 -107 L278 -11 Q163 0 100 77 Q37 154 37 283 Q37 417 115 500.5 Q193 584 317 584 Q420 584 486 527.5 Q552 471 576 364 L451 342 Q438 408 403.5 442 Q369 476 316 476 Z " />
<glyph glyph-name="egrave" unicode="&#xe8;" horiz-adv-x="605" d="M321 -13 Q190 -13 113.5 67 Q37 147 37 283 Q37 415 115 499.5 Q193 584 315 584 Q391 584 447 551 Q503 518 535 456 Q555 415 565 366 Q575 317 574 259 L165 259 Q170 180 212 135 Q254 90 324 90 Q380 90 416.5 116 Q453 142 473 196 L581 162 Q550 78 482.5 32.5 Q415 -13 321 -13 Z M429 412 Q414 445 384 463.5 Q354 482 314 482 Q254 482 215 444.5 Q176 407 167 340 L446 340 Q445 361 440.5 378 Q436 395 429 412 Z M289 814 L359 630 L267 630 L166 814 L289 814 Z " />
<glyph glyph-name="eacute" unicode="&#xe9;" horiz-adv-x="605" d="M321 -13 Q190 -13 113.5 67 Q37 147 37 283 Q37 415 115 499.5 Q193 584 315 584 Q391 584 447 551 Q503 518 535 456 Q555 415 565 366 Q575 317 574 259 L165 259 Q170 180 212 135 Q254 90 324 90 Q380 90 416.5 116 Q453 142 473 196 L581 162 Q550 78 482.5 32.5 Q415 -13 321 -13 Z M429 412 Q414 445 384 463.5 Q354 482 314 482 Q254 482 215 444.5 Q176 407 167 340 L446 340 Q445 361 440.5 378 Q436 395 429 412 Z M359 630 L267 630 L337 814 L460 814 L359 630 Z " />
<glyph glyph-name="ecircumflex" unicode="&#xea;" horiz-adv-x="605" d="M321 -13 Q190 -13 113.5 67 Q37 147 37 283 Q37 415 115 499.5 Q193 584 315 584 Q391 584 447 551 Q503 518 535 456 Q555 415 565 366 Q575 317 574 259 L165 259 Q170 180 212 135 Q254 90 324 90 Q380 90 416.5 116 Q453 142 473 196 L581 162 Q550 78 482.5 32.5 Q415 -13 321 -13 Z M429 412 Q414 445 384 463.5 Q354 482 314 482 Q254 482 215 444.5 Q176 407 167 340 L446 340 Q445 361 440.5 378 Q436 395 429 412 Z M238 630 L146 630 L272 814 L351 814 L480 630 L386 630 L310 723 L238 630 Z " />
<glyph glyph-name="edieresis" unicode="&#xeb;" horiz-adv-x="605" d="M321 -13 Q190 -13 113.5 67 Q37 147 37 283 Q37 415 115 499.5 Q193 584 315 584 Q391 584 447 551 Q503 518 535 456 Q555 415 565 366 Q575 317 574 259 L165 259 Q170 180 212 135 Q254 90 324 90 Q380 90 416.5 116 Q453 142 473 196 L581 162 Q550 78 482.5 32.5 Q415 -13 321 -13 Z M429 412 Q414 445 384 463.5 Q354 482 314 482 Q254 482 215 444.5 Q176 407 167 340 L446 340 Q445 361 440.5 378 Q436 395 429 412 Z M273 659 L155 659 L155 776 L273 776 L273 659 Z M471 659 L352 659 L352 776 L471 776 L471 659 Z " />
<glyph glyph-name="igrave" unicode="&#xec;" horiz-adv-x="272" d="M72 0 L72 571 L200 571 L200 0 L72 0 Z M113 814 L183 630 L91 630 L-10 814 L113 814 Z " />
<glyph glyph-name="iacute" unicode="&#xed;" horiz-adv-x="272" d="M72 0 L72 571 L200 571 L200 0 L72 0 Z M183 630 L91 630 L161 814 L284 814 L183 630 Z " />
<glyph glyph-name="icircumflex" unicode="&#xee;" horiz-adv-x="272" d="M72 0 L72 571 L200 571 L200 0 L72 0 Z M62 630 L-30 630 L96 814 L175 814 L304 630 L210 630 L134 723 L62 630 Z " />
<glyph glyph-name="idieresis" unicode="&#xef;" horiz-adv-x="272" d="M72 0 L72 571 L200 571 L200 0 L72 0 Z M97 659 L-21 659 L-21 776 L97 776 L97 659 Z M295 659 L176 659 L176 776 L295 776 L295 659 Z " />
<glyph glyph-name="eth" unicode="&#xf0;" horiz-adv-x="628" d="M399 720 L494 780 L536 718 L442 660 L474 617 Q533 535 562.5 455.5 Q592 376 592 298 Q592 233 578 181 Q564 129 536 92 Q501 40 443 13.5 Q385 -13 309 -13 Q185 -13 111 58 Q37 129 37 248 Q37 363 105.5 435 Q174 507 283 507 Q331 507 371.5 488 Q412 469 440 433 L444 434 Q435 457 420.5 483 Q406 509 374 554 L338 605 L249 547 L208 609 L296 665 L226 764 L324 824 L399 720 Z M316 93 Q385 93 423.5 136 Q462 179 462 255 Q462 333 423.5 377 Q385 421 316 421 Q244 421 205.5 377.5 Q167 334 167 254 Q167 178 206.5 135.5 Q246 93 316 93 Z " />
<glyph glyph-name="ntilde" unicode="&#xf1;" horiz-adv-x="654" d="M71 0 L71 571 L196 571 L196 453 L198 453 Q228 515 279 549 Q330 583 395 583 Q489 583 539 523.5 Q589 464 589 350 L589 0 L462 0 L462 316 Q462 402 433.5 441 Q405 480 343 480 Q275 480 236.5 429 Q198 378 198 289 L198 0 L71 0 Z M252 799 Q273 799 294.5 790.5 Q316 782 350 755 Q375 735 387 729.5 Q399 724 410 724 Q429 724 437 741.5 Q445 759 444 798 L514 789 Q516 717 491.5 678 Q467 639 420 639 Q399 639 378 647.5 Q357 656 321 683 Q296 703 283.5 708.5 Q271 714 261 714 Q240 714 230.5 696 Q221 678 221 638 L149 647 Q147 719 174 759 Q201 799 252 799 Z " />
<glyph glyph-name="ograve" unicode="&#xf2;" horiz-adv-x="630" d="M314 -13 Q186 -13 111.5 66 Q37 145 37 284 Q38 421 114.5 502.5 Q191 584 317 584 Q443 584 518 504.5 Q593 425 593 288 Q593 147 518 67 Q443 -13 314 -13 Z M316 93 Q388 93 425.5 142 Q463 191 463 285 Q463 377 424.5 427.5 Q386 478 316 478 Q244 478 205.5 428.5 Q167 379 167 286 Q167 194 206 143.5 Q245 93 316 93 Z M291 814 L361 630 L269 630 L168 814 L291 814 Z " />
<glyph glyph-name="oacute" unicode="&#xf3;" horiz-adv-x="630" d="M314 -13 Q186 -13 111.5 66 Q37 145 37 284 Q38 421 114.5 502.5 Q191 584 317 584 Q443 584 518 504.5 Q593 425 593 288 Q593 147 518 67 Q443 -13 314 -13 Z M316 93 Q388 93 425.5 142 Q463 191 463 285 Q463 377 424.5 427.5 Q386 478 316 478 Q244 478 205.5 428.5 Q167 379 167 286 Q167 194 206 143.5 Q245 93 316 93 Z M361 630 L269 630 L339 814 L462 814 L361 630 Z " />
<glyph glyph-name="ocircumflex" unicode="&#xf4;" horiz-adv-x="630" d="M314 -13 Q186 -13 111.5 66 Q37 145 37 284 Q38 421 114.5 502.5 Q191 584 317 584 Q443 584 518 504.5 Q593 425 593 288 Q593 147 518 67 Q443 -13 314 -13 Z M316 93 Q388 93 425.5 142 Q463 191 463 285 Q463 377 424.5 427.5 Q386 478 316 478 Q244 478 205.5 428.5 Q167 379 167 286 Q167 194 206 143.5 Q245 93 316 93 Z M240 630 L148 630 L274 814 L353 814 L482 630 L388 630 L312 723 L240 630 Z " />
<glyph glyph-name="otilde" unicode="&#xf5;" horiz-adv-x="630" d="M314 -13 Q186 -13 111.5 66 Q37 145 37 284 Q38 421 114.5 502.5 Q191 584 317 584 Q443 584 518 504.5 Q593 425 593 288 Q593 147 518 67 Q443 -13 314 -13 Z M316 93 Q388 93 425.5 142 Q463 191 463 285 Q463 377 424.5 427.5 Q386 478 316 478 Q244 478 205.5 428.5 Q167 379 167 286 Q167 194 206 143.5 Q245 93 316 93 Z M234 799 Q255 799 276.5 790.5 Q298 782 332 755 Q357 735 369 729.5 Q381 724 392 724 Q411 724 419 741.5 Q427 759 426 798 L496 789 Q498 717 473.5 678 Q449 639 402 639 Q381 639 360 647.5 Q339 656 303 683 Q278 703 265.5 708.5 Q253 714 243 714 Q222 714 212.5 696 Q203 678 203 638 L131 647 Q129 719 156 759 Q183 799 234 799 Z " />
<glyph glyph-name="odieresis" unicode="&#xf6;" horiz-adv-x="630" d="M314 -13 Q186 -13 111.5 66 Q37 145 37 284 Q38 421 114.5 502.5 Q191 584 317 584 Q443 584 518 504.5 Q593 425 593 288 Q593 147 518 67 Q443 -13 314 -13 Z M316 93 Q388 93 425.5 142 Q463 191 463 285 Q463 377 424.5 427.5 Q386 478 316 478 Q244 478 205.5 428.5 Q167 379 167 286 Q167 194 206 143.5 Q245 93 316 93 Z M275 659 L157 659 L157 776 L275 776 L275 659 Z M473 659 L354 659 L354 776 L473 776 L473 659 Z " />
<glyph glyph-name="divide" unicode="&#xf7;" horiz-adv-x="579" d="M345 525 L234 525 L234 648 L345 648 L345 525 Z M502 350 L76 350 L76 440 L502 440 L502 350 Z M345 136 L234 136 L234 259 L345 259 L345 136 Z " />
<glyph glyph-name="oslash" unicode="&#xf8;" horiz-adv-x="630" d="M37 284 Q38 421 114.5 502.5 Q191 584 317 584 Q367 584 410.5 570 Q454 556 489 529 L546 591 L607 534 L545 467 Q569 430 581 384.5 Q593 339 593 288 Q593 147 518 67 Q443 -13 314 -13 Q263 -13 219 0.5 Q175 14 140 41 L83 -21 L20 36 L83 103 Q60 140 48.5 185.5 Q37 231 37 284 Z M316 480 Q243 480 204 430 Q165 380 165 286 Q165 258 168 235 Q171 212 178 193 L410 446 Q392 463 368 471.5 Q344 480 316 480 Z M316 91 Q388 91 426.5 141 Q465 191 465 285 Q465 313 461.5 337 Q458 361 451 382 L220 125 Q238 108 262.5 99.5 Q287 91 316 91 Z " />
<glyph glyph-name="ugrave" unicode="&#xf9;" horiz-adv-x="650" d="M258 -12 Q163 -12 113.5 45 Q64 102 64 211 L64 571 L191 571 L191 250 Q191 167 219.5 129 Q248 91 310 91 Q377 91 414.5 140.5 Q452 190 452 280 L452 571 L580 571 L580 0 L455 0 L455 117 L453 117 Q423 55 372.5 21.5 Q322 -12 258 -12 Z M298 807 L368 623 L276 623 L175 807 L298 807 Z " />
<glyph glyph-name="uacute" unicode="&#xfa;" horiz-adv-x="650" d="M258 -12 Q163 -12 113.5 45 Q64 102 64 211 L64 571 L191 571 L191 250 Q191 167 219.5 129 Q248 91 310 91 Q377 91 414.5 140.5 Q452 190 452 280 L452 571 L580 571 L580 0 L455 0 L455 117 L453 117 Q423 55 372.5 21.5 Q322 -12 258 -12 Z M368 623 L276 623 L346 807 L469 807 L368 623 Z " />
<glyph glyph-name="ucircumflex" unicode="&#xfb;" horiz-adv-x="650" d="M258 -12 Q163 -12 113.5 45 Q64 102 64 211 L64 571 L191 571 L191 250 Q191 167 219.5 129 Q248 91 310 91 Q377 91 414.5 140.5 Q452 190 452 280 L452 571 L580 571 L580 0 L455 0 L455 117 L453 117 Q423 55 372.5 21.5 Q322 -12 258 -12 Z M247 623 L155 623 L281 807 L360 807 L489 623 L395 623 L319 716 L247 623 Z " />
<glyph glyph-name="udieresis" unicode="&#xfc;" horiz-adv-x="650" d="M258 -12 Q163 -12 113.5 45 Q64 102 64 211 L64 571 L191 571 L191 250 Q191 167 219.5 129 Q248 91 310 91 Q377 91 414.5 140.5 Q452 190 452 280 L452 571 L580 571 L580 0 L455 0 L455 117 L453 117 Q423 55 372.5 21.5 Q322 -12 258 -12 Z M282 652 L164 652 L164 769 L282 769 L282 652 Z M480 652 L361 652 L361 769 L480 769 L480 652 Z " />
<glyph glyph-name="yacute" unicode="&#xfd;" horiz-adv-x="581" d="M572 571 L370 22 Q324 -103 271.5 -150 Q219 -197 126 -197 Q85 -197 43.5 -189.5 Q2 -182 -24 -169 L8 -61 Q38 -74 66 -80 Q94 -86 123 -86 Q152 -86 174 -75 Q196 -64 212 -40 Q218 -32 222.5 -24.5 Q227 -17 230 -9 L6 571 L139 571 L297 132 L443 571 L572 571 Z M335 630 L243 630 L313 814 L436 814 L335 630 Z " />
<glyph glyph-name="thorn" unicode="&#xfe;" horiz-adv-x="654" d="M198 -185 L71 -185 L71 815 L198 815 L198 457 L202 457 Q229 519 277 551.5 Q325 584 389 584 Q494 584 555.5 503.5 Q617 423 617 286 Q617 150 554 68.5 Q491 -13 387 -13 Q322 -13 275 16.5 Q228 46 202 104 L198 104 L198 -185 Z M345 91 Q412 91 449.5 142.5 Q487 194 487 286 Q487 376 448.5 428 Q410 480 345 480 Q276 480 236.5 428.5 Q197 377 197 285 Q197 196 237 143.5 Q277 91 345 91 Z " />
<glyph glyph-name="ydieresis" unicode="&#xff;" horiz-adv-x="581" d="M572 571 L370 22 Q324 -103 271.5 -150 Q219 -197 126 -197 Q85 -197 43.5 -189.5 Q2 -182 -24 -169 L8 -61 Q38 -74 66 -80 Q94 -86 123 -86 Q152 -86 174 -75 Q196 -64 212 -40 Q218 -32 222.5 -24.5 Q227 -17 230 -9 L6 571 L139 571 L297 132 L443 571 L572 571 Z M249 659 L131 659 L131 776 L249 776 L249 659 Z M447 659 L328 659 L328 776 L447 776 L447 659 Z " />
<glyph glyph-name="Amacron" unicode="&#x100;" horiz-adv-x="738" d="M151 0 L19 0 L282 774 L441 774 L719 0 L578 0 L518 181 L209 181 L151 0 Z M361 656 L242 285 L484 285 L361 656 Z M520 837 L208 837 L208 916 L520 916 L520 837 Z " />
<glyph glyph-name="amacron" unicode="&#x101;" horiz-adv-x="625" d="M545 -9 Q480 -9 445 20.5 Q410 50 407 108 L405 108 Q377 49 327.5 18 Q278 -13 211 -13 Q131 -13 84 29.5 Q37 72 37 145 Q37 187 52 218.5 Q67 250 98 273 Q122 291 157 303 Q192 315 240 322 L320 333 Q368 340 388.5 356 Q409 372 409 403 Q409 440 383 461 Q357 482 311 482 Q257 482 224.5 454.5 Q192 427 179 370 L61 391 Q86 484 151.5 534 Q217 584 313 584 Q419 584 475.5 529 Q532 474 532 370 L532 153 Q532 116 545.5 101 Q559 86 594 86 Q601 86 606.5 86.5 Q612 87 619 88 L619 1 Q608 -3 587 -6 Q566 -9 545 -9 Z M168 162 Q168 122 192.5 100 Q217 78 262 78 Q329 78 369 127.5 Q409 177 409 259 L409 290 Q399 282 382 276 Q365 270 336 265 L267 253 Q215 244 191.5 222.5 Q168 201 168 162 Z M473 658 L155 658 L155 737 L473 737 L473 658 Z " />
<glyph glyph-name="Abreve" unicode="&#x102;" horiz-adv-x="738" d="M151 0 L19 0 L282 774 L441 774 L719 0 L578 0 L518 181 L209 181 L151 0 Z M361 656 L242 285 L484 285 L361 656 Z M529 960 Q529 897 485.5 860 Q442 823 368 823 Q290 823 245.5 858.5 Q201 894 201 956 Q201 957 201 959 Q201 961 201 965 Q202 969 202 971 Q202 973 202 975 L285 975 L285 968 Q285 937 307 920 Q329 903 369 903 Q408 903 428.5 919 Q449 935 449 966 L449 975 L528 975 Q528 974 528 972 Q528 970 529 967 Q529 964 529 962.5 Q529 961 529 960 Z " />
<glyph glyph-name="abreve" unicode="&#x103;" horiz-adv-x="625" d="M545 -9 Q480 -9 445 20.5 Q410 50 407 108 L405 108 Q377 49 327.5 18 Q278 -13 211 -13 Q131 -13 84 29.5 Q37 72 37 145 Q37 187 52 218.5 Q67 250 98 273 Q122 291 157 303 Q192 315 240 322 L320 333 Q368 340 388.5 356 Q409 372 409 403 Q409 440 383 461 Q357 482 311 482 Q257 482 224.5 454.5 Q192 427 179 370 L61 391 Q86 484 151.5 534 Q217 584 313 584 Q419 584 475.5 529 Q532 474 532 370 L532 153 Q532 116 545.5 101 Q559 86 594 86 Q601 86 606.5 86.5 Q612 87 619 88 L619 1 Q608 -3 587 -6 Q566 -9 545 -9 Z M168 162 Q168 122 192.5 100 Q217 78 262 78 Q329 78 369 127.5 Q409 177 409 259 L409 290 Q399 282 382 276 Q365 270 336 265 L267 253 Q215 244 191.5 222.5 Q168 201 168 162 Z M479 787 Q479 718 434.5 675.5 Q390 633 318 633 Q241 633 196 673.5 Q151 714 151 784 Q151 785 151 786.5 Q151 788 151 792 Q152 796 152 798.5 Q152 801 152 803 L235 803 L235 794 Q235 755 256.5 734.5 Q278 714 319 714 Q358 714 378.5 733.5 Q399 753 399 791 L399 803 L478 803 Q478 801 478 799 Q478 797 479 793 Q479 791 479 789.5 Q479 788 479 787 Z " />
<glyph glyph-name="Aogonek" unicode="&#x104;" horiz-adv-x="738" d="M151 0 L19 0 L282 774 L441 774 L719 0 L690 0 Q644 -11 619.5 -35 Q595 -59 595 -94 Q595 -120 609.5 -133.5 Q624 -147 653 -147 Q662 -147 671 -146 Q680 -145 692 -142 L692 -208 Q678 -214 659 -217.5 Q640 -221 619 -221 Q560 -221 526.5 -194 Q493 -167 493 -119 Q493 -79 514.5 -49 Q536 -19 578 0 L518 181 L209 181 L151 0 Z M361 656 L242 285 L484 285 L361 656 Z " />
<glyph glyph-name="aogonek" unicode="&#x105;" horiz-adv-x="625" d="M621 -142 L621 -208 Q607 -214 588 -217.5 Q569 -221 548 -221 Q489 -221 455.5 -194 Q422 -167 422 -119 Q422 -80 444 -51.5 Q466 -23 509 -4 L509 -2 Q461 3 435 31 Q409 59 407 108 L405 108 Q377 49 327.5 18 Q278 -13 211 -13 Q131 -13 84 29.5 Q37 72 37 145 Q37 187 52 218.5 Q67 250 98 273 Q122 291 157 303 Q192 315 240 322 L320 333 Q368 340 388.5 356 Q409 372 409 403 Q409 440 383 461 Q357 482 311 482 Q257 482 224.5 454.5 Q192 427 179 370 L61 391 Q86 484 151.5 534 Q217 584 313 584 Q419 584 475.5 529 Q532 474 532 370 L532 153 Q532 116 545.5 101 Q559 86 594 86 Q601 86 606.5 86.5 Q612 87 619 88 L619 1 Q572 -12 548 -36 Q524 -60 524 -94 Q524 -120 538.5 -133.5 Q553 -147 582 -147 Q591 -147 600 -146 Q609 -145 621 -142 Z M168 162 Q168 122 192.5 100 Q217 78 262 78 Q329 78 369 127.5 Q409 177 409 259 L409 290 Q399 282 382 276 Q365 270 336 265 L267 253 Q215 244 191.5 222.5 Q168 201 168 162 Z " />
<glyph glyph-name="Cacute" unicode="&#x106;" horiz-adv-x="767" d="M405 -13 Q237 -13 140 91.5 Q43 196 43 378 Q43 562 145 674.5 Q247 787 411 787 Q544 787 630.5 713 Q717 639 744 502 L613 476 Q594 572 542.5 621 Q491 670 409 670 Q300 670 239 594 Q178 518 178 381 Q178 252 239.5 178 Q301 104 409 104 Q493 104 544 148 Q595 192 621 287 L748 256 Q716 126 627.5 56.5 Q539 -13 405 -13 Z M466 828 L364 828 L416 975 L538 975 L466 828 Z " />
<glyph glyph-name="cacute" unicode="&#x107;" horiz-adv-x="607" d="M316 476 Q247 476 207 425.5 Q167 375 167 286 Q167 197 207 145.5 Q247 94 317 94 Q372 94 406.5 123.5 Q441 153 459 215 L579 189 Q557 94 487.5 40.5 Q418 -13 315 -13 Q184 -13 110.5 65 Q37 143 37 283 Q37 417 115 500.5 Q193 584 317 584 Q420 584 486 527.5 Q552 471 576 364 L451 342 Q438 408 403.5 442 Q369 476 316 476 Z M364 630 L272 630 L342 814 L465 814 L364 630 Z " />
<glyph glyph-name="Ccircumflex" unicode="&#x108;" horiz-adv-x="767" d="M405 -13 Q237 -13 140 91.5 Q43 196 43 378 Q43 562 145 674.5 Q247 787 411 787 Q544 787 630.5 713 Q717 639 744 502 L613 476 Q594 572 542.5 621 Q491 670 409 670 Q300 670 239 594 Q178 518 178 381 Q178 252 239.5 178 Q301 104 409 104 Q493 104 544 148 Q595 192 621 287 L748 256 Q716 126 627.5 56.5 Q539 -13 405 -13 Z M344 824 L248 824 L376 972 L455 972 L584 824 L486 824 L414 891 L344 824 Z " />
<glyph glyph-name="ccircumflex" unicode="&#x109;" horiz-adv-x="607" d="M316 476 Q247 476 207 425.5 Q167 375 167 286 Q167 197 207 145.5 Q247 94 317 94 Q372 94 406.5 123.5 Q441 153 459 215 L579 189 Q557 94 487.5 40.5 Q418 -13 315 -13 Q184 -13 110.5 65 Q37 143 37 283 Q37 417 115 500.5 Q193 584 317 584 Q420 584 486 527.5 Q552 471 576 364 L451 342 Q438 408 403.5 442 Q369 476 316 476 Z M243 630 L151 630 L277 814 L356 814 L485 630 L391 630 L315 723 L243 630 Z " />
<glyph glyph-name="Cdotaccent" unicode="&#x10a;" horiz-adv-x="767" d="M405 -13 Q237 -13 140 91.5 Q43 196 43 378 Q43 562 145 674.5 Q247 787 411 787 Q544 787 630.5 713 Q717 639 744 502 L613 476 Q594 572 542.5 621 Q491 670 409 670 Q300 670 239 594 Q178 518 178 381 Q178 252 239.5 178 Q301 104 409 104 Q493 104 544 148 Q595 192 621 287 L748 256 Q716 126 627.5 56.5 Q539 -13 405 -13 Z M485 831 L345 831 L345 952 L485 952 L485 831 Z " />
<glyph glyph-name="cdotaccent" unicode="&#x10b;" horiz-adv-x="607" d="M316 476 Q247 476 207 425.5 Q167 375 167 286 Q167 197 207 145.5 Q247 94 317 94 Q372 94 406.5 123.5 Q441 153 459 215 L579 189 Q557 94 487.5 40.5 Q418 -13 315 -13 Q184 -13 110.5 65 Q37 143 37 283 Q37 417 115 500.5 Q193 584 317 584 Q420 584 486 527.5 Q552 471 576 364 L451 342 Q438 408 403.5 442 Q369 476 316 476 Z M386 686 L251 686 L251 815 L386 815 L386 686 Z " />
<glyph glyph-name="Ccaron" unicode="&#x10c;" horiz-adv-x="767" d="M405 -13 Q237 -13 140 91.5 Q43 196 43 378 Q43 562 145 674.5 Q247 787 411 787 Q544 787 630.5 713 Q717 639 744 502 L613 476 Q594 572 542.5 621 Q491 670 409 670 Q300 670 239 594 Q178 518 178 381 Q178 252 239.5 178 Q301 104 409 104 Q493 104 544 148 Q595 192 621 287 L748 256 Q716 126 627.5 56.5 Q539 -13 405 -13 Z M484 972 L580 972 L455 824 L375 824 L244 972 L342 972 L416 905 L484 972 Z " />
<glyph glyph-name="ccaron" unicode="&#x10d;" horiz-adv-x="607" d="M316 476 Q247 476 207 425.5 Q167 375 167 286 Q167 197 207 145.5 Q247 94 317 94 Q372 94 406.5 123.5 Q441 153 459 215 L579 189 Q557 94 487.5 40.5 Q418 -13 315 -13 Q184 -13 110.5 65 Q37 143 37 283 Q37 417 115 500.5 Q193 584 317 584 Q420 584 486 527.5 Q552 471 576 364 L451 342 Q438 408 403.5 442 Q369 476 316 476 Z M391 814 L483 814 L357 630 L278 630 L149 814 L243 814 L319 720 L391 814 Z " />
<glyph glyph-name="Dcaron" unicode="&#x10e;" horiz-adv-x="790" d="M78 0 L78 774 L325 774 Q528 774 638 673.5 Q748 573 748 389 Q748 208 636 104 Q524 0 326 0 L78 0 Z M613 391 Q613 525 540.5 594 Q468 663 328 663 L209 663 L209 111 L320 111 Q466 111 539.5 181 Q613 251 613 391 Z M455 972 L551 972 L426 824 L346 824 L215 972 L313 972 L387 905 L455 972 Z " />
<glyph glyph-name="dcaron" unicode="&#x10f;" horiz-adv-x="675" d="M268 -13 Q165 -13 101 67.5 Q37 148 37 281 Q37 416 106 500 Q175 584 281 584 Q340 584 383.5 555 Q427 526 452 470 L456 470 L456 815 L583 815 L583 0 L458 0 L458 114 L455 114 Q427 52 379.5 19.5 Q332 -13 268 -13 Z M167 283 Q167 194 205.5 143.5 Q244 93 311 93 Q380 93 418.5 144 Q457 195 457 285 Q457 375 418.5 427 Q380 479 314 479 Q245 479 206 427 Q167 375 167 283 Z M753 762 Q753 713 742 665.5 Q731 618 708 568 L631 568 Q640 601 644.5 637.5 Q649 674 649 715 Q649 741 647.5 766 Q646 791 642 815 L750 815 Q751 802 752 788.5 Q753 775 753 762 Z " />
<glyph glyph-name="Dcroat" unicode="&#x110;" horiz-adv-x="800" d="M88 347 L-10 347 L-10 439 L88 439 L88 774 L335 774 Q538 774 648 673.5 Q758 573 758 389 Q758 208 646 104 Q534 0 336 0 L88 0 L88 347 Z M623 391 Q623 525 550.5 594 Q478 663 338 663 L219 663 L219 439 L391 439 L391 347 L219 347 L219 111 L330 111 Q476 111 549.5 181 Q623 251 623 391 Z " />
<glyph glyph-name="dslash" unicode="&#x111;" horiz-adv-x="654" d="M268 -13 Q165 -13 101 67.5 Q37 148 37 281 Q37 416 106 500 Q175 584 281 584 Q340 584 383.5 555 Q427 526 452 470 L456 470 L456 630 L317 630 L317 708 L456 708 L456 815 L583 815 L583 708 L674 708 L674 630 L583 630 L583 0 L458 0 L458 114 L455 114 Q427 52 379.5 19.5 Q332 -13 268 -13 Z M167 283 Q167 194 205.5 143.5 Q244 93 311 93 Q380 93 418.5 144 Q457 195 457 285 Q457 375 418.5 427 Q380 479 314 479 Q245 479 206 427 Q167 375 167 283 Z " />
<glyph glyph-name="Emacron" unicode="&#x112;" horiz-adv-x="661" d="M78 0 L78 774 L601 774 L601 665 L209 665 L209 453 L577 453 L577 347 L209 347 L209 109 L621 109 L621 0 L78 0 Z M510 837 L198 837 L198 916 L510 916 L510 837 Z " />
<glyph glyph-name="emacron" unicode="&#x113;" horiz-adv-x="605" d="M321 -13 Q190 -13 113.5 67 Q37 147 37 283 Q37 415 115 499.5 Q193 584 315 584 Q391 584 447 551 Q503 518 535 456 Q555 415 565 366 Q575 317 574 259 L165 259 Q170 180 212 135 Q254 90 324 90 Q380 90 416.5 116 Q453 142 473 196 L581 162 Q550 78 482.5 32.5 Q415 -13 321 -13 Z M429 412 Q414 445 384 463.5 Q354 482 314 482 Q254 482 215 444.5 Q176 407 167 340 L446 340 Q445 361 440.5 378 Q436 395 429 412 Z M471 658 L153 658 L153 737 L471 737 L471 658 Z " />
<glyph glyph-name="Ebreve" unicode="&#x114;" horiz-adv-x="661" d="M78 0 L78 774 L601 774 L601 665 L209 665 L209 453 L577 453 L577 347 L209 347 L209 109 L621 109 L621 0 L78 0 Z M519 960 Q519 897 475.5 860 Q432 823 358 823 Q280 823 235.5 858.5 Q191 894 191 956 Q191 957 191 959 Q191 961 191 965 Q192 969 192 971 Q192 973 192 975 L275 975 L275 968 Q275 937 297 920 Q319 903 359 903 Q398 903 418.5 919 Q439 935 439 966 L439 975 L518 975 Q518 974 518 972 Q518 970 519 967 Q519 964 519 962.5 Q519 961 519 960 Z " />
<glyph glyph-name="ebreve" unicode="&#x115;" horiz-adv-x="605" d="M321 -13 Q190 -13 113.5 67 Q37 147 37 283 Q37 415 115 499.5 Q193 584 315 584 Q391 584 447 551 Q503 518 535 456 Q555 415 565 366 Q575 317 574 259 L165 259 Q170 180 212 135 Q254 90 324 90 Q380 90 416.5 116 Q453 142 473 196 L581 162 Q550 78 482.5 32.5 Q415 -13 321 -13 Z M429 412 Q414 445 384 463.5 Q354 482 314 482 Q254 482 215 444.5 Q176 407 167 340 L446 340 Q445 361 440.5 378 Q436 395 429 412 Z M477 787 Q477 718 432.5 675.5 Q388 633 316 633 Q239 633 194 673.5 Q149 714 149 784 Q149 785 149 786.5 Q149 788 149 792 Q150 796 150 798.5 Q150 801 150 803 L233 803 L233 794 Q233 755 254.5 734.5 Q276 714 317 714 Q356 714 376.5 733.5 Q397 753 397 791 L397 803 L476 803 Q476 801 476 799 Q476 797 477 793 Q477 791 477 789.5 Q477 788 477 787 Z " />
<glyph glyph-name="Edotaccent" unicode="&#x116;" horiz-adv-x="661" d="M78 0 L78 774 L601 774 L601 665 L209 665 L209 453 L577 453 L577 347 L209 347 L209 109 L621 109 L621 0 L78 0 Z M424 831 L284 831 L284 952 L424 952 L424 831 Z " />
<glyph glyph-name="edotaccent" unicode="&#x117;" horiz-adv-x="605" d="M321 -13 Q190 -13 113.5 67 Q37 147 37 283 Q37 415 115 499.5 Q193 584 315 584 Q391 584 447 551 Q503 518 535 456 Q555 415 565 366 Q575 317 574 259 L165 259 Q170 180 212 135 Q254 90 324 90 Q380 90 416.5 116 Q453 142 473 196 L581 162 Q550 78 482.5 32.5 Q415 -13 321 -13 Z M429 412 Q414 445 384 463.5 Q354 482 314 482 Q254 482 215 444.5 Q176 407 167 340 L446 340 Q445 361 440.5 378 Q436 395 429 412 Z M381 686 L246 686 L246 815 L381 815 L381 686 Z " />
<glyph glyph-name="Eogonek" unicode="&#x118;" horiz-adv-x="661" d="M583 -147 Q593 -147 602.5 -146 Q612 -145 622 -142 L622 -208 Q608 -214 589.5 -217.5 Q571 -221 550 -221 Q491 -221 457.5 -194 Q424 -167 424 -119 Q424 -80 445.5 -51 Q467 -22 511 -2 L511 0 L78 0 L78 774 L601 774 L601 665 L209 665 L209 453 L577 453 L577 347 L209 347 L209 109 L621 109 L621 0 Q574 -11 549.5 -35 Q525 -59 525 -94 Q525 -120 539.5 -133.5 Q554 -147 583 -147 Z " />
<glyph glyph-name="eogonek" unicode="&#x119;" horiz-adv-x="605" d="M532 -142 L532 -208 Q518 -214 499 -217.5 Q480 -221 459 -221 Q401 -221 367.5 -194 Q334 -167 334 -118 Q334 -82 352 -54 Q370 -26 410 -2 L410 0 Q391 -6 368.5 -9.5 Q346 -13 321 -13 Q190 -13 113.5 67 Q37 147 37 283 Q37 415 115 499.5 Q193 584 315 584 Q391 584 447 551 Q503 518 535 456 Q555 415 565 366 Q575 317 574 259 L165 259 Q170 180 212 135 Q254 90 324 90 Q380 90 416.5 116 Q453 142 473 196 L581 162 Q571 137 558 114.5 Q545 92 528 72 Q467 0 451 -28.5 Q435 -57 435 -89 Q435 -116 450.5 -131.5 Q466 -147 493 -147 Q502 -147 511 -146 Q520 -145 532 -142 Z M429 412 Q414 445 384 463.5 Q354 482 314 482 Q254 482 215 444.5 Q176 407 167 340 L446 340 Q444 363 440 380 Q436 397 429 412 Z " />
<glyph glyph-name="Ecaron" unicode="&#x11a;" horiz-adv-x="661" d="M78 0 L78 774 L601 774 L601 665 L209 665 L209 453 L577 453 L577 347 L209 347 L209 109 L621 109 L621 0 L78 0 Z M423 972 L519 972 L394 824 L314 824 L183 972 L281 972 L355 905 L423 972 Z " />
<glyph glyph-name="ecaron" unicode="&#x11b;" horiz-adv-x="605" d="M321 -13 Q190 -13 113.5 67 Q37 147 37 283 Q37 415 115 499.5 Q193 584 315 584 Q391 584 447 551 Q503 518 535 456 Q555 415 565 366 Q575 317 574 259 L165 259 Q170 180 212 135 Q254 90 324 90 Q380 90 416.5 116 Q453 142 473 196 L581 162 Q550 78 482.5 32.5 Q415 -13 321 -13 Z M429 412 Q414 445 384 463.5 Q354 482 314 482 Q254 482 215 444.5 Q176 407 167 340 L446 340 Q445 361 440.5 378 Q436 395 429 412 Z M386 814 L478 814 L352 630 L273 630 L144 814 L238 814 L314 720 L386 814 Z " />
<glyph glyph-name="Gcircumflex" unicode="&#x11c;" horiz-adv-x="797" d="M645 0 L634 138 L631 138 Q595 65 529 26 Q463 -13 376 -13 Q219 -13 131 90 Q43 193 43 375 Q43 561 145.5 674 Q248 787 411 787 Q540 787 626.5 716 Q713 645 745 514 L618 483 Q597 575 543.5 622.5 Q490 670 409 670 Q303 670 240.5 592 Q178 514 178 380 Q178 244 239.5 170 Q301 96 416 96 Q515 96 571 145 Q627 194 627 281 L627 288 L406 288 L406 390 L746 390 L746 0 L645 0 Z M345 824 L249 824 L377 972 L456 972 L585 824 L487 824 L415 891 L345 824 Z " />
<glyph glyph-name="gcircumflex" unicode="&#x11d;" horiz-adv-x="609" d="M289 -198 Q150 -198 80.5 -166.5 Q11 -135 11 -71 Q11 -32 41 -5.5 Q71 21 127 31 L127 33 Q88 43 68 65.5 Q48 88 48 120 Q48 155 71.5 181.5 Q95 208 141 224 L141 226 Q101 251 80.5 290 Q60 329 60 378 Q60 470 125 527 Q190 584 294 584 Q340 584 379.5 572 Q419 560 450 537 L532 646 L603 565 L487 502 Q506 477 516 447.5 Q526 418 526 384 Q526 293 464 240.5 Q402 188 297 188 Q265 188 235.5 193 Q206 198 180 207 Q164 200 155.5 189.5 Q147 179 147 165 Q147 143 166.5 133 Q186 123 227 123 L440 123 Q526 123 569 91.5 Q612 60 612 -3 Q612 -97 528 -147.5 Q444 -198 289 -198 Z M185 381 Q185 334 214.5 306.5 Q244 279 296 279 Q347 279 374 307.5 Q401 336 401 390 Q401 437 372.5 465 Q344 493 294 493 Q244 493 214.5 463 Q185 433 185 381 Z M494 -28 Q494 -4 476.5 6 Q459 16 417 16 L236 16 Q180 16 153.5 1.5 Q127 -13 127 -43 Q127 -77 170.5 -94 Q214 -111 300 -111 Q391 -111 442.5 -89 Q494 -67 494 -28 Z M227 630 L135 630 L261 814 L340 814 L469 630 L375 630 L299 723 L227 630 Z " />
<glyph glyph-name="Gbreve" unicode="&#x11e;" horiz-adv-x="797" d="M645 0 L634 138 L631 138 Q595 65 529 26 Q463 -13 376 -13 Q219 -13 131 90 Q43 193 43 375 Q43 561 145.5 674 Q248 787 411 787 Q540 787 626.5 716 Q713 645 745 514 L618 483 Q597 575 543.5 622.5 Q490 670 409 670 Q303 670 240.5 592 Q178 514 178 380 Q178 244 239.5 170 Q301 96 416 96 Q515 96 571 145 Q627 194 627 281 L627 288 L406 288 L406 390 L746 390 L746 0 L645 0 Z M581 960 Q581 897 537.5 860 Q494 823 420 823 Q342 823 297.5 858.5 Q253 894 253 956 Q253 957 253 959 Q253 961 253 965 Q254 969 254 971 Q254 973 254 975 L337 975 L337 968 Q337 937 359 920 Q381 903 421 903 Q460 903 480.5 919 Q501 935 501 966 L501 975 L580 975 Q580 974 580 972 Q580 970 581 967 Q581 964 581 962.5 Q581 961 581 960 Z " />
<glyph glyph-name="gbreve" unicode="&#x11f;" horiz-adv-x="609" d="M289 -198 Q150 -198 80.5 -166.5 Q11 -135 11 -71 Q11 -32 41 -5.5 Q71 21 127 31 L127 33 Q88 43 68 65.5 Q48 88 48 120 Q48 155 71.5 181.5 Q95 208 141 224 L141 226 Q101 251 80.5 290 Q60 329 60 378 Q60 470 125 527 Q190 584 294 584 Q340 584 379.5 572 Q419 560 450 537 L532 646 L603 565 L487 502 Q506 477 516 447.5 Q526 418 526 384 Q526 293 464 240.5 Q402 188 297 188 Q265 188 235.5 193 Q206 198 180 207 Q164 200 155.5 189.5 Q147 179 147 165 Q147 143 166.5 133 Q186 123 227 123 L440 123 Q526 123 569 91.5 Q612 60 612 -3 Q612 -97 528 -147.5 Q444 -198 289 -198 Z M185 381 Q185 334 214.5 306.5 Q244 279 296 279 Q347 279 374 307.5 Q401 336 401 390 Q401 437 372.5 465 Q344 493 294 493 Q244 493 214.5 463 Q185 433 185 381 Z M494 -28 Q494 -4 476.5 6 Q459 16 417 16 L236 16 Q180 16 153.5 1.5 Q127 -13 127 -43 Q127 -77 170.5 -94 Q214 -111 300 -111 Q391 -111 442.5 -89 Q494 -67 494 -28 Z M466 787 Q466 718 421.5 675.5 Q377 633 305 633 Q228 633 183 673.5 Q138 714 138 784 Q138 785 138 786.5 Q138 788 138 792 Q139 796 139 798.5 Q139 801 139 803 L222 803 L222 794 Q222 755 243.5 734.5 Q265 714 306 714 Q345 714 365.5 733.5 Q386 753 386 791 L386 803 L465 803 Q465 801 465 799 Q465 797 466 793 Q466 791 466 789.5 Q466 788 466 787 Z " />
<glyph glyph-name="Gdotaccent" unicode="&#x120;" horiz-adv-x="797" d="M645 0 L634 138 L631 138 Q595 65 529 26 Q463 -13 376 -13 Q219 -13 131 90 Q43 193 43 375 Q43 561 145.5 674 Q248 787 411 787 Q540 787 626.5 716 Q713 645 745 514 L618 483 Q597 575 543.5 622.5 Q490 670 409 670 Q303 670 240.5 592 Q178 514 178 380 Q178 244 239.5 170 Q301 96 416 96 Q515 96 571 145 Q627 194 627 281 L627 288 L406 288 L406 390 L746 390 L746 0 L645 0 Z M486 831 L346 831 L346 952 L486 952 L486 831 Z " />
<glyph glyph-name="gdotaccent" unicode="&#x121;" horiz-adv-x="609" d="M289 -198 Q150 -198 80.5 -166.5 Q11 -135 11 -71 Q11 -32 41 -5.5 Q71 21 127 31 L127 33 Q88 43 68 65.5 Q48 88 48 120 Q48 155 71.5 181.5 Q95 208 141 224 L141 226 Q101 251 80.5 290 Q60 329 60 378 Q60 470 125 527 Q190 584 294 584 Q340 584 379.5 572 Q419 560 450 537 L532 646 L603 565 L487 502 Q506 477 516 447.5 Q526 418 526 384 Q526 293 464 240.5 Q402 188 297 188 Q265 188 235.5 193 Q206 198 180 207 Q164 200 155.5 189.5 Q147 179 147 165 Q147 143 166.5 133 Q186 123 227 123 L440 123 Q526 123 569 91.5 Q612 60 612 -3 Q612 -97 528 -147.5 Q444 -198 289 -198 Z M185 381 Q185 334 214.5 306.5 Q244 279 296 279 Q347 279 374 307.5 Q401 336 401 390 Q401 437 372.5 465 Q344 493 294 493 Q244 493 214.5 463 Q185 433 185 381 Z M494 -28 Q494 -4 476.5 6 Q459 16 417 16 L236 16 Q180 16 153.5 1.5 Q127 -13 127 -43 Q127 -77 170.5 -94 Q214 -111 300 -111 Q391 -111 442.5 -89 Q494 -67 494 -28 Z M369 686 L234 686 L234 815 L369 815 L369 686 Z " />
<glyph glyph-name="uni0122" unicode="&#x122;" horiz-adv-x="797" d="M645 0 L634 138 L631 138 Q595 65 529 26 Q463 -13 376 -13 Q219 -13 131 90 Q43 193 43 375 Q43 561 145.5 674 Q248 787 411 787 Q540 787 626.5 716 Q713 645 745 514 L618 483 Q597 575 543.5 622.5 Q490 670 409 670 Q303 670 240.5 592 Q178 514 178 380 Q178 244 239.5 170 Q301 96 416 96 Q515 96 571 145 Q627 194 627 281 L627 288 L406 288 L406 390 L746 390 L746 0 L645 0 Z M412 -172 L356 -172 L356 -55 L479 -55 L479 -156 Q479 -227 450 -257.5 Q421 -288 353 -291 L338 -233 Q383 -232 397.5 -220 Q412 -208 412 -172 Z " />
<glyph glyph-name="uni0123" unicode="&#x123;" horiz-adv-x="609" d="M289 -198 Q150 -198 80.5 -166.5 Q11 -135 11 -71 Q11 -32 41 -5.5 Q71 21 127 31 L127 33 Q88 43 68 65.5 Q48 88 48 120 Q48 155 71.5 181.5 Q95 208 141 224 L141 226 Q101 251 80.5 290 Q60 329 60 378 Q60 470 125 527 Q190 584 294 584 Q340 584 379.5 572 Q419 560 450 537 L532 646 L603 565 L487 502 Q506 477 516 447.5 Q526 418 526 384 Q526 293 464 240.5 Q402 188 297 188 Q265 188 235.5 193 Q206 198 180 207 Q164 200 155.5 189.5 Q147 179 147 165 Q147 143 166.5 133 Q186 123 227 123 L440 123 Q526 123 569 91.5 Q612 60 612 -3 Q612 -97 528 -147.5 Q444 -198 289 -198 Z M185 381 Q185 334 214.5 306.5 Q244 279 296 279 Q347 279 374 307.5 Q401 336 401 390 Q401 437 372.5 465 Q344 493 294 493 Q244 493 214.5 463 Q185 433 185 381 Z M494 -28 Q494 -4 476.5 6 Q459 16 417 16 L236 16 Q180 16 153.5 1.5 Q127 -13 127 -43 Q127 -77 170.5 -94 Q214 -111 300 -111 Q391 -111 442.5 -89 Q494 -67 494 -28 Z M306 769 L362 769 L362 652 L240 652 L240 753 Q240 823 269 854 Q298 885 365 888 L381 830 Q335 829 320.5 817 Q306 805 306 769 Z " />
<glyph glyph-name="Hcircumflex" unicode="&#x124;" horiz-adv-x="795" d="M78 0 L78 774 L209 774 L209 457 L586 457 L586 774 L717 774 L717 0 L586 0 L586 342 L209 342 L209 0 L78 0 Z M326 817 L230 817 L358 965 L437 965 L566 817 L468 817 L396 884 L326 817 Z " />
<glyph glyph-name="hcircumflex" unicode="&#x125;" horiz-adv-x="654" d="M71 0 L71 815 L198 815 L198 458 L201 458 Q231 518 281.5 550.5 Q332 583 395 583 Q489 583 539 523.5 Q589 464 589 350 L589 0 L462 0 L462 316 Q462 402 433.5 441 Q405 480 343 480 Q275 480 236.5 429 Q198 378 198 289 L198 0 L71 0 Z M63 854 L-33 854 L95 1002 L174 1002 L303 854 L205 854 L133 921 L63 854 Z " />
<glyph glyph-name="Hbar" unicode="&#x126;" horiz-adv-x="815" d="M88 542 L-2 542 L-2 634 L88 634 L88 774 L219 774 L219 634 L596 634 L596 774 L727 774 L727 634 L816 634 L816 542 L727 542 L727 0 L596 0 L596 290 L219 290 L219 0 L88 0 L88 542 Z M219 542 L219 394 L596 394 L596 542 L219 542 Z " />
<glyph glyph-name="hbar" unicode="&#x127;" horiz-adv-x="654" d="M-14 630 L-14 708 L71 708 L71 815 L198 815 L198 708 L343 708 L343 630 L198 630 L198 458 L201 458 Q231 518 281.5 550.5 Q332 583 395 583 Q489 583 539 523.5 Q589 464 589 350 L589 0 L462 0 L462 316 Q462 402 433.5 441 Q405 480 343 480 Q275 480 236.5 429 Q198 378 198 289 L198 0 L71 0 L71 630 L-14 630 Z " />
<glyph glyph-name="Itilde" unicode="&#x128;" horiz-adv-x="293" d="M81 0 L81 774 L212 774 L212 0 L81 0 Z M70 973 Q91 973 112.5 965.5 Q134 958 168 934 Q193 917 205 912 Q217 907 228 907 Q247 907 255 922.5 Q263 938 262 972 L332 963 Q334 895 310 858.5 Q286 822 238 822 Q217 822 196 829.5 Q175 837 139 860 Q114 877 101.5 882 Q89 887 79 887 Q58 887 48.5 871.5 Q39 856 39 821 L-33 830 Q-35 897 -8 935 Q19 973 70 973 Z " />
<glyph glyph-name="itilde" unicode="&#x129;" horiz-adv-x="272" d="M72 0 L72 571 L200 571 L200 0 L72 0 Z M55 799 Q76 799 97.5 790.5 Q119 782 153 755 Q178 735 190 729.5 Q202 724 213 724 Q232 724 240 741.5 Q248 759 247 798 L317 789 Q319 717 294.5 678 Q270 639 223 639 Q202 639 181 647.5 Q160 656 124 683 Q99 703 86.5 708.5 Q74 714 64 714 Q43 714 33.5 696 Q24 678 24 638 L-48 647 Q-50 719 -23 759 Q4 799 55 799 Z " />
<glyph glyph-name="Imacron" unicode="&#x12a;" horiz-adv-x="293" d="M81 0 L81 774 L212 774 L212 0 L81 0 Z M301 837 L-11 837 L-11 916 L301 916 L301 837 Z " />
<glyph glyph-name="imacron" unicode="&#x12b;" horiz-adv-x="272" d="M72 0 L72 571 L200 571 L200 0 L72 0 Z M295 658 L-23 658 L-23 737 L295 737 L295 658 Z " />
<glyph glyph-name="Ibreve" unicode="&#x12c;" horiz-adv-x="293" d="M81 0 L81 774 L212 774 L212 0 L81 0 Z M310 960 Q310 897 266.5 860 Q223 823 149 823 Q71 823 26.5 858.5 Q-18 894 -18 956 Q-18 957 -18 959 Q-18 961 -18 965 Q-17 969 -17 971 Q-17 973 -17 975 L66 975 L66 968 Q66 937 88 920 Q110 903 150 903 Q189 903 209.5 919 Q230 935 230 966 L230 975 L309 975 Q309 974 309 972 Q309 970 310 967 Q310 964 310 962.5 Q310 961 310 960 Z " />
<glyph glyph-name="ibreve" unicode="&#x12d;" horiz-adv-x="272" d="M72 0 L72 571 L200 571 L200 0 L72 0 Z M301 787 Q301 718 256.5 675.5 Q212 633 140 633 Q63 633 18 673.5 Q-27 714 -27 784 Q-27 785 -27 786.5 Q-27 788 -27 792 Q-26 796 -26 798.5 Q-26 801 -26 803 L57 803 L57 794 Q57 755 78.5 734.5 Q100 714 141 714 Q180 714 200.5 733.5 Q221 753 221 791 L221 803 L300 803 Q300 801 300 799 Q300 797 301 793 Q301 791 301 789.5 Q301 788 301 787 Z " />
<glyph glyph-name="Iogonek" unicode="&#x12e;" horiz-adv-x="293" d="M174 -147 Q183 -147 193 -146 Q203 -145 214 -142 L214 -208 Q200 -214 181 -217.5 Q162 -221 141 -221 Q82 -221 48.5 -194 Q15 -167 15 -119 Q15 -80 36.5 -51 Q58 -22 101 -2 L101 0 L81 0 L81 774 L212 774 L212 0 Q165 -11 141 -35 Q117 -59 117 -94 Q117 -120 131.5 -133.5 Q146 -147 174 -147 Z " />
<glyph glyph-name="iogonek" unicode="&#x12f;" horiz-adv-x="272" d="M204 686 L69 686 L69 815 L204 815 L204 686 Z M162 -147 Q171 -147 180 -146 Q189 -145 201 -142 L201 -208 Q187 -214 168 -217.5 Q149 -221 128 -221 Q69 -221 36 -194.5 Q3 -168 3 -119 Q3 -80 24.5 -51 Q46 -22 89 -2 L89 0 L72 0 L72 571 L200 571 L200 0 Q153 -11 128.5 -35 Q104 -59 104 -94 Q104 -120 118.5 -133.5 Q133 -147 162 -147 Z " />
<glyph glyph-name="Idot" unicode="&#x130;" horiz-adv-x="293" d="M81 0 L81 774 L212 774 L212 0 L81 0 Z M215 831 L75 831 L75 952 L215 952 L215 831 Z " />
<glyph glyph-name="dotlessi" unicode="&#x131;" horiz-adv-x="272" d="M72 0 L72 571 L200 571 L200 0 L72 0 Z " />
<glyph glyph-name="IJ" unicode="&#x132;" horiz-adv-x="705" d="M355 -13 Q233 -13 160 44.5 Q87 102 70 212 L198 257 Q205 178 243.5 140 Q282 102 355 102 Q428 102 465.5 147.5 Q503 193 503 282 L503 774 L635 774 L635 295 Q635 141 565 64 Q495 -13 355 -13 Z M202 774 L202 331 L70 331 L70 774 L202 774 Z " />
<glyph glyph-name="ij" unicode="&#x133;" horiz-adv-x="544" d="M204 686 L69 686 L69 815 L204 815 L204 686 Z M72 0 L72 571 L200 571 L200 0 L72 0 Z M476 686 L341 686 L341 815 L476 815 L476 686 Z M234 -184 L221 -85 Q236 -88 248 -89.5 Q260 -91 272 -91 Q311 -91 327.5 -72.5 Q344 -54 344 -10 L344 571 L472 571 L472 -15 Q472 -108 432 -151.5 Q392 -195 306 -195 Q288 -195 269 -192 Q250 -189 234 -184 Z " />
<glyph glyph-name="Jcircumflex" unicode="&#x134;" horiz-adv-x="583" d="M513 774 L513 246 Q513 178 497.5 128.5 Q482 79 451 48 Q420 17 375.5 2 Q331 -13 273 -13 Q156 -13 96 45 Q36 103 36 216 L36 319 L159 348 L159 240 Q159 168 186 134.5 Q213 101 271 101 Q328 101 355 136 Q382 171 382 243 L382 774 L513 774 Z M375 824 L279 824 L407 972 L486 972 L615 824 L517 824 L445 891 L375 824 Z " />
<glyph glyph-name="jcircumflex" unicode="&#x135;" horiz-adv-x="272" d="M-38 -184 L-51 -85 Q-36 -88 -24 -89.5 Q-12 -91 0 -91 Q39 -91 55.5 -72.5 Q72 -54 72 -10 L72 571 L200 571 L200 -15 Q200 -108 160 -151.5 Q120 -195 34 -195 Q16 -195 -3 -192 Q-22 -189 -38 -184 Z M62 630 L-30 630 L96 814 L175 814 L304 630 L210 630 L134 723 L62 630 Z " />
<glyph glyph-name="uni0136" unicode="&#x136;" horiz-adv-x="715" d="M707 0 L564 0 L349 400 L209 230 L209 0 L78 0 L78 774 L209 774 L209 372 L531 774 L677 774 L446 480 L707 0 Z M375 -165 L319 -165 L319 -48 L442 -48 L442 -149 Q442 -220 413 -250.5 Q384 -281 316 -284 L301 -226 Q346 -225 360.5 -213 Q375 -201 375 -165 Z " />
<glyph glyph-name="uni0137" unicode="&#x137;" horiz-adv-x="600" d="M605 0 L464 0 L294 291 L199 194 L199 0 L71 0 L71 815 L199 815 L199 314 L440 571 L588 571 L389 356 L605 0 Z M315 -165 L259 -165 L259 -48 L382 -48 L382 -149 Q382 -220 353 -250.5 Q324 -281 256 -284 L241 -226 Q286 -225 300.5 -213 Q315 -201 315 -165 Z " />
<glyph glyph-name="kgreenlandic" unicode="&#x138;" horiz-adv-x="600" d="M605 0 L464 0 L294 291 L199 194 L199 0 L71 0 L71 571 L199 571 L199 314 L440 571 L588 571 L389 356 L605 0 Z " />
<glyph glyph-name="Lacute" unicode="&#x139;" horiz-adv-x="638" d="M78 0 L78 774 L209 774 L209 109 L614 109 L614 0 L78 0 Z M194 828 L92 828 L144 975 L266 975 L194 828 Z " />
<glyph glyph-name="lacute" unicode="&#x13a;" horiz-adv-x="269" d="M71 0 L71 815 L198 815 L198 0 L71 0 Z M186 858 L84 858 L136 1005 L258 1005 L186 858 Z " />
<glyph glyph-name="uni013B" unicode="&#x13b;" horiz-adv-x="638" d="M78 0 L78 774 L209 774 L209 109 L614 109 L614 0 L78 0 Z M354 -172 L298 -172 L298 -55 L421 -55 L421 -156 Q421 -227 392 -257.5 Q363 -288 295 -291 L280 -233 Q325 -232 339.5 -220 Q354 -208 354 -172 Z " />
<glyph glyph-name="uni013C" unicode="&#x13c;" horiz-adv-x="269" d="M71 0 L71 815 L198 815 L198 0 L71 0 Z M129 -172 L73 -172 L73 -55 L196 -55 L196 -156 Q196 -227 167 -257.5 Q138 -288 70 -291 L55 -233 Q100 -232 114.5 -220 Q129 -208 129 -172 Z " />
<glyph glyph-name="Lcaron" unicode="&#x13d;" horiz-adv-x="638" d="M78 0 L78 774 L209 774 L209 109 L614 109 L614 0 L78 0 Z M430 721 Q430 672 419 624.5 Q408 577 385 527 L308 527 Q317 560 321.5 596.5 Q326 633 326 674 Q326 700 324.5 725 Q323 750 319 774 L427 774 Q428 761 429 747.5 Q430 734 430 721 Z " />
<glyph glyph-name="lcaron" unicode="&#x13e;" horiz-adv-x="290" d="M71 0 L71 815 L198 815 L198 0 L71 0 Z M368 762 Q368 713 357 665.5 Q346 618 323 568 L246 568 Q255 601 259.5 637.5 Q264 674 264 715 Q264 741 262.5 766 Q261 791 257 815 L365 815 Q366 802 367 788.5 Q368 775 368 762 Z " />
<glyph glyph-name="Ldot" unicode="&#x13f;" horiz-adv-x="638" d="M78 0 L78 774 L209 774 L209 109 L614 109 L614 0 L78 0 Z M529 360 L396 360 L396 500 L529 500 L529 360 Z " />
<glyph glyph-name="ldot" unicode="&#x140;" horiz-adv-x="402" d="M71 0 L71 815 L198 815 L198 0 L71 0 Z M402 354 L269 354 L269 494 L402 494 L402 354 Z " />
<glyph glyph-name="Lslash" unicode="&#x141;" horiz-adv-x="648" d="M-5 273 L-5 369 L88 407 L88 774 L219 774 L219 454 L405 530 L405 434 L219 358 L219 109 L624 109 L624 0 L88 0 L88 312 L-5 273 Z " />
<glyph glyph-name="lslash" unicode="&#x142;" horiz-adv-x="297" d="M-12 267 L-12 357 L85 410 L85 815 L212 815 L212 470 L308 523 L308 434 L212 381 L212 0 L85 0 L85 320 L-12 267 Z " />
<glyph glyph-name="Nacute" unicode="&#x143;" horiz-adv-x="778" d="M581 774 L701 774 L701 0 L563 0 L198 608 L198 0 L78 0 L78 774 L239 774 L581 197 L581 774 Z M449 821 L347 821 L399 968 L521 968 L449 821 Z " />
<glyph glyph-name="nacute" unicode="&#x144;" horiz-adv-x="654" d="M71 0 L71 571 L196 571 L196 453 L198 453 Q228 515 279 549 Q330 583 395 583 Q489 583 539 523.5 Q589 464 589 350 L589 0 L462 0 L462 316 Q462 402 433.5 441 Q405 480 343 480 Q275 480 236.5 429 Q198 378 198 289 L198 0 L71 0 Z M379 630 L287 630 L357 814 L480 814 L379 630 Z " />
<glyph glyph-name="uni0145" unicode="&#x145;" horiz-adv-x="778" d="M581 774 L701 774 L701 0 L563 0 L198 608 L198 0 L78 0 L78 774 L239 774 L581 197 L581 774 Z M388 -165 L332 -165 L332 -48 L455 -48 L455 -149 Q455 -220 426 -250.5 Q397 -281 329 -284 L314 -226 Q359 -225 373.5 -213 Q388 -201 388 -165 Z " />
<glyph glyph-name="uni0146" unicode="&#x146;" horiz-adv-x="654" d="M71 0 L71 571 L196 571 L196 453 L198 453 Q228 515 279 549 Q330 583 395 583 Q489 583 539 523.5 Q589 464 589 350 L589 0 L462 0 L462 316 Q462 402 433.5 441 Q405 480 343 480 Q275 480 236.5 429 Q198 378 198 289 L198 0 L71 0 Z M325 -165 L269 -165 L269 -48 L392 -48 L392 -149 Q392 -220 363 -250.5 Q334 -281 266 -284 L251 -226 Q296 -225 310.5 -213 Q325 -201 325 -165 Z " />
<glyph glyph-name="Ncaron" unicode="&#x147;" horiz-adv-x="778" d="M581 774 L701 774 L701 0 L563 0 L198 608 L198 0 L78 0 L78 774 L239 774 L581 197 L581 774 Z M467 965 L563 965 L438 817 L358 817 L227 965 L325 965 L399 898 L467 965 Z " />
<glyph glyph-name="ncaron" unicode="&#x148;" horiz-adv-x="654" d="M71 0 L71 571 L196 571 L196 453 L198 453 Q228 515 279 549 Q330 583 395 583 Q489 583 539 523.5 Q589 464 589 350 L589 0 L462 0 L462 316 Q462 402 433.5 441 Q405 480 343 480 Q275 480 236.5 429 Q198 378 198 289 L198 0 L71 0 Z M406 814 L498 814 L372 630 L293 630 L164 814 L258 814 L334 720 L406 814 Z " />
<glyph glyph-name="Eng" unicode="&#x14a;" horiz-adv-x="778" d="M488 -89 Q534 -89 554 -65.5 Q574 -42 574 11 L574 15 L198 609 L198 0 L78 0 L78 774 L239 774 L581 227 L581 774 L701 774 L701 33 Q701 -24 690.5 -66 Q680 -108 659 -135 Q636 -167 598.5 -182.5 Q561 -198 507 -198 Q473 -198 438.5 -192.5 Q404 -187 376 -178 L400 -72 Q420 -80 442.5 -84.5 Q465 -89 488 -89 Z " />
<glyph glyph-name="eng" unicode="&#x14b;" horiz-adv-x="650" d="M386 -91 Q425 -91 441.5 -72.5 Q458 -54 458 -10 L458 316 Q458 402 430.5 441 Q403 480 341 480 Q274 480 236 429.5 Q198 379 198 289 L198 0 L71 0 L71 571 L196 571 L196 453 L198 453 Q228 515 280 549 Q332 583 397 583 Q488 583 536.5 523.5 Q585 464 585 350 L585 -15 Q585 -108 545 -151.5 Q505 -195 420 -195 Q403 -195 383.5 -192 Q364 -189 347 -184 L335 -85 Q349 -88 361.5 -89.5 Q374 -91 386 -91 Z " />
<glyph glyph-name="Omacron" unicode="&#x14c;" horiz-adv-x="803" d="M405 -13 Q235 -13 139 92 Q43 197 43 382 Q43 565 142 676 Q241 787 405 787 Q568 787 664 678.5 Q760 570 760 387 Q760 203 664 95 Q568 -13 405 -13 Z M574 185 Q600 220 612.5 269.5 Q625 319 625 383 Q625 518 567 594 Q509 670 406 670 Q349 670 304.5 648.5 Q260 627 230 585 Q204 548 191 497 Q178 446 178 383 Q178 252 237.5 178 Q297 104 403 104 Q459 104 502 124.5 Q545 145 574 185 Z M562 837 L250 837 L250 916 L562 916 L562 837 Z " />
<glyph glyph-name="omacron" unicode="&#x14d;" horiz-adv-x="630" d="M314 -13 Q186 -13 111.5 66 Q37 145 37 284 Q38 421 114.5 502.5 Q191 584 317 584 Q443 584 518 504.5 Q593 425 593 288 Q593 147 518 67 Q443 -13 314 -13 Z M316 93 Q388 93 425.5 142 Q463 191 463 285 Q463 377 424.5 427.5 Q386 478 316 478 Q244 478 205.5 428.5 Q167 379 167 286 Q167 194 206 143.5 Q245 93 316 93 Z M473 658 L155 658 L155 737 L473 737 L473 658 Z " />
<glyph glyph-name="Obreve" unicode="&#x14e;" horiz-adv-x="803" d="M405 -13 Q235 -13 139 92 Q43 197 43 382 Q43 565 142 676 Q241 787 405 787 Q568 787 664 678.5 Q760 570 760 387 Q760 203 664 95 Q568 -13 405 -13 Z M574 185 Q600 220 612.5 269.5 Q625 319 625 383 Q625 518 567 594 Q509 670 406 670 Q349 670 304.5 648.5 Q260 627 230 585 Q204 548 191 497 Q178 446 178 383 Q178 252 237.5 178 Q297 104 403 104 Q459 104 502 124.5 Q545 145 574 185 Z M571 960 Q571 897 527.5 860 Q484 823 410 823 Q332 823 287.5 858.5 Q243 894 243 956 Q243 957 243 959 Q243 961 243 965 Q244 969 244 971 Q244 973 244 975 L327 975 L327 968 Q327 937 349 920 Q371 903 411 903 Q450 903 470.5 919 Q491 935 491 966 L491 975 L570 975 Q570 974 570 972 Q570 970 571 967 Q571 964 571 962.5 Q571 961 571 960 Z " />
<glyph glyph-name="obreve" unicode="&#x14f;" horiz-adv-x="630" d="M314 -13 Q186 -13 111.5 66 Q37 145 37 284 Q38 421 114.5 502.5 Q191 584 317 584 Q443 584 518 504.5 Q593 425 593 288 Q593 147 518 67 Q443 -13 314 -13 Z M316 93 Q388 93 425.5 142 Q463 191 463 285 Q463 377 424.5 427.5 Q386 478 316 478 Q244 478 205.5 428.5 Q167 379 167 286 Q167 194 206 143.5 Q245 93 316 93 Z M479 787 Q479 718 434.5 675.5 Q390 633 318 633 Q241 633 196 673.5 Q151 714 151 784 Q151 785 151 786.5 Q151 788 151 792 Q152 796 152 798.5 Q152 801 152 803 L235 803 L235 794 Q235 755 256.5 734.5 Q278 714 319 714 Q358 714 378.5 733.5 Q399 753 399 791 L399 803 L478 803 Q478 801 478 799 Q478 797 479 793 Q479 791 479 789.5 Q479 788 479 787 Z " />
<glyph glyph-name="Ohungarumlaut" unicode="&#x150;" horiz-adv-x="803" d="M405 -13 Q235 -13 139 92 Q43 197 43 382 Q43 565 142 676 Q241 787 405 787 Q568 787 664 678.5 Q760 570 760 387 Q760 203 664 95 Q568 -13 405 -13 Z M574 185 Q600 220 612.5 269.5 Q625 319 625 383 Q625 518 567 594 Q509 670 406 670 Q349 670 304.5 648.5 Q260 627 230 585 Q204 548 191 497 Q178 446 178 383 Q178 252 237.5 178 Q297 104 403 104 Q459 104 502 124.5 Q545 145 574 185 Z M379 828 L294 828 L349 975 L451 975 L379 828 Z M519 828 L433 828 L488 975 L591 975 L519 828 Z " />
<glyph glyph-name="ohungarumlaut" unicode="&#x151;" horiz-adv-x="630" d="M314 -13 Q186 -13 111.5 66 Q37 145 37 284 Q38 421 114.5 502.5 Q191 584 317 584 Q443 584 518 504.5 Q593 425 593 288 Q593 147 518 67 Q443 -13 314 -13 Z M316 93 Q388 93 425.5 142 Q463 191 463 285 Q463 377 424.5 427.5 Q386 478 316 478 Q244 478 205.5 428.5 Q167 379 167 286 Q167 194 206 143.5 Q245 93 316 93 Z M283 630 L196 630 L265 814 L374 814 L283 630 Z M434 630 L346 630 L415 814 L525 814 L434 630 Z " />
<glyph glyph-name="OE" unicode="&#x152;" horiz-adv-x="1153" d="M217 718 Q268 747 334.5 760.5 Q401 774 490 774 L1093 774 L1093 665 L701 665 L701 453 L1069 453 L1069 347 L701 347 L701 109 L1113 109 L1113 0 L487 0 Q393 0 327 13.5 Q261 27 208 56 Q127 101 85 184 Q43 267 43 382 Q43 499 87.5 585 Q132 671 217 718 Z M178 383 Q178 247 251.5 179 Q325 111 473 111 L569 111 L569 663 L476 663 Q325 663 251.5 594 Q178 525 178 383 Z " />
<glyph glyph-name="oe" unicode="&#x153;" horiz-adv-x="1028" d="M745 90 Q800 90 836.5 116 Q873 142 893 196 L1001 162 Q969 76 905 31.5 Q841 -13 748 -13 Q676 -13 618 16.5 Q560 46 525 100 Q489 44 435.5 15.5 Q382 -13 313 -13 Q184 -13 110.5 65.5 Q37 144 37 284 Q38 420 113.5 502 Q189 584 312 584 Q384 584 437.5 555 Q491 526 526 469 Q561 526 614.5 555 Q668 584 736 584 Q805 584 858.5 555.5 Q912 527 945 472 Q970 431 982.5 378 Q995 325 994 259 L585 259 Q590 181 632.5 135.5 Q675 90 745 90 Z M849 410 Q833 445 802.5 463.5 Q772 482 731 482 Q672 482 634 444.5 Q596 407 587 340 L866 340 Q864 363 859.5 380 Q855 397 849 410 Z M316 93 Q388 93 425.5 142 Q463 191 463 285 Q463 377 424.5 427.5 Q386 478 316 478 Q244 478 205.5 428.5 Q167 379 167 286 Q167 194 206 143.5 Q245 93 316 93 Z " />
<glyph glyph-name="Racute" unicode="&#x154;" horiz-adv-x="706" d="M451 268 Q437 284 416 290.5 Q395 297 351 297 L209 297 L209 0 L78 0 L78 774 L399 774 Q530 774 601 720 Q672 666 672 566 Q672 480 619.5 424 Q567 368 471 351 L471 349 Q535 335 565 300.5 Q595 266 616 187 Q634 116 647.5 73.5 Q661 31 673 5 L673 0 L531 0 Q521 23 512 58.5 Q503 94 491 156 Q482 206 473.5 229.5 Q465 253 451 268 Z M538 541 Q538 606 497.5 637.5 Q457 669 375 669 L209 669 L209 398 L361 398 Q449 398 493.5 434 Q538 470 538 541 Z M418 825 L316 825 L368 972 L490 972 L418 825 Z " />
<glyph glyph-name="racute" unicode="&#x155;" horiz-adv-x="520" d="M360 582 Q427 582 463.5 538 Q500 494 500 413 Q500 394 497.5 371 Q495 348 491 329 L373 316 Q377 333 379.5 355 Q382 377 382 394 Q382 442 363 467.5 Q344 493 308 493 Q257 493 227.5 440.5 Q198 388 198 295 L198 0 L71 0 L71 571 L197 571 L197 461 L199 461 Q224 520 265 551 Q306 582 360 582 Z M330 630 L238 630 L308 814 L431 814 L330 630 Z " />
<glyph glyph-name="uni0156" unicode="&#x156;" horiz-adv-x="706" d="M451 268 Q437 284 416 290.5 Q395 297 351 297 L209 297 L209 0 L78 0 L78 774 L399 774 Q530 774 601 720 Q672 666 672 566 Q672 480 619.5 424 Q567 368 471 351 L471 349 Q535 335 565 300.5 Q595 266 616 187 Q634 116 647.5 73.5 Q661 31 673 5 L673 0 L531 0 Q521 23 512 58.5 Q503 94 491 156 Q482 206 473.5 229.5 Q465 253 451 268 Z M538 541 Q538 606 497.5 637.5 Q457 669 375 669 L209 669 L209 398 L361 398 Q449 398 493.5 434 Q538 470 538 541 Z M366 -165 L310 -165 L310 -48 L433 -48 L433 -149 Q433 -220 404 -250.5 Q375 -281 307 -284 L292 -226 Q337 -225 351.5 -213 Q366 -201 366 -165 Z " />
<glyph glyph-name="uni0157" unicode="&#x157;" horiz-adv-x="520" d="M360 582 Q427 582 463.5 538 Q500 494 500 413 Q500 394 497.5 371 Q495 348 491 329 L373 316 Q377 333 379.5 355 Q382 377 382 394 Q382 442 363 467.5 Q344 493 308 493 Q257 493 227.5 440.5 Q198 388 198 295 L198 0 L71 0 L71 571 L197 571 L197 461 L199 461 Q224 520 265 551 Q306 582 360 582 Z M129 -172 L73 -172 L73 -55 L196 -55 L196 -156 Q196 -227 167 -257.5 Q138 -288 70 -291 L55 -233 Q100 -232 114.5 -220 Q129 -208 129 -172 Z " />
<glyph glyph-name="Rcaron" unicode="&#x158;" horiz-adv-x="706" d="M451 268 Q437 284 416 290.5 Q395 297 351 297 L209 297 L209 0 L78 0 L78 774 L399 774 Q530 774 601 720 Q672 666 672 566 Q672 480 619.5 424 Q567 368 471 351 L471 349 Q535 335 565 300.5 Q595 266 616 187 Q634 116 647.5 73.5 Q661 31 673 5 L673 0 L531 0 Q521 23 512 58.5 Q503 94 491 156 Q482 206 473.5 229.5 Q465 253 451 268 Z M538 541 Q538 606 497.5 637.5 Q457 669 375 669 L209 669 L209 398 L361 398 Q449 398 493.5 434 Q538 470 538 541 Z M436 969 L532 969 L407 821 L327 821 L196 969 L294 969 L368 902 L436 969 Z " />
<glyph glyph-name="rcaron" unicode="&#x159;" horiz-adv-x="520" d="M360 582 Q427 582 463.5 538 Q500 494 500 413 Q500 394 497.5 371 Q495 348 491 329 L373 316 Q377 333 379.5 355 Q382 377 382 394 Q382 442 363 467.5 Q344 493 308 493 Q257 493 227.5 440.5 Q198 388 198 295 L198 0 L71 0 L71 571 L197 571 L197 461 L199 461 Q224 520 265 551 Q306 582 360 582 Z M357 814 L449 814 L323 630 L244 630 L115 814 L209 814 L285 720 L357 814 Z " />
<glyph glyph-name="Sacute" unicode="&#x15a;" horiz-adv-x="666" d="M583 365 Q609 340 622 306.5 Q635 273 635 228 Q635 116 555.5 51.5 Q476 -13 338 -13 Q199 -13 115 44.5 Q31 102 9 213 L135 249 Q150 174 202.5 135 Q255 96 343 96 Q421 96 463 127.5 Q505 159 505 218 Q505 250 489 270 Q473 290 436 302 Q425 306 410 309.5 Q395 313 321 328 Q284 335 257 341.5 Q230 348 205 355 Q170 365 144.5 379 Q119 393 100 412 Q75 437 62.5 471 Q50 505 50 547 Q50 657 127.5 722 Q205 787 333 787 Q450 787 525 731.5 Q600 676 629 569 L505 541 Q489 610 445.5 644 Q402 678 329 678 Q260 678 220 646.5 Q180 615 180 560 Q180 518 207 494 Q234 470 304 456 Q312 454 375.5 442.5 Q439 431 480 418 Q518 406 542 393.5 Q566 381 583 365 Z M390 828 L288 828 L340 975 L462 975 L390 828 Z " />
<glyph glyph-name="sacute" unicode="&#x15b;" horiz-adv-x="558" d="M293 85 Q346 85 375.5 105.5 Q405 126 405 164 Q405 184 393 196 Q381 208 353 216 Q338 220 306 225.5 Q274 231 272 231 Q182 247 145.5 260 Q109 273 88 293 Q69 312 59 339 Q49 366 49 400 Q49 482 110.5 532.5 Q172 583 272 583 Q368 583 432.5 537 Q497 491 514 410 L403 389 Q393 437 359.5 462.5 Q326 488 272 488 Q224 488 196.5 467.5 Q169 447 169 410 Q169 381 191 366 Q213 351 300 337 Q415 317 442.5 305.5 Q470 294 489 276 Q507 258 516.5 232.5 Q526 207 526 173 Q526 89 461.5 38.5 Q397 -12 290 -12 Q176 -12 107.5 33 Q39 78 20 165 L138 190 Q150 137 188.5 111 Q227 85 293 85 Z M342 630 L250 630 L320 814 L443 814 L342 630 Z " />
<glyph glyph-name="Scircumflex" unicode="&#x15c;" horiz-adv-x="666" d="M583 365 Q609 340 622 306.5 Q635 273 635 228 Q635 116 555.5 51.5 Q476 -13 338 -13 Q199 -13 115 44.5 Q31 102 9 213 L135 249 Q150 174 202.5 135 Q255 96 343 96 Q421 96 463 127.5 Q505 159 505 218 Q505 250 489 270 Q473 290 436 302 Q425 306 410 309.5 Q395 313 321 328 Q284 335 257 341.5 Q230 348 205 355 Q170 365 144.5 379 Q119 393 100 412 Q75 437 62.5 471 Q50 505 50 547 Q50 657 127.5 722 Q205 787 333 787 Q450 787 525 731.5 Q600 676 629 569 L505 541 Q489 610 445.5 644 Q402 678 329 678 Q260 678 220 646.5 Q180 615 180 560 Q180 518 207 494 Q234 470 304 456 Q312 454 375.5 442.5 Q439 431 480 418 Q518 406 542 393.5 Q566 381 583 365 Z M268 824 L172 824 L300 972 L379 972 L508 824 L410 824 L338 891 L268 824 Z " />
<glyph glyph-name="scircumflex" unicode="&#x15d;" horiz-adv-x="558" d="M293 85 Q346 85 375.5 105.5 Q405 126 405 164 Q405 184 393 196 Q381 208 353 216 Q338 220 306 225.5 Q274 231 272 231 Q182 247 145.5 260 Q109 273 88 293 Q69 312 59 339 Q49 366 49 400 Q49 482 110.5 532.5 Q172 583 272 583 Q368 583 432.5 537 Q497 491 514 410 L403 389 Q393 437 359.5 462.5 Q326 488 272 488 Q224 488 196.5 467.5 Q169 447 169 410 Q169 381 191 366 Q213 351 300 337 Q415 317 442.5 305.5 Q470 294 489 276 Q507 258 516.5 232.5 Q526 207 526 173 Q526 89 461.5 38.5 Q397 -12 290 -12 Q176 -12 107.5 33 Q39 78 20 165 L138 190 Q150 137 188.5 111 Q227 85 293 85 Z M221 630 L129 630 L255 814 L334 814 L463 630 L369 630 L293 723 L221 630 Z " />
<glyph glyph-name="uni015E" unicode="&#x15e;" horiz-adv-x="666" d="M329 -163 Q359 -163 374 -153.5 Q389 -144 389 -126 Q389 -111 380 -103 Q371 -95 354 -95 Q341 -95 330 -100.5 Q319 -106 314 -116 L265 -106 L294 -11 Q174 -2 101.5 54.5 Q29 111 9 213 L135 249 Q150 174 202.5 135 Q255 96 343 96 Q421 96 463 127.5 Q505 159 505 218 Q505 250 489 270 Q473 290 436 302 Q425 306 410 309.5 Q395 313 321 328 Q284 335 257 341.5 Q230 348 205 355 Q170 365 144.5 379 Q119 393 100 412 Q75 437 62.5 471 Q50 505 50 547 Q50 657 127.5 722 Q205 787 333 787 Q450 787 525 731.5 Q600 676 629 569 L505 541 Q489 610 445.5 644 Q402 678 329 678 Q260 678 220 646.5 Q180 615 180 560 Q180 518 207 494 Q234 470 304 456 Q312 454 375.5 442.5 Q439 431 480 418 Q518 406 542 393.5 Q566 381 583 365 Q609 340 622 306.5 Q635 273 635 228 Q635 121 562 57 Q489 -7 362 -12 L348 -58 Q355 -56 363 -55 Q371 -54 382 -54 Q418 -54 441.5 -75.5 Q465 -97 465 -133 Q465 -178 429.5 -205.5 Q394 -233 334 -233 Q296 -233 259 -225 Q222 -217 197 -204 L226 -139 Q247 -150 275 -156.5 Q303 -163 329 -163 Z " />
<glyph glyph-name="uni015F" unicode="&#x15f;" horiz-adv-x="558" d="M293 85 Q346 85 375.5 105.5 Q405 126 405 164 Q405 184 393 196 Q381 208 353 216 Q338 220 306 225.5 Q274 231 272 231 Q182 247 145.5 260 Q109 273 88 293 Q69 312 59 339 Q49 366 49 400 Q49 482 110.5 532.5 Q172 583 272 583 Q368 583 432.5 537 Q497 491 514 410 L403 389 Q393 437 359.5 462.5 Q326 488 272 488 Q224 488 196.5 467.5 Q169 447 169 410 Q169 381 191 366 Q213 351 300 337 Q415 317 442.5 305.5 Q470 294 489 276 Q507 258 516.5 232.5 Q526 207 526 173 Q526 95 470 45.5 Q414 -4 318 -11 L304 -58 Q311 -56 319 -55 Q327 -54 338 -54 Q374 -54 397.5 -75.5 Q421 -97 421 -133 Q421 -178 385.5 -205.5 Q350 -233 290 -233 Q252 -233 215 -225 Q178 -217 153 -204 L182 -139 Q203 -150 231 -156.5 Q259 -163 285 -163 Q315 -163 330 -153.5 Q345 -144 345 -126 Q345 -111 336 -103 Q327 -95 310 -95 Q297 -95 286 -100.5 Q275 -106 270 -116 L221 -106 L250 -10 Q154 -3 95.5 41.5 Q37 86 20 165 L138 190 Q150 137 188.5 111 Q227 85 293 85 Z " />
<glyph glyph-name="Scaron" unicode="&#x160;" horiz-adv-x="666" d="M583 365 Q609 340 622 306.5 Q635 273 635 228 Q635 116 555.5 51.5 Q476 -13 338 -13 Q199 -13 115 44.5 Q31 102 9 213 L135 249 Q150 174 202.5 135 Q255 96 343 96 Q421 96 463 127.5 Q505 159 505 218 Q505 250 489 270 Q473 290 436 302 Q425 306 410 309.5 Q395 313 321 328 Q284 335 257 341.5 Q230 348 205 355 Q170 365 144.5 379 Q119 393 100 412 Q75 437 62.5 471 Q50 505 50 547 Q50 657 127.5 722 Q205 787 333 787 Q450 787 525 731.5 Q600 676 629 569 L505 541 Q489 610 445.5 644 Q402 678 329 678 Q260 678 220 646.5 Q180 615 180 560 Q180 518 207 494 Q234 470 304 456 Q312 454 375.5 442.5 Q439 431 480 418 Q518 406 542 393.5 Q566 381 583 365 Z M408 972 L504 972 L379 824 L299 824 L168 972 L266 972 L340 905 L408 972 Z " />
<glyph glyph-name="scaron" unicode="&#x161;" horiz-adv-x="558" d="M293 85 Q346 85 375.5 105.5 Q405 126 405 164 Q405 184 393 196 Q381 208 353 216 Q338 220 306 225.5 Q274 231 272 231 Q182 247 145.5 260 Q109 273 88 293 Q69 312 59 339 Q49 366 49 400 Q49 482 110.5 532.5 Q172 583 272 583 Q368 583 432.5 537 Q497 491 514 410 L403 389 Q393 437 359.5 462.5 Q326 488 272 488 Q224 488 196.5 467.5 Q169 447 169 410 Q169 381 191 366 Q213 351 300 337 Q415 317 442.5 305.5 Q470 294 489 276 Q507 258 516.5 232.5 Q526 207 526 173 Q526 89 461.5 38.5 Q397 -12 290 -12 Q176 -12 107.5 33 Q39 78 20 165 L138 190 Q150 137 188.5 111 Q227 85 293 85 Z M369 814 L461 814 L335 630 L256 630 L127 814 L221 814 L297 720 L369 814 Z " />
<glyph glyph-name="Tcaron" unicode="&#x164;" horiz-adv-x="672" d="M654 774 L654 665 L402 665 L402 0 L270 0 L270 665 L17 665 L17 774 L654 774 Z M404 972 L500 972 L375 824 L295 824 L164 972 L262 972 L336 905 L404 972 Z " />
<glyph glyph-name="tcaron" unicode="&#x165;" horiz-adv-x="423" d="M330 91 Q351 91 367 92.5 Q383 94 397 98 L397 4 Q371 -4 344.5 -8 Q318 -12 287 -12 Q196 -12 153 31.5 Q110 75 110 167 L110 475 L-5 475 L-5 571 L112 571 L112 685 L237 738 L237 571 L397 571 L397 475 L237 475 L237 186 Q237 133 257.5 112 Q278 91 330 91 Z M436 830 Q436 781 425 733.5 Q414 686 391 636 L314 636 Q323 669 327.5 705.5 Q332 742 332 783 Q332 809 330.5 834 Q329 859 325 883 L433 883 Q434 870 435 856.5 Q436 843 436 830 Z " />
<glyph glyph-name="Tbar" unicode="&#x166;" horiz-adv-x="672" d="M270 340 L112 340 L112 425 L270 425 L270 665 L17 665 L17 774 L654 774 L654 665 L402 665 L402 425 L559 425 L559 340 L402 340 L402 0 L270 0 L270 340 Z " />
<glyph glyph-name="tbar" unicode="&#x167;" horiz-adv-x="423" d="M13 270 L13 354 L110 354 L110 475 L-5 475 L-5 571 L112 571 L112 685 L237 738 L237 571 L397 571 L397 475 L237 475 L237 354 L386 354 L386 270 L237 270 L237 186 Q237 133 257.5 112 Q278 91 330 91 Q351 91 367 92.5 Q383 94 397 98 L397 4 Q371 -4 344.5 -8 Q318 -12 287 -12 Q196 -12 153 31.5 Q110 75 110 167 L110 270 L13 270 Z " />
<glyph glyph-name="Utilde" unicode="&#x168;" horiz-adv-x="774" d="M200 774 L200 310 Q200 206 247.5 156 Q295 106 395 106 Q487 106 531.5 157 Q576 208 576 314 L576 774 L706 774 L706 309 Q706 152 625 69.5 Q544 -13 392 -13 Q232 -13 150.5 64.5 Q69 142 69 294 L69 774 L200 774 Z M311 966 Q332 966 353.5 958.5 Q375 951 409 927 Q434 910 446 905 Q458 900 469 900 Q488 900 496 915.5 Q504 931 503 965 L573 956 Q575 888 551 851.5 Q527 815 479 815 Q458 815 437 822.5 Q416 830 380 853 Q355 870 342.5 875 Q330 880 320 880 Q299 880 289.5 864.5 Q280 849 280 814 L208 823 Q206 890 233 928 Q260 966 311 966 Z " />
<glyph glyph-name="utilde" unicode="&#x169;" horiz-adv-x="650" d="M258 -12 Q163 -12 113.5 45 Q64 102 64 211 L64 571 L191 571 L191 250 Q191 167 219.5 129 Q248 91 310 91 Q377 91 414.5 140.5 Q452 190 452 280 L452 571 L580 571 L580 0 L455 0 L455 117 L453 117 Q423 55 372.5 21.5 Q322 -12 258 -12 Z M240 792 Q261 792 282.5 783.5 Q304 775 338 748 Q363 728 375 722.5 Q387 717 398 717 Q417 717 425 734.5 Q433 752 432 791 L502 782 Q504 710 479.5 671 Q455 632 408 632 Q387 632 366 640.5 Q345 649 309 676 Q284 696 271.5 701.5 Q259 707 249 707 Q228 707 218.5 689 Q209 671 209 631 L137 640 Q135 712 162 752 Q189 792 240 792 Z " />
<glyph glyph-name="Umacron" unicode="&#x16a;" horiz-adv-x="774" d="M200 774 L200 310 Q200 206 247.5 156 Q295 106 395 106 Q487 106 531.5 157 Q576 208 576 314 L576 774 L706 774 L706 309 Q706 152 625 69.5 Q544 -13 392 -13 Q232 -13 150.5 64.5 Q69 142 69 294 L69 774 L200 774 Z M543 830 L231 830 L231 909 L543 909 L543 830 Z " />
<glyph glyph-name="umacron" unicode="&#x16b;" horiz-adv-x="650" d="M258 -12 Q163 -12 113.5 45 Q64 102 64 211 L64 571 L191 571 L191 250 Q191 167 219.5 129 Q248 91 310 91 Q377 91 414.5 140.5 Q452 190 452 280 L452 571 L580 571 L580 0 L455 0 L455 117 L453 117 Q423 55 372.5 21.5 Q322 -12 258 -12 Z M480 651 L162 651 L162 730 L480 730 L480 651 Z " />
<glyph glyph-name="Ubreve" unicode="&#x16c;" horiz-adv-x="774" d="M200 774 L200 310 Q200 206 247.5 156 Q295 106 395 106 Q487 106 531.5 157 Q576 208 576 314 L576 774 L706 774 L706 309 Q706 152 625 69.5 Q544 -13 392 -13 Q232 -13 150.5 64.5 Q69 142 69 294 L69 774 L200 774 Z M551 953 Q551 890 507.5 853 Q464 816 390 816 Q312 816 267.5 851.5 Q223 887 223 949 Q223 950 223 952 Q223 954 223 958 Q224 962 224 964 Q224 966 224 968 L307 968 L307 961 Q307 930 329 913 Q351 896 391 896 Q430 896 450.5 912 Q471 928 471 959 L471 968 L550 968 Q550 967 550 965 Q550 963 551 960 Q551 957 551 955.5 Q551 954 551 953 Z " />
<glyph glyph-name="ubreve" unicode="&#x16d;" horiz-adv-x="650" d="M258 -12 Q163 -12 113.5 45 Q64 102 64 211 L64 571 L191 571 L191 250 Q191 167 219.5 129 Q248 91 310 91 Q377 91 414.5 140.5 Q452 190 452 280 L452 571 L580 571 L580 0 L455 0 L455 117 L453 117 Q423 55 372.5 21.5 Q322 -12 258 -12 Z M486 780 Q486 711 441.5 668.5 Q397 626 325 626 Q248 626 203 666.5 Q158 707 158 777 Q158 778 158 779.5 Q158 781 158 785 Q159 789 159 791.5 Q159 794 159 796 L242 796 L242 787 Q242 748 263.5 727.5 Q285 707 326 707 Q365 707 385.5 726.5 Q406 746 406 784 L406 796 L485 796 Q485 794 485 792 Q485 790 486 786 Q486 784 486 782.5 Q486 781 486 780 Z " />
<glyph glyph-name="Uring" unicode="&#x16e;" horiz-adv-x="774" d="M200 774 L200 310 Q200 206 247.5 156 Q295 106 395 106 Q487 106 531.5 157 Q576 208 576 314 L576 774 L706 774 L706 309 Q706 152 625 69.5 Q544 -13 392 -13 Q232 -13 150.5 64.5 Q69 142 69 294 L69 774 L200 774 Z M494 918 Q494 869 464 838.5 Q434 808 387 808 Q339 808 309.5 838 Q280 868 280 916 Q280 964 310.5 995 Q341 1026 388 1026 Q435 1026 464.5 996 Q494 966 494 918 Z M336 916 Q336 890 350.5 875 Q365 860 389 860 Q413 860 426.5 875 Q440 890 440 917 Q440 945 426 960.5 Q412 976 388 976 Q365 976 350.5 959.5 Q336 943 336 916 Z " />
<glyph glyph-name="uring" unicode="&#x16f;" horiz-adv-x="650" d="M258 -12 Q163 -12 113.5 45 Q64 102 64 211 L64 571 L191 571 L191 250 Q191 167 219.5 129 Q248 91 310 91 Q377 91 414.5 140.5 Q452 190 452 280 L452 571 L580 571 L580 0 L455 0 L455 117 L453 117 Q423 55 372.5 21.5 Q322 -12 258 -12 Z M440 747 Q440 694 407 660 Q374 626 322 626 Q269 626 236.5 659 Q204 692 204 746 Q204 799 238 833 Q272 867 324 867 Q375 867 407.5 833.5 Q440 800 440 747 Z M263 746 Q263 716 279.5 698 Q296 680 322 680 Q350 680 366 697.5 Q382 715 382 746 Q382 778 366.5 795.5 Q351 813 323 813 Q296 813 279.5 794.5 Q263 776 263 746 Z " />
<glyph glyph-name="Uhungarumlaut" unicode="&#x170;" horiz-adv-x="774" d="M200 774 L200 310 Q200 206 247.5 156 Q295 106 395 106 Q487 106 531.5 157 Q576 208 576 314 L576 774 L706 774 L706 309 Q706 152 625 69.5 Q544 -13 392 -13 Q232 -13 150.5 64.5 Q69 142 69 294 L69 774 L200 774 Z M360 821 L275 821 L330 968 L432 968 L360 821 Z M500 821 L414 821 L469 968 L572 968 L500 821 Z " />
<glyph glyph-name="uhungarumlaut" unicode="&#x171;" horiz-adv-x="650" d="M258 -12 Q163 -12 113.5 45 Q64 102 64 211 L64 571 L191 571 L191 250 Q191 167 219.5 129 Q248 91 310 91 Q377 91 414.5 140.5 Q452 190 452 280 L452 571 L580 571 L580 0 L455 0 L455 117 L453 117 Q423 55 372.5 21.5 Q322 -12 258 -12 Z M290 623 L203 623 L272 807 L381 807 L290 623 Z M441 623 L353 623 L422 807 L532 807 L441 623 Z " />
<glyph glyph-name="Uogonek" unicode="&#x172;" horiz-adv-x="774" d="M547 -142 L547 -208 Q534 -214 515 -217.5 Q496 -221 475 -221 Q416 -221 382.5 -194 Q349 -167 349 -119 Q349 -86 366 -60 Q383 -34 417 -14 L417 -13 L392 -13 Q232 -13 150.5 64.5 Q69 142 69 294 L69 774 L200 774 L200 310 Q200 206 247.5 156 Q295 106 395 106 Q487 106 531.5 157 Q576 208 576 314 L576 774 L706 774 L706 309 Q706 198 666 124 Q626 50 549 17 Q497 -6 473.5 -32 Q450 -58 450 -94 Q450 -120 464.5 -133.5 Q479 -147 508 -147 Q518 -147 527.5 -146 Q537 -145 547 -142 Z " />
<glyph glyph-name="uogonek" unicode="&#x173;" horiz-adv-x="650" d="M258 -12 Q163 -12 113.5 45 Q64 102 64 211 L64 571 L191 571 L191 250 Q191 167 219.5 129 Q248 91 310 91 Q377 91 414.5 140.5 Q452 190 452 280 L452 571 L580 571 L580 0 L579 0 Q533 -11 508.5 -35 Q484 -59 484 -94 Q484 -120 498.5 -133.5 Q513 -147 542 -147 Q551 -147 560 -146 Q569 -145 581 -142 L581 -208 Q567 -214 548 -217.5 Q529 -221 508 -221 Q449 -221 415.5 -194 Q382 -167 382 -119 Q382 -80 404 -51 Q426 -22 470 -2 L470 0 L455 0 L455 117 L453 117 Q423 55 372.5 21.5 Q322 -12 258 -12 Z " />
<glyph glyph-name="Wcircumflex" unicode="&#x174;" horiz-adv-x="1047" d="M226 0 L21 774 L151 774 L302 172 L458 774 L590 774 L754 166 L896 774 L1026 774 L829 0 L688 0 L524 618 L367 0 L226 0 Z M451 824 L355 824 L483 972 L562 972 L691 824 L593 824 L521 891 L451 824 Z " />
<glyph glyph-name="wcircumflex" unicode="&#x175;" horiz-adv-x="835" d="M670 0 L539 0 L419 424 L303 0 L168 0 L9 571 L139 571 L244 139 L367 571 L474 571 L604 136 L705 571 L826 571 L670 0 Z M342 630 L250 630 L376 814 L455 814 L584 630 L490 630 L414 723 L342 630 Z " />
<glyph glyph-name="Ycircumflex" unicode="&#x176;" horiz-adv-x="651" d="M521 774 L650 774 L397 310 L397 0 L265 0 L265 312 L0 774 L139 774 L333 425 L521 774 Z M264 824 L168 824 L296 972 L375 972 L504 824 L406 824 L334 891 L264 824 Z " />
<glyph glyph-name="ycircumflex" unicode="&#x177;" horiz-adv-x="581" d="M572 571 L370 22 Q324 -103 271.5 -150 Q219 -197 126 -197 Q85 -197 43.5 -189.5 Q2 -182 -24 -169 L8 -61 Q38 -74 66 -80 Q94 -86 123 -86 Q152 -86 174 -75 Q196 -64 212 -40 Q218 -32 222.5 -24.5 Q227 -17 230 -9 L6 571 L139 571 L297 132 L443 571 L572 571 Z M214 630 L122 630 L248 814 L327 814 L456 630 L362 630 L286 723 L214 630 Z " />
<glyph glyph-name="Ydieresis" unicode="&#x178;" horiz-adv-x="651" d="M521 774 L650 774 L397 310 L397 0 L265 0 L265 312 L0 774 L139 774 L333 425 L521 774 Z M295 829 L177 829 L177 946 L295 946 L295 829 Z M495 829 L376 829 L376 946 L495 946 L495 829 Z " />
<glyph glyph-name="Zacute" unicode="&#x179;" horiz-adv-x="667" d="M489 665 L55 665 L55 774 L630 774 L630 662 L185 109 L641 109 L641 0 L37 0 L37 113 L489 665 Z M395 828 L293 828 L345 975 L467 975 L395 828 Z " />
<glyph glyph-name="zacute" unicode="&#x17a;" horiz-adv-x="549" d="M370 471 L52 471 L52 571 L514 571 L514 466 L182 100 L522 100 L522 0 L31 0 L31 105 L370 471 Z M328 630 L236 630 L306 814 L429 814 L328 630 Z " />
<glyph glyph-name="Zdotaccent" unicode="&#x17b;" horiz-adv-x="667" d="M489 665 L55 665 L55 774 L630 774 L630 662 L185 109 L641 109 L641 0 L37 0 L37 113 L489 665 Z M413 831 L273 831 L273 952 L413 952 L413 831 Z " />
<glyph glyph-name="zdotaccent" unicode="&#x17c;" horiz-adv-x="549" d="M370 471 L52 471 L52 571 L514 571 L514 466 L182 100 L522 100 L522 0 L31 0 L31 105 L370 471 Z M349 686 L214 686 L214 815 L349 815 L349 686 Z " />
<glyph glyph-name="Zcaron" unicode="&#x17d;" horiz-adv-x="667" d="M489 665 L55 665 L55 774 L630 774 L630 662 L185 109 L641 109 L641 0 L37 0 L37 113 L489 665 Z M413 972 L509 972 L384 824 L304 824 L173 972 L271 972 L345 905 L413 972 Z " />
<glyph glyph-name="zcaron" unicode="&#x17e;" horiz-adv-x="549" d="M370 471 L52 471 L52 571 L514 571 L514 466 L182 100 L522 100 L522 0 L31 0 L31 105 L370 471 Z M354 814 L446 814 L320 630 L241 630 L112 814 L206 814 L282 720 L354 814 Z " />
<glyph glyph-name="uni0192" unicode="&#x192;" horiz-adv-x="543" d="M194 320 L58 320 L58 408 L212 408 L244 561 Q269 678 322.5 731 Q376 784 470 784 Q500 784 531.5 778 Q563 772 593 760 L566 658 Q550 665 529 669 Q508 673 484 673 Q436 673 411.5 648 Q387 623 373 558 L342 408 L493 408 L493 320 L324 320 L262 24 Q237 -96 185.5 -147 Q134 -198 38 -198 Q5 -198 -27 -192 Q-59 -186 -87 -175 L-58 -71 Q-36 -81 -16.5 -85 Q3 -89 26 -89 Q74 -89 96.5 -63 Q119 -37 134 35 L194 320 Z " />
<glyph glyph-name="AEacute" unicode="&#x1fc;" horiz-adv-x="1052" d="M652 109 L1012 109 L1012 0 L538 0 L513 181 L229 181 L144 0 L6 0 L389 774 L992 774 L992 665 L573 665 L603 453 L968 453 L968 347 L618 347 L652 109 Z M448 649 L278 285 L499 285 L448 649 Z M704 828 L602 828 L654 975 L776 975 L704 828 Z " />
<glyph glyph-name="aeacute" unicode="&#x1fd;" horiz-adv-x="970" d="M692 90 Q746 90 782 116 Q818 142 838 196 L946 162 Q915 77 849 32 Q783 -13 689 -13 Q603 -13 541 21 Q479 55 449 119 Q415 53 359 20 Q303 -13 227 -13 Q137 -13 87 28.5 Q37 70 37 145 Q37 187 52 218.5 Q67 250 98 273 Q122 291 157 303 Q192 315 240 322 L320 333 Q368 340 388.5 356 Q409 372 409 403 Q409 440 383 461 Q357 482 312 482 Q258 482 225 454.5 Q192 427 179 370 L61 391 Q86 485 149 534.5 Q212 584 305 584 Q366 584 411 561 Q456 538 484 494 Q517 537 568.5 560.5 Q620 584 680 584 Q748 584 802.5 555 Q857 526 890 472 Q915 431 927.5 377.5 Q940 324 939 259 L534 259 Q539 180 581 135 Q623 90 692 90 Z M794 410 Q778 445 748 463.5 Q718 482 678 482 Q618 482 581 445 Q544 408 536 340 L811 340 Q809 361 805 378 Q801 395 794 410 Z M168 161 Q168 121 192.5 99.5 Q217 78 262 78 Q329 78 369 128.5 Q409 179 409 263 L409 289 Q399 281 383 276 Q367 271 336 265 L267 253 Q215 244 191.5 222 Q168 200 168 161 Z M543 630 L451 630 L521 814 L644 814 L543 630 Z " />
<glyph glyph-name="Oslashacute" unicode="&#x1fe;" horiz-adv-x="803" d="M116 -22 L49 38 L117 119 Q80 169 61.5 235.5 Q43 302 43 382 Q43 565 142 676 Q241 787 405 787 Q470 787 525.5 769 Q581 751 625 716 L683 784 L750 730 L685 653 Q722 601 741 533.5 Q760 466 760 387 Q760 203 664 95 Q568 -13 405 -13 Q338 -13 282 4 Q226 21 181 54 L116 -22 Z M230 585 Q204 548 191 497 Q178 446 178 383 Q178 334 186.5 292.5 Q195 251 211 219 L541 623 Q515 646 481 658 Q447 670 406 670 Q349 670 304.5 648.5 Q260 627 230 585 Z M574 185 Q600 220 612.5 269.5 Q625 319 625 383 Q625 434 617 477 Q609 520 593 554 L265 149 Q292 127 326.5 115.5 Q361 104 403 104 Q459 104 502 124.5 Q545 145 574 185 Z M457 828 L355 828 L407 975 L529 975 L457 828 Z " />
<glyph glyph-name="oslashacute" unicode="&#x1ff;" horiz-adv-x="630" d="M37 284 Q38 421 114.5 502.5 Q191 584 317 584 Q367 584 410.5 570 Q454 556 489 529 L546 591 L607 534 L545 467 Q569 430 581 384.5 Q593 339 593 288 Q593 147 518 67 Q443 -13 314 -13 Q263 -13 219 0.5 Q175 14 140 41 L83 -21 L20 36 L83 103 Q60 140 48.5 185.5 Q37 231 37 284 Z M316 480 Q243 480 204 430 Q165 380 165 286 Q165 258 168 235 Q171 212 178 193 L410 446 Q392 463 368 471.5 Q344 480 316 480 Z M316 91 Q388 91 426.5 141 Q465 191 465 285 Q465 313 461.5 337 Q458 361 451 382 L220 125 Q238 108 262.5 99.5 Q287 91 316 91 Z M361 630 L269 630 L339 814 L462 814 L361 630 Z " />
<glyph glyph-name="uni0218" unicode="&#x218;" horiz-adv-x="666" d="M583 365 Q609 340 622 306.5 Q635 273 635 228 Q635 116 555.5 51.5 Q476 -13 338 -13 Q199 -13 115 44.5 Q31 102 9 213 L135 249 Q150 174 202.5 135 Q255 96 343 96 Q421 96 463 127.5 Q505 159 505 218 Q505 250 489 270 Q473 290 436 302 Q425 306 410 309.5 Q395 313 321 328 Q284 335 257 341.5 Q230 348 205 355 Q170 365 144.5 379 Q119 393 100 412 Q75 437 62.5 471 Q50 505 50 547 Q50 657 127.5 722 Q205 787 333 787 Q450 787 525 731.5 Q600 676 629 569 L505 541 Q489 610 445.5 644 Q402 678 329 678 Q260 678 220 646.5 Q180 615 180 560 Q180 518 207 494 Q234 470 304 456 Q312 454 375.5 442.5 Q439 431 480 418 Q518 406 542 393.5 Q566 381 583 365 Z M331 -172 L275 -172 L275 -55 L398 -55 L398 -156 Q398 -227 369 -257.5 Q340 -288 272 -291 L257 -233 Q302 -232 316.5 -220 Q331 -208 331 -172 Z " />
<glyph glyph-name="uni0219" unicode="&#x219;" horiz-adv-x="558" d="M293 85 Q346 85 375.5 105.5 Q405 126 405 164 Q405 184 393 196 Q381 208 353 216 Q338 220 306 225.5 Q274 231 272 231 Q182 247 145.5 260 Q109 273 88 293 Q69 312 59 339 Q49 366 49 400 Q49 482 110.5 532.5 Q172 583 272 583 Q368 583 432.5 537 Q497 491 514 410 L403 389 Q393 437 359.5 462.5 Q326 488 272 488 Q224 488 196.5 467.5 Q169 447 169 410 Q169 381 191 366 Q213 351 300 337 Q415 317 442.5 305.5 Q470 294 489 276 Q507 258 516.5 232.5 Q526 207 526 173 Q526 89 461.5 38.5 Q397 -12 290 -12 Q176 -12 107.5 33 Q39 78 20 165 L138 190 Q150 137 188.5 111 Q227 85 293 85 Z M286 -172 L230 -172 L230 -55 L353 -55 L353 -156 Q353 -227 324 -257.5 Q295 -288 227 -291 L212 -233 Q257 -232 271.5 -220 Q286 -208 286 -172 Z " />
<glyph glyph-name="uni021A" unicode="&#x21a;" horiz-adv-x="672" d="M654 774 L654 665 L402 665 L402 0 L270 0 L270 665 L17 665 L17 774 L654 774 Z M329 -172 L273 -172 L273 -55 L396 -55 L396 -156 Q396 -227 367 -257.5 Q338 -288 270 -291 L255 -233 Q300 -232 314.5 -220 Q329 -208 329 -172 Z " />
<glyph glyph-name="uni021B" unicode="&#x21b;" horiz-adv-x="423" d="M330 91 Q351 91 367 92.5 Q383 94 397 98 L397 4 Q371 -4 344.5 -8 Q318 -12 287 -12 Q196 -12 153 31.5 Q110 75 110 167 L110 475 L-5 475 L-5 571 L112 571 L112 685 L237 738 L237 571 L397 571 L397 475 L237 475 L237 186 Q237 133 257.5 112 Q278 91 330 91 Z M267 -172 L211 -172 L211 -55 L334 -55 L334 -156 Q334 -227 305 -257.5 Q276 -288 208 -291 L193 -233 Q238 -232 252.5 -220 Q267 -208 267 -172 Z " />
<glyph glyph-name="uni0237" unicode="&#x237;" horiz-adv-x="272" d="M-38 -184 L-51 -85 Q-36 -88 -24 -89.5 Q-12 -91 0 -91 Q39 -91 55.5 -72.5 Q72 -54 72 -10 L72 571 L200 571 L200 -15 Q200 -108 160 -151.5 Q120 -195 34 -195 Q16 -195 -3 -192 Q-22 -189 -38 -184 Z " />
<glyph glyph-name="circumflex" unicode="&#x2c6;" horiz-adv-x="500" d="M175 630 L83 630 L209 814 L288 814 L417 630 L323 630 L247 723 L175 630 Z " />
<glyph glyph-name="caron" unicode="&#x2c7;" horiz-adv-x="500" d="M325 814 L417 814 L291 630 L212 630 L83 814 L177 814 L253 720 L325 814 Z " />
<glyph glyph-name="breve" unicode="&#x2d8;" horiz-adv-x="500" d="M414 787 Q414 718 369.5 675.5 Q325 633 253 633 Q176 633 131 673.5 Q86 714 86 784 Q86 785 86 786.5 Q86 788 86 792 Q87 796 87 798.5 Q87 801 87 803 L170 803 L170 794 Q170 755 191.5 734.5 Q213 714 254 714 Q293 714 313.5 733.5 Q334 753 334 791 L334 803 L413 803 Q413 801 413 799 Q413 797 414 793 Q414 791 414 789.5 Q414 788 414 787 Z " />
<glyph glyph-name="dotaccent" unicode="&#x2d9;" horiz-adv-x="500" d="M318 686 L183 686 L183 815 L318 815 L318 686 Z " />
<glyph glyph-name="ring" unicode="&#x2da;" horiz-adv-x="500" d="M368 754 Q368 701 335 667 Q302 633 250 633 Q197 633 164.5 666 Q132 699 132 753 Q132 806 166 840 Q200 874 252 874 Q303 874 335.5 840.5 Q368 807 368 754 Z M191 753 Q191 723 207.5 705 Q224 687 250 687 Q278 687 294 704.5 Q310 722 310 753 Q310 785 294.5 802.5 Q279 820 251 820 Q224 820 207.5 801.5 Q191 783 191 753 Z " />
<glyph glyph-name="ogonek" unicode="&#x2db;" horiz-adv-x="500" d="M310 -147 Q320 -147 329.5 -146 Q339 -145 349 -142 L349 -208 Q335 -214 316.5 -217.5 Q298 -221 277 -221 Q218 -221 184.5 -194 Q151 -167 151 -119 Q151 -80 172.5 -51 Q194 -22 238 -2 L238 21 L348 0 Q301 -11 276.5 -35 Q252 -59 252 -94 Q252 -120 266.5 -133.5 Q281 -147 310 -147 Z " />
<glyph glyph-name="tilde" unicode="&#x2dc;" horiz-adv-x="500" d="M173 799 Q194 799 215.5 790.5 Q237 782 271 755 Q296 735 308 729.5 Q320 724 331 724 Q350 724 358 741.5 Q366 759 365 798 L435 789 Q437 717 412.5 678 Q388 639 341 639 Q320 639 299 647.5 Q278 656 242 683 Q217 703 204.5 708.5 Q192 714 182 714 Q161 714 151.5 696 Q142 678 142 638 L70 647 Q68 719 95 759 Q122 799 173 799 Z " />
<glyph glyph-name="hungarumlaut" unicode="&#x2dd;" horiz-adv-x="500" d="M173 630 L86 630 L155 814 L264 814 L173 630 Z M324 630 L236 630 L305 814 L415 814 L324 630 Z " />
<glyph glyph-name="uni030F" unicode="&#x30f;" horiz-adv-x="500" d="M195 814 L264 630 L177 630 L86 814 L195 814 Z M346 814 L415 630 L327 630 L236 814 L346 814 Z " />
<glyph glyph-name="uni0311" unicode="&#x311;" horiz-adv-x="500" d="M86 649 Q86 718 131 760 Q176 802 249 802 Q325 802 369.5 761.5 Q414 721 414 652 Q414 651 414 649.5 Q414 648 414 644 Q413 640 413 637.5 Q413 635 413 633 L330 633 L330 642 Q330 681 308.5 701.5 Q287 722 248 722 Q208 722 187 702 Q166 682 166 644 L166 633 L87 633 Q87 635 87 637 Q87 639 86 643 Q86 645 86 646.5 Q86 648 86 649 Z " />
<glyph glyph-name="uni0323" unicode="&#x323;" horiz-adv-x="500" d="M318 -204 L185 -204 L185 -75 L318 -75 L318 -204 Z " />
<glyph glyph-name="uni03A9" unicode="&#x3a9;" horiz-adv-x="848" d="M74 464 Q75 604 174 696 Q273 788 424 788 Q575 788 674.5 696 Q774 604 774 464 Q774 366 720 292.5 Q666 219 573 186 L573 110 L792 110 L792 0 L479 0 L479 234 Q556 255 598.5 310 Q641 365 641 445 Q641 546 582 605.5 Q523 665 424 665 Q325 665 266 605 Q207 545 207 445 Q207 366 249.5 310.5 Q292 255 369 234 L369 0 L56 0 L56 110 L274 110 L274 184 Q183 217 129 291.5 Q75 366 74 464 Z " />
<glyph glyph-name="pi" unicode="&#x3c0;" horiz-adv-x="693" d="M101 463 L18 463 L18 571 L675 571 L675 463 L592 463 L592 0 L464 0 L464 463 L229 463 L229 0 L101 0 L101 463 Z " />
<glyph glyph-name="uni0E3F" unicode="&#xe3f;" horiz-adv-x="724" d="M419 0 L419 -133 L309 -133 L309 0 L78 0 L78 774 L309 774 L309 878 L419 878 L419 773 Q539 767 599.5 719 Q660 671 660 582 Q660 519 622 471.5 Q584 424 516 404 L516 403 Q599 387 644.5 338.5 Q690 290 690 219 Q690 112 622 57 Q554 2 419 0 Z M314 665 L209 665 L209 446 L314 446 L314 665 Z M529 559 Q529 606 500.5 632.5 Q472 659 414 664 L414 448 Q473 454 501 481.5 Q529 509 529 559 Z M314 343 L209 343 L209 109 L314 109 L314 343 Z M557 229 Q557 283 522 311 Q487 339 414 343 L414 109 Q487 111 522 140.5 Q557 170 557 229 Z " />
<glyph glyph-name="Wgrave" unicode="&#x1e80;" horiz-adv-x="1047" d="M226 0 L21 774 L151 774 L302 172 L458 774 L590 774 L754 166 L896 774 L1026 774 L829 0 L688 0 L524 618 L367 0 L226 0 Z M523 975 L574 828 L472 828 L400 975 L523 975 Z " />
<glyph glyph-name="wgrave" unicode="&#x1e81;" horiz-adv-x="835" d="M670 0 L539 0 L419 424 L303 0 L168 0 L9 571 L139 571 L244 139 L367 571 L474 571 L604 136 L705 571 L826 571 L670 0 Z M393 814 L463 630 L371 630 L270 814 L393 814 Z " />
<glyph glyph-name="Wacute" unicode="&#x1e82;" horiz-adv-x="1047" d="M226 0 L21 774 L151 774 L302 172 L458 774 L590 774 L754 166 L896 774 L1026 774 L829 0 L688 0 L524 618 L367 0 L226 0 Z M574 828 L472 828 L524 975 L646 975 L574 828 Z " />
<glyph glyph-name="wacute" unicode="&#x1e83;" horiz-adv-x="835" d="M670 0 L539 0 L419 424 L303 0 L168 0 L9 571 L139 571 L244 139 L367 571 L474 571 L604 136 L705 571 L826 571 L670 0 Z M463 630 L371 630 L441 814 L564 814 L463 630 Z " />
<glyph glyph-name="Wdieresis" unicode="&#x1e84;" horiz-adv-x="1047" d="M226 0 L21 774 L151 774 L302 172 L458 774 L590 774 L754 166 L896 774 L1026 774 L829 0 L688 0 L524 618 L367 0 L226 0 Z M482 829 L364 829 L364 946 L482 946 L482 829 Z M682 829 L563 829 L563 946 L682 946 L682 829 Z " />
<glyph glyph-name="wdieresis" unicode="&#x1e85;" horiz-adv-x="835" d="M670 0 L539 0 L419 424 L303 0 L168 0 L9 571 L139 571 L244 139 L367 571 L474 571 L604 136 L705 571 L826 571 L670 0 Z M377 659 L259 659 L259 776 L377 776 L377 659 Z M575 659 L456 659 L456 776 L575 776 L575 659 Z " />
<glyph glyph-name="uni1E9E" unicode="&#x1e9e;" horiz-adv-x="788" d="M362 339 L324 412 L550 665 L431 665 Q301 665 247 603 Q193 541 193 391 L193 0 L61 0 L61 400 Q61 587 152 680.5 Q243 774 425 774 L688 774 L688 670 L476 428 Q610 426 686 370 Q762 314 762 216 Q762 111 691 49 Q620 -13 503 -13 Q434 -13 375.5 3 Q317 19 275 49 L326 154 Q358 129 403.5 115 Q449 101 498 101 Q561 101 597 133 Q633 165 633 220 Q633 287 584.5 319 Q536 351 435 351 Q413 351 395 348 Q377 345 362 339 Z " />
<glyph glyph-name="Ygrave" unicode="&#x1ef2;" horiz-adv-x="651" d="M521 774 L650 774 L397 310 L397 0 L265 0 L265 312 L0 774 L139 774 L333 425 L521 774 Z M336 975 L387 828 L285 828 L213 975 L336 975 Z " />
<glyph glyph-name="ygrave" unicode="&#x1ef3;" horiz-adv-x="581" d="M572 571 L370 22 Q324 -103 271.5 -150 Q219 -197 126 -197 Q85 -197 43.5 -189.5 Q2 -182 -24 -169 L8 -61 Q38 -74 66 -80 Q94 -86 123 -86 Q152 -86 174 -75 Q196 -64 212 -40 Q218 -32 222.5 -24.5 Q227 -17 230 -9 L6 571 L139 571 L297 132 L443 571 L572 571 Z M265 814 L335 630 L243 630 L142 814 L265 814 Z " />
<glyph glyph-name="uni200B" unicode="&#x200b;" d="" />
<glyph glyph-name="figuredash" unicode="&#x2012;" horiz-adv-x="628" d="M578 286 L50 286 L50 370 L578 370 L578 286 Z " />
<glyph glyph-name="endash" unicode="&#x2013;" horiz-adv-x="762" d="M703 286 L59 286 L59 370 L703 370 L703 286 Z " />
<glyph glyph-name="emdash" unicode="&#x2014;" horiz-adv-x="942" d="M883 286 L59 286 L59 370 L883 370 L883 286 Z " />
<glyph glyph-name="uni2015" unicode="&#x2015;" horiz-adv-x="735" d="M676 286 L59 286 L59 370 L676 370 L676 286 Z " />
<glyph glyph-name="uni2016" unicode="&#x2016;" horiz-adv-x="444" d="M64 -231 L64 815 L170 815 L170 -231 L64 -231 Z M274 -231 L274 815 L380 815 L380 -231 L274 -231 Z " />
<glyph glyph-name="underscoredbl" unicode="&#x2017;" horiz-adv-x="551" d="M492 -103 L58 -103 L58 -37 L492 -37 L492 -103 Z M492 -205 L58 -205 L58 -139 L492 -139 L492 -205 Z " />
<glyph glyph-name="quoteleft" unicode="&#x2018;" horiz-adv-x="193" d="M102 643 L163 643 L163 504 L30 504 L30 641 Q30 713 61.5 745.5 Q93 778 165 781 L180 717 Q132 716 117 704 Q102 692 102 656 L102 643 Z " />
<glyph glyph-name="quoteright" unicode="&#x2019;" horiz-adv-x="193" d="M91 635 L30 635 L30 774 L163 774 L163 638 Q163 566 132 533.5 Q101 501 28 497 L13 561 Q61 563 76 574.5 Q91 586 91 622 L91 635 Z " />
<glyph glyph-name="quotesinglbase" unicode="&#x201a;" horiz-adv-x="193" d="M91 0 L30 0 L30 139 L163 139 L163 3 Q163 -69 132 -101.5 Q101 -134 28 -138 L13 -74 Q61 -72 76 -60.5 Q91 -49 91 -13 L91 0 Z " />
<glyph glyph-name="quotedblleft" unicode="&#x201c;" horiz-adv-x="371" d="M102 643 L163 643 L163 504 L30 504 L30 641 Q30 713 61.5 745.5 Q93 778 165 781 L180 717 Q132 716 117 704 Q102 692 102 656 L102 643 Z M280 643 L341 643 L341 504 L208 504 L208 641 Q208 713 239.5 745.5 Q271 778 343 781 L358 717 Q310 716 295 704 Q280 692 280 656 L280 643 Z " />
<glyph glyph-name="quotedblright" unicode="&#x201d;" horiz-adv-x="371" d="M91 635 L30 635 L30 774 L163 774 L163 638 Q163 566 132 533.5 Q101 501 28 497 L13 561 Q61 563 76 574.5 Q91 586 91 622 L91 635 Z M269 635 L208 635 L208 774 L341 774 L341 638 Q341 566 310 533.5 Q279 501 206 497 L191 561 Q239 563 254 574.5 Q269 586 269 622 L269 635 Z " />
<glyph glyph-name="quotedblbase" unicode="&#x201e;" horiz-adv-x="371" d="M91 0 L30 0 L30 139 L163 139 L163 3 Q163 -69 132 -101.5 Q101 -134 28 -138 L13 -74 Q61 -72 76 -60.5 Q91 -49 91 -13 L91 0 Z M269 0 L208 0 L208 139 L341 139 L341 3 Q341 -69 310 -101.5 Q279 -134 206 -138 L191 -74 Q239 -72 254 -60.5 Q269 -49 269 -13 L269 0 Z " />
<glyph glyph-name="dagger" unicode="&#x2020;" horiz-adv-x="466" d="M178 529 L42 529 L42 618 L178 618 L178 774 L282 774 L282 618 L424 618 L424 529 L282 529 L282 160 L178 160 L178 529 Z " />
<glyph glyph-name="daggerdbl" unicode="&#x2021;" horiz-adv-x="466" d="M178 316 L42 316 L42 403 L180 403 L180 531 L42 531 L42 618 L178 618 L178 774 L282 774 L282 618 L424 618 L424 531 L280 531 L280 403 L424 403 L424 316 L282 316 L282 160 L178 160 L178 316 Z " />
<glyph glyph-name="bullet" unicode="&#x2022;" horiz-adv-x="333" d="M259 313 Q259 274 232.5 247.5 Q206 221 167 221 Q129 221 101.5 248 Q74 275 74 313 Q74 352 101 379 Q128 406 167 406 Q206 406 232.5 379.5 Q259 353 259 313 Z " />
<glyph glyph-name="ellipsis" unicode="&#x2026;" horiz-adv-x="640" d="M165 0 L32 0 L32 139 L165 139 L165 0 Z M608 0 L474 0 L474 139 L608 139 L608 0 Z M386 0 L253 0 L253 139 L386 139 L386 0 Z " />
<glyph glyph-name="perthousand" unicode="&#x2030;" horiz-adv-x="1383" d="M254 386 Q175 386 126 438.5 Q77 491 77 580 Q77 672 126.5 727.5 Q176 783 255 783 Q333 783 383 728 Q433 673 433 582 Q433 495 382.5 440.5 Q332 386 254 386 Z M706 774 L817 774 L258 0 L143 0 L706 774 Z M255 704 Q215 704 192 672 Q169 640 169 582 Q169 528 192 496.5 Q215 465 254 465 Q295 465 317 495.5 Q339 526 339 582 Q339 640 317 672 Q295 704 255 704 Z M714 -8 Q634 -8 585.5 44 Q537 96 537 185 Q537 277 586.5 332.5 Q636 388 715 388 Q794 388 843.5 333 Q893 278 893 187 Q893 100 842.5 46 Q792 -8 714 -8 Z M1128 -8 Q1048 -8 999.5 44 Q951 96 951 185 Q951 277 1000.5 332.5 Q1050 388 1129 388 Q1208 388 1257 333 Q1306 278 1306 187 Q1306 100 1256 46 Q1206 -8 1128 -8 Z M714 71 Q755 71 777 101.5 Q799 132 799 187 Q799 245 777 277 Q755 309 715 309 Q675 309 652 276.5 Q629 244 629 187 Q629 133 652 102 Q675 71 714 71 Z M1128 71 Q1169 71 1191 101.5 Q1213 132 1213 187 Q1213 244 1190.5 276.5 Q1168 309 1129 309 Q1089 309 1066 276.5 Q1043 244 1043 187 Q1043 133 1065.5 102 Q1088 71 1128 71 Z " />
<glyph glyph-name="uni2032" unicode="&#x2032;" horiz-adv-x="243" d="M49 489 L95 774 L204 774 L119 489 L49 489 Z " />
<glyph glyph-name="uni2033" unicode="&#x2033;" horiz-adv-x="411" d="M49 489 L95 774 L204 774 L119 489 L49 489 Z M217 489 L264 774 L372 774 L288 489 L217 489 Z " />
<glyph glyph-name="uni2034" unicode="&#x2034;" horiz-adv-x="595" d="M90 503 L70 774 L179 774 L161 503 L90 503 Z M263 503 L243 774 L352 774 L334 503 L263 503 Z M435 503 L415 774 L524 774 L506 503 L435 503 Z " />
<glyph glyph-name="guilsinglleft" unicode="&#x2039;" horiz-adv-x="256" d="M140 500 L253 500 L114 296 L255 85 L141 85 L1 292 L140 500 Z " />
<glyph glyph-name="guilsinglright" unicode="&#x203a;" horiz-adv-x="256" d="M114 500 L255 292 L115 85 L2 85 L141 289 L1 500 L114 500 Z " />
<glyph glyph-name="exclamdbl" unicode="&#x203c;" horiz-adv-x="567" d="M76 539 L76 774 L208 774 L208 539 L178 207 L106 207 L76 539 Z M208 0 L75 0 L75 139 L208 139 L208 0 Z M360 539 L360 774 L492 774 L492 539 L462 207 L390 207 L360 539 Z M492 0 L359 0 L359 139 L492 139 L492 0 Z " />
<glyph glyph-name="uni203D" unicode="&#x203d;" horiz-adv-x="555" d="M352 313 Q335 295 328 276 Q321 257 321 227 L321 204 L229 204 L220 671 Q177 657 151.5 618.5 Q126 580 115 511 L-1 532 Q20 656 95 721.5 Q170 787 290 787 Q404 787 475 728 Q546 669 546 573 Q546 514 520 469.5 Q494 425 426 373 Q395 349 376.5 334 Q358 319 352 313 Z M338 415 Q392 466 406.5 493.5 Q421 521 421 560 Q421 607 394.5 638 Q368 669 321 677 L308 387 Q313 393 320.5 399.5 Q328 406 338 415 Z M341 0 L208 0 L208 139 L341 139 L341 0 Z " />
<glyph glyph-name="fraction" unicode="&#x2044;" horiz-adv-x="234" d="M344 774 L455 774 L-105 0 L-220 0 L344 774 Z " />
<glyph glyph-name="uni2070" unicode="&#x2070;" horiz-adv-x="378" d="M188 459 Q108 459 65.5 510.5 Q23 562 23 660 Q23 754 69 807.5 Q115 861 193 861 Q269 861 312.5 808 Q356 755 356 661 Q356 566 311 512.5 Q266 459 188 459 Z M189 532 Q228 532 247.5 563.5 Q267 595 267 658 Q267 722 247.5 755 Q228 788 191 788 Q152 788 132 755.5 Q112 723 112 658 Q112 597 132 564.5 Q152 532 189 532 Z " />
<glyph glyph-name="uni2074" unicode="&#x2074;" horiz-adv-x="347" d="M338 613 L338 544 L277 544 L277 467 L189 467 L189 544 L15 544 L15 620 L193 853 L277 853 L277 613 L338 613 Z M195 763 L84 613 L195 613 L195 763 Z " />
<glyph glyph-name="uni2075" unicode="&#x2075;" horiz-adv-x="349" d="M212 735 Q267 735 299.5 700.5 Q332 666 332 608 Q332 540 290.5 500 Q249 460 178 460 Q112 460 70.5 492 Q29 524 18 584 L102 604 Q108 568 126 551 Q144 534 176 534 Q208 534 225.5 553.5 Q243 573 243 608 Q243 644 226.5 663.5 Q210 683 179 683 Q156 683 138.5 672.5 Q121 662 110 642 L36 649 L67 853 L307 853 L307 781 L132 781 L118 694 L119 694 Q138 714 161.5 724.5 Q185 735 212 735 Z " />
<glyph glyph-name="uni2076" unicode="&#x2076;" horiz-adv-x="357" d="M190 460 Q108 460 64 510 Q20 560 20 652 Q20 748 69.5 803.5 Q119 859 204 859 Q249 859 284.5 840.5 Q320 822 342 787 L265 743 Q254 763 238.5 772 Q223 781 200 781 Q156 781 132.5 747.5 Q109 714 109 651 L110 651 Q126 682 154.5 699 Q183 716 221 716 Q275 716 308 683.5 Q341 651 341 597 Q341 536 299 498 Q257 460 190 460 Z M190 661 Q159 661 140 643 Q121 625 121 596 Q121 568 140 550.5 Q159 533 189 533 Q219 533 236.5 551 Q254 569 254 599 Q254 628 237 644.5 Q220 661 190 661 Z " />
<glyph glyph-name="uni2077" unicode="&#x2077;" horiz-adv-x="303" d="M192 491 L192 467 L99 467 L99 491 Q99 591 126.5 662 Q154 733 209 776 L10 776 L10 853 L297 853 L297 802 Q240 766 216 701 Q192 636 192 491 Z " />
<glyph glyph-name="uni2078" unicode="&#x2078;" horiz-adv-x="369" d="M348 576 Q348 523 303 491.5 Q258 460 183 460 Q108 460 65 489.5 Q22 519 22 572 Q22 607 43.5 631.5 Q65 656 106 668 L106 670 Q75 681 58.5 702.5 Q42 724 42 753 Q42 801 81 829.5 Q120 858 185 858 Q251 858 289.5 830.5 Q328 803 328 756 Q328 727 311 704.5 Q294 682 263 670 L263 669 Q305 658 326.5 634 Q348 610 348 576 Z M247 741 Q247 764 230 777 Q213 790 185 790 Q157 790 140 776.5 Q123 763 123 739 Q123 715 140 701.5 Q157 688 186 688 Q214 688 230.5 702 Q247 716 247 741 Z M110 585 Q110 559 130.5 544 Q151 529 187 529 Q221 529 240 544.5 Q259 560 259 588 Q259 613 239 627.5 Q219 642 185 642 Q151 642 130.5 626.5 Q110 611 110 585 Z " />
<glyph glyph-name="uni2079" unicode="&#x2079;" horiz-adv-x="360" d="M169 860 Q248 860 292.5 808.5 Q337 757 337 669 Q337 571 291 515.5 Q245 460 163 460 Q111 460 70.5 480 Q30 500 12 535 L88 578 Q99 558 117.5 547.5 Q136 537 162 537 Q205 537 226.5 570 Q248 603 248 669 L246 669 Q231 639 203.5 623 Q176 607 139 607 Q84 607 50.5 639.5 Q17 672 17 726 Q17 786 58.5 823 Q100 860 169 860 Z M170 661 Q199 661 218 678.5 Q237 696 237 724 Q237 753 219.5 770.5 Q202 788 170 788 Q140 788 122 771 Q104 754 104 724 Q104 694 121.5 677.5 Q139 661 170 661 Z " />
<glyph glyph-name="uni207A" unicode="&#x207a;" horiz-adv-x="264" d="M103 608 L31 608 L31 666 L103 666 L103 737 L162 737 L162 666 L232 666 L232 608 L162 608 L162 536 L103 536 L103 608 Z " />
<glyph glyph-name="uni207B" unicode="&#x207b;" horiz-adv-x="264" d="M232 608 L31 608 L31 666 L232 666 L232 608 Z " />
<glyph glyph-name="uni207C" unicode="&#x207c;" horiz-adv-x="264" d="M232 652 L31 652 L31 710 L232 710 L232 652 Z M232 557 L31 557 L31 614 L232 614 L232 557 Z " />
<glyph glyph-name="uni207D" unicode="&#x207d;" horiz-adv-x="190" d="M14 638 Q14 722 46 798.5 Q78 875 128 920 L195 920 Q144 857 120 788 Q96 719 96 638 Q96 557 120 488 Q144 419 195 354 L128 354 Q78 400 46 477 Q14 554 14 638 Z " />
<glyph glyph-name="uni207E" unicode="&#x207e;" horiz-adv-x="189" d="M175 636 Q175 550 143 473.5 Q111 397 61 354 L-5 354 Q46 419 70 487 Q94 555 94 636 Q94 716 70 785 Q46 854 -5 920 L61 920 Q112 873 143.5 797 Q175 721 175 636 Z " />
<glyph glyph-name="uni2080" unicode="&#x2080;" horiz-adv-x="378" d="M188 -88 Q108 -88 65.5 -36.5 Q23 15 23 113 Q23 207 69 260.5 Q115 314 193 314 Q269 314 312.5 261 Q356 208 356 114 Q356 19 311 -34.5 Q266 -88 188 -88 Z M189 -15 Q228 -15 247.5 16.5 Q267 48 267 111 Q267 175 247.5 208 Q228 241 191 241 Q152 241 132 208.5 Q112 176 112 111 Q112 50 132 17.5 Q152 -15 189 -15 Z " />
<glyph glyph-name="uni2081" unicode="&#x2081;" horiz-adv-x="219" d="M6 194 L6 259 L69 259 Q92 259 99 264.5 Q106 270 107 289 L108 306 L177 306 L177 -80 L89 -80 L89 194 L6 194 Z " />
<glyph glyph-name="uni2082" unicode="&#x2082;" horiz-adv-x="350" d="M234 180 Q234 207 219.5 221.5 Q205 236 179 236 Q146 236 129 211.5 Q112 187 113 141 L30 155 Q31 228 72 270 Q113 312 184 312 Q248 312 285.5 278.5 Q323 245 323 188 Q323 145 299.5 110 Q276 75 219 32 L162 -10 L330 -10 L330 -80 L28 -80 L28 -24 L151 65 Q196 99 215 125.5 Q234 152 234 180 Z " />
<glyph glyph-name="uni2083" unicode="&#x2083;" horiz-adv-x="332" d="M219 197 Q219 218 206.5 229 Q194 240 170 240 Q142 240 126 224.5 Q110 209 106 178 L28 194 Q40 250 79.5 281 Q119 312 178 312 Q236 312 271 285 Q306 258 306 213 Q306 182 289 159.5 Q272 137 240 124 L240 123 Q281 113 301 90 Q321 67 321 30 Q321 -23 281.5 -55 Q242 -87 176 -87 Q107 -87 65 -54.5 Q23 -22 15 38 L96 56 Q101 20 120.5 2 Q140 -16 174 -16 Q204 -16 219.5 -2 Q235 12 235 38 Q235 63 217.5 74.5 Q200 86 162 86 L113 86 L113 150 L157 150 Q188 150 203.5 162 Q219 174 219 197 Z " />
<glyph glyph-name="uni2084" unicode="&#x2084;" horiz-adv-x="347" d="M338 66 L338 -3 L277 -3 L277 -80 L189 -80 L189 -3 L15 -3 L15 73 L193 306 L277 306 L277 66 L338 66 Z M195 216 L84 66 L195 66 L195 216 Z " />
<glyph glyph-name="uni2085" unicode="&#x2085;" horiz-adv-x="349" d="M212 188 Q267 188 299.5 153.5 Q332 119 332 61 Q332 -7 290.5 -47 Q249 -87 178 -87 Q112 -87 70.5 -55 Q29 -23 18 37 L102 57 Q108 21 126 4 Q144 -13 176 -13 Q208 -13 225.5 6.5 Q243 26 243 61 Q243 97 226.5 116.5 Q210 136 179 136 Q156 136 138.5 125.5 Q121 115 110 95 L36 102 L67 306 L307 306 L307 234 L132 234 L118 147 L119 147 Q138 167 161.5 177.5 Q185 188 212 188 Z " />
<glyph glyph-name="uni2086" unicode="&#x2086;" horiz-adv-x="356" d="M190 -87 Q108 -87 64 -37 Q20 13 20 105 Q20 201 69.5 256.5 Q119 312 204 312 Q249 312 284.5 293.5 Q320 275 342 240 L265 196 Q254 216 238.5 225 Q223 234 200 234 Q156 234 132.5 200.5 Q109 167 109 104 L110 104 Q126 135 154.5 152 Q183 169 221 169 Q275 169 308 136.5 Q341 104 341 50 Q341 -11 299 -49 Q257 -87 190 -87 Z M190 114 Q159 114 140 96 Q121 78 121 49 Q121 21 140 3.5 Q159 -14 189 -14 Q219 -14 236.5 4 Q254 22 254 52 Q254 81 237 97.5 Q220 114 190 114 Z " />
<glyph glyph-name="uni2087" unicode="&#x2087;" horiz-adv-x="303" d="M192 -56 L192 -80 L99 -80 L99 -56 Q99 44 126.5 115 Q154 186 209 229 L10 229 L10 306 L297 306 L297 255 Q240 219 216 154 Q192 89 192 -56 Z " />
<glyph glyph-name="uni2088" unicode="&#x2088;" horiz-adv-x="368" d="M348 29 Q348 -24 303 -55.5 Q258 -87 183 -87 Q108 -87 65 -57.5 Q22 -28 22 25 Q22 60 43.5 84.5 Q65 109 106 121 L106 123 Q75 134 58.5 155.5 Q42 177 42 206 Q42 254 81 282.5 Q120 311 185 311 Q251 311 289.5 283.5 Q328 256 328 209 Q328 180 311 157.5 Q294 135 263 123 L263 122 Q305 111 326.5 87 Q348 63 348 29 Z M247 194 Q247 217 230 230 Q213 243 185 243 Q157 243 140 229.5 Q123 216 123 192 Q123 168 140 154.5 Q157 141 186 141 Q214 141 230.5 155 Q247 169 247 194 Z M110 38 Q110 12 130.5 -3 Q151 -18 187 -18 Q221 -18 240 -2.5 Q259 13 259 41 Q259 66 239 80.5 Q219 95 185 95 Q151 95 130.5 79.5 Q110 64 110 38 Z " />
<glyph glyph-name="uni2089" unicode="&#x2089;" horiz-adv-x="360" d="M169 313 Q248 313 292.5 261.5 Q337 210 337 122 Q337 24 291 -31.5 Q245 -87 163 -87 Q111 -87 70.5 -67 Q30 -47 12 -12 L88 31 Q99 11 117.5 0.5 Q136 -10 162 -10 Q205 -10 226.5 23 Q248 56 248 122 L246 122 Q231 92 203.5 76 Q176 60 139 60 Q84 60 50.5 92.5 Q17 125 17 179 Q17 239 58.5 276 Q100 313 169 313 Z M170 114 Q199 114 218 131.5 Q237 149 237 177 Q237 206 219.5 223.5 Q202 241 170 241 Q140 241 122 224 Q104 207 104 177 Q104 147 121.5 130.5 Q139 114 170 114 Z " />
<glyph glyph-name="uni208A" unicode="&#x208a;" horiz-adv-x="264" d="M103 94 L31 94 L31 152 L103 152 L103 223 L162 223 L162 152 L232 152 L232 94 L162 94 L162 22 L103 22 L103 94 Z " />
<glyph glyph-name="uni208B" unicode="&#x208b;" horiz-adv-x="264" d="M232 94 L31 94 L31 152 L232 152 L232 94 Z " />
<glyph glyph-name="uni208C" unicode="&#x208c;" horiz-adv-x="264" d="M232 138 L31 138 L31 196 L232 196 L232 138 Z M232 43 L31 43 L31 100 L232 100 L232 43 Z " />
<glyph glyph-name="uni208D" unicode="&#x208d;" horiz-adv-x="190" d="M14 124 Q14 208 46 284.5 Q78 361 128 406 L195 406 Q144 343 120 274 Q96 205 96 124 Q96 43 120 -26 Q144 -95 195 -160 L128 -160 Q78 -114 46 -37 Q14 40 14 124 Z " />
<glyph glyph-name="uni208E" unicode="&#x208e;" horiz-adv-x="189" d="M175 122 Q175 36 143 -40.5 Q111 -117 61 -160 L-5 -160 Q46 -95 70 -27 Q94 41 94 122 Q94 202 70 271 Q46 340 -5 406 L61 406 Q112 359 143.5 283 Q175 207 175 122 Z " />
<glyph glyph-name="uni20A1" unicode="&#x20a1;" horiz-adv-x="785" d="M140 -53 L71 -18 L134 104 Q90 155 66.5 225 Q43 295 43 377 Q43 562 145 675 Q247 788 411 788 Q433 788 454 785.5 Q475 783 494 779 L542 871 L611 837 L568 753 Q584 746 599 737 Q614 728 628 717 L676 810 L745 775 L395 104 Q398 103 401.5 103 Q405 103 412 103 Q496 103 550 147.5 Q604 192 635 287 L755 256 Q719 125 630 55.5 Q541 -14 409 -14 Q389 -14 369 -12 Q349 -10 329 -6 L273 -114 L205 -79 L254 16 Q239 22 223.5 31 Q208 40 193 50 L140 -53 Z M412 670 Q303 670 240 592.5 Q177 515 177 380 Q177 337 185 298.5 Q193 260 208 228 L437 669 Q433 670 427.5 670 Q422 670 412 670 Z M514 650 L260 160 Q272 148 286.5 138 Q301 128 318 121 L574 614 Q558 626 543.5 635 Q529 644 514 650 Z " />
<glyph glyph-name="uni20A2" unicode="&#x20a2;" horiz-adv-x="775" d="M404 -13 Q237 -13 140 91.5 Q43 196 43 378 Q43 565 144.5 676 Q246 787 416 787 Q546 787 629.5 718.5 Q713 650 744 517 L613 491 Q596 579 545.5 624.5 Q495 670 414 670 Q302 670 240 593.5 Q178 517 178 378 Q178 279 213 211 Q248 143 313 116 L313 442 L425 442 L425 306 L427 306 Q449 384 487.5 419 Q526 454 586 454 Q599 454 610 452.5 Q621 451 633 448 L633 344 Q610 348 597 349.5 Q584 351 570 351 Q531 351 504 335.5 Q477 320 460 289 Q443 262 435 217 Q427 172 427 99 Q503 104 550.5 147 Q598 190 621 275 L748 244 Q718 121 628.5 54 Q539 -13 404 -13 Z " />
<glyph glyph-name="franc" unicode="&#x20a3;" horiz-adv-x="651" d="M96 166 L-14 166 L-14 254 L96 254 L96 774 L608 774 L608 665 L228 665 L228 504 L564 504 L564 397 L228 397 L228 254 L514 254 L514 166 L228 166 L228 0 L96 0 L96 166 Z " />
<glyph glyph-name="lira" unicode="&#x20a4;" horiz-adv-x="734" d="M208 252 L34 252 L34 328 L172 328 Q170 332 168 336.5 Q166 341 162 350 Q158 358 156 362.5 Q154 367 152 371 L34 371 L34 448 L116 448 Q111 468 108 488.5 Q105 509 105 528 Q105 645 182 716 Q259 787 386 787 Q511 787 584 716.5 Q657 646 666 516 L531 495 Q525 579 488.5 620.5 Q452 662 384 662 Q314 662 275.5 623 Q237 584 237 513 Q237 497 239 481.5 Q241 466 245 448 L552 448 L552 371 L267 371 Q273 354 276.5 345 Q280 336 283 328 L552 328 L552 252 L315 252 Q320 233 322.5 215.5 Q325 198 325 180 L325 164 Q385 125 421 112.5 Q457 100 495 100 Q546 100 566.5 125 Q587 150 586 206 L586 231 L696 231 Q699 211 700.5 194 Q702 177 702 166 Q702 81 655 34.5 Q608 -12 524 -12 Q470 -12 422 7.5 Q374 27 305 85 Q284 42 246.5 18 Q209 -6 162 -6 Q104 -6 70 23.5 Q36 53 36 102 Q36 155 74.5 188 Q113 221 175 221 Q188 221 200 219.5 Q212 218 223 215 Q220 223 216.5 232 Q213 241 208 252 Z M169 155 Q143 155 128.5 142.5 Q114 130 114 108 Q114 87 127 75.5 Q140 64 163 64 Q192 64 209 83.5 Q226 103 230 139 Q215 147 199.5 151 Q184 155 169 155 Z " />
<glyph glyph-name="uni20A6" unicode="&#x20a6;" horiz-adv-x="801" d="M89 351 L-12 351 L-12 439 L89 439 L89 774 L250 774 L451 435 L592 435 L592 774 L712 774 L712 439 L822 439 L822 351 L712 351 L712 0 L574 0 L361 355 L209 355 L209 0 L89 0 L89 351 Z M313 435 L209 608 L209 435 L313 435 Z M499 355 L592 197 L592 355 L499 355 Z " />
<glyph glyph-name="peseta" unicode="&#x20a7;" horiz-adv-x="724" d="M89 492 L-12 492 L-12 579 L89 579 L89 774 L375 774 Q504 774 577 724.5 Q650 675 660 579 L744 579 L744 492 L658 492 Q641 396 566.5 346 Q492 296 365 296 L221 296 L221 0 L89 0 L89 492 Z M368 667 L221 667 L221 576 L524 576 Q514 622 475 644.5 Q436 667 368 667 Z M221 401 L361 401 Q434 401 473 424 Q512 447 523 496 L221 496 L221 401 Z " />
<glyph glyph-name="uni20A8" unicode="&#x20a8;" horiz-adv-x="914" d="M351 157 Q342 257 327.5 278 Q313 299 273 299 L197 299 L197 0 L81 0 L81 774 L297 774 Q397 774 449.5 720 Q502 666 502 563 Q502 482 466 426 Q430 370 366 353 L366 351 Q414 338 435.5 303 Q457 268 467 187 Q476 121 484.5 77 Q493 33 502 5 L502 0 L375 0 Q367 32 361.5 68 Q356 104 351 157 Z M384 543 Q384 609 357 639.5 Q330 670 271 670 L197 670 L197 397 L277 397 Q331 397 357.5 433 Q384 469 384 543 Z M703 80 Q731 80 748.5 102 Q766 124 766 159 Q766 183 754 199 Q742 215 714 226 Q702 231 672.5 240 Q643 249 627 255 Q580 274 557 311 Q534 348 534 405 Q534 486 581.5 534.5 Q629 583 707 583 Q781 583 822.5 539 Q864 495 867 410 L771 389 Q770 441 753.5 466.5 Q737 492 703 492 Q673 492 655.5 471.5 Q638 451 638 415 Q638 390 650 373.5 Q662 357 692 346 Q703 342 733.5 332.5 Q764 323 782 315 Q829 296 850.5 261.5 Q872 227 872 172 Q872 88 826 38 Q780 -12 702 -12 Q615 -12 566.5 33.5 Q518 79 512 165 L615 189 Q616 134 638 107 Q660 80 703 80 Z " />
<glyph glyph-name="uni20A9" unicode="&#x20a9;" horiz-adv-x="1078" d="M195 238 L28 238 L28 326 L173 326 L149 419 L28 419 L28 506 L126 506 L58 774 L188 774 L333 178 L477 774 L608 774 L761 172 L896 774 L1026 774 L960 506 L1051 506 L1051 419 L939 419 L916 326 L1051 326 L1051 238 L894 238 L836 0 L694 0 L542 612 L398 0 L256 0 L195 238 Z " />
<glyph glyph-name="uni20AA" unicode="&#x20aa;" horiz-adv-x="873" d="M78 0 L78 774 L412 774 Q497 774 539.5 728.5 Q582 683 582 593 L582 167 L484 167 L484 675 L195 675 L195 0 L78 0 Z M795 774 L795 0 L461 0 Q376 0 333 46 Q290 92 290 181 L290 607 L388 607 L388 99 L678 99 L678 774 L795 774 Z " />
<glyph glyph-name="Euro" unicode="&#x20ac;" horiz-adv-x="793" d="M104 258 L10 258 L10 339 L96 339 Q95 346 95 354 Q95 362 95 378 L95 405 L10 405 L10 487 L103 487 Q132 628 221.5 707.5 Q311 787 443 787 Q568 787 650.5 713 Q733 639 759 502 L628 475 Q610 572 562.5 621 Q515 670 440 670 Q358 670 307.5 624 Q257 578 237 487 L490 487 L475 405 L225 405 Q224 401 224 396 Q224 391 224 379 Q224 373 224.5 366 Q225 359 226 339 L463 339 L448 258 L242 258 Q263 183 313 143.5 Q363 104 437 104 Q513 104 560.5 148 Q608 192 634 287 L761 256 Q729 126 644.5 56.5 Q560 -13 434 -13 Q301 -13 216.5 56.5 Q132 126 104 258 Z " />
<glyph glyph-name="uni20AE" unicode="&#x20ae;" horiz-adv-x="672" d="M116 172 L96 239 L271 303 L271 374 L119 318 L98 385 L271 447 L271 665 L18 665 L18 774 L655 774 L655 665 L403 665 L403 489 L555 544 L575 478 L403 415 L403 344 L552 398 L573 332 L403 270 L403 0 L271 0 L271 228 L116 172 Z " />
<glyph glyph-name="uni20B1" unicode="&#x20b1;" horiz-adv-x="724" d="M89 421 L-12 421 L-12 502 L89 502 L89 549 L-12 549 L-12 631 L89 631 L89 774 L377 774 Q483 774 551.5 737.5 Q620 701 646 631 L744 631 L744 549 L662 549 L662 532 Q662 520 662 513.5 Q662 507 661 502 L744 502 L744 421 L641 421 Q611 351 542 315 Q473 279 368 279 L221 279 L221 0 L89 0 L89 421 Z M368 667 L221 667 L221 625 L500 625 Q480 646 447 656.5 Q414 667 368 667 Z M532 531 Q532 539 532 543 Q532 547 531 551 L221 551 L221 500 L530 500 Q531 508 531.5 514 Q532 520 532 531 Z M221 380 L361 380 Q412 380 446.5 391.5 Q481 403 501 426 L221 426 L221 380 Z " />
<glyph glyph-name="uni20B9" unicode="&#x20b9;" horiz-adv-x="688" d="M659 585 L659 497 L550 497 Q534 439 482.5 400.5 Q431 362 355 351 L355 349 Q384 346 404.5 337 Q425 328 444 312 Q462 297 475 268.5 Q488 240 500 187 Q515 126 527 85.5 Q539 45 558 5 L558 0 L416 0 Q409 15 402.5 39 Q396 63 376 156 Q366 206 360 227.5 Q354 249 346 262 Q333 285 308.5 294.5 Q284 304 235 304 L35 304 L35 392 L241 392 Q318 392 362 418 Q406 444 418 497 L35 497 L35 585 L417 585 Q404 635 361.5 660.5 Q319 686 248 686 L35 686 L35 774 L659 774 L659 686 L442 686 L442 683 Q486 668 513.5 643.5 Q541 619 551 585 L659 585 Z " />
<glyph glyph-name="uni2113" unicode="&#x2113;" horiz-adv-x="445" d="M433 124 L466 32 Q439 11 396.5 -1.5 Q354 -14 313 -14 Q222 -14 166 39.5 Q110 93 86 203 Q64 191 44 182 Q24 173 4 165 L-23 240 Q0 251 21 262 Q42 273 73 290 Q70 319 69 347.5 Q68 376 68 404 Q68 590 124 687.5 Q180 785 286 785 Q357 785 395 740 Q433 695 433 613 Q433 517 377.5 431 Q322 345 207 263 Q219 177 250 137 Q281 97 336 97 Q360 97 384 103.5 Q408 110 433 124 Z M287 684 Q246 684 222.5 609 Q199 534 199 400 Q199 383 199 374 Q199 365 200 358 Q269 415 301.5 476 Q334 537 334 609 Q334 647 322.5 665.5 Q311 684 287 684 Z " />
<glyph glyph-name="uni2116" unicode="&#x2116;" horiz-adv-x="1210" d="M581 774 L701 774 L701 0 L563 0 L198 608 L198 0 L78 0 L78 774 L239 774 L581 197 L581 774 Z M993 378 Q904 378 852.5 432 Q801 486 801 580 Q802 672 855 727.5 Q908 783 995 783 Q1082 783 1134 728.5 Q1186 674 1186 582 Q1186 486 1134 432 Q1082 378 993 378 Z M994 461 Q1038 461 1061 491.5 Q1084 522 1084 581 Q1084 638 1060.5 669.5 Q1037 701 995 701 Q952 701 928 669.5 Q904 638 904 581 Q904 524 927.5 492.5 Q951 461 994 461 Z M1192 248 L795 248 L795 322 L1192 322 L1192 248 Z " />
<glyph glyph-name="uni2117" unicode="&#x2117;" horiz-adv-x="878" d="M439 -16 Q266 -16 157 97 Q48 210 48 384 Q48 558 158.5 672 Q269 786 444 786 Q615 786 722.5 672 Q830 558 830 384 Q830 210 721 97 Q612 -16 439 -16 Z M444 723 Q294 723 206 631 Q118 539 118 384 Q118 235 207.5 141 Q297 47 440 47 Q585 47 672.5 139.5 Q760 232 760 384 Q760 538 674.5 630.5 Q589 723 444 723 Z M299 165 L299 613 L477 613 Q557 613 601.5 576 Q646 539 646 473 Q646 403 600 365 Q554 327 469 327 L395 327 L395 165 L299 165 Z M550 469 Q550 502 528.5 519 Q507 536 465 536 L395 536 L395 401 L466 401 Q509 401 529.5 418 Q550 435 550 469 Z " />
<glyph glyph-name="uni2120" unicode="&#x2120;" horiz-adv-x="857" d="M310 580 Q332 567 343 546 Q354 525 354 495 Q354 434 311 398.5 Q268 363 195 363 Q123 363 76 393 Q29 423 14 479 L98 503 Q107 471 132.5 453 Q158 435 196 435 Q229 435 247 448 Q265 461 265 485 Q265 502 255.5 511.5 Q246 521 222 527 Q211 530 187.5 534 Q164 538 156 540 Q92 551 64 578 Q36 605 36 653 Q36 710 78.5 746 Q121 782 188 782 Q253 782 295 752.5 Q337 723 351 667 L268 648 Q261 679 241 695 Q221 711 189 711 Q158 711 140.5 697 Q123 683 123 659 Q123 638 138.5 627.5 Q154 617 214 607 Q256 600 276 594.5 Q296 589 310 580 Z M396 371 L396 774 L506 774 L611 476 L715 774 L819 774 L819 371 L737 371 L737 660 L645 371 L573 371 L476 659 L476 371 L396 371 Z " />
<glyph glyph-name="trademark" unicode="&#x2122;" horiz-adv-x="853" d="M136 700 L14 700 L14 774 L353 774 L353 700 L230 700 L230 371 L136 371 L136 700 Z M392 371 L392 774 L503 774 L607 476 L711 774 L815 774 L815 371 L733 371 L733 659 L640 371 L569 371 L472 660 L472 371 L392 371 Z " />
<glyph glyph-name="estimated" unicode="&#x212e;" horiz-adv-x="840" d="M738 236 L783 221 Q738 105 650 45.5 Q562 -14 435 -14 Q262 -14 161 83.5 Q60 181 60 348 Q60 426 88 495 Q116 564 170 616 Q223 668 292.5 696 Q362 724 438 724 Q598 724 694.5 628 Q791 532 791 359 L209 359 L209 103 Q251 66 309 47 Q367 28 436 28 Q551 28 625.5 80 Q700 132 738 236 Z M436 682 Q371 682 312 659 Q253 636 209 593 L209 401 L645 401 L645 617 Q606 649 553.5 665.5 Q501 682 436 682 Z " />
<glyph glyph-name="uni2150" unicode="&#x2150;" horiz-adv-x="747" d="M569 774 L680 774 L121 0 L6 0 L569 774 Z M20 662 L20 727 L83 727 Q106 727 113 732.5 Q120 738 121 757 L122 774 L191 774 L191 388 L103 388 L103 662 L20 662 Z M636 24 L636 0 L543 0 L543 24 Q543 124 570.5 195 Q598 266 653 309 L454 309 L454 386 L741 386 L741 335 Q684 299 660 234 Q636 169 636 24 Z " />
<glyph glyph-name="uni2153" unicode="&#x2153;" horiz-adv-x="750" d="M569 774 L680 774 L121 0 L6 0 L569 774 Z M20 662 L20 727 L83 727 Q106 727 113 732.5 Q120 738 121 757 L122 774 L191 774 L191 388 L103 388 L103 662 L20 662 Z M636 277 Q636 298 623.5 309 Q611 320 587 320 Q559 320 543 304.5 Q527 289 523 258 L445 274 Q457 330 496.5 361 Q536 392 595 392 Q653 392 688 365 Q723 338 723 293 Q723 262 706 239.5 Q689 217 657 204 L657 203 Q698 193 718 170 Q738 147 738 110 Q738 57 698.5 25 Q659 -7 593 -7 Q524 -7 482 25.5 Q440 58 432 118 L513 136 Q518 100 537.5 82 Q557 64 591 64 Q621 64 636.5 78 Q652 92 652 118 Q652 143 634.5 154.5 Q617 166 579 166 L530 166 L530 230 L574 230 Q605 230 620.5 242 Q636 254 636 277 Z " />
<glyph glyph-name="uni2154" unicode="&#x2154;" horiz-adv-x="859" d="M678 774 L789 774 L230 0 L115 0 L678 774 Z M239 648 Q239 675 224.5 689.5 Q210 704 184 704 Q151 704 134 679.5 Q117 655 118 609 L35 623 Q36 696 77 738 Q118 780 189 780 Q253 780 290.5 746.5 Q328 713 328 656 Q328 613 304.5 578 Q281 543 224 500 L167 458 L335 458 L335 388 L33 388 L33 444 L156 533 Q201 567 220 593.5 Q239 620 239 648 Z M745 277 Q745 298 732.5 309 Q720 320 696 320 Q668 320 652 304.5 Q636 289 632 258 L554 274 Q566 330 605.5 361 Q645 392 704 392 Q762 392 797 365 Q832 338 832 293 Q832 262 815 239.5 Q798 217 766 204 L766 203 Q807 193 827 170 Q847 147 847 110 Q847 57 807.5 25 Q768 -7 702 -7 Q633 -7 591 25.5 Q549 58 541 118 L622 136 Q627 100 646.5 82 Q666 64 700 64 Q730 64 745.5 78 Q761 92 761 118 Q761 143 743.5 154.5 Q726 166 688 166 L639 166 L639 230 L683 230 Q714 230 729.5 242 Q745 254 745 277 Z " />
<glyph glyph-name="uni2155" unicode="&#x2155;" horiz-adv-x="760" d="M569 774 L680 774 L121 0 L6 0 L569 774 Z M20 662 L20 727 L83 727 Q106 727 113 732.5 Q120 738 121 757 L122 774 L191 774 L191 388 L103 388 L103 662 L20 662 Z M623 268 Q678 268 710.5 233.5 Q743 199 743 141 Q743 73 701.5 33 Q660 -7 589 -7 Q523 -7 481.5 25 Q440 57 429 117 L513 137 Q519 101 537 84 Q555 67 587 67 Q619 67 636.5 86.5 Q654 106 654 141 Q654 177 637.5 196.5 Q621 216 590 216 Q567 216 549.5 205.5 Q532 195 521 175 L447 182 L478 386 L718 386 L718 314 L543 314 L529 227 L530 227 Q549 247 572.5 257.5 Q596 268 623 268 Z " />
<glyph glyph-name="uni2156" unicode="&#x2156;" horiz-adv-x="869" d="M678 774 L789 774 L230 0 L115 0 L678 774 Z M239 648 Q239 675 224.5 689.5 Q210 704 184 704 Q151 704 134 679.5 Q117 655 118 609 L35 623 Q36 696 77 738 Q118 780 189 780 Q253 780 290.5 746.5 Q328 713 328 656 Q328 613 304.5 578 Q281 543 224 500 L167 458 L335 458 L335 388 L33 388 L33 444 L156 533 Q201 567 220 593.5 Q239 620 239 648 Z M732 268 Q787 268 819.5 233.5 Q852 199 852 141 Q852 73 810.5 33 Q769 -7 698 -7 Q632 -7 590.5 25 Q549 57 538 117 L622 137 Q628 101 646 84 Q664 67 696 67 Q728 67 745.5 86.5 Q763 106 763 141 Q763 177 746.5 196.5 Q730 216 699 216 Q676 216 658.5 205.5 Q641 195 630 175 L556 182 L587 386 L827 386 L827 314 L652 314 L638 227 L639 227 Q658 247 681.5 257.5 Q705 268 732 268 Z " />
<glyph glyph-name="uni2157" unicode="&#x2157;" horiz-adv-x="861" d="M670 774 L781 774 L222 0 L107 0 L670 774 Z M244 665 Q244 686 231.5 697 Q219 708 195 708 Q167 708 151 692.5 Q135 677 131 646 L53 662 Q65 718 104.5 749 Q144 780 203 780 Q261 780 296 753 Q331 726 331 681 Q331 650 314 627.5 Q297 605 265 592 L265 591 Q306 581 326 558 Q346 535 346 498 Q346 445 306.5 413 Q267 381 201 381 Q132 381 90 413.5 Q48 446 40 506 L121 524 Q126 488 145.5 470 Q165 452 199 452 Q229 452 244.5 466 Q260 480 260 506 Q260 531 242.5 542.5 Q225 554 187 554 L138 554 L138 618 L182 618 Q213 618 228.5 630 Q244 642 244 665 Z M724 268 Q779 268 811.5 233.5 Q844 199 844 141 Q844 73 802.5 33 Q761 -7 690 -7 Q624 -7 582.5 25 Q541 57 530 117 L614 137 Q620 101 638 84 Q656 67 688 67 Q720 67 737.5 86.5 Q755 106 755 141 Q755 177 738.5 196.5 Q722 216 691 216 Q668 216 650.5 205.5 Q633 195 622 175 L548 182 L579 386 L819 386 L819 314 L644 314 L630 227 L631 227 Q650 247 673.5 257.5 Q697 268 724 268 Z " />
<glyph glyph-name="uni2158" unicode="&#x2158;" horiz-adv-x="862" d="M672 774 L783 774 L224 0 L109 0 L672 774 Z M356 534 L356 465 L295 465 L295 388 L207 388 L207 465 L33 465 L33 541 L211 774 L295 774 L295 534 L356 534 Z M213 684 L102 534 L213 534 L213 684 Z M726 268 Q781 268 813.5 233.5 Q846 199 846 141 Q846 73 804.5 33 Q763 -7 692 -7 Q626 -7 584.5 25 Q543 57 532 117 L616 137 Q622 101 640 84 Q658 67 690 67 Q722 67 739.5 86.5 Q757 106 757 141 Q757 177 740.5 196.5 Q724 216 693 216 Q670 216 652.5 205.5 Q635 195 624 175 L550 182 L581 386 L821 386 L821 314 L646 314 L632 227 L633 227 Q652 247 675.5 257.5 Q699 268 726 268 Z " />
<glyph glyph-name="uni2159" unicode="&#x2159;" horiz-adv-x="760" d="M569 774 L680 774 L121 0 L6 0 L569 774 Z M20 662 L20 727 L83 727 Q106 727 113 732.5 Q120 738 121 757 L122 774 L191 774 L191 388 L103 388 L103 662 L20 662 Z M594 -7 Q512 -7 468 43 Q424 93 424 185 Q424 281 473.5 336.5 Q523 392 608 392 Q653 392 688.5 373.5 Q724 355 746 320 L669 276 Q658 296 642.5 305 Q627 314 604 314 Q560 314 536.5 280.5 Q513 247 513 184 L514 184 Q530 215 558.5 232 Q587 249 625 249 Q679 249 712 216.5 Q745 184 745 130 Q745 69 703 31 Q661 -7 594 -7 Z M594 194 Q563 194 544 176 Q525 158 525 129 Q525 101 544 83.5 Q563 66 593 66 Q623 66 640.5 84 Q658 102 658 132 Q658 161 641 177.5 Q624 194 594 194 Z " />
<glyph glyph-name="uni215A" unicode="&#x215a;" horiz-adv-x="862" d="M671 774 L782 774 L223 0 L108 0 L671 774 Z M231 656 Q286 656 318.5 621.5 Q351 587 351 529 Q351 461 309.5 421 Q268 381 197 381 Q131 381 89.5 413 Q48 445 37 505 L121 525 Q127 489 145 472 Q163 455 195 455 Q227 455 244.5 474.5 Q262 494 262 529 Q262 565 245.5 584.5 Q229 604 198 604 Q175 604 157.5 593.5 Q140 583 129 563 L55 570 L86 774 L326 774 L326 702 L151 702 L137 615 L138 615 Q157 635 180.5 645.5 Q204 656 231 656 Z M696 -7 Q614 -7 570 43 Q526 93 526 185 Q526 281 575.5 336.5 Q625 392 710 392 Q755 392 790.5 373.5 Q826 355 848 320 L771 276 Q760 296 744.5 305 Q729 314 706 314 Q662 314 638.5 280.5 Q615 247 615 184 L616 184 Q632 215 660.5 232 Q689 249 727 249 Q781 249 814 216.5 Q847 184 847 130 Q847 69 805 31 Q763 -7 696 -7 Z M696 194 Q665 194 646 176 Q627 158 627 129 Q627 101 646 83.5 Q665 66 695 66 Q725 66 742.5 84 Q760 102 760 132 Q760 161 743 177.5 Q726 194 696 194 Z " />
<glyph glyph-name="uni215B" unicode="&#x215b;" horiz-adv-x="769" d="M569 774 L680 774 L121 0 L6 0 L569 774 Z M20 662 L20 727 L83 727 Q106 727 113 732.5 Q120 738 121 757 L122 774 L191 774 L191 388 L103 388 L103 662 L20 662 Z M749 109 Q749 56 704 24.5 Q659 -7 584 -7 Q509 -7 466 22.5 Q423 52 423 105 Q423 140 444.5 164.5 Q466 189 507 201 L507 203 Q476 214 459.5 235.5 Q443 257 443 286 Q443 334 482 362.5 Q521 391 586 391 Q652 391 690.5 363.5 Q729 336 729 289 Q729 260 712 237.5 Q695 215 664 203 L664 202 Q706 191 727.5 167 Q749 143 749 109 Z M648 274 Q648 297 631 310 Q614 323 586 323 Q558 323 541 309.5 Q524 296 524 272 Q524 248 541 234.5 Q558 221 587 221 Q615 221 631.5 235 Q648 249 648 274 Z M511 118 Q511 92 531.5 77 Q552 62 588 62 Q622 62 641 77.5 Q660 93 660 121 Q660 146 640 160.5 Q620 175 586 175 Q552 175 531.5 159.5 Q511 144 511 118 Z " />
<glyph glyph-name="uni215C" unicode="&#x215c;" horiz-adv-x="871" d="M670 774 L781 774 L222 0 L107 0 L670 774 Z M244 665 Q244 686 231.5 697 Q219 708 195 708 Q167 708 151 692.5 Q135 677 131 646 L53 662 Q65 718 104.5 749 Q144 780 203 780 Q261 780 296 753 Q331 726 331 681 Q331 650 314 627.5 Q297 605 265 592 L265 591 Q306 581 326 558 Q346 535 346 498 Q346 445 306.5 413 Q267 381 201 381 Q132 381 90 413.5 Q48 446 40 506 L121 524 Q126 488 145.5 470 Q165 452 199 452 Q229 452 244.5 466 Q260 480 260 506 Q260 531 242.5 542.5 Q225 554 187 554 L138 554 L138 618 L182 618 Q213 618 228.5 630 Q244 642 244 665 Z M850 109 Q850 56 805 24.5 Q760 -7 685 -7 Q610 -7 567 22.5 Q524 52 524 105 Q524 140 545.5 164.5 Q567 189 608 201 L608 203 Q577 214 560.5 235.5 Q544 257 544 286 Q544 334 583 362.5 Q622 391 687 391 Q753 391 791.5 363.5 Q830 336 830 289 Q830 260 813 237.5 Q796 215 765 203 L765 202 Q807 191 828.5 167 Q850 143 850 109 Z M749 274 Q749 297 732 310 Q715 323 687 323 Q659 323 642 309.5 Q625 296 625 272 Q625 248 642 234.5 Q659 221 688 221 Q716 221 732.5 235 Q749 249 749 274 Z M612 118 Q612 92 632.5 77 Q653 62 689 62 Q723 62 742 77.5 Q761 93 761 121 Q761 146 741 160.5 Q721 175 687 175 Q653 175 632.5 159.5 Q612 144 612 118 Z " />
<glyph glyph-name="uni215D" unicode="&#x215d;" horiz-adv-x="871" d="M671 774 L782 774 L223 0 L108 0 L671 774 Z M231 656 Q286 656 318.5 621.5 Q351 587 351 529 Q351 461 309.5 421 Q268 381 197 381 Q131 381 89.5 413 Q48 445 37 505 L121 525 Q127 489 145 472 Q163 455 195 455 Q227 455 244.5 474.5 Q262 494 262 529 Q262 565 245.5 584.5 Q229 604 198 604 Q175 604 157.5 593.5 Q140 583 129 563 L55 570 L86 774 L326 774 L326 702 L151 702 L137 615 L138 615 Q157 635 180.5 645.5 Q204 656 231 656 Z M851 109 Q851 56 806 24.5 Q761 -7 686 -7 Q611 -7 568 22.5 Q525 52 525 105 Q525 140 546.5 164.5 Q568 189 609 201 L609 203 Q578 214 561.5 235.5 Q545 257 545 286 Q545 334 584 362.5 Q623 391 688 391 Q754 391 792.5 363.5 Q831 336 831 289 Q831 260 814 237.5 Q797 215 766 203 L766 202 Q808 191 829.5 167 Q851 143 851 109 Z M750 274 Q750 297 733 310 Q716 323 688 323 Q660 323 643 309.5 Q626 296 626 272 Q626 248 643 234.5 Q660 221 689 221 Q717 221 733.5 235 Q750 249 750 274 Z M613 118 Q613 92 633.5 77 Q654 62 690 62 Q724 62 743 77.5 Q762 93 762 121 Q762 146 742 160.5 Q722 175 688 175 Q654 175 633.5 159.5 Q613 144 613 118 Z " />
<glyph glyph-name="uni215E" unicode="&#x215e;" horiz-adv-x="853" d="M653 774 L764 774 L205 0 L90 0 L653 774 Z M243 412 L243 388 L150 388 L150 412 Q150 512 177.5 583 Q205 654 260 697 L61 697 L61 774 L348 774 L348 723 Q291 687 267 622 Q243 557 243 412 Z M833 109 Q833 56 788 24.5 Q743 -7 668 -7 Q593 -7 550 22.5 Q507 52 507 105 Q507 140 528.5 164.5 Q550 189 591 201 L591 203 Q560 214 543.5 235.5 Q527 257 527 286 Q527 334 566 362.5 Q605 391 670 391 Q736 391 774.5 363.5 Q813 336 813 289 Q813 260 796 237.5 Q779 215 748 203 L748 202 Q790 191 811.5 167 Q833 143 833 109 Z M732 274 Q732 297 715 310 Q698 323 670 323 Q642 323 625 309.5 Q608 296 608 272 Q608 248 625 234.5 Q642 221 671 221 Q699 221 715.5 235 Q732 249 732 274 Z M595 118 Q595 92 615.5 77 Q636 62 672 62 Q706 62 725 77.5 Q744 93 744 121 Q744 146 724 160.5 Q704 175 670 175 Q636 175 615.5 159.5 Q595 144 595 118 Z " />
<glyph glyph-name="uni215F" unicode="&#x215f;" horiz-adv-x="680" d="M569 774 L680 774 L121 0 L6 0 L569 774 Z M20 662 L20 727 L83 727 Q106 727 113 732.5 Q120 738 121 757 L122 774 L191 774 L191 388 L103 388 L103 662 L20 662 Z " />
<glyph glyph-name="uni2190" unicode="&#x2190;" horiz-adv-x="735" d="M214 160 L-7 380 L214 600 L277 539 L165 434 L717 434 L717 326 L165 326 L277 221 L214 160 Z " />
<glyph glyph-name="arrowup" unicode="&#x2191;" horiz-adv-x="456" d="M9 539 L229 760 L449 539 L388 476 L283 588 L283 36 L175 36 L175 588 L70 476 L9 539 Z " />
<glyph glyph-name="uni2192" unicode="&#x2192;" horiz-adv-x="735" d="M520 600 L741 380 L520 160 L457 221 L569 326 L17 326 L17 434 L569 434 L457 539 L520 600 Z " />
<glyph glyph-name="arrowdown" unicode="&#x2193;" horiz-adv-x="456" d="M449 241 L229 20 L9 241 L70 304 L175 192 L175 744 L283 744 L283 192 L388 304 L449 241 Z " />
<glyph glyph-name="uni2194" unicode="&#x2194;" horiz-adv-x="776" d="M215 160 L-5 380 L215 600 L278 539 L165 434 L611 434 L498 539 L561 600 L781 380 L561 160 L498 221 L611 326 L165 326 L278 221 L215 160 Z " />
<glyph glyph-name="uni2195" unicode="&#x2195;" horiz-adv-x="456" d="M8 562 L228 783 L448 562 L387 500 L282 613 L282 187 L387 301 L448 237 L228 17 L8 237 L69 301 L174 187 L174 612 L69 500 L8 562 Z " />
<glyph glyph-name="uni2196" unicode="&#x2196;" horiz-adv-x="587" d="M21 335 L20 647 L332 646 L333 558 L180 563 L570 173 L494 97 L103 487 L108 334 L21 335 Z " />
<glyph glyph-name="uni2197" unicode="&#x2197;" horiz-adv-x="587" d="M251 642 L563 643 L562 331 L474 329 L479 483 L89 93 L13 169 L403 559 L250 554 L251 642 Z " />
<glyph glyph-name="uni2198" unicode="&#x2198;" horiz-adv-x="587" d="M562 431 L562 119 L251 119 L249 207 L403 202 L12 592 L89 669 L479 279 L474 432 L562 431 Z " />
<glyph glyph-name="uni2199" unicode="&#x2199;" horiz-adv-x="586" d="M333 115 L21 114 L21 426 L109 428 L104 274 L494 665 L571 588 L180 198 L334 203 L333 115 Z " />
<glyph glyph-name="uni21A9" unicode="&#x21a9;" horiz-adv-x="710" d="M166 357 L467 357 Q532 357 560.5 378.5 Q589 400 589 450 Q589 495 562.5 515 Q536 535 477 535 L391 535 L391 632 L478 632 Q587 632 642.5 586 Q698 540 698 449 Q698 351 639.5 300 Q581 249 467 249 L166 249 L278 145 L215 83 L-6 303 L215 523 L278 462 L166 357 Z " />
<glyph glyph-name="uni21AA" unicode="&#x21aa;" horiz-adv-x="710" d="M121 450 Q121 400 149.5 378.5 Q178 357 243 357 L544 357 L431 462 L495 523 L715 303 L495 83 L431 145 L544 249 L243 249 Q127 249 69 297.5 Q11 346 11 443 Q11 535 67 583.5 Q123 632 231 632 L319 632 L319 535 L233 535 Q174 535 147.5 515 Q121 495 121 450 Z " />
<glyph glyph-name="uni21AF" unicode="&#x21af;" horiz-adv-x="469" d="M440 538 L440 462 L230 140 L384 180 L395 91 L91 26 L26 332 L113 353 L141 201 L301 448 L63 448 L63 518 L241 789 L330 733 L204 538 L440 538 Z " />
<glyph glyph-name="uni21B0" unicode="&#x21b0;" horiz-adv-x="662" d="M166 623 L598 623 L598 41 L489 41 L489 516 L166 516 L278 411 L215 350 L-5 569 L215 789 L278 728 L166 623 Z " />
<glyph glyph-name="uni21B1" unicode="&#x21b1;" horiz-adv-x="662" d="M447 350 L384 411 L496 516 L173 516 L173 41 L64 41 L64 623 L496 623 L384 728 L447 789 L667 569 L447 350 Z " />
<glyph glyph-name="uni21B2" unicode="&#x21b2;" horiz-adv-x="662" d="M166 192 L278 87 L215 26 L-5 246 L215 465 L278 404 L166 299 L489 299 L489 774 L598 774 L598 192 L166 192 Z " />
<glyph glyph-name="uni21B3" unicode="&#x21b3;" horiz-adv-x="662" d="M447 465 L667 246 L447 26 L384 87 L496 192 L64 192 L64 774 L173 774 L173 299 L496 299 L384 404 L447 465 Z " />
<glyph glyph-name="partialdiff" unicode="&#x2202;" horiz-adv-x="658" d="M364 782 Q485 782 551.5 697 Q618 612 618 469 Q618 245 528 116 Q438 -13 278 -13 Q167 -13 98 55 Q29 123 29 233 Q29 351 104 431 Q179 511 291 511 Q361 511 411 478 Q461 445 481 384 L482 384 Q485 408 486.5 428 Q488 448 488 470 Q488 570 455 622.5 Q422 675 359 675 Q316 675 275 648 Q234 621 207 575 L102 634 Q152 705 220 743.5 Q288 782 364 782 Z M325 433 Q254 433 208 378.5 Q162 324 162 242 Q162 168 196.5 127.5 Q231 87 295 87 Q366 87 411 143 Q456 199 456 284 Q456 354 421.5 393.5 Q387 433 325 433 Z " />
<glyph glyph-name="uni2206" unicode="&#x2206;" horiz-adv-x="755" d="M741 0 L14 0 L14 58 L324 774 L419 774 L741 58 L741 0 Z M369 617 L164 111 L590 111 L369 617 Z " />
<glyph glyph-name="product" unicode="&#x220f;" horiz-adv-x="840" d="M96 -184 L96 774 L745 774 L745 -184 L613 -184 L613 665 L227 665 L227 -184 L96 -184 Z " />
<glyph glyph-name="summation" unicode="&#x2211;" horiz-adv-x="646" d="M39 690 L39 774 L620 774 L620 667 L201 667 L499 306 L499 288 L200 -79 L627 -79 L627 -186 L26 -186 L26 -114 L368 298 L39 690 Z " />
<glyph glyph-name="minus" unicode="&#x2212;" horiz-adv-x="579" d="M502 345 L76 345 L76 435 L502 435 L502 345 Z " />
<glyph glyph-name="radical" unicode="&#x221a;" horiz-adv-x="714" d="M586 774 L722 774 L435 0 L304 0 L144 353 L1 353 L1 455 L233 455 L366 135 L586 774 Z " />
<glyph glyph-name="infinity" unicode="&#x221e;" horiz-adv-x="879" d="M428 307 Q381 250 328.5 219.5 Q276 189 222 189 Q138 189 87 238.5 Q36 288 36 366 Q36 450 87.5 502 Q139 554 224 554 Q282 554 336.5 524.5 Q391 495 442 436 Q490 494 542.5 524 Q595 554 649 554 Q732 554 783 504 Q834 454 834 376 Q834 293 782 241 Q730 189 646 189 Q589 189 533.5 219 Q478 249 428 307 Z M639 285 Q679 285 703 308.5 Q727 332 727 372 Q727 414 701.5 437 Q676 460 630 460 Q596 460 560.5 440.5 Q525 421 486 380 Q530 329 565.5 307 Q601 285 639 285 Z M232 457 Q191 457 167.5 433.5 Q144 410 144 370 Q144 329 169 306 Q194 283 240 283 Q275 283 310.5 302.5 Q346 322 384 363 Q340 414 304.5 435.5 Q269 457 232 457 Z " />
<glyph glyph-name="integral" unicode="&#x222b;" horiz-adv-x="324" d="M298 674 Q258 674 240.5 652 Q223 630 223 580 L223 -10 Q223 -104 179 -151 Q135 -198 47 -198 Q25 -198 -2 -194.5 Q-29 -191 -46 -186 L-32 -79 Q-20 -82 -6.5 -83.5 Q7 -85 21 -85 Q62 -85 78.5 -64.5 Q95 -44 95 5 L95 603 Q95 692 142.5 738.5 Q190 785 280 785 Q301 785 324.5 782 Q348 779 363 774 L348 669 Q337 671 323.5 672.5 Q310 674 298 674 Z " />
<glyph glyph-name="approxequal" unicode="&#x2248;" horiz-adv-x="579" d="M386 386 Q366 386 345 391.5 Q324 397 285 414 Q247 430 227.5 435 Q208 440 190 440 Q161 440 132.5 425.5 Q104 411 76 383 L76 481 Q105 506 135.5 518.5 Q166 531 197 531 Q217 531 239.5 525.5 Q262 520 304 501 Q340 486 358 481 Q376 476 391 476 Q421 476 448.5 489.5 Q476 503 503 531 L503 434 Q479 410 450.5 398 Q422 386 386 386 Z M386 178 Q366 178 345 183.5 Q324 189 285 206 Q247 222 227.5 227 Q208 232 190 232 Q161 232 132.5 217.5 Q104 203 76 175 L76 272 Q105 297 135.5 310 Q166 323 197 323 Q217 323 239.5 317.5 Q262 312 304 294 Q340 278 358 273.5 Q376 269 391 269 Q422 269 449 282.5 Q476 296 503 323 L503 226 Q479 202 450.5 190 Q422 178 386 178 Z " />
<glyph glyph-name="notequal" unicode="&#x2260;" horiz-adv-x="579" d="M185 208 L76 208 L76 298 L229 298 L277 402 L76 402 L76 493 L316 493 L383 641 L466 641 L399 493 L502 493 L502 402 L357 402 L309 298 L502 298 L502 208 L268 208 L202 60 L119 60 L185 208 Z " />
<glyph glyph-name="equivalence" unicode="&#x2261;" horiz-adv-x="461" d="M402 429 L58 429 L58 516 L402 516 L402 429 Z M402 260 L58 260 L58 346 L402 346 L402 260 Z M402 91 L58 91 L58 177 L402 177 L402 91 Z " />
<glyph glyph-name="lessequal" unicode="&#x2264;" horiz-adv-x="579" d="M507 133 L72 358 L72 418 L507 642 L507 541 L202 390 L507 237 L507 133 Z M507 0 L72 0 L72 90 L507 90 L507 0 Z " />
<glyph glyph-name="greaterequal" unicode="&#x2265;" horiz-adv-x="579" d="M72 642 L507 417 L507 357 L72 133 L72 234 L377 385 L72 538 L72 642 Z M506 90 L506 0 L72 0 L72 90 L506 90 Z " />
<glyph glyph-name="house" unicode="&#x2302;" horiz-adv-x="904" d="M789 427 L789 0 L115 0 L115 427 L452 750 L789 427 Z " />
<glyph glyph-name="uni25A0" unicode="&#x25a0;" horiz-adv-x="956" d="M841 0 L115 0 L115 730 L841 730 L841 0 Z " />
<glyph glyph-name="uni25A1" unicode="&#x25a1;" horiz-adv-x="956" d="M841 0 L115 0 L115 730 L841 730 L841 0 Z M775 667 L181 667 L181 63 L775 63 L775 667 Z " />
<glyph glyph-name="uni25AA" unicode="&#x25aa;" horiz-adv-x="730" d="M615 0 L115 0 L115 500 L615 500 L615 0 Z " />
<glyph glyph-name="uni25AB" unicode="&#x25ab;" horiz-adv-x="730" d="M615 0 L115 0 L115 500 L615 500 L615 0 Z M550 438 L180 438 L180 62 L550 62 L550 438 Z " />
<glyph glyph-name="triagup" unicode="&#x25b2;" horiz-adv-x="927" d="M464 742 L892 0 L35 0 L464 742 Z " />
<glyph glyph-name="triagrt" unicode="&#x25ba;" horiz-adv-x="927" d="M857 372 L115 -57 L115 800 L857 372 Z " />
<glyph glyph-name="triagdn" unicode="&#x25bc;" horiz-adv-x="927" d="M464 -12 L35 730 L892 730 L464 -12 Z " />
<glyph glyph-name="triaglf" unicode="&#x25c4;" horiz-adv-x="927" d="M70 372 L812 800 L812 -57 L70 372 Z " />
<glyph glyph-name="lozenge" unicode="&#x25ca;" horiz-adv-x="663" d="M368 774 L601 400 L601 380 L370 0 L293 0 L64 379 L64 400 L290 774 L368 774 Z M327 664 L173 393 L333 112 L495 388 L327 664 Z " />
<glyph glyph-name="uni25CB" unicode="&#x25cb;" horiz-adv-x="827" d="M769 350 Q769 199 665.5 94.5 Q562 -10 414 -10 Q265 -10 161.5 94.5 Q58 199 58 350 Q58 500 161.5 604.5 Q265 709 414 709 Q562 709 665.5 604.5 Q769 500 769 350 Z M120 350 Q120 221 205 133.5 Q290 46 414 46 Q539 46 623 133.5 Q707 221 707 350 Q707 479 623 566 Q539 653 414 653 Q290 653 205 565.5 Q120 478 120 350 Z " />
<glyph glyph-name="uni25CE" unicode="&#x25ce;" horiz-adv-x="957" d="M854 365 Q854 210 744 100 Q634 -10 479 -10 Q324 -10 214 100 Q104 210 104 365 Q104 520 214 630 Q324 740 479 740 Q634 740 744 630 Q854 520 854 365 Z M165 365 Q165 231 255.5 139.5 Q346 48 479 48 Q612 48 702.5 139.5 Q793 231 793 365 Q793 499 702.5 590.5 Q612 682 479 682 Q346 682 255.5 590.5 Q165 499 165 365 Z M699 364 Q699 272 634.5 208 Q570 144 479 144 Q388 144 324 208 Q260 272 260 364 Q260 456 324 520 Q388 584 479 584 Q570 584 634.5 520 Q699 456 699 364 Z M318 364 Q318 296 365.5 247.5 Q413 199 479 199 Q546 199 594 247.5 Q642 296 642 364 Q642 432 594 480.5 Q546 529 479 529 Q412 529 365 480.5 Q318 432 318 364 Z M464 319 Q444 326 435 344 Q426 362 433 381 Q440 400 458 409 Q476 418 496 412 Q515 404 524 386 Q533 368 526 349 Q519 330 501 321 Q483 312 464 319 Z " />
<glyph glyph-name="uni25CF" unicode="&#x25cf;" horiz-adv-x="827" d="M769 350 Q769 199 665.5 94.5 Q562 -10 414 -10 Q265 -10 161.5 94.5 Q58 199 58 350 Q58 500 161.5 604.5 Q265 709 414 709 Q562 709 665.5 604.5 Q769 500 769 350 Z " />
<glyph glyph-name="uni25E2" unicode="&#x25e2;" horiz-adv-x="927" d="M60 755 L888 533 L282 -73 L60 755 Z " />
<glyph glyph-name="uni25E3" unicode="&#x25e3;" horiz-adv-x="927" d="M869 755 L647 -73 L41 533 L869 755 Z " />
<glyph glyph-name="uni25E4" unicode="&#x25e4;" horiz-adv-x="927" d="M650 774 L872 -54 L44 168 L650 774 Z " />
<glyph glyph-name="uni25E5" unicode="&#x25e5;" horiz-adv-x="927" d="M282 770 L887 163 L59 -58 L282 770 Z " />
<glyph glyph-name="uni2605" unicode="&#x2605;" horiz-adv-x="930" d="M534 438 L764 437 L577 303 L649 85 L462 221 L276 85 L348 304 L162 439 L391 438 L463 656 L534 438 Z " />
<glyph glyph-name="uni2608" unicode="&#x2608;" horiz-adv-x="689" d="M155 681 L237 533 L146 316 L146 -67 L37 -67 L37 333 L127 533 L33 691 L33 774 L587 774 L587 688 L423 454 L581 190 L611 347 L696 323 L627 20 L323 89 L342 178 L493 138 L306 452 L469 681 L155 681 Z " />
<glyph glyph-name="uni263C" unicode="&#x263c;" horiz-adv-x="958" d="M486 577 L466 577 L449 719 L503 719 L486 577 Z M378 554 L363 544 L276 659 L323 687 L378 554 Z M589 544 L574 554 L629 687 L676 659 L589 544 Z M298 479 L288 464 L155 519 L183 566 L298 479 Z M664 464 L654 480 L767 566 L797 520 L664 464 Z M476 191 Q405 191 353.5 242.5 Q302 294 302 365 Q302 436 353.5 487.5 Q405 539 476 539 Q547 539 598.5 487.5 Q650 436 650 365 Q650 294 598.5 242.5 Q547 191 476 191 Z M265 376 L265 356 L123 339 L123 393 L265 376 Z M687 356 L687 376 L829 393 L829 339 L687 356 Z M288 268 L298 252 L185 166 L155 212 L288 268 Z M654 253 L664 268 L797 213 L769 166 L654 253 Z M363 188 L378 178 L323 45 L276 73 L363 188 Z M574 178 L589 188 L676 73 L629 45 L574 178 Z M466 155 L486 155 L503 13 L449 13 L466 155 Z " />
<glyph glyph-name="uni263E" unicode="&#x263e;" horiz-adv-x="817" d="M620 604 Q593 611 577.5 613.5 Q562 616 549 616 Q450 616 380 542.5 Q310 469 310 365 Q310 261 380 187.5 Q450 114 549 114 Q565 114 582.5 117 Q600 120 620 126 Q581 98 535 83.5 Q489 69 442 69 Q320 69 233 156 Q146 243 146 365 Q146 487 233 574 Q320 661 442 661 Q489 661 535 646.5 Q581 632 620 604 Z " />
<glyph glyph-name="spade" unicode="&#x2660;" horiz-adv-x="950" d="M541 140 Q548 120 557 100.5 Q566 81 611 4 L609 0 L350 0 L348 4 Q385 71 396 94 Q407 117 415 140 Q429 178 436 215.5 Q443 253 444 290 Q418 224 374.5 189 Q331 154 274 154 Q202 154 152.5 199 Q103 244 103 312 Q103 390 149 455 Q195 520 338 635 L478 747 L479 747 L619 635 Q755 526 801 459.5 Q847 393 847 312 Q847 244 802 199.5 Q757 155 690 155 Q627 155 580.5 189.5 Q534 224 509 289 Q510 252 518 214.5 Q526 177 541 140 Z " />
<glyph glyph-name="club" unicode="&#x2663;" horiz-adv-x="950" d="M569 81 Q578 61 593 34.5 Q608 8 610 4 L608 0 L353 0 L351 4 Q401 98 419 149.5 Q437 201 442 248 Q421 194 376 162 Q331 130 275 130 Q202 130 150 182 Q98 234 98 307 Q98 381 150 432.5 Q202 484 275 484 Q285 484 295 482.5 Q305 481 317 477 Q308 500 303 522 Q298 544 298 564 Q298 637 349 688.5 Q400 740 473 740 Q546 740 597.5 688.5 Q649 637 649 564 Q649 541 644 518.5 Q639 496 630 476 Q641 480 652.5 482 Q664 484 676 484 Q749 484 800.5 432.5 Q852 381 852 307 Q852 234 800.5 182 Q749 130 675 130 Q621 130 577.5 161 Q534 192 513 246 Q516 226 521 204.5 Q526 183 534 161 Q541 142 549.5 122 Q558 102 569 81 Z " />
<glyph glyph-name="heart" unicode="&#x2665;" horiz-adv-x="950" d="M104 550 Q104 635 155 687.5 Q206 740 287 740 Q363 740 413.5 696.5 Q464 653 472 580 Q480 653 530.5 696.5 Q581 740 657 740 Q739 740 792.5 687 Q846 634 846 550 Q846 465 794 373 Q742 281 614 140 L472 -17 L331 140 Q206 279 155 371.5 Q104 464 104 550 Z " />
<glyph glyph-name="diamond" unicode="&#x2666;" horiz-adv-x="950" d="M475 -10 L148 390 L475 791 L802 390 L475 -10 Z " />
<glyph glyph-name="uni267B" unicode="&#x267b;" horiz-adv-x="884" d="M379 728 L379 729 L561 729 Q596 729 614.5 719.5 Q633 710 647 685 L673 639 L714 662 L656 505 L494 535 L532 557 L465 675 Q451 701 430.5 713.5 Q410 726 379 728 Z M437 666 L328 477 L187 558 L250 670 Q261 691 284 702 Q307 713 337 713 Q370 713 396.5 700.5 Q423 688 437 666 Z M717 232 L608 421 L748 502 L814 392 Q819 383 821.5 373 Q824 363 824 352 Q824 308 794 275 Q764 242 717 232 Z M158 172 Q158 160 161.5 147.5 Q165 135 171 122 L170 122 L79 279 Q69 296 64.5 308.5 Q60 321 60 333 Q60 343 63 353 Q66 363 74 376 L101 421 L60 445 L225 473 L280 318 L242 340 L174 223 Q166 210 162 197.5 Q158 185 158 172 Z M799 251 L800 250 L709 93 Q692 63 675 52 Q658 41 628 41 L575 41 L575 -6 L468 123 L575 248 L575 203 L711 203 Q741 203 761.5 214.5 Q782 226 799 251 Z M195 203 L414 203 L414 41 L294 41 Q246 41 216 76 Q186 111 186 161 Q186 172 188.5 182.5 Q191 193 195 203 Z " />
<glyph glyph-name="uni267C" unicode="&#x267c;" horiz-adv-x="951" d="M742 633 Q795 579 823.5 510 Q852 441 852 366 Q852 210 742.5 100.5 Q633 -9 477 -9 Q320 -9 210 100.5 Q100 210 100 366 Q100 441 128.5 510 Q157 579 210 633 Q263 686 332 714.5 Q401 743 477 743 Q552 743 620.5 714.5 Q689 686 742 633 Z M424 643 L424 642 Q447 640 462 630.5 Q477 621 489 601 L540 513 L511 496 L633 474 L678 593 L646 574 L626 609 Q617 628 602.5 635.5 Q588 643 561 643 L424 643 Z M279 514 L385 452 L469 595 Q458 612 438 621 Q418 630 393 630 Q370 630 353 622 Q336 614 327 598 L279 514 Z M703 471 L597 410 L679 268 Q715 276 738 300.5 Q761 325 761 358 Q761 365 759 372 Q757 379 753 388 L703 471 Z M266 185 L267 185 Q262 194 260 203 Q258 212 258 222 Q258 233 261 242.5 Q264 252 270 261 L321 350 L349 332 L308 449 L184 428 L214 410 L194 377 Q188 365 186 358 Q184 351 184 344 Q184 334 187.5 325 Q191 316 199 303 L266 185 Z M742 281 L741 282 Q728 263 712.5 254.5 Q697 246 675 246 L572 246 L572 279 L492 185 L572 89 L572 123 L613 123 Q635 123 647.5 131.5 Q660 140 673 163 L742 281 Z M450 123 L450 246 L286 246 Q282 238 280 230 Q278 222 278 213 Q278 176 301 149.5 Q324 123 360 123 L450 123 Z " />
<glyph glyph-name="uni267D" unicode="&#x267d;" horiz-adv-x="952" d="M742 633 Q795 579 823.5 510 Q852 441 852 366 Q852 210 742.5 100.5 Q633 -9 477 -9 Q320 -9 210 100.5 Q100 210 100 366 Q100 441 128.5 510 Q157 579 210 633 Q263 686 332 714.5 Q401 743 477 743 Q552 743 620.5 714.5 Q689 686 742 633 Z M477 27 Q618 27 717 126 Q816 225 816 366 Q816 507 716.5 607 Q617 707 477 707 Q336 707 236 607 Q136 507 136 366 Q136 225 235.5 126 Q335 27 477 27 Z M424 642 L424 643 L561 643 Q588 643 602.5 635.5 Q617 628 626 609 L646 574 L678 593 L633 474 L511 496 L540 513 L489 601 Q477 621 462 630.5 Q447 640 424 642 Z M469 595 L385 452 L279 514 L327 598 Q336 614 353 622 Q370 630 393 630 Q418 630 438 621 Q458 612 469 595 Z M679 268 L597 410 L703 471 L753 388 Q757 379 759 372 Q761 365 761 358 Q761 325 738 300.5 Q715 276 679 268 Z M258 222 Q258 212 260 203 Q262 194 267 185 L266 185 L199 303 Q191 316 187.5 325 Q184 334 184 344 Q184 351 186 358 Q188 365 194 377 L214 410 L184 428 L308 449 L349 332 L321 350 L270 261 Q264 252 261 242.5 Q258 233 258 222 Z M741 282 L742 281 L673 163 Q660 140 647.5 131.5 Q635 123 613 123 L572 123 L572 89 L492 185 L572 279 L572 246 L675 246 Q697 246 712.5 254.5 Q728 263 741 282 Z M286 246 L450 246 L450 123 L360 123 Q324 123 301 149.5 Q278 176 278 213 Q278 222 280 230 Q282 238 286 246 Z " />
<glyph glyph-name="uni3008" unicode="&#x3008;" horiz-adv-x="406" d="M77 300 L296 815 L423 815 L200 304 L423 -231 L293 -231 L77 300 Z " />
<glyph glyph-name="uni3009" unicode="&#x3009;" horiz-adv-x="406" d="M328 284 L109 -231 L-18 -231 L205 280 L-18 815 L112 815 L328 284 Z " />
<glyph glyph-name="uniFB00" unicode="&#xfb00;" horiz-adv-x="764" d="M250 0 L122 0 L122 475 L9 475 L9 571 L122 571 L122 625 Q122 721 168.5 772 Q215 823 303 823 Q331 823 358.5 818.5 Q386 814 406 806 L387 710 Q373 715 357 718 Q341 721 326 721 Q285 721 266 697 Q247 673 247 620 L247 571 L482 571 L482 625 Q482 721 528.5 772 Q575 823 663 823 Q691 823 718.5 818.5 Q746 814 766 806 L747 710 Q733 715 717 718 Q701 721 686 721 Q645 721 626 697 Q607 673 607 620 L607 571 L750 571 L750 475 L610 475 L610 0 L482 0 L482 475 L250 475 L250 0 Z " />
<glyph glyph-name="uniFB01" unicode="&#xfb01;" horiz-adv-x="668" d="M122 475 L9 475 L9 571 L122 571 L122 639 Q122 727 167.5 774.5 Q213 822 298 822 Q317 822 336.5 820.5 Q356 819 376 815 L376 722 Q365 723 356 723.5 Q347 724 331 724 Q283 724 265 702.5 Q247 681 247 625 L247 571 L376 571 L376 475 L250 475 L250 0 L122 0 L122 475 Z M600 686 L465 686 L465 815 L600 815 L600 686 Z M468 0 L468 571 L596 571 L596 0 L468 0 Z " />
<glyph glyph-name="uniFB02" unicode="&#xfb02;" horiz-adv-x="666" d="M122 475 L9 475 L9 571 L122 571 L122 639 Q122 727 167.5 774.5 Q213 822 298 822 Q317 822 336.5 820.5 Q356 819 376 815 L376 722 Q365 723 356 723.5 Q347 724 331 724 Q283 724 265 702.5 Q247 681 247 625 L247 571 L376 571 L376 475 L250 475 L250 0 L122 0 L122 475 Z M467 0 L467 815 L594 815 L594 0 L467 0 Z " />
<glyph glyph-name="uniFF3F" unicode="&#xff3f;" horiz-adv-x="620" d="M620 -131 L0 -131 L0 -65 L620 -65 L620 -131 Z " />
</font>
</defs>
</svg>
