<svg xmlns="http://www.w3.org/2000/svg">
<defs>
<font id="Garnett SemiBold">
<font-face  font-family="Garnett" units-per-em="1000" ascent="1070" descent="-323" font-style="normal" font-weight="600" font-stretch="normal" cap-height="774" x-height="575" underline-position="-160" underline-thickness="70" />

<glyph glyph-name="space" unicode="&#x20;" horiz-adv-x="185" d="" />
<glyph glyph-name="exclam" unicode="&#x21;" horiz-adv-x="294" d="M62 540 L62 774 L232 774 L232 540 L197 221 L97 221 L62 540 Z M230 0 L64 0 L64 160 L230 160 L230 0 Z " />
<glyph glyph-name="quotedbl" unicode="&#x22;" horiz-adv-x="443" d="M87 487 L63 774 L196 774 L173 487 L87 487 Z M271 487 L247 774 L380 774 L357 487 L271 487 Z " />
<glyph glyph-name="numbersign" unicode="&#x23;" horiz-adv-x="645" d="M110 225 L9 225 L9 323 L131 323 L163 475 L49 475 L49 573 L183 573 L217 733 L327 733 L293 573 L442 573 L475 733 L585 733 L551 573 L642 573 L642 475 L531 475 L499 323 L602 323 L602 225 L478 225 L441 49 L331 49 L368 225 L220 225 L183 49 L73 49 L110 225 Z M266 482 L231 316 L396 316 L430 482 L266 482 Z " />
<glyph glyph-name="dollar" unicode="&#x24;" horiz-adv-x="685" d="M416 -10 L416 -138 L276 -138 L276 -10 Q163 2 94.5 56.5 Q26 111 4 206 L168 253 Q181 204 210 174 Q239 144 284 132 L284 318 Q237 330 226 333 Q215 336 205 339 Q166 351 140 364 Q114 377 97 394 Q70 421 57 456 Q44 491 44 535 Q44 635 106 700.5 Q168 766 276 783 L276 887 L416 887 L416 783 Q508 768 569 714 Q630 660 656 568 L494 532 Q483 575 462 601.5 Q441 628 408 640 L408 453 Q433 448 456.5 441.5 Q480 435 502 428 Q544 415 568.5 402 Q593 389 609 373 Q634 348 646.5 314 Q659 280 659 237 Q659 135 595.5 70.5 Q532 6 416 -10 Z M212 552 Q212 519 227 502.5 Q242 486 284 476 L284 643 Q249 632 230.5 608.5 Q212 585 212 552 Z M491 222 Q491 253 474.5 268.5 Q458 284 408 294 L408 129 Q449 138 470 161.5 Q491 185 491 222 Z " />
<glyph glyph-name="percent" unicode="&#x25;" horiz-adv-x="959" d="M247 383 Q165 383 114.5 435.5 Q64 488 64 578 Q64 673 115 728 Q166 783 247 783 Q328 783 379.5 728 Q431 673 431 580 Q431 491 378.5 437 Q326 383 247 383 Z M689 774 L826 774 L268 0 L126 0 L689 774 Z M247 687 Q214 687 195 659 Q176 631 176 580 Q176 532 195 505.5 Q214 479 247 479 Q281 479 299 505 Q317 531 317 580 Q317 631 298.5 659 Q280 687 247 687 Z M712 -8 Q630 -8 579.5 44.5 Q529 97 529 187 Q529 282 580 337 Q631 392 712 392 Q794 392 845 337 Q896 282 896 189 Q896 100 843.5 46 Q791 -8 712 -8 Z M712 88 Q746 88 764 114.5 Q782 141 782 189 Q782 239 763.5 267 Q745 295 712 295 Q679 295 660 267 Q641 239 641 189 Q641 141 660 114.5 Q679 88 712 88 Z " />
<glyph glyph-name="ampersand" unicode="&#x26;" horiz-adv-x="865" d="M401 787 Q502 787 560.5 738.5 Q619 690 619 608 Q619 533 570.5 482 Q522 431 420 401 Q432 383 447 364.5 Q462 346 480 325 Q504 298 524.5 277 Q545 256 565 240 Q601 292 622.5 356.5 Q644 421 652 499 L803 474 Q793 390 760 306.5 Q727 223 681 167 Q722 149 765 140 Q808 131 854 131 Q865 131 871.5 131.5 Q878 132 885 133 L871 -8 Q861 -11 847.5 -12.5 Q834 -14 820 -14 Q747 -14 685.5 2.5 Q624 19 558 56 Q510 22 448 3.5 Q386 -15 317 -15 Q178 -15 104.5 43 Q31 101 31 210 Q31 294 75 354 Q119 414 206 449 Q190 483 182 516.5 Q174 550 174 580 Q174 675 234.5 731 Q295 787 401 787 Z M408 668 Q378 668 361 646 Q344 624 344 588 Q344 564 349.5 539.5 Q355 515 365 490 Q417 508 441.5 536 Q466 564 466 605 Q466 636 451.5 652 Q437 668 408 668 Z M254 351 Q230 334 218.5 310 Q207 286 207 250 Q207 193 246.5 162 Q286 131 356 131 Q374 131 392 134 Q410 137 427 143 Q408 160 388.5 179.5 Q369 199 349 222 Q321 253 297.5 285 Q274 317 254 351 Z " />
<glyph glyph-name="quotesingle" unicode="&#x27;" horiz-adv-x="259" d="M87 487 L63 774 L196 774 L173 487 L87 487 Z " />
<glyph glyph-name="parenleft" unicode="&#x28;" horiz-adv-x="348" d="M45 293 Q45 449 103 591 Q161 733 250 815 L396 815 Q304 699 260 571 Q216 443 216 293 Q216 145 259.5 17.5 Q303 -110 396 -231 L250 -231 Q158 -142 101.5 -1 Q45 140 45 293 Z " />
<glyph glyph-name="parenright" unicode="&#x29;" horiz-adv-x="348" d="M303 291 Q303 135 245 -7 Q187 -149 98 -231 L-48 -231 Q44 -115 88 13 Q132 141 132 291 Q132 439 88.5 566.5 Q45 694 -48 815 L98 815 Q190 726 246.5 585 Q303 444 303 291 Z " />
<glyph glyph-name="asterisk" unicode="&#x2a;" horiz-adv-x="447" d="M223 506 L149 380 L63 443 L159 553 L17 585 L49 686 L184 630 L170 774 L277 774 L265 630 L398 686 L430 585 L288 552 L384 443 L299 380 L223 506 Z " />
<glyph glyph-name="plus" unicode="&#x2b;" horiz-adv-x="568" d="M223 335 L66 335 L66 447 L223 447 L223 615 L345 615 L345 447 L502 447 L502 335 L345 335 L345 170 L223 170 L223 335 Z " />
<glyph glyph-name="comma" unicode="&#x2c;" horiz-adv-x="224" d="M104 0 L29 0 L29 160 L195 160 L195 12 Q195 -74 158.5 -112 Q122 -150 37 -154 L16 -76 Q69 -75 86.5 -60.5 Q104 -46 104 -4 L104 0 Z " />
<glyph glyph-name="hyphen" unicode="&#x2d;" horiz-adv-x="406" d="M363 270 L43 270 L43 385 L363 385 L363 270 Z " />
<glyph glyph-name="period" unicode="&#x2e;" horiz-adv-x="224" d="M195 0 L29 0 L29 160 L195 160 L195 0 Z " />
<glyph glyph-name="slash" unicode="&#x2f;" horiz-adv-x="444" d="M154 -231 L15 -231 L296 815 L436 815 L154 -231 Z " />
<glyph glyph-name="zero" unicode="0" horiz-adv-x="739" d="M368 -15 Q211 -15 127.5 87.5 Q44 190 44 386 Q44 572 134.5 680 Q225 788 376 788 Q524 788 610 681.5 Q696 575 696 387 Q696 199 608 92 Q520 -15 368 -15 Z M369 136 Q444 136 482 197.5 Q520 259 520 381 Q520 507 482.5 572 Q445 637 374 637 Q298 637 259 572.5 Q220 508 220 381 Q220 261 258 198.5 Q296 136 369 136 Z " />
<glyph glyph-name="one" unicode="1" horiz-adv-x="429" d="M12 561 L12 681 L135 681 Q179 681 192.5 692 Q206 703 209 744 L211 774 L347 774 L347 0 L175 0 L175 561 L12 561 Z " />
<glyph glyph-name="two" unicode="2" horiz-adv-x="684" d="M457 524 Q457 578 429 608 Q401 638 351 638 Q285 638 252 588.5 Q219 539 222 444 L57 472 Q60 620 141 703.5 Q222 787 358 787 Q483 788 557.5 720 Q632 652 632 538 Q632 453 585.5 383 Q539 313 428 231 L304 140 L647 140 L647 0 L55 0 L55 113 L293 290 Q381 356 419 410 Q457 464 457 524 Z " />
<glyph glyph-name="three" unicode="3" horiz-adv-x="650" d="M428 557 Q428 601 403 623.5 Q378 646 330 646 Q279 646 248 613.5 Q217 581 210 520 L53 554 Q74 662 150 723.5 Q226 785 340 785 Q458 785 527.5 730.5 Q597 676 597 584 Q597 520 560.5 474.5 Q524 429 458 409 L458 407 Q543 391 585 344.5 Q627 298 627 220 Q627 114 549 50 Q471 -14 343 -14 Q204 -14 124.5 49.5 Q45 113 30 237 L194 273 Q201 199 236.5 163.5 Q272 128 340 128 Q399 128 429.5 155.5 Q460 183 460 236 Q460 288 428.5 310 Q397 332 325 332 L222 332 L222 465 L298 465 Q366 465 397 486.5 Q428 508 428 557 Z " />
<glyph glyph-name="four" unicode="4" horiz-adv-x="678" d="M661 293 L661 155 L541 155 L541 0 L374 0 L374 155 L28 155 L28 306 L377 774 L541 774 L541 293 L661 293 Z M379 591 L165 293 L379 293 L379 591 Z " />
<glyph glyph-name="five" unicode="5" horiz-adv-x="675" d="M409 515 Q517 515 579.5 450.5 Q642 386 642 276 Q642 142 562 64.5 Q482 -13 344 -13 Q210 -13 128.5 51 Q47 115 28 235 L200 275 Q208 206 243.5 171.5 Q279 137 341 137 Q403 137 437 175 Q471 213 471 279 Q471 340 437.5 373.5 Q404 407 344 407 Q301 407 266 389.5 Q231 372 208 339 L63 357 L123 774 L593 774 L592 629 L254 629 L229 448 L231 448 Q265 481 310 498 Q355 515 409 515 Z " />
<glyph glyph-name="six" unicode="6" horiz-adv-x="696" d="M374 -14 Q214 -14 127 88 Q40 190 40 376 Q40 564 136 676 Q232 788 397 788 Q484 788 554.5 749.5 Q625 711 668 640 L517 551 Q492 593 461 612.5 Q430 632 386 632 Q304 632 260 569 Q216 506 211 384 L214 384 Q246 439 301 468.5 Q356 498 428 498 Q534 498 600 432.5 Q666 367 666 259 Q666 135 585 60.5 Q504 -14 374 -14 Z M367 384 Q306 384 270.5 350.5 Q235 317 235 259 Q235 202 271.5 168.5 Q308 135 369 135 Q427 135 461 169.5 Q495 204 495 262 Q495 318 460.5 351 Q426 384 367 384 Z " />
<glyph glyph-name="seven" unicode="7" horiz-adv-x="593" d="M396 392 Q382 331 375.5 251 Q369 171 369 48 L369 0 L190 0 L190 48 Q190 248 246.5 393 Q303 538 414 625 L20 625 L20 774 L581 774 L581 671 Q508 625 462.5 557.5 Q417 490 396 392 Z " />
<glyph glyph-name="eight" unicode="8" horiz-adv-x="721" d="M676 218 Q676 111 589 48 Q502 -15 355 -15 Q210 -15 127.5 42.5 Q45 100 45 201 Q45 275 88 326 Q131 377 214 401 L214 404 Q149 425 114.5 467.5 Q80 510 80 569 Q80 666 158.5 726 Q237 786 363 786 Q491 786 566.5 730 Q642 674 642 579 Q642 520 606.5 475 Q571 430 507 406 L507 404 Q589 383 632.5 335 Q676 287 676 218 Z M479 552 Q479 596 447.5 622.5 Q416 649 362 649 Q307 649 274.5 621.5 Q242 594 242 547 Q242 498 273.5 471 Q305 444 362 444 Q416 444 447.5 473 Q479 502 479 552 Z M216 235 Q216 183 253.5 155.5 Q291 128 362 128 Q428 128 466.5 159 Q505 190 505 243 Q505 293 467.5 321.5 Q430 350 364 350 Q296 350 256 319 Q216 288 216 235 Z " />
<glyph glyph-name="nine" unicode="9" horiz-adv-x="704" d="M335 788 Q487 788 573.5 684.5 Q660 581 660 398 Q660 200 572 93 Q484 -14 321 -14 Q220 -14 140 27 Q60 68 24 138 L171 225 Q195 180 233.5 157 Q272 134 323 134 Q405 134 446.5 199 Q488 264 490 398 L486 398 Q454 342 397 311 Q340 280 269 280 Q164 280 100.5 344.5 Q37 409 37 516 Q37 636 120.5 712 Q204 788 335 788 Z M337 394 Q392 394 428 428 Q464 462 464 517 Q464 576 431.5 607.5 Q399 639 339 639 Q280 639 244 604.5 Q208 570 208 514 Q208 457 242 425.5 Q276 394 337 394 Z " />
<glyph glyph-name="colon" unicode="&#x3a;" horiz-adv-x="224" d="M195 0 L29 0 L29 160 L195 160 L195 0 Z M195 368 L29 368 L29 528 L195 528 L195 368 Z " />
<glyph glyph-name="semicolon" unicode="&#x3b;" horiz-adv-x="224" d="M104 0 L29 0 L29 160 L195 160 L195 12 Q195 -74 158.5 -112 Q122 -150 37 -154 L16 -76 Q69 -75 86.5 -60.5 Q104 -46 104 -4 L104 0 Z M195 368 L29 368 L29 528 L195 528 L195 368 Z " />
<glyph glyph-name="less" unicode="&#x3c;" horiz-adv-x="568" d="M495 93 L58 316 L58 392 L495 614 L495 491 L216 356 L495 219 L495 93 Z " />
<glyph glyph-name="equal" unicode="&#x3d;" horiz-adv-x="568" d="M502 396 L66 396 L66 509 L502 509 L502 396 Z M502 192 L66 192 L66 304 L502 304 L502 192 Z " />
<glyph glyph-name="greater" unicode="&#x3e;" horiz-adv-x="568" d="M72 614 L510 391 L510 315 L72 93 L72 216 L351 351 L72 488 L72 614 Z " />
<glyph glyph-name="question" unicode="&#x3f;" horiz-adv-x="585" d="M295 643 Q235 643 202.5 607 Q170 571 160 496 L-4 524 Q16 648 98 718 Q180 788 305 788 Q427 788 502.5 727 Q578 666 578 567 Q578 509 551.5 463 Q525 417 458 367 Q458 367 429.5 346 Q401 325 390 314 Q372 298 365.5 281 Q359 264 359 237 L359 220 L208 220 L208 250 Q208 300 226 335 Q244 370 306 421 Q359 465 376.5 493 Q394 521 394 553 Q394 596 368 619.5 Q342 643 295 643 Z M366 0 L200 0 L200 160 L366 160 L366 0 Z " />
<glyph glyph-name="at" unicode="&#x40;" horiz-adv-x="964" d="M771 109 Q811 109 832 155 Q853 201 854 288 Q854 451 760 545 Q666 639 503 639 Q337 639 228.5 524 Q120 409 120 229 Q120 65 220 -25 Q320 -115 497 -115 Q562 -115 623.5 -101 Q685 -87 743 -58 L743 -152 Q695 -175 629.5 -188.5 Q564 -202 497 -202 Q279 -202 151 -87.5 Q23 27 23 228 Q23 334 57 424.5 Q91 515 157 582 Q223 650 313 686 Q403 722 506 722 Q702 722 825.5 605 Q949 488 949 300 Q949 164 893.5 95.5 Q838 27 728 27 Q658 27 614 54.5 Q570 82 566 128 L564 128 Q543 76 502 48 Q461 20 403 20 Q334 20 294 56.5 Q254 93 254 156 Q254 189 267 217 Q280 245 306 265 Q328 281 360 291.5 Q392 302 434 307 L497 315 Q533 320 549.5 332 Q566 344 566 366 Q566 388 550.5 400.5 Q535 413 508 413 Q473 413 452.5 394.5 Q432 376 425 338 L278 361 Q301 444 362 489 Q423 534 514 534 Q615 534 670 483.5 Q725 433 726 338 L726 175 Q726 136 736 122.5 Q746 109 771 109 Z M417 179 Q417 154 433.5 140 Q450 126 478 126 Q519 126 543.5 157.5 Q568 189 568 241 L568 258 Q563 254 554.5 251.5 Q546 249 532 247 L483 239 Q450 234 433.5 219 Q417 204 417 179 Z " />
<glyph glyph-name="A" unicode="A" horiz-adv-x="755" d="M183 0 L12 0 L267 774 L475 774 L743 0 L559 0 L512 152 L229 152 L183 0 Z M370 617 L269 284 L472 284 L370 617 Z " />
<glyph glyph-name="B" unicode="B" horiz-adv-x="733" d="M418 0 L69 0 L69 774 L397 774 Q539 774 609.5 726 Q680 678 680 581 Q680 522 645 475 Q610 428 549 406 L549 404 Q626 387 668 339.5 Q710 292 710 224 Q710 111 637.5 55.5 Q565 0 418 0 Z M510 551 Q510 593 480 613.5 Q450 634 390 634 L241 634 L241 460 L389 460 Q450 460 480 482.5 Q510 505 510 551 Z M536 236 Q536 283 503 304.5 Q470 326 397 326 L241 326 L241 140 L405 140 Q472 140 504 163.5 Q536 187 536 236 Z " />
<glyph glyph-name="C" unicode="C" horiz-adv-x="765" d="M404 -14 Q235 -14 136.5 91 Q38 196 38 378 Q38 563 142 675.5 Q246 788 412 788 Q548 788 636.5 712 Q725 636 751 496 L579 463 Q563 550 520.5 593.5 Q478 637 409 637 Q317 637 265.5 570.5 Q214 504 214 383 Q214 267 265.5 202 Q317 137 409 137 Q480 137 523 176.5 Q566 216 587 300 L755 263 Q725 130 634 58 Q543 -14 404 -14 Z " />
<glyph glyph-name="D" unicode="D" horiz-adv-x="792" d="M69 0 L69 774 L328 774 Q533 774 644.5 673 Q756 572 756 390 Q756 211 642 105.5 Q528 0 330 0 L69 0 Z M580 394 Q580 510 518 570 Q456 630 337 630 L241 630 L241 144 L333 144 Q455 144 517.5 207.5 Q580 271 580 394 Z " />
<glyph glyph-name="E" unicode="E" horiz-adv-x="670" d="M69 0 L69 774 L614 774 L614 634 L241 634 L241 467 L592 467 L592 330 L241 330 L241 140 L634 140 L634 0 L69 0 Z " />
<glyph glyph-name="F" unicode="F" horiz-adv-x="637" d="M69 0 L69 774 L603 774 L603 634 L241 634 L241 432 L566 432 L566 295 L241 295 L241 0 L69 0 Z " />
<glyph glyph-name="G" unicode="G" horiz-adv-x="799" d="M622 0 L608 128 L605 128 Q569 59 507 22.5 Q445 -14 363 -14 Q209 -14 123.5 88.5 Q38 191 38 370 Q38 561 141.5 674.5 Q245 788 412 788 Q544 788 633 716 Q722 644 754 511 L588 471 Q569 553 523.5 595 Q478 637 409 637 Q319 637 266.5 567 Q214 497 214 377 Q214 256 266.5 191 Q319 126 419 126 Q503 126 551 164.5 Q599 203 599 271 L599 273 L400 273 L400 402 L753 402 L753 0 L622 0 Z " />
<glyph glyph-name="H" unicode="H" horiz-adv-x="801" d="M69 0 L69 774 L241 774 L241 467 L560 467 L560 774 L732 774 L732 0 L560 0 L560 317 L241 317 L241 0 L69 0 Z " />
<glyph glyph-name="I" unicode="I" horiz-adv-x="316" d="M72 0 L72 774 L244 774 L244 0 L72 0 Z " />
<glyph glyph-name="J" unicode="J" horiz-adv-x="606" d="M545 774 L545 251 Q545 183 528.5 132.5 Q512 82 479 50 Q446 18 397.5 2 Q349 -14 285 -14 Q158 -14 94 46.5 Q30 107 30 227 L30 324 L190 358 L190 256 Q190 193 212 163 Q234 133 281 133 Q328 133 350.5 162.5 Q373 192 373 254 L373 774 L545 774 Z " />
<glyph glyph-name="K" unicode="K" horiz-adv-x="734" d="M730 0 L543 0 L358 369 L241 223 L241 0 L69 0 L69 774 L241 774 L241 407 L517 774 L706 774 L484 475 L730 0 Z " />
<glyph glyph-name="L" unicode="L" horiz-adv-x="649" d="M69 0 L69 774 L241 774 L241 140 L627 140 L627 0 L69 0 Z " />
<glyph glyph-name="M" unicode="M" horiz-adv-x="946" d="M69 0 L69 774 L292 774 L483 211 L675 774 L877 774 L877 0 L717 0 L717 527 L547 0 L395 0 L224 523 L224 0 L69 0 Z " />
<glyph glyph-name="N" unicode="N" horiz-adv-x="791" d="M567 774 L722 774 L722 0 L547 0 L224 544 L224 0 L69 0 L69 774 L269 774 L567 262 L567 774 Z " />
<glyph glyph-name="O" unicode="O" horiz-adv-x="805" d="M407 -14 Q236 -14 137 91.5 Q38 197 38 380 Q38 564 138.5 676 Q239 788 405 788 Q571 788 669 679.5 Q767 571 767 389 Q767 204 669.5 95 Q572 -14 407 -14 Z M547 206 Q569 237 580 281.5 Q591 326 591 383 Q591 504 542.5 570.5 Q494 637 406 637 Q358 637 320.5 618.5 Q283 600 258 563 Q236 530 225 485 Q214 440 214 383 Q214 268 265 202.5 Q316 137 405 137 Q451 137 487 154.5 Q523 172 547 206 Z " />
<glyph glyph-name="P" unicode="P" horiz-adv-x="695" d="M69 0 L69 774 L376 774 Q521 774 597.5 713.5 Q674 653 674 537 Q674 409 595.5 339.5 Q517 270 371 270 L241 270 L241 0 L69 0 Z M498 528 Q498 582 465 609.5 Q432 637 368 637 L241 637 L241 405 L370 405 Q435 405 466.5 435 Q498 465 498 528 Z " />
<glyph glyph-name="Q" unicode="Q" horiz-adv-x="804" d="M666 -125 Q602 -125 556.5 -95 Q511 -65 485 -5 Q469 -8 450 -10 Q431 -12 409 -12 Q238 -12 138 93.5 Q38 199 38 380 Q38 564 138.5 676 Q239 788 405 788 Q571 788 669 679.5 Q767 571 767 389 Q767 280 729.5 194.5 Q692 109 621 57 Q630 27 645.5 12 Q661 -3 685 -3 Q706 -3 718 14.5 Q730 32 736 71 L838 45 Q826 -40 783 -82.5 Q740 -125 666 -125 Z M566 241 Q578 269 584.5 304.5 Q591 340 591 383 Q591 505 542.5 571 Q494 637 406 637 Q358 637 320.5 618.5 Q283 600 258 563 Q236 530 225 485 Q214 440 214 383 Q214 310 231.5 258 Q249 206 283 176 L286 178 Q282 189 280 201 Q278 213 278 225 Q278 283 314.5 319 Q351 355 410 355 Q464 355 504 326 Q544 297 566 241 Z M387 234 Q366 234 354.5 222.5 Q343 211 343 190 Q343 165 361 151.5 Q379 138 411 138 Q419 138 428 139 Q437 140 452 142 Q445 190 429.5 212 Q414 234 387 234 Z " />
<glyph glyph-name="R" unicode="R" horiz-adv-x="718" d="M431 260 Q419 269 403 272.5 Q387 276 354 276 L241 276 L241 0 L69 0 L69 774 L408 774 Q545 774 619 719 Q693 664 693 563 Q693 476 640 419.5 Q587 363 491 347 L491 344 Q557 327 589.5 290.5 Q622 254 641 179 Q658 111 670.5 69.5 Q683 28 694 5 L694 0 L510 0 Q502 20 494.5 52.5 Q487 85 475 148 Q465 203 456.5 225 Q448 247 431 260 Z M518 531 Q518 587 482 613.5 Q446 640 371 640 L241 640 L241 407 L371 407 Q445 407 481.5 438 Q518 469 518 531 Z " />
<glyph glyph-name="S" unicode="S" horiz-adv-x="685" d="M607 376 Q633 350 646 315.5 Q659 281 659 237 Q659 120 575.5 53 Q492 -14 347 -14 Q203 -14 116 41.5 Q29 97 4 206 L168 253 Q185 190 231 158.5 Q277 127 353 127 Q418 127 452.5 151.5 Q487 176 487 222 Q487 253 464 270 Q441 287 363 301 Q287 315 258.5 321.5 Q230 328 204 336 Q169 346 142.5 360.5 Q116 375 97 394 Q70 421 57 456 Q44 491 44 535 Q44 652 126.5 720 Q209 788 346 788 Q467 788 546 732 Q625 676 656 568 L494 532 Q479 591 441.5 619 Q404 647 341 647 Q284 647 250 621.5 Q216 596 216 552 Q216 524 232 506 Q248 488 284 477 Q296 473 311.5 469.5 Q327 466 394 455 Q431 449 456 443.5 Q481 438 502 431 Q539 420 564.5 406.5 Q590 393 607 376 Z " />
<glyph glyph-name="T" unicode="T" horiz-adv-x="678" d="M663 774 L663 634 L425 634 L425 0 L253 0 L253 634 L15 634 L15 774 L663 774 Z " />
<glyph glyph-name="U" unicode="U" horiz-adv-x="776" d="M231 774 L231 319 Q231 227 271 183.5 Q311 140 396 140 Q475 140 511 183 Q547 226 547 319 L547 774 L717 774 L717 313 Q717 153 634.5 69.5 Q552 -14 394 -14 Q226 -14 142.5 64.5 Q59 143 59 300 L59 774 L231 774 Z " />
<glyph glyph-name="V" unicode="V" horiz-adv-x="761" d="M288 0 L15 774 L191 774 L387 174 L569 774 L746 774 L483 0 L288 0 Z " />
<glyph glyph-name="W" unicode="W" horiz-adv-x="1058" d="M212 0 L15 774 L182 774 L311 234 L447 774 L611 774 L755 229 L874 774 L1043 774 L853 0 L673 0 L529 567 L393 0 L212 0 Z " />
<glyph glyph-name="X" unicode="X" horiz-adv-x="734" d="M718 0 L533 0 L366 272 L201 0 L15 0 L264 395 L26 774 L214 774 L377 510 L541 774 L713 774 L475 389 L718 0 Z " />
<glyph glyph-name="Y" unicode="Y" horiz-adv-x="667" d="M508 774 L674 774 L425 300 L425 0 L253 0 L253 304 L-9 774 L173 774 L342 452 L508 774 Z " />
<glyph glyph-name="Z" unicode="Z" horiz-adv-x="672" d="M451 634 L50 634 L50 774 L637 774 L637 631 L231 140 L647 140 L647 0 L35 0 L35 144 L451 634 Z " />
<glyph glyph-name="bracketleft" unicode="&#x5b;" horiz-adv-x="438" d="M76 -231 L76 815 L427 815 L427 699 L235 699 L235 -115 L429 -115 L429 -231 L76 -231 Z " />
<glyph glyph-name="backslash" unicode="&#x5c;" horiz-adv-x="444" d="M147 815 L430 -231 L290 -231 L8 815 L147 815 Z " />
<glyph glyph-name="bracketright" unicode="&#x5d;" horiz-adv-x="438" d="M362 815 L362 -231 L11 -231 L11 -115 L203 -115 L203 699 L9 699 L9 815 L362 815 Z " />
<glyph glyph-name="asciicircum" unicode="&#x5e;" horiz-adv-x="402" d="M248 774 L379 470 L261 470 L202 629 L142 470 L23 470 L155 774 L248 774 Z " />
<glyph glyph-name="uni005F" unicode="&#x5f;" horiz-adv-x="434" d="M434 -132 L0 -132 L0 -55 L434 -55 L434 -132 Z " />
<glyph glyph-name="grave" unicode="&#x60;" horiz-adv-x="500" d="M293 816 L364 628 L248 628 L137 816 L293 816 Z " />
<glyph glyph-name="a" unicode="a" horiz-adv-x="640" d="M545 -11 Q477 -11 439 15.5 Q401 42 394 95 L391 95 Q363 42 314.5 14 Q266 -14 200 -14 Q120 -14 73 29 Q26 72 26 146 Q26 191 43 224.5 Q60 258 95 280 Q121 297 156.5 308 Q192 319 239 325 L318 335 Q359 340 377.5 354.5 Q396 369 396 397 Q396 426 375.5 442 Q355 458 318 458 Q272 458 244.5 435 Q217 412 207 365 L54 388 Q81 485 150 536.5 Q219 588 322 588 Q436 588 496 531 Q556 474 556 364 L556 167 Q556 134 568.5 121 Q581 108 613 108 Q620 108 625.5 108.5 Q631 109 638 110 L638 2 Q624 -4 598 -7.5 Q572 -11 545 -11 Z M197 169 Q197 136 217 118 Q237 100 274 100 Q329 100 362 142 Q395 184 395 252 L395 270 Q385 264 372 259.5 Q359 255 341 253 L279 243 Q237 236 217 218 Q197 200 197 169 Z " />
<glyph glyph-name="b" unicode="b" horiz-adv-x="666" d="M408 588 Q513 588 573 508 Q633 428 633 288 Q633 149 571.5 67.5 Q510 -14 406 -14 Q342 -14 297.5 13.5 Q253 41 228 97 L225 97 L225 0 L62 0 L62 815 L228 815 L228 472 L231 472 Q258 529 303 558.5 Q348 588 408 588 Z M464 288 Q464 364 432 408.5 Q400 453 346 453 Q290 453 258 408.5 Q226 364 226 285 Q226 210 257.5 166.5 Q289 123 344 123 Q400 123 432 167 Q464 211 464 288 Z " />
<glyph glyph-name="c" unicode="c" horiz-adv-x="621" d="M322 449 Q267 449 234.5 406 Q202 363 202 288 Q202 212 234 168.5 Q266 125 323 125 Q368 125 396.5 150.5 Q425 176 437 227 L598 199 Q576 99 503.5 42.5 Q431 -14 320 -14 Q183 -14 108 64 Q33 142 33 282 Q33 419 113 503.5 Q193 588 322 588 Q433 588 502.5 529.5 Q572 471 595 359 L431 335 Q420 392 393 420.5 Q366 449 322 449 Z " />
<glyph glyph-name="d" unicode="d" horiz-adv-x="666" d="M260 -13 Q162 -13 97.5 68.5 Q33 150 33 281 Q33 419 102.5 504 Q172 589 277 589 Q331 589 370.5 564 Q410 539 435 489 L438 489 L438 815 L604 815 L604 0 L441 0 L441 101 L438 101 Q412 45 367 16 Q322 -13 260 -13 Z M202 285 Q202 210 233.5 166.5 Q265 123 320 123 Q376 123 408 167 Q440 211 440 288 Q440 364 408 408.5 Q376 453 322 453 Q266 453 234 408.5 Q202 364 202 285 Z " />
<glyph glyph-name="e" unicode="e" horiz-adv-x="624" d="M329 -14 Q192 -14 112.5 65.5 Q33 145 33 282 Q33 416 115 502 Q197 588 324 588 Q405 588 464.5 554.5 Q524 521 557 456 Q578 414 588 363 Q598 312 596 250 L199 250 Q204 188 240 153 Q276 118 334 118 Q382 118 414 139.5 Q446 161 462 204 L603 163 Q572 78 500.5 32 Q429 -14 329 -14 Z M417 406 Q406 431 381.5 445 Q357 459 324 459 Q274 459 242 431 Q210 403 201 351 L431 351 Q430 366 426.5 379.5 Q423 393 417 406 Z " />
<glyph glyph-name="f" unicode="f" horiz-adv-x="436" d="M285 0 L119 0 L119 453 L7 453 L7 575 L119 575 L119 614 Q119 715 170.5 769.5 Q222 824 318 824 Q349 824 380.5 819 Q412 814 435 805 L413 682 Q399 687 384 690 Q369 693 354 693 Q316 693 298.5 672 Q281 651 281 605 L281 575 L416 575 L416 453 L285 453 L285 0 Z " />
<glyph glyph-name="g" unicode="g" horiz-adv-x="624" d="M282 -198 Q139 -198 71 -168.5 Q3 -139 3 -78 Q3 -40 33.5 -14 Q64 12 119 20 L119 22 Q80 33 59.5 56 Q39 79 39 111 Q39 151 64 177.5 Q89 204 141 221 L141 223 Q98 248 75.5 288 Q53 328 53 380 Q53 473 120 530.5 Q187 588 296 588 Q344 588 385 576.5 Q426 565 458 543 L520 663 L629 577 L502 500 Q521 475 530.5 445.5 Q540 416 540 382 Q540 292 475.5 239.5 Q411 187 301 187 Q268 187 239.5 191 Q211 195 188 203 Q175 198 168.5 190 Q162 182 162 170 Q162 153 180.5 144.5 Q199 136 237 136 L438 136 Q532 136 578.5 103 Q625 70 625 3 Q625 -95 537.5 -146.5 Q450 -198 282 -198 Z M214 384 Q214 345 237 322.5 Q260 300 300 300 Q338 300 358.5 323 Q379 346 379 390 Q379 429 357 452 Q335 475 297 475 Q259 475 236.5 450 Q214 425 214 384 Z M473 -30 Q473 -13 458 -5.5 Q443 2 407 2 L241 2 Q193 2 170.5 -8 Q148 -18 148 -40 Q148 -66 185 -79 Q222 -92 297 -92 Q381 -92 427 -75.5 Q473 -59 473 -30 Z " />
<glyph glyph-name="h" unicode="h" horiz-adv-x="668" d="M62 0 L62 815 L228 815 L228 477 L231 477 Q262 530 310.5 558.5 Q359 587 418 587 Q512 587 561.5 526.5 Q611 466 611 351 L611 0 L445 0 L445 305 Q445 384 421.5 419.5 Q398 455 346 455 Q290 455 259 414.5 Q228 374 228 301 L228 0 L62 0 Z " />
<glyph glyph-name="i" unicode="i" horiz-adv-x="292" d="M232 661 L60 661 L60 815 L232 815 L232 661 Z M63 0 L63 575 L229 575 L229 0 L63 0 Z " />
<glyph glyph-name="j" unicode="j" horiz-adv-x="292" d="M232 661 L60 661 L60 815 L232 815 L232 661 Z M-41 -185 L-56 -64 Q-40 -66 -30 -67 Q-20 -68 -9 -68 Q30 -68 46.5 -51.5 Q63 -35 63 3 L63 575 L229 575 L229 -1 Q229 -101 183.5 -149 Q138 -197 43 -197 Q22 -197 0 -194 Q-22 -191 -41 -185 Z " />
<glyph glyph-name="k" unicode="k" horiz-adv-x="629" d="M637 0 L455 0 L305 265 L229 185 L229 0 L62 0 L62 815 L229 815 L229 336 L442 575 L632 575 L430 347 L637 0 Z " />
<glyph glyph-name="l" unicode="l" horiz-adv-x="290" d="M62 0 L62 815 L228 815 L228 0 L62 0 Z " />
<glyph glyph-name="m" unicode="m" horiz-adv-x="1009" d="M62 0 L62 575 L225 575 L225 472 L228 472 Q258 528 304.5 557.5 Q351 587 409 587 Q477 587 519 550.5 Q561 514 574 443 L577 443 Q605 512 656 549.5 Q707 587 771 587 Q859 587 905.5 526.5 Q952 466 952 351 L952 0 L786 0 L786 313 Q786 388 765 421.5 Q744 455 698 455 Q647 455 618.5 414 Q590 373 590 297 L590 0 L424 0 L424 313 Q424 388 403 421.5 Q382 455 336 455 Q285 455 256.5 414 Q228 373 228 297 L228 0 L62 0 Z " />
<glyph glyph-name="n" unicode="n" horiz-adv-x="668" d="M62 0 L62 575 L225 575 L225 472 L228 472 Q259 527 308 557 Q357 587 418 587 Q512 587 561.5 526.5 Q611 466 611 351 L611 0 L445 0 L445 305 Q445 384 421.5 419.5 Q398 455 346 455 Q290 455 259 414.5 Q228 374 228 301 L228 0 L62 0 Z " />
<glyph glyph-name="o" unicode="o" horiz-adv-x="649" d="M325 -14 Q189 -14 111 65.5 Q33 145 34 286 Q35 424 116 506.5 Q197 589 328 589 Q459 589 538 508.5 Q617 428 617 290 Q617 147 538.5 66.5 Q460 -14 325 -14 Z M326 123 Q386 123 417 165 Q448 207 448 287 Q448 366 416 409 Q384 452 326 452 Q267 452 235 409.5 Q203 367 203 287 Q203 209 235.5 166 Q268 123 326 123 Z " />
<glyph glyph-name="p" unicode="p" horiz-adv-x="666" d="M228 -185 L62 -185 L62 575 L225 575 L225 465 L228 465 Q254 525 300 556.5 Q346 588 408 588 Q513 588 573 508 Q633 428 633 288 Q633 149 571.5 67.5 Q510 -14 406 -14 Q344 -14 300.5 12 Q257 38 231 90 L228 90 L228 -185 Z M464 288 Q464 364 432 408.5 Q400 453 346 453 Q290 453 258 408.5 Q226 364 226 285 Q226 210 257.5 166.5 Q289 123 344 123 Q400 123 432 167 Q464 211 464 288 Z " />
<glyph glyph-name="q" unicode="q" horiz-adv-x="666" d="M33 281 Q33 420 103 504.5 Q173 589 280 589 Q335 589 374.5 562 Q414 535 438 482 L441 482 L441 575 L604 575 L604 -186 L438 -185 L438 95 L435 95 Q408 41 364 14 Q320 -13 260 -13 Q162 -13 97.5 68.5 Q33 150 33 281 Z M440 288 Q440 364 408 408.5 Q376 453 322 453 Q266 453 234 408.5 Q202 364 202 285 Q202 210 233.5 166.5 Q265 123 320 123 Q376 123 408 167 Q440 211 440 288 Z " />
<glyph glyph-name="r" unicode="r" horiz-adv-x="552" d="M391 587 Q459 587 497.5 541.5 Q536 496 536 413 Q536 393 533.5 371 Q531 349 527 324 L373 309 Q377 324 379.5 345.5 Q382 367 382 384 Q382 428 365.5 450.5 Q349 473 318 473 Q274 473 251 431 Q228 389 228 307 L228 0 L62 0 L62 575 L227 575 L227 480 L230 480 Q256 533 296.5 560 Q337 587 391 587 Z " />
<glyph glyph-name="s" unicode="s" horiz-adv-x="581" d="M304 107 Q348 107 372 122.5 Q396 138 396 166 Q396 183 383.5 193 Q371 203 337 208 Q327 210 299.5 213.5 Q272 217 256 220 Q169 234 136.5 246.5 Q104 259 84 279 Q63 300 52.5 328.5 Q42 357 42 393 Q42 481 108 534 Q174 587 282 587 Q384 587 452 540.5 Q520 494 538 413 L395 389 Q388 427 358.5 447 Q329 467 282 467 Q243 467 221 451.5 Q199 436 199 407 Q199 387 211 376 Q223 365 254 359 Q268 356 297.5 352 Q327 348 335 347 Q429 334 460.5 322 Q492 310 512 291 Q533 272 543 244.5 Q553 217 553 180 Q553 92 484.5 39.5 Q416 -13 301 -13 Q182 -13 109.5 32 Q37 77 17 163 L170 193 Q180 150 213 128.5 Q246 107 304 107 Z " />
<glyph glyph-name="t" unicode="t" horiz-adv-x="435" d="M354 117 Q369 117 383 118 Q397 119 412 122 L412 5 Q383 -4 353.5 -8.5 Q324 -13 289 -13 Q190 -13 144.5 32 Q99 77 99 176 L99 453 L-13 453 L-13 575 L102 575 L102 681 L265 743 L265 575 L411 575 L411 453 L265 453 L265 203 Q265 153 283.5 135 Q302 117 354 117 Z " />
<glyph glyph-name="u" unicode="u" horiz-adv-x="664" d="M246 -12 Q152 -12 103.5 47 Q55 106 55 221 L55 575 L221 575 L221 270 Q221 190 244 155 Q267 120 318 120 Q374 120 405 160.5 Q436 201 436 274 L436 575 L602 575 L602 0 L439 0 L439 103 L436 103 Q405 48 356 18 Q307 -12 246 -12 Z " />
<glyph glyph-name="v" unicode="v" horiz-adv-x="609" d="M436 575 L603 575 L402 0 L213 0 L6 575 L178 575 L310 158 L436 575 Z " />
<glyph glyph-name="w" unicode="w" horiz-adv-x="869" d="M704 0 L538 0 L437 389 L342 0 L168 0 L6 575 L175 575 L267 186 L369 575 L510 575 L619 181 L708 575 L863 575 L704 0 Z " />
<glyph glyph-name="x" unicode="x" horiz-adv-x="613" d="M604 0 L429 0 L298 189 L181 0 L5 0 L202 299 L16 575 L191 575 L310 398 L420 575 L586 575 L402 288 L604 0 Z " />
<glyph glyph-name="y" unicode="y" horiz-adv-x="607" d="M600 575 L408 36 Q361 -96 302 -147 Q243 -198 140 -198 Q93 -198 50.5 -191.5 Q8 -185 -20 -173 L17 -32 Q51 -44 76.5 -48.5 Q102 -53 129 -53 Q156 -53 174.5 -46.5 Q193 -40 207 -26 Q211 -22 214 -18 Q217 -14 220 -9 L3 575 L177 575 L309 169 L432 575 L600 575 Z " />
<glyph glyph-name="z" unicode="z" horiz-adv-x="561" d="M335 447 L46 447 L46 575 L528 575 L528 439 L232 128 L537 128 L537 0 L29 0 L29 136 L335 447 Z " />
<glyph glyph-name="braceleft" unicode="&#x7b;" horiz-adv-x="435" d="M349 -101 L428 -101 L428 -231 L303 -231 Q214 -231 173.5 -191 Q133 -151 137 -68 L149 155 Q151 195 136.5 210.5 Q122 226 79 226 L6 226 L6 358 L79 358 Q120 358 135.5 374 Q151 390 149 429 L137 652 Q133 736 173 775.5 Q213 815 303 815 L428 815 L428 685 L349 685 Q316 685 303.5 674 Q291 663 291 635 L291 427 Q291 365 262.5 333.5 Q234 302 170 294 L170 292 Q234 283 262.5 251.5 Q291 220 291 157 L291 -51 Q291 -79 303.5 -90 Q316 -101 349 -101 Z " />
<glyph glyph-name="bar" unicode="&#x7c;" horiz-adv-x="239" d="M53 -231 L53 815 L186 815 L186 -231 L53 -231 Z " />
<glyph glyph-name="braceright" unicode="&#x7d;" horiz-adv-x="435" d="M87 687 L8 687 L8 817 L133 817 Q222 817 262.5 777 Q303 737 299 654 L287 431 Q285 391 299.5 375.5 Q314 360 357 360 L430 360 L430 228 L357 228 Q316 228 300.5 212 Q285 196 287 157 L299 -66 Q303 -150 263 -189.5 Q223 -229 133 -229 L8 -229 L8 -99 L87 -99 Q120 -99 132.5 -88 Q145 -77 145 -49 L145 159 Q145 221 173.5 252.5 Q202 284 266 292 L266 294 Q202 303 173.5 334.5 Q145 366 145 429 L145 637 Q145 665 132.5 676 Q120 687 87 687 Z " />
<glyph glyph-name="asciitilde" unicode="&#x7e;" horiz-adv-x="499" d="M342 397 Q356 397 361 410.5 Q366 424 366 459 L366 492 L472 476 L472 430 Q472 341 444 298.5 Q416 256 357 256 Q329 256 304.5 265 Q280 274 251 296 L217 322 Q194 340 183 345.5 Q172 351 160 351 Q144 351 138 337.5 Q132 324 132 290 L132 255 L25 271 L25 316 Q25 404 55.5 448 Q86 492 148 492 Q175 492 199.5 483 Q224 474 248 455 L278 431 Q304 410 317 403.5 Q330 397 342 397 Z " />
<glyph glyph-name="exclamdown" unicode="&#xa1;" horiz-adv-x="294" d="M232 35 L232 -199 L62 -199 L62 35 L97 354 L197 354 L232 35 Z M64 575 L230 575 L230 415 L64 415 L64 575 Z " />
<glyph glyph-name="cent" unicode="&#xa2;" horiz-adv-x="621" d="M322 449 Q267 449 234.5 406 Q202 363 202 288 Q202 212 234 168.5 Q266 125 323 125 Q368 125 396.5 150.5 Q425 176 437 227 L598 199 Q580 117 526 63 Q472 9 390 -8 L390 -157 L250 -157 L250 -8 Q145 11 89 86 Q33 161 33 282 Q33 397 91.5 477.5 Q150 558 250 580 L250 713 L390 713 L390 582 Q472 566 523.5 509.5 Q575 453 595 359 L431 335 Q420 392 393 420.5 Q366 449 322 449 Z " />
<glyph glyph-name="sterling" unicode="&#xa3;" horiz-adv-x="737" d="M159 307 L31 307 L31 407 L113 407 Q103 435 98.5 460 Q94 485 94 508 Q94 636 177 712 Q260 788 400 788 Q529 788 600.5 716 Q672 644 685 502 L507 472 Q503 550 474 588 Q445 626 390 626 Q331 626 299.5 591 Q268 556 268 490 Q268 469 270.5 450.5 Q273 432 280 407 L547 407 L547 307 L309 307 Q320 269 325 242 Q330 215 330 191 L330 178 Q381 153 413.5 144.5 Q446 136 479 136 Q525 136 543 153.5 Q561 171 563 217 L564 250 L709 250 Q712 234 714 212 Q716 190 716 173 Q716 86 666 37 Q616 -12 527 -12 Q472 -12 423 7 Q374 26 304 81 Q281 39 243 15.5 Q205 -8 158 -8 Q96 -8 61 21.5 Q26 51 26 103 Q26 159 66.5 193 Q107 227 174 227 Q183 227 187 227 Q191 227 196 226 Q193 234 184 254.5 Q175 275 159 307 Z M166 151 Q142 151 129 140.5 Q116 130 116 110 Q116 92 126 83 Q136 74 156 74 Q180 74 193.5 91.5 Q207 109 210 143 Q199 147 188 149 Q177 151 166 151 Z " />
<glyph glyph-name="currency" unicode="&#xa4;" horiz-adv-x="642" d="M191 189 L131 129 L57 204 L120 266 Q106 292 98.5 322 Q91 352 91 384 Q91 415 99 445 Q107 475 122 502 L57 566 L131 641 L193 579 Q221 597 252.5 606.5 Q284 616 319 616 Q356 616 388.5 606 Q421 596 447 577 L511 641 L585 566 L517 499 Q531 472 538 443 Q545 414 545 384 Q545 354 538 325.5 Q531 297 517 271 L585 204 L511 129 L448 192 Q419 173 386 163 Q353 153 317 153 Q281 153 249 162 Q217 171 191 189 Z M318 266 Q365 266 392.5 298 Q420 330 420 384 Q420 436 392 468.5 Q364 501 319 501 Q272 501 244 468.5 Q216 436 216 383 Q216 333 244.5 299.5 Q273 266 318 266 Z " />
<glyph glyph-name="yen" unicode="&#xa5;" horiz-adv-x="667" d="M253 103 L60 103 L60 213 L253 213 L253 262 L60 262 L60 372 L215 372 L-9 774 L173 774 L342 452 L508 774 L674 774 L463 372 L618 372 L618 262 L425 262 L425 213 L618 213 L618 103 L425 103 L425 0 L253 0 L253 103 Z " />
<glyph glyph-name="brokenbar" unicode="&#xa6;" horiz-adv-x="239" d="M53 353 L53 815 L186 815 L186 353 L53 353 Z M53 -231 L53 248 L186 248 L186 -231 L53 -231 Z " />
<glyph glyph-name="section" unicode="&#xa7;" horiz-adv-x="630" d="M501 160 Q521 142 532 115 Q543 88 543 58 Q543 -32 478 -82.5 Q413 -133 302 -133 Q193 -133 120 -86.5 Q47 -40 32 43 L187 72 Q194 30 224.5 8.5 Q255 -13 306 -13 Q350 -13 373.5 3.5 Q397 20 397 50 Q397 75 381.5 91 Q366 107 324 124 L157 193 Q88 222 58.5 260.5 Q29 299 29 354 Q29 400 54.5 436.5 Q80 473 128 494 Q108 515 96 544.5 Q84 574 84 604 Q84 691 145 740 Q206 789 308 789 Q403 789 467.5 742.5 Q532 696 551 613 L416 588 Q408 629 380 651.5 Q352 674 309 674 Q270 674 248 655.5 Q226 637 226 604 Q226 578 242.5 560.5 Q259 543 295 530 L472 462 Q539 436 569.5 397 Q600 358 600 301 Q600 255 575 219 Q550 183 501 160 Z M155 381 Q155 354 173.5 335 Q192 316 234 299 L436 216 Q453 226 461 240.5 Q469 255 469 275 Q469 301 451 320 Q433 339 394 355 L186 438 Q170 428 162.5 414.5 Q155 401 155 381 Z " />
<glyph glyph-name="dieresis" unicode="&#xa8;" horiz-adv-x="500" d="M216 648 L68 648 L68 786 L216 786 L216 648 Z M432 648 L284 648 L284 786 L432 786 L432 648 Z " />
<glyph glyph-name="copyright" unicode="&#xa9;" horiz-adv-x="859" d="M429 -16 Q255 -16 146.5 97.5 Q38 211 38 384 Q38 468 66.5 542.5 Q95 617 149 672 Q203 728 276 757 Q349 786 436 786 Q607 786 714 671.5 Q821 557 821 384 Q821 211 712 97.5 Q603 -16 429 -16 Z M435 714 Q288 714 202.5 624 Q117 534 117 384 Q117 239 204 147.5 Q291 56 431 56 Q572 56 656.5 146.5 Q741 237 741 384 Q741 533 658.5 623.5 Q576 714 435 714 Z M442 153 Q341 153 283 213.5 Q225 274 225 379 Q225 487 285 552.5 Q345 618 441 618 Q521 618 574.5 572.5 Q628 527 643 446 L532 425 Q524 469 501 492 Q478 515 442 515 Q396 515 369.5 480 Q343 445 343 382 Q343 323 369.5 289 Q396 255 442 255 Q480 255 502 276 Q524 297 535 341 L645 316 Q627 239 574 196 Q521 153 442 153 Z " />
<glyph glyph-name="ordfeminine" unicode="&#xaa;" horiz-adv-x="445" d="M376 377 Q327 377 299.5 395.5 Q272 414 267 450 L264 450 Q245 414 212.5 394.5 Q180 375 138 375 Q84 375 52 404 Q20 433 20 483 Q20 538 54.5 567 Q89 596 165 605 L216 611 Q245 615 256.5 623.5 Q268 632 268 649 Q268 666 255.5 676 Q243 686 221 686 Q195 686 179 671 Q163 656 158 628 L42 645 Q58 711 106.5 747 Q155 783 228 783 Q308 783 350.5 743 Q393 703 393 628 L393 500 Q393 483 400.5 476 Q408 469 425 469 Q429 469 434.5 469.5 Q440 470 444 471 L444 388 Q432 383 413 380 Q394 377 376 377 Z M151 502 Q151 482 163 471.5 Q175 461 198 461 Q229 461 248.5 486 Q268 511 268 551 L268 564 Q262 560 254 557.5 Q246 555 238 554 L200 547 Q175 543 163 532 Q151 521 151 502 Z M439 235 L27 235 L27 325 L439 325 L439 235 Z " />
<glyph glyph-name="guillemotleft" unicode="&#xab;" horiz-adv-x="485" d="M136 503 L276 503 L138 295 L278 80 L137 80 L-3 291 L136 503 Z M346 503 L486 503 L348 295 L488 80 L347 80 L207 291 L346 503 Z " />
<glyph glyph-name="logicalnot" unicode="&#xac;" horiz-adv-x="521" d="M361 353 L51 353 L51 456 L471 456 L471 172 L361 172 L361 353 Z " />
<glyph glyph-name="uni00AD" unicode="&#xad;" horiz-adv-x="406" d="M363 270 L43 270 L43 385 L363 385 L363 270 Z " />
<glyph glyph-name="registered" unicode="&#xae;" horiz-adv-x="508" d="M255 378 Q158 378 98 438.5 Q38 499 38 591 Q38 684 98 745.5 Q158 807 254 807 Q350 807 410 746 Q470 685 470 592 Q470 499 410.5 438.5 Q351 378 255 378 Z M254 768 Q174 768 128 720 Q82 672 82 591 Q82 513 129.5 465 Q177 417 255 417 Q334 417 380.5 464.5 Q427 512 427 592 Q427 673 381 720.5 Q335 768 254 768 Z M291 530 Q287 552 280.5 558 Q274 564 253 564 L223 564 L223 477 L163 477 L163 719 L273 719 Q321 719 346 701.5 Q371 684 371 650 Q371 625 353 607 Q335 589 304 585 L304 584 Q324 581 334 570.5 Q344 560 351 535 Q353 527 357.5 513 Q362 499 369 479 L369 477 L303 477 Q301 482 299 488.5 Q297 495 291 530 Z M309 640 Q309 656 298 663.5 Q287 671 264 671 L223 671 L223 606 L264 606 Q287 606 298 614.5 Q309 623 309 640 Z " />
<glyph glyph-name="overscore" unicode="&#xaf;" horiz-adv-x="500" d="M414 650 L86 650 L86 748 L414 748 L414 650 Z " />
<glyph glyph-name="degree" unicode="&#xb0;" horiz-adv-x="477" d="M238 473 Q170 473 128 516 Q86 559 86 628 Q86 694 129 738 Q172 782 240 782 Q307 782 349 738 Q391 694 391 628 Q391 561 348.5 517 Q306 473 238 473 Z M240 710 Q203 710 181 687 Q159 664 159 628 Q159 591 180.5 568.5 Q202 546 238 546 Q274 546 295.5 568.5 Q317 591 317 628 Q317 665 296 687.5 Q275 710 240 710 Z " />
<glyph glyph-name="plusminus" unicode="&#xb1;" horiz-adv-x="568" d="M223 354 L66 354 L66 466 L223 466 L223 635 L345 635 L345 466 L502 466 L502 354 L345 354 L345 190 L223 190 L223 354 Z M502 -1 L66 -1 L66 112 L502 112 L502 -1 Z " />
<glyph glyph-name="uni00B2" unicode="&#xb2;" horiz-adv-x="359" d="M225 721 Q225 742 213.5 753.5 Q202 765 181 765 Q154 765 140.5 743.5 Q127 722 127 680 L25 696 Q27 772 71 816 Q115 860 188 860 Q255 860 294.5 825 Q334 790 334 731 Q334 689 310.5 655 Q287 621 229 578 L190 549 L339 549 L339 465 L25 465 L25 530 L146 616 Q190 649 207.5 672 Q225 695 225 721 Z " />
<glyph glyph-name="uni00B3" unicode="&#xb3;" horiz-adv-x="337" d="M208 738 Q208 755 198.5 763.5 Q189 772 170 772 Q148 772 135.5 758.5 Q123 745 119 718 L23 737 Q37 795 78 827 Q119 859 181 859 Q242 859 278 831.5 Q314 804 314 758 Q314 728 298 705 Q282 682 252 670 L252 668 Q291 658 309.5 635.5 Q328 613 328 576 Q328 522 287 489.5 Q246 457 178 457 Q107 457 63.5 491 Q20 525 12 586 L110 606 Q116 574 131.5 559 Q147 544 175 544 Q199 544 211 554.5 Q223 565 223 585 Q223 605 208.5 614.5 Q194 624 164 624 L114 624 L114 700 L156 700 Q182 700 195 709.5 Q208 719 208 738 Z " />
<glyph glyph-name="acute" unicode="&#xb4;" horiz-adv-x="500" d="M253 628 L137 628 L207 816 L364 816 L253 628 Z " />
<glyph glyph-name="uni00B5" unicode="&#xb5;" horiz-adv-x="688" d="M55 -185 L55 575 L221 575 L221 236 Q221 175 246.5 146 Q272 117 325 117 Q380 117 409 162 Q438 207 438 293 L438 575 L604 575 L604 167 Q604 134 616.5 121 Q629 108 661 108 Q668 108 673.5 108.5 Q679 109 686 110 L686 2 Q672 -4 646 -7.5 Q620 -11 593 -11 Q518 -11 479.5 21.5 Q441 54 441 117 L438 117 Q415 54 373 21 Q331 -12 275 -12 Q257 -12 242.5 -10.5 Q228 -9 215 -5 L215 -185 L55 -185 Z " />
<glyph glyph-name="paragraph" unicode="&#xb6;" horiz-adv-x="590" d="M381 -130 L298 -130 L298 368 L281 368 Q167 368 104 422.5 Q41 477 41 574 Q41 670 104 722 Q167 774 284 774 L529 774 L529 -130 L446 -130 L446 711 L381 711 L381 -130 Z " />
<glyph glyph-name="middot" unicode="&#xb7;" horiz-adv-x="224" d="M195 249 L29 249 L29 409 L195 409 L195 249 Z " />
<glyph glyph-name="cedilla" unicode="&#xb8;" horiz-adv-x="500" d="M245 -152 Q272 -152 286 -143.5 Q300 -135 300 -119 Q300 -106 292 -99.5 Q284 -93 269 -93 Q256 -93 246.5 -97.5 Q237 -102 233 -111 L180 -101 L216 14 L293 14 L274 -51 Q281 -49 288 -48.5 Q295 -48 302 -48 Q341 -48 365.5 -70.5 Q390 -93 390 -132 Q390 -179 353.5 -207 Q317 -235 254 -235 Q213 -235 174.5 -227.5 Q136 -220 110 -207 L141 -128 Q163 -139 191.5 -145.5 Q220 -152 245 -152 Z " />
<glyph glyph-name="uni00B9" unicode="&#xb9;" horiz-adv-x="231" d="M6 728 L6 808 L72 808 Q95 808 101.5 813.5 Q108 819 109 837 L110 853 L194 853 L194 465 L87 465 L87 728 L6 728 Z " />
<glyph glyph-name="ordmasculine" unicode="&#xba;" horiz-adv-x="445" d="M222 375 Q128 375 74 428.5 Q20 482 20 578 Q21 671 77.5 727.5 Q134 784 224 784 Q315 784 370 729 Q425 674 425 581 Q425 484 370 429.5 Q315 375 222 375 Z M223 479 Q258 479 276 504.5 Q294 530 294 579 Q294 629 276 655 Q258 681 224 681 Q189 681 170 655 Q151 629 151 579 Q151 531 169.5 505 Q188 479 223 479 Z M428 235 L16 235 L16 325 L428 325 L428 235 Z " />
<glyph glyph-name="guillemotright" unicode="&#xbb;" horiz-adv-x="485" d="M137 503 L278 291 L138 80 L-1 80 L137 288 L-3 503 L137 503 Z M347 503 L488 291 L348 80 L209 80 L347 288 L207 503 L347 503 Z " />
<glyph glyph-name="onequarter" unicode="&#xbc;" horiz-adv-x="735" d="M569 774 L706 774 L148 0 L6 0 L569 774 Z M24 649 L24 729 L90 729 Q113 729 119.5 734.5 Q126 740 127 758 L128 774 L212 774 L212 386 L105 386 L105 649 L24 649 Z M728 155 L728 71 L670 71 L670 0 L563 0 L563 71 L395 71 L395 163 L570 388 L670 388 L670 155 L728 155 Z M571 280 L477 155 L571 155 L571 280 Z " />
<glyph glyph-name="onehalf" unicode="&#xbd;" horiz-adv-x="778" d="M569 774 L706 774 L148 0 L6 0 L569 774 Z M24 649 L24 729 L90 729 Q113 729 119.5 734.5 Q126 740 127 758 L128 774 L212 774 L212 386 L105 386 L105 649 L24 649 Z M645 256 Q645 277 633.5 288.5 Q622 300 601 300 Q574 300 560.5 278.5 Q547 257 547 215 L445 231 Q447 307 491 351 Q535 395 608 395 Q675 395 714.5 360 Q754 325 754 266 Q754 224 730.5 190 Q707 156 649 113 L610 84 L759 84 L759 0 L445 0 L445 65 L566 151 Q610 184 627.5 207 Q645 230 645 256 Z " />
<glyph glyph-name="threequarters" unicode="&#xbe;" horiz-adv-x="837" d="M671 774 L808 774 L250 0 L108 0 L671 774 Z M248 659 Q248 676 238.5 684.5 Q229 693 210 693 Q188 693 175.5 679.5 Q163 666 159 639 L63 658 Q77 716 118 748 Q159 780 221 780 Q282 780 318 752.5 Q354 725 354 679 Q354 649 338 626 Q322 603 292 591 L292 589 Q331 579 349.5 556.5 Q368 534 368 497 Q368 443 327 410.5 Q286 378 218 378 Q147 378 103.5 412 Q60 446 52 507 L150 527 Q156 495 171.5 480 Q187 465 215 465 Q239 465 251 475.5 Q263 486 263 506 Q263 526 248.5 535.5 Q234 545 204 545 L154 545 L154 621 L196 621 Q222 621 235 630.5 Q248 640 248 659 Z M830 155 L830 71 L772 71 L772 0 L665 0 L665 71 L497 71 L497 163 L672 388 L772 388 L772 155 L830 155 Z M673 280 L579 155 L673 155 L673 280 Z " />
<glyph glyph-name="questiondown" unicode="&#xbf;" horiz-adv-x="585" d="M289 -68 Q349 -68 381.5 -32 Q414 4 424 79 L588 51 Q568 -73 486 -143 Q404 -213 279 -213 Q157 -213 81.5 -152 Q6 -91 6 8 Q6 66 32.5 112 Q59 158 126 208 Q126 208 154.5 229 Q183 250 194 261 Q212 277 218.5 294 Q225 311 225 338 L225 355 L376 355 L376 325 Q376 275 358 240 Q340 205 278 154 Q225 110 207.5 82 Q190 54 190 22 Q190 -21 216 -44.5 Q242 -68 289 -68 Z M218 575 L384 575 L384 415 L218 415 L218 575 Z " />
<glyph glyph-name="Agrave" unicode="&#xc0;" horiz-adv-x="755" d="M183 0 L12 0 L267 774 L475 774 L743 0 L559 0 L512 152 L229 152 L183 0 Z M370 617 L269 284 L472 284 L370 617 Z M391 978 L442 825 L309 825 L234 978 L391 978 Z " />
<glyph glyph-name="Aacute" unicode="&#xc1;" horiz-adv-x="755" d="M183 0 L12 0 L267 774 L475 774 L743 0 L559 0 L512 152 L229 152 L183 0 Z M370 617 L269 284 L472 284 L370 617 Z M442 825 L309 825 L361 978 L517 978 L442 825 Z " />
<glyph glyph-name="Acircumflex" unicode="&#xc2;" horiz-adv-x="755" d="M183 0 L12 0 L267 774 L475 774 L743 0 L559 0 L512 152 L229 152 L183 0 Z M370 617 L269 284 L472 284 L370 617 Z M307 822 L189 822 L325 976 L426 976 L563 822 L444 822 L374 882 L307 822 Z " />
<glyph glyph-name="Atilde" unicode="&#xc3;" horiz-adv-x="755" d="M183 0 L12 0 L267 774 L475 774 L743 0 L559 0 L512 152 L229 152 L183 0 Z M370 617 L269 284 L472 284 L370 617 Z M295 984 Q316 984 338 977.5 Q360 971 396 950 Q422 936 434 931.5 Q446 927 456 927 Q473 927 480.5 940.5 Q488 954 487 985 L572 975 Q575 901 548.5 860 Q522 819 470 819 Q450 819 429 825.5 Q408 832 371 852 Q343 867 330.5 871.5 Q318 876 308 876 Q289 876 280.5 862 Q272 848 272 817 L183 827 Q180 900 210 942 Q240 984 295 984 Z " />
<glyph glyph-name="Adieresis" unicode="&#xc4;" horiz-adv-x="755" d="M183 0 L12 0 L267 774 L475 774 L743 0 L559 0 L512 152 L229 152 L183 0 Z M370 617 L269 284 L472 284 L370 617 Z M340 824 L192 824 L192 963 L340 963 L340 824 Z M559 824 L412 824 L412 963 L559 963 L559 824 Z " />
<glyph glyph-name="Aring" unicode="&#xc5;" horiz-adv-x="755" d="M183 0 L12 0 L267 774 L475 774 L743 0 L559 0 L512 152 L229 152 L183 0 Z M370 617 L269 284 L472 284 L370 617 Z M492 931 Q492 877 460 845 Q428 813 375 813 Q323 813 291.5 845 Q260 877 260 930 Q260 981 293 1014.5 Q326 1048 377 1048 Q428 1048 460 1016 Q492 984 492 931 Z M325 930 Q325 903 339 887.5 Q353 872 377 872 Q401 872 414.5 887 Q428 902 428 930 Q428 958 414.5 974 Q401 990 377 990 Q353 990 339 973.5 Q325 957 325 930 Z " />
<glyph glyph-name="AE" unicode="&#xc6;" horiz-adv-x="1069" d="M690 140 L1033 140 L1033 0 L539 0 L518 152 L251 152 L183 0 L3 0 L381 774 L1013 774 L1013 634 L621 634 L644 467 L991 467 L991 330 L663 330 L690 140 Z M456 607 L311 284 L500 284 L456 607 Z " />
<glyph glyph-name="Ccedilla" unicode="&#xc7;" horiz-adv-x="765" d="M38 378 Q38 563 142 675.5 Q246 788 412 788 Q548 788 636.5 712 Q725 636 751 496 L579 463 Q563 550 520.5 593.5 Q478 637 409 637 Q317 637 265.5 570.5 Q214 504 214 383 Q214 267 265.5 202 Q317 137 409 137 Q480 137 523 176.5 Q566 216 587 300 L755 263 Q727 137 643.5 65.5 Q560 -6 433 -13 L422 -51 Q429 -49 436 -48.5 Q443 -48 450 -48 Q489 -48 513.5 -70.5 Q538 -93 538 -132 Q538 -179 501.5 -207 Q465 -235 402 -235 Q361 -235 322.5 -227.5 Q284 -220 258 -207 L289 -128 Q311 -139 339.5 -145.5 Q368 -152 393 -152 Q420 -152 434 -143.5 Q448 -135 448 -119 Q448 -106 440 -99.5 Q432 -93 417 -93 Q404 -93 394.5 -97.5 Q385 -102 381 -111 L328 -101 L356 -12 Q207 3 122.5 106.5 Q38 210 38 378 Z " />
<glyph glyph-name="Egrave" unicode="&#xc8;" horiz-adv-x="670" d="M69 0 L69 774 L614 774 L614 634 L241 634 L241 467 L592 467 L592 330 L241 330 L241 140 L634 140 L634 0 L69 0 Z M371 978 L422 825 L289 825 L214 978 L371 978 Z " />
<glyph glyph-name="Eacute" unicode="&#xc9;" horiz-adv-x="670" d="M69 0 L69 774 L614 774 L614 634 L241 634 L241 467 L592 467 L592 330 L241 330 L241 140 L634 140 L634 0 L69 0 Z M422 825 L289 825 L341 978 L497 978 L422 825 Z " />
<glyph glyph-name="Ecircumflex" unicode="&#xca;" horiz-adv-x="670" d="M69 0 L69 774 L614 774 L614 634 L241 634 L241 467 L592 467 L592 330 L241 330 L241 140 L634 140 L634 0 L69 0 Z M287 822 L169 822 L305 976 L406 976 L543 822 L424 822 L354 882 L287 822 Z " />
<glyph glyph-name="Edieresis" unicode="&#xcb;" horiz-adv-x="670" d="M69 0 L69 774 L614 774 L614 634 L241 634 L241 467 L592 467 L592 330 L241 330 L241 140 L634 140 L634 0 L69 0 Z M320 824 L172 824 L172 963 L320 963 L320 824 Z M539 824 L392 824 L392 963 L539 963 L539 824 Z " />
<glyph glyph-name="Igrave" unicode="&#xcc;" horiz-adv-x="316" d="M72 0 L72 774 L244 774 L244 0 L72 0 Z M173 978 L224 825 L91 825 L16 978 L173 978 Z " />
<glyph glyph-name="Iacute" unicode="&#xcd;" horiz-adv-x="316" d="M72 0 L72 774 L244 774 L244 0 L72 0 Z M224 825 L91 825 L143 978 L299 978 L224 825 Z " />
<glyph glyph-name="Icircumflex" unicode="&#xce;" horiz-adv-x="316" d="M72 0 L72 774 L244 774 L244 0 L72 0 Z M89 822 L-29 822 L107 976 L208 976 L345 822 L226 822 L156 882 L89 822 Z " />
<glyph glyph-name="Idieresis" unicode="&#xcf;" horiz-adv-x="316" d="M72 0 L72 774 L244 774 L244 0 L72 0 Z M122 824 L-26 824 L-26 963 L122 963 L122 824 Z M341 824 L194 824 L194 963 L341 963 L341 824 Z " />
<glyph glyph-name="Eth" unicode="&#xd0;" horiz-adv-x="802" d="M79 334 L-11 334 L-11 450 L79 450 L79 774 L338 774 Q543 774 654.5 673 Q766 572 766 390 Q766 211 652 105.5 Q538 0 340 0 L79 0 L79 334 Z M590 394 Q590 510 528 570 Q466 630 347 630 L251 630 L251 450 L404 450 L404 334 L251 334 L251 144 L343 144 Q465 144 527.5 207.5 Q590 271 590 394 Z " />
<glyph glyph-name="Ntilde" unicode="&#xd1;" horiz-adv-x="791" d="M567 774 L722 774 L722 0 L547 0 L224 544 L224 0 L69 0 L69 774 L269 774 L567 262 L567 774 Z M324 979 Q345 979 367 972.5 Q389 966 425 945 Q451 931 463 926.5 Q475 922 485 922 Q502 922 509.5 935.5 Q517 949 516 980 L601 970 Q604 896 577.5 855 Q551 814 499 814 Q479 814 458 820.5 Q437 827 400 847 Q372 862 359.5 866.5 Q347 871 337 871 Q318 871 309.5 857 Q301 843 301 812 L212 822 Q209 895 239 937 Q269 979 324 979 Z " />
<glyph glyph-name="Ograve" unicode="&#xd2;" horiz-adv-x="805" d="M407 -14 Q236 -14 137 91.5 Q38 197 38 380 Q38 564 138.5 676 Q239 788 405 788 Q571 788 669 679.5 Q767 571 767 389 Q767 204 669.5 95 Q572 -14 407 -14 Z M547 206 Q569 237 580 281.5 Q591 326 591 383 Q591 504 542.5 570.5 Q494 637 406 637 Q358 637 320.5 618.5 Q283 600 258 563 Q236 530 225 485 Q214 440 214 383 Q214 268 265 202.5 Q316 137 405 137 Q451 137 487 154.5 Q523 172 547 206 Z M422 978 L473 825 L340 825 L265 978 L422 978 Z " />
<glyph glyph-name="Oacute" unicode="&#xd3;" horiz-adv-x="805" d="M407 -14 Q236 -14 137 91.5 Q38 197 38 380 Q38 564 138.5 676 Q239 788 405 788 Q571 788 669 679.5 Q767 571 767 389 Q767 204 669.5 95 Q572 -14 407 -14 Z M547 206 Q569 237 580 281.5 Q591 326 591 383 Q591 504 542.5 570.5 Q494 637 406 637 Q358 637 320.5 618.5 Q283 600 258 563 Q236 530 225 485 Q214 440 214 383 Q214 268 265 202.5 Q316 137 405 137 Q451 137 487 154.5 Q523 172 547 206 Z M473 825 L340 825 L392 978 L548 978 L473 825 Z " />
<glyph glyph-name="Ocircumflex" unicode="&#xd4;" horiz-adv-x="805" d="M407 -14 Q236 -14 137 91.5 Q38 197 38 380 Q38 564 138.5 676 Q239 788 405 788 Q571 788 669 679.5 Q767 571 767 389 Q767 204 669.5 95 Q572 -14 407 -14 Z M547 206 Q569 237 580 281.5 Q591 326 591 383 Q591 504 542.5 570.5 Q494 637 406 637 Q358 637 320.5 618.5 Q283 600 258 563 Q236 530 225 485 Q214 440 214 383 Q214 268 265 202.5 Q316 137 405 137 Q451 137 487 154.5 Q523 172 547 206 Z M338 822 L220 822 L356 976 L457 976 L594 822 L475 822 L405 882 L338 822 Z " />
<glyph glyph-name="Otilde" unicode="&#xd5;" horiz-adv-x="805" d="M407 -14 Q236 -14 137 91.5 Q38 197 38 380 Q38 564 138.5 676 Q239 788 405 788 Q571 788 669 679.5 Q767 571 767 389 Q767 204 669.5 95 Q572 -14 407 -14 Z M547 206 Q569 237 580 281.5 Q591 326 591 383 Q591 504 542.5 570.5 Q494 637 406 637 Q358 637 320.5 618.5 Q283 600 258 563 Q236 530 225 485 Q214 440 214 383 Q214 268 265 202.5 Q316 137 405 137 Q451 137 487 154.5 Q523 172 547 206 Z M326 984 Q347 984 369 977.5 Q391 971 427 950 Q453 936 465 931.5 Q477 927 487 927 Q504 927 511.5 940.5 Q519 954 518 985 L603 975 Q606 901 579.5 860 Q553 819 501 819 Q481 819 460 825.5 Q439 832 402 852 Q374 867 361.5 871.5 Q349 876 339 876 Q320 876 311.5 862 Q303 848 303 817 L214 827 Q211 900 241 942 Q271 984 326 984 Z " />
<glyph glyph-name="Odieresis" unicode="&#xd6;" horiz-adv-x="805" d="M407 -14 Q236 -14 137 91.5 Q38 197 38 380 Q38 564 138.5 676 Q239 788 405 788 Q571 788 669 679.5 Q767 571 767 389 Q767 204 669.5 95 Q572 -14 407 -14 Z M547 206 Q569 237 580 281.5 Q591 326 591 383 Q591 504 542.5 570.5 Q494 637 406 637 Q358 637 320.5 618.5 Q283 600 258 563 Q236 530 225 485 Q214 440 214 383 Q214 268 265 202.5 Q316 137 405 137 Q451 137 487 154.5 Q523 172 547 206 Z M371 824 L223 824 L223 963 L371 963 L371 824 Z M590 824 L443 824 L443 963 L590 963 L590 824 Z " />
<glyph glyph-name="multiply" unicode="&#xd7;" horiz-adv-x="568" d="M148 137 L62 224 L196 361 L61 497 L148 585 L288 445 L420 583 L507 497 L374 358 L507 225 L419 137 L282 275 L148 137 Z " />
<glyph glyph-name="Oslash" unicode="&#xd8;" horiz-adv-x="805" d="M125 -24 L44 49 L110 125 Q74 174 56 238.5 Q38 303 38 380 Q38 564 138.5 676 Q239 788 405 788 Q469 788 525 771 Q581 754 625 720 L683 786 L761 721 L696 645 Q731 594 749 529 Q767 464 767 389 Q767 204 669.5 95 Q572 -14 407 -14 Q343 -14 287.5 1.5 Q232 17 187 48 L125 -24 Z M258 563 Q236 530 225 485 Q214 440 214 383 Q214 347 219 315 Q224 283 234 256 L517 600 Q495 618 467 627.5 Q439 637 406 637 Q358 637 320.5 618.5 Q283 600 258 563 Z M547 206 Q569 237 580 281.5 Q591 326 591 383 Q591 421 586.5 453.5 Q582 486 573 512 L296 171 Q318 154 345.5 145.5 Q373 137 405 137 Q451 137 487 154.5 Q523 172 547 206 Z " />
<glyph glyph-name="Ugrave" unicode="&#xd9;" horiz-adv-x="776" d="M231 774 L231 319 Q231 227 271 183.5 Q311 140 396 140 Q475 140 511 183 Q547 226 547 319 L547 774 L717 774 L717 313 Q717 153 634.5 69.5 Q552 -14 394 -14 Q226 -14 142.5 64.5 Q59 143 59 300 L59 774 L231 774 Z M403 973 L454 820 L321 820 L246 973 L403 973 Z " />
<glyph glyph-name="Uacute" unicode="&#xda;" horiz-adv-x="776" d="M231 774 L231 319 Q231 227 271 183.5 Q311 140 396 140 Q475 140 511 183 Q547 226 547 319 L547 774 L717 774 L717 313 Q717 153 634.5 69.5 Q552 -14 394 -14 Q226 -14 142.5 64.5 Q59 143 59 300 L59 774 L231 774 Z M454 820 L321 820 L373 973 L529 973 L454 820 Z " />
<glyph glyph-name="Ucircumflex" unicode="&#xdb;" horiz-adv-x="776" d="M231 774 L231 319 Q231 227 271 183.5 Q311 140 396 140 Q475 140 511 183 Q547 226 547 319 L547 774 L717 774 L717 313 Q717 153 634.5 69.5 Q552 -14 394 -14 Q226 -14 142.5 64.5 Q59 143 59 300 L59 774 L231 774 Z M319 817 L201 817 L337 971 L438 971 L575 817 L456 817 L386 877 L319 817 Z " />
<glyph glyph-name="Udieresis" unicode="&#xdc;" horiz-adv-x="776" d="M231 774 L231 319 Q231 227 271 183.5 Q311 140 396 140 Q475 140 511 183 Q547 226 547 319 L547 774 L717 774 L717 313 Q717 153 634.5 69.5 Q552 -14 394 -14 Q226 -14 142.5 64.5 Q59 143 59 300 L59 774 L231 774 Z M352 819 L204 819 L204 958 L352 958 L352 819 Z M571 819 L424 819 L424 958 L571 958 L571 819 Z " />
<glyph glyph-name="Yacute" unicode="&#xdd;" horiz-adv-x="667" d="M508 774 L674 774 L425 300 L425 0 L253 0 L253 304 L-9 774 L173 774 L342 452 L508 774 Z M414 825 L281 825 L333 978 L489 978 L414 825 Z " />
<glyph glyph-name="Thorn" unicode="&#xde;" horiz-adv-x="695" d="M69 0 L69 774 L241 774 L241 641 L389 641 Q527 641 600.5 578 Q674 515 674 396 Q674 270 600.5 203 Q527 136 389 136 L241 136 L241 0 L69 0 Z M498 391 Q498 446 462.5 473.5 Q427 501 357 501 L241 501 L241 276 L359 276 Q434 276 466 302.5 Q498 329 498 391 Z " />
<glyph glyph-name="germandbls" unicode="&#xdf;" horiz-adv-x="692" d="M449 598 Q449 640 423.5 662.5 Q398 685 352 685 Q293 685 262.5 647 Q232 609 232 535 L232 0 L66 0 L66 507 Q66 660 142.5 741 Q219 822 363 822 Q474 822 542 770 Q610 718 610 632 Q610 569 572 522.5 Q534 476 466 457 L466 454 Q562 432 612.5 376.5 Q663 321 663 238 Q663 120 595 55 Q527 -10 403 -10 Q372 -10 343.5 -6.5 Q315 -3 293 3 L293 137 Q312 133 332 131 Q352 129 372 129 Q432 129 464 162 Q496 195 496 257 Q496 316 455 344.5 Q414 373 330 373 L304 373 L304 502 L327 502 Q388 502 418.5 526 Q449 550 449 598 Z " />
<glyph glyph-name="agrave" unicode="&#xe0;" horiz-adv-x="640" d="M545 -11 Q477 -11 439 15.5 Q401 42 394 95 L391 95 Q363 42 314.5 14 Q266 -14 200 -14 Q120 -14 73 29 Q26 72 26 146 Q26 191 43 224.5 Q60 258 95 280 Q121 297 156.5 308 Q192 319 239 325 L318 335 Q359 340 377.5 354.5 Q396 369 396 397 Q396 426 375.5 442 Q355 458 318 458 Q272 458 244.5 435 Q217 412 207 365 L54 388 Q81 485 150 536.5 Q219 588 322 588 Q436 588 496 531 Q556 474 556 364 L556 167 Q556 134 568.5 121 Q581 108 613 108 Q620 108 625.5 108.5 Q631 109 638 110 L638 2 Q624 -4 598 -7.5 Q572 -11 545 -11 Z M197 169 Q197 136 217 118 Q237 100 274 100 Q329 100 362 142 Q395 184 395 252 L395 270 Q385 264 372 259.5 Q359 255 341 253 L279 243 Q237 236 217 218 Q197 200 197 169 Z M316 816 L387 628 L271 628 L160 816 L316 816 Z " />
<glyph glyph-name="aacute" unicode="&#xe1;" horiz-adv-x="640" d="M545 -11 Q477 -11 439 15.5 Q401 42 394 95 L391 95 Q363 42 314.5 14 Q266 -14 200 -14 Q120 -14 73 29 Q26 72 26 146 Q26 191 43 224.5 Q60 258 95 280 Q121 297 156.5 308 Q192 319 239 325 L318 335 Q359 340 377.5 354.5 Q396 369 396 397 Q396 426 375.5 442 Q355 458 318 458 Q272 458 244.5 435 Q217 412 207 365 L54 388 Q81 485 150 536.5 Q219 588 322 588 Q436 588 496 531 Q556 474 556 364 L556 167 Q556 134 568.5 121 Q581 108 613 108 Q620 108 625.5 108.5 Q631 109 638 110 L638 2 Q624 -4 598 -7.5 Q572 -11 545 -11 Z M197 169 Q197 136 217 118 Q237 100 274 100 Q329 100 362 142 Q395 184 395 252 L395 270 Q385 264 372 259.5 Q359 255 341 253 L279 243 Q237 236 217 218 Q197 200 197 169 Z M387 628 L271 628 L341 816 L498 816 L387 628 Z " />
<glyph glyph-name="acircumflex" unicode="&#xe2;" horiz-adv-x="640" d="M545 -11 Q477 -11 439 15.5 Q401 42 394 95 L391 95 Q363 42 314.5 14 Q266 -14 200 -14 Q120 -14 73 29 Q26 72 26 146 Q26 191 43 224.5 Q60 258 95 280 Q121 297 156.5 308 Q192 319 239 325 L318 335 Q359 340 377.5 354.5 Q396 369 396 397 Q396 426 375.5 442 Q355 458 318 458 Q272 458 244.5 435 Q217 412 207 365 L54 388 Q81 485 150 536.5 Q219 588 322 588 Q436 588 496 531 Q556 474 556 364 L556 167 Q556 134 568.5 121 Q581 108 613 108 Q620 108 625.5 108.5 Q631 109 638 110 L638 2 Q624 -4 598 -7.5 Q572 -11 545 -11 Z M197 169 Q197 136 217 118 Q237 100 274 100 Q329 100 362 142 Q395 184 395 252 L395 270 Q385 264 372 259.5 Q359 255 341 253 L279 243 Q237 236 217 218 Q197 200 197 169 Z M257 628 L146 628 L276 816 L377 816 L510 628 L398 628 L325 710 L257 628 Z " />
<glyph glyph-name="atilde" unicode="&#xe3;" horiz-adv-x="640" d="M545 -11 Q477 -11 439 15.5 Q401 42 394 95 L391 95 Q363 42 314.5 14 Q266 -14 200 -14 Q120 -14 73 29 Q26 72 26 146 Q26 191 43 224.5 Q60 258 95 280 Q121 297 156.5 308 Q192 319 239 325 L318 335 Q359 340 377.5 354.5 Q396 369 396 397 Q396 426 375.5 442 Q355 458 318 458 Q272 458 244.5 435 Q217 412 207 365 L54 388 Q81 485 150 536.5 Q219 588 322 588 Q436 588 496 531 Q556 474 556 364 L556 167 Q556 134 568.5 121 Q581 108 613 108 Q620 108 625.5 108.5 Q631 109 638 110 L638 2 Q624 -4 598 -7.5 Q572 -11 545 -11 Z M197 169 Q197 136 217 118 Q237 100 274 100 Q329 100 362 142 Q395 184 395 252 L395 270 Q385 264 372 259.5 Q359 255 341 253 L279 243 Q237 236 217 218 Q197 200 197 169 Z M245 806 Q266 806 288 798.5 Q310 791 346 769 Q372 752 384 747.5 Q396 743 406 743 Q423 743 430.5 757.5 Q438 772 437 806 L522 796 Q525 719 498.5 677 Q472 635 420 635 Q400 635 379 642.5 Q358 650 321 672 Q293 688 280.5 693 Q268 698 258 698 Q239 698 230.5 683 Q222 668 222 633 L133 643 Q130 719 160 762.5 Q190 806 245 806 Z " />
<glyph glyph-name="adieresis" unicode="&#xe4;" horiz-adv-x="640" d="M545 -11 Q477 -11 439 15.5 Q401 42 394 95 L391 95 Q363 42 314.5 14 Q266 -14 200 -14 Q120 -14 73 29 Q26 72 26 146 Q26 191 43 224.5 Q60 258 95 280 Q121 297 156.5 308 Q192 319 239 325 L318 335 Q359 340 377.5 354.5 Q396 369 396 397 Q396 426 375.5 442 Q355 458 318 458 Q272 458 244.5 435 Q217 412 207 365 L54 388 Q81 485 150 536.5 Q219 588 322 588 Q436 588 496 531 Q556 474 556 364 L556 167 Q556 134 568.5 121 Q581 108 613 108 Q620 108 625.5 108.5 Q631 109 638 110 L638 2 Q624 -4 598 -7.5 Q572 -11 545 -11 Z M197 169 Q197 136 217 118 Q237 100 274 100 Q329 100 362 142 Q395 184 395 252 L395 270 Q385 264 372 259.5 Q359 255 341 253 L279 243 Q237 236 217 218 Q197 200 197 169 Z M294 648 L146 648 L146 786 L294 786 L294 648 Z M510 648 L362 648 L362 786 L510 786 L510 648 Z " />
<glyph glyph-name="aring" unicode="&#xe5;" horiz-adv-x="640" d="M545 -11 Q477 -11 439 15.5 Q401 42 394 95 L391 95 Q363 42 314.5 14 Q266 -14 200 -14 Q120 -14 73 29 Q26 72 26 146 Q26 191 43 224.5 Q60 258 95 280 Q121 297 156.5 308 Q192 319 239 325 L318 335 Q359 340 377.5 354.5 Q396 369 396 397 Q396 426 375.5 442 Q355 458 318 458 Q272 458 244.5 435 Q217 412 207 365 L54 388 Q81 485 150 536.5 Q219 588 322 588 Q436 588 496 531 Q556 474 556 364 L556 167 Q556 134 568.5 121 Q581 108 613 108 Q620 108 625.5 108.5 Q631 109 638 110 L638 2 Q624 -4 598 -7.5 Q572 -11 545 -11 Z M197 169 Q197 136 217 118 Q237 100 274 100 Q329 100 362 142 Q395 184 395 252 L395 270 Q385 264 372 259.5 Q359 255 341 253 L279 243 Q237 236 217 218 Q197 200 197 169 Z M454 760 Q454 704 418.5 668 Q383 632 328 632 Q272 632 237 667 Q202 702 202 759 Q202 816 238 852 Q274 888 330 888 Q384 888 419 852 Q454 816 454 760 Z M271 759 Q271 730 286.5 712.5 Q302 695 328 695 Q355 695 370.5 712 Q386 729 386 759 Q386 790 371 807.5 Q356 825 330 825 Q303 825 287 807 Q271 789 271 759 Z " />
<glyph glyph-name="ae" unicode="&#xe6;" horiz-adv-x="982" d="M692 118 Q740 118 772 139.5 Q804 161 820 204 L961 163 Q929 78 858.5 32 Q788 -14 687 -14 Q601 -14 538.5 15 Q476 44 443 99 L439 99 Q403 42 349.5 14 Q296 -14 226 -14 Q130 -14 78 27.5 Q26 69 26 146 Q26 191 43 224.5 Q60 258 95 280 Q121 297 156.5 308 Q192 319 239 325 L318 335 Q359 340 377.5 354.5 Q396 369 396 397 Q396 426 375.5 442 Q355 458 318 458 Q272 458 244.5 435 Q217 412 207 365 L54 388 Q81 486 146 537 Q211 588 308 588 Q366 588 411 568.5 Q456 549 486 511 Q520 548 571 568 Q622 588 680 588 Q752 588 807.5 561 Q863 534 898 482 Q927 439 941 381.5 Q955 324 954 250 L557 250 Q563 188 598 153 Q633 118 692 118 Z M775 403 Q762 430 736.5 444.5 Q711 459 677 459 Q629 459 598.5 431 Q568 403 559 351 L789 351 Q787 369 783.5 381.5 Q780 394 775 403 Z M197 169 Q197 136 217 118 Q237 100 274 100 Q329 100 362 142 Q395 184 395 252 L395 270 Q385 264 372 259.5 Q359 255 341 253 L279 243 Q237 236 217 218 Q197 200 197 169 Z " />
<glyph glyph-name="ccedilla" unicode="&#xe7;" horiz-adv-x="621" d="M314 -152 Q341 -152 355 -143.5 Q369 -135 369 -119 Q369 -106 361 -99.5 Q353 -93 338 -93 Q325 -93 315.5 -97.5 Q306 -102 302 -111 L249 -101 L278 -12 Q160 0 96.5 76.5 Q33 153 33 282 Q33 419 113 503.5 Q193 588 322 588 Q433 588 502.5 529.5 Q572 471 595 359 L431 335 Q420 392 393 420.5 Q366 449 322 449 Q267 449 234.5 406 Q202 363 202 288 Q202 212 234 168.5 Q266 125 323 125 Q368 125 396.5 150.5 Q425 176 437 227 L598 199 Q578 108 514.5 52 Q451 -4 355 -12 L343 -51 Q350 -49 357 -48.5 Q364 -48 371 -48 Q410 -48 434.5 -70.5 Q459 -93 459 -132 Q459 -179 422.5 -207 Q386 -235 323 -235 Q282 -235 243.5 -227.5 Q205 -220 179 -207 L210 -128 Q232 -139 260.5 -145.5 Q289 -152 314 -152 Z " />
<glyph glyph-name="egrave" unicode="&#xe8;" horiz-adv-x="624" d="M329 -14 Q192 -14 112.5 65.5 Q33 145 33 282 Q33 416 115 502 Q197 588 324 588 Q405 588 464.5 554.5 Q524 521 557 456 Q578 414 588 363 Q598 312 596 250 L199 250 Q204 188 240 153 Q276 118 334 118 Q382 118 414 139.5 Q446 161 462 204 L603 163 Q572 78 500.5 32 Q429 -14 329 -14 Z M417 406 Q406 431 381.5 445 Q357 459 324 459 Q274 459 242 431 Q210 403 201 351 L431 351 Q430 366 426.5 379.5 Q423 393 417 406 Z M311 816 L382 628 L266 628 L155 816 L311 816 Z " />
<glyph glyph-name="eacute" unicode="&#xe9;" horiz-adv-x="624" d="M329 -14 Q192 -14 112.5 65.5 Q33 145 33 282 Q33 416 115 502 Q197 588 324 588 Q405 588 464.5 554.5 Q524 521 557 456 Q578 414 588 363 Q598 312 596 250 L199 250 Q204 188 240 153 Q276 118 334 118 Q382 118 414 139.5 Q446 161 462 204 L603 163 Q572 78 500.5 32 Q429 -14 329 -14 Z M417 406 Q406 431 381.5 445 Q357 459 324 459 Q274 459 242 431 Q210 403 201 351 L431 351 Q430 366 426.5 379.5 Q423 393 417 406 Z M382 628 L266 628 L336 816 L493 816 L382 628 Z " />
<glyph glyph-name="ecircumflex" unicode="&#xea;" horiz-adv-x="624" d="M329 -14 Q192 -14 112.5 65.5 Q33 145 33 282 Q33 416 115 502 Q197 588 324 588 Q405 588 464.5 554.5 Q524 521 557 456 Q578 414 588 363 Q598 312 596 250 L199 250 Q204 188 240 153 Q276 118 334 118 Q382 118 414 139.5 Q446 161 462 204 L603 163 Q572 78 500.5 32 Q429 -14 329 -14 Z M417 406 Q406 431 381.5 445 Q357 459 324 459 Q274 459 242 431 Q210 403 201 351 L431 351 Q430 366 426.5 379.5 Q423 393 417 406 Z M253 628 L142 628 L272 816 L373 816 L506 628 L394 628 L321 710 L253 628 Z " />
<glyph glyph-name="edieresis" unicode="&#xeb;" horiz-adv-x="624" d="M329 -14 Q192 -14 112.5 65.5 Q33 145 33 282 Q33 416 115 502 Q197 588 324 588 Q405 588 464.5 554.5 Q524 521 557 456 Q578 414 588 363 Q598 312 596 250 L199 250 Q204 188 240 153 Q276 118 334 118 Q382 118 414 139.5 Q446 161 462 204 L603 163 Q572 78 500.5 32 Q429 -14 329 -14 Z M417 406 Q406 431 381.5 445 Q357 459 324 459 Q274 459 242 431 Q210 403 201 351 L431 351 Q430 366 426.5 379.5 Q423 393 417 406 Z M290 648 L142 648 L142 786 L290 786 L290 648 Z M506 648 L358 648 L358 786 L506 786 L506 648 Z " />
<glyph glyph-name="igrave" unicode="&#xec;" horiz-adv-x="292" d="M63 0 L63 575 L229 575 L229 0 L63 0 Z M134 816 L205 628 L89 628 L-22 816 L134 816 Z " />
<glyph glyph-name="iacute" unicode="&#xed;" horiz-adv-x="292" d="M63 0 L63 575 L229 575 L229 0 L63 0 Z M205 628 L89 628 L159 816 L316 816 L205 628 Z " />
<glyph glyph-name="icircumflex" unicode="&#xee;" horiz-adv-x="292" d="M63 0 L63 575 L229 575 L229 0 L63 0 Z M76 628 L-35 628 L95 816 L196 816 L329 628 L217 628 L144 710 L76 628 Z " />
<glyph glyph-name="idieresis" unicode="&#xef;" horiz-adv-x="292" d="M63 0 L63 575 L229 575 L229 0 L63 0 Z M113 648 L-35 648 L-35 786 L113 786 L113 648 Z M329 648 L181 648 L181 786 L329 786 L329 648 Z " />
<glyph glyph-name="eth" unicode="&#xf0;" horiz-adv-x="647" d="M415 732 L502 787 L555 712 L470 659 L495 626 Q555 546 584.5 467.5 Q614 389 614 307 Q614 241 599.5 187.5 Q585 134 557 97 Q519 43 457.5 14.5 Q396 -14 315 -14 Q186 -14 109.5 56.5 Q33 127 33 247 Q33 358 100.5 429 Q168 500 274 500 Q321 500 360.5 482.5 Q400 465 428 431 L432 432 Q423 456 407.5 481.5 Q392 507 359 552 L335 584 L255 531 L203 607 L281 658 L217 746 L345 826 L415 732 Z M325 123 Q381 123 413.5 158.5 Q446 194 446 256 Q446 320 414 356.5 Q382 393 325 393 Q266 393 234 357.5 Q202 322 202 255 Q202 193 234.5 158 Q267 123 325 123 Z " />
<glyph glyph-name="ntilde" unicode="&#xf1;" horiz-adv-x="668" d="M62 0 L62 575 L225 575 L225 472 L228 472 Q259 527 308 557 Q357 587 418 587 Q512 587 561.5 526.5 Q611 466 611 351 L611 0 L445 0 L445 305 Q445 384 421.5 419.5 Q398 455 346 455 Q290 455 259 414.5 Q228 374 228 301 L228 0 L62 0 Z M257 806 Q278 806 300 798.5 Q322 791 358 769 Q384 752 396 747.5 Q408 743 418 743 Q435 743 442.5 757.5 Q450 772 449 806 L534 796 Q537 719 510.5 677 Q484 635 432 635 Q412 635 391 642.5 Q370 650 333 672 Q305 688 292.5 693 Q280 698 270 698 Q251 698 242.5 683 Q234 668 234 633 L145 643 Q142 719 172 762.5 Q202 806 257 806 Z " />
<glyph glyph-name="ograve" unicode="&#xf2;" horiz-adv-x="649" d="M325 -14 Q189 -14 111 65.5 Q33 145 34 286 Q35 424 116 506.5 Q197 589 328 589 Q459 589 538 508.5 Q617 428 617 290 Q617 147 538.5 66.5 Q460 -14 325 -14 Z M326 123 Q386 123 417 165 Q448 207 448 287 Q448 366 416 409 Q384 452 326 452 Q267 452 235 409.5 Q203 367 203 287 Q203 209 235.5 166 Q268 123 326 123 Z M311 816 L382 628 L266 628 L155 816 L311 816 Z " />
<glyph glyph-name="oacute" unicode="&#xf3;" horiz-adv-x="649" d="M325 -14 Q189 -14 111 65.5 Q33 145 34 286 Q35 424 116 506.5 Q197 589 328 589 Q459 589 538 508.5 Q617 428 617 290 Q617 147 538.5 66.5 Q460 -14 325 -14 Z M326 123 Q386 123 417 165 Q448 207 448 287 Q448 366 416 409 Q384 452 326 452 Q267 452 235 409.5 Q203 367 203 287 Q203 209 235.5 166 Q268 123 326 123 Z M382 628 L266 628 L336 816 L493 816 L382 628 Z " />
<glyph glyph-name="ocircumflex" unicode="&#xf4;" horiz-adv-x="649" d="M325 -14 Q189 -14 111 65.5 Q33 145 34 286 Q35 424 116 506.5 Q197 589 328 589 Q459 589 538 508.5 Q617 428 617 290 Q617 147 538.5 66.5 Q460 -14 325 -14 Z M326 123 Q386 123 417 165 Q448 207 448 287 Q448 366 416 409 Q384 452 326 452 Q267 452 235 409.5 Q203 367 203 287 Q203 209 235.5 166 Q268 123 326 123 Z M253 628 L142 628 L272 816 L373 816 L506 628 L394 628 L321 710 L253 628 Z " />
<glyph glyph-name="otilde" unicode="&#xf5;" horiz-adv-x="649" d="M325 -14 Q189 -14 111 65.5 Q33 145 34 286 Q35 424 116 506.5 Q197 589 328 589 Q459 589 538 508.5 Q617 428 617 290 Q617 147 538.5 66.5 Q460 -14 325 -14 Z M326 123 Q386 123 417 165 Q448 207 448 287 Q448 366 416 409 Q384 452 326 452 Q267 452 235 409.5 Q203 367 203 287 Q203 209 235.5 166 Q268 123 326 123 Z M241 806 Q262 806 284 798.5 Q306 791 342 769 Q368 752 380 747.5 Q392 743 402 743 Q419 743 426.5 757.5 Q434 772 433 806 L518 796 Q521 719 494.5 677 Q468 635 416 635 Q396 635 375 642.5 Q354 650 317 672 Q289 688 276.5 693 Q264 698 254 698 Q235 698 226.5 683 Q218 668 218 633 L129 643 Q126 719 156 762.5 Q186 806 241 806 Z " />
<glyph glyph-name="odieresis" unicode="&#xf6;" horiz-adv-x="649" d="M325 -14 Q189 -14 111 65.5 Q33 145 34 286 Q35 424 116 506.5 Q197 589 328 589 Q459 589 538 508.5 Q617 428 617 290 Q617 147 538.5 66.5 Q460 -14 325 -14 Z M326 123 Q386 123 417 165 Q448 207 448 287 Q448 366 416 409 Q384 452 326 452 Q267 452 235 409.5 Q203 367 203 287 Q203 209 235.5 166 Q268 123 326 123 Z M290 648 L142 648 L142 786 L290 786 L290 648 Z M506 648 L358 648 L358 786 L506 786 L506 648 Z " />
<glyph glyph-name="divide" unicode="&#xf7;" horiz-adv-x="568" d="M349 521 L219 521 L219 655 L349 655 L349 521 Z M502 337 L66 337 L66 449 L502 449 L502 337 Z M349 127 L219 127 L219 261 L349 261 L349 127 Z " />
<glyph glyph-name="oslash" unicode="&#xf8;" horiz-adv-x="649" d="M33 286 Q34 424 115 506.5 Q196 589 327 589 Q376 589 420 575.5 Q464 562 501 536 L562 601 L636 532 L570 463 Q593 427 604.5 383.5 Q616 340 616 290 Q616 147 537.5 66.5 Q459 -14 324 -14 Q272 -14 227 -1 Q182 12 145 37 L87 -24 L13 45 L76 110 Q55 146 44 190.5 Q33 235 33 286 Z M325 455 Q264 455 231 411.5 Q198 368 198 287 Q198 270 199.5 254 Q201 238 204 225 L399 431 Q385 443 366 449 Q347 455 325 455 Z M325 120 Q386 120 418.5 162.5 Q451 205 451 287 Q451 307 449.5 323.5 Q448 340 444 353 L249 145 Q264 133 283 126.5 Q302 120 325 120 Z " />
<glyph glyph-name="ugrave" unicode="&#xf9;" horiz-adv-x="664" d="M246 -12 Q152 -12 103.5 47 Q55 106 55 221 L55 575 L221 575 L221 270 Q221 190 244 155 Q267 120 318 120 Q374 120 405 160.5 Q436 201 436 274 L436 575 L602 575 L602 0 L439 0 L439 103 L436 103 Q405 48 356 18 Q307 -12 246 -12 Z M316 811 L387 623 L271 623 L160 811 L316 811 Z " />
<glyph glyph-name="uacute" unicode="&#xfa;" horiz-adv-x="664" d="M246 -12 Q152 -12 103.5 47 Q55 106 55 221 L55 575 L221 575 L221 270 Q221 190 244 155 Q267 120 318 120 Q374 120 405 160.5 Q436 201 436 274 L436 575 L602 575 L602 0 L439 0 L439 103 L436 103 Q405 48 356 18 Q307 -12 246 -12 Z M387 623 L271 623 L341 811 L498 811 L387 623 Z " />
<glyph glyph-name="ucircumflex" unicode="&#xfb;" horiz-adv-x="664" d="M246 -12 Q152 -12 103.5 47 Q55 106 55 221 L55 575 L221 575 L221 270 Q221 190 244 155 Q267 120 318 120 Q374 120 405 160.5 Q436 201 436 274 L436 575 L602 575 L602 0 L439 0 L439 103 L436 103 Q405 48 356 18 Q307 -12 246 -12 Z M257 623 L146 623 L276 811 L377 811 L510 623 L398 623 L325 705 L257 623 Z " />
<glyph glyph-name="udieresis" unicode="&#xfc;" horiz-adv-x="664" d="M246 -12 Q152 -12 103.5 47 Q55 106 55 221 L55 575 L221 575 L221 270 Q221 190 244 155 Q267 120 318 120 Q374 120 405 160.5 Q436 201 436 274 L436 575 L602 575 L602 0 L439 0 L439 103 L436 103 Q405 48 356 18 Q307 -12 246 -12 Z M294 643 L146 643 L146 781 L294 781 L294 643 Z M510 643 L362 643 L362 781 L510 781 L510 643 Z " />
<glyph glyph-name="yacute" unicode="&#xfd;" horiz-adv-x="607" d="M600 575 L408 36 Q361 -96 302 -147 Q243 -198 140 -198 Q93 -198 50.5 -191.5 Q8 -185 -20 -173 L17 -32 Q51 -44 76.5 -48.5 Q102 -53 129 -53 Q156 -53 174.5 -46.5 Q193 -40 207 -26 Q211 -22 214 -18 Q217 -14 220 -9 L3 575 L177 575 L309 169 L432 575 L600 575 Z M361 628 L245 628 L315 816 L472 816 L361 628 Z " />
<glyph glyph-name="thorn" unicode="&#xfe;" horiz-adv-x="666" d="M228 -185 L62 -185 L62 815 L228 815 L228 472 L231 472 Q258 529 303 558.5 Q348 588 408 588 Q513 588 573 508 Q633 428 633 288 Q633 149 571.5 67.5 Q510 -14 406 -14 Q344 -14 300.5 12 Q257 38 231 90 L228 90 L228 -185 Z M344 120 Q400 120 432 164.5 Q464 209 464 288 Q464 366 432 411 Q400 456 346 456 Q290 456 258 410.5 Q226 365 226 285 Q226 208 257.5 164 Q289 120 344 120 Z " />
<glyph glyph-name="ydieresis" unicode="&#xff;" horiz-adv-x="607" d="M600 575 L408 36 Q361 -96 302 -147 Q243 -198 140 -198 Q93 -198 50.5 -191.5 Q8 -185 -20 -173 L17 -32 Q51 -44 76.5 -48.5 Q102 -53 129 -53 Q156 -53 174.5 -46.5 Q193 -40 207 -26 Q211 -22 214 -18 Q217 -14 220 -9 L3 575 L177 575 L309 169 L432 575 L600 575 Z M269 648 L121 648 L121 786 L269 786 L269 648 Z M485 648 L337 648 L337 786 L485 786 L485 648 Z " />
<glyph glyph-name="Amacron" unicode="&#x100;" horiz-adv-x="755" d="M183 0 L12 0 L267 774 L475 774 L743 0 L559 0 L512 152 L229 152 L183 0 Z M370 617 L269 284 L472 284 L370 617 Z M537 831 L213 831 L213 928 L537 928 L537 831 Z " />
<glyph glyph-name="amacron" unicode="&#x101;" horiz-adv-x="640" d="M545 -11 Q477 -11 439 15.5 Q401 42 394 95 L391 95 Q363 42 314.5 14 Q266 -14 200 -14 Q120 -14 73 29 Q26 72 26 146 Q26 191 43 224.5 Q60 258 95 280 Q121 297 156.5 308 Q192 319 239 325 L318 335 Q359 340 377.5 354.5 Q396 369 396 397 Q396 426 375.5 442 Q355 458 318 458 Q272 458 244.5 435 Q217 412 207 365 L54 388 Q81 485 150 536.5 Q219 588 322 588 Q436 588 496 531 Q556 474 556 364 L556 167 Q556 134 568.5 121 Q581 108 613 108 Q620 108 625.5 108.5 Q631 109 638 110 L638 2 Q624 -4 598 -7.5 Q572 -11 545 -11 Z M197 169 Q197 136 217 118 Q237 100 274 100 Q329 100 362 142 Q395 184 395 252 L395 270 Q385 264 372 259.5 Q359 255 341 253 L279 243 Q237 236 217 218 Q197 200 197 169 Z M492 650 L164 650 L164 748 L492 748 L492 650 Z " />
<glyph glyph-name="Abreve" unicode="&#x102;" horiz-adv-x="755" d="M183 0 L12 0 L267 774 L475 774 L743 0 L559 0 L512 152 L229 152 L183 0 Z M370 617 L269 284 L472 284 L370 617 Z M553 961 Q553 896 506 858 Q459 820 380 820 Q295 820 247 856.5 Q199 893 199 958 Q199 962 199.5 967.5 Q200 973 201 981 L300 981 L300 974 Q300 947 321 932 Q342 917 380 917 Q417 917 437 931.5 Q457 946 457 973 L457 981 L551 981 Q552 974 552.5 969 Q553 964 553 961 Z " />
<glyph glyph-name="abreve" unicode="&#x103;" horiz-adv-x="640" d="M545 -11 Q477 -11 439 15.5 Q401 42 394 95 L391 95 Q363 42 314.5 14 Q266 -14 200 -14 Q120 -14 73 29 Q26 72 26 146 Q26 191 43 224.5 Q60 258 95 280 Q121 297 156.5 308 Q192 319 239 325 L318 335 Q359 340 377.5 354.5 Q396 369 396 397 Q396 426 375.5 442 Q355 458 318 458 Q272 458 244.5 435 Q217 412 207 365 L54 388 Q81 485 150 536.5 Q219 588 322 588 Q436 588 496 531 Q556 474 556 364 L556 167 Q556 134 568.5 121 Q581 108 613 108 Q620 108 625.5 108.5 Q631 109 638 110 L638 2 Q624 -4 598 -7.5 Q572 -11 545 -11 Z M197 169 Q197 136 217 118 Q237 100 274 100 Q329 100 362 142 Q395 184 395 252 L395 270 Q385 264 372 259.5 Q359 255 341 253 L279 243 Q237 236 217 218 Q197 200 197 169 Z M505 789 Q505 719 457 675.5 Q409 632 332 632 Q249 632 200 673.5 Q151 715 151 786 Q151 789 151.5 792.5 Q152 796 153 809 L252 809 L252 799 Q252 766 273 748 Q294 730 332 730 Q370 730 389.5 747 Q409 764 409 797 L409 809 L503 809 Q505 797 505 794 Q505 791 505 789 Z " />
<glyph glyph-name="Aogonek" unicode="&#x104;" horiz-adv-x="755" d="M183 0 L12 0 L267 774 L475 774 L743 0 L697 0 Q654 -5 630 -27.5 Q606 -50 606 -84 Q606 -108 619.5 -120.5 Q633 -133 660 -133 Q670 -133 679.5 -131.5 Q689 -130 698 -128 L698 -212 Q682 -219 660.5 -222.5 Q639 -226 615 -226 Q548 -226 511 -198 Q474 -170 474 -119 Q474 -79 495.5 -49 Q517 -19 559 0 L512 152 L229 152 L183 0 Z M370 617 L269 284 L472 284 L370 617 Z " />
<glyph glyph-name="aogonek" unicode="&#x105;" horiz-adv-x="640" d="M639 -128 L639 -212 Q623 -219 601.5 -222.5 Q580 -226 556 -226 Q489 -226 452 -198 Q415 -170 415 -119 Q415 -79 436.5 -50.5 Q458 -22 500 -4 L500 -3 Q453 4 426.5 28.5 Q400 53 394 95 L391 95 Q363 42 314.5 14 Q266 -14 200 -14 Q120 -14 73 29 Q26 72 26 146 Q26 191 43 224.5 Q60 258 95 280 Q121 297 156.5 308 Q192 319 239 325 L318 335 Q359 340 377.5 354.5 Q396 369 396 397 Q396 426 375.5 442 Q355 458 318 458 Q272 458 244.5 435 Q217 412 207 365 L54 388 Q81 485 150 536.5 Q219 588 322 588 Q436 588 496 531 Q556 474 556 364 L556 167 Q556 134 568.5 121 Q581 108 613 108 Q620 108 625.5 108.5 Q631 109 638 110 L638 2 Q594 -7 570.5 -29 Q547 -51 547 -84 Q547 -108 560.5 -120.5 Q574 -133 601 -133 Q611 -133 620.5 -131.5 Q630 -130 639 -128 Z M197 169 Q197 136 217 118 Q237 100 274 100 Q329 100 362 142 Q395 184 395 252 L395 270 Q385 264 372 259.5 Q359 255 341 253 L279 243 Q237 236 217 218 Q197 200 197 169 Z " />
<glyph glyph-name="Cacute" unicode="&#x106;" horiz-adv-x="765" d="M404 -14 Q235 -14 136.5 91 Q38 196 38 378 Q38 563 142 675.5 Q246 788 412 788 Q548 788 636.5 712 Q725 636 751 496 L579 463 Q563 550 520.5 593.5 Q478 637 409 637 Q317 637 265.5 570.5 Q214 504 214 383 Q214 267 265.5 202 Q317 137 409 137 Q480 137 523 176.5 Q566 216 587 300 L755 263 Q725 130 634 58 Q543 -14 404 -14 Z M483 825 L350 825 L402 978 L558 978 L483 825 Z " />
<glyph glyph-name="cacute" unicode="&#x107;" horiz-adv-x="621" d="M322 449 Q267 449 234.5 406 Q202 363 202 288 Q202 212 234 168.5 Q266 125 323 125 Q368 125 396.5 150.5 Q425 176 437 227 L598 199 Q576 99 503.5 42.5 Q431 -14 320 -14 Q183 -14 108 64 Q33 142 33 282 Q33 419 113 503.5 Q193 588 322 588 Q433 588 502.5 529.5 Q572 471 595 359 L431 335 Q420 392 393 420.5 Q366 449 322 449 Z M384 628 L268 628 L338 816 L495 816 L384 628 Z " />
<glyph glyph-name="Ccircumflex" unicode="&#x108;" horiz-adv-x="765" d="M404 -14 Q235 -14 136.5 91 Q38 196 38 378 Q38 563 142 675.5 Q246 788 412 788 Q548 788 636.5 712 Q725 636 751 496 L579 463 Q563 550 520.5 593.5 Q478 637 409 637 Q317 637 265.5 570.5 Q214 504 214 383 Q214 267 265.5 202 Q317 137 409 137 Q480 137 523 176.5 Q566 216 587 300 L755 263 Q725 130 634 58 Q543 -14 404 -14 Z M348 822 L230 822 L366 976 L467 976 L604 822 L485 822 L415 882 L348 822 Z " />
<glyph glyph-name="ccircumflex" unicode="&#x109;" horiz-adv-x="621" d="M322 449 Q267 449 234.5 406 Q202 363 202 288 Q202 212 234 168.5 Q266 125 323 125 Q368 125 396.5 150.5 Q425 176 437 227 L598 199 Q576 99 503.5 42.5 Q431 -14 320 -14 Q183 -14 108 64 Q33 142 33 282 Q33 419 113 503.5 Q193 588 322 588 Q433 588 502.5 529.5 Q572 471 595 359 L431 335 Q420 392 393 420.5 Q366 449 322 449 Z M255 628 L144 628 L274 816 L375 816 L508 628 L396 628 L323 710 L255 628 Z " />
<glyph glyph-name="Cdotaccent" unicode="&#x10a;" horiz-adv-x="765" d="M404 -14 Q235 -14 136.5 91 Q38 196 38 378 Q38 563 142 675.5 Q246 788 412 788 Q548 788 636.5 712 Q725 636 751 496 L579 463 Q563 550 520.5 593.5 Q478 637 409 637 Q317 637 265.5 570.5 Q214 504 214 383 Q214 267 265.5 202 Q317 137 409 137 Q480 137 523 176.5 Q566 216 587 300 L755 263 Q725 130 634 58 Q543 -14 404 -14 Z M506 826 L326 826 L326 967 L506 967 L506 826 Z " />
<glyph glyph-name="cdotaccent" unicode="&#x10b;" horiz-adv-x="621" d="M322 449 Q267 449 234.5 406 Q202 363 202 288 Q202 212 234 168.5 Q266 125 323 125 Q368 125 396.5 150.5 Q425 176 437 227 L598 199 Q576 99 503.5 42.5 Q431 -14 320 -14 Q183 -14 108 64 Q33 142 33 282 Q33 419 113 503.5 Q193 588 322 588 Q433 588 502.5 529.5 Q572 471 595 359 L431 335 Q420 392 393 420.5 Q366 449 322 449 Z M412 661 L240 661 L240 815 L412 815 L412 661 Z " />
<glyph glyph-name="Ccaron" unicode="&#x10c;" horiz-adv-x="765" d="M404 -14 Q235 -14 136.5 91 Q38 196 38 378 Q38 563 142 675.5 Q246 788 412 788 Q548 788 636.5 712 Q725 636 751 496 L579 463 Q563 550 520.5 593.5 Q478 637 409 637 Q317 637 265.5 570.5 Q214 504 214 383 Q214 267 265.5 202 Q317 137 409 137 Q480 137 523 176.5 Q566 216 587 300 L755 263 Q725 130 634 58 Q543 -14 404 -14 Z M483 976 L601 976 L466 822 L366 822 L227 976 L346 976 L417 916 L483 976 Z " />
<glyph glyph-name="ccaron" unicode="&#x10d;" horiz-adv-x="621" d="M322 449 Q267 449 234.5 406 Q202 363 202 288 Q202 212 234 168.5 Q266 125 323 125 Q368 125 396.5 150.5 Q425 176 437 227 L598 199 Q576 99 503.5 42.5 Q431 -14 320 -14 Q183 -14 108 64 Q33 142 33 282 Q33 419 113 503.5 Q193 588 322 588 Q433 588 502.5 529.5 Q572 471 595 359 L431 335 Q420 392 393 420.5 Q366 449 322 449 Z M395 816 L506 816 L376 628 L275 628 L142 816 L254 816 L327 735 L395 816 Z " />
<glyph glyph-name="Dcaron" unicode="&#x10e;" horiz-adv-x="792" d="M69 0 L69 774 L328 774 Q533 774 644.5 673 Q756 572 756 390 Q756 211 642 105.5 Q528 0 330 0 L69 0 Z M580 394 Q580 510 518 570 Q456 630 337 630 L241 630 L241 144 L333 144 Q455 144 517.5 207.5 Q580 271 580 394 Z M453 976 L571 976 L436 822 L336 822 L197 976 L316 976 L387 916 L453 976 Z " />
<glyph glyph-name="dcaron" unicode="&#x10f;" horiz-adv-x="700" d="M260 -13 Q162 -13 97.5 68.5 Q33 150 33 281 Q33 419 102.5 504 Q172 589 277 589 Q331 589 370.5 564 Q410 539 435 489 L438 489 L438 815 L604 815 L604 0 L441 0 L441 101 L438 101 Q412 45 367 16 Q322 -13 260 -13 Z M202 285 Q202 210 233.5 166.5 Q265 123 320 123 Q376 123 408 167 Q440 211 440 288 Q440 364 408 408.5 Q376 453 322 453 Q266 453 234 408.5 Q202 364 202 285 Z M789 764 Q789 716 777.5 667.5 Q766 619 742 568 L644 568 Q652 604 656 640.5 Q660 677 660 715 Q660 747 658.5 770.5 Q657 794 654 815 L786 815 Q788 802 788.5 789.5 Q789 777 789 764 Z " />
<glyph glyph-name="Dcroat" unicode="&#x110;" horiz-adv-x="802" d="M79 334 L-11 334 L-11 450 L79 450 L79 774 L338 774 Q543 774 654.5 673 Q766 572 766 390 Q766 211 652 105.5 Q538 0 340 0 L79 0 L79 334 Z M590 394 Q590 510 528 570 Q466 630 347 630 L251 630 L251 450 L404 450 L404 334 L251 334 L251 144 L343 144 Q465 144 527.5 207.5 Q590 271 590 394 Z " />
<glyph glyph-name="dslash" unicode="&#x111;" horiz-adv-x="666" d="M260 -13 Q162 -13 97.5 68.5 Q33 150 33 281 Q33 419 102.5 504 Q172 589 277 589 Q331 589 370.5 564 Q410 539 435 489 L438 489 L438 630 L298 630 L298 725 L438 725 L438 815 L604 815 L604 725 L684 725 L684 630 L604 630 L604 0 L441 0 L441 101 L438 101 Q412 45 367 16 Q322 -13 260 -13 Z M202 285 Q202 210 233.5 166.5 Q265 123 320 123 Q376 123 408 167 Q440 211 440 288 Q440 364 408 408.5 Q376 453 322 453 Q266 453 234 408.5 Q202 364 202 285 Z " />
<glyph glyph-name="Emacron" unicode="&#x112;" horiz-adv-x="670" d="M69 0 L69 774 L614 774 L614 634 L241 634 L241 467 L592 467 L592 330 L241 330 L241 140 L634 140 L634 0 L69 0 Z M517 831 L193 831 L193 928 L517 928 L517 831 Z " />
<glyph glyph-name="emacron" unicode="&#x113;" horiz-adv-x="624" d="M329 -14 Q192 -14 112.5 65.5 Q33 145 33 282 Q33 416 115 502 Q197 588 324 588 Q405 588 464.5 554.5 Q524 521 557 456 Q578 414 588 363 Q598 312 596 250 L199 250 Q204 188 240 153 Q276 118 334 118 Q382 118 414 139.5 Q446 161 462 204 L603 163 Q572 78 500.5 32 Q429 -14 329 -14 Z M417 406 Q406 431 381.5 445 Q357 459 324 459 Q274 459 242 431 Q210 403 201 351 L431 351 Q430 366 426.5 379.5 Q423 393 417 406 Z M487 650 L159 650 L159 748 L487 748 L487 650 Z " />
<glyph glyph-name="Ebreve" unicode="&#x114;" horiz-adv-x="670" d="M69 0 L69 774 L614 774 L614 634 L241 634 L241 467 L592 467 L592 330 L241 330 L241 140 L634 140 L634 0 L69 0 Z M533 961 Q533 896 486 858 Q439 820 360 820 Q275 820 227 856.5 Q179 893 179 958 Q179 962 179.5 967.5 Q180 973 181 981 L280 981 L280 974 Q280 947 301 932 Q322 917 360 917 Q397 917 417 931.5 Q437 946 437 973 L437 981 L531 981 Q532 974 532.5 969 Q533 964 533 961 Z " />
<glyph glyph-name="ebreve" unicode="&#x115;" horiz-adv-x="624" d="M329 -14 Q192 -14 112.5 65.5 Q33 145 33 282 Q33 416 115 502 Q197 588 324 588 Q405 588 464.5 554.5 Q524 521 557 456 Q578 414 588 363 Q598 312 596 250 L199 250 Q204 188 240 153 Q276 118 334 118 Q382 118 414 139.5 Q446 161 462 204 L603 163 Q572 78 500.5 32 Q429 -14 329 -14 Z M417 406 Q406 431 381.5 445 Q357 459 324 459 Q274 459 242 431 Q210 403 201 351 L431 351 Q430 366 426.5 379.5 Q423 393 417 406 Z M501 789 Q501 719 453 675.5 Q405 632 328 632 Q245 632 196 673.5 Q147 715 147 786 Q147 789 147.5 792.5 Q148 796 149 809 L248 809 L248 799 Q248 766 269 748 Q290 730 328 730 Q366 730 385.5 747 Q405 764 405 797 L405 809 L499 809 Q501 797 501 794 Q501 791 501 789 Z " />
<glyph glyph-name="Edotaccent" unicode="&#x116;" horiz-adv-x="670" d="M69 0 L69 774 L614 774 L614 634 L241 634 L241 467 L592 467 L592 330 L241 330 L241 140 L634 140 L634 0 L69 0 Z M445 826 L265 826 L265 967 L445 967 L445 826 Z " />
<glyph glyph-name="edotaccent" unicode="&#x117;" horiz-adv-x="624" d="M329 -14 Q192 -14 112.5 65.5 Q33 145 33 282 Q33 416 115 502 Q197 588 324 588 Q405 588 464.5 554.5 Q524 521 557 456 Q578 414 588 363 Q598 312 596 250 L199 250 Q204 188 240 153 Q276 118 334 118 Q382 118 414 139.5 Q446 161 462 204 L603 163 Q572 78 500.5 32 Q429 -14 329 -14 Z M417 406 Q406 431 381.5 445 Q357 459 324 459 Q274 459 242 431 Q210 403 201 351 L431 351 Q430 366 426.5 379.5 Q423 393 417 406 Z M410 661 L238 661 L238 815 L410 815 L410 661 Z " />
<glyph glyph-name="Eogonek" unicode="&#x118;" horiz-adv-x="670" d="M597 -133 Q607 -133 616.5 -131.5 Q626 -130 635 -128 L635 -212 Q619 -219 597.5 -222.5 Q576 -226 552 -226 Q485 -226 448 -198 Q411 -170 411 -119 Q411 -80 432 -50.5 Q453 -21 496 -2 L496 0 L69 0 L69 774 L614 774 L614 634 L241 634 L241 467 L592 467 L592 330 L241 330 L241 140 L634 140 L634 0 Q591 -5 567 -27.5 Q543 -50 543 -84 Q543 -108 556.5 -120.5 Q570 -133 597 -133 Z " />
<glyph glyph-name="eogonek" unicode="&#x119;" horiz-adv-x="624" d="M544 -128 L544 -212 Q528 -219 506.5 -222.5 Q485 -226 461 -226 Q394 -226 357 -198 Q320 -170 320 -119 Q320 -80 341 -53 Q362 -26 405 -9 L405 -7 Q388 -11 369.5 -12.5 Q351 -14 329 -14 Q192 -14 112.5 65.5 Q33 145 33 282 Q33 416 115 502 Q197 588 324 588 Q405 588 464.5 554.5 Q524 521 557 456 Q578 414 588 363 Q598 312 596 250 L199 250 Q204 188 240 153 Q276 118 334 118 Q382 118 414 139.5 Q446 161 462 204 L603 163 Q593 136 578 112 Q563 88 545 69 Q484 3 468 -23 Q452 -49 452 -78 Q452 -104 466.5 -118.5 Q481 -133 506 -133 Q516 -133 525.5 -131.5 Q535 -130 544 -128 Z M417 406 Q406 431 381.5 445 Q357 459 324 459 Q274 459 242 431 Q210 403 201 351 L431 351 Q430 366 426.5 379.5 Q423 393 417 406 Z " />
<glyph glyph-name="Ecaron" unicode="&#x11a;" horiz-adv-x="670" d="M69 0 L69 774 L614 774 L614 634 L241 634 L241 467 L592 467 L592 330 L241 330 L241 140 L634 140 L634 0 L69 0 Z M422 976 L540 976 L405 822 L305 822 L166 976 L285 976 L356 916 L422 976 Z " />
<glyph glyph-name="ecaron" unicode="&#x11b;" horiz-adv-x="624" d="M329 -14 Q192 -14 112.5 65.5 Q33 145 33 282 Q33 416 115 502 Q197 588 324 588 Q405 588 464.5 554.5 Q524 521 557 456 Q578 414 588 363 Q598 312 596 250 L199 250 Q204 188 240 153 Q276 118 334 118 Q382 118 414 139.5 Q446 161 462 204 L603 163 Q572 78 500.5 32 Q429 -14 329 -14 Z M417 406 Q406 431 381.5 445 Q357 459 324 459 Q274 459 242 431 Q210 403 201 351 L431 351 Q430 366 426.5 379.5 Q423 393 417 406 Z M393 816 L504 816 L374 628 L273 628 L140 816 L252 816 L325 735 L393 816 Z " />
<glyph glyph-name="Gcircumflex" unicode="&#x11c;" horiz-adv-x="799" d="M622 0 L608 128 L605 128 Q569 59 507 22.5 Q445 -14 363 -14 Q209 -14 123.5 88.5 Q38 191 38 370 Q38 561 141.5 674.5 Q245 788 412 788 Q544 788 633 716 Q722 644 754 511 L588 471 Q569 553 523.5 595 Q478 637 409 637 Q319 637 266.5 567 Q214 497 214 377 Q214 256 266.5 191 Q319 126 419 126 Q503 126 551 164.5 Q599 203 599 271 L599 273 L400 273 L400 402 L753 402 L753 0 L622 0 Z M349 822 L231 822 L367 976 L468 976 L605 822 L486 822 L416 882 L349 822 Z " />
<glyph glyph-name="gcircumflex" unicode="&#x11d;" horiz-adv-x="624" d="M282 -198 Q139 -198 71 -168.5 Q3 -139 3 -78 Q3 -40 33.5 -14 Q64 12 119 20 L119 22 Q80 33 59.5 56 Q39 79 39 111 Q39 151 64 177.5 Q89 204 141 221 L141 223 Q98 248 75.5 288 Q53 328 53 380 Q53 474 120.5 531 Q188 588 296 588 Q343 588 384.5 576 Q426 564 459 542 L542 649 L626 545 L504 497 Q522 472 531 443 Q540 414 540 382 Q540 291 475.5 239 Q411 187 301 187 Q268 187 240 191 Q212 195 188 203 Q175 198 168.5 190 Q162 182 162 170 Q162 153 180.5 144.5 Q199 136 237 136 L438 136 Q532 136 578.5 103 Q625 70 625 3 Q625 -95 537.5 -146.5 Q450 -198 282 -198 Z M214 384 Q214 345 236.5 322.5 Q259 300 300 300 Q339 300 359 323 Q379 346 379 390 Q379 429 357 452 Q335 475 297 475 Q259 475 236.5 450 Q214 425 214 384 Z M473 -30 Q473 -13 458 -5.5 Q443 2 407 2 L241 2 Q193 2 170.5 -8 Q148 -18 148 -40 Q148 -66 185 -79 Q222 -92 297 -92 Q381 -92 427 -75.5 Q473 -59 473 -30 Z M235 628 L124 628 L254 816 L355 816 L488 628 L376 628 L303 710 L235 628 Z " />
<glyph glyph-name="Gbreve" unicode="&#x11e;" horiz-adv-x="799" d="M622 0 L608 128 L605 128 Q569 59 507 22.5 Q445 -14 363 -14 Q209 -14 123.5 88.5 Q38 191 38 370 Q38 561 141.5 674.5 Q245 788 412 788 Q544 788 633 716 Q722 644 754 511 L588 471 Q569 553 523.5 595 Q478 637 409 637 Q319 637 266.5 567 Q214 497 214 377 Q214 256 266.5 191 Q319 126 419 126 Q503 126 551 164.5 Q599 203 599 271 L599 273 L400 273 L400 402 L753 402 L753 0 L622 0 Z M595 961 Q595 896 548 858 Q501 820 422 820 Q337 820 289 856.5 Q241 893 241 958 Q241 962 241.5 967.5 Q242 973 243 981 L342 981 L342 974 Q342 947 363 932 Q384 917 422 917 Q459 917 479 931.5 Q499 946 499 973 L499 981 L593 981 Q594 974 594.5 969 Q595 964 595 961 Z " />
<glyph glyph-name="gbreve" unicode="&#x11f;" horiz-adv-x="624" d="M282 -198 Q139 -198 71 -168.5 Q3 -139 3 -78 Q3 -40 33.5 -14 Q64 12 119 20 L119 22 Q80 33 59.5 56 Q39 79 39 111 Q39 151 64 177.5 Q89 204 141 221 L141 223 Q98 248 75.5 288 Q53 328 53 380 Q53 474 120.5 531 Q188 588 296 588 Q343 588 384.5 576 Q426 564 459 542 L542 649 L626 545 L504 497 Q522 472 531 443 Q540 414 540 382 Q540 291 475.5 239 Q411 187 301 187 Q268 187 240 191 Q212 195 188 203 Q175 198 168.5 190 Q162 182 162 170 Q162 153 180.5 144.5 Q199 136 237 136 L438 136 Q532 136 578.5 103 Q625 70 625 3 Q625 -95 537.5 -146.5 Q450 -198 282 -198 Z M214 384 Q214 345 236.5 322.5 Q259 300 300 300 Q339 300 359 323 Q379 346 379 390 Q379 429 357 452 Q335 475 297 475 Q259 475 236.5 450 Q214 425 214 384 Z M473 -30 Q473 -13 458 -5.5 Q443 2 407 2 L241 2 Q193 2 170.5 -8 Q148 -18 148 -40 Q148 -66 185 -79 Q222 -92 297 -92 Q381 -92 427 -75.5 Q473 -59 473 -30 Z M483 789 Q483 719 435 675.5 Q387 632 310 632 Q227 632 178 673.5 Q129 715 129 786 Q129 789 129.5 792.5 Q130 796 131 809 L230 809 L230 799 Q230 766 251 748 Q272 730 310 730 Q348 730 367.5 747 Q387 764 387 797 L387 809 L481 809 Q483 797 483 794 Q483 791 483 789 Z " />
<glyph glyph-name="Gdotaccent" unicode="&#x120;" horiz-adv-x="799" d="M622 0 L608 128 L605 128 Q569 59 507 22.5 Q445 -14 363 -14 Q209 -14 123.5 88.5 Q38 191 38 370 Q38 561 141.5 674.5 Q245 788 412 788 Q544 788 633 716 Q722 644 754 511 L588 471 Q569 553 523.5 595 Q478 637 409 637 Q319 637 266.5 567 Q214 497 214 377 Q214 256 266.5 191 Q319 126 419 126 Q503 126 551 164.5 Q599 203 599 271 L599 273 L400 273 L400 402 L753 402 L753 0 L622 0 Z M507 826 L327 826 L327 967 L507 967 L507 826 Z " />
<glyph glyph-name="gdotaccent" unicode="&#x121;" horiz-adv-x="624" d="M282 -198 Q139 -198 71 -168.5 Q3 -139 3 -78 Q3 -40 33.5 -14 Q64 12 119 20 L119 22 Q80 33 59.5 56 Q39 79 39 111 Q39 151 64 177.5 Q89 204 141 221 L141 223 Q98 248 75.5 288 Q53 328 53 380 Q53 474 120.5 531 Q188 588 296 588 Q343 588 384.5 576 Q426 564 459 542 L542 649 L626 545 L504 497 Q522 472 531 443 Q540 414 540 382 Q540 291 475.5 239 Q411 187 301 187 Q268 187 240 191 Q212 195 188 203 Q175 198 168.5 190 Q162 182 162 170 Q162 153 180.5 144.5 Q199 136 237 136 L438 136 Q532 136 578.5 103 Q625 70 625 3 Q625 -95 537.5 -146.5 Q450 -198 282 -198 Z M214 384 Q214 345 236.5 322.5 Q259 300 300 300 Q339 300 359 323 Q379 346 379 390 Q379 429 357 452 Q335 475 297 475 Q259 475 236.5 450 Q214 425 214 384 Z M473 -30 Q473 -13 458 -5.5 Q443 2 407 2 L241 2 Q193 2 170.5 -8 Q148 -18 148 -40 Q148 -66 185 -79 Q222 -92 297 -92 Q381 -92 427 -75.5 Q473 -59 473 -30 Z M392 661 L220 661 L220 815 L392 815 L392 661 Z " />
<glyph glyph-name="uni0122" unicode="&#x122;" horiz-adv-x="799" d="M622 0 L608 128 L605 128 Q569 59 507 22.5 Q445 -14 363 -14 Q209 -14 123.5 88.5 Q38 191 38 370 Q38 561 141.5 674.5 Q245 788 412 788 Q544 788 633 716 Q722 644 754 511 L588 471 Q569 553 523.5 595 Q478 637 409 637 Q319 637 266.5 567 Q214 497 214 377 Q214 256 266.5 191 Q319 126 419 126 Q503 126 551 164.5 Q599 203 599 271 L599 273 L400 273 L400 402 L753 402 L753 0 L622 0 Z M413 -178 L346 -178 L346 -49 L495 -49 L495 -145 Q495 -228 462.5 -264 Q430 -300 353 -304 L332 -234 Q379 -234 395.5 -222 Q412 -210 413 -178 Z " />
<glyph glyph-name="uni0123" unicode="&#x123;" horiz-adv-x="624" d="M282 -198 Q139 -198 71 -168.5 Q3 -139 3 -78 Q3 -40 33.5 -14 Q64 12 119 20 L119 22 Q80 33 59.5 56 Q39 79 39 111 Q39 151 64 177.5 Q89 204 141 221 L141 223 Q98 248 75.5 288 Q53 328 53 380 Q53 474 120.5 531 Q188 588 296 588 Q343 588 384.5 576 Q426 564 459 542 L542 649 L626 545 L504 497 Q522 472 531 443 Q540 414 540 382 Q540 291 475.5 239 Q411 187 301 187 Q268 187 240 191 Q212 195 188 203 Q175 198 168.5 190 Q162 182 162 170 Q162 153 180.5 144.5 Q199 136 237 136 L438 136 Q532 136 578.5 103 Q625 70 625 3 Q625 -95 537.5 -146.5 Q450 -198 282 -198 Z M214 384 Q214 345 236.5 322.5 Q259 300 300 300 Q339 300 359 323 Q379 346 379 390 Q379 429 357 452 Q335 475 297 475 Q259 475 236.5 450 Q214 425 214 384 Z M473 -30 Q473 -13 458 -5.5 Q443 2 407 2 L241 2 Q193 2 170.5 -8 Q148 -18 148 -40 Q148 -66 185 -79 Q222 -92 297 -92 Q381 -92 427 -75.5 Q473 -59 473 -30 Z M313 775 L380 775 L380 646 L232 646 L232 742 Q232 824 264.5 860.5 Q297 897 373 901 L395 831 Q348 831 331 819.5 Q314 808 313 775 Z " />
<glyph glyph-name="Hcircumflex" unicode="&#x124;" horiz-adv-x="801" d="M69 0 L69 774 L241 774 L241 467 L560 467 L560 774 L732 774 L732 0 L560 0 L560 317 L241 317 L241 0 L69 0 Z M332 817 L214 817 L350 971 L451 971 L588 817 L469 817 L399 877 L332 817 Z " />
<glyph glyph-name="hcircumflex" unicode="&#x125;" horiz-adv-x="668" d="M62 0 L62 815 L228 815 L228 477 L231 477 Q262 530 310.5 558.5 Q359 587 418 587 Q512 587 561.5 526.5 Q611 466 611 351 L611 0 L445 0 L445 305 Q445 384 421.5 419.5 Q398 455 346 455 Q290 455 259 414.5 Q228 374 228 301 L228 0 L62 0 Z M77 853 L-41 853 L95 1007 L196 1007 L333 853 L214 853 L144 913 L77 853 Z " />
<glyph glyph-name="Hbar" unicode="&#x126;" horiz-adv-x="821" d="M79 529 L-4 529 L-4 645 L79 645 L79 774 L250 774 L250 645 L570 645 L570 774 L742 774 L742 645 L824 645 L825 529 L742 529 L742 0 L570 0 L570 270 L250 270 L250 0 L79 0 L79 529 Z M250 529 L250 402 L570 402 L570 529 L250 529 Z " />
<glyph glyph-name="hbar" unicode="&#x127;" horiz-adv-x="668" d="M-18 630 L-18 725 L62 725 L62 815 L228 815 L228 725 L368 725 L368 630 L228 630 L228 477 L231 477 Q262 530 310.5 558.5 Q359 587 418 587 Q512 587 561.5 526.5 Q611 466 611 351 L611 0 L445 0 L445 305 Q445 384 421.5 419.5 Q398 455 346 455 Q290 455 259 414.5 Q228 374 228 301 L228 0 L62 0 L62 630 L-18 630 Z " />
<glyph glyph-name="Itilde" unicode="&#x128;" horiz-adv-x="316" d="M72 0 L72 774 L244 774 L244 0 L72 0 Z M77 984 Q98 984 120 977.5 Q142 971 178 950 Q204 936 216 931.5 Q228 927 238 927 Q255 927 262.5 940.5 Q270 954 269 985 L354 975 Q357 901 330.5 860 Q304 819 252 819 Q232 819 211 825.5 Q190 832 153 852 Q125 867 112.5 871.5 Q100 876 90 876 Q71 876 62.5 862 Q54 848 54 817 L-35 827 Q-38 900 -8 942 Q22 984 77 984 Z " />
<glyph glyph-name="itilde" unicode="&#x129;" horiz-adv-x="292" d="M63 0 L63 575 L229 575 L229 0 L63 0 Z M63 806 Q84 806 106 798.5 Q128 791 164 769 Q190 752 202 747.5 Q214 743 224 743 Q241 743 248.5 757.5 Q256 772 255 806 L340 796 Q343 719 316.5 677 Q290 635 238 635 Q218 635 197 642.5 Q176 650 139 672 Q111 688 98.5 693 Q86 698 76 698 Q57 698 48.5 683 Q40 668 40 633 L-49 643 Q-52 719 -22 762.5 Q8 806 63 806 Z " />
<glyph glyph-name="Imacron" unicode="&#x12a;" horiz-adv-x="316" d="M72 0 L72 774 L244 774 L244 0 L72 0 Z M319 831 L-5 831 L-5 928 L319 928 L319 831 Z " />
<glyph glyph-name="imacron" unicode="&#x12b;" horiz-adv-x="292" d="M63 0 L63 575 L229 575 L229 0 L63 0 Z M310 650 L-18 650 L-18 748 L310 748 L310 650 Z " />
<glyph glyph-name="Ibreve" unicode="&#x12c;" horiz-adv-x="316" d="M72 0 L72 774 L244 774 L244 0 L72 0 Z M335 961 Q335 896 288 858 Q241 820 162 820 Q77 820 29 856.5 Q-19 893 -19 958 Q-19 962 -18.5 967.5 Q-18 973 -17 981 L82 981 L82 974 Q82 947 103 932 Q124 917 162 917 Q199 917 219 931.5 Q239 946 239 973 L239 981 L333 981 Q334 974 334.5 969 Q335 964 335 961 Z " />
<glyph glyph-name="ibreve" unicode="&#x12d;" horiz-adv-x="292" d="M63 0 L63 575 L229 575 L229 0 L63 0 Z M324 789 Q324 719 276 675.5 Q228 632 151 632 Q68 632 19 673.5 Q-30 715 -30 786 Q-30 789 -29.5 792.5 Q-29 796 -28 809 L71 809 L71 799 Q71 766 92 748 Q113 730 151 730 Q189 730 208.5 747 Q228 764 228 797 L228 809 L322 809 Q324 797 324 794 Q324 791 324 789 Z " />
<glyph glyph-name="Iogonek" unicode="&#x12e;" horiz-adv-x="316" d="M207 -133 Q217 -133 226.5 -131.5 Q236 -130 245 -128 L245 -212 Q229 -219 207.5 -222.5 Q186 -226 162 -226 Q95 -226 58 -198 Q21 -170 21 -119 Q21 -80 42 -50.5 Q63 -21 106 -2 L106 0 L72 0 L72 774 L244 774 L244 0 Q201 -5 177 -27.5 Q153 -50 153 -84 Q153 -108 166.5 -120.5 Q180 -133 207 -133 Z " />
<glyph glyph-name="iogonek" unicode="&#x12f;" horiz-adv-x="292" d="M232 661 L60 661 L60 815 L232 815 L232 661 Z M192 -133 Q202 -133 211.5 -131.5 Q221 -130 230 -128 L230 -212 Q214 -219 192.5 -222.5 Q171 -226 147 -226 Q80 -226 43 -198 Q6 -170 6 -119 Q6 -80 27 -50.5 Q48 -21 91 -2 L91 0 L63 0 L63 575 L229 575 L229 0 Q186 -5 162 -27.5 Q138 -50 138 -84 Q138 -108 151.5 -120.5 Q165 -133 192 -133 Z " />
<glyph glyph-name="Idot" unicode="&#x130;" horiz-adv-x="316" d="M72 0 L72 774 L244 774 L244 0 L72 0 Z M247 826 L67 826 L67 967 L247 967 L247 826 Z " />
<glyph glyph-name="dotlessi" unicode="&#x131;" horiz-adv-x="292" d="M63 0 L63 575 L229 575 L229 0 L63 0 Z " />
<glyph glyph-name="IJ" unicode="&#x132;" horiz-adv-x="713" d="M359 -14 Q231 -14 154.5 43.5 Q78 101 59 212 L225 267 Q231 200 263.5 167.5 Q296 135 357 135 Q419 135 449.5 174 Q480 213 480 292 L480 774 L652 774 L652 311 Q652 146 580 66 Q508 -14 359 -14 Z M233 774 L233 331 L61 331 L61 774 L233 774 Z " />
<glyph glyph-name="ij" unicode="&#x133;" horiz-adv-x="584" d="M232 661 L60 661 L60 815 L232 815 L232 661 Z M63 0 L63 575 L229 575 L229 0 L63 0 Z M524 661 L352 661 L352 815 L524 815 L524 661 Z M251 -185 L236 -64 Q252 -66 262 -67 Q272 -68 283 -68 Q322 -68 338.5 -51.5 Q355 -35 355 3 L355 575 L521 575 L521 -1 Q521 -101 475.5 -149 Q430 -197 335 -197 Q314 -197 292 -194 Q270 -191 251 -185 Z " />
<glyph glyph-name="Jcircumflex" unicode="&#x134;" horiz-adv-x="606" d="M545 774 L545 251 Q545 183 528.5 132.5 Q512 82 479 50 Q446 18 397.5 2 Q349 -14 285 -14 Q158 -14 94 46.5 Q30 107 30 227 L30 324 L190 358 L190 256 Q190 193 212 163 Q234 133 281 133 Q328 133 350.5 162.5 Q373 192 373 254 L373 774 L545 774 Z M389 822 L271 822 L407 976 L508 976 L645 822 L526 822 L456 882 L389 822 Z " />
<glyph glyph-name="jcircumflex" unicode="&#x135;" horiz-adv-x="292" d="M-41 -185 L-56 -64 Q-40 -66 -30 -67 Q-20 -68 -9 -68 Q30 -68 46.5 -51.5 Q63 -35 63 3 L63 575 L229 575 L229 -1 Q229 -101 183.5 -149 Q138 -197 43 -197 Q22 -197 0 -194 Q-22 -191 -41 -185 Z M76 628 L-35 628 L95 816 L196 816 L329 628 L217 628 L144 710 L76 628 Z " />
<glyph glyph-name="uni0136" unicode="&#x136;" horiz-adv-x="734" d="M730 0 L543 0 L358 369 L241 223 L241 0 L69 0 L69 774 L241 774 L241 407 L517 774 L706 774 L484 475 L730 0 Z M379 -173 L312 -173 L312 -44 L461 -44 L461 -140 Q461 -223 428.5 -259 Q396 -295 319 -299 L298 -229 Q345 -229 361.5 -217 Q378 -205 379 -173 Z " />
<glyph glyph-name="uni0137" unicode="&#x137;" horiz-adv-x="629" d="M637 0 L455 0 L305 265 L229 185 L229 0 L62 0 L62 815 L229 815 L229 336 L442 575 L632 575 L430 347 L637 0 Z M322 -173 L255 -173 L255 -44 L404 -44 L404 -140 Q404 -223 371.5 -259 Q339 -295 262 -299 L241 -229 Q288 -229 304.5 -217 Q321 -205 322 -173 Z " />
<glyph glyph-name="kgreenlandic" unicode="&#x138;" horiz-adv-x="629" d="M637 0 L455 0 L305 265 L229 185 L229 0 L62 0 L62 575 L229 575 L229 336 L442 575 L632 575 L430 347 L637 0 Z " />
<glyph glyph-name="Lacute" unicode="&#x139;" horiz-adv-x="649" d="M69 0 L69 774 L241 774 L241 140 L627 140 L627 0 L69 0 Z M221 825 L88 825 L140 978 L296 978 L221 825 Z " />
<glyph glyph-name="lacute" unicode="&#x13a;" horiz-adv-x="290" d="M62 0 L62 815 L228 815 L228 0 L62 0 Z M212 856 L79 856 L131 1009 L287 1009 L212 856 Z " />
<glyph glyph-name="uni013B" unicode="&#x13b;" horiz-adv-x="649" d="M69 0 L69 774 L241 774 L241 140 L627 140 L627 0 L69 0 Z M350 -178 L283 -178 L283 -49 L432 -49 L432 -145 Q432 -228 399.5 -264 Q367 -300 290 -304 L269 -234 Q316 -234 332.5 -222 Q349 -210 350 -178 Z " />
<glyph glyph-name="uni013C" unicode="&#x13c;" horiz-adv-x="290" d="M62 0 L62 815 L228 815 L228 0 L62 0 Z M138 -178 L71 -178 L71 -49 L220 -49 L220 -145 Q220 -228 187.5 -264 Q155 -300 78 -304 L57 -234 Q104 -234 120.5 -222 Q137 -210 138 -178 Z " />
<glyph glyph-name="Lcaron" unicode="&#x13d;" horiz-adv-x="649" d="M69 0 L69 774 L241 774 L241 140 L627 140 L627 0 L69 0 Z M466 723 Q466 675 454.5 626.5 Q443 578 419 527 L321 527 Q329 563 333 599.5 Q337 636 337 674 Q337 706 335.5 729.5 Q334 753 331 774 L463 774 Q465 761 465.5 748.5 Q466 736 466 723 Z " />
<glyph glyph-name="lcaron" unicode="&#x13e;" horiz-adv-x="324" d="M62 0 L62 815 L228 815 L228 0 L62 0 Z M413 764 Q413 716 401.5 667.5 Q390 619 366 568 L268 568 Q276 604 280 640.5 Q284 677 284 715 Q284 747 282.5 770.5 Q281 794 278 815 L410 815 Q412 802 412.5 789.5 Q413 777 413 764 Z " />
<glyph glyph-name="Ldot" unicode="&#x13f;" horiz-adv-x="649" d="M69 0 L69 774 L241 774 L241 140 L627 140 L627 0 L69 0 Z M562 357 L396 357 L396 517 L562 517 L562 357 Z " />
<glyph glyph-name="ldot" unicode="&#x140;" horiz-adv-x="456" d="M62 0 L62 815 L228 815 L228 0 L62 0 Z M456 346 L290 346 L290 506 L456 506 L456 346 Z " />
<glyph glyph-name="Lslash" unicode="&#x141;" horiz-adv-x="659" d="M-10 258 L-10 378 L79 414 L79 774 L251 774 L251 476 L429 549 L429 427 L251 355 L251 140 L637 140 L637 0 L79 0 L79 294 L-10 258 Z " />
<glyph glyph-name="lslash" unicode="&#x142;" horiz-adv-x="329" d="M-12 246 L-12 360 L81 409 L81 815 L247 815 L247 484 L340 533 L340 420 L247 371 L247 0 L81 0 L81 296 L-12 246 Z " />
<glyph glyph-name="Nacute" unicode="&#x143;" horiz-adv-x="791" d="M567 774 L722 774 L722 0 L547 0 L224 544 L224 0 L69 0 L69 774 L269 774 L567 262 L567 774 Z M471 820 L338 820 L390 973 L546 973 L471 820 Z " />
<glyph glyph-name="nacute" unicode="&#x144;" horiz-adv-x="668" d="M62 0 L62 575 L225 575 L225 472 L228 472 Q259 527 308 557 Q357 587 418 587 Q512 587 561.5 526.5 Q611 466 611 351 L611 0 L445 0 L445 305 Q445 384 421.5 419.5 Q398 455 346 455 Q290 455 259 414.5 Q228 374 228 301 L228 0 L62 0 Z M399 628 L283 628 L353 816 L510 816 L399 628 Z " />
<glyph glyph-name="uni0145" unicode="&#x145;" horiz-adv-x="791" d="M567 774 L722 774 L722 0 L547 0 L224 544 L224 0 L69 0 L69 774 L269 774 L567 262 L567 774 Z M395 -173 L328 -173 L328 -44 L477 -44 L477 -140 Q477 -223 444.5 -259 Q412 -295 335 -299 L314 -229 Q361 -229 377.5 -217 Q394 -205 395 -173 Z " />
<glyph glyph-name="uni0146" unicode="&#x146;" horiz-adv-x="668" d="M62 0 L62 575 L225 575 L225 472 L228 472 Q259 527 308 557 Q357 587 418 587 Q512 587 561.5 526.5 Q611 466 611 351 L611 0 L445 0 L445 305 Q445 384 421.5 419.5 Q398 455 346 455 Q290 455 259 414.5 Q228 374 228 301 L228 0 L62 0 Z M330 -173 L263 -173 L263 -44 L412 -44 L412 -140 Q412 -223 379.5 -259 Q347 -295 270 -299 L249 -229 Q296 -229 312.5 -217 Q329 -205 330 -173 Z " />
<glyph glyph-name="Ncaron" unicode="&#x147;" horiz-adv-x="791" d="M567 774 L722 774 L722 0 L547 0 L224 544 L224 0 L69 0 L69 774 L269 774 L567 262 L567 774 Z M471 971 L589 971 L454 817 L354 817 L215 971 L334 971 L405 911 L471 971 Z " />
<glyph glyph-name="ncaron" unicode="&#x148;" horiz-adv-x="668" d="M62 0 L62 575 L225 575 L225 472 L228 472 Q259 527 308 557 Q357 587 418 587 Q512 587 561.5 526.5 Q611 466 611 351 L611 0 L445 0 L445 305 Q445 384 421.5 419.5 Q398 455 346 455 Q290 455 259 414.5 Q228 374 228 301 L228 0 L62 0 Z M410 816 L521 816 L391 628 L290 628 L157 816 L269 816 L342 735 L410 816 Z " />
<glyph glyph-name="Eng" unicode="&#x14a;" horiz-adv-x="791" d="M676 -132 Q650 -166 607.5 -182.5 Q565 -199 506 -199 Q471 -199 437.5 -195 Q404 -191 373 -183 L398 -48 Q419 -53 437 -55.5 Q455 -58 476 -58 Q520 -58 538 -39.5 Q556 -21 556 22 L224 546 L224 0 L69 0 L69 774 L269 774 L567 295 L567 774 L722 774 L722 43 Q722 -15 710.5 -59 Q699 -103 676 -132 Z " />
<glyph glyph-name="eng" unicode="&#x14b;" horiz-adv-x="664" d="M369 -68 Q408 -68 424.5 -51.5 Q441 -35 441 3 L441 305 Q441 384 418 419.5 Q395 455 344 455 Q289 455 258.5 414.5 Q228 374 228 301 L228 0 L62 0 L62 575 L225 575 L225 471 L228 471 Q260 527 310 557 Q360 587 422 587 Q512 587 559.5 526.5 Q607 466 607 351 L607 -1 Q607 -101 561.5 -149 Q516 -197 421 -197 Q400 -197 378 -194 Q356 -191 337 -185 L322 -64 Q338 -66 348 -67 Q358 -68 369 -68 Z " />
<glyph glyph-name="Omacron" unicode="&#x14c;" horiz-adv-x="805" d="M407 -14 Q236 -14 137 91.5 Q38 197 38 380 Q38 564 138.5 676 Q239 788 405 788 Q571 788 669 679.5 Q767 571 767 389 Q767 204 669.5 95 Q572 -14 407 -14 Z M547 206 Q569 237 580 281.5 Q591 326 591 383 Q591 504 542.5 570.5 Q494 637 406 637 Q358 637 320.5 618.5 Q283 600 258 563 Q236 530 225 485 Q214 440 214 383 Q214 268 265 202.5 Q316 137 405 137 Q451 137 487 154.5 Q523 172 547 206 Z M569 831 L245 831 L245 928 L569 928 L569 831 Z " />
<glyph glyph-name="omacron" unicode="&#x14d;" horiz-adv-x="649" d="M325 -14 Q189 -14 111 65.5 Q33 145 34 286 Q35 424 116 506.5 Q197 589 328 589 Q459 589 538 508.5 Q617 428 617 290 Q617 147 538.5 66.5 Q460 -14 325 -14 Z M326 123 Q386 123 417 165 Q448 207 448 287 Q448 366 416 409 Q384 452 326 452 Q267 452 235 409.5 Q203 367 203 287 Q203 209 235.5 166 Q268 123 326 123 Z M488 650 L160 650 L160 748 L488 748 L488 650 Z " />
<glyph glyph-name="Obreve" unicode="&#x14e;" horiz-adv-x="805" d="M407 -14 Q236 -14 137 91.5 Q38 197 38 380 Q38 564 138.5 676 Q239 788 405 788 Q571 788 669 679.5 Q767 571 767 389 Q767 204 669.5 95 Q572 -14 407 -14 Z M547 206 Q569 237 580 281.5 Q591 326 591 383 Q591 504 542.5 570.5 Q494 637 406 637 Q358 637 320.5 618.5 Q283 600 258 563 Q236 530 225 485 Q214 440 214 383 Q214 268 265 202.5 Q316 137 405 137 Q451 137 487 154.5 Q523 172 547 206 Z M584 961 Q584 896 537 858 Q490 820 411 820 Q326 820 278 856.5 Q230 893 230 958 Q230 962 230.5 967.5 Q231 973 232 981 L331 981 L331 974 Q331 947 352 932 Q373 917 411 917 Q448 917 468 931.5 Q488 946 488 973 L488 981 L582 981 Q583 974 583.5 969 Q584 964 584 961 Z " />
<glyph glyph-name="obreve" unicode="&#x14f;" horiz-adv-x="649" d="M325 -14 Q189 -14 111 65.5 Q33 145 34 286 Q35 424 116 506.5 Q197 589 328 589 Q459 589 538 508.5 Q617 428 617 290 Q617 147 538.5 66.5 Q460 -14 325 -14 Z M326 123 Q386 123 417 165 Q448 207 448 287 Q448 366 416 409 Q384 452 326 452 Q267 452 235 409.5 Q203 367 203 287 Q203 209 235.5 166 Q268 123 326 123 Z M501 789 Q501 719 453 675.5 Q405 632 328 632 Q245 632 196 673.5 Q147 715 147 786 Q147 789 147.5 792.5 Q148 796 149 809 L248 809 L248 799 Q248 766 269 748 Q290 730 328 730 Q366 730 385.5 747 Q405 764 405 797 L405 809 L499 809 Q501 797 501 794 Q501 791 501 789 Z " />
<glyph glyph-name="Ohungarumlaut" unicode="&#x150;" horiz-adv-x="805" d="M407 -14 Q236 -14 137 91.5 Q38 197 38 380 Q38 564 138.5 676 Q239 788 405 788 Q571 788 669 679.5 Q767 571 767 389 Q767 204 669.5 95 Q572 -14 407 -14 Z M547 206 Q569 237 580 281.5 Q591 326 591 383 Q591 504 542.5 570.5 Q494 637 406 637 Q358 637 320.5 618.5 Q283 600 258 563 Q236 530 225 485 Q214 440 214 383 Q214 268 265 202.5 Q316 137 405 137 Q451 137 487 154.5 Q523 172 547 206 Z M382 825 L276 825 L334 978 L457 978 L382 825 Z M538 825 L431 825 L489 978 L612 978 L538 825 Z " />
<glyph glyph-name="ohungarumlaut" unicode="&#x151;" horiz-adv-x="649" d="M325 -14 Q189 -14 111 65.5 Q33 145 34 286 Q35 424 116 506.5 Q197 589 328 589 Q459 589 538 508.5 Q617 428 617 290 Q617 147 538.5 66.5 Q460 -14 325 -14 Z M326 123 Q386 123 417 165 Q448 207 448 287 Q448 366 416 409 Q384 452 326 452 Q267 452 235 409.5 Q203 367 203 287 Q203 209 235.5 166 Q268 123 326 123 Z M293 628 L185 628 L254 816 L388 816 L293 628 Z M463 628 L354 628 L423 816 L557 816 L463 628 Z " />
<glyph glyph-name="OE" unicode="&#x152;" horiz-adv-x="1139" d="M215 718 Q265 746 331 760 Q397 774 480 774 L1083 774 L1083 634 L710 634 L710 467 L1061 467 L1061 330 L710 330 L710 140 L1103 140 L1103 0 L487 0 Q392 0 326 13 Q260 26 207 56 Q124 102 81 185 Q38 268 38 381 Q38 497 83 583 Q128 669 215 718 Z M214 383 Q214 265 278 204.5 Q342 144 468 144 L538 144 L538 630 L469 630 Q340 630 277 569.5 Q214 509 214 383 Z " />
<glyph glyph-name="oe" unicode="&#x153;" horiz-adv-x="1036" d="M743 118 Q791 118 823 139.5 Q855 161 871 204 L1012 163 Q979 76 912.5 31 Q846 -14 747 -14 Q678 -14 621.5 10.5 Q565 35 527 82 Q490 34 438.5 10 Q387 -14 323 -14 Q187 -14 110 65 Q33 144 34 286 Q35 423 114 506 Q193 589 319 589 Q388 589 441.5 564.5 Q495 540 532 492 Q568 540 619 564 Q670 588 735 588 Q806 588 860 561 Q914 534 949 482 Q979 439 992.5 381.5 Q1006 324 1005 250 L608 250 Q614 188 649 153 Q684 118 743 118 Z M826 403 Q813 430 787.5 444.5 Q762 459 728 459 Q680 459 649.5 431 Q619 403 610 351 L840 351 Q838 369 834.5 381.5 Q831 394 826 403 Z M326 123 Q386 123 417 165 Q448 207 448 287 Q448 366 416 409 Q384 452 326 452 Q267 452 235 409.5 Q203 367 203 287 Q203 209 235.5 166 Q268 123 326 123 Z " />
<glyph glyph-name="Racute" unicode="&#x154;" horiz-adv-x="718" d="M431 260 Q419 269 403 272.5 Q387 276 354 276 L241 276 L241 0 L69 0 L69 774 L408 774 Q545 774 619 719 Q693 664 693 563 Q693 476 640 419.5 Q587 363 491 347 L491 344 Q557 327 589.5 290.5 Q622 254 641 179 Q658 111 670.5 69.5 Q683 28 694 5 L694 0 L510 0 Q502 20 494.5 52.5 Q487 85 475 148 Q465 203 456.5 225 Q448 247 431 260 Z M518 531 Q518 587 482 613.5 Q446 640 371 640 L241 640 L241 407 L371 407 Q445 407 481.5 438 Q518 469 518 531 Z M440 823 L307 823 L359 976 L515 976 L440 823 Z " />
<glyph glyph-name="racute" unicode="&#x155;" horiz-adv-x="552" d="M391 587 Q459 587 497.5 541.5 Q536 496 536 413 Q536 393 533.5 371 Q531 349 527 324 L373 309 Q377 324 379.5 345.5 Q382 367 382 384 Q382 428 365.5 450.5 Q349 473 318 473 Q274 473 251 431 Q228 389 228 307 L228 0 L62 0 L62 575 L227 575 L227 480 L230 480 Q256 533 296.5 560 Q337 587 391 587 Z M356 628 L240 628 L310 816 L467 816 L356 628 Z " />
<glyph glyph-name="uni0156" unicode="&#x156;" horiz-adv-x="718" d="M431 260 Q419 269 403 272.5 Q387 276 354 276 L241 276 L241 0 L69 0 L69 774 L408 774 Q545 774 619 719 Q693 664 693 563 Q693 476 640 419.5 Q587 363 491 347 L491 344 Q557 327 589.5 290.5 Q622 254 641 179 Q658 111 670.5 69.5 Q683 28 694 5 L694 0 L510 0 Q502 20 494.5 52.5 Q487 85 475 148 Q465 203 456.5 225 Q448 247 431 260 Z M518 531 Q518 587 482 613.5 Q446 640 371 640 L241 640 L241 407 L371 407 Q445 407 481.5 438 Q518 469 518 531 Z M373 -173 L306 -173 L306 -44 L455 -44 L455 -140 Q455 -223 422.5 -259 Q390 -295 313 -299 L292 -229 Q339 -229 355.5 -217 Q372 -205 373 -173 Z " />
<glyph glyph-name="uni0157" unicode="&#x157;" horiz-adv-x="552" d="M391 587 Q459 587 497.5 541.5 Q536 496 536 413 Q536 393 533.5 371 Q531 349 527 324 L373 309 Q377 324 379.5 345.5 Q382 367 382 384 Q382 428 365.5 450.5 Q349 473 318 473 Q274 473 251 431 Q228 389 228 307 L228 0 L62 0 L62 575 L227 575 L227 480 L230 480 Q256 533 296.5 560 Q337 587 391 587 Z M137 -178 L70 -178 L70 -49 L219 -49 L219 -145 Q219 -228 186.5 -264 Q154 -300 77 -304 L56 -234 Q103 -234 119.5 -222 Q136 -210 137 -178 Z " />
<glyph glyph-name="Rcaron" unicode="&#x158;" horiz-adv-x="718" d="M431 260 Q419 269 403 272.5 Q387 276 354 276 L241 276 L241 0 L69 0 L69 774 L408 774 Q545 774 619 719 Q693 664 693 563 Q693 476 640 419.5 Q587 363 491 347 L491 344 Q557 327 589.5 290.5 Q622 254 641 179 Q658 111 670.5 69.5 Q683 28 694 5 L694 0 L510 0 Q502 20 494.5 52.5 Q487 85 475 148 Q465 203 456.5 225 Q448 247 431 260 Z M518 531 Q518 587 482 613.5 Q446 640 371 640 L241 640 L241 407 L371 407 Q445 407 481.5 438 Q518 469 518 531 Z M440 974 L558 974 L423 820 L323 820 L184 974 L303 974 L374 914 L440 974 Z " />
<glyph glyph-name="rcaron" unicode="&#x159;" horiz-adv-x="552" d="M391 587 Q459 587 497.5 541.5 Q536 496 536 413 Q536 393 533.5 371 Q531 349 527 324 L373 309 Q377 324 379.5 345.5 Q382 367 382 384 Q382 428 365.5 450.5 Q349 473 318 473 Q274 473 251 431 Q228 389 228 307 L228 0 L62 0 L62 575 L227 575 L227 480 L230 480 Q256 533 296.5 560 Q337 587 391 587 Z M367 816 L478 816 L348 628 L247 628 L114 816 L226 816 L299 735 L367 816 Z " />
<glyph glyph-name="Sacute" unicode="&#x15a;" horiz-adv-x="685" d="M607 376 Q633 350 646 315.5 Q659 281 659 237 Q659 120 575.5 53 Q492 -14 347 -14 Q203 -14 116 41.5 Q29 97 4 206 L168 253 Q185 190 231 158.5 Q277 127 353 127 Q418 127 452.5 151.5 Q487 176 487 222 Q487 253 464 270 Q441 287 363 301 Q287 315 258.5 321.5 Q230 328 204 336 Q169 346 142.5 360.5 Q116 375 97 394 Q70 421 57 456 Q44 491 44 535 Q44 652 126.5 720 Q209 788 346 788 Q467 788 546 732 Q625 676 656 568 L494 532 Q479 591 441.5 619 Q404 647 341 647 Q284 647 250 621.5 Q216 596 216 552 Q216 524 232 506 Q248 488 284 477 Q296 473 311.5 469.5 Q327 466 394 455 Q431 449 456 443.5 Q481 438 502 431 Q539 420 564.5 406.5 Q590 393 607 376 Z M411 825 L278 825 L330 978 L486 978 L411 825 Z " />
<glyph glyph-name="sacute" unicode="&#x15b;" horiz-adv-x="581" d="M304 107 Q348 107 372 122.5 Q396 138 396 166 Q396 183 383.5 193 Q371 203 337 208 Q327 210 299.5 213.5 Q272 217 256 220 Q169 234 136.5 246.5 Q104 259 84 279 Q63 300 52.5 328.5 Q42 357 42 393 Q42 481 108 534 Q174 587 282 587 Q384 587 452 540.5 Q520 494 538 413 L395 389 Q388 427 358.5 447 Q329 467 282 467 Q243 467 221 451.5 Q199 436 199 407 Q199 387 211 376 Q223 365 254 359 Q268 356 297.5 352 Q327 348 335 347 Q429 334 460.5 322 Q492 310 512 291 Q533 272 543 244.5 Q553 217 553 180 Q553 92 484.5 39.5 Q416 -13 301 -13 Q182 -13 109.5 32 Q37 77 17 163 L170 193 Q180 150 213 128.5 Q246 107 304 107 Z M363 628 L247 628 L317 816 L474 816 L363 628 Z " />
<glyph glyph-name="Scircumflex" unicode="&#x15c;" horiz-adv-x="685" d="M607 376 Q633 350 646 315.5 Q659 281 659 237 Q659 120 575.5 53 Q492 -14 347 -14 Q203 -14 116 41.5 Q29 97 4 206 L168 253 Q185 190 231 158.5 Q277 127 353 127 Q418 127 452.5 151.5 Q487 176 487 222 Q487 253 464 270 Q441 287 363 301 Q287 315 258.5 321.5 Q230 328 204 336 Q169 346 142.5 360.5 Q116 375 97 394 Q70 421 57 456 Q44 491 44 535 Q44 652 126.5 720 Q209 788 346 788 Q467 788 546 732 Q625 676 656 568 L494 532 Q479 591 441.5 619 Q404 647 341 647 Q284 647 250 621.5 Q216 596 216 552 Q216 524 232 506 Q248 488 284 477 Q296 473 311.5 469.5 Q327 466 394 455 Q431 449 456 443.5 Q481 438 502 431 Q539 420 564.5 406.5 Q590 393 607 376 Z M276 822 L158 822 L294 976 L395 976 L532 822 L413 822 L343 882 L276 822 Z " />
<glyph glyph-name="scircumflex" unicode="&#x15d;" horiz-adv-x="581" d="M304 107 Q348 107 372 122.5 Q396 138 396 166 Q396 183 383.5 193 Q371 203 337 208 Q327 210 299.5 213.5 Q272 217 256 220 Q169 234 136.5 246.5 Q104 259 84 279 Q63 300 52.5 328.5 Q42 357 42 393 Q42 481 108 534 Q174 587 282 587 Q384 587 452 540.5 Q520 494 538 413 L395 389 Q388 427 358.5 447 Q329 467 282 467 Q243 467 221 451.5 Q199 436 199 407 Q199 387 211 376 Q223 365 254 359 Q268 356 297.5 352 Q327 348 335 347 Q429 334 460.5 322 Q492 310 512 291 Q533 272 543 244.5 Q553 217 553 180 Q553 92 484.5 39.5 Q416 -13 301 -13 Q182 -13 109.5 32 Q37 77 17 163 L170 193 Q180 150 213 128.5 Q246 107 304 107 Z M234 628 L123 628 L253 816 L354 816 L487 628 L375 628 L302 710 L234 628 Z " />
<glyph glyph-name="uni015E" unicode="&#x15e;" horiz-adv-x="685" d="M333 -152 Q360 -152 374 -143.5 Q388 -135 388 -119 Q388 -106 380 -99.5 Q372 -93 357 -93 Q344 -93 334.5 -97.5 Q325 -102 321 -111 L268 -101 L296 -12 Q174 -3 100.5 52 Q27 107 4 206 L168 253 Q185 190 231 158.5 Q277 127 353 127 Q418 127 452.5 151.5 Q487 176 487 222 Q487 253 464 270 Q441 287 363 301 Q287 315 258.5 321.5 Q230 328 204 336 Q169 346 142.5 360.5 Q116 375 97 394 Q70 421 57 456 Q44 491 44 535 Q44 652 126.5 720 Q209 788 346 788 Q467 788 546 732 Q625 676 656 568 L494 532 Q479 591 441.5 619 Q404 647 341 647 Q284 647 250 621.5 Q216 596 216 552 Q216 524 232 506 Q248 488 284 477 Q296 473 311.5 469.5 Q327 466 394 455 Q431 449 456 443.5 Q481 438 502 431 Q539 420 564.5 406.5 Q590 393 607 376 Q633 350 646 315.5 Q659 281 659 237 Q659 126 583 59.5 Q507 -7 373 -13 L362 -51 Q369 -49 376 -48.5 Q383 -48 390 -48 Q429 -48 453.5 -70.5 Q478 -93 478 -132 Q478 -179 441.5 -207 Q405 -235 342 -235 Q301 -235 262.5 -227.5 Q224 -220 198 -207 L229 -128 Q251 -139 279.5 -145.5 Q308 -152 333 -152 Z " />
<glyph glyph-name="uni015F" unicode="&#x15f;" horiz-adv-x="581" d="M304 107 Q348 107 372 122.5 Q396 138 396 166 Q396 183 383.5 193 Q371 203 337 208 Q327 210 299.5 213.5 Q272 217 256 220 Q169 234 136.5 246.5 Q104 259 84 279 Q63 300 52.5 328.5 Q42 357 42 393 Q42 481 108 534 Q174 587 282 587 Q384 587 452 540.5 Q520 494 538 413 L395 389 Q388 427 358.5 447 Q329 467 282 467 Q243 467 221 451.5 Q199 436 199 407 Q199 387 211 376 Q223 365 254 359 Q268 356 297.5 352 Q327 348 335 347 Q429 334 460.5 322 Q492 310 512 291 Q533 272 543 244.5 Q553 217 553 180 Q553 98 494 46.5 Q435 -5 332 -12 L321 -51 Q328 -49 335 -48.5 Q342 -48 349 -48 Q388 -48 412.5 -70.5 Q437 -93 437 -132 Q437 -179 400.5 -207 Q364 -235 301 -235 Q260 -235 221.5 -227.5 Q183 -220 157 -207 L188 -128 Q210 -139 238.5 -145.5 Q267 -152 292 -152 Q319 -152 333 -143.5 Q347 -135 347 -119 Q347 -106 339 -99.5 Q331 -93 316 -93 Q303 -93 293.5 -97.5 Q284 -102 280 -111 L227 -101 L255 -11 Q156 -3 95.5 41.5 Q35 86 17 163 L170 193 Q180 150 213 128.5 Q246 107 304 107 Z " />
<glyph glyph-name="Scaron" unicode="&#x160;" horiz-adv-x="685" d="M607 376 Q633 350 646 315.5 Q659 281 659 237 Q659 120 575.5 53 Q492 -14 347 -14 Q203 -14 116 41.5 Q29 97 4 206 L168 253 Q185 190 231 158.5 Q277 127 353 127 Q418 127 452.5 151.5 Q487 176 487 222 Q487 253 464 270 Q441 287 363 301 Q287 315 258.5 321.5 Q230 328 204 336 Q169 346 142.5 360.5 Q116 375 97 394 Q70 421 57 456 Q44 491 44 535 Q44 652 126.5 720 Q209 788 346 788 Q467 788 546 732 Q625 676 656 568 L494 532 Q479 591 441.5 619 Q404 647 341 647 Q284 647 250 621.5 Q216 596 216 552 Q216 524 232 506 Q248 488 284 477 Q296 473 311.5 469.5 Q327 466 394 455 Q431 449 456 443.5 Q481 438 502 431 Q539 420 564.5 406.5 Q590 393 607 376 Z M411 976 L529 976 L394 822 L294 822 L155 976 L274 976 L345 916 L411 976 Z " />
<glyph glyph-name="scaron" unicode="&#x161;" horiz-adv-x="581" d="M304 107 Q348 107 372 122.5 Q396 138 396 166 Q396 183 383.5 193 Q371 203 337 208 Q327 210 299.5 213.5 Q272 217 256 220 Q169 234 136.5 246.5 Q104 259 84 279 Q63 300 52.5 328.5 Q42 357 42 393 Q42 481 108 534 Q174 587 282 587 Q384 587 452 540.5 Q520 494 538 413 L395 389 Q388 427 358.5 447 Q329 467 282 467 Q243 467 221 451.5 Q199 436 199 407 Q199 387 211 376 Q223 365 254 359 Q268 356 297.5 352 Q327 348 335 347 Q429 334 460.5 322 Q492 310 512 291 Q533 272 543 244.5 Q553 217 553 180 Q553 92 484.5 39.5 Q416 -13 301 -13 Q182 -13 109.5 32 Q37 77 17 163 L170 193 Q180 150 213 128.5 Q246 107 304 107 Z M374 816 L485 816 L355 628 L254 628 L121 816 L233 816 L306 735 L374 816 Z " />
<glyph glyph-name="Tcaron" unicode="&#x164;" horiz-adv-x="678" d="M663 774 L663 634 L425 634 L425 0 L253 0 L253 634 L15 634 L15 774 L663 774 Z M406 976 L524 976 L389 822 L289 822 L150 976 L269 976 L340 916 L406 976 Z " />
<glyph glyph-name="tcaron" unicode="&#x165;" horiz-adv-x="435" d="M354 117 Q369 117 383 118 Q397 119 412 122 L412 5 Q383 -4 353.5 -8.5 Q324 -13 289 -13 Q190 -13 144.5 32 Q99 77 99 176 L99 453 L-13 453 L-13 575 L102 575 L102 681 L265 743 L265 575 L411 575 L411 453 L265 453 L265 203 Q265 153 283.5 135 Q302 117 354 117 Z M484 838 Q484 790 472.5 741.5 Q461 693 437 642 L339 642 Q347 678 351 714.5 Q355 751 355 789 Q355 821 353.5 844.5 Q352 868 349 889 L481 889 Q483 876 483.5 863.5 Q484 851 484 838 Z " />
<glyph glyph-name="Tbar" unicode="&#x166;" horiz-adv-x="678" d="M253 323 L100 323 L100 429 L253 429 L253 634 L15 634 L15 774 L663 774 L663 634 L425 634 L425 429 L578 429 L578 323 L425 323 L425 0 L253 0 L253 323 Z " />
<glyph glyph-name="tbar" unicode="&#x167;" horiz-adv-x="435" d="M6 253 L6 358 L99 358 L99 453 L-13 453 L-13 575 L102 575 L102 681 L265 743 L265 575 L411 575 L411 453 L265 453 L265 358 L402 358 L402 253 L265 253 L265 203 Q265 153 283.5 135 Q302 117 354 117 Q369 117 383 118 Q397 119 412 122 L412 5 Q383 -4 353.5 -8.5 Q324 -13 289 -13 Q190 -13 144.5 32 Q99 77 99 176 L99 253 L6 253 Z " />
<glyph glyph-name="Utilde" unicode="&#x168;" horiz-adv-x="776" d="M231 774 L231 319 Q231 227 271 183.5 Q311 140 396 140 Q475 140 511 183 Q547 226 547 319 L547 774 L717 774 L717 313 Q717 153 634.5 69.5 Q552 -14 394 -14 Q226 -14 142.5 64.5 Q59 143 59 300 L59 774 L231 774 Z M307 979 Q328 979 350 972.5 Q372 966 408 945 Q434 931 446 926.5 Q458 922 468 922 Q485 922 492.5 935.5 Q500 949 499 980 L584 970 Q587 896 560.5 855 Q534 814 482 814 Q462 814 441 820.5 Q420 827 383 847 Q355 862 342.5 866.5 Q330 871 320 871 Q301 871 292.5 857 Q284 843 284 812 L195 822 Q192 895 222 937 Q252 979 307 979 Z " />
<glyph glyph-name="utilde" unicode="&#x169;" horiz-adv-x="664" d="M246 -12 Q152 -12 103.5 47 Q55 106 55 221 L55 575 L221 575 L221 270 Q221 190 244 155 Q267 120 318 120 Q374 120 405 160.5 Q436 201 436 274 L436 575 L602 575 L602 0 L439 0 L439 103 L436 103 Q405 48 356 18 Q307 -12 246 -12 Z M245 801 Q266 801 288 793.5 Q310 786 346 764 Q372 747 384 742.5 Q396 738 406 738 Q423 738 430.5 752.5 Q438 767 437 801 L522 791 Q525 714 498.5 672 Q472 630 420 630 Q400 630 379 637.5 Q358 645 321 667 Q293 683 280.5 688 Q268 693 258 693 Q239 693 230.5 678 Q222 663 222 628 L133 638 Q130 714 160 757.5 Q190 801 245 801 Z " />
<glyph glyph-name="Umacron" unicode="&#x16a;" horiz-adv-x="776" d="M231 774 L231 319 Q231 227 271 183.5 Q311 140 396 140 Q475 140 511 183 Q547 226 547 319 L547 774 L717 774 L717 313 Q717 153 634.5 69.5 Q552 -14 394 -14 Q226 -14 142.5 64.5 Q59 143 59 300 L59 774 L231 774 Z M550 826 L226 826 L226 923 L550 923 L550 826 Z " />
<glyph glyph-name="umacron" unicode="&#x16b;" horiz-adv-x="664" d="M246 -12 Q152 -12 103.5 47 Q55 106 55 221 L55 575 L221 575 L221 270 Q221 190 244 155 Q267 120 318 120 Q374 120 405 160.5 Q436 201 436 274 L436 575 L602 575 L602 0 L439 0 L439 103 L436 103 Q405 48 356 18 Q307 -12 246 -12 Z M492 645 L164 645 L164 743 L492 743 L492 645 Z " />
<glyph glyph-name="Ubreve" unicode="&#x16c;" horiz-adv-x="776" d="M231 774 L231 319 Q231 227 271 183.5 Q311 140 396 140 Q475 140 511 183 Q547 226 547 319 L547 774 L717 774 L717 313 Q717 153 634.5 69.5 Q552 -14 394 -14 Q226 -14 142.5 64.5 Q59 143 59 300 L59 774 L231 774 Z M565 956 Q565 891 518 853 Q471 815 392 815 Q307 815 259 851.5 Q211 888 211 953 Q211 957 211.5 962.5 Q212 968 213 976 L312 976 L312 969 Q312 942 333 927 Q354 912 392 912 Q429 912 449 926.5 Q469 941 469 968 L469 976 L563 976 Q564 969 564.5 964 Q565 959 565 956 Z " />
<glyph glyph-name="ubreve" unicode="&#x16d;" horiz-adv-x="664" d="M246 -12 Q152 -12 103.5 47 Q55 106 55 221 L55 575 L221 575 L221 270 Q221 190 244 155 Q267 120 318 120 Q374 120 405 160.5 Q436 201 436 274 L436 575 L602 575 L602 0 L439 0 L439 103 L436 103 Q405 48 356 18 Q307 -12 246 -12 Z M505 784 Q505 714 457 670.5 Q409 627 332 627 Q249 627 200 668.5 Q151 710 151 781 Q151 784 151.5 787.5 Q152 791 153 804 L252 804 L252 794 Q252 761 273 743 Q294 725 332 725 Q370 725 389.5 742 Q409 759 409 792 L409 804 L503 804 Q505 792 505 789 Q505 786 505 784 Z " />
<glyph glyph-name="Uring" unicode="&#x16e;" horiz-adv-x="776" d="M231 774 L231 319 Q231 227 271 183.5 Q311 140 396 140 Q475 140 511 183 Q547 226 547 319 L547 774 L717 774 L717 313 Q717 153 634.5 69.5 Q552 -14 394 -14 Q226 -14 142.5 64.5 Q59 143 59 300 L59 774 L231 774 Z M504 926 Q504 872 472 840 Q440 808 387 808 Q335 808 303.5 840 Q272 872 272 925 Q272 976 305 1009.5 Q338 1043 389 1043 Q440 1043 472 1011 Q504 979 504 926 Z M337 925 Q337 898 351 882.5 Q365 867 389 867 Q413 867 426.5 882 Q440 897 440 925 Q440 953 426.5 969 Q413 985 389 985 Q365 985 351 968.5 Q337 952 337 925 Z " />
<glyph glyph-name="uring" unicode="&#x16f;" horiz-adv-x="664" d="M246 -12 Q152 -12 103.5 47 Q55 106 55 221 L55 575 L221 575 L221 270 Q221 190 244 155 Q267 120 318 120 Q374 120 405 160.5 Q436 201 436 274 L436 575 L602 575 L602 0 L439 0 L439 103 L436 103 Q405 48 356 18 Q307 -12 246 -12 Z M454 755 Q454 699 418.5 663 Q383 627 328 627 Q272 627 237 662 Q202 697 202 754 Q202 811 238 847 Q274 883 330 883 Q384 883 419 847 Q454 811 454 755 Z M271 754 Q271 725 286.5 707.5 Q302 690 328 690 Q355 690 370.5 707 Q386 724 386 754 Q386 785 371 802.5 Q356 820 330 820 Q303 820 287 802 Q271 784 271 754 Z " />
<glyph glyph-name="Uhungarumlaut" unicode="&#x170;" horiz-adv-x="776" d="M231 774 L231 319 Q231 227 271 183.5 Q311 140 396 140 Q475 140 511 183 Q547 226 547 319 L547 774 L717 774 L717 313 Q717 153 634.5 69.5 Q552 -14 394 -14 Q226 -14 142.5 64.5 Q59 143 59 300 L59 774 L231 774 Z M363 820 L257 820 L315 973 L438 973 L363 820 Z M519 820 L412 820 L470 973 L593 973 L519 820 Z " />
<glyph glyph-name="uhungarumlaut" unicode="&#x171;" horiz-adv-x="664" d="M246 -12 Q152 -12 103.5 47 Q55 106 55 221 L55 575 L221 575 L221 270 Q221 190 244 155 Q267 120 318 120 Q374 120 405 160.5 Q436 201 436 274 L436 575 L602 575 L602 0 L439 0 L439 103 L436 103 Q405 48 356 18 Q307 -12 246 -12 Z M298 623 L190 623 L259 811 L393 811 L298 623 Z M468 623 L359 623 L428 811 L562 811 L468 623 Z " />
<glyph glyph-name="Uogonek" unicode="&#x172;" horiz-adv-x="776" d="M549 -128 L549 -212 Q533 -219 511.5 -222.5 Q490 -226 466 -226 Q399 -226 362 -198 Q325 -170 325 -119 Q325 -85 342 -60 Q359 -35 396 -16 L396 -14 Q227 -14 143 64 Q59 142 59 300 L59 774 L231 774 L231 319 Q231 227 271 183.5 Q311 140 396 140 Q475 140 511 183 Q547 226 547 319 L547 774 L717 774 L717 313 Q717 197 675 121.5 Q633 46 551 14 Q501 -5 479 -28 Q457 -51 457 -84 Q457 -108 470.5 -120.5 Q484 -133 511 -133 Q521 -133 530.5 -131.5 Q540 -130 549 -128 Z " />
<glyph glyph-name="uogonek" unicode="&#x173;" horiz-adv-x="664" d="M246 -12 Q152 -12 103.5 47 Q55 106 55 221 L55 575 L221 575 L221 270 Q221 190 244 155 Q267 120 318 120 Q374 120 405 160.5 Q436 201 436 274 L436 575 L602 575 L602 0 Q559 -5 535 -27.5 Q511 -50 511 -84 Q511 -108 524.5 -120.5 Q538 -133 565 -133 Q575 -133 584.5 -131.5 Q594 -130 603 -128 L603 -212 Q587 -219 565.5 -222.5 Q544 -226 520 -226 Q453 -226 416 -198 Q379 -170 379 -119 Q379 -80 400 -50.5 Q421 -21 464 -2 L464 0 L439 0 L439 103 L436 103 Q405 48 356 18 Q307 -12 246 -12 Z " />
<glyph glyph-name="Wcircumflex" unicode="&#x174;" horiz-adv-x="1058" d="M212 0 L15 774 L182 774 L311 234 L447 774 L611 774 L755 229 L874 774 L1043 774 L853 0 L673 0 L529 567 L393 0 L212 0 Z M460 822 L342 822 L478 976 L579 976 L716 822 L597 822 L527 882 L460 822 Z " />
<glyph glyph-name="wcircumflex" unicode="&#x175;" horiz-adv-x="869" d="M704 0 L538 0 L437 389 L342 0 L168 0 L6 575 L175 575 L267 186 L369 575 L510 575 L619 181 L708 575 L863 575 L704 0 Z M366 628 L255 628 L385 816 L486 816 L619 628 L507 628 L434 710 L366 628 Z " />
<glyph glyph-name="Ycircumflex" unicode="&#x176;" horiz-adv-x="667" d="M508 774 L674 774 L425 300 L425 0 L253 0 L253 304 L-9 774 L173 774 L342 452 L508 774 Z M279 822 L161 822 L297 976 L398 976 L535 822 L416 822 L346 882 L279 822 Z " />
<glyph glyph-name="ycircumflex" unicode="&#x177;" horiz-adv-x="607" d="M600 575 L408 36 Q361 -96 302 -147 Q243 -198 140 -198 Q93 -198 50.5 -191.5 Q8 -185 -20 -173 L17 -32 Q51 -44 76.5 -48.5 Q102 -53 129 -53 Q156 -53 174.5 -46.5 Q193 -40 207 -26 Q211 -22 214 -18 Q217 -14 220 -9 L3 575 L177 575 L309 169 L432 575 L600 575 Z M232 628 L121 628 L251 816 L352 816 L485 628 L373 628 L300 710 L232 628 Z " />
<glyph glyph-name="Ydieresis" unicode="&#x178;" horiz-adv-x="667" d="M508 774 L674 774 L425 300 L425 0 L253 0 L253 304 L-9 774 L173 774 L342 452 L508 774 Z M312 824 L164 824 L164 963 L312 963 L312 824 Z M531 824 L384 824 L384 963 L531 963 L531 824 Z " />
<glyph glyph-name="Zacute" unicode="&#x179;" horiz-adv-x="672" d="M451 634 L50 634 L50 774 L637 774 L637 631 L231 140 L647 140 L647 0 L35 0 L35 144 L451 634 Z M413 825 L280 825 L332 978 L488 978 L413 825 Z " />
<glyph glyph-name="zacute" unicode="&#x17a;" horiz-adv-x="561" d="M335 447 L46 447 L46 575 L528 575 L528 439 L232 128 L537 128 L537 0 L29 0 L29 136 L335 447 Z M346 628 L230 628 L300 816 L457 816 L346 628 Z " />
<glyph glyph-name="Zdotaccent" unicode="&#x17b;" horiz-adv-x="672" d="M451 634 L50 634 L50 774 L637 774 L637 631 L231 140 L647 140 L647 0 L35 0 L35 144 L451 634 Z M436 826 L256 826 L256 967 L436 967 L436 826 Z " />
<glyph glyph-name="zdotaccent" unicode="&#x17c;" horiz-adv-x="561" d="M335 447 L46 447 L46 575 L528 575 L528 439 L232 128 L537 128 L537 0 L29 0 L29 136 L335 447 Z M373 661 L201 661 L201 815 L373 815 L373 661 Z " />
<glyph glyph-name="Zcaron" unicode="&#x17d;" horiz-adv-x="672" d="M451 634 L50 634 L50 774 L637 774 L637 631 L231 140 L647 140 L647 0 L35 0 L35 144 L451 634 Z M413 976 L531 976 L396 822 L296 822 L157 976 L276 976 L347 916 L413 976 Z " />
<glyph glyph-name="zcaron" unicode="&#x17e;" horiz-adv-x="561" d="M335 447 L46 447 L46 575 L528 575 L528 439 L232 128 L537 128 L537 0 L29 0 L29 136 L335 447 Z M357 816 L468 816 L338 628 L237 628 L104 816 L216 816 L289 735 L357 816 Z " />
<glyph glyph-name="uni0192" unicode="&#x192;" horiz-adv-x="569" d="M186 303 L59 303 L59 413 L208 413 L235 546 Q261 673 318.5 729 Q376 785 482 785 Q513 785 546.5 779.5 Q580 774 614 764 L583 631 Q571 636 550.5 639 Q530 642 508 642 Q459 642 437.5 621.5 Q416 601 404 539 L379 413 L524 413 L524 303 L357 303 L305 41 Q279 -88 222 -143 Q165 -198 57 -198 Q25 -198 -9 -193 Q-43 -188 -75 -178 L-42 -44 Q-22 -51 -4 -54 Q14 -57 35 -57 Q84 -57 103 -35.5 Q122 -14 135 48 L186 303 Z " />
<glyph glyph-name="AEacute" unicode="&#x1fc;" horiz-adv-x="1069" d="M690 140 L1033 140 L1033 0 L539 0 L518 152 L251 152 L183 0 L3 0 L381 774 L1013 774 L1013 634 L621 634 L644 467 L991 467 L991 330 L663 330 L690 140 Z M456 607 L311 284 L500 284 L456 607 Z M720 825 L587 825 L639 978 L795 978 L720 825 Z " />
<glyph glyph-name="aeacute" unicode="&#x1fd;" horiz-adv-x="982" d="M692 118 Q740 118 772 139.5 Q804 161 820 204 L961 163 Q929 78 858.5 32 Q788 -14 687 -14 Q601 -14 538.5 15 Q476 44 443 99 L439 99 Q403 42 349.5 14 Q296 -14 226 -14 Q130 -14 78 27.5 Q26 69 26 146 Q26 191 43 224.5 Q60 258 95 280 Q121 297 156.5 308 Q192 319 239 325 L318 335 Q359 340 377.5 354.5 Q396 369 396 397 Q396 426 375.5 442 Q355 458 318 458 Q272 458 244.5 435 Q217 412 207 365 L54 388 Q81 486 146 537 Q211 588 308 588 Q366 588 411 568.5 Q456 549 486 511 Q520 548 571 568 Q622 588 680 588 Q752 588 807.5 561 Q863 534 898 482 Q927 439 941 381.5 Q955 324 954 250 L557 250 Q563 188 598 153 Q633 118 692 118 Z M775 403 Q762 430 736.5 444.5 Q711 459 677 459 Q629 459 598.5 431 Q568 403 559 351 L789 351 Q787 369 783.5 381.5 Q780 394 775 403 Z M197 169 Q197 136 217 118 Q237 100 274 100 Q329 100 362 142 Q395 184 395 252 L395 270 Q385 264 372 259.5 Q359 255 341 253 L279 243 Q237 236 217 218 Q197 200 197 169 Z M564 628 L448 628 L518 816 L675 816 L564 628 Z " />
<glyph glyph-name="Oslashacute" unicode="&#x1fe;" horiz-adv-x="805" d="M125 -24 L44 49 L110 125 Q74 174 56 238.5 Q38 303 38 380 Q38 564 138.5 676 Q239 788 405 788 Q469 788 525 771 Q581 754 625 720 L683 786 L761 721 L696 645 Q731 594 749 529 Q767 464 767 389 Q767 204 669.5 95 Q572 -14 407 -14 Q343 -14 287.5 1.5 Q232 17 187 48 L125 -24 Z M258 563 Q236 530 225 485 Q214 440 214 383 Q214 347 219 315 Q224 283 234 256 L517 600 Q495 618 467 627.5 Q439 637 406 637 Q358 637 320.5 618.5 Q283 600 258 563 Z M547 206 Q569 237 580 281.5 Q591 326 591 383 Q591 421 586.5 453.5 Q582 486 573 512 L296 171 Q318 154 345.5 145.5 Q373 137 405 137 Q451 137 487 154.5 Q523 172 547 206 Z M473 825 L340 825 L392 978 L548 978 L473 825 Z " />
<glyph glyph-name="oslashacute" unicode="&#x1ff;" horiz-adv-x="649" d="M33 286 Q34 424 115 506.5 Q196 589 327 589 Q376 589 420 575.5 Q464 562 501 536 L562 601 L636 532 L570 463 Q593 427 604.5 383.5 Q616 340 616 290 Q616 147 537.5 66.5 Q459 -14 324 -14 Q272 -14 227 -1 Q182 12 145 37 L87 -24 L13 45 L76 110 Q55 146 44 190.5 Q33 235 33 286 Z M325 455 Q264 455 231 411.5 Q198 368 198 287 Q198 270 199.5 254 Q201 238 204 225 L399 431 Q385 443 366 449 Q347 455 325 455 Z M325 120 Q386 120 418.5 162.5 Q451 205 451 287 Q451 307 449.5 323.5 Q448 340 444 353 L249 145 Q264 133 283 126.5 Q302 120 325 120 Z M382 628 L266 628 L336 816 L493 816 L382 628 Z " />
<glyph glyph-name="uni0218" unicode="&#x218;" horiz-adv-x="685" d="M607 376 Q633 350 646 315.5 Q659 281 659 237 Q659 120 575.5 53 Q492 -14 347 -14 Q203 -14 116 41.5 Q29 97 4 206 L168 253 Q185 190 231 158.5 Q277 127 353 127 Q418 127 452.5 151.5 Q487 176 487 222 Q487 253 464 270 Q441 287 363 301 Q287 315 258.5 321.5 Q230 328 204 336 Q169 346 142.5 360.5 Q116 375 97 394 Q70 421 57 456 Q44 491 44 535 Q44 652 126.5 720 Q209 788 346 788 Q467 788 546 732 Q625 676 656 568 L494 532 Q479 591 441.5 619 Q404 647 341 647 Q284 647 250 621.5 Q216 596 216 552 Q216 524 232 506 Q248 488 284 477 Q296 473 311.5 469.5 Q327 466 394 455 Q431 449 456 443.5 Q481 438 502 431 Q539 420 564.5 406.5 Q590 393 607 376 Z M336 -178 L269 -178 L269 -49 L418 -49 L418 -145 Q418 -228 385.5 -264 Q353 -300 276 -304 L255 -234 Q302 -234 318.5 -222 Q335 -210 336 -178 Z " />
<glyph glyph-name="uni0219" unicode="&#x219;" horiz-adv-x="581" d="M304 107 Q348 107 372 122.5 Q396 138 396 166 Q396 183 383.5 193 Q371 203 337 208 Q327 210 299.5 213.5 Q272 217 256 220 Q169 234 136.5 246.5 Q104 259 84 279 Q63 300 52.5 328.5 Q42 357 42 393 Q42 481 108 534 Q174 587 282 587 Q384 587 452 540.5 Q520 494 538 413 L395 389 Q388 427 358.5 447 Q329 467 282 467 Q243 467 221 451.5 Q199 436 199 407 Q199 387 211 376 Q223 365 254 359 Q268 356 297.5 352 Q327 348 335 347 Q429 334 460.5 322 Q492 310 512 291 Q533 272 543 244.5 Q553 217 553 180 Q553 92 484.5 39.5 Q416 -13 301 -13 Q182 -13 109.5 32 Q37 77 17 163 L170 193 Q180 150 213 128.5 Q246 107 304 107 Z M295 -178 L228 -178 L228 -49 L377 -49 L377 -145 Q377 -228 344.5 -264 Q312 -300 235 -304 L214 -234 Q261 -234 277.5 -222 Q294 -210 295 -178 Z " />
<glyph glyph-name="uni021A" unicode="&#x21a;" horiz-adv-x="678" d="M663 774 L663 634 L425 634 L425 0 L253 0 L253 634 L15 634 L15 774 L663 774 Z M331 -178 L264 -178 L264 -49 L413 -49 L413 -145 Q413 -228 380.5 -264 Q348 -300 271 -304 L250 -234 Q297 -234 313.5 -222 Q330 -210 331 -178 Z " />
<glyph glyph-name="uni021B" unicode="&#x21b;" horiz-adv-x="435" d="M354 117 Q369 117 383 118 Q397 119 412 122 L412 5 Q383 -4 353.5 -8.5 Q324 -13 289 -13 Q190 -13 144.5 32 Q99 77 99 176 L99 453 L-13 453 L-13 575 L102 575 L102 681 L265 743 L265 575 L411 575 L411 453 L265 453 L265 203 Q265 153 283.5 135 Q302 117 354 117 Z M268 -178 L201 -178 L201 -49 L350 -49 L350 -145 Q350 -228 317.5 -264 Q285 -300 208 -304 L187 -234 Q234 -234 250.5 -222 Q267 -210 268 -178 Z " />
<glyph glyph-name="uni0237" unicode="&#x237;" horiz-adv-x="292" d="M-41 -185 L-56 -64 Q-40 -66 -30 -67 Q-20 -68 -9 -68 Q30 -68 46.5 -51.5 Q63 -35 63 3 L63 575 L229 575 L229 -1 Q229 -101 183.5 -149 Q138 -197 43 -197 Q22 -197 0 -194 Q-22 -191 -41 -185 Z " />
<glyph glyph-name="circumflex" unicode="&#x2c6;" horiz-adv-x="500" d="M179 628 L68 628 L198 816 L299 816 L432 628 L320 628 L247 710 L179 628 Z " />
<glyph glyph-name="caron" unicode="&#x2c7;" horiz-adv-x="500" d="M321 816 L432 816 L302 628 L201 628 L68 816 L180 816 L253 735 L321 816 Z " />
<glyph glyph-name="breve" unicode="&#x2d8;" horiz-adv-x="500" d="M427 789 Q427 719 379 675.5 Q331 632 254 632 Q171 632 122 673.5 Q73 715 73 786 Q73 789 73.5 792.5 Q74 796 75 809 L174 809 L174 799 Q174 766 195 748 Q216 730 254 730 Q292 730 311.5 747 Q331 764 331 797 L331 809 L425 809 Q427 797 427 794 Q427 791 427 789 Z " />
<glyph glyph-name="dotaccent" unicode="&#x2d9;" horiz-adv-x="500" d="M336 661 L164 661 L164 815 L336 815 L336 661 Z " />
<glyph glyph-name="ring" unicode="&#x2da;" horiz-adv-x="500" d="M376 760 Q376 704 340.5 668 Q305 632 250 632 Q194 632 159 667 Q124 702 124 759 Q124 816 160 852 Q196 888 252 888 Q306 888 341 852 Q376 816 376 760 Z M193 759 Q193 730 208.5 712.5 Q224 695 250 695 Q277 695 292.5 712 Q308 729 308 759 Q308 790 293 807.5 Q278 825 252 825 Q225 825 209 807 Q193 789 193 759 Z " />
<glyph glyph-name="ogonek" unicode="&#x2db;" horiz-adv-x="500" d="M324 -133 Q334 -133 343.5 -131.5 Q353 -130 362 -128 L362 -212 Q346 -219 324.5 -222.5 Q303 -226 279 -226 Q212 -226 175 -198 Q138 -170 138 -119 Q138 -80 159 -50.5 Q180 -21 223 -2 L223 22 L361 0 Q318 -5 294 -27.5 Q270 -50 270 -84 Q270 -108 283.5 -120.5 Q297 -133 324 -133 Z " />
<glyph glyph-name="tilde" unicode="&#x2dc;" horiz-adv-x="500" d="M169 806 Q190 806 212 798.5 Q234 791 270 769 Q296 752 308 747.5 Q320 743 330 743 Q347 743 354.5 757.5 Q362 772 361 806 L446 796 Q449 719 422.5 677 Q396 635 344 635 Q324 635 303 642.5 Q282 650 245 672 Q217 688 204.5 693 Q192 698 182 698 Q163 698 154.5 683 Q146 668 146 633 L57 643 Q54 719 84 762.5 Q114 806 169 806 Z " />
<glyph glyph-name="hungarumlaut" unicode="&#x2dd;" horiz-adv-x="500" d="M172 628 L64 628 L133 816 L267 816 L172 628 Z M342 628 L233 628 L302 816 L436 816 L342 628 Z " />
<glyph glyph-name="uni030F" unicode="&#x30f;" horiz-adv-x="500" d="M198 816 L267 628 L158 628 L64 816 L198 816 Z M367 816 L436 628 L328 628 L233 816 L367 816 Z " />
<glyph glyph-name="uni0311" unicode="&#x311;" horiz-adv-x="500" d="M73 652 Q73 722 121.5 765 Q170 808 248 808 Q330 808 378.5 767 Q427 726 427 655 Q427 651 426.5 645.5 Q426 640 425 632 L326 632 L326 642 Q326 675 305.5 693 Q285 711 247 711 Q209 711 189 693.5 Q169 676 169 643 L169 632 L75 632 Q74 639 73.5 644 Q73 649 73 652 Z " />
<glyph glyph-name="uni0323" unicode="&#x323;" horiz-adv-x="500" d="M336 -217 L164 -217 L164 -63 L336 -63 L336 -217 Z " />
<glyph glyph-name="uni03A9" unicode="&#x3a9;" horiz-adv-x="839" d="M65 469 Q66 608 165.5 698.5 Q265 789 419 789 Q574 789 674 698.5 Q774 608 774 469 Q774 372 723.5 303.5 Q673 235 580 202 L580 141 L792 141 L792 0 L464 0 L464 258 Q531 279 566.5 325.5 Q602 372 602 440 Q602 527 552.5 578 Q503 629 419 629 Q336 629 286 577.5 Q236 526 236 440 Q236 373 271.5 326.5 Q307 280 374 258 L374 0 L47 0 L47 141 L258 141 L258 202 Q167 234 116.5 303 Q66 372 65 469 Z " />
<glyph glyph-name="pi" unicode="&#x3c0;" horiz-adv-x="712" d="M90 433 L16 433 L16 575 L696 575 L696 433 L621 433 L621 0 L455 0 L455 433 L257 433 L257 0 L90 0 L90 433 Z " />
<glyph glyph-name="uni0E3F" unicode="&#xe3f;" horiz-adv-x="733" d="M305 0 L69 0 L69 774 L305 774 L305 887 L445 887 L445 772 Q563 765 621.5 717.5 Q680 670 680 581 Q680 522 645 475 Q610 428 549 406 L549 404 Q626 387 668 339.5 Q710 292 710 224 Q710 117 644 61 Q578 5 445 1 L445 -138 L305 -138 L305 0 Z M510 551 Q510 593 480 613.5 Q450 634 390 634 L241 634 L241 460 L389 460 Q450 460 480 482.5 Q510 505 510 551 Z M536 236 Q536 283 503 304.5 Q470 326 397 326 L241 326 L241 140 L405 140 Q472 140 504 163.5 Q536 187 536 236 Z " />
<glyph glyph-name="Wgrave" unicode="&#x1e80;" horiz-adv-x="1058" d="M212 0 L15 774 L182 774 L311 234 L447 774 L611 774 L755 229 L874 774 L1043 774 L853 0 L673 0 L529 567 L393 0 L212 0 Z M544 978 L595 825 L462 825 L387 978 L544 978 Z " />
<glyph glyph-name="wgrave" unicode="&#x1e81;" horiz-adv-x="869" d="M704 0 L538 0 L437 389 L342 0 L168 0 L6 575 L175 575 L267 186 L369 575 L510 575 L619 181 L708 575 L863 575 L704 0 Z M424 816 L495 628 L379 628 L268 816 L424 816 Z " />
<glyph glyph-name="Wacute" unicode="&#x1e82;" horiz-adv-x="1058" d="M212 0 L15 774 L182 774 L311 234 L447 774 L611 774 L755 229 L874 774 L1043 774 L853 0 L673 0 L529 567 L393 0 L212 0 Z M595 825 L462 825 L514 978 L670 978 L595 825 Z " />
<glyph glyph-name="wacute" unicode="&#x1e83;" horiz-adv-x="869" d="M704 0 L538 0 L437 389 L342 0 L168 0 L6 575 L175 575 L267 186 L369 575 L510 575 L619 181 L708 575 L863 575 L704 0 Z M495 628 L379 628 L449 816 L606 816 L495 628 Z " />
<glyph glyph-name="Wdieresis" unicode="&#x1e84;" horiz-adv-x="1058" d="M212 0 L15 774 L182 774 L311 234 L447 774 L611 774 L755 229 L874 774 L1043 774 L853 0 L673 0 L529 567 L393 0 L212 0 Z M493 824 L345 824 L345 963 L493 963 L493 824 Z M712 824 L565 824 L565 963 L712 963 L712 824 Z " />
<glyph glyph-name="wdieresis" unicode="&#x1e85;" horiz-adv-x="869" d="M704 0 L538 0 L437 389 L342 0 L168 0 L6 575 L175 575 L267 186 L369 575 L510 575 L619 181 L708 575 L863 575 L704 0 Z M403 648 L255 648 L255 786 L403 786 L403 648 Z M619 648 L471 648 L471 786 L619 786 L619 648 Z " />
<glyph glyph-name="uni1E9E" unicode="&#x1e9e;" horiz-adv-x="799" d="M369 318 L308 417 L524 632 L439 632 Q323 632 273.5 577 Q224 522 224 392 L224 0 L52 0 L52 398 Q52 584 148.5 679 Q245 774 433 774 L707 774 L707 638 L506 433 Q633 431 706 375 Q779 319 779 222 Q779 112 705.5 49 Q632 -14 509 -14 Q443 -14 385 -1 Q327 12 283 37 L340 176 Q369 158 413 146.5 Q457 135 498 135 Q552 135 581.5 160.5 Q611 186 611 232 Q611 284 575 310.5 Q539 337 468 337 Q438 337 413.5 332.5 Q389 328 369 318 Z " />
<glyph glyph-name="Ygrave" unicode="&#x1ef2;" horiz-adv-x="667" d="M508 774 L674 774 L425 300 L425 0 L253 0 L253 304 L-9 774 L173 774 L342 452 L508 774 Z M363 978 L414 825 L281 825 L206 978 L363 978 Z " />
<glyph glyph-name="ygrave" unicode="&#x1ef3;" horiz-adv-x="607" d="M600 575 L408 36 Q361 -96 302 -147 Q243 -198 140 -198 Q93 -198 50.5 -191.5 Q8 -185 -20 -173 L17 -32 Q51 -44 76.5 -48.5 Q102 -53 129 -53 Q156 -53 174.5 -46.5 Q193 -40 207 -26 Q211 -22 214 -18 Q217 -14 220 -9 L3 575 L177 575 L309 169 L432 575 L600 575 Z M290 816 L361 628 L245 628 L134 816 L290 816 Z " />
<glyph glyph-name="uni200B" unicode="&#x200b;" d="" />
<glyph glyph-name="figuredash" unicode="&#x2012;" horiz-adv-x="633" d="M583 277 L50 277 L50 382 L583 382 L583 277 Z " />
<glyph glyph-name="endash" unicode="&#x2013;" horiz-adv-x="755" d="M699 277 L55 277 L55 382 L699 382 L699 277 Z " />
<glyph glyph-name="emdash" unicode="&#x2014;" horiz-adv-x="935" d="M879 277 L55 277 L55 382 L879 382 L879 277 Z " />
<glyph glyph-name="uni2015" unicode="&#x2015;" horiz-adv-x="728" d="M672 277 L55 277 L55 382 L672 382 L672 277 Z " />
<glyph glyph-name="uni2016" unicode="&#x2016;" horiz-adv-x="462" d="M53 -231 L53 815 L186 815 L186 -231 L53 -231 Z M276 -231 L276 815 L409 815 L409 -231 L276 -231 Z " />
<glyph glyph-name="underscoredbl" unicode="&#x2017;" horiz-adv-x="546" d="M490 -112 L56 -112 L56 -35 L490 -35 L490 -112 Z M490 -222 L56 -222 L56 -145 L490 -145 L490 -222 Z " />
<glyph glyph-name="quoteleft" unicode="&#x2018;" horiz-adv-x="218" d="M117 638 L192 638 L192 478 L26 478 L26 616 Q26 702 62.5 740 Q99 778 184 782 L205 704 Q152 703 134.5 690.5 Q117 678 117 642 L117 638 Z " />
<glyph glyph-name="quoteright" unicode="&#x2019;" horiz-adv-x="218" d="M101 614 L26 614 L26 774 L192 774 L192 636 Q192 550 155.5 512 Q119 474 34 470 L13 548 Q66 549 83.5 561.5 Q101 574 101 610 L101 614 Z " />
<glyph glyph-name="quotesinglbase" unicode="&#x201a;" horiz-adv-x="218" d="M101 0 L26 0 L26 160 L192 160 L192 22 Q192 -64 155.5 -102 Q119 -140 34 -144 L13 -66 Q66 -65 83.5 -52.5 Q101 -40 101 -4 L101 0 Z " />
<glyph glyph-name="quotedblleft" unicode="&#x201c;" horiz-adv-x="423" d="M117 638 L192 638 L192 478 L26 478 L26 616 Q26 702 62.5 740 Q99 778 184 782 L205 704 Q152 703 134.5 690.5 Q117 678 117 642 L117 638 Z M322 638 L397 638 L397 478 L231 478 L231 616 Q231 702 267.5 740 Q304 778 389 782 L410 704 Q357 703 339.5 690.5 Q322 678 322 642 L322 638 Z " />
<glyph glyph-name="quotedblright" unicode="&#x201d;" horiz-adv-x="423" d="M101 614 L26 614 L26 774 L192 774 L192 636 Q192 550 155.5 512 Q119 474 34 470 L13 548 Q66 549 83.5 561.5 Q101 574 101 610 L101 614 Z M306 614 L231 614 L231 774 L397 774 L397 636 Q397 550 360.5 512 Q324 474 239 470 L218 548 Q271 549 288.5 561.5 Q306 574 306 610 L306 614 Z " />
<glyph glyph-name="quotedblbase" unicode="&#x201e;" horiz-adv-x="423" d="M101 0 L26 0 L26 160 L192 160 L192 22 Q192 -64 155.5 -102 Q119 -140 34 -144 L13 -66 Q66 -65 83.5 -52.5 Q101 -40 101 -4 L101 0 Z M306 0 L231 0 L231 160 L397 160 L397 22 Q397 -64 360.5 -102 Q324 -140 239 -144 L218 -66 Q271 -65 288.5 -52.5 Q306 -40 306 -4 L306 0 Z " />
<glyph glyph-name="dagger" unicode="&#x2020;" horiz-adv-x="466" d="M165 515 L42 515 L42 627 L165 627 L165 774 L298 774 L298 627 L424 627 L424 515 L298 515 L298 160 L165 160 L165 515 Z " />
<glyph glyph-name="daggerdbl" unicode="&#x2021;" horiz-adv-x="466" d="M165 307 L42 307 L42 417 L168 417 L168 517 L42 517 L42 627 L165 627 L165 774 L298 774 L298 627 L424 627 L424 517 L295 517 L295 417 L424 417 L424 307 L298 307 L298 160 L165 160 L165 307 Z " />
<glyph glyph-name="bullet" unicode="&#x2022;" horiz-adv-x="330" d="M261 313 Q261 273 233 245 Q205 217 165 217 Q125 217 96.5 245.5 Q68 274 68 313 Q68 354 96.5 382 Q125 410 165 410 Q206 410 233.5 382 Q261 354 261 313 Z " />
<glyph glyph-name="ellipsis" unicode="&#x2026;" horiz-adv-x="676" d="M195 0 L29 0 L29 160 L195 160 L195 0 Z M647 0 L481 0 L481 160 L647 160 L647 0 Z M421 0 L255 0 L255 160 L421 160 L421 0 Z " />
<glyph glyph-name="perthousand" unicode="&#x2030;" horiz-adv-x="1376" d="M247 383 Q165 383 114.5 435.5 Q64 488 64 578 Q64 673 115 728 Q166 783 247 783 Q328 783 379.5 728 Q431 673 431 580 Q431 491 378.5 437 Q326 383 247 383 Z M689 774 L826 774 L268 0 L126 0 L689 774 Z M247 687 Q214 687 195 659 Q176 631 176 580 Q176 532 195 505.5 Q214 479 247 479 Q281 479 299 505 Q317 531 317 580 Q317 631 298.5 659 Q280 687 247 687 Z M712 -8 Q630 -8 579.5 44.5 Q529 97 529 187 Q529 282 580 337 Q631 392 712 392 Q794 392 845 337 Q896 282 896 189 Q896 100 843.5 46 Q791 -8 712 -8 Z M1128 -8 Q1046 -8 995.5 44.5 Q945 97 945 187 Q945 282 996 337 Q1047 392 1128 392 Q1210 392 1261 337 Q1312 282 1312 189 Q1312 100 1259.5 46 Q1207 -8 1128 -8 Z M712 88 Q746 88 764 114.5 Q782 141 782 189 Q782 239 763.5 267 Q745 295 712 295 Q679 295 660 267 Q641 239 641 189 Q641 141 660 114.5 Q679 88 712 88 Z M1128 88 Q1162 88 1180 114.5 Q1198 141 1198 189 Q1198 239 1179.5 267 Q1161 295 1128 295 Q1095 295 1076 267 Q1057 239 1057 189 Q1057 141 1076 114.5 Q1095 88 1128 88 Z " />
<glyph glyph-name="uni2032" unicode="&#x2032;" horiz-adv-x="248" d="M39 478 L85 774 L218 774 L124 478 L39 478 Z " />
<glyph glyph-name="uni2033" unicode="&#x2033;" horiz-adv-x="434" d="M39 478 L85 774 L218 774 L124 478 L39 478 Z M225 478 L272 774 L405 774 L311 478 L225 478 Z " />
<glyph glyph-name="uni2034" unicode="&#x2034;" horiz-adv-x="628" d="M87 487 L63 774 L196 774 L173 487 L87 487 Z M271 487 L247 774 L380 774 L357 487 L271 487 Z M456 487 L432 774 L565 774 L542 487 L456 487 Z " />
<glyph glyph-name="guilsinglleft" unicode="&#x2039;" horiz-adv-x="275" d="M136 503 L276 503 L138 295 L278 80 L137 80 L-3 291 L136 503 Z " />
<glyph glyph-name="guilsinglright" unicode="&#x203a;" horiz-adv-x="275" d="M137 503 L278 291 L138 80 L-1 80 L137 288 L-3 503 L137 503 Z " />
<glyph glyph-name="exclamdbl" unicode="&#x203c;" horiz-adv-x="588" d="M62 540 L62 774 L232 774 L232 540 L197 221 L97 221 L62 540 Z M230 0 L64 0 L64 160 L230 160 L230 0 Z M356 540 L356 774 L526 774 L526 540 L491 221 L391 221 L356 540 Z M524 0 L358 0 L358 160 L524 160 L524 0 Z " />
<glyph glyph-name="uni203D" unicode="&#x203d;" horiz-adv-x="585" d="M388 313 Q367 296 359 279 Q351 262 351 237 L351 220 L234 220 L223 637 Q192 621 173.5 587.5 Q155 554 147 499 L-4 524 Q16 651 96.5 719.5 Q177 788 304 788 Q426 788 502 726.5 Q578 665 578 567 Q578 507 552 461.5 Q526 416 461 367 Q447 356 422.5 338.5 Q398 321 388 313 Z M395 470 Q406 487 411 505 Q416 523 416 546 Q416 583 398.5 607.5 Q381 632 348 643 L336 404 Q337 405 338.5 406.5 Q340 408 341 409 Q363 433 376.5 448 Q390 463 395 470 Z M375 0 L209 0 L209 160 L375 160 L375 0 Z " />
<glyph glyph-name="fraction" unicode="&#x2044;" horiz-adv-x="234" d="M331 774 L468 774 L-90 0 L-232 0 L331 774 Z " />
<glyph glyph-name="uni2070" unicode="&#x2070;" horiz-adv-x="384" d="M191 457 Q108 457 64 509 Q20 561 20 660 Q20 753 68 807 Q116 861 196 861 Q274 861 319.5 808 Q365 755 365 661 Q365 566 318 511.5 Q271 457 191 457 Z M192 545 Q224 545 240 573 Q256 601 256 657 Q256 714 240.5 743 Q225 772 194 772 Q161 772 145 743.5 Q129 715 129 657 Q129 602 145 573.5 Q161 545 192 545 Z " />
<glyph glyph-name="uni2074" unicode="&#x2074;" horiz-adv-x="355" d="M347 620 L347 536 L289 536 L289 465 L182 465 L182 536 L14 536 L14 628 L189 853 L289 853 L289 620 L347 620 Z M190 745 L96 620 L190 620 L190 745 Z " />
<glyph glyph-name="uni2075" unicode="&#x2075;" horiz-adv-x="357" d="M224 737 Q278 737 310 703 Q342 669 342 611 Q342 541 299 499.5 Q256 458 183 458 Q114 458 70.5 491.5 Q27 525 16 587 L119 609 Q123 578 138 563 Q153 548 179 548 Q206 548 219.5 564 Q233 580 233 611 Q233 642 219.5 658 Q206 674 181 674 Q161 674 147 665 Q133 656 123 637 L34 645 L65 853 L318 853 L318 766 L144 766 L133 700 L136 700 Q155 719 176.5 728 Q198 737 224 737 Z " />
<glyph glyph-name="uni2076" unicode="&#x2076;" horiz-adv-x="363" d="M192 457 Q106 457 61.5 507 Q17 557 17 652 Q17 750 67.5 805 Q118 860 207 860 Q255 860 292.5 840.5 Q330 821 352 785 L257 732 Q248 748 235 755 Q222 762 203 762 Q167 762 147 736 Q127 710 125 659 L128 659 Q144 685 171 699 Q198 713 233 713 Q286 713 318 681 Q350 649 350 596 Q350 534 306 495.5 Q262 457 192 457 Z M193 649 Q167 649 152 635 Q137 621 137 597 Q137 574 152 560 Q167 546 192 546 Q216 546 230 560.5 Q244 575 244 599 Q244 622 230.5 635.5 Q217 649 193 649 Z " />
<glyph glyph-name="uni2077" unicode="&#x2077;" horiz-adv-x="309" d="M216 655 Q211 629 209 593 Q207 557 207 485 L207 465 L92 465 L92 485 Q92 581 117 649.5 Q142 718 193 759 L8 759 L8 853 L304 853 L304 793 Q267 771 246 738.5 Q225 706 216 655 Z " />
<glyph glyph-name="uni2078" unicode="&#x2078;" horiz-adv-x="380" d="M361 575 Q361 520 314.5 488.5 Q268 457 188 457 Q109 457 65 487 Q21 517 21 571 Q21 605 42 629.5 Q63 654 102 666 L102 668 Q72 679 56 700.5 Q40 722 40 750 Q40 800 81 829.5 Q122 859 191 859 Q261 859 301.5 831 Q342 803 342 754 Q342 725 326 703 Q310 681 279 668 L279 667 Q319 655 340 632 Q361 609 361 575 Z M244 735 Q244 754 229.5 765.5 Q215 777 191 777 Q167 777 152.5 765 Q138 753 138 732 Q138 712 152.5 700.5 Q167 689 192 689 Q216 689 230 701 Q244 713 244 735 Z M129 587 Q129 565 145.5 553 Q162 541 192 541 Q220 541 236 554 Q252 567 252 591 Q252 611 235 623 Q218 635 191 635 Q163 635 146 622 Q129 609 129 587 Z " />
<glyph glyph-name="uni2079" unicode="&#x2079;" horiz-adv-x="369" d="M173 861 Q255 861 301 809.5 Q347 758 347 668 Q347 569 300 513 Q253 457 168 457 Q112 457 69 478.5 Q26 500 8 536 L103 588 Q111 571 126.5 562.5 Q142 554 165 554 Q200 554 218 580 Q236 606 238 660 L235 660 Q220 634 195 621 Q170 608 135 608 Q81 608 48 640 Q15 672 15 725 Q15 787 58 824 Q101 861 173 861 Z M173 672 Q198 672 213 685.5 Q228 699 228 722 Q228 746 214.5 759 Q201 772 175 772 Q150 772 135.5 758.5 Q121 745 121 721 Q121 698 135 685 Q149 672 173 672 Z " />
<glyph glyph-name="uni207A" unicode="&#x207a;" horiz-adv-x="263" d="M98 603 L29 603 L29 669 L98 669 L98 738 L166 738 L166 669 L234 669 L234 603 L166 603 L166 536 L98 536 L98 603 Z " />
<glyph glyph-name="uni207B" unicode="&#x207b;" horiz-adv-x="263" d="M234 603 L29 603 L29 669 L234 669 L234 603 Z " />
<glyph glyph-name="uni207C" unicode="&#x207c;" horiz-adv-x="263" d="M234 648 L29 648 L29 714 L234 714 L234 648 Z M234 550 L29 550 L29 616 L234 616 L234 550 Z " />
<glyph glyph-name="uni207D" unicode="&#x207d;" horiz-adv-x="201" d="M14 637 Q14 721 46 797 Q78 873 130 920 L211 920 Q158 849 134.5 782.5 Q111 716 111 637 Q111 559 134.5 492.5 Q158 426 211 354 L130 354 Q79 401 46.5 477 Q14 553 14 637 Z " />
<glyph glyph-name="uni207E" unicode="&#x207e;" horiz-adv-x="201" d="M187 636 Q187 551 154.5 475.5 Q122 400 71 354 L-9 354 Q44 426 67 492 Q90 558 90 636 Q90 714 67 781 Q44 848 -9 920 L71 920 Q123 871 155 795.5 Q187 720 187 636 Z " />
<glyph glyph-name="uni2080" unicode="&#x2080;" horiz-adv-x="384" d="M191 -88 Q108 -88 64 -36 Q20 16 20 115 Q20 208 68 262 Q116 316 196 316 Q274 316 319.5 263 Q365 210 365 116 Q365 21 318 -33.5 Q271 -88 191 -88 Z M192 0 Q224 0 240 28 Q256 56 256 112 Q256 169 240.5 198 Q225 227 194 227 Q161 227 145 198.5 Q129 170 129 112 Q129 57 145 28.5 Q161 0 192 0 Z " />
<glyph glyph-name="uni2081" unicode="&#x2081;" horiz-adv-x="231" d="M6 183 L6 263 L72 263 Q95 263 101.5 268.5 Q108 274 109 292 L110 308 L194 308 L194 -80 L87 -80 L87 183 L6 183 Z " />
<glyph glyph-name="uni2082" unicode="&#x2082;" horiz-adv-x="359" d="M225 176 Q225 197 213.5 208.5 Q202 220 181 220 Q154 220 140.5 198.5 Q127 177 127 135 L25 151 Q27 227 71 271 Q115 315 188 315 Q255 315 294.5 280 Q334 245 334 186 Q334 144 310.5 110 Q287 76 229 33 L190 4 L339 4 L339 -80 L25 -80 L25 -15 L146 71 Q190 104 207.5 127 Q225 150 225 176 Z " />
<glyph glyph-name="uni2083" unicode="&#x2083;" horiz-adv-x="337" d="M208 193 Q208 210 198.5 218.5 Q189 227 170 227 Q148 227 135.5 213.5 Q123 200 119 173 L23 192 Q37 250 78 282 Q119 314 181 314 Q242 314 278 286.5 Q314 259 314 213 Q314 183 298 160 Q282 137 252 125 L252 123 Q291 113 309.5 90.5 Q328 68 328 31 Q328 -23 287 -55.5 Q246 -88 178 -88 Q107 -88 63.5 -54 Q20 -20 12 41 L110 61 Q116 29 131.5 14 Q147 -1 175 -1 Q199 -1 211 9.5 Q223 20 223 40 Q223 60 208.5 69.5 Q194 79 164 79 L114 79 L114 155 L156 155 Q182 155 195 164.5 Q208 174 208 193 Z " />
<glyph glyph-name="uni2084" unicode="&#x2084;" horiz-adv-x="355" d="M347 75 L347 -9 L289 -9 L289 -80 L182 -80 L182 -9 L14 -9 L14 83 L189 308 L289 308 L289 75 L347 75 Z M190 200 L96 75 L190 75 L190 200 Z " />
<glyph glyph-name="uni2085" unicode="&#x2085;" horiz-adv-x="357" d="M224 192 Q278 192 310 158 Q342 124 342 66 Q342 -4 299 -45.5 Q256 -87 183 -87 Q114 -87 70.5 -53.5 Q27 -20 16 42 L119 64 Q123 33 138 18 Q153 3 179 3 Q206 3 219.5 19 Q233 35 233 66 Q233 97 219.5 113 Q206 129 181 129 Q161 129 147 120 Q133 111 123 92 L34 100 L65 308 L318 308 L318 221 L144 221 L133 155 L136 155 Q155 174 176.5 183 Q198 192 224 192 Z " />
<glyph glyph-name="uni2086" unicode="&#x2086;" horiz-adv-x="363" d="M192 -88 Q106 -88 61.5 -38 Q17 12 17 107 Q17 205 67.5 260 Q118 315 207 315 Q255 315 292.5 295.5 Q330 276 352 240 L257 187 Q248 203 235 210 Q222 217 203 217 Q167 217 147 191 Q127 165 125 114 L128 114 Q144 140 171 154 Q198 168 233 168 Q286 168 318 136 Q350 104 350 51 Q350 -11 306 -49.5 Q262 -88 192 -88 Z M193 104 Q167 104 152 90 Q137 76 137 52 Q137 29 152 15 Q167 1 192 1 Q216 1 230 15.5 Q244 30 244 54 Q244 77 230.5 90.5 Q217 104 193 104 Z " />
<glyph glyph-name="uni2087" unicode="&#x2087;" horiz-adv-x="309" d="M216 110 Q211 84 209 48 Q207 12 207 -60 L207 -80 L92 -80 L92 -60 Q92 36 117 104.5 Q142 173 193 214 L8 214 L8 308 L304 308 L304 248 Q267 226 246 193.5 Q225 161 216 110 Z " />
<glyph glyph-name="uni2088" unicode="&#x2088;" horiz-adv-x="380" d="M361 30 Q361 -25 314.5 -56.5 Q268 -88 188 -88 Q109 -88 65 -58 Q21 -28 21 26 Q21 60 42 84.5 Q63 109 102 121 L102 123 Q72 134 56 155.5 Q40 177 40 205 Q40 255 81 284.5 Q122 314 191 314 Q261 314 301.5 286 Q342 258 342 209 Q342 180 326 158 Q310 136 279 123 L279 122 Q319 110 340 87 Q361 64 361 30 Z M244 190 Q244 209 229.5 220.5 Q215 232 191 232 Q167 232 152.5 220 Q138 208 138 187 Q138 167 152.5 155.5 Q167 144 192 144 Q216 144 230 156 Q244 168 244 190 Z M129 42 Q129 20 145.5 8 Q162 -4 192 -4 Q220 -4 236 9 Q252 22 252 46 Q252 66 235 78 Q218 90 191 90 Q163 90 146 77 Q129 64 129 42 Z " />
<glyph glyph-name="uni2089" unicode="&#x2089;" horiz-adv-x="369" d="M173 316 Q255 316 301 264.5 Q347 213 347 123 Q347 24 300 -32 Q253 -88 168 -88 Q112 -88 69 -66.5 Q26 -45 8 -9 L103 43 Q111 26 126.5 17.5 Q142 9 165 9 Q200 9 218 35 Q236 61 238 115 L235 115 Q220 89 195 76 Q170 63 135 63 Q81 63 48 95 Q15 127 15 180 Q15 242 58 279 Q101 316 173 316 Z M173 127 Q198 127 213 140.5 Q228 154 228 177 Q228 201 214.5 214 Q201 227 175 227 Q150 227 135.5 213.5 Q121 200 121 176 Q121 153 135 140 Q149 127 173 127 Z " />
<glyph glyph-name="uni208A" unicode="&#x208a;" horiz-adv-x="263" d="M98 89 L29 89 L29 155 L98 155 L98 224 L166 224 L166 155 L234 155 L234 89 L166 89 L166 22 L98 22 L98 89 Z " />
<glyph glyph-name="uni208B" unicode="&#x208b;" horiz-adv-x="263" d="M234 89 L29 89 L29 155 L234 155 L234 89 Z " />
<glyph glyph-name="uni208C" unicode="&#x208c;" horiz-adv-x="263" d="M234 134 L29 134 L29 200 L234 200 L234 134 Z M234 36 L29 36 L29 102 L234 102 L234 36 Z " />
<glyph glyph-name="uni208D" unicode="&#x208d;" horiz-adv-x="201" d="M14 123 Q14 207 46 283 Q78 359 130 406 L211 406 Q158 335 134.5 268.5 Q111 202 111 123 Q111 45 134.5 -21.5 Q158 -88 211 -160 L130 -160 Q79 -113 46.5 -37 Q14 39 14 123 Z " />
<glyph glyph-name="uni208E" unicode="&#x208e;" horiz-adv-x="201" d="M187 122 Q187 37 154.5 -38.5 Q122 -114 71 -160 L-9 -160 Q44 -88 67 -22 Q90 44 90 122 Q90 200 67 267 Q44 334 -9 406 L71 406 Q123 357 155 281.5 Q187 206 187 122 Z " />
<glyph glyph-name="uni20A1" unicode="&#x20a1;" horiz-adv-x="792" d="M145 -51 L70 -13 L131 104 Q85 157 61.5 226 Q38 295 38 376 Q38 562 142 675.5 Q246 789 412 789 Q435 789 456 786.5 Q477 784 496 779 L545 873 L621 835 L577 751 Q586 746 596.5 740 Q607 734 627 722 L675 815 L750 776 L417 136 Q487 137 533.5 177 Q580 217 609 300 L765 263 Q729 129 638 57 Q547 -15 410 -15 Q390 -15 369.5 -13 Q349 -11 327 -7 L274 -110 L200 -71 L246 18 Q235 23 223 30 Q211 37 196 46 L145 -51 Z M212 380 Q212 348 217 319.5 Q222 291 231 267 L422 637 L413 637 Q322 637 267 567.5 Q212 498 212 380 Z M508 617 L284 186 Q294 176 305.5 167.5 Q317 159 331 153 L557 588 Q544 598 532 605 Q520 612 508 617 Z " />
<glyph glyph-name="uni20A2" unicode="&#x20a2;" horiz-adv-x="776" d="M402 -14 Q234 -14 136 91 Q38 196 38 378 Q38 567 141.5 677.5 Q245 788 419 788 Q551 788 634 721 Q717 654 751 521 L579 488 Q566 563 525.5 600 Q485 637 417 637 Q320 637 267 569.5 Q214 502 214 378 Q214 296 237.5 238.5 Q261 181 307 153 L307 439 L449 439 L449 302 L451 302 Q472 381 510.5 416.5 Q549 452 610 452 Q625 452 637 450 Q649 448 660 444 L660 312 Q636 317 620.5 318.5 Q605 320 589 320 Q551 320 525.5 307.5 Q500 295 484 269 Q469 249 461.5 216 Q454 183 452 133 Q505 143 538 179 Q571 215 587 280 L755 243 Q728 121 635.5 53.5 Q543 -14 402 -14 Z " />
<glyph glyph-name="franc" unicode="&#x20a3;" horiz-adv-x="638" d="M70 147 L-30 147 L-30 257 L70 257 L70 774 L604 774 L604 634 L242 634 L242 507 L567 507 L567 370 L242 370 L242 257 L508 257 L508 147 L242 147 L242 0 L70 0 L70 147 Z " />
<glyph glyph-name="lira" unicode="&#x20a4;" horiz-adv-x="737" d="M189 243 L25 243 L25 335 L151 335 Q150 337 149 340 Q148 343 146 348 Q144 353 143 356 Q142 359 141 361 L25 361 L25 453 L101 453 Q97 468 95.5 483.5 Q94 499 94 516 Q94 641 175 714.5 Q256 788 393 788 Q527 788 602.5 714.5 Q678 641 685 502 L507 478 Q503 552 475 587 Q447 622 390 622 Q331 622 299.5 588 Q268 554 268 490 Q268 483 268.5 475.5 Q269 468 270 453 L542 453 L542 361 L286 361 Q286 359 287 357 Q288 355 289 351 Q291 344 291.5 341 Q292 338 293 335 L542 335 L542 243 L325 243 Q328 224 329 212.5 Q330 201 330 191 L330 178 Q381 153 413.5 144.5 Q446 136 479 136 Q525 136 543 153.5 Q561 171 563 217 L564 250 L709 250 Q712 234 714 212 Q716 190 716 173 Q716 86 666 37 Q616 -12 527 -12 Q472 -12 423 7 Q374 26 304 81 Q281 39 243 15.5 Q205 -8 158 -8 Q96 -8 61 21.5 Q26 51 26 103 Q26 159 66.5 193 Q107 227 174 227 Q183 227 187.5 227 Q192 227 196 226 Q196 226 193.5 232.5 Q191 239 189 243 Z M166 151 Q142 151 129 140.5 Q116 130 116 110 Q116 92 126 83 Q136 74 156 74 Q180 74 193.5 91.5 Q207 109 210 143 Q199 147 188 149 Q177 151 166 151 Z " />
<glyph glyph-name="uni20A6" unicode="&#x20a6;" horiz-adv-x="813" d="M80 341 L-15 341 L-15 451 L80 451 L80 774 L280 774 L578 262 L578 774 L733 774 L733 451 L828 451 L828 341 L733 341 L733 0 L558 0 L235 544 L235 0 L80 0 L80 341 Z " />
<glyph glyph-name="peseta" unicode="&#x20a7;" horiz-adv-x="743" d="M80 469 L-15 469 L-15 579 L80 579 L80 774 L387 774 Q518 774 593.5 724.5 Q669 675 682 579 L763 579 L763 469 L678 469 Q659 373 582.5 321.5 Q506 270 382 270 L252 270 L252 0 L80 0 L80 469 Z M379 637 L252 637 L252 573 L502 573 Q490 605 459 621 Q428 637 379 637 Z M252 405 L381 405 Q431 405 461 422.5 Q491 440 502 475 L252 475 L252 405 Z " />
<glyph glyph-name="uni20A8" unicode="&#x20a8;" horiz-adv-x="945" d="M338 149 Q333 236 320 258 Q307 280 273 280 L223 280 L223 0 L75 0 L75 774 L311 774 Q412 774 465.5 718.5 Q519 663 519 559 Q519 479 482 422 Q445 365 382 348 L382 346 Q433 332 455.5 296.5 Q478 261 488 180 Q496 108 503.5 66.5 Q511 25 519 5 L519 0 L358 0 Q349 42 345 74.5 Q341 107 338 149 Z M370 534 Q370 590 347 615.5 Q324 641 273 641 L223 641 L223 406 L281 406 Q327 406 348.5 436.5 Q370 467 370 534 Z M725 103 Q746 103 758.5 118.5 Q771 134 771 158 Q771 179 758.5 193 Q746 207 718 217 Q707 222 678.5 230 Q650 238 635 244 Q590 262 566.5 301.5 Q543 341 543 401 Q543 486 593.5 536 Q644 586 728 586 Q807 586 850.5 541.5 Q894 497 897 412 L776 389 Q775 430 762 450.5 Q749 471 722 471 Q699 471 686.5 456.5 Q674 442 674 415 Q674 394 686.5 380.5 Q699 367 728 356 Q738 353 766.5 344.5 Q795 336 811 330 Q860 311 883 273.5 Q906 236 906 178 Q906 90 856.5 38.5 Q807 -13 723 -13 Q632 -13 581.5 31.5 Q531 76 524 163 L654 192 Q655 148 673 125.5 Q691 103 725 103 Z " />
<glyph glyph-name="uni20A9" unicode="&#x20a9;" horiz-adv-x="1068" d="M188 225 L26 225 L26 335 L161 335 L144 406 L26 406 L26 516 L117 516 L55 774 L222 774 L340 251 L457 774 L621 774 L746 245 L854 774 L1023 774 L963 516 L1042 516 L1042 406 L937 406 L921 335 L1042 335 L1042 225 L895 225 L843 0 L663 0 L539 550 L423 0 L242 0 L188 225 Z " />
<glyph glyph-name="uni20AA" unicode="&#x20aa;" horiz-adv-x="897" d="M69 0 L69 774 L398 774 Q501 774 552 719.5 Q603 665 603 553 L603 184 L486 184 L486 650 L217 650 L217 0 L69 0 Z M828 774 L828 0 L498 0 Q395 0 344 54.5 Q293 109 293 221 L293 590 L410 590 L410 124 L679 124 L679 774 L828 774 Z " />
<glyph glyph-name="Euro" unicode="&#x20ac;" horiz-adv-x="798" d="M97 245 L10 245 L10 345 L87 345 Q86 351 86 361.5 Q86 372 86 391 L10 391 L10 491 L94 491 Q124 632 215.5 710 Q307 788 443 788 Q573 788 659 711.5 Q745 635 771 496 L599 463 Q583 551 543.5 594 Q504 637 439 637 Q370 637 329 601.5 Q288 566 270 491 L492 491 L475 391 L254 391 Q254 371 254 361 Q254 351 255 345 L468 345 L451 245 L279 245 Q299 191 339 164 Q379 137 438 137 Q502 137 541.5 176 Q581 215 603 300 L771 263 Q741 130 653.5 58 Q566 -14 433 -14 Q297 -14 211.5 52 Q126 118 97 245 Z " />
<glyph glyph-name="uni20AE" unicode="&#x20ae;" horiz-adv-x="678" d="M104 155 L82 236 L253 293 L253 354 L109 305 L86 385 L253 440 L253 634 L15 634 L15 774 L663 774 L663 634 L425 634 L425 491 L571 539 L594 460 L425 403 L425 342 L567 390 L590 311 L425 255 L425 0 L253 0 L253 205 L104 155 Z " />
<glyph glyph-name="uni20B1" unicode="&#x20b1;" horiz-adv-x="743" d="M80 624 L80 774 L387 774 Q496 774 567 736 Q638 698 667 624 L763 624 L763 524 L685 524 L685 517 Q685 508 685 504 Q685 500 684 494 L763 494 L763 394 L661 394 Q630 323 560 286 Q490 249 388 249 L252 249 L252 0 L80 0 L80 394 L-15 394 L-15 494 L80 494 L80 524 L-15 524 L-15 624 L80 624 Z M509 517 Q509 577 475.5 607 Q442 637 376 637 L252 637 L252 385 L371 385 Q443 385 476 416.5 Q509 448 509 517 Z " />
<glyph glyph-name="uni20B9" unicode="&#x20b9;" horiz-adv-x="714" d="M688 588 L688 478 L576 478 Q557 426 506.5 391 Q456 356 383 346 L383 344 Q413 342 434.5 333.5 Q456 325 475 308 Q494 292 507.5 262 Q521 232 533 179 Q547 117 557.5 79.5 Q568 42 586 5 L586 0 L404 0 Q398 12 393.5 28.5 Q389 45 369 148 Q359 205 353.5 222.5 Q348 240 341 251 Q329 269 306 278 Q283 287 246 287 L33 287 L33 397 L255 397 Q318 397 355 417 Q392 437 404 478 L33 478 L33 588 L400 588 Q385 627 346 645.5 Q307 664 241 664 L33 664 L33 774 L688 774 L688 664 L481 664 L481 662 Q517 650 540 631.5 Q563 613 574 588 L688 588 Z " />
<glyph glyph-name="uni2113" unicode="&#x2113;" horiz-adv-x="476" d="M452 149 L493 34 Q462 12 416.5 -1.5 Q371 -15 325 -15 Q227 -15 167.5 35 Q108 85 83 190 Q66 182 46.5 174.5 Q27 167 6 160 L-21 253 Q4 263 22.5 271.5 Q41 280 67 293 Q65 315 64 340 Q63 365 63 396 Q63 588 124 686.5 Q185 785 303 785 Q382 785 424.5 736.5 Q467 688 467 599 Q467 505 412.5 424.5 Q358 344 241 264 Q252 191 280.5 157.5 Q309 124 360 124 Q383 124 406.5 130.5 Q430 137 452 149 Z M308 658 Q272 658 253 589 Q234 520 234 390 L234 379 Q293 429 320 480.5 Q347 532 347 593 Q347 626 337.5 642 Q328 658 308 658 Z " />
<glyph glyph-name="uni2116" unicode="&#x2116;" horiz-adv-x="1236" d="M567 774 L722 774 L722 0 L547 0 L224 544 L224 0 L69 0 L69 774 L269 774 L567 262 L567 774 Z M1013 375 Q919 375 865 428.5 Q811 482 811 578 Q812 671 868.5 727.5 Q925 784 1015 784 Q1106 784 1161 729 Q1216 674 1216 581 Q1216 484 1161 429.5 Q1106 375 1013 375 Z M1014 479 Q1049 479 1067 504.5 Q1085 530 1085 579 Q1085 629 1067 655 Q1049 681 1015 681 Q980 681 961 655 Q942 629 942 579 Q942 531 960.5 505 Q979 479 1014 479 Z M1219 235 L807 235 L807 325 L1219 325 L1219 235 Z " />
<glyph glyph-name="uni2117" unicode="&#x2117;" horiz-adv-x="859" d="M429 -16 Q255 -16 146.5 97.5 Q38 211 38 384 Q38 468 66.5 542.5 Q95 617 149 672 Q203 728 276 757 Q349 786 436 786 Q607 786 714 671.5 Q821 557 821 384 Q821 211 712 97.5 Q603 -16 429 -16 Z M435 714 Q288 714 202.5 624 Q117 534 117 384 Q117 239 204 147.5 Q291 56 431 56 Q572 56 656.5 146.5 Q741 237 741 384 Q741 533 658.5 623.5 Q576 714 435 714 Z M284 165 L284 613 L470 613 Q552 613 598.5 575 Q645 537 645 469 Q645 396 597.5 357 Q550 318 460 318 L398 318 L398 165 L284 165 Z M530 464 Q530 493 511 508 Q492 523 455 523 L398 523 L398 403 L456 403 Q493 403 511.5 418 Q530 433 530 464 Z " />
<glyph glyph-name="uni2120" unicode="&#x2120;" horiz-adv-x="862" d="M316 587 Q339 573 350 551.5 Q361 530 361 500 Q361 436 316.5 399.5 Q272 363 195 363 Q120 363 72 392.5 Q24 422 9 477 L111 506 Q118 478 140.5 462.5 Q163 447 197 447 Q224 447 238.5 457 Q253 467 253 487 Q253 501 243.5 508.5 Q234 516 209 522 Q203 523 182 526.5 Q161 530 147 533 Q84 546 57.5 574 Q31 602 31 649 Q31 708 75.5 745 Q120 782 190 782 Q258 782 301 752.5 Q344 723 360 666 L260 644 Q254 671 237 684.5 Q220 698 191 698 Q165 698 151 687 Q137 676 137 657 Q137 639 152 630.5 Q167 622 217 614 Q262 607 281.5 601 Q301 595 316 587 Z M395 371 L395 774 L523 774 L617 498 L712 774 L831 774 L831 371 L735 371 L735 634 L655 371 L574 371 L489 633 L489 371 L395 371 Z " />
<glyph glyph-name="trademark" unicode="&#x2122;" horiz-adv-x="857" d="M127 687 L11 687 L11 774 L354 774 L354 687 L238 687 L238 371 L127 371 L127 687 Z M390 371 L390 774 L518 774 L612 498 L707 774 L826 774 L826 371 L730 371 L730 633 L649 371 L568 371 L484 633 L484 371 L390 371 Z " />
<glyph glyph-name="estimated" unicode="&#x212e;" horiz-adv-x="830" d="M738 236 L783 221 Q737 106 647 46 Q557 -14 430 -14 Q256 -14 154 83.5 Q52 181 52 348 Q52 427 80.5 496 Q109 565 163 617 Q217 669 287.5 697 Q358 725 434 725 Q595 725 693 628.5 Q791 532 791 359 L234 359 L234 79 Q274 54 323.5 41 Q373 28 431 28 Q546 28 622.5 80 Q699 132 738 236 Z M431 683 Q378 683 327.5 666.5 Q277 650 234 619 L234 401 L614 401 L614 638 Q577 660 531 671.5 Q485 683 431 683 Z " />
<glyph glyph-name="uni2150" unicode="&#x2150;" horiz-adv-x="775" d="M569 774 L706 774 L148 0 L6 0 L569 774 Z M24 649 L24 729 L90 729 Q113 729 119.5 734.5 Q126 740 127 758 L128 774 L212 774 L212 386 L105 386 L105 649 L24 649 Z M682 190 Q677 164 675 128 Q673 92 673 20 L673 0 L558 0 L558 20 Q558 116 583 184.5 Q608 253 659 294 L474 294 L474 388 L770 388 L770 328 Q733 306 712 273.5 Q691 241 682 190 Z " />
<glyph glyph-name="uni2153" unicode="&#x2153;" horiz-adv-x="769" d="M569 774 L706 774 L148 0 L6 0 L569 774 Z M24 649 L24 729 L90 729 Q113 729 119.5 734.5 Q126 740 127 758 L128 774 L212 774 L212 386 L105 386 L105 649 L24 649 Z M640 273 Q640 290 630.5 298.5 Q621 307 602 307 Q580 307 567.5 293.5 Q555 280 551 253 L455 272 Q469 330 510 362 Q551 394 613 394 Q674 394 710 366.5 Q746 339 746 293 Q746 263 730 240 Q714 217 684 205 L684 203 Q723 193 741.5 170.5 Q760 148 760 111 Q760 57 719 24.5 Q678 -8 610 -8 Q539 -8 495.5 26 Q452 60 444 121 L542 141 Q548 109 563.5 94 Q579 79 607 79 Q631 79 643 89.5 Q655 100 655 120 Q655 140 640.5 149.5 Q626 159 596 159 L546 159 L546 235 L588 235 Q614 235 627 244.5 Q640 254 640 273 Z " />
<glyph glyph-name="uni2154" unicode="&#x2154;" horiz-adv-x="871" d="M671 774 L808 774 L250 0 L108 0 L671 774 Z M233 642 Q233 663 221.5 674.5 Q210 686 189 686 Q162 686 148.5 664.5 Q135 643 135 601 L33 617 Q35 693 79 737 Q123 781 196 781 Q263 781 302.5 746 Q342 711 342 652 Q342 610 318.5 576 Q295 542 237 499 L198 470 L347 470 L347 386 L33 386 L33 451 L154 537 Q198 570 215.5 593 Q233 616 233 642 Z M742 273 Q742 290 732.5 298.5 Q723 307 704 307 Q682 307 669.5 293.5 Q657 280 653 253 L557 272 Q571 330 612 362 Q653 394 715 394 Q776 394 812 366.5 Q848 339 848 293 Q848 263 832 240 Q816 217 786 205 L786 203 Q825 193 843.5 170.5 Q862 148 862 111 Q862 57 821 24.5 Q780 -8 712 -8 Q641 -8 597.5 26 Q554 60 546 121 L644 141 Q650 109 665.5 94 Q681 79 709 79 Q733 79 745 89.5 Q757 100 757 120 Q757 140 742.5 149.5 Q728 159 698 159 L648 159 L648 235 L690 235 Q716 235 729 244.5 Q742 254 742 273 Z " />
<glyph glyph-name="uni2155" unicode="&#x2155;" horiz-adv-x="779" d="M569 774 L706 774 L148 0 L6 0 L569 774 Z M24 649 L24 729 L90 729 Q113 729 119.5 734.5 Q126 740 127 758 L128 774 L212 774 L212 386 L105 386 L105 649 L24 649 Z M647 272 Q701 272 733 238 Q765 204 765 146 Q765 76 722 34.5 Q679 -7 606 -7 Q537 -7 493.5 26.5 Q450 60 439 122 L542 144 Q546 113 561 98 Q576 83 602 83 Q629 83 642.5 99 Q656 115 656 146 Q656 177 642.5 193 Q629 209 604 209 Q584 209 570 200 Q556 191 546 172 L457 180 L488 388 L741 388 L741 301 L567 301 L556 235 L559 235 Q578 254 599.5 263 Q621 272 647 272 Z " />
<glyph glyph-name="uni2156" unicode="&#x2156;" horiz-adv-x="881" d="M671 774 L808 774 L250 0 L108 0 L671 774 Z M233 642 Q233 663 221.5 674.5 Q210 686 189 686 Q162 686 148.5 664.5 Q135 643 135 601 L33 617 Q35 693 79 737 Q123 781 196 781 Q263 781 302.5 746 Q342 711 342 652 Q342 610 318.5 576 Q295 542 237 499 L198 470 L347 470 L347 386 L33 386 L33 451 L154 537 Q198 570 215.5 593 Q233 616 233 642 Z M749 272 Q803 272 835 238 Q867 204 867 146 Q867 76 824 34.5 Q781 -7 708 -7 Q639 -7 595.5 26.5 Q552 60 541 122 L644 144 Q648 113 663 98 Q678 83 704 83 Q731 83 744.5 99 Q758 115 758 146 Q758 177 744.5 193 Q731 209 706 209 Q686 209 672 200 Q658 191 648 172 L559 180 L590 388 L843 388 L843 301 L669 301 L658 235 L661 235 Q680 254 701.5 263 Q723 272 749 272 Z " />
<glyph glyph-name="uni2157" unicode="&#x2157;" horiz-adv-x="881" d="M671 774 L808 774 L250 0 L108 0 L671 774 Z M248 659 Q248 676 238.5 684.5 Q229 693 210 693 Q188 693 175.5 679.5 Q163 666 159 639 L63 658 Q77 716 118 748 Q159 780 221 780 Q282 780 318 752.5 Q354 725 354 679 Q354 649 338 626 Q322 603 292 591 L292 589 Q331 579 349.5 556.5 Q368 534 368 497 Q368 443 327 410.5 Q286 378 218 378 Q147 378 103.5 412 Q60 446 52 507 L150 527 Q156 495 171.5 480 Q187 465 215 465 Q239 465 251 475.5 Q263 486 263 506 Q263 526 248.5 535.5 Q234 545 204 545 L154 545 L154 621 L196 621 Q222 621 235 630.5 Q248 640 248 659 Z M749 272 Q803 272 835 238 Q867 204 867 146 Q867 76 824 34.5 Q781 -7 708 -7 Q639 -7 595.5 26.5 Q552 60 541 122 L644 144 Q648 113 663 98 Q678 83 704 83 Q731 83 744.5 99 Q758 115 758 146 Q758 177 744.5 193 Q731 209 706 209 Q686 209 672 200 Q658 191 648 172 L559 180 L590 388 L843 388 L843 301 L669 301 L658 235 L661 235 Q680 254 701.5 263 Q723 272 749 272 Z " />
<glyph glyph-name="uni2158" unicode="&#x2158;" horiz-adv-x="881" d="M671 774 L808 774 L250 0 L108 0 L671 774 Z M376 541 L376 457 L318 457 L318 386 L211 386 L211 457 L43 457 L43 549 L218 774 L318 774 L318 541 L376 541 Z M219 666 L125 541 L219 541 L219 666 Z M749 272 Q803 272 835 238 Q867 204 867 146 Q867 76 824 34.5 Q781 -7 708 -7 Q639 -7 595.5 26.5 Q552 60 541 122 L644 144 Q648 113 663 98 Q678 83 704 83 Q731 83 744.5 99 Q758 115 758 146 Q758 177 744.5 193 Q731 209 706 209 Q686 209 672 200 Q658 191 648 172 L559 180 L590 388 L843 388 L843 301 L669 301 L658 235 L661 235 Q680 254 701.5 263 Q723 272 749 272 Z " />
<glyph glyph-name="uni2159" unicode="&#x2159;" horiz-adv-x="780" d="M569 774 L706 774 L148 0 L6 0 L569 774 Z M24 649 L24 729 L90 729 Q113 729 119.5 734.5 Q126 740 127 758 L128 774 L212 774 L212 386 L105 386 L105 649 L24 649 Z M609 -8 Q523 -8 478.5 42 Q434 92 434 187 Q434 285 484.5 340 Q535 395 624 395 Q672 395 709.5 375.5 Q747 356 769 320 L674 267 Q665 283 652 290 Q639 297 620 297 Q584 297 564 271 Q544 245 542 194 L545 194 Q561 220 588 234 Q615 248 650 248 Q703 248 735 216 Q767 184 767 131 Q767 69 723 30.5 Q679 -8 609 -8 Z M610 184 Q584 184 569 170 Q554 156 554 132 Q554 109 569 95 Q584 81 609 81 Q633 81 647 95.5 Q661 110 661 134 Q661 157 647.5 170.5 Q634 184 610 184 Z " />
<glyph glyph-name="uni215A" unicode="&#x215a;" horiz-adv-x="882" d="M671 774 L808 774 L250 0 L108 0 L671 774 Z M255 658 Q309 658 341 624 Q373 590 373 532 Q373 462 330 420.5 Q287 379 214 379 Q145 379 101.5 412.5 Q58 446 47 508 L150 530 Q154 499 169 484 Q184 469 210 469 Q237 469 250.5 485 Q264 501 264 532 Q264 563 250.5 579 Q237 595 212 595 Q192 595 178 586 Q164 577 154 558 L65 566 L96 774 L349 774 L349 687 L175 687 L164 621 L167 621 Q186 640 207.5 649 Q229 658 255 658 Z M711 -8 Q625 -8 580.5 42 Q536 92 536 187 Q536 285 586.5 340 Q637 395 726 395 Q774 395 811.5 375.5 Q849 356 871 320 L776 267 Q767 283 754 290 Q741 297 722 297 Q686 297 666 271 Q646 245 644 194 L647 194 Q663 220 690 234 Q717 248 752 248 Q805 248 837 216 Q869 184 869 131 Q869 69 825 30.5 Q781 -8 711 -8 Z M712 184 Q686 184 671 170 Q656 156 656 132 Q656 109 671 95 Q686 81 711 81 Q735 81 749 95.5 Q763 110 763 134 Q763 157 749.5 170.5 Q736 184 712 184 Z " />
<glyph glyph-name="uni215B" unicode="&#x215b;" horiz-adv-x="791" d="M569 774 L706 774 L148 0 L6 0 L569 774 Z M24 649 L24 729 L90 729 Q113 729 119.5 734.5 Q126 740 127 758 L128 774 L212 774 L212 386 L105 386 L105 649 L24 649 Z M772 110 Q772 55 725.5 23.5 Q679 -8 599 -8 Q520 -8 476 22 Q432 52 432 106 Q432 140 453 164.5 Q474 189 513 201 L513 203 Q483 214 467 235.5 Q451 257 451 285 Q451 335 492 364.5 Q533 394 602 394 Q672 394 712.5 366 Q753 338 753 289 Q753 260 737 238 Q721 216 690 203 L690 202 Q730 190 751 167 Q772 144 772 110 Z M655 270 Q655 289 640.5 300.5 Q626 312 602 312 Q578 312 563.5 300 Q549 288 549 267 Q549 247 563.5 235.5 Q578 224 603 224 Q627 224 641 236 Q655 248 655 270 Z M540 122 Q540 100 556.5 88 Q573 76 603 76 Q631 76 647 89 Q663 102 663 126 Q663 146 646 158 Q629 170 602 170 Q574 170 557 157 Q540 144 540 122 Z " />
<glyph glyph-name="uni215C" unicode="&#x215c;" horiz-adv-x="893" d="M671 774 L808 774 L250 0 L108 0 L671 774 Z M248 659 Q248 676 238.5 684.5 Q229 693 210 693 Q188 693 175.5 679.5 Q163 666 159 639 L63 658 Q77 716 118 748 Q159 780 221 780 Q282 780 318 752.5 Q354 725 354 679 Q354 649 338 626 Q322 603 292 591 L292 589 Q331 579 349.5 556.5 Q368 534 368 497 Q368 443 327 410.5 Q286 378 218 378 Q147 378 103.5 412 Q60 446 52 507 L150 527 Q156 495 171.5 480 Q187 465 215 465 Q239 465 251 475.5 Q263 486 263 506 Q263 526 248.5 535.5 Q234 545 204 545 L154 545 L154 621 L196 621 Q222 621 235 630.5 Q248 640 248 659 Z M874 110 Q874 55 827.5 23.5 Q781 -8 701 -8 Q622 -8 578 22 Q534 52 534 106 Q534 140 555 164.5 Q576 189 615 201 L615 203 Q585 214 569 235.5 Q553 257 553 285 Q553 335 594 364.5 Q635 394 704 394 Q774 394 814.5 366 Q855 338 855 289 Q855 260 839 238 Q823 216 792 203 L792 202 Q832 190 853 167 Q874 144 874 110 Z M757 270 Q757 289 742.5 300.5 Q728 312 704 312 Q680 312 665.5 300 Q651 288 651 267 Q651 247 665.5 235.5 Q680 224 705 224 Q729 224 743 236 Q757 248 757 270 Z M642 122 Q642 100 658.5 88 Q675 76 705 76 Q733 76 749 89 Q765 102 765 126 Q765 146 748 158 Q731 170 704 170 Q676 170 659 157 Q642 144 642 122 Z " />
<glyph glyph-name="uni215D" unicode="&#x215d;" horiz-adv-x="893" d="M671 774 L808 774 L250 0 L108 0 L671 774 Z M255 658 Q309 658 341 624 Q373 590 373 532 Q373 462 330 420.5 Q287 379 214 379 Q145 379 101.5 412.5 Q58 446 47 508 L150 530 Q154 499 169 484 Q184 469 210 469 Q237 469 250.5 485 Q264 501 264 532 Q264 563 250.5 579 Q237 595 212 595 Q192 595 178 586 Q164 577 154 558 L65 566 L96 774 L349 774 L349 687 L175 687 L164 621 L167 621 Q186 640 207.5 649 Q229 658 255 658 Z M874 110 Q874 55 827.5 23.5 Q781 -8 701 -8 Q622 -8 578 22 Q534 52 534 106 Q534 140 555 164.5 Q576 189 615 201 L615 203 Q585 214 569 235.5 Q553 257 553 285 Q553 335 594 364.5 Q635 394 704 394 Q774 394 814.5 366 Q855 338 855 289 Q855 260 839 238 Q823 216 792 203 L792 202 Q832 190 853 167 Q874 144 874 110 Z M757 270 Q757 289 742.5 300.5 Q728 312 704 312 Q680 312 665.5 300 Q651 288 651 267 Q651 247 665.5 235.5 Q680 224 705 224 Q729 224 743 236 Q757 248 757 270 Z M642 122 Q642 100 658.5 88 Q675 76 705 76 Q733 76 749 89 Q765 102 765 126 Q765 146 748 158 Q731 170 704 170 Q676 170 659 157 Q642 144 642 122 Z " />
<glyph glyph-name="uni215E" unicode="&#x215e;" horiz-adv-x="893" d="M671 774 L808 774 L250 0 L108 0 L671 774 Z M300 576 Q295 550 293 514 Q291 478 291 406 L291 386 L176 386 L176 406 Q176 502 201 570.5 Q226 639 277 680 L92 680 L92 774 L388 774 L388 714 Q351 692 330 659.5 Q309 627 300 576 Z M874 110 Q874 55 827.5 23.5 Q781 -8 701 -8 Q622 -8 578 22 Q534 52 534 106 Q534 140 555 164.5 Q576 189 615 201 L615 203 Q585 214 569 235.5 Q553 257 553 285 Q553 335 594 364.5 Q635 394 704 394 Q774 394 814.5 366 Q855 338 855 289 Q855 260 839 238 Q823 216 792 203 L792 202 Q832 190 853 167 Q874 144 874 110 Z M757 270 Q757 289 742.5 300.5 Q728 312 704 312 Q680 312 665.5 300 Q651 288 651 267 Q651 247 665.5 235.5 Q680 224 705 224 Q729 224 743 236 Q757 248 757 270 Z M642 122 Q642 100 658.5 88 Q675 76 705 76 Q733 76 749 89 Q765 102 765 126 Q765 146 748 158 Q731 170 704 170 Q676 170 659 157 Q642 144 642 122 Z " />
<glyph glyph-name="uni215F" unicode="&#x215f;" horiz-adv-x="706" d="M569 774 L706 774 L148 0 L6 0 L569 774 Z M24 649 L24 729 L90 729 Q113 729 119.5 734.5 Q126 740 127 758 L128 774 L212 774 L212 386 L105 386 L105 649 L24 649 Z " />
<glyph glyph-name="uni2190" unicode="&#x2190;" horiz-adv-x="731" d="M210 144 L-9 378 L210 613 L288 538 L199 448 L717 448 L717 308 L199 308 L288 219 L210 144 Z " />
<glyph glyph-name="arrowup" unicode="&#x2191;" horiz-adv-x="470" d="M2 539 L236 758 L471 539 L396 461 L306 550 L306 32 L166 32 L166 550 L77 461 L2 539 Z " />
<glyph glyph-name="uni2192" unicode="&#x2192;" horiz-adv-x="731" d="M521 613 L740 379 L521 144 L443 219 L532 309 L14 309 L14 449 L532 449 L443 538 L521 613 Z " />
<glyph glyph-name="arrowdown" unicode="&#x2193;" horiz-adv-x="470" d="M469 239 L235 20 L0 239 L75 317 L165 228 L165 746 L305 746 L305 228 L394 317 L469 239 Z " />
<glyph glyph-name="uni2194" unicode="&#x2194;" horiz-adv-x="784" d="M209 144 L-10 379 L209 613 L288 538 L197 449 L587 449 L497 538 L575 613 L794 379 L575 144 L497 219 L588 309 L197 309 L288 219 L209 144 Z " />
<glyph glyph-name="uni2195" unicode="&#x2195;" horiz-adv-x="470" d="M0 565 L235 784 L469 565 L394 487 L305 577 L305 220 L394 311 L469 233 L235 14 L0 233 L76 311 L165 221 L165 577 L76 487 L0 565 Z " />
<glyph glyph-name="uni2196" unicode="&#x2196;" horiz-adv-x="598" d="M12 328 L22 648 L343 659 L345 551 L219 550 L585 184 L486 85 L120 451 L120 326 L12 328 Z " />
<glyph glyph-name="uni2197" unicode="&#x2197;" horiz-adv-x="598" d="M249 652 L570 641 L581 320 L473 318 L472 445 L106 78 L7 177 L373 544 L247 544 L249 652 Z " />
<glyph glyph-name="uni2198" unicode="&#x2198;" horiz-adv-x="598" d="M581 439 L571 119 L250 107 L247 216 L374 216 L8 583 L107 682 L473 315 L473 441 L581 439 Z " />
<glyph glyph-name="uni2199" unicode="&#x2199;" horiz-adv-x="598" d="M343 100 L22 111 L11 432 L119 434 L120 308 L486 674 L585 575 L219 209 L345 209 L343 100 Z " />
<glyph glyph-name="uni21A9" unicode="&#x21a9;" horiz-adv-x="718" d="M198 374 L475 374 Q524 374 546 391.5 Q568 409 568 448 Q568 480 547.5 495 Q527 510 482 510 L383 510 L383 635 L480 635 Q595 635 652.5 588 Q710 541 710 447 Q710 341 649.5 287.5 Q589 234 470 234 L198 234 L288 145 L209 69 L-10 304 L209 538 L288 463 L198 374 Z " />
<glyph glyph-name="uni21AA" unicode="&#x21aa;" horiz-adv-x="718" d="M150 448 Q150 409 172 391.5 Q194 374 243 374 L520 374 L430 463 L509 538 L728 304 L509 69 L430 145 L520 234 L248 234 Q126 234 67 284 Q8 334 8 437 Q8 534 66.5 584.5 Q125 635 238 635 L335 635 L335 510 L236 510 Q191 510 170.5 495 Q150 480 150 448 Z " />
<glyph glyph-name="uni21AF" unicode="&#x21af;" horiz-adv-x="479" d="M459 558 L459 457 L260 158 L390 187 L400 76 L84 24 L10 337 L118 365 L144 238 L279 442 L54 442 L54 533 L238 804 L353 730 L237 558 L459 558 Z " />
<glyph glyph-name="uni21B0" unicode="&#x21b0;" horiz-adv-x="662" d="M198 635 L608 635 L608 41 L468 41 L468 495 L198 495 L288 406 L209 330 L-10 565 L209 799 L288 724 L198 635 Z " />
<glyph glyph-name="uni21B1" unicode="&#x21b1;" horiz-adv-x="662" d="M453 330 L374 406 L464 495 L194 495 L194 41 L54 41 L54 635 L464 635 L374 724 L453 799 L672 565 L453 330 Z " />
<glyph glyph-name="uni21B2" unicode="&#x21b2;" horiz-adv-x="662" d="M198 180 L288 91 L209 16 L-10 250 L209 485 L288 409 L198 320 L468 320 L468 774 L608 774 L608 180 L198 180 Z " />
<glyph glyph-name="uni21B3" unicode="&#x21b3;" horiz-adv-x="662" d="M453 485 L672 250 L453 16 L374 91 L464 180 L54 180 L54 774 L194 774 L194 320 L464 320 L374 409 L453 485 Z " />
<glyph glyph-name="partialdiff" unicode="&#x2202;" horiz-adv-x="668" d="M367 781 Q497 782 568 699 Q639 616 639 470 Q639 245 543 115 Q447 -15 280 -15 Q164 -15 92 52 Q20 119 20 229 Q20 344 95 422.5 Q170 501 281 501 Q345 501 391 475 Q437 449 460 401 L463 401 Q466 420 467.5 437.5 Q469 455 469 481 Q469 562 442 603 Q415 644 362 644 Q325 644 289.5 618.5 Q254 593 231 551 L92 620 Q140 694 214 737.5 Q288 781 367 781 Z M332 406 Q272 406 233 358 Q194 310 194 237 Q194 176 221.5 143 Q249 110 301 110 Q362 110 400.5 159.5 Q439 209 439 286 Q439 343 411 374.5 Q383 406 332 406 Z " />
<glyph glyph-name="uni2206" unicode="&#x2206;" horiz-adv-x="775" d="M763 0 L12 0 L12 75 L324 774 L441 774 L763 75 L763 0 Z M380 567 L206 143 L568 143 L380 567 Z " />
<glyph glyph-name="product" unicode="&#x220f;" horiz-adv-x="846" d="M84 -184 L84 774 L762 774 L762 -184 L590 -184 L590 634 L255 634 L255 -184 L84 -184 Z " />
<glyph glyph-name="summation" unicode="&#x2211;" horiz-adv-x="663" d="M33 673 L33 774 L634 774 L634 638 L246 638 L515 306 L515 286 L246 -50 L645 -50 L645 -186 L17 -186 L17 -99 L344 299 L33 673 Z " />
<glyph glyph-name="minus" unicode="&#x2212;" horiz-adv-x="568" d="M502 334 L66 334 L66 446 L502 446 L502 334 Z " />
<glyph glyph-name="radical" unicode="&#x221a;" horiz-adv-x="742" d="M573 774 L751 774 L468 0 L291 0 L143 338 L3 338 L3 470 L262 470 L376 174 L573 774 Z " />
<glyph glyph-name="infinity" unicode="&#x221e;" horiz-adv-x="880" d="M425 294 Q381 241 329.5 211.5 Q278 182 225 182 Q138 182 86.5 234 Q35 286 35 368 Q35 453 88.5 507 Q142 561 229 561 Q287 561 343 532.5 Q399 504 448 449 Q492 502 544 531.5 Q596 561 649 561 Q735 561 786.5 509 Q838 457 838 375 Q838 290 784.5 236 Q731 182 644 182 Q586 182 530 210.5 Q474 239 425 294 Z M632 301 Q666 301 686 320 Q706 339 706 372 Q706 407 684 426.5 Q662 446 621 446 Q591 446 560.5 430 Q530 414 499 382 Q534 340 566 320.5 Q598 301 632 301 Z M242 442 Q208 442 188 423 Q168 404 168 371 Q168 336 190 316.5 Q212 297 252 297 Q282 297 312.5 313 Q343 329 374 361 Q339 403 307 422.5 Q275 442 242 442 Z " />
<glyph glyph-name="integral" unicode="&#x222b;" horiz-adv-x="344" d="M315 640 Q279 640 264.5 621 Q250 602 250 558 L250 0 Q250 -98 202 -148 Q154 -198 61 -198 Q32 -198 1.5 -194 Q-29 -190 -45 -184 L-29 -47 Q-16 -50 -4.5 -51 Q7 -52 18 -52 Q55 -52 69 -34.5 Q83 -17 83 26 L83 594 Q83 688 135 737 Q187 786 285 786 Q311 786 337 782 Q363 778 378 772 L361 635 Q353 637 339.5 638.5 Q326 640 315 640 Z " />
<glyph glyph-name="approxequal" unicode="&#x2248;" horiz-adv-x="568" d="M384 377 Q364 377 343.5 382.5 Q323 388 285 405 Q246 421 225.5 426.5 Q205 432 185 432 Q153 432 122.5 416.5 Q92 401 66 372 L66 489 Q93 516 125.5 530.5 Q158 545 190 545 Q211 545 234 539 Q257 533 299 515 Q336 499 354 494 Q372 489 388 489 Q421 489 449 503 Q477 517 502 545 L502 428 Q479 402 450.5 389.5 Q422 377 384 377 Z M384 164 Q364 164 343.5 169.5 Q323 175 285 192 Q246 209 225.5 214.5 Q205 220 185 220 Q154 220 123 204.5 Q92 189 66 159 L66 276 Q93 303 125.5 317.5 Q158 332 190 332 Q211 332 234 326 Q257 320 299 302 Q336 286 354 281 Q372 276 388 276 Q421 276 449 290 Q477 304 502 332 L502 215 Q479 189 450 176.5 Q421 164 384 164 Z " />
<glyph glyph-name="notequal" unicode="&#x2260;" horiz-adv-x="568" d="M169 192 L66 192 L66 304 L220 304 L263 396 L66 396 L66 509 L309 509 L367 642 L467 642 L409 509 L502 509 L502 396 L359 396 L316 304 L502 304 L502 192 L269 192 L211 59 L111 59 L169 192 Z " />
<glyph glyph-name="equivalence" unicode="&#x2261;" horiz-adv-x="456" d="M400 427 L56 427 L56 530 L400 530 L400 427 Z M400 252 L56 252 L56 355 L400 355 L400 252 Z M400 77 L56 77 L56 180 L400 180 L400 77 Z " />
<glyph glyph-name="lessequal" unicode="&#x2264;" horiz-adv-x="568" d="M503 154 L65 372 L65 447 L503 664 L503 541 L227 412 L503 281 L503 154 Z M503 0 L66 0 L66 113 L503 113 L503 0 Z " />
<glyph glyph-name="greaterequal" unicode="&#x2265;" horiz-adv-x="568" d="M65 664 L503 446 L503 371 L65 154 L65 277 L341 406 L65 537 L65 664 Z M502 113 L502 0 L65 0 L65 113 L502 113 Z " />
<glyph glyph-name="house" unicode="&#x2302;" horiz-adv-x="904" d="M789 427 L789 0 L115 0 L115 427 L452 750 L789 427 Z " />
<glyph glyph-name="uni25A0" unicode="&#x25a0;" horiz-adv-x="956" d="M841 0 L115 0 L115 730 L841 730 L841 0 Z " />
<glyph glyph-name="uni25A1" unicode="&#x25a1;" horiz-adv-x="956" d="M841 0 L115 0 L115 730 L841 730 L841 0 Z M765 657 L191 657 L191 73 L765 73 L765 657 Z " />
<glyph glyph-name="uni25AA" unicode="&#x25aa;" horiz-adv-x="730" d="M615 0 L115 0 L115 500 L615 500 L615 0 Z " />
<glyph glyph-name="uni25AB" unicode="&#x25ab;" horiz-adv-x="730" d="M615 0 L115 0 L115 500 L615 500 L615 0 Z M541 429 L189 429 L189 71 L541 71 L541 429 Z " />
<glyph glyph-name="triagup" unicode="&#x25b2;" horiz-adv-x="927" d="M464 742 L892 0 L35 0 L464 742 Z " />
<glyph glyph-name="triagrt" unicode="&#x25ba;" horiz-adv-x="927" d="M857 372 L115 -57 L115 800 L857 372 Z " />
<glyph glyph-name="triagdn" unicode="&#x25bc;" horiz-adv-x="927" d="M464 -12 L35 730 L892 730 L464 -12 Z " />
<glyph glyph-name="triaglf" unicode="&#x25c4;" horiz-adv-x="927" d="M70 372 L812 800 L812 -57 L70 372 Z " />
<glyph glyph-name="lozenge" unicode="&#x25ca;" horiz-adv-x="653" d="M369 774 L602 402 L602 377 L373 0 L284 0 L54 376 L54 401 L280 774 L369 774 Z M322 626 L191 393 L330 149 L466 385 L322 626 Z " />
<glyph glyph-name="uni25CB" unicode="&#x25cb;" horiz-adv-x="827" d="M769 350 Q769 199 665.5 94.5 Q562 -10 414 -10 Q265 -10 161.5 94.5 Q58 199 58 350 Q58 500 161.5 604.5 Q265 709 414 709 Q562 709 665.5 604.5 Q769 500 769 350 Z M136 350 Q136 227 216 143.5 Q296 60 414 60 Q533 60 612 143 Q691 226 691 350 Q691 474 612 556.5 Q533 639 414 639 Q296 639 216 556 Q136 473 136 350 Z " />
<glyph glyph-name="uni25CE" unicode="&#x25ce;" horiz-adv-x="957" d="M854 365 Q854 210 744 100 Q634 -10 479 -10 Q324 -10 214 100 Q104 210 104 365 Q104 520 214 630 Q324 740 479 740 Q634 740 744 630 Q854 520 854 365 Z M176 365 Q176 236 263.5 147.5 Q351 59 479 59 Q607 59 694.5 147.5 Q782 236 782 365 Q782 494 694.5 582.5 Q607 671 479 671 Q351 671 263.5 582.5 Q176 494 176 365 Z M702 364 Q702 271 637 206 Q572 141 479 141 Q387 141 322 206 Q257 271 257 364 Q257 457 322 522 Q387 587 479 587 Q572 587 637 522 Q702 457 702 364 Z M323 364 Q323 299 369.5 251.5 Q416 204 479 204 Q543 204 590 251.5 Q637 299 637 364 Q637 429 590 476.5 Q543 524 479 524 Q415 524 369 477 Q323 430 323 364 Z M454 323 Q437 334 432 354 Q427 374 437 391 Q448 408 468.5 413 Q489 418 506 407 Q523 395 527.5 375.5 Q532 356 521 339 Q510 322 490.5 317 Q471 312 454 323 Z " />
<glyph glyph-name="uni25CF" unicode="&#x25cf;" horiz-adv-x="827" d="M769 350 Q769 199 665.5 94.5 Q562 -10 414 -10 Q265 -10 161.5 94.5 Q58 199 58 350 Q58 500 161.5 604.5 Q265 709 414 709 Q562 709 665.5 604.5 Q769 500 769 350 Z " />
<glyph glyph-name="uni25E2" unicode="&#x25e2;" horiz-adv-x="927" d="M60 755 L888 533 L282 -73 L60 755 Z " />
<glyph glyph-name="uni25E3" unicode="&#x25e3;" horiz-adv-x="927" d="M869 755 L647 -73 L41 533 L869 755 Z " />
<glyph glyph-name="uni25E4" unicode="&#x25e4;" horiz-adv-x="927" d="M650 774 L872 -54 L44 168 L650 774 Z " />
<glyph glyph-name="uni25E5" unicode="&#x25e5;" horiz-adv-x="927" d="M282 770 L887 163 L59 -58 L282 770 Z " />
<glyph glyph-name="uni2605" unicode="&#x2605;" horiz-adv-x="930" d="M534 438 L764 437 L577 303 L649 85 L462 221 L276 85 L348 304 L162 439 L391 438 L463 656 L534 438 Z " />
<glyph glyph-name="uni2608" unicode="&#x2608;" horiz-adv-x="706" d="M182 654 L255 511 L175 306 L175 -64 L34 -64 L34 326 L113 510 L28 668 L28 774 L605 774 L605 664 L457 444 L584 224 L613 355 L717 324 L635 14 L320 75 L344 185 L472 156 L307 440 L453 654 L182 654 Z " />
<glyph glyph-name="uni263C" unicode="&#x263c;" horiz-adv-x="958" d="M486 577 L466 577 L449 719 L503 719 L486 577 Z M378 554 L363 544 L276 659 L323 687 L378 554 Z M589 544 L574 554 L629 687 L676 659 L589 544 Z M298 479 L288 464 L155 519 L183 566 L298 479 Z M664 464 L654 480 L767 566 L797 520 L664 464 Z M476 191 Q405 191 353.5 242.5 Q302 294 302 365 Q302 436 353.5 487.5 Q405 539 476 539 Q547 539 598.5 487.5 Q650 436 650 365 Q650 294 598.5 242.5 Q547 191 476 191 Z M265 376 L265 356 L123 339 L123 393 L265 376 Z M687 356 L687 376 L829 393 L829 339 L687 356 Z M288 268 L298 252 L185 166 L155 212 L288 268 Z M654 253 L664 268 L797 213 L769 166 L654 253 Z M363 188 L378 178 L323 45 L276 73 L363 188 Z M574 178 L589 188 L676 73 L629 45 L574 178 Z M466 155 L486 155 L503 13 L449 13 L466 155 Z " />
<glyph glyph-name="uni263E" unicode="&#x263e;" horiz-adv-x="817" d="M620 604 Q593 611 577.5 613.5 Q562 616 549 616 Q450 616 380 542.5 Q310 469 310 365 Q310 261 380 187.5 Q450 114 549 114 Q565 114 582.5 117 Q600 120 620 126 Q581 98 535 83.5 Q489 69 442 69 Q320 69 233 156 Q146 243 146 365 Q146 487 233 574 Q320 661 442 661 Q489 661 535 646.5 Q581 632 620 604 Z " />
<glyph glyph-name="spade" unicode="&#x2660;" horiz-adv-x="950" d="M541 140 Q548 120 557 100.5 Q566 81 611 4 L609 0 L350 0 L348 4 Q385 71 396 94 Q407 117 415 140 Q429 178 436 215.5 Q443 253 444 290 Q418 224 374.5 189 Q331 154 274 154 Q202 154 152.5 199 Q103 244 103 312 Q103 390 149 455 Q195 520 338 635 L478 747 L479 747 L619 635 Q755 526 801 459.5 Q847 393 847 312 Q847 244 802 199.5 Q757 155 690 155 Q627 155 580.5 189.5 Q534 224 509 289 Q510 252 518 214.5 Q526 177 541 140 Z " />
<glyph glyph-name="club" unicode="&#x2663;" horiz-adv-x="950" d="M569 81 Q578 61 593 34.5 Q608 8 610 4 L608 0 L353 0 L351 4 Q401 98 419 149.5 Q437 201 442 248 Q421 194 376 162 Q331 130 275 130 Q202 130 150 182 Q98 234 98 307 Q98 381 150 432.5 Q202 484 275 484 Q285 484 295 482.5 Q305 481 317 477 Q308 500 303 522 Q298 544 298 564 Q298 637 349 688.5 Q400 740 473 740 Q546 740 597.5 688.5 Q649 637 649 564 Q649 541 644 518.5 Q639 496 630 476 Q641 480 652.5 482 Q664 484 676 484 Q749 484 800.5 432.5 Q852 381 852 307 Q852 234 800.5 182 Q749 130 675 130 Q621 130 577.5 161 Q534 192 513 246 Q516 226 521 204.5 Q526 183 534 161 Q541 142 549.5 122 Q558 102 569 81 Z " />
<glyph glyph-name="heart" unicode="&#x2665;" horiz-adv-x="950" d="M104 550 Q104 635 155 687.5 Q206 740 287 740 Q363 740 413.5 696.5 Q464 653 472 580 Q480 653 530.5 696.5 Q581 740 657 740 Q739 740 792.5 687 Q846 634 846 550 Q846 465 794 373 Q742 281 614 140 L472 -17 L331 140 Q206 279 155 371.5 Q104 464 104 550 Z " />
<glyph glyph-name="diamond" unicode="&#x2666;" horiz-adv-x="950" d="M475 -10 L148 390 L475 791 L802 390 L475 -10 Z " />
<glyph glyph-name="uni267B" unicode="&#x267b;" horiz-adv-x="884" d="M379 728 L379 729 L561 729 Q596 729 614.5 719.5 Q633 710 647 685 L673 639 L714 662 L656 505 L494 535 L532 557 L465 675 Q451 701 430.5 713.5 Q410 726 379 728 Z M437 666 L328 477 L187 558 L250 670 Q261 691 284 702 Q307 713 337 713 Q370 713 396.5 700.5 Q423 688 437 666 Z M717 232 L608 421 L748 502 L814 392 Q819 383 821.5 373 Q824 363 824 352 Q824 308 794 275 Q764 242 717 232 Z M158 172 Q158 160 161.5 147.5 Q165 135 171 122 L170 122 L79 279 Q69 296 64.5 308.5 Q60 321 60 333 Q60 343 63 353 Q66 363 74 376 L101 421 L60 445 L225 473 L280 318 L242 340 L174 223 Q166 210 162 197.5 Q158 185 158 172 Z M799 251 L800 250 L709 93 Q692 63 675 52 Q658 41 628 41 L575 41 L575 -6 L468 123 L575 248 L575 203 L711 203 Q741 203 761.5 214.5 Q782 226 799 251 Z M195 203 L414 203 L414 41 L294 41 Q246 41 216 76 Q186 111 186 161 Q186 172 188.5 182.5 Q191 193 195 203 Z " />
<glyph glyph-name="uni267C" unicode="&#x267c;" horiz-adv-x="951" d="M742 633 Q795 579 823.5 510 Q852 441 852 366 Q852 210 742.5 100.5 Q633 -9 477 -9 Q320 -9 210 100.5 Q100 210 100 366 Q100 441 128.5 510 Q157 579 210 633 Q263 686 332 714.5 Q401 743 477 743 Q552 743 620.5 714.5 Q689 686 742 633 Z M424 643 L424 642 Q447 640 462 630.5 Q477 621 489 601 L540 513 L511 496 L633 474 L678 593 L646 574 L626 609 Q617 628 602.5 635.5 Q588 643 561 643 L424 643 Z M279 514 L385 452 L469 595 Q458 612 438 621 Q418 630 393 630 Q370 630 353 622 Q336 614 327 598 L279 514 Z M703 471 L597 410 L679 268 Q715 276 738 300.5 Q761 325 761 358 Q761 365 759 372 Q757 379 753 388 L703 471 Z M266 185 L267 185 Q262 194 260 203 Q258 212 258 222 Q258 233 261 242.5 Q264 252 270 261 L321 350 L349 332 L308 449 L184 428 L214 410 L194 377 Q188 365 186 358 Q184 351 184 344 Q184 334 187.5 325 Q191 316 199 303 L266 185 Z M742 281 L741 282 Q728 263 712.5 254.5 Q697 246 675 246 L572 246 L572 279 L492 185 L572 89 L572 123 L613 123 Q635 123 647.5 131.5 Q660 140 673 163 L742 281 Z M450 123 L450 246 L286 246 Q282 238 280 230 Q278 222 278 213 Q278 176 301 149.5 Q324 123 360 123 L450 123 Z " />
<glyph glyph-name="uni267D" unicode="&#x267d;" horiz-adv-x="952" d="M742 633 Q795 579 823.5 510 Q852 441 852 366 Q852 210 742.5 100.5 Q633 -9 477 -9 Q320 -9 210 100.5 Q100 210 100 366 Q100 441 128.5 510 Q157 579 210 633 Q263 686 332 714.5 Q401 743 477 743 Q552 743 620.5 714.5 Q689 686 742 633 Z M477 27 Q618 27 717 126 Q816 225 816 366 Q816 507 716.5 607 Q617 707 477 707 Q336 707 236 607 Q136 507 136 366 Q136 225 235.5 126 Q335 27 477 27 Z M424 642 L424 643 L561 643 Q588 643 602.5 635.5 Q617 628 626 609 L646 574 L678 593 L633 474 L511 496 L540 513 L489 601 Q477 621 462 630.5 Q447 640 424 642 Z M469 595 L385 452 L279 514 L327 598 Q336 614 353 622 Q370 630 393 630 Q418 630 438 621 Q458 612 469 595 Z M679 268 L597 410 L703 471 L753 388 Q757 379 759 372 Q761 365 761 358 Q761 325 738 300.5 Q715 276 679 268 Z M258 222 Q258 212 260 203 Q262 194 267 185 L266 185 L199 303 Q191 316 187.5 325 Q184 334 184 344 Q184 351 186 358 Q188 365 194 377 L214 410 L184 428 L308 449 L349 332 L321 350 L270 261 Q264 252 261 242.5 Q258 233 258 222 Z M741 282 L742 281 L673 163 Q660 140 647.5 131.5 Q635 123 613 123 L572 123 L572 89 L492 185 L572 279 L572 246 L675 246 Q697 246 712.5 254.5 Q728 263 741 282 Z M286 246 L450 246 L450 123 L360 123 Q324 123 301 149.5 Q278 176 278 213 Q278 222 280 230 Q282 238 286 246 Z " />
<glyph glyph-name="uni3008" unicode="&#x3008;" horiz-adv-x="413" d="M66 297 L282 815 L442 815 L223 302 L442 -231 L278 -231 L66 297 Z " />
<glyph glyph-name="uni3009" unicode="&#x3009;" horiz-adv-x="413" d="M347 287 L131 -231 L-29 -231 L190 282 L-29 815 L135 815 L347 287 Z " />
<glyph glyph-name="uniFB00" unicode="&#xfb00;" horiz-adv-x="817" d="M285 0 L119 0 L119 453 L7 453 L7 575 L119 575 L119 614 Q119 715 170.5 769.5 Q222 824 318 824 Q349 824 380.5 819 Q412 814 435 805 L413 682 Q399 687 384 690 Q369 693 354 693 Q316 693 298.5 672 Q281 651 281 605 L281 575 L500 575 L500 614 Q500 715 551.5 769.5 Q603 824 699 824 Q730 824 761.5 819 Q793 814 816 805 L794 682 Q780 687 765 690 Q750 693 735 693 Q697 693 679.5 672 Q662 651 662 605 L662 575 L797 575 L797 453 L666 453 L666 0 L500 0 L500 453 L285 453 L285 0 Z " />
<glyph glyph-name="uniFB01" unicode="&#xfb01;" horiz-adv-x="719" d="M119 453 L7 453 L7 575 L119 575 L119 622 Q119 717 169.5 770.5 Q220 824 311 824 Q333 824 357 822 Q381 820 407 815 L407 695 Q396 696 387.5 696.5 Q379 697 363 697 Q317 697 299 677 Q281 657 281 604 L281 575 L407 575 L407 453 L285 453 L285 0 L119 0 L119 453 Z M659 661 L487 661 L487 815 L659 815 L659 661 Z M490 0 L490 575 L656 575 L656 0 L490 0 Z " />
<glyph glyph-name="uniFB02" unicode="&#xfb02;" horiz-adv-x="717" d="M119 453 L7 453 L7 575 L119 575 L119 622 Q119 717 169.5 770.5 Q220 824 311 824 Q333 824 357 822 Q381 820 407 815 L407 695 Q396 696 387.5 696.5 Q379 697 363 697 Q317 697 299 677 Q281 657 281 604 L281 575 L407 575 L407 453 L285 453 L285 0 L119 0 L119 453 Z M489 0 L489 815 L655 815 L655 0 L489 0 Z " />
<glyph glyph-name="uniFF3F" unicode="&#xff3f;" horiz-adv-x="620" d="M620 -132 L0 -132 L0 -55 L620 -55 L620 -132 Z " />
</font>
</defs>
</svg>
