<svg xmlns="http://www.w3.org/2000/svg">
<defs>
<font id="Garnett Bold">
<font-face  font-family="Garnett" units-per-em="1000" ascent="1070" descent="-323" font-style="normal" font-weight="800" font-stretch="normal" cap-height="774" x-height="579" underline-position="-160" underline-thickness="70" />

<glyph glyph-name="space" unicode="&#x20;" horiz-adv-x="180" d="" />
<glyph glyph-name="exclam" unicode="&#x21;" horiz-adv-x="303" d="M43 542 L43 774 L260 774 L260 542 L219 239 L84 239 L43 542 Z M252 0 L52 0 L52 183 L252 183 L252 0 Z " />
<glyph glyph-name="quotedbl" unicode="&#x22;" horiz-adv-x="471" d="M84 468 L54 774 L218 774 L188 468 L84 468 Z M283 468 L253 774 L417 774 L387 468 L283 468 Z " />
<glyph glyph-name="numbersign" unicode="&#x23;" horiz-adv-x="643" d="M98 213 L9 213 L9 333 L123 333 L151 463 L44 463 L44 583 L176 583 L208 733 L343 733 L311 583 L429 583 L460 733 L595 733 L564 583 L644 583 L644 463 L538 463 L511 333 L609 333 L609 213 L486 213 L451 49 L316 49 L350 213 L233 213 L199 49 L64 49 L98 213 Z M275 469 L245 326 L387 326 L416 469 L275 469 Z " />
<glyph glyph-name="dollar" unicode="&#x24;" horiz-adv-x="698" d="M431 -10 L431 -145 L270 -145 L270 -10 Q159 5 90 59 Q21 113 -2 204 L205 260 Q218 210 258 184 Q298 158 360 158 Q408 158 434 176 Q460 194 460 228 Q460 252 438 265.5 Q416 279 333 291 Q275 300 243 307 Q211 314 182 323 Q150 333 126 346 Q102 359 84 377 Q55 406 41.5 442.5 Q28 479 28 527 Q28 629 92.5 697 Q157 765 270 783 L270 898 L431 898 L431 782 Q525 765 587 710.5 Q649 656 675 566 L473 522 Q459 571 428.5 593.5 Q398 616 346 616 Q302 616 276.5 597.5 Q251 579 251 546 Q251 519 275.5 504 Q300 489 376 478 Q450 467 477.5 461 Q505 455 529 448 Q561 439 585 425.5 Q609 412 626 395 Q653 369 667 330.5 Q681 292 681 245 Q681 141 615 74 Q549 7 431 -10 Z " />
<glyph glyph-name="percent" unicode="&#x25;" horiz-adv-x="952" d="M241 380 Q158 380 106 432.5 Q54 485 54 576 Q54 672 105.5 727.5 Q157 783 241 783 Q324 783 376.5 728 Q429 673 429 579 Q429 489 375.5 434.5 Q322 380 241 380 Z M680 774 L828 774 L274 0 L117 0 L680 774 Z M241 675 Q212 675 196 650 Q180 625 180 579 Q180 536 196 512 Q212 488 241 488 Q271 488 286.5 511.5 Q302 535 302 579 Q302 625 286 650 Q270 675 241 675 Z M710 -8 Q627 -8 575 44.5 Q523 97 523 188 Q523 284 574.5 339.5 Q626 395 710 395 Q793 395 845.5 340 Q898 285 898 191 Q898 101 844.5 46.5 Q791 -8 710 -8 Z M710 100 Q740 100 755.5 123.5 Q771 147 771 191 Q771 236 755 261 Q739 286 710 286 Q681 286 665 261 Q649 236 649 191 Q649 148 665 124 Q681 100 710 100 Z " />
<glyph glyph-name="ampersand" unicode="&#x26;" horiz-adv-x="916" d="M422 788 Q532 788 597 738 Q662 688 662 604 Q662 532 613 482 Q564 432 464 403 Q480 383 495 365.5 Q510 348 524 333 Q542 313 560 296 Q578 279 597 264 Q631 313 652 372.5 Q673 432 683 505 L852 478 Q841 395 808.5 315.5 Q776 236 732 183 Q771 168 810.5 160 Q850 152 890 152 Q902 152 909.5 152.5 Q917 153 924 154 L909 -11 Q894 -14 877 -15.5 Q860 -17 844 -17 Q773 -17 706.5 0 Q640 17 576 51 Q528 18 466.5 0.5 Q405 -17 335 -17 Q188 -17 110 41.5 Q32 100 32 211 Q32 293 78 354 Q124 415 213 450 Q196 484 187.5 518 Q179 552 179 581 Q179 676 243.5 732 Q308 788 422 788 Z M435 656 Q411 656 397 638 Q383 620 383 592 Q383 571 388.5 547.5 Q394 524 406 498 Q445 514 464 539.5 Q483 565 483 601 Q483 629 471 642.5 Q459 656 435 656 Z M273 343 Q258 328 250.5 309 Q243 290 243 264 Q243 210 283.5 178 Q324 146 392 146 Q402 146 413 147.5 Q424 149 435 151 Q415 169 398.5 185 Q382 201 369 216 Q341 245 317.5 276.5 Q294 308 273 343 Z " />
<glyph glyph-name="quotesingle" unicode="&#x27;" horiz-adv-x="271" d="M84 468 L54 774 L218 774 L188 468 L84 468 Z " />
<glyph glyph-name="parenleft" unicode="&#x28;" horiz-adv-x="371" d="M30 292 Q30 445 88 584.5 Q146 724 240 815 L431 815 Q334 681 292 558 Q250 435 250 292 Q250 149 292 27 Q334 -95 431 -231 L240 -231 Q145 -138 87.5 0.5 Q30 139 30 292 Z " />
<glyph glyph-name="parenright" unicode="&#x29;" horiz-adv-x="371" d="M341 292 Q341 139 283 -0.5 Q225 -140 131 -231 L-60 -231 Q37 -97 79 26 Q121 149 121 292 Q121 435 79 557 Q37 679 -60 815 L131 815 Q226 722 283.5 583.5 Q341 445 341 292 Z " />
<glyph glyph-name="asterisk" unicode="&#x2a;" horiz-adv-x="439" d="M219 491 L152 374 L53 447 L142 549 L10 577 L48 694 L172 640 L158 774 L282 774 L269 640 L392 694 L429 577 L297 548 L388 447 L288 374 L219 491 Z " />
<glyph glyph-name="plus" unicode="&#x2b;" horiz-adv-x="560" d="M211 327 L58 327 L58 456 L211 456 L211 617 L349 617 L349 456 L501 456 L501 327 L349 327 L349 170 L211 170 L211 327 Z " />
<glyph glyph-name="comma" unicode="&#x2c;" horiz-adv-x="259" d="M119 0 L30 0 L30 183 L229 183 L229 36 Q229 -69 187 -116 Q145 -163 46 -168 L18 -75 Q77 -74 98 -58.5 Q119 -43 119 0 Z " />
<glyph glyph-name="hyphen" unicode="&#x2d;" horiz-adv-x="405" d="M363 262 L41 262 L41 395 L363 395 L363 262 Z " />
<glyph glyph-name="period" unicode="&#x2e;" horiz-adv-x="259" d="M229 0 L30 0 L30 183 L229 183 L229 0 Z " />
<glyph glyph-name="slash" unicode="&#x2f;" horiz-adv-x="451" d="M165 -231 L7 -231 L294 815 L453 815 L165 -231 Z " />
<glyph glyph-name="zero" unicode="0" horiz-adv-x="748" d="M373 -15 Q210 -15 123 88 Q36 191 36 388 Q36 574 131 681.5 Q226 789 381 789 Q533 789 623 682.5 Q713 576 713 389 Q713 199 621.5 92 Q530 -15 373 -15 Z M375 176 Q429 176 456.5 227.5 Q484 279 484 380 Q484 488 457 542.5 Q430 597 377 597 Q321 597 293 543 Q265 489 265 380 Q265 279 293 227.5 Q321 176 375 176 Z " />
<glyph glyph-name="one" unicode="1" horiz-adv-x="456" d="M12 534 L12 686 L141 686 Q182 686 195.5 697.5 Q209 709 213 749 L215 774 L390 774 L390 0 L169 0 L169 534 L12 534 Z " />
<glyph glyph-name="two" unicode="2" horiz-adv-x="701" d="M431 512 Q431 553 410.5 575.5 Q390 598 353 598 Q301 598 275.5 554 Q250 510 252 424 L44 459 Q49 614 134.5 701 Q220 788 364 788 Q496 789 575 718.5 Q654 648 654 530 Q654 448 608.5 379.5 Q563 311 454 234 L375 178 L664 178 L664 0 L45 0 L45 137 L277 304 Q365 369 398 414.5 Q431 460 431 512 Z " />
<glyph glyph-name="three" unicode="3" horiz-adv-x="657" d="M402 546 Q402 579 382 597 Q362 615 325 615 Q283 615 258.5 588 Q234 561 230 508 L39 547 Q62 659 141 721.5 Q220 784 340 784 Q464 784 537 727 Q610 670 610 573 Q610 510 576.5 466 Q543 422 482 403 L482 401 Q559 384 599 338.5 Q639 293 639 221 Q639 114 559 49.5 Q479 -15 345 -15 Q201 -15 116.5 50.5 Q32 116 16 240 L219 285 Q224 222 252 192 Q280 162 333 162 Q378 162 401 184 Q424 206 424 248 Q424 287 396.5 305 Q369 323 308 323 L222 323 L222 472 L290 472 Q348 472 375 490 Q402 508 402 546 Z " />
<glyph glyph-name="four" unicode="4" horiz-adv-x="693" d="M679 313 L679 143 L569 143 L569 0 L353 0 L353 143 L25 143 L25 318 L362 774 L569 774 L569 313 L679 313 Z M364 563 L191 313 L364 313 L364 563 Z " />
<glyph glyph-name="five" unicode="5" horiz-adv-x="685" d="M439 516 Q543 516 602.5 453 Q662 390 662 281 Q662 146 577.5 66 Q493 -14 349 -14 Q210 -14 124.5 51.5 Q39 117 20 239 L231 284 Q238 227 265.5 198.5 Q293 170 342 170 Q389 170 415 200.5 Q441 231 441 287 Q441 337 416 364 Q391 391 344 391 Q311 391 285 376.5 Q259 362 243 335 L55 359 L114 774 L614 774 L613 594 L281 594 L258 441 L261 441 Q293 478 338.5 497 Q384 516 439 516 Z " />
<glyph glyph-name="six" unicode="6" horiz-adv-x="707" d="M377 -15 Q211 -15 121 88.5 Q31 192 31 382 Q31 565 132.5 677 Q234 789 401 789 Q498 789 572.5 746.5 Q647 704 686 626 L490 533 Q474 566 450.5 581.5 Q427 597 392 597 Q327 597 291 542.5 Q255 488 252 383 L255 383 Q286 437 338.5 465.5 Q391 494 459 494 Q561 494 623 430.5 Q685 367 685 262 Q685 137 600.5 61 Q516 -15 377 -15 Z M372 367 Q327 367 301.5 340 Q276 313 276 265 Q276 218 302 190 Q328 162 372 162 Q415 162 440 190 Q465 218 465 266 Q465 314 440.5 340.5 Q416 367 372 367 Z " />
<glyph glyph-name="seven" unicode="7" horiz-adv-x="604" d="M412 368 Q402 315 398 244 Q394 173 394 37 L394 0 L162 0 L162 37 Q162 232 219 371 Q276 510 387 587 L15 587 L15 774 L590 774 L590 631 Q515 593 472 530.5 Q429 468 412 368 Z " />
<glyph glyph-name="eight" unicode="8" horiz-adv-x="746" d="M707 220 Q707 110 616 47 Q525 -16 371 -16 Q215 -16 127 42.5 Q39 101 39 207 Q39 278 81.5 327 Q124 376 205 400 L205 404 Q140 427 106.5 468 Q73 509 73 567 Q73 668 156 728 Q239 788 374 788 Q513 788 593.5 730.5 Q674 673 674 575 Q674 518 639.5 474.5 Q605 431 541 407 L541 403 Q623 380 665 333.5 Q707 287 707 220 Z M466 539 Q466 578 441 601 Q416 624 374 624 Q331 624 305.5 600 Q280 576 280 536 Q280 494 304.5 471.5 Q329 449 374 449 Q417 449 441.5 473 Q466 497 466 539 Z M266 244 Q266 201 294.5 177 Q323 153 374 153 Q423 153 451.5 178.5 Q480 204 480 248 Q480 291 452 315 Q424 339 375 339 Q325 339 295.5 313.5 Q266 288 266 244 Z " />
<glyph glyph-name="nine" unicode="9" horiz-adv-x="721" d="M343 789 Q503 789 593.5 683.5 Q684 578 684 392 Q684 202 590.5 93.5 Q497 -15 331 -15 Q227 -15 144 28.5 Q61 72 25 146 L215 246 Q233 211 261.5 193.5 Q290 176 329 176 Q397 176 429.5 230.5 Q462 285 463 403 L460 403 Q430 346 376 315.5 Q322 285 252 285 Q153 285 93 347 Q33 409 33 513 Q33 634 120 711.5 Q207 789 343 789 Z M345 412 Q387 412 412.5 439.5 Q438 467 438 512 Q438 561 414 588 Q390 615 346 615 Q302 615 276.5 586.5 Q251 558 251 511 Q251 465 276 438.5 Q301 412 345 412 Z " />
<glyph glyph-name="colon" unicode="&#x3a;" horiz-adv-x="259" d="M229 0 L30 0 L30 183 L229 183 L229 0 Z M229 343 L30 343 L30 526 L229 526 L229 343 Z " />
<glyph glyph-name="semicolon" unicode="&#x3b;" horiz-adv-x="259" d="M119 0 L30 0 L30 183 L229 183 L229 36 Q229 -69 187 -116 Q145 -163 46 -168 L18 -75 Q77 -74 98 -58.5 Q119 -43 119 0 Z M229 343 L30 343 L30 526 L229 526 L229 343 Z " />
<glyph glyph-name="less" unicode="&#x3c;" horiz-adv-x="560" d="M493 91 L53 310 L53 398 L493 616 L493 476 L236 356 L493 235 L493 91 Z " />
<glyph glyph-name="equal" unicode="&#x3d;" horiz-adv-x="560" d="M501 391 L58 391 L58 521 L501 521 L501 391 Z M501 180 L58 180 L58 309 L501 309 L501 180 Z " />
<glyph glyph-name="greater" unicode="&#x3e;" horiz-adv-x="560" d="M66 616 L506 397 L506 309 L66 91 L66 231 L322 351 L66 472 L66 616 Z " />
<glyph glyph-name="question" unicode="&#x3f;" horiz-adv-x="623" d="M306 605 Q262 605 238 574 Q214 543 208 479 L-8 514 Q12 646 99 717.5 Q186 789 324 789 Q455 789 536.5 725.5 Q618 662 618 559 Q618 500 592 454 Q566 408 501 359 Q486 348 464 333 Q442 318 436 314 Q413 297 405.5 283.5 Q398 270 398 249 L398 240 L204 240 L204 265 Q204 307 219.5 338.5 Q235 370 293 419 Q349 470 362.5 492.5 Q376 515 376 539 Q376 570 357.5 587.5 Q339 605 306 605 Z M401 0 L201 0 L201 183 L401 183 L401 0 Z " />
<glyph glyph-name="at" unicode="&#x40;" horiz-adv-x="983" d="M788 115 Q825 115 844.5 160 Q864 205 865 290 Q865 453 770 546.5 Q675 640 511 640 Q342 640 234 526 Q126 412 126 229 Q126 67 227 -23 Q328 -113 505 -113 Q571 -113 630.5 -100 Q690 -87 739 -63 L739 -163 Q696 -185 633 -197 Q570 -209 503 -209 Q282 -209 150 -91.5 Q18 26 18 229 Q18 337 53.5 429 Q89 521 156 589 Q224 658 316.5 694.5 Q409 731 514 731 Q717 731 843.5 613.5 Q970 496 970 305 Q970 165 911 94.5 Q852 24 735 24 Q662 24 614.5 51.5 Q567 79 563 125 L561 125 Q539 73 498.5 45.5 Q458 18 401 18 Q332 18 292 54.5 Q252 91 252 155 Q252 191 265.5 219 Q279 247 306 267 Q329 283 361.5 293.5 Q394 304 437 309 L498 316 Q531 319 546.5 330.5 Q562 342 562 362 Q562 380 549.5 391 Q537 402 515 402 Q486 402 469 385.5 Q452 369 446 335 L279 359 Q302 445 365 491 Q428 537 523 537 Q630 537 687.5 484.5 Q745 432 746 334 L746 184 Q746 143 756 129 Q766 115 788 115 Z M438 184 Q438 163 451.5 150.5 Q465 138 489 138 Q523 138 544 165 Q565 192 565 236 L565 252 Q561 249 555 247 Q549 245 538 243 L493 235 Q465 230 451.5 217.5 Q438 205 438 184 Z " />
<glyph glyph-name="A" unicode="A" horiz-adv-x="783" d="M229 0 L6 0 L257 774 L518 774 L777 0 L545 0 L509 128 L264 128 L229 0 Z M384 571 L305 280 L466 280 L384 571 Z " />
<glyph glyph-name="B" unicode="B" horiz-adv-x="753" d="M429 0 L58 0 L58 774 L414 774 Q560 774 633 727 Q706 680 706 585 Q706 521 668 474.5 Q630 428 559 406 L559 404 Q645 387 690.5 339.5 Q736 292 736 221 Q736 112 658 56 Q580 0 429 0 Z M485 538 Q485 573 460.5 589.5 Q436 606 383 606 L281 606 L281 465 L384 465 Q436 465 460.5 482.5 Q485 500 485 538 Z M509 244 Q509 281 482.5 298.5 Q456 316 397 316 L281 316 L281 168 L401 168 Q456 168 482.5 186.5 Q509 205 509 244 Z " />
<glyph glyph-name="C" unicode="C" horiz-adv-x="768" d="M407 -15 Q233 -15 132 89.5 Q31 194 31 376 Q31 563 136 676 Q241 789 408 789 Q550 789 642.5 710 Q735 631 760 489 L540 449 Q528 525 495.5 561.5 Q463 598 408 598 Q338 598 298.5 541.5 Q259 485 259 383 Q259 287 298.5 231.5 Q338 176 408 176 Q464 176 497.5 210.5 Q531 245 546 318 L763 272 Q736 136 642 60.5 Q548 -15 407 -15 Z " />
<glyph glyph-name="D" unicode="D" horiz-adv-x="796" d="M58 0 L58 774 L343 774 Q546 774 656 674 Q766 574 766 394 Q766 213 654 106.5 Q542 0 346 0 L58 0 Z M538 398 Q538 496 489.5 546.5 Q441 597 347 597 L281 597 L281 177 L346 177 Q441 177 489.5 233 Q538 289 538 398 Z " />
<glyph glyph-name="E" unicode="E" horiz-adv-x="681" d="M58 0 L58 774 L631 774 L631 598 L281 598 L281 479 L606 479 L606 311 L281 311 L281 176 L651 176 L651 0 L58 0 Z " />
<glyph glyph-name="F" unicode="F" horiz-adv-x="648" d="M58 0 L58 774 L621 774 L621 594 L281 594 L281 443 L582 443 L582 271 L281 271 L281 0 L58 0 Z " />
<glyph glyph-name="G" unicode="G" horiz-adv-x="801" d="M592 0 L577 129 L574 129 Q544 60 485 22.5 Q426 -15 346 -15 Q196 -15 113 86 Q30 187 30 363 Q30 559 136.5 674 Q243 789 416 789 Q551 789 640.5 716 Q730 643 762 507 L548 462 Q535 530 501 564 Q467 598 413 598 Q341 598 299 537.5 Q257 477 257 374 Q257 263 299.5 206.5 Q342 150 427 150 Q491 150 527.5 180 Q564 210 564 264 L390 264 L390 408 L760 408 L760 0 L592 0 Z " />
<glyph glyph-name="H" unicode="H" horiz-adv-x="809" d="M58 0 L58 774 L281 774 L281 480 L528 480 L528 774 L751 774 L751 0 L528 0 L528 295 L281 295 L281 0 L58 0 Z " />
<glyph glyph-name="I" unicode="I" horiz-adv-x="343" d="M60 0 L60 774 L283 774 L283 0 L60 0 Z " />
<glyph glyph-name="J" unicode="J" horiz-adv-x="633" d="M584 774 L584 275 Q584 201 566 146 Q548 91 512 56 Q476 21 423.5 3 Q371 -15 303 -15 Q162 -15 91.5 49 Q21 113 21 242 L21 343 L225 383 L225 270 Q225 219 241 196 Q257 173 293 173 Q328 173 344.5 196 Q361 219 361 268 L361 774 L584 774 Z " />
<glyph glyph-name="K" unicode="K" horiz-adv-x="757" d="M758 0 L519 0 L362 340 L281 237 L281 0 L58 0 L58 774 L281 774 L281 457 L505 774 L745 774 L529 473 L758 0 Z " />
<glyph glyph-name="L" unicode="L" horiz-adv-x="662" d="M58 0 L58 774 L281 774 L281 185 L644 185 L644 0 L58 0 Z " />
<glyph glyph-name="M" unicode="M" horiz-adv-x="962" d="M58 0 L58 774 L327 774 L490 263 L657 774 L904 774 L904 0 L708 0 L708 477 L568 0 L393 0 L250 473 L250 0 L58 0 Z " />
<glyph glyph-name="N" unicode="N" horiz-adv-x="808" d="M554 774 L749 774 L749 0 L534 0 L253 466 L253 0 L58 0 L58 774 L290 774 L554 328 L554 774 Z " />
<glyph glyph-name="O" unicode="O" horiz-adv-x="807" d="M404 -15 Q233 -15 132 90 Q31 195 31 375 Q31 565 133.5 677 Q236 789 407 789 Q575 789 675 682 Q775 575 775 392 Q775 205 674 95 Q573 -15 404 -15 Z M508 225 Q527 251 537 291.5 Q547 332 547 385 Q547 488 511 543 Q475 598 407 598 Q373 598 345.5 584 Q318 570 298 543 Q279 517 269.5 476.5 Q260 436 260 383 Q260 285 298.5 230.5 Q337 176 406 176 Q439 176 464.5 188.5 Q490 201 508 225 Z " />
<glyph glyph-name="P" unicode="P" horiz-adv-x="718" d="M58 0 L58 774 L389 774 Q541 774 622 709.5 Q703 645 703 524 Q703 391 618 319 Q533 247 374 247 L281 247 L281 0 L58 0 Z M476 511 Q476 556 448.5 578.5 Q421 601 365 601 L281 601 L281 412 L367 412 Q422 412 449 436.5 Q476 461 476 511 Z " />
<glyph glyph-name="Q" unicode="Q" horiz-adv-x="806" d="M652 -131 Q585 -131 539 -100.5 Q493 -70 467 -9 Q450 -12 434.5 -13 Q419 -14 404 -14 Q234 -14 132.5 91 Q31 196 31 375 Q31 565 133.5 677 Q236 789 407 789 Q575 789 675 682 Q775 575 775 392 Q775 285 738 201 Q701 117 629 61 Q635 41 646.5 31 Q658 21 676 21 Q695 21 705 34.5 Q715 48 718 79 L838 51 Q827 -40 780 -85.5 Q733 -131 652 -131 Z M547 340 Q548 356 548.5 366 Q549 376 549 385 Q549 488 512.5 543 Q476 598 407 598 Q372 598 343.5 584 Q315 570 296 543 Q277 517 267.5 476.5 Q258 436 258 383 Q258 333 267 293.5 Q276 254 294 226 L296 223 L299 224 Q299 230 299 235.5 Q299 241 299 247 Q299 302 338 339.5 Q377 377 438 377 Q471 377 498 367.5 Q525 358 547 340 Z M396 252 Q377 252 366.5 241.5 Q356 231 356 213 Q356 193 370 182 Q384 171 410 171 Q421 171 431.5 173 Q442 175 450 178 Q445 216 431.5 234 Q418 252 396 252 Z " />
<glyph glyph-name="R" unicode="R" horiz-adv-x="743" d="M429 241 Q420 252 405.5 256.5 Q391 261 364 261 L281 261 L281 0 L58 0 L58 774 L416 774 Q567 774 646 718 Q725 662 725 554 Q725 470 670 413 Q615 356 518 341 L518 338 Q585 323 615.5 290.5 Q646 258 668 178 Q690 97 700 65 Q710 33 722 5 L722 0 L490 0 Q485 11 480.5 28.5 Q476 46 461 138 Q453 190 446.5 209.5 Q440 229 429 241 Z M498 514 Q498 560 469.5 581.5 Q441 603 380 603 L281 603 L281 416 L381 416 Q439 416 468.5 440.5 Q498 465 498 514 Z " />
<glyph glyph-name="S" unicode="S" horiz-adv-x="701" d="M627 395 Q654 369 668 330.5 Q682 292 682 245 Q682 124 594.5 54.5 Q507 -15 356 -15 Q208 -15 117 40.5 Q26 96 -1 204 L206 260 Q219 210 259 184 Q299 158 361 158 Q409 158 435 176 Q461 194 461 228 Q461 252 439 265.5 Q417 279 334 291 Q276 300 244 307 Q212 314 183 323 Q151 333 127 346 Q103 359 85 377 Q56 406 42.5 442.5 Q29 479 29 527 Q29 647 116.5 718 Q204 789 348 789 Q477 789 561 732 Q645 675 676 566 L474 522 Q460 571 429.5 593.5 Q399 616 347 616 Q303 616 277.5 597.5 Q252 579 252 546 Q252 519 276.5 504 Q301 489 377 478 Q451 467 478.5 461 Q506 455 530 448 Q562 439 586 425.5 Q610 412 627 395 Z " />
<glyph glyph-name="T" unicode="T" horiz-adv-x="693" d="M678 774 L678 598 L458 598 L458 0 L235 0 L235 598 L16 598 L16 774 L678 774 Z " />
<glyph glyph-name="U" unicode="U" horiz-adv-x="776" d="M269 774 L269 323 Q269 249 299 215 Q329 181 394 181 Q454 181 481 214.5 Q508 248 508 323 L508 774 L730 774 L730 316 Q730 151 645.5 68 Q561 -15 392 -15 Q217 -15 131.5 62.5 Q46 140 46 300 L46 774 L269 774 Z " />
<glyph glyph-name="V" unicode="V" horiz-adv-x="772" d="M262 0 L1 774 L229 774 L392 209 L543 774 L771 774 L518 0 L262 0 Z " />
<glyph glyph-name="W" unicode="W" horiz-adv-x="1071" d="M194 0 L7 774 L222 774 L325 289 L433 774 L640 774 L760 286 L851 774 L1064 774 L883 0 L658 0 L535 516 L423 0 L194 0 Z " />
<glyph glyph-name="X" unicode="X" horiz-adv-x="766" d="M757 0 L521 0 L380 240 L245 0 L11 0 L246 396 L17 774 L255 774 L395 536 L534 774 L752 774 L522 385 L757 0 Z " />
<glyph glyph-name="Y" unicode="Y" horiz-adv-x="696" d="M498 774 L710 774 L465 286 L465 0 L243 0 L243 293 L-15 774 L221 774 L360 493 L498 774 Z " />
<glyph glyph-name="Z" unicode="Z" horiz-adv-x="676" d="M403 597 L43 597 L43 774 L644 774 L644 591 L290 177 L653 177 L653 0 L31 0 L31 183 L403 597 Z " />
<glyph glyph-name="bracketleft" unicode="&#x5b;" horiz-adv-x="453" d="M57 -231 L57 815 L439 815 L439 671 L261 671 L261 -88 L440 -88 L440 -231 L57 -231 Z " />
<glyph glyph-name="backslash" unicode="&#x5c;" horiz-adv-x="451" d="M157 815 L444 -231 L286 -231 L-1 815 L157 815 Z " />
<glyph glyph-name="bracketright" unicode="&#x5d;" horiz-adv-x="453" d="M397 815 L397 -231 L15 -231 L15 -87 L193 -87 L193 672 L14 672 L14 815 L397 815 Z " />
<glyph glyph-name="asciicircum" unicode="&#x5e;" horiz-adv-x="426" d="M268 774 L408 447 L262 447 L215 584 L164 447 L17 447 L158 774 L268 774 Z " />
<glyph glyph-name="uni005F" unicode="&#x5f;" horiz-adv-x="434" d="M434 -132 L0 -132 L0 -43 L434 -43 L434 -132 Z " />
<glyph glyph-name="grave" unicode="&#x60;" horiz-adv-x="500" d="M305 818 L377 627 L242 627 L123 818 L305 818 Z " />
<glyph glyph-name="a" unicode="a" horiz-adv-x="671" d="M558 -13 Q479 -13 434.5 17 Q390 47 385 103 L382 103 Q356 45 308.5 15 Q261 -15 195 -15 Q115 -15 67.5 28 Q20 71 20 145 Q20 188 37 221.5 Q54 255 87 278 Q114 297 151.5 309 Q189 321 239 327 L311 335 Q350 340 368 353 Q386 366 386 389 Q386 410 371 422 Q356 434 330 434 Q296 434 275.5 414.5 Q255 395 249 357 L52 384 Q79 485 154.5 539.5 Q230 594 342 594 Q465 594 531.5 533 Q598 472 598 356 L598 182 Q598 151 608.5 139 Q619 127 647 127 Q656 127 660 127 Q664 127 668 128 L668 3 Q650 -4 619.5 -8.5 Q589 -13 558 -13 Z M240 179 Q240 154 255.5 140 Q271 126 298 126 Q339 126 363.5 157.5 Q388 189 388 241 L388 258 Q382 255 374.5 252.5 Q367 250 354 247 L302 238 Q270 233 255 218.5 Q240 204 240 179 Z " />
<glyph glyph-name="b" unicode="b" horiz-adv-x="686" d="M444 594 Q543 594 601 513.5 Q659 433 659 291 Q659 148 600 66.5 Q541 -15 442 -15 Q375 -15 331 18.5 Q287 52 264 120 L262 120 L262 0 L51 0 L51 815 L267 815 L267 467 L269 467 Q294 530 338.5 562 Q383 594 444 594 Z M440 291 Q440 354 417 389 Q394 424 353 424 Q311 424 287.5 388.5 Q264 353 264 289 Q264 225 287 190.5 Q310 156 352 156 Q395 156 417.5 190.5 Q440 225 440 291 Z " />
<glyph glyph-name="c" unicode="c" horiz-adv-x="638" d="M336 423 Q293 423 269.5 388.5 Q246 354 246 290 Q246 228 269.5 193 Q293 158 335 158 Q371 158 392 179.5 Q413 201 420 245 L623 215 Q602 106 525.5 45.5 Q449 -15 331 -15 Q189 -15 108 65.5 Q27 146 27 285 Q27 422 112 508 Q197 594 332 594 Q451 594 525 532 Q599 470 620 353 L416 327 Q410 375 390 399 Q370 423 336 423 Z " />
<glyph glyph-name="d" unicode="d" horiz-adv-x="688" d="M247 -14 Q148 -14 87.5 66.5 Q27 147 27 284 Q27 427 91.5 510.5 Q156 594 257 594 Q315 594 355.5 565 Q396 536 419 477 L421 477 L421 815 L637 815 L637 0 L426 0 L426 123 L424 123 Q401 56 356 21 Q311 -14 247 -14 Z M246 289 Q246 225 268.5 190.5 Q291 156 333 156 Q376 156 399 190.5 Q422 225 422 291 Q422 354 399 389 Q376 424 335 424 Q293 424 269.5 388.5 Q246 353 246 289 Z " />
<glyph glyph-name="e" unicode="e" horiz-adv-x="645" d="M335 -15 Q191 -15 109 64.5 Q27 144 27 285 Q27 423 114.5 508.5 Q202 594 336 594 Q423 594 487 559 Q551 524 584 457 Q605 417 615 365.5 Q625 314 624 254 L238 254 Q241 202 269 174.5 Q297 147 346 147 Q386 147 412 164.5 Q438 182 450 218 L630 177 Q600 87 522.5 36 Q445 -15 335 -15 Z M407 397 Q397 418 378.5 429 Q360 440 333 440 Q294 440 269.5 417.5 Q245 395 239 354 L417 354 Q415 368 413 378.5 Q411 389 407 397 Z " />
<glyph glyph-name="f" unicode="f" horiz-adv-x="446" d="M321 0 L105 0 L105 433 L3 433 L3 580 L105 580 L105 607 Q105 713 162.5 769 Q220 825 326 825 Q363 825 398.5 819 Q434 813 458 803 L433 657 Q420 662 406.5 664.5 Q393 667 380 667 Q346 667 331.5 650.5 Q317 634 317 596 L317 580 L438 580 L438 433 L321 433 L321 0 Z " />
<glyph glyph-name="g" unicode="g" horiz-adv-x="642" d="M287 -198 Q136 -198 67 -171.5 Q-2 -145 -2 -87 Q-2 -50 28 -26 Q58 -2 113 5 L113 7 Q71 17 49 41.5 Q27 66 27 100 Q27 142 56 172 Q85 202 139 218 L139 221 Q93 246 68.5 287.5 Q44 329 44 382 Q44 479 115.5 536.5 Q187 594 305 594 Q351 594 391 584 Q431 574 464 554 L519 677 L638 584 L519 505 Q538 480 548 450.5 Q558 421 558 389 Q558 293 489 239.5 Q420 186 299 186 Q268 186 240 190 Q212 194 188 201 Q181 196 177.5 190.5 Q174 185 174 178 Q174 163 190.5 156 Q207 149 244 149 L462 149 Q553 149 600 113.5 Q647 78 647 8 Q647 -94 555.5 -146 Q464 -198 287 -198 Z M239 388 Q239 355 256 335.5 Q273 316 303 316 Q333 316 348.5 335.5 Q364 355 364 391 Q364 425 347 444 Q330 463 301 463 Q273 463 256 442.5 Q239 422 239 388 Z M471 -35 Q471 -22 459.5 -17 Q448 -12 420 -12 L237 -12 Q199 -12 183.5 -19 Q168 -26 168 -42 Q168 -62 199.5 -71 Q231 -80 302 -80 Q388 -80 429.5 -69 Q471 -58 471 -35 Z " />
<glyph glyph-name="h" unicode="h" horiz-adv-x="688" d="M51 0 L51 815 L267 815 L267 470 L269 470 Q299 530 347.5 561.5 Q396 593 456 593 Q547 593 594 534.5 Q641 476 641 361 L641 0 L426 0 L426 296 Q426 360 408 388 Q390 416 351 416 Q309 416 287.5 385 Q266 354 266 294 L266 0 L51 0 Z " />
<glyph glyph-name="i" unicode="i" horiz-adv-x="318" d="M269 646 L49 646 L49 815 L269 815 L269 646 Z M51 0 L51 580 L267 580 L267 0 L51 0 Z " />
<glyph glyph-name="j" unicode="j" horiz-adv-x="318" d="M269 646 L49 646 L49 815 L269 815 L269 646 Z M-38 -187 L-57 -42 Q-44 -44 -33 -45 Q-22 -46 -11 -46 Q23 -46 37 -31.5 Q51 -17 51 17 L51 580 L267 580 L267 16 Q267 -96 217 -147.5 Q167 -199 58 -199 Q33 -199 9 -196 Q-15 -193 -38 -187 Z " />
<glyph glyph-name="k" unicode="k" horiz-adv-x="666" d="M677 0 L443 0 L326 231 L267 161 L267 0 L51 0 L51 815 L267 815 L267 366 L436 580 L668 580 L485 351 L677 0 Z " />
<glyph glyph-name="l" unicode="l" horiz-adv-x="317" d="M51 0 L51 815 L267 815 L267 0 L51 0 Z " />
<glyph glyph-name="m" unicode="m" horiz-adv-x="1028" d="M51 0 L51 580 L262 580 L262 467 L264 467 Q293 528 340.5 560.5 Q388 593 447 593 Q517 593 558.5 556.5 Q600 520 613 447 L617 447 Q643 517 692 555 Q741 593 805 593 Q893 593 937.5 535 Q982 477 982 361 L982 0 L766 0 L766 300 Q766 363 751 389.5 Q736 416 700 416 Q663 416 643.5 384.5 Q624 353 624 292 L624 0 L409 0 L409 300 Q409 362 393.5 389 Q378 416 342 416 Q305 416 285.5 384.5 Q266 353 266 292 L266 0 L51 0 Z " />
<glyph glyph-name="n" unicode="n" horiz-adv-x="688" d="M51 0 L51 580 L262 580 L262 461 L265 461 Q294 525 344 559 Q394 593 456 593 Q547 593 594 534 Q641 475 641 361 L641 0 L426 0 L426 296 Q426 360 408 388 Q390 416 351 416 Q309 416 287.5 385 Q266 354 266 294 L266 0 L51 0 Z " />
<glyph glyph-name="o" unicode="o" horiz-adv-x="672" d="M336 -15 Q193 -15 110 64.5 Q27 144 27 287 Q28 426 115 510.5 Q202 595 338 595 Q475 595 560 513 Q645 431 645 293 Q645 148 561.5 66.5 Q478 -15 336 -15 Z M336 156 Q380 156 403 189.5 Q426 223 426 289 Q426 355 403 389.5 Q380 424 336 424 Q292 424 269 390 Q246 356 246 289 Q246 225 269.5 190.5 Q293 156 336 156 Z " />
<glyph glyph-name="p" unicode="p" horiz-adv-x="686" d="M267 -185 L51 -185 L51 580 L262 580 L262 456 L264 456 Q289 523 335.5 558.5 Q382 594 446 594 Q545 594 602 514 Q659 434 659 292 Q659 150 598.5 67.5 Q538 -15 439 -15 Q379 -15 336.5 13.5 Q294 42 270 99 L267 99 L267 -185 Z M440 291 Q440 354 417 389 Q394 424 353 424 Q311 424 287.5 388.5 Q264 353 264 289 Q264 225 287 190.5 Q310 156 352 156 Q395 156 417.5 190.5 Q440 225 440 291 Z " />
<glyph glyph-name="q" unicode="q" horiz-adv-x="686" d="M27 284 Q27 427 91.5 510.5 Q156 594 259 594 Q318 594 359 565 Q400 536 422 478 L424 478 L424 580 L635 580 L635 -185 L419 -185 L419 107 L417 107 Q392 47 349.5 16.5 Q307 -14 247 -14 Q148 -14 87.5 66.5 Q27 147 27 284 Z M422 291 Q422 354 399 389 Q376 424 335 424 Q293 424 269.5 388.5 Q246 353 246 289 Q246 225 268.5 190.5 Q291 156 333 156 Q376 156 399 190.5 Q422 225 422 291 Z " />
<glyph glyph-name="r" unicode="r" horiz-adv-x="591" d="M432 593 Q504 593 541 542 Q578 491 578 392 Q578 378 576.5 360 Q575 342 572 323 L376 300 Q380 314 382 334 Q384 354 384 372 Q384 409 371 427.5 Q358 446 333 446 Q299 446 282.5 414 Q266 382 266 317 L266 0 L51 0 L51 580 L263 580 L263 472 L266 472 Q292 532 334 562.5 Q376 593 432 593 Z " />
<glyph glyph-name="s" unicode="s" horiz-adv-x="601" d="M312 132 Q345 132 362.5 142.5 Q380 153 380 173 Q380 187 369.5 194 Q359 201 328 205 Q318 207 295 209.5 Q272 212 260 214 Q178 223 136.5 237 Q95 251 71 274 Q49 296 38.5 324.5 Q28 353 28 389 Q28 482 101 537.5 Q174 593 296 593 Q407 593 481 547 Q555 501 576 419 L383 388 Q378 417 355.5 432.5 Q333 448 296 448 Q266 448 249.5 437 Q233 426 233 406 Q233 391 242.5 383.5 Q252 376 279 372 Q290 370 314 367 Q338 364 344 363 Q435 352 478 338.5 Q521 325 546 301 Q566 281 576.5 253 Q587 225 587 189 Q587 96 512 41 Q437 -14 310 -14 Q182 -14 104 30.5 Q26 75 4 160 L209 195 Q216 163 242 147.5 Q268 132 312 132 Z " />
<glyph glyph-name="t" unicode="t" horiz-adv-x="460" d="M385 149 Q397 149 410 150 Q423 151 437 153 L437 9 Q406 -3 370.5 -9 Q335 -15 299 -15 Q193 -15 143 33.5 Q93 82 93 185 L93 433 L-9 433 L-9 580 L99 580 L99 684 L308 760 L308 580 L438 580 L438 433 L308 433 L308 221 Q308 180 324.5 164.5 Q341 149 385 149 Z " />
<glyph glyph-name="u" unicode="u" horiz-adv-x="681" d="M225 -14 Q136 -14 90 43 Q44 100 44 212 L44 580 L259 580 L259 284 Q259 219 276 191 Q293 163 330 163 Q372 163 393.5 194 Q415 225 415 286 L415 580 L630 580 L630 0 L419 0 L419 119 L416 119 Q387 55 337.5 20.5 Q288 -14 225 -14 Z " />
<glyph glyph-name="v" unicode="v" horiz-adv-x="645" d="M422 580 L640 580 L445 0 L203 0 L4 580 L228 580 L328 195 L422 580 Z " />
<glyph glyph-name="w" unicode="w" horiz-adv-x="915" d="M751 0 L535 0 L460 335 L391 0 L171 0 L4 580 L224 580 L291 219 L374 580 L551 580 L637 213 L701 580 L911 580 L751 0 Z " />
<glyph glyph-name="x" unicode="x" horiz-adv-x="657" d="M654 0 L428 0 L322 165 L225 0 L1 0 L188 298 L10 580 L234 580 L333 421 L426 580 L638 580 L461 290 L654 0 Z " />
<glyph glyph-name="y" unicode="y" horiz-adv-x="644" d="M639 580 L459 54 Q412 -83 344.5 -140 Q277 -197 159 -197 Q111 -197 64 -189.5 Q17 -182 -16 -170 L28 -1 Q55 -10 82 -15 Q109 -20 134 -20 Q160 -20 177 -14.5 Q194 -9 207 3 L3 580 L227 580 L328 218 L420 580 L639 580 Z " />
<glyph glyph-name="z" unicode="z" horiz-adv-x="578" d="M302 420 L40 420 L40 580 L547 580 L547 415 L282 159 L558 159 L558 0 L26 0 L26 165 L302 420 Z " />
<glyph glyph-name="braceleft" unicode="&#x7b;" horiz-adv-x="463" d="M387 -77 L456 -77 L456 -231 L324 -231 Q218 -231 174 -190.5 Q130 -150 134 -58 L145 152 Q146 191 132.5 204.5 Q119 218 76 218 L8 218 L8 366 L76 366 Q118 366 132.5 379.5 Q147 393 145 432 L134 644 Q130 733 177 774 Q224 815 331 815 L456 815 L456 661 L387 661 Q354 661 341 647.5 Q328 634 328 600 L328 422 Q328 361 297.5 331 Q267 301 197 293 L197 291 Q267 284 297.5 254 Q328 224 328 162 L328 -24 Q328 -55 340.5 -66 Q353 -77 387 -77 Z " />
<glyph glyph-name="bar" unicode="&#x7c;" horiz-adv-x="263" d="M56 -231 L56 815 L207 815 L207 -231 L56 -231 Z " />
<glyph glyph-name="braceright" unicode="&#x7d;" horiz-adv-x="463" d="M77 664 L8 664 L8 818 L140 818 Q246 818 290 777.5 Q334 737 330 645 L319 435 Q318 396 331.5 382.5 Q345 369 388 369 L456 369 L456 221 L388 221 Q346 221 331.5 207.5 Q317 194 319 155 L330 -57 Q334 -146 287 -187 Q240 -228 133 -228 L8 -228 L8 -74 L77 -74 Q110 -74 123 -60.5 Q136 -47 136 -13 L136 165 Q136 226 166.5 256 Q197 286 267 294 L267 296 Q197 303 166.5 333 Q136 363 136 425 L136 611 Q136 642 123.5 653 Q111 664 77 664 Z " />
<glyph glyph-name="asciitilde" unicode="&#x7e;" horiz-adv-x="493" d="M336 416 Q350 416 355 428 Q360 440 360 471 L360 501 L478 482 L479 434 Q481 341 450 294 Q419 247 355 247 Q326 247 300.5 255.5 Q275 264 245 285 L217 304 Q191 322 181 327 Q171 332 162 332 Q147 332 141.5 320.5 Q136 309 136 281 L136 247 L17 265 L17 314 Q16 407 48 454 Q80 501 145 501 Q171 501 196.5 492 Q222 483 249 465 L273 447 Q300 428 312 422 Q324 416 336 416 Z " />
<glyph glyph-name="exclamdown" unicode="&#xa1;" horiz-adv-x="303" d="M260 38 L260 -194 L43 -194 L43 38 L84 341 L219 341 L260 38 Z M51 580 L251 580 L251 397 L51 397 L51 580 Z " />
<glyph glyph-name="cent" unicode="&#xa2;" horiz-adv-x="638" d="M336 423 Q293 423 269.5 388.5 Q246 354 246 290 Q246 228 269.5 193 Q293 158 335 158 Q371 158 392 179.5 Q413 201 420 245 L623 215 Q607 127 552.5 69.5 Q498 12 413 -6 L413 -152 L252 -152 L252 -8 Q145 13 86 90.5 Q27 168 27 285 Q27 399 88 479.5 Q149 560 252 585 L252 718 L413 718 L413 586 Q497 567 549.5 508 Q602 449 620 353 L416 327 Q410 375 390 399 Q370 423 336 423 Z " />
<glyph glyph-name="sterling" unicode="&#xa3;" horiz-adv-x="742" d="M158 292 L22 292 L22 402 L100 402 Q89 431 83.5 457 Q78 483 78 509 Q78 637 163.5 713 Q249 789 394 789 Q536 789 614.5 711.5 Q693 634 702 484 L471 453 Q470 524 449 557 Q428 590 383 590 Q337 590 313 559.5 Q289 529 289 470 Q289 455 290.5 438.5 Q292 422 295 402 L538 402 L538 292 L321 292 Q327 265 329.5 246 Q332 227 332 210 Q332 209 332 207.5 Q332 206 332 204 Q331 202 331 200.5 Q331 199 331 198 Q375 182 408 176 Q441 170 476 170 Q524 170 542 188 Q560 206 561 253 L562 275 L722 275 Q726 253 728 231 Q730 209 730 191 Q730 94 676.5 41 Q623 -12 528 -12 Q471 -12 419.5 7 Q368 26 301 77 Q278 35 240 12.5 Q202 -10 154 -10 Q91 -10 54.5 22 Q18 54 18 107 Q18 165 59 199.5 Q100 234 171 234 Q178 234 181 234 Q184 234 187 233 Q183 244 176.5 257.5 Q170 271 158 292 Z M158 148 Q138 148 127 139 Q116 130 116 114 Q116 99 125 91 Q134 83 152 83 Q172 83 183.5 97.5 Q195 112 199 141 Q186 145 176.5 146.5 Q167 148 158 148 Z " />
<glyph glyph-name="currency" unicode="&#xa4;" horiz-adv-x="636" d="M196 182 L139 124 L49 216 L109 276 Q97 301 90.5 328 Q84 355 84 384 Q84 412 91 439.5 Q98 467 111 493 L49 554 L139 646 L199 585 Q225 600 255 608 Q285 616 317 616 Q349 616 379 608 Q409 600 437 585 L498 646 L588 554 L523 491 Q535 467 541.5 440 Q548 413 548 384 Q548 356 542 329.5 Q536 303 524 279 L588 216 L498 124 L437 185 Q410 169 379.5 161 Q349 153 315 153 Q283 153 253 160.5 Q223 168 196 182 Z M317 293 Q352 293 372.5 317.5 Q393 342 393 384 Q393 424 372 448.5 Q351 473 317 473 Q282 473 260.5 448.5 Q239 424 239 383 Q239 343 260.5 318 Q282 293 317 293 Z " />
<glyph glyph-name="yen" unicode="&#xa5;" horiz-adv-x="696" d="M243 101 L55 101 L55 227 L243 227 L243 265 L55 265 L55 390 L191 390 L-15 774 L221 774 L360 493 L498 774 L710 774 L517 390 L652 390 L652 265 L465 265 L465 227 L652 227 L652 101 L465 101 L465 0 L243 0 L243 101 Z " />
<glyph glyph-name="brokenbar" unicode="&#xa6;" horiz-adv-x="263" d="M56 350 L56 815 L207 815 L207 350 L56 350 Z M56 -231 L56 251 L207 251 L207 -231 L56 -231 Z " />
<glyph glyph-name="section" unicode="&#xa7;" horiz-adv-x="644" d="M505 162 Q526 142 538 114 Q550 86 550 54 Q550 -33 485.5 -83 Q421 -133 310 -133 Q203 -133 133 -86.5 Q63 -40 44 46 L220 79 Q227 46 250 29 Q273 12 310 12 Q339 12 356 23.5 Q373 35 373 55 Q373 73 362 84.5 Q351 96 322 108 L161 178 Q91 209 61 249 Q31 289 31 347 Q31 394 57 431 Q83 468 132 490 Q111 512 98.5 542 Q86 572 86 602 Q86 691 147.5 740 Q209 789 315 789 Q415 789 481 744 Q547 699 570 614 L399 582 Q392 613 371.5 629.5 Q351 646 319 646 Q292 646 277 634 Q262 622 262 600 Q262 581 273.5 569 Q285 557 311 547 L481 478 Q549 450 580 409.5 Q611 369 611 309 Q611 261 583.5 223 Q556 185 505 162 Z M191 375 Q191 352 206.5 335.5 Q222 319 255 304 L422 231 Q435 241 441 252 Q447 263 447 278 Q447 301 431.5 318.5 Q416 336 385 349 L214 422 Q202 413 196.5 401.5 Q191 390 191 375 Z " />
<glyph glyph-name="dieresis" unicode="&#xa8;" horiz-adv-x="500" d="M221 638 L49 638 L49 794 L221 794 L221 638 Z M450 638 L278 638 L278 794 L450 794 L450 638 Z " />
<glyph glyph-name="copyright" unicode="&#xa9;" horiz-adv-x="844" d="M422 -16 Q248 -16 139 97.5 Q30 211 30 384 Q30 467 59 542 Q88 617 141 672 Q195 728 268.5 757 Q342 786 429 786 Q600 786 707 671.5 Q814 557 814 384 Q814 211 705 97.5 Q596 -16 422 -16 Z M428 707 Q284 707 200.5 619 Q117 531 117 384 Q117 243 202.5 153 Q288 63 424 63 Q562 63 644.5 151.5 Q727 240 727 384 Q727 530 646 618.5 Q565 707 428 707 Z M435 153 Q334 153 275 213.5 Q216 274 216 378 Q216 487 276.5 552.5 Q337 618 433 618 Q515 618 569.5 572 Q624 526 638 444 L513 421 Q506 462 486 483 Q466 504 435 504 Q395 504 372 472 Q349 440 349 383 Q349 330 372 298.5 Q395 267 435 267 Q468 267 487.5 286 Q507 305 516 346 L640 319 Q623 240 569 196.5 Q515 153 435 153 Z " />
<glyph glyph-name="ordfeminine" unicode="&#xaa;" horiz-adv-x="456" d="M380 374 Q327 374 296.5 394 Q266 414 261 452 L258 452 Q240 413 208.5 393 Q177 373 133 373 Q79 373 47 402 Q15 431 15 481 Q15 535 51.5 565 Q88 595 163 603 L211 609 Q237 612 249 620 Q261 628 261 644 Q261 658 251.5 666 Q242 674 225 674 Q204 674 190.5 660.5 Q177 647 174 622 L38 641 Q55 710 106.5 747 Q158 784 235 784 Q319 784 364.5 742 Q410 700 410 622 L410 506 Q410 489 416.5 482 Q423 475 439 475 Q442 475 446 475.5 Q450 476 455 477 L455 386 Q442 381 421 377.5 Q400 374 380 374 Z M168 504 Q168 488 178 479 Q188 470 207 470 Q232 470 247.5 490.5 Q263 511 263 544 L263 556 Q260 554 255 552.5 Q250 551 242 549 L208 543 Q187 539 177.5 529.5 Q168 520 168 504 Z M450 222 L26 222 L26 328 L450 328 L450 222 Z " />
<glyph glyph-name="guillemotleft" unicode="&#xab;" horiz-adv-x="516" d="M131 506 L295 507 L157 294 L297 74 L132 74 L-8 290 L131 506 Z M358 506 L522 507 L384 294 L524 74 L359 74 L219 290 L358 506 Z " />
<glyph glyph-name="logicalnot" unicode="&#xac;" horiz-adv-x="481" d="M319 337 L31 337 L31 461 L451 461 L451 167 L319 167 L319 337 Z " />
<glyph glyph-name="uni00AD" unicode="&#xad;" horiz-adv-x="405" d="M363 262 L41 262 L41 395 L363 395 L363 262 Z " />
<glyph glyph-name="registered" unicode="&#xae;" horiz-adv-x="508" d="M256 376 Q158 376 97 436.5 Q36 497 36 589 Q36 683 96.5 744.5 Q157 806 254 806 Q351 806 411.5 745 Q472 684 472 591 Q472 498 412 437 Q352 376 256 376 Z M254 764 Q174 764 129 717 Q84 670 84 589 Q84 513 131 466 Q178 419 256 419 Q334 419 379.5 466 Q425 513 425 591 Q425 670 379.5 717 Q334 764 254 764 Z M288 529 Q285 548 279.5 554 Q274 560 255 560 L227 560 L227 476 L161 476 L161 718 L273 718 Q322 718 348 700 Q374 682 374 648 Q374 623 355.5 605 Q337 587 306 583 L306 582 Q327 579 337 568.5 Q347 558 354 533 Q359 517 364 500.5 Q369 484 371 478 L371 476 L299 476 Q297 482 295 491 Q293 500 288 529 Z M305 638 Q305 652 295 659 Q285 666 265 666 L227 666 L227 607 L264 607 Q286 607 295.5 614 Q305 621 305 638 Z " />
<glyph glyph-name="overscore" unicode="&#xaf;" horiz-adv-x="500" d="M418 644 L82 644 L82 756 L418 756 L418 644 Z " />
<glyph glyph-name="degree" unicode="&#xb0;" horiz-adv-x="471" d="M235 473 Q167 473 125 516 Q83 559 83 627 Q83 693 126.5 737.5 Q170 782 237 782 Q304 782 346 738.5 Q388 695 388 629 Q388 562 345 517.5 Q302 473 235 473 Z M237 701 Q205 701 185.5 680.5 Q166 660 166 628 Q166 595 185 575 Q204 555 235 555 Q267 555 285.5 575 Q304 595 304 628 Q304 661 286 681 Q268 701 237 701 Z " />
<glyph glyph-name="plusminus" unicode="&#xb1;" horiz-adv-x="560" d="M211 351 L58 351 L58 481 L211 481 L211 643 L349 643 L349 481 L501 481 L501 351 L349 351 L349 196 L211 196 L211 351 Z M501 -1 L58 -1 L58 129 L501 129 L501 -1 Z " />
<glyph glyph-name="uni00B2" unicode="&#xb2;" horiz-adv-x="372" d="M220 714 Q220 731 211 740.5 Q202 750 185 750 Q162 750 150.5 730.5 Q139 711 140 674 L20 693 Q24 772 70 816.5 Q116 861 193 861 Q265 861 307 825.5 Q349 790 349 729 Q349 689 326 655.5 Q303 622 244 580 L216 561 L352 561 L352 463 L22 463 L22 537 L143 621 Q191 655 205.5 673.5 Q220 692 220 714 Z " />
<glyph glyph-name="uni00B3" unicode="&#xb3;" horiz-adv-x="347" d="M207 737 Q207 751 198.5 758.5 Q190 766 173 766 Q154 766 142.5 754 Q131 742 127 717 L20 738 Q35 797 78.5 829.5 Q122 862 186 862 Q251 862 289.5 832.5 Q328 803 328 754 Q328 724 312 702 Q296 680 266 668 L266 666 Q302 654 320 632 Q338 610 338 576 Q338 521 295.5 488 Q253 455 182 455 Q107 455 62 488.5 Q17 522 7 586 L119 609 Q124 580 137 566.5 Q150 553 174 553 Q195 553 205.5 562.5 Q216 572 216 590 Q216 608 203.5 616.5 Q191 625 164 625 L117 625 L117 703 L158 703 Q182 703 194.5 711.5 Q207 720 207 737 Z " />
<glyph glyph-name="acute" unicode="&#xb4;" horiz-adv-x="500" d="M258 627 L123 627 L195 818 L377 818 L258 627 Z " />
<glyph glyph-name="uni00B5" unicode="&#xb5;" horiz-adv-x="718" d="M44 -185 L44 580 L259 580 L259 248 Q259 199 277 176.5 Q295 154 335 154 Q377 154 398 188.5 Q419 223 419 292 L419 580 L634 580 L634 182 Q634 151 644.5 139 Q655 127 683 127 Q693 127 697 127 Q701 127 704 128 L704 3 Q686 -4 655.5 -8.5 Q625 -13 594 -13 Q514 -13 470.5 18 Q427 49 423 109 L420 109 Q401 51 363 19.5 Q325 -12 273 -12 Q265 -12 261 -12 Q257 -12 254 -11 L254 -185 L44 -185 Z " />
<glyph glyph-name="paragraph" unicode="&#xb6;" horiz-adv-x="607" d="M392 -130 L300 -130 L300 358 L291 358 Q170 358 105.5 412.5 Q41 467 41 569 Q41 669 106.5 721.5 Q172 774 297 774 L547 774 L547 -130 L454 -130 L454 704 L392 704 L392 -130 Z " />
<glyph glyph-name="middot" unicode="&#xb7;" horiz-adv-x="259" d="M229 238 L30 238 L30 420 L229 420 L229 238 Z " />
<glyph glyph-name="cedilla" unicode="&#xb8;" horiz-adv-x="500" d="M243 -142 Q269 -142 281.5 -135 Q294 -128 294 -114 Q294 -102 287 -96.5 Q280 -91 265 -91 Q254 -91 245.5 -95 Q237 -99 233 -107 L178 -97 L212 15 L297 15 L279 -46 Q285 -44 291 -43.5 Q297 -43 304 -43 Q345 -43 370 -66.5 Q395 -90 395 -130 Q395 -178 357.5 -207.5 Q320 -237 254 -237 Q210 -237 170.5 -229.5 Q131 -222 105 -209 L137 -120 Q162 -130 190.5 -136 Q219 -142 243 -142 Z " />
<glyph glyph-name="uni00B9" unicode="&#xb9;" horiz-adv-x="246" d="M6 719 L6 810 L76 810 Q98 810 105 815.5 Q112 821 113 840 L114 854 L214 854 L214 463 L87 463 L87 719 L6 719 Z " />
<glyph glyph-name="ordmasculine" unicode="&#xba;" horiz-adv-x="455" d="M227 373 Q130 373 73.5 426.5 Q17 480 18 576 Q18 670 77 727.5 Q136 785 229 785 Q322 785 379.5 729.5 Q437 674 437 580 Q437 482 380.5 427.5 Q324 373 227 373 Z M228 491 Q256 491 270.5 513 Q285 535 285 578 Q285 621 270.5 644 Q256 667 229 667 Q200 667 185.5 644.5 Q171 622 171 578 Q171 536 185.5 513.5 Q200 491 228 491 Z M439 222 L15 222 L15 328 L439 328 L439 222 Z " />
<glyph glyph-name="guillemotright" unicode="&#xbb;" horiz-adv-x="516" d="M157 507 L297 290 L158 74 L-6 74 L133 286 L-8 507 L157 507 Z M384 507 L524 290 L385 74 L221 74 L360 286 L219 507 L384 507 Z " />
<glyph glyph-name="onequarter" unicode="&#xbc;" horiz-adv-x="764" d="M574 774 L722 774 L168 0 L11 0 L574 774 Z M15 639 L15 730 L85 730 Q107 730 114 735.5 Q121 741 122 760 L123 774 L223 774 L223 383 L96 383 L96 639 L15 639 Z M757 163 L757 68 L702 68 L702 0 L574 0 L574 68 L409 68 L409 167 L583 391 L702 391 L702 163 L757 163 Z M584 275 L503 163 L584 163 L584 275 Z " />
<glyph glyph-name="onehalf" unicode="&#xbd;" horiz-adv-x="799" d="M574 774 L722 774 L168 0 L11 0 L574 774 Z M15 639 L15 730 L85 730 Q107 730 114 735.5 Q121 741 122 760 L123 774 L223 774 L223 383 L96 383 L96 639 L15 639 Z M647 251 Q647 268 638 277.5 Q629 287 612 287 Q589 287 577.5 267.5 Q566 248 567 211 L447 230 Q451 309 497 353.5 Q543 398 620 398 Q692 398 734 362.5 Q776 327 776 266 Q776 226 753 192.5 Q730 159 671 117 L643 98 L779 98 L779 0 L449 0 L449 74 L570 158 Q618 192 632.5 210.5 Q647 229 647 251 Z " />
<glyph glyph-name="threequarters" unicode="&#xbe;" horiz-adv-x="842" d="M652 774 L800 774 L246 0 L89 0 L652 774 Z M226 657 Q226 671 217.5 678.5 Q209 686 192 686 Q173 686 161.5 674 Q150 662 146 637 L39 658 Q54 717 97.5 749.5 Q141 782 205 782 Q270 782 308.5 752.5 Q347 723 347 674 Q347 644 331 622 Q315 600 285 588 L285 586 Q321 574 339 552 Q357 530 357 496 Q357 441 314.5 408 Q272 375 201 375 Q126 375 81 408.5 Q36 442 26 506 L138 529 Q143 500 156 486.5 Q169 473 193 473 Q214 473 224.5 482.5 Q235 492 235 510 Q235 528 222.5 536.5 Q210 545 183 545 L136 545 L136 623 L177 623 Q201 623 213.5 631.5 Q226 640 226 657 Z M835 163 L835 68 L780 68 L780 0 L652 0 L652 68 L487 68 L487 167 L661 391 L780 391 L780 163 L835 163 Z M662 275 L581 163 L662 163 L662 275 Z " />
<glyph glyph-name="questiondown" unicode="&#xbf;" horiz-adv-x="623" d="M318 -25 Q362 -25 386 6 Q410 37 416 101 L632 66 Q612 -66 525 -137.5 Q438 -209 300 -209 Q169 -209 87.5 -145.5 Q6 -82 6 21 Q6 80 32 126 Q58 172 123 221 Q138 232 160 247 Q182 262 188 266 Q211 283 218.5 296.5 Q226 310 226 331 L226 340 L420 340 L420 315 Q420 273 404.5 241.5 Q389 210 331 161 Q275 110 261.5 87.5 Q248 65 248 41 Q248 10 266.5 -7.5 Q285 -25 318 -25 Z M223 580 L423 580 L423 397 L223 397 L223 580 Z " />
<glyph glyph-name="Agrave" unicode="&#xc0;" horiz-adv-x="783" d="M229 0 L6 0 L257 774 L518 774 L777 0 L545 0 L509 128 L264 128 L229 0 Z M384 571 L305 280 L466 280 L384 571 Z M416 981 L468 823 L312 823 L234 981 L416 981 Z " />
<glyph glyph-name="Aacute" unicode="&#xc1;" horiz-adv-x="783" d="M229 0 L6 0 L257 774 L518 774 L777 0 L545 0 L509 128 L264 128 L229 0 Z M384 571 L305 280 L466 280 L384 571 Z M467 823 L311 823 L363 981 L545 981 L467 823 Z " />
<glyph glyph-name="Acircumflex" unicode="&#xc2;" horiz-adv-x="783" d="M229 0 L6 0 L257 774 L518 774 L777 0 L545 0 L509 128 L264 128 L229 0 Z M384 571 L305 280 L466 280 L384 571 Z M323 820 L189 820 L331 979 L448 979 L591 820 L457 820 L388 875 L323 820 Z " />
<glyph glyph-name="Atilde" unicode="&#xc3;" horiz-adv-x="783" d="M229 0 L6 0 L257 774 L518 774 L777 0 L545 0 L509 128 L264 128 L229 0 Z M384 571 L305 280 L466 280 L384 571 Z M306 994 Q328 994 350 987.5 Q372 981 410 962 Q436 950 447.5 946 Q459 942 468 942 Q485 942 492 954 Q499 966 498 995 L594 984 Q599 904 571 860 Q543 816 487 816 Q468 816 446.5 822 Q425 828 386 847 Q358 860 345.5 864 Q333 868 323 868 Q305 868 296.5 855 Q288 842 289 815 L188 825 Q184 904 215.5 949 Q247 994 306 994 Z " />
<glyph glyph-name="Adieresis" unicode="&#xc4;" horiz-adv-x="783" d="M229 0 L6 0 L257 774 L518 774 L777 0 L545 0 L509 128 L264 128 L229 0 Z M384 571 L305 280 L466 280 L384 571 Z M359 820 L187 820 L187 976 L359 976 L359 820 Z M592 820 L421 820 L421 976 L592 976 L592 820 Z " />
<glyph glyph-name="Aring" unicode="&#xc5;" horiz-adv-x="783" d="M229 0 L6 0 L257 774 L518 774 L777 0 L545 0 L509 128 L264 128 L229 0 Z M384 571 L305 280 L466 280 L384 571 Z M513 935 Q513 878 479.5 844 Q446 810 389 810 Q334 810 300.5 844 Q267 878 267 934 Q267 989 302 1024.5 Q337 1060 392 1060 Q446 1060 479.5 1025.5 Q513 991 513 935 Z M339 934 Q339 907 353 891.5 Q367 876 391 876 Q416 876 429 891 Q442 906 442 934 Q442 963 429 979 Q416 995 392 995 Q368 995 353.5 978.5 Q339 962 339 934 Z " />
<glyph glyph-name="AE" unicode="&#xc6;" horiz-adv-x="1089" d="M736 176 L1059 176 L1059 0 L538 0 L521 128 L284 128 L231 0 L-1 0 L370 774 L1039 774 L1039 598 L680 598 L696 479 L1015 479 L1015 311 L718 311 L736 176 Z M464 560 L347 280 L501 280 L464 560 Z " />
<glyph glyph-name="Ccedilla" unicode="&#xc7;" horiz-adv-x="768" d="M31 376 Q31 563 136 676 Q241 789 408 789 Q550 789 642.5 710 Q735 631 760 489 L540 449 Q528 525 495.5 561.5 Q463 598 408 598 Q338 598 298.5 541.5 Q259 485 259 383 Q259 287 298.5 231.5 Q338 176 408 176 Q464 176 497.5 210.5 Q531 245 546 318 L763 272 Q737 144 651.5 68.5 Q566 -7 436 -14 L426 -46 Q432 -44 438 -43.5 Q444 -43 451 -43 Q492 -43 517 -66.5 Q542 -90 542 -130 Q542 -178 504.5 -207.5 Q467 -237 401 -237 Q357 -237 317.5 -229.5 Q278 -222 252 -209 L284 -120 Q309 -130 337.5 -136 Q366 -142 390 -142 Q416 -142 428.5 -135 Q441 -128 441 -114 Q441 -102 434 -96.5 Q427 -91 412 -91 Q401 -91 392.5 -95 Q384 -99 380 -107 L325 -97 L351 -12 Q201 5 116 107.5 Q31 210 31 376 Z " />
<glyph glyph-name="Egrave" unicode="&#xc8;" horiz-adv-x="681" d="M58 0 L58 774 L631 774 L631 598 L281 598 L281 479 L606 479 L606 311 L281 311 L281 176 L651 176 L651 0 L58 0 Z M382 981 L434 823 L278 823 L200 981 L382 981 Z " />
<glyph glyph-name="Eacute" unicode="&#xc9;" horiz-adv-x="681" d="M58 0 L58 774 L631 774 L631 598 L281 598 L281 479 L606 479 L606 311 L281 311 L281 176 L651 176 L651 0 L58 0 Z M434 823 L278 823 L330 981 L512 981 L434 823 Z " />
<glyph glyph-name="Ecircumflex" unicode="&#xca;" horiz-adv-x="681" d="M58 0 L58 774 L631 774 L631 598 L281 598 L281 479 L606 479 L606 311 L281 311 L281 176 L651 176 L651 0 L58 0 Z M289 820 L155 820 L297 979 L414 979 L557 820 L423 820 L354 875 L289 820 Z " />
<glyph glyph-name="Edieresis" unicode="&#xcb;" horiz-adv-x="681" d="M58 0 L58 774 L631 774 L631 598 L281 598 L281 479 L606 479 L606 311 L281 311 L281 176 L651 176 L651 0 L58 0 Z M325 820 L153 820 L153 976 L325 976 L325 820 Z M558 820 L387 820 L387 976 L558 976 L558 820 Z " />
<glyph glyph-name="Igrave" unicode="&#xcc;" horiz-adv-x="343" d="M60 0 L60 774 L283 774 L283 0 L60 0 Z M198 981 L250 823 L94 823 L16 981 L198 981 Z " />
<glyph glyph-name="Iacute" unicode="&#xcd;" horiz-adv-x="343" d="M60 0 L60 774 L283 774 L283 0 L60 0 Z M250 823 L94 823 L146 981 L328 981 L250 823 Z " />
<glyph glyph-name="Icircumflex" unicode="&#xce;" horiz-adv-x="343" d="M60 0 L60 774 L283 774 L283 0 L60 0 Z M105 820 L-29 820 L113 979 L230 979 L373 820 L239 820 L170 875 L105 820 Z " />
<glyph glyph-name="Idieresis" unicode="&#xcf;" horiz-adv-x="343" d="M60 0 L60 774 L283 774 L283 0 L60 0 Z M141 820 L-31 820 L-31 976 L141 976 L141 820 Z M374 820 L203 820 L203 976 L374 976 L374 820 Z " />
<glyph glyph-name="Eth" unicode="&#xd0;" horiz-adv-x="806" d="M68 325 L-10 325 L-10 459 L68 459 L68 774 L353 774 Q556 774 666 674 Q776 574 776 394 Q776 213 664 106.5 Q552 0 356 0 L68 0 L68 325 Z M548 398 Q548 496 499.5 546.5 Q451 597 357 597 L291 597 L291 459 L417 459 L417 325 L291 325 L291 177 L356 177 Q451 177 499.5 233 Q548 289 548 398 Z " />
<glyph glyph-name="Ntilde" unicode="&#xd1;" horiz-adv-x="808" d="M554 774 L749 774 L749 0 L534 0 L253 466 L253 0 L58 0 L58 774 L290 774 L554 328 L554 774 Z M329 992 Q351 992 373 985.5 Q395 979 433 960 Q459 948 470.5 944 Q482 940 491 940 Q508 940 515 952 Q522 964 521 993 L617 982 Q622 902 594 858 Q566 814 510 814 Q491 814 469.5 820 Q448 826 409 845 Q381 858 368.5 862 Q356 866 346 866 Q328 866 319.5 853 Q311 840 312 813 L211 823 Q207 902 238.5 947 Q270 992 329 992 Z " />
<glyph glyph-name="Ograve" unicode="&#xd2;" horiz-adv-x="807" d="M404 -15 Q233 -15 132 90 Q31 195 31 375 Q31 565 133.5 677 Q236 789 407 789 Q575 789 675 682 Q775 575 775 392 Q775 205 674 95 Q573 -15 404 -15 Z M508 225 Q527 251 537 291.5 Q547 332 547 385 Q547 488 511 543 Q475 598 407 598 Q373 598 345.5 584 Q318 570 298 543 Q279 517 269.5 476.5 Q260 436 260 383 Q260 285 298.5 230.5 Q337 176 406 176 Q439 176 464.5 188.5 Q490 201 508 225 Z M434 981 L486 823 L330 823 L252 981 L434 981 Z " />
<glyph glyph-name="Oacute" unicode="&#xd3;" horiz-adv-x="807" d="M404 -15 Q233 -15 132 90 Q31 195 31 375 Q31 565 133.5 677 Q236 789 407 789 Q575 789 675 682 Q775 575 775 392 Q775 205 674 95 Q573 -15 404 -15 Z M508 225 Q527 251 537 291.5 Q547 332 547 385 Q547 488 511 543 Q475 598 407 598 Q373 598 345.5 584 Q318 570 298 543 Q279 517 269.5 476.5 Q260 436 260 383 Q260 285 298.5 230.5 Q337 176 406 176 Q439 176 464.5 188.5 Q490 201 508 225 Z M485 823 L329 823 L381 981 L563 981 L485 823 Z " />
<glyph glyph-name="Ocircumflex" unicode="&#xd4;" horiz-adv-x="807" d="M404 -15 Q233 -15 132 90 Q31 195 31 375 Q31 565 133.5 677 Q236 789 407 789 Q575 789 675 682 Q775 575 775 392 Q775 205 674 95 Q573 -15 404 -15 Z M508 225 Q527 251 537 291.5 Q547 332 547 385 Q547 488 511 543 Q475 598 407 598 Q373 598 345.5 584 Q318 570 298 543 Q279 517 269.5 476.5 Q260 436 260 383 Q260 285 298.5 230.5 Q337 176 406 176 Q439 176 464.5 188.5 Q490 201 508 225 Z M341 820 L207 820 L349 979 L466 979 L609 820 L475 820 L406 875 L341 820 Z " />
<glyph glyph-name="Otilde" unicode="&#xd5;" horiz-adv-x="807" d="M404 -15 Q233 -15 132 90 Q31 195 31 375 Q31 565 133.5 677 Q236 789 407 789 Q575 789 675 682 Q775 575 775 392 Q775 205 674 95 Q573 -15 404 -15 Z M508 225 Q527 251 537 291.5 Q547 332 547 385 Q547 488 511 543 Q475 598 407 598 Q373 598 345.5 584 Q318 570 298 543 Q279 517 269.5 476.5 Q260 436 260 383 Q260 285 298.5 230.5 Q337 176 406 176 Q439 176 464.5 188.5 Q490 201 508 225 Z M324 994 Q346 994 368 987.5 Q390 981 428 962 Q454 950 465.5 946 Q477 942 486 942 Q503 942 510 954 Q517 966 516 995 L612 984 Q617 904 589 860 Q561 816 505 816 Q486 816 464.5 822 Q443 828 404 847 Q376 860 363.5 864 Q351 868 341 868 Q323 868 314.5 855 Q306 842 307 815 L206 825 Q202 904 233.5 949 Q265 994 324 994 Z " />
<glyph glyph-name="Odieresis" unicode="&#xd6;" horiz-adv-x="807" d="M404 -15 Q233 -15 132 90 Q31 195 31 375 Q31 565 133.5 677 Q236 789 407 789 Q575 789 675 682 Q775 575 775 392 Q775 205 674 95 Q573 -15 404 -15 Z M508 225 Q527 251 537 291.5 Q547 332 547 385 Q547 488 511 543 Q475 598 407 598 Q373 598 345.5 584 Q318 570 298 543 Q279 517 269.5 476.5 Q260 436 260 383 Q260 285 298.5 230.5 Q337 176 406 176 Q439 176 464.5 188.5 Q490 201 508 225 Z M377 820 L205 820 L205 976 L377 976 L377 820 Z M610 820 L439 820 L439 976 L610 976 L610 820 Z " />
<glyph glyph-name="multiply" unicode="&#xd7;" horiz-adv-x="560" d="M147 121 L46 222 L177 357 L46 489 L148 591 L284 454 L412 589 L513 489 L384 353 L513 224 L411 121 L278 255 L147 121 Z " />
<glyph glyph-name="Oslash" unicode="&#xd8;" horiz-adv-x="807" d="M126 -28 L38 56 L101 128 Q66 177 48.5 239.5 Q31 302 31 375 Q31 565 133.5 677 Q236 789 407 789 Q469 789 524.5 772.5 Q580 756 626 724 L682 788 L765 715 L705 645 Q740 595 757.5 531 Q775 467 775 392 Q775 205 674 95 Q573 -15 404 -15 Q343 -15 288.5 0 Q234 15 188 45 L126 -28 Z M296 543 Q277 516 267 475.5 Q257 435 257 383 Q257 358 259.5 337 Q262 316 267 298 L488 571 Q472 585 451.5 591.5 Q431 598 407 598 Q372 598 344 584 Q316 570 296 543 Z M510 225 Q529 251 539 291.5 Q549 332 549 385 Q549 408 547 430 Q545 452 541 472 L325 201 Q341 188 361.5 182 Q382 176 406 176 Q440 176 466.5 188.5 Q493 201 510 225 Z " />
<glyph glyph-name="Ugrave" unicode="&#xd9;" horiz-adv-x="776" d="M269 774 L269 323 Q269 249 299 215 Q329 181 394 181 Q454 181 481 214.5 Q508 248 508 323 L508 774 L730 774 L730 316 Q730 151 645.5 68 Q561 -15 392 -15 Q217 -15 131.5 62.5 Q46 140 46 300 L46 774 L269 774 Z M414 979 L466 821 L310 821 L232 979 L414 979 Z " />
<glyph glyph-name="Uacute" unicode="&#xda;" horiz-adv-x="776" d="M269 774 L269 323 Q269 249 299 215 Q329 181 394 181 Q454 181 481 214.5 Q508 248 508 323 L508 774 L730 774 L730 316 Q730 151 645.5 68 Q561 -15 392 -15 Q217 -15 131.5 62.5 Q46 140 46 300 L46 774 L269 774 Z M466 821 L310 821 L362 979 L544 979 L466 821 Z " />
<glyph glyph-name="Ucircumflex" unicode="&#xdb;" horiz-adv-x="776" d="M269 774 L269 323 Q269 249 299 215 Q329 181 394 181 Q454 181 481 214.5 Q508 248 508 323 L508 774 L730 774 L730 316 Q730 151 645.5 68 Q561 -15 392 -15 Q217 -15 131.5 62.5 Q46 140 46 300 L46 774 L269 774 Z M321 818 L187 818 L329 977 L446 977 L589 818 L455 818 L386 873 L321 818 Z " />
<glyph glyph-name="Udieresis" unicode="&#xdc;" horiz-adv-x="776" d="M269 774 L269 323 Q269 249 299 215 Q329 181 394 181 Q454 181 481 214.5 Q508 248 508 323 L508 774 L730 774 L730 316 Q730 151 645.5 68 Q561 -15 392 -15 Q217 -15 131.5 62.5 Q46 140 46 300 L46 774 L269 774 Z M357 818 L185 818 L185 974 L357 974 L357 818 Z M590 818 L419 818 L419 974 L590 974 L590 818 Z " />
<glyph glyph-name="Yacute" unicode="&#xdd;" horiz-adv-x="696" d="M498 774 L710 774 L465 286 L465 0 L243 0 L243 293 L-15 774 L221 774 L360 493 L498 774 Z M440 823 L284 823 L336 981 L518 981 L440 823 Z " />
<glyph glyph-name="Thorn" unicode="&#xde;" horiz-adv-x="718" d="M58 0 L58 774 L281 774 L281 652 L400 652 Q546 652 624.5 586.5 Q703 521 703 398 Q703 266 623 195.5 Q543 125 392 125 L281 125 L281 0 L58 0 Z M476 390 Q476 436 447.5 458.5 Q419 481 360 481 L281 481 L281 296 L362 296 Q422 296 449 318.5 Q476 341 476 390 Z " />
<glyph glyph-name="germandbls" unicode="&#xdf;" horiz-adv-x="720" d="M436 588 Q436 618 417.5 634 Q399 650 365 650 Q320 650 297 621.5 Q274 593 274 536 L274 0 L53 0 L53 473 Q53 645 136 733 Q219 821 380 821 Q499 821 569.5 769 Q640 717 640 630 Q640 567 605 522 Q570 477 503 456 L503 454 Q599 432 649 377 Q699 322 699 239 Q699 120 632 55.5 Q565 -9 440 -9 Q412 -9 381 -6.5 Q350 -4 320 1 L320 177 Q334 175 348.5 173.5 Q363 172 376 172 Q423 172 448 196.5 Q473 221 473 267 Q473 312 441.5 334 Q410 356 344 356 L327 356 L327 513 L341 513 Q389 513 412.5 531.5 Q436 550 436 588 Z " />
<glyph glyph-name="agrave" unicode="&#xe0;" horiz-adv-x="671" d="M558 -13 Q479 -13 434.5 17 Q390 47 385 103 L382 103 Q356 45 308.5 15 Q261 -15 195 -15 Q115 -15 67.5 28 Q20 71 20 145 Q20 188 37 221.5 Q54 255 87 278 Q114 297 151.5 309 Q189 321 239 327 L311 335 Q350 340 368 353 Q386 366 386 389 Q386 410 371 422 Q356 434 330 434 Q296 434 275.5 414.5 Q255 395 249 357 L52 384 Q79 485 154.5 539.5 Q230 594 342 594 Q465 594 531.5 533 Q598 472 598 356 L598 182 Q598 151 608.5 139 Q619 127 647 127 Q656 127 660 127 Q664 127 668 128 L668 3 Q650 -4 619.5 -8.5 Q589 -13 558 -13 Z M240 179 Q240 154 255.5 140 Q271 126 298 126 Q339 126 363.5 157.5 Q388 189 388 241 L388 258 Q382 255 374.5 252.5 Q367 250 354 247 L302 238 Q270 233 255 218.5 Q240 204 240 179 Z M341 819 L413 628 L278 628 L159 819 L341 819 Z " />
<glyph glyph-name="aacute" unicode="&#xe1;" horiz-adv-x="671" d="M558 -13 Q479 -13 434.5 17 Q390 47 385 103 L382 103 Q356 45 308.5 15 Q261 -15 195 -15 Q115 -15 67.5 28 Q20 71 20 145 Q20 188 37 221.5 Q54 255 87 278 Q114 297 151.5 309 Q189 321 239 327 L311 335 Q350 340 368 353 Q386 366 386 389 Q386 410 371 422 Q356 434 330 434 Q296 434 275.5 414.5 Q255 395 249 357 L52 384 Q79 485 154.5 539.5 Q230 594 342 594 Q465 594 531.5 533 Q598 472 598 356 L598 182 Q598 151 608.5 139 Q619 127 647 127 Q656 127 660 127 Q664 127 668 128 L668 3 Q650 -4 619.5 -8.5 Q589 -13 558 -13 Z M240 179 Q240 154 255.5 140 Q271 126 298 126 Q339 126 363.5 157.5 Q388 189 388 241 L388 258 Q382 255 374.5 252.5 Q367 250 354 247 L302 238 Q270 233 255 218.5 Q240 204 240 179 Z M413 628 L278 628 L350 819 L532 819 L413 628 Z " />
<glyph glyph-name="acircumflex" unicode="&#xe2;" horiz-adv-x="671" d="M558 -13 Q479 -13 434.5 17 Q390 47 385 103 L382 103 Q356 45 308.5 15 Q261 -15 195 -15 Q115 -15 67.5 28 Q20 71 20 145 Q20 188 37 221.5 Q54 255 87 278 Q114 297 151.5 309 Q189 321 239 327 L311 335 Q350 340 368 353 Q386 366 386 389 Q386 410 371 422 Q356 434 330 434 Q296 434 275.5 414.5 Q255 395 249 357 L52 384 Q79 485 154.5 539.5 Q230 594 342 594 Q465 594 531.5 533 Q598 472 598 356 L598 182 Q598 151 608.5 139 Q619 127 647 127 Q656 127 660 127 Q664 127 668 128 L668 3 Q650 -4 619.5 -8.5 Q589 -13 558 -13 Z M240 179 Q240 154 255.5 140 Q271 126 298 126 Q339 126 363.5 157.5 Q388 189 388 241 L388 258 Q382 255 374.5 252.5 Q367 250 354 247 L302 238 Q270 233 255 218.5 Q240 204 240 179 Z M277 628 L151 628 L285 819 L403 819 L539 628 L412 628 L342 702 L277 628 Z " />
<glyph glyph-name="atilde" unicode="&#xe3;" horiz-adv-x="671" d="M558 -13 Q479 -13 434.5 17 Q390 47 385 103 L382 103 Q356 45 308.5 15 Q261 -15 195 -15 Q115 -15 67.5 28 Q20 71 20 145 Q20 188 37 221.5 Q54 255 87 278 Q114 297 151.5 309 Q189 321 239 327 L311 335 Q350 340 368 353 Q386 366 386 389 Q386 410 371 422 Q356 434 330 434 Q296 434 275.5 414.5 Q255 395 249 357 L52 384 Q79 485 154.5 539.5 Q230 594 342 594 Q465 594 531.5 533 Q598 472 598 356 L598 182 Q598 151 608.5 139 Q619 127 647 127 Q656 127 660 127 Q664 127 668 128 L668 3 Q650 -4 619.5 -8.5 Q589 -13 558 -13 Z M240 179 Q240 154 255.5 140 Q271 126 298 126 Q339 126 363.5 157.5 Q388 189 388 241 L388 258 Q382 255 374.5 252.5 Q367 250 354 247 L302 238 Q270 233 255 218.5 Q240 204 240 179 Z M260 812 Q282 812 304 805.5 Q326 799 364 779 Q390 766 401.5 762 Q413 758 422 758 Q439 758 446 770.5 Q453 783 452 813 L548 803 Q553 722 525 677 Q497 632 441 632 Q422 632 400.5 638.5 Q379 645 340 664 Q312 678 299.5 682 Q287 686 277 686 Q259 686 250.5 673 Q242 660 243 631 L142 641 Q138 721 169.5 766.5 Q201 812 260 812 Z " />
<glyph glyph-name="adieresis" unicode="&#xe4;" horiz-adv-x="671" d="M558 -13 Q479 -13 434.5 17 Q390 47 385 103 L382 103 Q356 45 308.5 15 Q261 -15 195 -15 Q115 -15 67.5 28 Q20 71 20 145 Q20 188 37 221.5 Q54 255 87 278 Q114 297 151.5 309 Q189 321 239 327 L311 335 Q350 340 368 353 Q386 366 386 389 Q386 410 371 422 Q356 434 330 434 Q296 434 275.5 414.5 Q255 395 249 357 L52 384 Q79 485 154.5 539.5 Q230 594 342 594 Q465 594 531.5 533 Q598 472 598 356 L598 182 Q598 151 608.5 139 Q619 127 647 127 Q656 127 660 127 Q664 127 668 128 L668 3 Q650 -4 619.5 -8.5 Q589 -13 558 -13 Z M240 179 Q240 154 255.5 140 Q271 126 298 126 Q339 126 363.5 157.5 Q388 189 388 241 L388 258 Q382 255 374.5 252.5 Q367 250 354 247 L302 238 Q270 233 255 218.5 Q240 204 240 179 Z M316 639 L144 639 L144 795 L316 795 L316 639 Z M545 639 L373 639 L373 795 L545 795 L545 639 Z " />
<glyph glyph-name="aring" unicode="&#xe5;" horiz-adv-x="671" d="M558 -13 Q479 -13 434.5 17 Q390 47 385 103 L382 103 Q356 45 308.5 15 Q261 -15 195 -15 Q115 -15 67.5 28 Q20 71 20 145 Q20 188 37 221.5 Q54 255 87 278 Q114 297 151.5 309 Q189 321 239 327 L311 335 Q350 340 368 353 Q386 366 386 389 Q386 410 371 422 Q356 434 330 434 Q296 434 275.5 414.5 Q255 395 249 357 L52 384 Q79 485 154.5 539.5 Q230 594 342 594 Q465 594 531.5 533 Q598 472 598 356 L598 182 Q598 151 608.5 139 Q619 127 647 127 Q656 127 660 127 Q664 127 668 128 L668 3 Q650 -4 619.5 -8.5 Q589 -13 558 -13 Z M240 179 Q240 154 255.5 140 Q271 126 298 126 Q339 126 363.5 157.5 Q388 189 388 241 L388 258 Q382 255 374.5 252.5 Q367 250 354 247 L302 238 Q270 233 255 218.5 Q240 204 240 179 Z M477 766 Q477 706 440.5 669 Q404 632 346 632 Q285 632 249 668 Q213 704 213 765 Q213 825 250.5 862.5 Q288 900 347 900 Q404 900 440.5 862.5 Q477 825 477 766 Z M294 765 Q294 738 308.5 721.5 Q323 705 346 705 Q370 705 383.5 721 Q397 737 397 765 Q397 794 383.5 810.5 Q370 827 347 827 Q323 827 308.5 810 Q294 793 294 765 Z " />
<glyph glyph-name="ae" unicode="&#xe6;" horiz-adv-x="1001" d="M702 147 Q742 147 767.5 165 Q793 183 805 218 L985 177 Q956 86 881 35.5 Q806 -15 697 -15 Q608 -15 542 17 Q476 49 444 108 L442 108 Q407 49 348.5 17 Q290 -15 217 -15 Q124 -15 72 27 Q20 69 20 145 Q20 188 37 221.5 Q54 255 87 278 Q114 297 151.5 309 Q189 321 239 327 L311 335 Q350 340 368 353 Q386 366 386 389 Q386 410 371 422 Q356 434 330 434 Q296 434 275.5 414.5 Q255 395 249 357 L52 384 Q79 485 149.5 539.5 Q220 594 323 594 Q383 594 428.5 574.5 Q474 555 505 515 Q539 553 591 573.5 Q643 594 705 594 Q781 594 839.5 562.5 Q898 531 932 470 Q956 429 968 374.5 Q980 320 979 254 L593 254 Q596 203 624.5 175 Q653 147 702 147 Z M762 396 Q752 417 732.5 428.5 Q713 440 686 440 Q648 440 624 417.5 Q600 395 594 354 L772 354 Q771 366 769 376 Q767 386 762 396 Z M240 179 Q240 154 255.5 140 Q271 126 298 126 Q339 126 363.5 157.5 Q388 189 388 241 L388 258 Q382 255 374.5 252.5 Q367 250 354 247 L302 238 Q270 233 255 218.5 Q240 204 240 179 Z " />
<glyph glyph-name="ccedilla" unicode="&#xe7;" horiz-adv-x="638" d="M319 -142 Q345 -142 357.5 -135 Q370 -128 370 -114 Q370 -102 363 -96.5 Q356 -91 341 -91 Q330 -91 321.5 -95 Q313 -99 309 -107 L254 -97 L280 -12 Q160 3 93.5 81.5 Q27 160 27 285 Q27 422 112 508 Q197 594 332 594 Q451 594 525 532 Q599 470 620 353 L416 327 Q410 375 390 399 Q370 423 336 423 Q293 423 269.5 388.5 Q246 354 246 290 Q246 228 269.5 193 Q293 158 335 158 Q371 158 392 179.5 Q413 201 420 245 L623 215 Q604 114 537 54.5 Q470 -5 365 -14 L355 -46 Q361 -44 367 -43.5 Q373 -43 380 -43 Q421 -43 446 -66.5 Q471 -90 471 -130 Q471 -178 433.5 -207.5 Q396 -237 330 -237 Q286 -237 246.5 -229.5 Q207 -222 181 -209 L213 -120 Q238 -130 266.5 -136 Q295 -142 319 -142 Z " />
<glyph glyph-name="egrave" unicode="&#xe8;" horiz-adv-x="645" d="M335 -15 Q191 -15 109 64.5 Q27 144 27 285 Q27 423 114.5 508.5 Q202 594 336 594 Q423 594 487 559 Q551 524 584 457 Q605 417 615 365.5 Q625 314 624 254 L238 254 Q241 202 269 174.5 Q297 147 346 147 Q386 147 412 164.5 Q438 182 450 218 L630 177 Q600 87 522.5 36 Q445 -15 335 -15 Z M407 397 Q397 418 378.5 429 Q360 440 333 440 Q294 440 269.5 417.5 Q245 395 239 354 L417 354 Q415 368 413 378.5 Q411 389 407 397 Z M333 819 L405 628 L270 628 L151 819 L333 819 Z " />
<glyph glyph-name="eacute" unicode="&#xe9;" horiz-adv-x="645" d="M335 -15 Q191 -15 109 64.5 Q27 144 27 285 Q27 423 114.5 508.5 Q202 594 336 594 Q423 594 487 559 Q551 524 584 457 Q605 417 615 365.5 Q625 314 624 254 L238 254 Q241 202 269 174.5 Q297 147 346 147 Q386 147 412 164.5 Q438 182 450 218 L630 177 Q600 87 522.5 36 Q445 -15 335 -15 Z M407 397 Q397 418 378.5 429 Q360 440 333 440 Q294 440 269.5 417.5 Q245 395 239 354 L417 354 Q415 368 413 378.5 Q411 389 407 397 Z M405 628 L270 628 L342 819 L524 819 L405 628 Z " />
<glyph glyph-name="ecircumflex" unicode="&#xea;" horiz-adv-x="645" d="M335 -15 Q191 -15 109 64.5 Q27 144 27 285 Q27 423 114.5 508.5 Q202 594 336 594 Q423 594 487 559 Q551 524 584 457 Q605 417 615 365.5 Q625 314 624 254 L238 254 Q241 202 269 174.5 Q297 147 346 147 Q386 147 412 164.5 Q438 182 450 218 L630 177 Q600 87 522.5 36 Q445 -15 335 -15 Z M407 397 Q397 418 378.5 429 Q360 440 333 440 Q294 440 269.5 417.5 Q245 395 239 354 L417 354 Q415 368 413 378.5 Q411 389 407 397 Z M269 628 L143 628 L277 819 L395 819 L531 628 L404 628 L334 702 L269 628 Z " />
<glyph glyph-name="edieresis" unicode="&#xeb;" horiz-adv-x="645" d="M335 -15 Q191 -15 109 64.5 Q27 144 27 285 Q27 423 114.5 508.5 Q202 594 336 594 Q423 594 487 559 Q551 524 584 457 Q605 417 615 365.5 Q625 314 624 254 L238 254 Q241 202 269 174.5 Q297 147 346 147 Q386 147 412 164.5 Q438 182 450 218 L630 177 Q600 87 522.5 36 Q445 -15 335 -15 Z M407 397 Q397 418 378.5 429 Q360 440 333 440 Q294 440 269.5 417.5 Q245 395 239 354 L417 354 Q415 368 413 378.5 Q411 389 407 397 Z M308 639 L136 639 L136 795 L308 795 L308 639 Z M537 639 L365 639 L365 795 L537 795 L537 639 Z " />
<glyph glyph-name="igrave" unicode="&#xec;" horiz-adv-x="318" d="M51 0 L51 580 L267 580 L267 0 L51 0 Z M155 820 L227 629 L92 629 L-27 820 L155 820 Z " />
<glyph glyph-name="iacute" unicode="&#xed;" horiz-adv-x="318" d="M51 0 L51 580 L267 580 L267 0 L51 0 Z M227 628 L92 628 L164 819 L346 819 L227 628 Z " />
<glyph glyph-name="icircumflex" unicode="&#xee;" horiz-adv-x="318" d="M51 0 L51 580 L267 580 L267 0 L51 0 Z M91 629 L-35 629 L99 820 L217 820 L353 629 L226 629 L156 703 L91 629 Z " />
<glyph glyph-name="idieresis" unicode="&#xef;" horiz-adv-x="318" d="M51 0 L51 580 L267 580 L267 0 L51 0 Z M130 640 L-42 640 L-42 796 L130 796 L130 640 Z M359 640 L187 640 L187 796 L359 796 L359 640 Z " />
<glyph glyph-name="eth" unicode="&#xf0;" horiz-adv-x="670" d="M439 743 L517 793 L580 706 L505 659 L518 643 Q583 560 612.5 483.5 Q642 407 642 319 Q642 252 626.5 198 Q611 144 579 100 Q539 44 473 14.5 Q407 -15 323 -15 Q188 -15 107.5 56.5 Q27 128 27 249 Q27 355 93 423 Q159 491 263 491 Q310 491 349.5 473.5 Q389 456 416 424 L421 424 Q412 451 396 479 Q380 507 346 552 L336 564 L263 513 L202 601 L272 649 L211 728 L372 829 L439 743 Z M336 151 Q378 151 401.5 179 Q425 207 425 256 Q425 308 402 335.5 Q379 363 336 363 Q293 363 269.5 335 Q246 307 246 256 Q246 207 270 179 Q294 151 336 151 Z " />
<glyph glyph-name="ntilde" unicode="&#xf1;" horiz-adv-x="688" d="M51 0 L51 580 L262 580 L262 461 L265 461 Q294 525 344 559 Q394 593 456 593 Q547 593 594 534 Q641 475 641 361 L641 0 L426 0 L426 296 Q426 360 408 388 Q390 416 351 416 Q309 416 287.5 385 Q266 354 266 294 L266 0 L51 0 Z M264 812 Q286 812 308 805.5 Q330 799 368 779 Q394 766 405.5 762 Q417 758 426 758 Q443 758 450 770.5 Q457 783 456 813 L552 803 Q557 722 529 677 Q501 632 445 632 Q426 632 404.5 638.5 Q383 645 344 664 Q316 678 303.5 682 Q291 686 281 686 Q263 686 254.5 673 Q246 660 247 631 L146 641 Q142 721 173.5 766.5 Q205 812 264 812 Z " />
<glyph glyph-name="ograve" unicode="&#xf2;" horiz-adv-x="672" d="M336 -15 Q193 -15 110 64.5 Q27 144 27 287 Q28 426 115 510.5 Q202 595 338 595 Q475 595 560 513 Q645 431 645 293 Q645 148 561.5 66.5 Q478 -15 336 -15 Z M336 156 Q380 156 403 189.5 Q426 223 426 289 Q426 355 403 389.5 Q380 424 336 424 Q292 424 269 390 Q246 356 246 289 Q246 225 269.5 190.5 Q293 156 336 156 Z M331 819 L403 628 L268 628 L149 819 L331 819 Z " />
<glyph glyph-name="oacute" unicode="&#xf3;" horiz-adv-x="672" d="M336 -15 Q193 -15 110 64.5 Q27 144 27 287 Q28 426 115 510.5 Q202 595 338 595 Q475 595 560 513 Q645 431 645 293 Q645 148 561.5 66.5 Q478 -15 336 -15 Z M336 156 Q380 156 403 189.5 Q426 223 426 289 Q426 355 403 389.5 Q380 424 336 424 Q292 424 269 390 Q246 356 246 289 Q246 225 269.5 190.5 Q293 156 336 156 Z M403 628 L268 628 L340 819 L522 819 L403 628 Z " />
<glyph glyph-name="ocircumflex" unicode="&#xf4;" horiz-adv-x="672" d="M336 -15 Q193 -15 110 64.5 Q27 144 27 287 Q28 426 115 510.5 Q202 595 338 595 Q475 595 560 513 Q645 431 645 293 Q645 148 561.5 66.5 Q478 -15 336 -15 Z M336 156 Q380 156 403 189.5 Q426 223 426 289 Q426 355 403 389.5 Q380 424 336 424 Q292 424 269 390 Q246 356 246 289 Q246 225 269.5 190.5 Q293 156 336 156 Z M268 628 L142 628 L276 819 L394 819 L530 628 L403 628 L333 702 L268 628 Z " />
<glyph glyph-name="otilde" unicode="&#xf5;" horiz-adv-x="672" d="M336 -15 Q193 -15 110 64.5 Q27 144 27 287 Q28 426 115 510.5 Q202 595 338 595 Q475 595 560 513 Q645 431 645 293 Q645 148 561.5 66.5 Q478 -15 336 -15 Z M336 156 Q380 156 403 189.5 Q426 223 426 289 Q426 355 403 389.5 Q380 424 336 424 Q292 424 269 390 Q246 356 246 289 Q246 225 269.5 190.5 Q293 156 336 156 Z M251 812 Q273 812 295 805.5 Q317 799 355 779 Q381 766 392.5 762 Q404 758 413 758 Q430 758 437 770.5 Q444 783 443 813 L539 803 Q544 722 516 677 Q488 632 432 632 Q413 632 391.5 638.5 Q370 645 331 664 Q303 678 290.5 682 Q278 686 268 686 Q250 686 241.5 673 Q233 660 234 631 L133 641 Q129 721 160.5 766.5 Q192 812 251 812 Z " />
<glyph glyph-name="odieresis" unicode="&#xf6;" horiz-adv-x="672" d="M336 -15 Q193 -15 110 64.5 Q27 144 27 287 Q28 426 115 510.5 Q202 595 338 595 Q475 595 560 513 Q645 431 645 293 Q645 148 561.5 66.5 Q478 -15 336 -15 Z M336 156 Q380 156 403 189.5 Q426 223 426 289 Q426 355 403 389.5 Q380 424 336 424 Q292 424 269 390 Q246 356 246 289 Q246 225 269.5 190.5 Q293 156 336 156 Z M307 639 L135 639 L135 795 L307 795 L307 639 Z M536 639 L364 639 L364 795 L536 795 L536 639 Z " />
<glyph glyph-name="divide" unicode="&#xf7;" horiz-adv-x="560" d="M352 518 L208 518 L208 660 L352 660 L352 518 Z M501 328 L58 328 L58 457 L501 457 L501 328 Z M352 121 L208 121 L208 263 L352 263 L352 121 Z " />
<glyph glyph-name="oslash" unicode="&#xf8;" horiz-adv-x="672" d="M27 287 Q28 426 115 510.5 Q202 595 338 595 Q388 595 433.5 582.5 Q479 570 517 545 L572 603 L649 531 L592 472 Q618 435 631.5 389.5 Q645 344 645 293 Q645 148 561.5 66.5 Q478 -15 336 -15 Q283 -15 236 -2.5 Q189 10 151 34 L95 -25 L18 47 L76 107 Q52 143 39.5 188 Q27 233 27 287 Z M337 437 Q290 437 266 399.5 Q242 362 242 289 Q242 286 242 283 Q242 280 243 274 Q243 269 243 266 Q243 263 243 261 L393 417 Q382 427 368 432 Q354 437 337 437 Z M336 143 Q382 143 406 180 Q430 217 430 289 Q430 296 429.5 304 Q429 312 428 325 L279 165 Q290 154 304 148.5 Q318 143 336 143 Z " />
<glyph glyph-name="ugrave" unicode="&#xf9;" horiz-adv-x="681" d="M225 -14 Q136 -14 90 43 Q44 100 44 212 L44 580 L259 580 L259 284 Q259 219 276 191 Q293 163 330 163 Q372 163 393.5 194 Q415 225 415 286 L415 580 L630 580 L630 0 L419 0 L419 119 L416 119 Q387 55 337.5 20.5 Q288 -14 225 -14 Z M333 817 L405 626 L270 626 L151 817 L333 817 Z " />
<glyph glyph-name="uacute" unicode="&#xfa;" horiz-adv-x="681" d="M225 -14 Q136 -14 90 43 Q44 100 44 212 L44 580 L259 580 L259 284 Q259 219 276 191 Q293 163 330 163 Q372 163 393.5 194 Q415 225 415 286 L415 580 L630 580 L630 0 L419 0 L419 119 L416 119 Q387 55 337.5 20.5 Q288 -14 225 -14 Z M404 626 L269 626 L341 817 L523 817 L404 626 Z " />
<glyph glyph-name="ucircumflex" unicode="&#xfb;" horiz-adv-x="681" d="M225 -14 Q136 -14 90 43 Q44 100 44 212 L44 580 L259 580 L259 284 Q259 219 276 191 Q293 163 330 163 Q372 163 393.5 194 Q415 225 415 286 L415 580 L630 580 L630 0 L419 0 L419 119 L416 119 Q387 55 337.5 20.5 Q288 -14 225 -14 Z M269 626 L143 626 L277 817 L395 817 L531 626 L404 626 L334 700 L269 626 Z " />
<glyph glyph-name="udieresis" unicode="&#xfc;" horiz-adv-x="681" d="M225 -14 Q136 -14 90 43 Q44 100 44 212 L44 580 L259 580 L259 284 Q259 219 276 191 Q293 163 330 163 Q372 163 393.5 194 Q415 225 415 286 L415 580 L630 580 L630 0 L419 0 L419 119 L416 119 Q387 55 337.5 20.5 Q288 -14 225 -14 Z M308 637 L136 637 L136 793 L308 793 L308 637 Z M537 637 L365 637 L365 793 L537 793 L537 637 Z " />
<glyph glyph-name="yacute" unicode="&#xfd;" horiz-adv-x="644" d="M639 580 L459 54 Q412 -83 344.5 -140 Q277 -197 159 -197 Q111 -197 64 -189.5 Q17 -182 -16 -170 L28 -1 Q55 -10 82 -15 Q109 -20 134 -20 Q160 -20 177 -14.5 Q194 -9 207 3 L3 580 L227 580 L328 218 L420 580 L639 580 Z M388 628 L253 628 L325 819 L507 819 L388 628 Z " />
<glyph glyph-name="thorn" unicode="&#xfe;" horiz-adv-x="686" d="M267 -185 L51 -185 L51 815 L267 815 L267 469 L270 469 Q296 530 341 562 Q386 594 446 594 Q545 594 602 514 Q659 434 659 292 Q659 150 598.5 67.5 Q538 -15 439 -15 Q379 -15 336.5 13.5 Q294 42 270 99 L267 99 L267 -185 Z M352 155 Q395 155 417.5 190 Q440 225 440 291 Q440 355 417 390 Q394 425 353 425 Q311 425 287.5 389.5 Q264 354 264 289 Q264 224 287 189.5 Q310 155 352 155 Z " />
<glyph glyph-name="ydieresis" unicode="&#xff;" horiz-adv-x="644" d="M639 580 L459 54 Q412 -83 344.5 -140 Q277 -197 159 -197 Q111 -197 64 -189.5 Q17 -182 -16 -170 L28 -1 Q55 -10 82 -15 Q109 -20 134 -20 Q160 -20 177 -14.5 Q194 -9 207 3 L3 580 L227 580 L328 218 L420 580 L639 580 Z M292 639 L120 639 L120 795 L292 795 L292 639 Z M521 639 L349 639 L349 795 L521 795 L521 639 Z " />
<glyph glyph-name="Amacron" unicode="&#x100;" horiz-adv-x="783" d="M229 0 L6 0 L257 774 L518 774 L777 0 L545 0 L509 128 L264 128 L229 0 Z M384 571 L305 280 L466 280 L384 571 Z M556 826 L222 826 L222 938 L556 938 L556 826 Z " />
<glyph glyph-name="amacron" unicode="&#x101;" horiz-adv-x="671" d="M558 -13 Q479 -13 434.5 17 Q390 47 385 103 L382 103 Q356 45 308.5 15 Q261 -15 195 -15 Q115 -15 67.5 28 Q20 71 20 145 Q20 188 37 221.5 Q54 255 87 278 Q114 297 151.5 309 Q189 321 239 327 L311 335 Q350 340 368 353 Q386 366 386 389 Q386 410 371 422 Q356 434 330 434 Q296 434 275.5 414.5 Q255 395 249 357 L52 384 Q79 485 154.5 539.5 Q230 594 342 594 Q465 594 531.5 533 Q598 472 598 356 L598 182 Q598 151 608.5 139 Q619 127 647 127 Q656 127 660 127 Q664 127 668 128 L668 3 Q650 -4 619.5 -8.5 Q589 -13 558 -13 Z M240 179 Q240 154 255.5 140 Q271 126 298 126 Q339 126 363.5 157.5 Q388 189 388 241 L388 258 Q382 255 374.5 252.5 Q367 250 354 247 L302 238 Q270 233 255 218.5 Q240 204 240 179 Z M513 645 L177 645 L177 757 L513 757 L513 645 Z " />
<glyph glyph-name="Abreve" unicode="&#x102;" horiz-adv-x="783" d="M229 0 L6 0 L257 774 L518 774 L777 0 L545 0 L509 128 L264 128 L229 0 Z M384 571 L305 280 L466 280 L384 571 Z M577 963 Q577 896 527 856.5 Q477 817 394 817 Q303 817 253 854.5 Q203 892 203 960 Q203 963 203.5 968.5 Q204 974 205 986 L317 986 L317 979 Q317 954 337.5 941 Q358 928 395 928 Q431 928 449.5 941 Q468 954 468 979 L468 986 L575 986 Q576 975 576.5 970.5 Q577 966 577 963 Z " />
<glyph glyph-name="abreve" unicode="&#x103;" horiz-adv-x="671" d="M558 -13 Q479 -13 434.5 17 Q390 47 385 103 L382 103 Q356 45 308.5 15 Q261 -15 195 -15 Q115 -15 67.5 28 Q20 71 20 145 Q20 188 37 221.5 Q54 255 87 278 Q114 297 151.5 309 Q189 321 239 327 L311 335 Q350 340 368 353 Q386 366 386 389 Q386 410 371 422 Q356 434 330 434 Q296 434 275.5 414.5 Q255 395 249 357 L52 384 Q79 485 154.5 539.5 Q230 594 342 594 Q465 594 531.5 533 Q598 472 598 356 L598 182 Q598 151 608.5 139 Q619 127 647 127 Q656 127 660 127 Q664 127 668 128 L668 3 Q650 -4 619.5 -8.5 Q589 -13 558 -13 Z M240 179 Q240 154 255.5 140 Q271 126 298 126 Q339 126 363.5 157.5 Q388 189 388 241 L388 258 Q382 255 374.5 252.5 Q367 250 354 247 L302 238 Q270 233 255 218.5 Q240 204 240 179 Z M532 792 Q532 721 481 677 Q430 633 349 633 Q261 633 209.5 675 Q158 717 158 788 Q158 792 158.5 797.5 Q159 803 160 815 L272 815 L272 804 Q272 775 293 759 Q314 743 350 743 Q385 743 404 758.5 Q423 774 423 803 L423 815 L530 815 Q531 804 531.5 799.5 Q532 795 532 792 Z " />
<glyph glyph-name="Aogonek" unicode="&#x104;" horiz-adv-x="783" d="M229 0 L6 0 L257 774 L518 774 L777 0 L703 0 Q662 -2 638.5 -22 Q615 -42 615 -73 Q615 -97 628 -109.5 Q641 -122 667 -122 Q675 -122 683.5 -121 Q692 -120 703 -118 L703 -215 Q686 -222 662.5 -226 Q639 -230 612 -230 Q540 -230 500 -201.5 Q460 -173 460 -119 Q460 -79 481.5 -49 Q503 -19 545 0 L509 128 L264 128 L229 0 Z M384 571 L305 280 L466 280 L384 571 Z " />
<glyph glyph-name="aogonek" unicode="&#x105;" horiz-adv-x="671" d="M668 -118 L668 -215 Q651 -222 627.5 -226 Q604 -230 577 -230 Q505 -230 465 -201.5 Q425 -173 425 -119 Q425 -79 446.5 -50.5 Q468 -22 510 -6 L510 -4 Q454 1 422 28.5 Q390 56 385 103 L382 103 Q356 46 308.5 16.5 Q261 -13 195 -13 Q115 -13 67.5 29.5 Q20 72 20 145 Q20 188 37 221.5 Q54 255 87 278 Q114 297 151.5 309 Q189 321 239 327 L311 335 Q350 340 368 353 Q386 366 386 389 Q386 410 371 422 Q356 434 330 434 Q296 434 275.5 414.5 Q255 395 249 357 L52 384 Q79 485 154.5 539.5 Q230 594 342 594 Q465 594 531.5 533 Q598 472 598 356 L598 182 Q598 151 608.5 139 Q619 127 647 127 Q656 127 660 127 Q664 127 668 128 L668 3 Q626 -2 603.5 -22.5 Q581 -43 581 -73 Q581 -97 594 -109.5 Q607 -122 632 -122 Q640 -122 648.5 -121 Q657 -120 668 -118 Z M240 179 Q240 154 255.5 140 Q271 126 298 126 Q339 126 363.5 157.5 Q388 189 388 241 L388 258 Q382 255 374.5 252.5 Q367 250 354 247 L302 238 Q270 233 255 218.5 Q240 204 240 179 Z " />
<glyph glyph-name="Cacute" unicode="&#x106;" horiz-adv-x="768" d="M407 -15 Q233 -15 132 89.5 Q31 194 31 376 Q31 563 136 676 Q241 789 408 789 Q550 789 642.5 710 Q735 631 760 489 L540 449 Q528 525 495.5 561.5 Q463 598 408 598 Q338 598 298.5 541.5 Q259 485 259 383 Q259 287 298.5 231.5 Q338 176 408 176 Q464 176 497.5 210.5 Q531 245 546 318 L763 272 Q736 136 642 60.5 Q548 -15 407 -15 Z M496 823 L340 823 L392 981 L574 981 L496 823 Z " />
<glyph glyph-name="cacute" unicode="&#x107;" horiz-adv-x="638" d="M336 423 Q293 423 269.5 388.5 Q246 354 246 290 Q246 228 269.5 193 Q293 158 335 158 Q371 158 392 179.5 Q413 201 420 245 L623 215 Q602 106 525.5 45.5 Q449 -15 331 -15 Q189 -15 108 65.5 Q27 146 27 285 Q27 422 112 508 Q197 594 332 594 Q451 594 525 532 Q599 470 620 353 L416 327 Q410 375 390 399 Q370 423 336 423 Z M402 628 L267 628 L339 819 L521 819 L402 628 Z " />
<glyph glyph-name="Ccircumflex" unicode="&#x108;" horiz-adv-x="768" d="M407 -15 Q233 -15 132 89.5 Q31 194 31 376 Q31 563 136 676 Q241 789 408 789 Q550 789 642.5 710 Q735 631 760 489 L540 449 Q528 525 495.5 561.5 Q463 598 408 598 Q338 598 298.5 541.5 Q259 485 259 383 Q259 287 298.5 231.5 Q338 176 408 176 Q464 176 497.5 210.5 Q531 245 546 318 L763 272 Q736 136 642 60.5 Q548 -15 407 -15 Z M351 820 L217 820 L359 979 L476 979 L619 820 L485 820 L416 875 L351 820 Z " />
<glyph glyph-name="ccircumflex" unicode="&#x109;" horiz-adv-x="638" d="M336 423 Q293 423 269.5 388.5 Q246 354 246 290 Q246 228 269.5 193 Q293 158 335 158 Q371 158 392 179.5 Q413 201 420 245 L623 215 Q602 106 525.5 45.5 Q449 -15 331 -15 Q189 -15 108 65.5 Q27 146 27 285 Q27 422 112 508 Q197 594 332 594 Q451 594 525 532 Q599 470 620 353 L416 327 Q410 375 390 399 Q370 423 336 423 Z M267 628 L141 628 L275 819 L393 819 L529 628 L402 628 L332 702 L267 628 Z " />
<glyph glyph-name="Cdotaccent" unicode="&#x10a;" horiz-adv-x="768" d="M407 -15 Q233 -15 132 89.5 Q31 194 31 376 Q31 563 136 676 Q241 789 408 789 Q550 789 642.5 710 Q735 631 760 489 L540 449 Q528 525 495.5 561.5 Q463 598 408 598 Q338 598 298.5 541.5 Q259 485 259 383 Q259 287 298.5 231.5 Q338 176 408 176 Q464 176 497.5 210.5 Q531 245 546 318 L763 272 Q736 136 642 60.5 Q548 -15 407 -15 Z M524 823 L311 823 L311 979 L524 979 L524 823 Z " />
<glyph glyph-name="cdotaccent" unicode="&#x10b;" horiz-adv-x="638" d="M336 423 Q293 423 269.5 388.5 Q246 354 246 290 Q246 228 269.5 193 Q293 158 335 158 Q371 158 392 179.5 Q413 201 420 245 L623 215 Q602 106 525.5 45.5 Q449 -15 331 -15 Q189 -15 108 65.5 Q27 146 27 285 Q27 422 112 508 Q197 594 332 594 Q451 594 525 532 Q599 470 620 353 L416 327 Q410 375 390 399 Q370 423 336 423 Z M445 646 L225 646 L225 815 L445 815 L445 646 Z " />
<glyph glyph-name="Ccaron" unicode="&#x10c;" horiz-adv-x="768" d="M407 -15 Q233 -15 132 89.5 Q31 194 31 376 Q31 563 136 676 Q241 789 408 789 Q550 789 642.5 710 Q735 631 760 489 L540 449 Q528 525 495.5 561.5 Q463 598 408 598 Q338 598 298.5 541.5 Q259 485 259 383 Q259 287 298.5 231.5 Q338 176 408 176 Q464 176 497.5 210.5 Q531 245 546 318 L763 272 Q736 136 642 60.5 Q548 -15 407 -15 Z M483 979 L617 979 L476 820 L358 820 L215 979 L349 979 L419 924 L483 979 Z " />
<glyph glyph-name="ccaron" unicode="&#x10d;" horiz-adv-x="638" d="M336 423 Q293 423 269.5 388.5 Q246 354 246 290 Q246 228 269.5 193 Q293 158 335 158 Q371 158 392 179.5 Q413 201 420 245 L623 215 Q602 106 525.5 45.5 Q449 -15 331 -15 Q189 -15 108 65.5 Q27 146 27 285 Q27 422 112 508 Q197 594 332 594 Q451 594 525 532 Q599 470 620 353 L416 327 Q410 375 390 399 Q370 423 336 423 Z M402 819 L528 819 L394 628 L276 628 L140 819 L267 819 L337 745 L402 819 Z " />
<glyph glyph-name="Dcaron" unicode="&#x10e;" horiz-adv-x="796" d="M58 0 L58 774 L343 774 Q546 774 656 674 Q766 574 766 394 Q766 213 654 106.5 Q542 0 346 0 L58 0 Z M538 398 Q538 496 489.5 546.5 Q441 597 347 597 L281 597 L281 177 L346 177 Q441 177 489.5 233 Q538 289 538 398 Z M452 979 L586 979 L445 820 L327 820 L184 979 L318 979 L388 924 L452 979 Z " />
<glyph glyph-name="dcaron" unicode="&#x10f;" horiz-adv-x="771" d="M247 -14 Q148 -14 87.5 66.5 Q27 147 27 284 Q27 427 91.5 510.5 Q156 594 257 594 Q315 594 355.5 565 Q396 536 419 477 L421 477 L421 815 L637 815 L637 0 L426 0 L426 123 L424 123 Q401 56 356 21 Q311 -14 247 -14 Z M246 289 Q246 225 268.5 190.5 Q291 156 333 156 Q376 156 399 190.5 Q422 225 422 291 Q422 354 399 389 Q376 424 335 424 Q293 424 269.5 388.5 Q246 353 246 289 Z M840 766 Q840 715 828.5 667 Q817 619 794 568 L674 568 Q681 598 684.5 634.5 Q688 671 688 712 Q688 740 686.5 766.5 Q685 793 682 815 L837 815 Q839 803 839.5 791 Q840 779 840 766 Z " />
<glyph glyph-name="Dcroat" unicode="&#x110;" horiz-adv-x="806" d="M68 325 L-10 325 L-10 459 L68 459 L68 774 L353 774 Q556 774 666 674 Q776 574 776 394 Q776 213 664 106.5 Q552 0 356 0 L68 0 L68 325 Z M548 398 Q548 496 499.5 546.5 Q451 597 357 597 L291 597 L291 459 L417 459 L417 325 L291 325 L291 177 L356 177 Q451 177 499.5 233 Q548 289 548 398 Z " />
<glyph glyph-name="dslash" unicode="&#x111;" horiz-adv-x="688" d="M247 -14 Q148 -14 87.5 66.5 Q27 147 27 284 Q27 427 91.5 510.5 Q156 594 257 594 Q315 594 355.5 565 Q396 536 419 477 L421 477 L421 627 L296 627 L296 737 L421 737 L421 815 L637 815 L637 737 L709 737 L709 627 L637 627 L637 0 L426 0 L426 123 L424 123 Q401 56 356 21 Q311 -14 247 -14 Z M246 289 Q246 225 268.5 190.5 Q291 156 333 156 Q376 156 399 190.5 Q422 225 422 291 Q422 354 399 389 Q376 424 335 424 Q293 424 269.5 388.5 Q246 353 246 289 Z " />
<glyph glyph-name="Emacron" unicode="&#x112;" horiz-adv-x="681" d="M58 0 L58 774 L631 774 L631 598 L281 598 L281 479 L606 479 L606 311 L281 311 L281 176 L651 176 L651 0 L58 0 Z M523 826 L189 826 L189 938 L523 938 L523 826 Z " />
<glyph glyph-name="emacron" unicode="&#x113;" horiz-adv-x="645" d="M335 -15 Q191 -15 109 64.5 Q27 144 27 285 Q27 423 114.5 508.5 Q202 594 336 594 Q423 594 487 559 Q551 524 584 457 Q605 417 615 365.5 Q625 314 624 254 L238 254 Q241 202 269 174.5 Q297 147 346 147 Q386 147 412 164.5 Q438 182 450 218 L630 177 Q600 87 522.5 36 Q445 -15 335 -15 Z M407 397 Q397 418 378.5 429 Q360 440 333 440 Q294 440 269.5 417.5 Q245 395 239 354 L417 354 Q415 368 413 378.5 Q411 389 407 397 Z M505 645 L169 645 L169 757 L505 757 L505 645 Z " />
<glyph glyph-name="Ebreve" unicode="&#x114;" horiz-adv-x="681" d="M58 0 L58 774 L631 774 L631 598 L281 598 L281 479 L606 479 L606 311 L281 311 L281 176 L651 176 L651 0 L58 0 Z M543 963 Q543 896 493 856.5 Q443 817 360 817 Q269 817 219 854.5 Q169 892 169 960 Q169 963 169.5 968.5 Q170 974 171 986 L283 986 L283 979 Q283 954 303.5 941 Q324 928 361 928 Q397 928 415.5 941 Q434 954 434 979 L434 986 L541 986 Q542 975 542.5 970.5 Q543 966 543 963 Z " />
<glyph glyph-name="ebreve" unicode="&#x115;" horiz-adv-x="645" d="M335 -15 Q191 -15 109 64.5 Q27 144 27 285 Q27 423 114.5 508.5 Q202 594 336 594 Q423 594 487 559 Q551 524 584 457 Q605 417 615 365.5 Q625 314 624 254 L238 254 Q241 202 269 174.5 Q297 147 346 147 Q386 147 412 164.5 Q438 182 450 218 L630 177 Q600 87 522.5 36 Q445 -15 335 -15 Z M407 397 Q397 418 378.5 429 Q360 440 333 440 Q294 440 269.5 417.5 Q245 395 239 354 L417 354 Q415 368 413 378.5 Q411 389 407 397 Z M524 792 Q524 721 473 677 Q422 633 341 633 Q253 633 201.5 675 Q150 717 150 788 Q150 792 150.5 797.5 Q151 803 152 815 L264 815 L264 804 Q264 775 285 759 Q306 743 342 743 Q377 743 396 758.5 Q415 774 415 803 L415 815 L522 815 Q523 804 523.5 799.5 Q524 795 524 792 Z " />
<glyph glyph-name="Edotaccent" unicode="&#x116;" horiz-adv-x="681" d="M58 0 L58 774 L631 774 L631 598 L281 598 L281 479 L606 479 L606 311 L281 311 L281 176 L651 176 L651 0 L58 0 Z M462 823 L249 823 L249 979 L462 979 L462 823 Z " />
<glyph glyph-name="edotaccent" unicode="&#x117;" horiz-adv-x="645" d="M335 -15 Q191 -15 109 64.5 Q27 144 27 285 Q27 423 114.5 508.5 Q202 594 336 594 Q423 594 487 559 Q551 524 584 457 Q605 417 615 365.5 Q625 314 624 254 L238 254 Q241 202 269 174.5 Q297 147 346 147 Q386 147 412 164.5 Q438 182 450 218 L630 177 Q600 87 522.5 36 Q445 -15 335 -15 Z M407 397 Q397 418 378.5 429 Q360 440 333 440 Q294 440 269.5 417.5 Q245 395 239 354 L417 354 Q415 368 413 378.5 Q411 389 407 397 Z M447 646 L227 646 L227 815 L447 815 L447 646 Z " />
<glyph glyph-name="Eogonek" unicode="&#x118;" horiz-adv-x="681" d="M614 -122 Q622 -122 630 -121 Q638 -120 651 -118 L651 -215 Q634 -222 610.5 -226 Q587 -230 560 -230 Q487 -230 447 -201.5 Q407 -173 407 -119 Q407 -80 428.5 -50.5 Q450 -21 492 -2 L492 0 L58 0 L58 774 L631 774 L631 598 L281 598 L281 479 L606 479 L606 311 L281 311 L281 176 L651 176 L651 0 L650 0 Q610 -2 586.5 -22 Q563 -42 563 -73 Q563 -97 576 -109.5 Q589 -122 614 -122 Z " />
<glyph glyph-name="eogonek" unicode="&#x119;" horiz-adv-x="645" d="M554 -118 L554 -215 Q537 -222 513.5 -226 Q490 -230 463 -230 Q391 -230 351 -201.5 Q311 -173 311 -119 Q311 -82 332 -55.5 Q353 -29 396 -12 L396 -10 Q379 -13 364 -14 Q349 -15 335 -15 Q191 -15 109 64.5 Q27 144 27 285 Q27 422 115 508 Q203 594 336 594 Q422 594 486 559 Q550 524 584 457 Q605 417 615 365.5 Q625 314 624 254 L238 254 Q241 202 269 174.5 Q297 147 346 147 Q386 147 412 164.5 Q438 182 450 218 L630 177 Q620 146 605.5 121.5 Q591 97 566 70 Q553 56 532 35.5 Q511 15 504 7 Q483 -16 474.5 -33.5 Q466 -51 466 -70 Q466 -95 479.5 -108.5 Q493 -122 518 -122 Q526 -122 534.5 -121 Q543 -120 554 -118 Z M407 397 Q397 418 378.5 429 Q360 440 333 440 Q294 440 269.5 417.5 Q245 395 239 354 L417 354 Q415 368 413 378.5 Q411 389 407 397 Z " />
<glyph glyph-name="Ecaron" unicode="&#x11a;" horiz-adv-x="681" d="M58 0 L58 774 L631 774 L631 598 L281 598 L281 479 L606 479 L606 311 L281 311 L281 176 L651 176 L651 0 L58 0 Z M422 979 L556 979 L415 820 L297 820 L154 979 L288 979 L358 924 L422 979 Z " />
<glyph glyph-name="ecaron" unicode="&#x11b;" horiz-adv-x="645" d="M335 -15 Q191 -15 109 64.5 Q27 144 27 285 Q27 423 114.5 508.5 Q202 594 336 594 Q423 594 487 559 Q551 524 584 457 Q605 417 615 365.5 Q625 314 624 254 L238 254 Q241 202 269 174.5 Q297 147 346 147 Q386 147 412 164.5 Q438 182 450 218 L630 177 Q600 87 522.5 36 Q445 -15 335 -15 Z M407 397 Q397 418 378.5 429 Q360 440 333 440 Q294 440 269.5 417.5 Q245 395 239 354 L417 354 Q415 368 413 378.5 Q411 389 407 397 Z M404 819 L530 819 L396 628 L278 628 L142 819 L269 819 L339 745 L404 819 Z " />
<glyph glyph-name="Gcircumflex" unicode="&#x11c;" horiz-adv-x="801" d="M592 0 L577 129 L574 129 Q544 60 485 22.5 Q426 -15 346 -15 Q196 -15 113 86 Q30 187 30 363 Q30 559 136.5 674 Q243 789 416 789 Q551 789 640.5 716 Q730 643 762 507 L548 462 Q535 530 501 564 Q467 598 413 598 Q341 598 299 537.5 Q257 477 257 374 Q257 263 299.5 206.5 Q342 150 427 150 Q491 150 527.5 180 Q564 210 564 264 L390 264 L390 408 L760 408 L760 0 L592 0 Z M351 820 L217 820 L359 979 L476 979 L619 820 L485 820 L416 875 L351 820 Z " />
<glyph glyph-name="gcircumflex" unicode="&#x11d;" horiz-adv-x="642" d="M287 -198 Q136 -198 67 -171.5 Q-2 -145 -2 -87 Q-2 -50 28 -26 Q58 -2 113 5 L113 7 Q71 17 49 41.5 Q27 66 27 100 Q27 142 56 172 Q85 202 139 218 L139 221 Q93 246 68.5 287.5 Q44 329 44 382 Q44 480 115.5 537 Q187 594 305 594 Q355 594 398 582 Q441 570 474 547 L551 653 L645 548 L526 496 Q542 473 550 445.5 Q558 418 558 389 Q558 292 489 239 Q420 186 299 186 Q268 186 240 190 Q212 194 188 201 Q181 196 177.5 190.5 Q174 185 174 178 Q174 163 190.5 156 Q207 149 244 149 L462 149 Q553 149 600 113.5 Q647 78 647 8 Q647 -94 555.5 -146 Q464 -198 287 -198 Z M239 388 Q239 354 256 335 Q273 316 303 316 Q333 316 348.5 335 Q364 354 364 391 Q364 425 347.5 444 Q331 463 301 463 Q273 463 256 442.5 Q239 422 239 388 Z M471 -35 Q471 -22 459.5 -17 Q448 -12 420 -12 L237 -12 Q199 -12 183.5 -19 Q168 -26 168 -42 Q168 -62 199.5 -71 Q231 -80 302 -80 Q388 -80 429.5 -69 Q471 -58 471 -35 Z M244 628 L118 628 L252 819 L370 819 L506 628 L379 628 L309 702 L244 628 Z " />
<glyph glyph-name="Gbreve" unicode="&#x11e;" horiz-adv-x="801" d="M592 0 L577 129 L574 129 Q544 60 485 22.5 Q426 -15 346 -15 Q196 -15 113 86 Q30 187 30 363 Q30 559 136.5 674 Q243 789 416 789 Q551 789 640.5 716 Q730 643 762 507 L548 462 Q535 530 501 564 Q467 598 413 598 Q341 598 299 537.5 Q257 477 257 374 Q257 263 299.5 206.5 Q342 150 427 150 Q491 150 527.5 180 Q564 210 564 264 L390 264 L390 408 L760 408 L760 0 L592 0 Z M605 963 Q605 896 555 856.5 Q505 817 422 817 Q331 817 281 854.5 Q231 892 231 960 Q231 963 231.5 968.5 Q232 974 233 986 L345 986 L345 979 Q345 954 365.5 941 Q386 928 423 928 Q459 928 477.5 941 Q496 954 496 979 L496 986 L603 986 Q604 975 604.5 970.5 Q605 966 605 963 Z " />
<glyph glyph-name="gbreve" unicode="&#x11f;" horiz-adv-x="642" d="M287 -198 Q136 -198 67 -171.5 Q-2 -145 -2 -87 Q-2 -50 28 -26 Q58 -2 113 5 L113 7 Q71 17 49 41.5 Q27 66 27 100 Q27 142 56 172 Q85 202 139 218 L139 221 Q93 246 68.5 287.5 Q44 329 44 382 Q44 480 115.5 537 Q187 594 305 594 Q355 594 398 582 Q441 570 474 547 L551 653 L645 548 L526 496 Q542 473 550 445.5 Q558 418 558 389 Q558 292 489 239 Q420 186 299 186 Q268 186 240 190 Q212 194 188 201 Q181 196 177.5 190.5 Q174 185 174 178 Q174 163 190.5 156 Q207 149 244 149 L462 149 Q553 149 600 113.5 Q647 78 647 8 Q647 -94 555.5 -146 Q464 -198 287 -198 Z M239 388 Q239 354 256 335 Q273 316 303 316 Q333 316 348.5 335 Q364 354 364 391 Q364 425 347.5 444 Q331 463 301 463 Q273 463 256 442.5 Q239 422 239 388 Z M471 -35 Q471 -22 459.5 -17 Q448 -12 420 -12 L237 -12 Q199 -12 183.5 -19 Q168 -26 168 -42 Q168 -62 199.5 -71 Q231 -80 302 -80 Q388 -80 429.5 -69 Q471 -58 471 -35 Z M499 792 Q499 721 448 677 Q397 633 316 633 Q228 633 176.5 675 Q125 717 125 788 Q125 792 125.5 797.5 Q126 803 127 815 L239 815 L239 804 Q239 775 260 759 Q281 743 317 743 Q352 743 371 758.5 Q390 774 390 803 L390 815 L497 815 Q498 804 498.5 799.5 Q499 795 499 792 Z " />
<glyph glyph-name="Gdotaccent" unicode="&#x120;" horiz-adv-x="801" d="M592 0 L577 129 L574 129 Q544 60 485 22.5 Q426 -15 346 -15 Q196 -15 113 86 Q30 187 30 363 Q30 559 136.5 674 Q243 789 416 789 Q551 789 640.5 716 Q730 643 762 507 L548 462 Q535 530 501 564 Q467 598 413 598 Q341 598 299 537.5 Q257 477 257 374 Q257 263 299.5 206.5 Q342 150 427 150 Q491 150 527.5 180 Q564 210 564 264 L390 264 L390 408 L760 408 L760 0 L592 0 Z M524 823 L311 823 L311 979 L524 979 L524 823 Z " />
<glyph glyph-name="gdotaccent" unicode="&#x121;" horiz-adv-x="642" d="M287 -198 Q136 -198 67 -171.5 Q-2 -145 -2 -87 Q-2 -50 28 -26 Q58 -2 113 5 L113 7 Q71 17 49 41.5 Q27 66 27 100 Q27 142 56 172 Q85 202 139 218 L139 221 Q93 246 68.5 287.5 Q44 329 44 382 Q44 480 115.5 537 Q187 594 305 594 Q355 594 398 582 Q441 570 474 547 L551 653 L645 548 L526 496 Q542 473 550 445.5 Q558 418 558 389 Q558 292 489 239 Q420 186 299 186 Q268 186 240 190 Q212 194 188 201 Q181 196 177.5 190.5 Q174 185 174 178 Q174 163 190.5 156 Q207 149 244 149 L462 149 Q553 149 600 113.5 Q647 78 647 8 Q647 -94 555.5 -146 Q464 -198 287 -198 Z M239 388 Q239 354 256 335 Q273 316 303 316 Q333 316 348.5 335 Q364 354 364 391 Q364 425 347.5 444 Q331 463 301 463 Q273 463 256 442.5 Q239 422 239 388 Z M471 -35 Q471 -22 459.5 -17 Q448 -12 420 -12 L237 -12 Q199 -12 183.5 -19 Q168 -26 168 -42 Q168 -62 199.5 -71 Q231 -80 302 -80 Q388 -80 429.5 -69 Q471 -58 471 -35 Z M422 646 L202 646 L202 815 L422 815 L422 646 Z " />
<glyph glyph-name="uni0122" unicode="&#x122;" horiz-adv-x="801" d="M592 0 L577 129 L574 129 Q544 60 485 22.5 Q426 -15 346 -15 Q196 -15 113 86 Q30 187 30 363 Q30 559 136.5 674 Q243 789 416 789 Q551 789 640.5 716 Q730 643 762 507 L548 462 Q535 530 501 564 Q467 598 413 598 Q341 598 299 537.5 Q257 477 257 374 Q257 263 299.5 206.5 Q342 150 427 150 Q491 150 527.5 180 Q564 210 564 264 L390 264 L390 408 L760 408 L760 0 L592 0 Z M416 -183 L341 -183 L341 -44 L509 -44 L509 -137 Q509 -229 474 -269.5 Q439 -310 355 -314 L329 -236 Q378 -235 396 -224 Q414 -213 416 -183 Z " />
<glyph glyph-name="uni0123" unicode="&#x123;" horiz-adv-x="642" d="M287 -198 Q136 -198 67 -171.5 Q-2 -145 -2 -87 Q-2 -50 28 -26 Q58 -2 113 5 L113 7 Q71 17 49 41.5 Q27 66 27 100 Q27 142 56 172 Q85 202 139 218 L139 221 Q93 246 68.5 287.5 Q44 329 44 382 Q44 480 115.5 537 Q187 594 305 594 Q355 594 398 582 Q441 570 474 547 L551 653 L645 548 L526 496 Q542 473 550 445.5 Q558 418 558 389 Q558 292 489 239 Q420 186 299 186 Q268 186 240 190 Q212 194 188 201 Q181 196 177.5 190.5 Q174 185 174 178 Q174 163 190.5 156 Q207 149 244 149 L462 149 Q553 149 600 113.5 Q647 78 647 8 Q647 -94 555.5 -146 Q464 -198 287 -198 Z M239 388 Q239 354 256 335 Q273 316 303 316 Q333 316 348.5 335 Q364 354 364 391 Q364 425 347.5 444 Q331 463 301 463 Q273 463 256 442.5 Q239 422 239 388 Z M471 -35 Q471 -22 459.5 -17 Q448 -12 420 -12 L237 -12 Q199 -12 183.5 -19 Q168 -26 168 -42 Q168 -62 199.5 -71 Q231 -80 302 -80 Q388 -80 429.5 -69 Q471 -58 471 -35 Z M320 781 L395 781 L395 642 L227 642 L227 735 Q227 826 262.5 866.5 Q298 907 381 912 L407 834 Q359 833 340.5 822 Q322 811 320 781 Z " />
<glyph glyph-name="Hcircumflex" unicode="&#x124;" horiz-adv-x="809" d="M58 0 L58 774 L281 774 L281 480 L528 480 L528 774 L751 774 L751 0 L528 0 L528 295 L281 295 L281 0 L58 0 Z M337 818 L203 818 L345 977 L462 977 L605 818 L471 818 L402 873 L337 818 Z " />
<glyph glyph-name="hcircumflex" unicode="&#x125;" horiz-adv-x="688" d="M51 0 L51 815 L267 815 L267 470 L269 470 Q299 530 347.5 561.5 Q396 593 456 593 Q547 593 594 534.5 Q641 476 641 361 L641 0 L426 0 L426 296 Q426 360 408 388 Q390 416 351 416 Q309 416 287.5 385 Q266 354 266 294 L266 0 L51 0 Z M92 856 L-42 856 L100 1015 L217 1015 L360 856 L226 856 L157 911 L92 856 Z " />
<glyph glyph-name="Hbar" unicode="&#x126;" horiz-adv-x="829" d="M68 521 L-7 521 L-7 656 L68 656 L68 774 L290 774 L290 656 L538 656 L538 774 L761 774 L761 656 L835 656 L836 521 L761 521 L761 0 L538 0 L538 244 L290 244 L290 0 L68 0 L68 521 Z M290 521 L290 412 L538 412 L538 521 L290 521 Z " />
<glyph glyph-name="hbar" unicode="&#x127;" horiz-adv-x="688" d="M-21 627 L-21 737 L51 737 L51 815 L267 815 L267 737 L391 737 L391 627 L267 627 L267 470 L269 470 Q299 530 347.5 561.5 Q396 593 456 593 Q547 593 594 534.5 Q641 476 641 361 L641 0 L426 0 L426 296 Q426 360 408 388 Q390 416 351 416 Q309 416 287.5 385 Q266 354 266 294 L266 0 L51 0 L51 627 L-21 627 Z " />
<glyph glyph-name="Itilde" unicode="&#x128;" horiz-adv-x="343" d="M60 0 L60 774 L283 774 L283 0 L60 0 Z M88 994 Q110 994 132 987.5 Q154 981 192 962 Q218 950 229.5 946 Q241 942 250 942 Q267 942 274 954 Q281 966 280 995 L376 984 Q381 904 353 860 Q325 816 269 816 Q250 816 228.5 822 Q207 828 168 847 Q140 860 127.5 864 Q115 868 105 868 Q87 868 78.5 855 Q70 842 71 815 L-30 825 Q-34 904 -2.5 949 Q29 994 88 994 Z " />
<glyph glyph-name="itilde" unicode="&#x129;" horiz-adv-x="318" d="M51 0 L51 580 L267 580 L267 0 L51 0 Z M74 813 Q96 813 118 806.5 Q140 800 178 780 Q204 767 215.5 763 Q227 759 236 759 Q253 759 260 771.5 Q267 784 266 814 L362 804 Q367 723 339 678 Q311 633 255 633 Q236 633 214.5 639.5 Q193 646 154 665 Q126 679 113.5 683 Q101 687 91 687 Q73 687 64.5 674 Q56 661 57 632 L-44 642 Q-48 722 -16.5 767.5 Q15 813 74 813 Z " />
<glyph glyph-name="Imacron" unicode="&#x12a;" horiz-adv-x="343" d="M60 0 L60 774 L283 774 L283 0 L60 0 Z M339 826 L5 826 L5 938 L339 938 L339 826 Z " />
<glyph glyph-name="imacron" unicode="&#x12b;" horiz-adv-x="318" d="M51 0 L51 580 L267 580 L267 0 L51 0 Z M327 646 L-9 646 L-9 758 L327 758 L327 646 Z " />
<glyph glyph-name="Ibreve" unicode="&#x12c;" horiz-adv-x="343" d="M60 0 L60 774 L283 774 L283 0 L60 0 Z M359 963 Q359 896 309 856.5 Q259 817 176 817 Q85 817 35 854.5 Q-15 892 -15 960 Q-15 963 -14.5 968.5 Q-14 974 -13 986 L99 986 L99 979 Q99 954 119.5 941 Q140 928 177 928 Q213 928 231.5 941 Q250 954 250 979 L250 986 L357 986 Q358 975 358.5 970.5 Q359 966 359 963 Z " />
<glyph glyph-name="ibreve" unicode="&#x12d;" horiz-adv-x="318" d="M51 0 L51 580 L267 580 L267 0 L51 0 Z M346 793 Q346 722 295 678 Q244 634 163 634 Q75 634 23.5 676 Q-28 718 -28 789 Q-28 793 -27.5 798.5 Q-27 804 -26 816 L86 816 L86 805 Q86 776 107 760 Q128 744 164 744 Q199 744 218 759.5 Q237 775 237 804 L237 816 L344 816 Q345 805 345.5 800.5 Q346 796 346 793 Z " />
<glyph glyph-name="Iogonek" unicode="&#x12e;" horiz-adv-x="343" d="M247 -122 Q255 -122 263.5 -121 Q272 -120 283 -118 L283 -215 Q266 -222 242.5 -226 Q219 -230 192 -230 Q120 -230 80 -201.5 Q40 -173 40 -119 Q40 -80 61.5 -50.5 Q83 -21 125 -2 L125 0 L60 0 L60 774 L283 774 L283 0 Q242 -2 218.5 -22 Q195 -42 195 -73 Q195 -97 208 -109.5 Q221 -122 247 -122 Z " />
<glyph glyph-name="iogonek" unicode="&#x12f;" horiz-adv-x="318" d="M269 646 L49 646 L49 815 L269 815 L269 646 Z M231 -122 Q239 -122 247.5 -121 Q256 -120 267 -118 L267 -215 Q250 -222 226.5 -226 Q203 -230 176 -230 Q104 -230 64 -201.5 Q24 -173 24 -119 Q24 -80 45.5 -50.5 Q67 -21 109 -2 L109 0 L51 0 L51 580 L267 580 L267 0 Q226 -2 202.5 -22 Q179 -42 179 -73 Q179 -97 192 -109.5 Q205 -122 231 -122 Z " />
<glyph glyph-name="Idot" unicode="&#x130;" horiz-adv-x="343" d="M60 0 L60 774 L283 774 L283 0 L60 0 Z M278 823 L65 823 L65 979 L278 979 L278 823 Z " />
<glyph glyph-name="dotlessi" unicode="&#x131;" horiz-adv-x="318" d="M51 0 L51 580 L267 580 L267 0 L51 0 Z " />
<glyph glyph-name="IJ" unicode="&#x132;" horiz-adv-x="723" d="M364 -15 Q232 -15 150.5 43 Q69 101 46 212 L260 280 Q265 226 289 201 Q313 176 359 176 Q406 176 428.5 206.5 Q451 237 451 304 L451 774 L674 774 L674 318 Q674 154 595.5 69.5 Q517 -15 364 -15 Z M272 774 L272 331 L50 331 L50 774 L272 774 Z " />
<glyph glyph-name="ij" unicode="&#x133;" horiz-adv-x="637" d="M269 646 L49 646 L49 815 L269 815 L269 646 Z M51 0 L51 580 L267 580 L267 0 L51 0 Z M588 646 L368 646 L368 815 L588 815 L588 646 Z M281 -187 L262 -42 Q275 -44 286 -45 Q297 -46 308 -46 Q342 -46 356 -31.5 Q370 -17 370 17 L370 580 L586 580 L586 16 Q586 -96 536 -147.5 Q486 -199 377 -199 Q352 -199 328 -196 Q304 -193 281 -187 Z " />
<glyph glyph-name="Jcircumflex" unicode="&#x134;" horiz-adv-x="633" d="M584 774 L584 275 Q584 201 566 146 Q548 91 512 56 Q476 21 423.5 3 Q371 -15 303 -15 Q162 -15 91.5 49 Q21 113 21 242 L21 343 L225 383 L225 270 Q225 219 241 196 Q257 173 293 173 Q328 173 344.5 196 Q361 219 361 268 L361 774 L584 774 Z M405 820 L271 820 L413 979 L530 979 L673 820 L539 820 L470 875 L405 820 Z " />
<glyph glyph-name="jcircumflex" unicode="&#x135;" horiz-adv-x="318" d="M-38 -187 L-57 -42 Q-44 -44 -33 -45 Q-22 -46 -11 -46 Q23 -46 37 -31.5 Q51 -17 51 17 L51 580 L267 580 L267 16 Q267 -96 217 -147.5 Q167 -199 58 -199 Q33 -199 9 -196 Q-15 -193 -38 -187 Z M91 629 L-35 629 L99 820 L217 820 L353 629 L226 629 L156 703 L91 629 Z " />
<glyph glyph-name="uni0136" unicode="&#x136;" horiz-adv-x="757" d="M758 0 L519 0 L362 340 L281 237 L281 0 L58 0 L58 774 L281 774 L281 457 L505 774 L745 774 L529 473 L758 0 Z M386 -181 L311 -181 L311 -42 L479 -42 L479 -135 Q479 -227 444 -267.5 Q409 -308 325 -312 L299 -234 Q348 -233 366 -222 Q384 -211 386 -181 Z " />
<glyph glyph-name="uni0137" unicode="&#x137;" horiz-adv-x="666" d="M677 0 L443 0 L326 231 L267 161 L267 0 L51 0 L51 815 L267 815 L267 366 L436 580 L668 580 L485 351 L677 0 Z M338 -181 L263 -181 L263 -42 L431 -42 L431 -135 Q431 -227 396 -267.5 Q361 -308 277 -312 L251 -234 Q300 -233 318 -222 Q336 -211 338 -181 Z " />
<glyph glyph-name="kgreenlandic" unicode="&#x138;" horiz-adv-x="666" d="M677 0 L443 0 L326 231 L267 161 L267 0 L51 0 L51 580 L267 580 L267 366 L436 580 L668 580 L485 351 L677 0 Z " />
<glyph glyph-name="Lacute" unicode="&#x139;" horiz-adv-x="662" d="M58 0 L58 774 L281 774 L281 185 L644 185 L644 0 L58 0 Z M247 823 L91 823 L143 981 L325 981 L247 823 Z " />
<glyph glyph-name="lacute" unicode="&#x13a;" horiz-adv-x="317" d="M51 0 L51 815 L267 815 L267 0 L51 0 Z M237 859 L81 859 L133 1017 L315 1017 L237 859 Z " />
<glyph glyph-name="uni013B" unicode="&#x13b;" horiz-adv-x="662" d="M58 0 L58 774 L281 774 L281 185 L644 185 L644 0 L58 0 Z M347 -183 L272 -183 L272 -44 L440 -44 L440 -137 Q440 -229 405 -269.5 Q370 -310 286 -314 L260 -236 Q309 -235 327 -224 Q345 -213 347 -183 Z " />
<glyph glyph-name="uni013C" unicode="&#x13c;" horiz-adv-x="317" d="M51 0 L51 815 L267 815 L267 0 L51 0 Z M150 -183 L75 -183 L75 -44 L243 -44 L243 -137 Q243 -229 208 -269.5 Q173 -310 89 -314 L63 -236 Q112 -235 130 -224 Q148 -213 150 -183 Z " />
<glyph glyph-name="Lcaron" unicode="&#x13d;" horiz-adv-x="662" d="M58 0 L58 774 L281 774 L281 185 L644 185 L644 0 L58 0 Z M511 725 Q511 674 499.5 626 Q488 578 465 527 L345 527 Q352 557 355.5 593.5 Q359 630 359 671 Q359 699 357.5 725.5 Q356 752 353 774 L508 774 Q510 762 510.5 750 Q511 738 511 725 Z " />
<glyph glyph-name="lcaron" unicode="&#x13e;" horiz-adv-x="401" d="M51 0 L51 815 L267 815 L267 0 L51 0 Z M470 766 Q470 715 458.5 667 Q447 619 424 568 L304 568 Q311 598 314.5 634.5 Q318 671 318 712 Q318 740 316.5 766.5 Q315 793 312 815 L467 815 Q469 803 469.5 791 Q470 779 470 766 Z " />
<glyph glyph-name="Ldot" unicode="&#x13f;" horiz-adv-x="662" d="M58 0 L58 774 L281 774 L281 185 L644 185 L644 0 L58 0 Z M600 356 L401 356 L401 538 L600 538 L600 356 Z " />
<glyph glyph-name="ldot" unicode="&#x140;" horiz-adv-x="517" d="M51 0 L51 815 L267 815 L267 0 L51 0 Z M517 337 L318 337 L318 519 L517 519 L517 337 Z " />
<glyph glyph-name="Lslash" unicode="&#x141;" horiz-adv-x="672" d="M-10 254 L-10 397 L68 428 L68 774 L291 774 L291 499 L470 571 L470 425 L291 354 L291 185 L654 185 L654 0 L68 0 L68 285 L-10 254 Z " />
<glyph glyph-name="lslash" unicode="&#x142;" horiz-adv-x="367" d="M-11 232 L-11 365 L76 408 L76 815 L292 815 L292 502 L378 546 L378 414 L292 370 L292 0 L76 0 L76 276 L-11 232 Z " />
<glyph glyph-name="Nacute" unicode="&#x143;" horiz-adv-x="808" d="M554 774 L749 774 L749 0 L534 0 L253 466 L253 0 L58 0 L58 774 L290 774 L554 328 L554 774 Z M490 821 L334 821 L386 979 L568 979 L490 821 Z " />
<glyph glyph-name="nacute" unicode="&#x144;" horiz-adv-x="688" d="M51 0 L51 580 L262 580 L262 461 L265 461 Q294 525 344 559 Q394 593 456 593 Q547 593 594 534 Q641 475 641 361 L641 0 L426 0 L426 296 Q426 360 408 388 Q390 416 351 416 Q309 416 287.5 385 Q266 354 266 294 L266 0 L51 0 Z M417 628 L282 628 L354 819 L536 819 L417 628 Z " />
<glyph glyph-name="uni0145" unicode="&#x145;" horiz-adv-x="808" d="M554 774 L749 774 L749 0 L534 0 L253 466 L253 0 L58 0 L58 774 L290 774 L554 328 L554 774 Z M406 -181 L331 -181 L331 -42 L499 -42 L499 -135 Q499 -227 464 -267.5 Q429 -308 345 -312 L319 -234 Q368 -233 386 -222 Q404 -211 406 -181 Z " />
<glyph glyph-name="uni0146" unicode="&#x146;" horiz-adv-x="688" d="M51 0 L51 580 L262 580 L262 461 L265 461 Q294 525 344 559 Q394 593 456 593 Q547 593 594 534 Q641 475 641 361 L641 0 L426 0 L426 296 Q426 360 408 388 Q390 416 351 416 Q309 416 287.5 385 Q266 354 266 294 L266 0 L51 0 Z M337 -181 L262 -181 L262 -42 L430 -42 L430 -135 Q430 -227 395 -267.5 Q360 -308 276 -312 L250 -234 Q299 -233 317 -222 Q335 -211 337 -181 Z " />
<glyph glyph-name="Ncaron" unicode="&#x147;" horiz-adv-x="808" d="M554 774 L749 774 L749 0 L534 0 L253 466 L253 0 L58 0 L58 774 L290 774 L554 328 L554 774 Z M478 977 L612 977 L471 818 L353 818 L210 977 L344 977 L414 922 L478 977 Z " />
<glyph glyph-name="ncaron" unicode="&#x148;" horiz-adv-x="688" d="M51 0 L51 580 L262 580 L262 461 L265 461 Q294 525 344 559 Q394 593 456 593 Q547 593 594 534 Q641 475 641 361 L641 0 L426 0 L426 296 Q426 360 408 388 Q390 416 351 416 Q309 416 287.5 385 Q266 354 266 294 L266 0 L51 0 Z M416 819 L542 819 L408 628 L290 628 L154 819 L281 819 L351 745 L416 819 Z " />
<glyph glyph-name="Eng" unicode="&#x14a;" horiz-adv-x="808" d="M700 -127 Q672 -164 625.5 -182 Q579 -200 512 -200 Q473 -200 430.5 -193 Q388 -186 355 -175 L396 -23 Q414 -28 431 -30.5 Q448 -33 469 -33 Q505 -33 521.5 -18 Q538 -3 540 32 L253 476 L253 0 L58 0 L58 774 L290 774 L554 358 L554 774 L749 774 L749 56 Q749 -5 737 -50.5 Q725 -96 700 -127 Z " />
<glyph glyph-name="eng" unicode="&#x14b;" horiz-adv-x="684" d="M360 -46 Q394 -46 408 -31.5 Q422 -17 422 17 L422 296 Q422 360 405 388 Q388 416 350 416 Q309 416 287.5 385 Q266 354 266 294 L266 0 L51 0 L51 580 L262 580 L262 460 L264 460 Q294 524 344 558.5 Q394 593 457 593 Q545 593 591 534 Q637 475 637 361 L637 16 Q637 -96 587 -147.5 Q537 -199 429 -199 Q404 -199 380 -196 Q356 -193 333 -187 L314 -42 Q327 -44 338 -45 Q349 -46 360 -46 Z " />
<glyph glyph-name="Omacron" unicode="&#x14c;" horiz-adv-x="807" d="M404 -15 Q233 -15 132 90 Q31 195 31 375 Q31 565 133.5 677 Q236 789 407 789 Q575 789 675 682 Q775 575 775 392 Q775 205 674 95 Q573 -15 404 -15 Z M508 225 Q527 251 537 291.5 Q547 332 547 385 Q547 488 511 543 Q475 598 407 598 Q373 598 345.5 584 Q318 570 298 543 Q279 517 269.5 476.5 Q260 436 260 383 Q260 285 298.5 230.5 Q337 176 406 176 Q439 176 464.5 188.5 Q490 201 508 225 Z M574 826 L240 826 L240 938 L574 938 L574 826 Z " />
<glyph glyph-name="omacron" unicode="&#x14d;" horiz-adv-x="672" d="M336 -15 Q193 -15 110 64.5 Q27 144 27 287 Q28 426 115 510.5 Q202 595 338 595 Q475 595 560 513 Q645 431 645 293 Q645 148 561.5 66.5 Q478 -15 336 -15 Z M336 156 Q380 156 403 189.5 Q426 223 426 289 Q426 355 403 389.5 Q380 424 336 424 Q292 424 269 390 Q246 356 246 289 Q246 225 269.5 190.5 Q293 156 336 156 Z M504 645 L168 645 L168 757 L504 757 L504 645 Z " />
<glyph glyph-name="Obreve" unicode="&#x14e;" horiz-adv-x="807" d="M404 -15 Q233 -15 132 90 Q31 195 31 375 Q31 565 133.5 677 Q236 789 407 789 Q575 789 675 682 Q775 575 775 392 Q775 205 674 95 Q573 -15 404 -15 Z M508 225 Q527 251 537 291.5 Q547 332 547 385 Q547 488 511 543 Q475 598 407 598 Q373 598 345.5 584 Q318 570 298 543 Q279 517 269.5 476.5 Q260 436 260 383 Q260 285 298.5 230.5 Q337 176 406 176 Q439 176 464.5 188.5 Q490 201 508 225 Z M595 963 Q595 896 545 856.5 Q495 817 412 817 Q321 817 271 854.5 Q221 892 221 960 Q221 963 221.5 968.5 Q222 974 223 986 L335 986 L335 979 Q335 954 355.5 941 Q376 928 413 928 Q449 928 467.5 941 Q486 954 486 979 L486 986 L593 986 Q594 975 594.5 970.5 Q595 966 595 963 Z " />
<glyph glyph-name="obreve" unicode="&#x14f;" horiz-adv-x="672" d="M336 -15 Q193 -15 110 64.5 Q27 144 27 287 Q28 426 115 510.5 Q202 595 338 595 Q475 595 560 513 Q645 431 645 293 Q645 148 561.5 66.5 Q478 -15 336 -15 Z M336 156 Q380 156 403 189.5 Q426 223 426 289 Q426 355 403 389.5 Q380 424 336 424 Q292 424 269 390 Q246 356 246 289 Q246 225 269.5 190.5 Q293 156 336 156 Z M523 792 Q523 721 472 677 Q421 633 340 633 Q252 633 200.5 675 Q149 717 149 788 Q149 792 149.5 797.5 Q150 803 151 815 L263 815 L263 804 Q263 775 284 759 Q305 743 341 743 Q376 743 395 758.5 Q414 774 414 803 L414 815 L521 815 Q522 804 522.5 799.5 Q523 795 523 792 Z " />
<glyph glyph-name="Ohungarumlaut" unicode="&#x150;" horiz-adv-x="807" d="M404 -15 Q233 -15 132 90 Q31 195 31 375 Q31 565 133.5 677 Q236 789 407 789 Q575 789 675 682 Q775 575 775 392 Q775 205 674 95 Q573 -15 404 -15 Z M508 225 Q527 251 537 291.5 Q547 332 547 385 Q547 488 511 543 Q475 598 407 598 Q373 598 345.5 584 Q318 570 298 543 Q279 517 269.5 476.5 Q260 436 260 383 Q260 285 298.5 230.5 Q337 176 406 176 Q439 176 464.5 188.5 Q490 201 508 225 Z M383 823 L262 823 L321 981 L461 981 L383 823 Z M551 823 L430 823 L490 981 L628 981 L551 823 Z " />
<glyph glyph-name="ohungarumlaut" unicode="&#x151;" horiz-adv-x="672" d="M336 -15 Q193 -15 110 64.5 Q27 144 27 287 Q28 426 115 510.5 Q202 595 338 595 Q475 595 560 513 Q645 431 645 293 Q645 148 561.5 66.5 Q478 -15 336 -15 Z M336 156 Q380 156 403 189.5 Q426 223 426 289 Q426 355 403 389.5 Q380 424 336 424 Q292 424 269 390 Q246 356 246 289 Q246 225 269.5 190.5 Q293 156 336 156 Z M307 628 L182 628 L251 819 L404 819 L307 628 Z M491 628 L366 628 L435 819 L588 819 L491 628 Z " />
<glyph glyph-name="OE" unicode="&#x152;" horiz-adv-x="1121" d="M203 716 Q254 745 320 759.5 Q386 774 466 774 L1071 774 L1071 598 L721 598 L721 479 L1047 479 L1047 311 L721 311 L721 176 L1091 176 L1091 0 L468 0 Q381 0 315.5 14 Q250 28 198 57 Q116 104 73.5 186 Q31 268 31 380 Q31 496 75 582 Q119 668 203 716 Z M260 383 Q260 280 308 228.5 Q356 177 453 177 L498 177 L498 597 L454 597 Q356 597 308 544 Q260 491 260 383 Z " />
<glyph glyph-name="oe" unicode="&#x153;" horiz-adv-x="1045" d="M744 147 Q784 147 809.5 164.5 Q835 182 847 218 L1028 177 Q998 85 925.5 35 Q853 -15 747 -15 Q681 -15 626 5 Q571 25 532 63 Q495 24 444 4.5 Q393 -15 330 -15 Q189 -15 108 64 Q27 143 27 287 Q28 426 111.5 510.5 Q195 595 328 595 Q394 595 447 574 Q500 553 538 512 Q575 552 626 573 Q677 594 739 594 Q820 594 879.5 562.5 Q939 531 974 470 Q998 428 1010.5 374 Q1023 320 1022 254 L635 254 Q638 203 666.5 175 Q695 147 744 147 Z M804 396 Q795 417 775 428.5 Q755 440 729 440 Q690 440 666 417.5 Q642 395 637 354 L814 354 Q813 368 810.5 378 Q808 388 804 396 Z M336 156 Q380 156 403 189.5 Q426 223 426 289 Q426 355 403 389.5 Q380 424 336 424 Q292 424 269 390 Q246 356 246 289 Q246 225 269.5 190.5 Q293 156 336 156 Z " />
<glyph glyph-name="Racute" unicode="&#x154;" horiz-adv-x="743" d="M429 241 Q420 252 405.5 256.5 Q391 261 364 261 L281 261 L281 0 L58 0 L58 774 L416 774 Q567 774 646 718 Q725 662 725 554 Q725 470 670 413 Q615 356 518 341 L518 338 Q585 323 615.5 290.5 Q646 258 668 178 Q690 97 700 65 Q710 33 722 5 L722 0 L490 0 Q485 11 480.5 28.5 Q476 46 461 138 Q453 190 446.5 209.5 Q440 229 429 241 Z M498 514 Q498 560 469.5 581.5 Q441 603 380 603 L281 603 L281 416 L381 416 Q439 416 468.5 440.5 Q498 465 498 514 Z M459 822 L303 822 L355 980 L537 980 L459 822 Z " />
<glyph glyph-name="racute" unicode="&#x155;" horiz-adv-x="591" d="M432 593 Q504 593 541 542 Q578 491 578 392 Q578 378 576.5 360 Q575 342 572 323 L376 300 Q380 314 382 334 Q384 354 384 372 Q384 409 371 427.5 Q358 446 333 446 Q299 446 282.5 414 Q266 382 266 317 L266 0 L51 0 L51 580 L263 580 L263 472 L266 472 Q292 532 334 562.5 Q376 593 432 593 Z M383 628 L248 628 L320 819 L502 819 L383 628 Z " />
<glyph glyph-name="uni0156" unicode="&#x156;" horiz-adv-x="743" d="M429 241 Q420 252 405.5 256.5 Q391 261 364 261 L281 261 L281 0 L58 0 L58 774 L416 774 Q567 774 646 718 Q725 662 725 554 Q725 470 670 413 Q615 356 518 341 L518 338 Q585 323 615.5 290.5 Q646 258 668 178 Q690 97 700 65 Q710 33 722 5 L722 0 L490 0 Q485 11 480.5 28.5 Q476 46 461 138 Q453 190 446.5 209.5 Q440 229 429 241 Z M498 514 Q498 560 469.5 581.5 Q441 603 380 603 L281 603 L281 416 L381 416 Q439 416 468.5 440.5 Q498 465 498 514 Z M383 -181 L308 -181 L308 -42 L476 -42 L476 -135 Q476 -227 441 -267.5 Q406 -308 322 -312 L296 -234 Q345 -233 363 -222 Q381 -211 383 -181 Z " />
<glyph glyph-name="uni0157" unicode="&#x157;" horiz-adv-x="591" d="M432 593 Q504 593 541 542 Q578 491 578 392 Q578 378 576.5 360 Q575 342 572 323 L376 300 Q380 314 382 334 Q384 354 384 372 Q384 409 371 427.5 Q358 446 333 446 Q299 446 282.5 414 Q266 382 266 317 L266 0 L51 0 L51 580 L263 580 L263 472 L266 472 Q292 532 334 562.5 Q376 593 432 593 Z M149 -183 L74 -183 L74 -44 L242 -44 L242 -137 Q242 -229 207 -269.5 Q172 -310 88 -314 L62 -236 Q111 -235 129 -224 Q147 -213 149 -183 Z " />
<glyph glyph-name="Rcaron" unicode="&#x158;" horiz-adv-x="743" d="M429 241 Q420 252 405.5 256.5 Q391 261 364 261 L281 261 L281 0 L58 0 L58 774 L416 774 Q567 774 646 718 Q725 662 725 554 Q725 470 670 413 Q615 356 518 341 L518 338 Q585 323 615.5 290.5 Q646 258 668 178 Q690 97 700 65 Q710 33 722 5 L722 0 L490 0 Q485 11 480.5 28.5 Q476 46 461 138 Q453 190 446.5 209.5 Q440 229 429 241 Z M498 514 Q498 560 469.5 581.5 Q441 603 380 603 L281 603 L281 416 L381 416 Q439 416 468.5 440.5 Q498 465 498 514 Z M447 978 L581 978 L440 819 L322 819 L179 978 L313 978 L383 923 L447 978 Z " />
<glyph glyph-name="rcaron" unicode="&#x159;" horiz-adv-x="591" d="M432 593 Q504 593 541 542 Q578 491 578 392 Q578 378 576.5 360 Q575 342 572 323 L376 300 Q380 314 382 334 Q384 354 384 372 Q384 409 371 427.5 Q358 446 333 446 Q299 446 282.5 414 Q266 382 266 317 L266 0 L51 0 L51 580 L263 580 L263 472 L266 472 Q292 532 334 562.5 Q376 593 432 593 Z M382 819 L508 819 L374 628 L256 628 L120 819 L247 819 L317 745 L382 819 Z " />
<glyph glyph-name="Sacute" unicode="&#x15a;" horiz-adv-x="701" d="M627 395 Q654 369 668 330.5 Q682 292 682 245 Q682 124 594.5 54.5 Q507 -15 356 -15 Q208 -15 117 40.5 Q26 96 -1 204 L206 260 Q219 210 259 184 Q299 158 361 158 Q409 158 435 176 Q461 194 461 228 Q461 252 439 265.5 Q417 279 334 291 Q276 300 244 307 Q212 314 183 323 Q151 333 127 346 Q103 359 85 377 Q56 406 42.5 442.5 Q29 479 29 527 Q29 647 116.5 718 Q204 789 348 789 Q477 789 561 732 Q645 675 676 566 L474 522 Q460 571 429.5 593.5 Q399 616 347 616 Q303 616 277.5 597.5 Q252 579 252 546 Q252 519 276.5 504 Q301 489 377 478 Q451 467 478.5 461 Q506 455 530 448 Q562 439 586 425.5 Q610 412 627 395 Z M429 823 L273 823 L325 981 L507 981 L429 823 Z " />
<glyph glyph-name="sacute" unicode="&#x15b;" horiz-adv-x="601" d="M312 132 Q345 132 362.5 142.5 Q380 153 380 173 Q380 187 369.5 194 Q359 201 328 205 Q318 207 295 209.5 Q272 212 260 214 Q178 223 136.5 237 Q95 251 71 274 Q49 296 38.5 324.5 Q28 353 28 389 Q28 482 101 537.5 Q174 593 296 593 Q407 593 481 547 Q555 501 576 419 L383 388 Q378 417 355.5 432.5 Q333 448 296 448 Q266 448 249.5 437 Q233 426 233 406 Q233 391 242.5 383.5 Q252 376 279 372 Q290 370 314 367 Q338 364 344 363 Q435 352 478 338.5 Q521 325 546 301 Q566 281 576.5 253 Q587 225 587 189 Q587 96 512 41 Q437 -14 310 -14 Q182 -14 104 30.5 Q26 75 4 160 L209 195 Q216 163 242 147.5 Q268 132 312 132 Z M382 628 L247 628 L319 819 L501 819 L382 628 Z " />
<glyph glyph-name="Scircumflex" unicode="&#x15c;" horiz-adv-x="701" d="M627 395 Q654 369 668 330.5 Q682 292 682 245 Q682 124 594.5 54.5 Q507 -15 356 -15 Q208 -15 117 40.5 Q26 96 -1 204 L206 260 Q219 210 259 184 Q299 158 361 158 Q409 158 435 176 Q461 194 461 228 Q461 252 439 265.5 Q417 279 334 291 Q276 300 244 307 Q212 314 183 323 Q151 333 127 346 Q103 359 85 377 Q56 406 42.5 442.5 Q29 479 29 527 Q29 647 116.5 718 Q204 789 348 789 Q477 789 561 732 Q645 675 676 566 L474 522 Q460 571 429.5 593.5 Q399 616 347 616 Q303 616 277.5 597.5 Q252 579 252 546 Q252 519 276.5 504 Q301 489 377 478 Q451 467 478.5 461 Q506 455 530 448 Q562 439 586 425.5 Q610 412 627 395 Z M285 820 L151 820 L293 979 L410 979 L553 820 L419 820 L350 875 L285 820 Z " />
<glyph glyph-name="scircumflex" unicode="&#x15d;" horiz-adv-x="601" d="M312 132 Q345 132 362.5 142.5 Q380 153 380 173 Q380 187 369.5 194 Q359 201 328 205 Q318 207 295 209.5 Q272 212 260 214 Q178 223 136.5 237 Q95 251 71 274 Q49 296 38.5 324.5 Q28 353 28 389 Q28 482 101 537.5 Q174 593 296 593 Q407 593 481 547 Q555 501 576 419 L383 388 Q378 417 355.5 432.5 Q333 448 296 448 Q266 448 249.5 437 Q233 426 233 406 Q233 391 242.5 383.5 Q252 376 279 372 Q290 370 314 367 Q338 364 344 363 Q435 352 478 338.5 Q521 325 546 301 Q566 281 576.5 253 Q587 225 587 189 Q587 96 512 41 Q437 -14 310 -14 Q182 -14 104 30.5 Q26 75 4 160 L209 195 Q216 163 242 147.5 Q268 132 312 132 Z M246 628 L120 628 L254 819 L372 819 L508 628 L381 628 L311 702 L246 628 Z " />
<glyph glyph-name="uni015E" unicode="&#x15e;" horiz-adv-x="701" d="M340 -142 Q366 -142 378.5 -135 Q391 -128 391 -114 Q391 -102 384 -96.5 Q377 -91 362 -91 Q351 -91 342.5 -95 Q334 -99 330 -107 L275 -97 L300 -13 Q176 -3 99.5 52 Q23 107 -1 204 L206 260 Q219 210 259 184 Q299 158 361 158 Q409 158 435 176 Q461 194 461 228 Q461 252 439 265.5 Q417 279 334 291 Q276 300 244 307 Q212 314 183 323 Q151 333 127 346 Q103 359 85 377 Q56 406 42.5 442.5 Q29 479 29 527 Q29 647 116.5 718 Q204 789 348 789 Q477 789 561 732 Q645 675 676 566 L474 522 Q460 571 429.5 593.5 Q399 616 347 616 Q303 616 277.5 597.5 Q252 579 252 546 Q252 519 276.5 504 Q301 489 377 478 Q451 467 478.5 461 Q506 455 530 448 Q562 439 586 425.5 Q610 412 627 395 Q654 369 668 330.5 Q682 292 682 245 Q682 130 603 61.5 Q524 -7 385 -14 L376 -46 Q382 -44 388 -43.5 Q394 -43 401 -43 Q442 -43 467 -66.5 Q492 -90 492 -130 Q492 -178 454.5 -207.5 Q417 -237 351 -237 Q307 -237 267.5 -229.5 Q228 -222 202 -209 L234 -120 Q259 -130 287.5 -136 Q316 -142 340 -142 Z " />
<glyph glyph-name="uni015F" unicode="&#x15f;" horiz-adv-x="601" d="M300 -142 Q326 -142 338.5 -135 Q351 -128 351 -114 Q351 -102 344 -96.5 Q337 -91 322 -91 Q311 -91 302.5 -95 Q294 -99 290 -107 L235 -97 L261 -12 Q154 -4 88.5 40 Q23 84 4 160 L209 195 Q216 163 242 147.5 Q268 132 312 132 Q345 132 362.5 142.5 Q380 153 380 173 Q380 187 369.5 194 Q359 201 328 205 Q318 207 295 209.5 Q272 212 260 214 Q178 223 136.5 237 Q95 251 71 274 Q49 296 38.5 324.5 Q28 353 28 389 Q28 482 101 537.5 Q174 593 296 593 Q407 593 481 547 Q555 501 576 419 L383 388 Q378 417 355.5 432.5 Q333 448 296 448 Q266 448 249.5 437 Q233 426 233 406 Q233 391 242.5 383.5 Q252 376 279 372 Q290 370 314 367 Q338 364 344 363 Q435 352 478 338.5 Q521 325 546 301 Q566 281 576.5 253 Q587 225 587 189 Q587 103 522.5 49 Q458 -5 346 -13 L336 -46 Q342 -44 348 -43.5 Q354 -43 361 -43 Q402 -43 427 -66.5 Q452 -90 452 -130 Q452 -178 414.5 -207.5 Q377 -237 311 -237 Q267 -237 227.5 -229.5 Q188 -222 162 -209 L194 -120 Q219 -130 247.5 -136 Q276 -142 300 -142 Z " />
<glyph glyph-name="Scaron" unicode="&#x160;" horiz-adv-x="701" d="M627 395 Q654 369 668 330.5 Q682 292 682 245 Q682 124 594.5 54.5 Q507 -15 356 -15 Q208 -15 117 40.5 Q26 96 -1 204 L206 260 Q219 210 259 184 Q299 158 361 158 Q409 158 435 176 Q461 194 461 228 Q461 252 439 265.5 Q417 279 334 291 Q276 300 244 307 Q212 314 183 323 Q151 333 127 346 Q103 359 85 377 Q56 406 42.5 442.5 Q29 479 29 527 Q29 647 116.5 718 Q204 789 348 789 Q477 789 561 732 Q645 675 676 566 L474 522 Q460 571 429.5 593.5 Q399 616 347 616 Q303 616 277.5 597.5 Q252 579 252 546 Q252 519 276.5 504 Q301 489 377 478 Q451 467 478.5 461 Q506 455 530 448 Q562 439 586 425.5 Q610 412 627 395 Z M417 979 L551 979 L410 820 L292 820 L149 979 L283 979 L353 924 L417 979 Z " />
<glyph glyph-name="scaron" unicode="&#x161;" horiz-adv-x="601" d="M312 132 Q345 132 362.5 142.5 Q380 153 380 173 Q380 187 369.5 194 Q359 201 328 205 Q318 207 295 209.5 Q272 212 260 214 Q178 223 136.5 237 Q95 251 71 274 Q49 296 38.5 324.5 Q28 353 28 389 Q28 482 101 537.5 Q174 593 296 593 Q407 593 481 547 Q555 501 576 419 L383 388 Q378 417 355.5 432.5 Q333 448 296 448 Q266 448 249.5 437 Q233 426 233 406 Q233 391 242.5 383.5 Q252 376 279 372 Q290 370 314 367 Q338 364 344 363 Q435 352 478 338.5 Q521 325 546 301 Q566 281 576.5 253 Q587 225 587 189 Q587 96 512 41 Q437 -14 310 -14 Q182 -14 104 30.5 Q26 75 4 160 L209 195 Q216 163 242 147.5 Q268 132 312 132 Z M381 819 L507 819 L373 628 L255 628 L119 819 L246 819 L316 745 L381 819 Z " />
<glyph glyph-name="Tcaron" unicode="&#x164;" horiz-adv-x="693" d="M678 774 L678 598 L458 598 L458 0 L235 0 L235 598 L16 598 L16 774 L678 774 Z M410 979 L544 979 L403 820 L285 820 L142 979 L276 979 L346 924 L410 979 Z " />
<glyph glyph-name="tcaron" unicode="&#x165;" horiz-adv-x="460" d="M385 149 Q397 149 410 150 Q423 151 437 153 L437 9 Q406 -3 370.5 -9 Q335 -15 299 -15 Q193 -15 143 33.5 Q93 82 93 185 L93 433 L-9 433 L-9 580 L99 580 L99 684 L308 760 L308 580 L438 580 L438 433 L308 433 L308 221 Q308 180 324.5 164.5 Q341 149 385 149 Z M528 847 Q528 796 516.5 748 Q505 700 482 649 L362 649 Q369 679 372.5 715.5 Q376 752 376 793 Q376 821 374.5 847.5 Q373 874 370 896 L525 896 Q527 884 527.5 872 Q528 860 528 847 Z " />
<glyph glyph-name="Tbar" unicode="&#x166;" horiz-adv-x="693" d="M235 305 L89 305 L89 435 L235 435 L235 598 L16 598 L16 774 L678 774 L678 598 L458 598 L458 435 L604 435 L604 305 L458 305 L458 0 L235 0 L235 305 Z " />
<glyph glyph-name="tbar" unicode="&#x167;" horiz-adv-x="460" d="M3 250 L3 365 L93 365 L93 433 L-9 433 L-9 580 L99 580 L99 684 L308 760 L308 580 L438 580 L438 433 L308 433 L308 365 L426 365 L426 250 L308 250 L308 221 Q308 180 324.5 164.5 Q341 149 385 149 Q397 149 410 150 Q423 151 437 153 L437 9 Q406 -3 370.5 -9 Q335 -15 299 -15 Q193 -15 143 33.5 Q93 82 93 185 L93 250 L3 250 Z " />
<glyph glyph-name="Utilde" unicode="&#x168;" horiz-adv-x="776" d="M269 774 L269 323 Q269 249 299 215 Q329 181 394 181 Q454 181 481 214.5 Q508 248 508 323 L508 774 L730 774 L730 316 Q730 151 645.5 68 Q561 -15 392 -15 Q217 -15 131.5 62.5 Q46 140 46 300 L46 774 L269 774 Z M304 992 Q326 992 348 985.5 Q370 979 408 960 Q434 948 445.5 944 Q457 940 466 940 Q483 940 490 952 Q497 964 496 993 L592 982 Q597 902 569 858 Q541 814 485 814 Q466 814 444.5 820 Q423 826 384 845 Q356 858 343.5 862 Q331 866 321 866 Q303 866 294.5 853 Q286 840 287 813 L186 823 Q182 902 213.5 947 Q245 992 304 992 Z " />
<glyph glyph-name="utilde" unicode="&#x169;" horiz-adv-x="681" d="M225 -14 Q136 -14 90 43 Q44 100 44 212 L44 580 L259 580 L259 284 Q259 219 276 191 Q293 163 330 163 Q372 163 393.5 194 Q415 225 415 286 L415 580 L630 580 L630 0 L419 0 L419 119 L416 119 Q387 55 337.5 20.5 Q288 -14 225 -14 Z M252 810 Q274 810 296 803.5 Q318 797 356 777 Q382 764 393.5 760 Q405 756 414 756 Q431 756 438 768.5 Q445 781 444 811 L540 801 Q545 720 517 675 Q489 630 433 630 Q414 630 392.5 636.5 Q371 643 332 662 Q304 676 291.5 680 Q279 684 269 684 Q251 684 242.5 671 Q234 658 235 629 L134 639 Q130 719 161.5 764.5 Q193 810 252 810 Z " />
<glyph glyph-name="Umacron" unicode="&#x16a;" horiz-adv-x="776" d="M269 774 L269 323 Q269 249 299 215 Q329 181 394 181 Q454 181 481 214.5 Q508 248 508 323 L508 774 L730 774 L730 316 Q730 151 645.5 68 Q561 -15 392 -15 Q217 -15 131.5 62.5 Q46 140 46 300 L46 774 L269 774 Z M555 824 L221 824 L221 936 L555 936 L555 824 Z " />
<glyph glyph-name="umacron" unicode="&#x16b;" horiz-adv-x="681" d="M225 -14 Q136 -14 90 43 Q44 100 44 212 L44 580 L259 580 L259 284 Q259 219 276 191 Q293 163 330 163 Q372 163 393.5 194 Q415 225 415 286 L415 580 L630 580 L630 0 L419 0 L419 119 L416 119 Q387 55 337.5 20.5 Q288 -14 225 -14 Z M505 643 L169 643 L169 755 L505 755 L505 643 Z " />
<glyph glyph-name="Ubreve" unicode="&#x16c;" horiz-adv-x="776" d="M269 774 L269 323 Q269 249 299 215 Q329 181 394 181 Q454 181 481 214.5 Q508 248 508 323 L508 774 L730 774 L730 316 Q730 151 645.5 68 Q561 -15 392 -15 Q217 -15 131.5 62.5 Q46 140 46 300 L46 774 L269 774 Z M575 961 Q575 894 525 854.5 Q475 815 392 815 Q301 815 251 852.5 Q201 890 201 958 Q201 961 201.5 966.5 Q202 972 203 984 L315 984 L315 977 Q315 952 335.5 939 Q356 926 393 926 Q429 926 447.5 939 Q466 952 466 977 L466 984 L573 984 Q574 973 574.5 968.5 Q575 964 575 961 Z " />
<glyph glyph-name="ubreve" unicode="&#x16d;" horiz-adv-x="681" d="M225 -14 Q136 -14 90 43 Q44 100 44 212 L44 580 L259 580 L259 284 Q259 219 276 191 Q293 163 330 163 Q372 163 393.5 194 Q415 225 415 286 L415 580 L630 580 L630 0 L419 0 L419 119 L416 119 Q387 55 337.5 20.5 Q288 -14 225 -14 Z M524 790 Q524 719 473 675 Q422 631 341 631 Q253 631 201.5 673 Q150 715 150 786 Q150 790 150.5 795.5 Q151 801 152 813 L264 813 L264 802 Q264 773 285 757 Q306 741 342 741 Q377 741 396 756.5 Q415 772 415 801 L415 813 L522 813 Q523 802 523.5 797.5 Q524 793 524 790 Z " />
<glyph glyph-name="Uring" unicode="&#x16e;" horiz-adv-x="776" d="M269 774 L269 323 Q269 249 299 215 Q329 181 394 181 Q454 181 481 214.5 Q508 248 508 323 L508 774 L730 774 L730 316 Q730 151 645.5 68 Q561 -15 392 -15 Q217 -15 131.5 62.5 Q46 140 46 300 L46 774 L269 774 Z M511 932 Q511 875 477.5 841 Q444 807 387 807 Q332 807 298.5 841 Q265 875 265 931 Q265 986 300 1021.5 Q335 1057 390 1057 Q444 1057 477.5 1022.5 Q511 988 511 932 Z M337 931 Q337 904 351 888.5 Q365 873 389 873 Q414 873 427 888 Q440 903 440 931 Q440 960 427 976 Q414 992 390 992 Q366 992 351.5 975.5 Q337 959 337 931 Z " />
<glyph glyph-name="uring" unicode="&#x16f;" horiz-adv-x="681" d="M225 -14 Q136 -14 90 43 Q44 100 44 212 L44 580 L259 580 L259 284 Q259 219 276 191 Q293 163 330 163 Q372 163 393.5 194 Q415 225 415 286 L415 580 L630 580 L630 0 L419 0 L419 119 L416 119 Q387 55 337.5 20.5 Q288 -14 225 -14 Z M469 764 Q469 704 432.5 667 Q396 630 338 630 Q277 630 241 666 Q205 702 205 763 Q205 823 242.5 860.5 Q280 898 339 898 Q396 898 432.5 860.5 Q469 823 469 764 Z M286 763 Q286 736 300.5 719.5 Q315 703 338 703 Q362 703 375.5 719 Q389 735 389 763 Q389 792 375.5 808.5 Q362 825 339 825 Q315 825 300.5 808 Q286 791 286 763 Z " />
<glyph glyph-name="Uhungarumlaut" unicode="&#x170;" horiz-adv-x="776" d="M269 774 L269 323 Q269 249 299 215 Q329 181 394 181 Q454 181 481 214.5 Q508 248 508 323 L508 774 L730 774 L730 316 Q730 151 645.5 68 Q561 -15 392 -15 Q217 -15 131.5 62.5 Q46 140 46 300 L46 774 L269 774 Z M364 821 L243 821 L302 979 L442 979 L364 821 Z M532 821 L411 821 L471 979 L609 979 L532 821 Z " />
<glyph glyph-name="uhungarumlaut" unicode="&#x171;" horiz-adv-x="681" d="M225 -14 Q136 -14 90 43 Q44 100 44 212 L44 580 L259 580 L259 284 Q259 219 276 191 Q293 163 330 163 Q372 163 393.5 194 Q415 225 415 286 L415 580 L630 580 L630 0 L419 0 L419 119 L416 119 Q387 55 337.5 20.5 Q288 -14 225 -14 Z M308 626 L183 626 L252 817 L405 817 L308 626 Z M492 626 L367 626 L436 817 L589 817 L492 626 Z " />
<glyph glyph-name="Uogonek" unicode="&#x172;" horiz-adv-x="776" d="M550 -118 L550 -215 Q533 -222 509.5 -226 Q486 -230 459 -230 Q387 -230 346.5 -201 Q306 -172 306 -119 Q306 -84 325.5 -58.5 Q345 -33 385 -17 L385 -14 Q213 -12 129.5 65 Q46 142 46 300 L46 774 L269 774 L269 323 Q269 249 299 215 Q329 181 394 181 Q454 181 481 214.5 Q508 248 508 323 L508 774 L730 774 L730 316 Q730 195 685 118.5 Q640 42 551 10 Q503 -7 482.5 -26.5 Q462 -46 462 -76 Q462 -99 475 -110.5 Q488 -122 514 -122 Q522 -122 530.5 -121 Q539 -120 550 -118 Z " />
<glyph glyph-name="uogonek" unicode="&#x173;" horiz-adv-x="681" d="M225 -14 Q136 -14 90 43 Q44 100 44 212 L44 580 L259 580 L259 284 Q259 219 276 191 Q293 163 330 163 Q372 163 393.5 194 Q415 225 415 286 L415 580 L630 580 L630 0 Q590 -2 566.5 -22 Q543 -42 543 -73 Q543 -97 556 -109.5 Q569 -122 594 -122 Q602 -122 610 -121 Q618 -120 631 -118 L631 -215 Q614 -222 590.5 -226 Q567 -230 539 -230 Q467 -230 427 -201.5 Q387 -173 387 -119 Q387 -80 408.5 -50.5 Q430 -21 472 -2 L472 0 L419 0 L419 119 L416 119 Q387 55 337.5 20.5 Q288 -14 225 -14 Z " />
<glyph glyph-name="Wcircumflex" unicode="&#x174;" horiz-adv-x="1071" d="M194 0 L7 774 L222 774 L325 289 L433 774 L640 774 L760 286 L851 774 L1064 774 L883 0 L658 0 L535 516 L423 0 L194 0 Z M469 820 L335 820 L477 979 L594 979 L737 820 L603 820 L534 875 L469 820 Z " />
<glyph glyph-name="wcircumflex" unicode="&#x175;" horiz-adv-x="915" d="M751 0 L535 0 L460 335 L391 0 L171 0 L4 580 L224 580 L291 219 L374 580 L551 580 L637 213 L701 580 L911 580 L751 0 Z M394 628 L268 628 L402 819 L520 819 L656 628 L529 628 L459 702 L394 628 Z " />
<glyph glyph-name="Ycircumflex" unicode="&#x176;" horiz-adv-x="696" d="M498 774 L710 774 L465 286 L465 0 L243 0 L243 293 L-15 774 L221 774 L360 493 L498 774 Z M295 820 L161 820 L303 979 L420 979 L563 820 L429 820 L360 875 L295 820 Z " />
<glyph glyph-name="ycircumflex" unicode="&#x177;" horiz-adv-x="644" d="M639 580 L459 54 Q412 -83 344.5 -140 Q277 -197 159 -197 Q111 -197 64 -189.5 Q17 -182 -16 -170 L28 -1 Q55 -10 82 -15 Q109 -20 134 -20 Q160 -20 177 -14.5 Q194 -9 207 3 L3 580 L227 580 L328 218 L420 580 L639 580 Z M253 628 L127 628 L261 819 L379 819 L515 628 L388 628 L318 702 L253 628 Z " />
<glyph glyph-name="Ydieresis" unicode="&#x178;" horiz-adv-x="696" d="M498 774 L710 774 L465 286 L465 0 L243 0 L243 293 L-15 774 L221 774 L360 493 L498 774 Z M331 820 L159 820 L159 976 L331 976 L331 820 Z M564 820 L393 820 L393 976 L564 976 L564 820 Z " />
<glyph glyph-name="Zacute" unicode="&#x179;" horiz-adv-x="676" d="M403 597 L43 597 L43 774 L644 774 L644 591 L290 177 L653 177 L653 0 L31 0 L31 183 L403 597 Z M427 823 L271 823 L323 981 L505 981 L427 823 Z " />
<glyph glyph-name="zacute" unicode="&#x17a;" horiz-adv-x="578" d="M302 420 L40 420 L40 580 L547 580 L547 415 L282 159 L558 159 L558 0 L26 0 L26 165 L302 420 Z M362 629 L227 629 L299 820 L481 820 L362 629 Z " />
<glyph glyph-name="Zdotaccent" unicode="&#x17b;" horiz-adv-x="676" d="M403 597 L43 597 L43 774 L644 774 L644 591 L290 177 L653 177 L653 0 L31 0 L31 183 L403 597 Z M455 823 L242 823 L242 979 L455 979 L455 823 Z " />
<glyph glyph-name="zdotaccent" unicode="&#x17c;" horiz-adv-x="578" d="M302 420 L40 420 L40 580 L547 580 L547 415 L282 159 L558 159 L558 0 L26 0 L26 165 L302 420 Z M405 646 L185 646 L185 815 L405 815 L405 646 Z " />
<glyph glyph-name="Zcaron" unicode="&#x17d;" horiz-adv-x="676" d="M403 597 L43 597 L43 774 L644 774 L644 591 L290 177 L653 177 L653 0 L31 0 L31 183 L403 597 Z M415 979 L549 979 L408 820 L290 820 L147 979 L281 979 L351 924 L415 979 Z " />
<glyph glyph-name="zcaron" unicode="&#x17e;" horiz-adv-x="578" d="M302 420 L40 420 L40 580 L547 580 L547 415 L282 159 L558 159 L558 0 L26 0 L26 165 L302 420 Z M362 820 L488 820 L354 629 L236 629 L100 820 L227 820 L297 746 L362 820 Z " />
<glyph glyph-name="uni0192" unicode="&#x192;" horiz-adv-x="602" d="M177 276 L55 276 L55 417 L203 417 L224 526 Q249 662 314 724.5 Q379 787 495 787 Q528 787 567 780.5 Q606 774 641 763 L605 597 Q592 602 574 605 Q556 608 535 608 Q493 608 472.5 587.5 Q452 567 443 515 L425 417 L558 417 L558 276 L399 276 L359 62 Q334 -74 269 -136 Q204 -198 86 -198 Q51 -198 11.5 -192 Q-28 -186 -60 -175 L-22 -9 Q-5 -15 13 -18 Q31 -21 48 -21 Q89 -21 109 -0.5 Q129 20 139 73 L177 276 Z " />
<glyph glyph-name="AEacute" unicode="&#x1fc;" horiz-adv-x="1089" d="M736 176 L1059 176 L1059 0 L538 0 L521 128 L284 128 L231 0 L-1 0 L370 774 L1039 774 L1039 598 L680 598 L696 479 L1015 479 L1015 311 L718 311 L736 176 Z M464 560 L347 280 L501 280 L464 560 Z M732 823 L576 823 L628 981 L810 981 L732 823 Z " />
<glyph glyph-name="aeacute" unicode="&#x1fd;" horiz-adv-x="1001" d="M702 147 Q742 147 767.5 165 Q793 183 805 218 L985 177 Q956 86 881 35.5 Q806 -15 697 -15 Q608 -15 542 17 Q476 49 444 108 L442 108 Q407 49 348.5 17 Q290 -15 217 -15 Q124 -15 72 27 Q20 69 20 145 Q20 188 37 221.5 Q54 255 87 278 Q114 297 151.5 309 Q189 321 239 327 L311 335 Q350 340 368 353 Q386 366 386 389 Q386 410 371 422 Q356 434 330 434 Q296 434 275.5 414.5 Q255 395 249 357 L52 384 Q79 485 149.5 539.5 Q220 594 323 594 Q383 594 428.5 574.5 Q474 555 505 515 Q539 553 591 573.5 Q643 594 705 594 Q781 594 839.5 562.5 Q898 531 932 470 Q956 429 968 374.5 Q980 320 979 254 L593 254 Q596 203 624.5 175 Q653 147 702 147 Z M762 396 Q752 417 732.5 428.5 Q713 440 686 440 Q648 440 624 417.5 Q600 395 594 354 L772 354 Q771 366 769 376 Q767 386 762 396 Z M240 179 Q240 154 255.5 140 Q271 126 298 126 Q339 126 363.5 157.5 Q388 189 388 241 L388 258 Q382 255 374.5 252.5 Q367 250 354 247 L302 238 Q270 233 255 218.5 Q240 204 240 179 Z M584 628 L449 628 L521 819 L703 819 L584 628 Z " />
<glyph glyph-name="Oslashacute" unicode="&#x1fe;" horiz-adv-x="807" d="M126 -28 L38 56 L101 128 Q66 177 48.5 239.5 Q31 302 31 375 Q31 565 133.5 677 Q236 789 407 789 Q469 789 524.5 772.5 Q580 756 626 724 L682 788 L765 715 L705 645 Q740 595 757.5 531 Q775 467 775 392 Q775 205 674 95 Q573 -15 404 -15 Q343 -15 288.5 0 Q234 15 188 45 L126 -28 Z M296 543 Q277 516 267 475.5 Q257 435 257 383 Q257 358 259.5 337 Q262 316 267 298 L488 571 Q472 585 451.5 591.5 Q431 598 407 598 Q372 598 344 584 Q316 570 296 543 Z M510 225 Q529 251 539 291.5 Q549 332 549 385 Q549 408 547 430 Q545 452 541 472 L325 201 Q341 188 361.5 182 Q382 176 406 176 Q440 176 466.5 188.5 Q493 201 510 225 Z M485 823 L329 823 L381 981 L563 981 L485 823 Z " />
<glyph glyph-name="oslashacute" unicode="&#x1ff;" horiz-adv-x="672" d="M27 287 Q28 426 115 510.5 Q202 595 338 595 Q388 595 433.5 582.5 Q479 570 517 545 L572 603 L649 531 L592 472 Q618 435 631.5 389.5 Q645 344 645 293 Q645 148 561.5 66.5 Q478 -15 336 -15 Q283 -15 236 -2.5 Q189 10 151 34 L95 -25 L18 47 L76 107 Q52 143 39.5 188 Q27 233 27 287 Z M337 437 Q290 437 266 399.5 Q242 362 242 289 Q242 286 242 283 Q242 280 243 274 Q243 269 243 266 Q243 263 243 261 L393 417 Q382 427 368 432 Q354 437 337 437 Z M336 143 Q382 143 406 180 Q430 217 430 289 Q430 296 429.5 304 Q429 312 428 325 L279 165 Q290 154 304 148.5 Q318 143 336 143 Z M403 628 L268 628 L340 819 L522 819 L403 628 Z " />
<glyph glyph-name="uni0218" unicode="&#x218;" horiz-adv-x="701" d="M627 395 Q654 369 668 330.5 Q682 292 682 245 Q682 124 594.5 54.5 Q507 -15 356 -15 Q208 -15 117 40.5 Q26 96 -1 204 L206 260 Q219 210 259 184 Q299 158 361 158 Q409 158 435 176 Q461 194 461 228 Q461 252 439 265.5 Q417 279 334 291 Q276 300 244 307 Q212 314 183 323 Q151 333 127 346 Q103 359 85 377 Q56 406 42.5 442.5 Q29 479 29 527 Q29 647 116.5 718 Q204 789 348 789 Q477 789 561 732 Q645 675 676 566 L474 522 Q460 571 429.5 593.5 Q399 616 347 616 Q303 616 277.5 597.5 Q252 579 252 546 Q252 519 276.5 504 Q301 489 377 478 Q451 467 478.5 461 Q506 455 530 448 Q562 439 586 425.5 Q610 412 627 395 Z M344 -183 L269 -183 L269 -44 L437 -44 L437 -137 Q437 -229 402 -269.5 Q367 -310 283 -314 L257 -236 Q306 -235 324 -224 Q342 -213 344 -183 Z " />
<glyph glyph-name="uni0219" unicode="&#x219;" horiz-adv-x="601" d="M312 132 Q345 132 362.5 142.5 Q380 153 380 173 Q380 187 369.5 194 Q359 201 328 205 Q318 207 295 209.5 Q272 212 260 214 Q178 223 136.5 237 Q95 251 71 274 Q49 296 38.5 324.5 Q28 353 28 389 Q28 482 101 537.5 Q174 593 296 593 Q407 593 481 547 Q555 501 576 419 L383 388 Q378 417 355.5 432.5 Q333 448 296 448 Q266 448 249.5 437 Q233 426 233 406 Q233 391 242.5 383.5 Q252 376 279 372 Q290 370 314 367 Q338 364 344 363 Q435 352 478 338.5 Q521 325 546 301 Q566 281 576.5 253 Q587 225 587 189 Q587 96 512 41 Q437 -14 310 -14 Q182 -14 104 30.5 Q26 75 4 160 L209 195 Q216 163 242 147.5 Q268 132 312 132 Z M304 -183 L229 -183 L229 -44 L397 -44 L397 -137 Q397 -229 362 -269.5 Q327 -310 243 -314 L217 -236 Q266 -235 284 -224 Q302 -213 304 -183 Z " />
<glyph glyph-name="uni021A" unicode="&#x21a;" horiz-adv-x="693" d="M678 774 L678 598 L458 598 L458 0 L235 0 L235 598 L16 598 L16 774 L678 774 Z M335 -183 L260 -183 L260 -44 L428 -44 L428 -137 Q428 -229 393 -269.5 Q358 -310 274 -314 L248 -236 Q297 -235 315 -224 Q333 -213 335 -183 Z " />
<glyph glyph-name="uni021B" unicode="&#x21b;" horiz-adv-x="460" d="M385 149 Q397 149 410 150 Q423 151 437 153 L437 9 Q406 -3 370.5 -9 Q335 -15 299 -15 Q193 -15 143 33.5 Q93 82 93 185 L93 433 L-9 433 L-9 580 L99 580 L99 684 L308 760 L308 580 L438 580 L438 433 L308 433 L308 221 Q308 180 324.5 164.5 Q341 149 385 149 Z M271 -183 L196 -183 L196 -44 L364 -44 L364 -137 Q364 -229 329 -269.5 Q294 -310 210 -314 L184 -236 Q233 -235 251 -224 Q269 -213 271 -183 Z " />
<glyph glyph-name="uni0237" unicode="&#x237;" horiz-adv-x="318" d="M-38 -187 L-57 -42 Q-44 -44 -33 -45 Q-22 -46 -11 -46 Q23 -46 37 -31.5 Q51 -17 51 17 L51 580 L267 580 L267 16 Q267 -96 217 -147.5 Q167 -199 58 -199 Q33 -199 9 -196 Q-15 -193 -38 -187 Z " />
<glyph glyph-name="circumflex" unicode="&#x2c6;" horiz-adv-x="500" d="M182 627 L56 627 L190 818 L308 818 L444 627 L317 627 L247 701 L182 627 Z " />
<glyph glyph-name="caron" unicode="&#x2c7;" horiz-adv-x="500" d="M318 818 L444 818 L310 627 L192 627 L56 818 L183 818 L253 744 L318 818 Z " />
<glyph glyph-name="breve" unicode="&#x2d8;" horiz-adv-x="500" d="M437 791 Q437 720 386 676 Q335 632 254 632 Q166 632 114.5 674 Q63 716 63 787 Q63 791 63.5 796.5 Q64 802 65 814 L177 814 L177 803 Q177 774 198 758 Q219 742 255 742 Q290 742 309 757.5 Q328 773 328 802 L328 814 L435 814 Q436 803 436.5 798.5 Q437 794 437 791 Z " />
<glyph glyph-name="dotaccent" unicode="&#x2d9;" horiz-adv-x="500" d="M360 646 L140 646 L140 815 L360 815 L360 646 Z " />
<glyph glyph-name="ring" unicode="&#x2da;" horiz-adv-x="500" d="M382 765 Q382 705 345.5 668 Q309 631 251 631 Q190 631 154 667 Q118 703 118 764 Q118 824 155.5 861.5 Q193 899 252 899 Q309 899 345.5 861.5 Q382 824 382 765 Z M199 764 Q199 737 213.5 720.5 Q228 704 251 704 Q275 704 288.5 720 Q302 736 302 764 Q302 793 288.5 809.5 Q275 826 252 826 Q228 826 213.5 809 Q199 792 199 764 Z " />
<glyph glyph-name="ogonek" unicode="&#x2db;" horiz-adv-x="500" d="M335 -122 Q343 -122 351 -121 Q359 -120 372 -118 L372 -215 Q355 -222 331.5 -226 Q308 -230 281 -230 Q208 -230 168 -201.5 Q128 -173 128 -119 Q128 -80 149.5 -50.5 Q171 -21 213 -2 L213 23 L371 0 Q331 -2 307.5 -22 Q284 -42 284 -73 Q284 -97 297 -109.5 Q310 -122 335 -122 Z " />
<glyph glyph-name="tilde" unicode="&#x2dc;" horiz-adv-x="500" d="M166 811 Q188 811 210 804.5 Q232 798 270 778 Q296 765 307.5 761 Q319 757 328 757 Q345 757 352 769.5 Q359 782 358 812 L454 802 Q459 721 431 676 Q403 631 347 631 Q328 631 306.5 637.5 Q285 644 246 663 Q218 677 205.5 681 Q193 685 183 685 Q165 685 156.5 672 Q148 659 149 630 L48 640 Q44 720 75.5 765.5 Q107 811 166 811 Z " />
<glyph glyph-name="hungarumlaut" unicode="&#x2dd;" horiz-adv-x="500" d="M172 627 L47 627 L116 818 L269 818 L172 627 Z M356 627 L231 627 L300 818 L453 818 L356 627 Z " />
<glyph glyph-name="uni030F" unicode="&#x30f;" horiz-adv-x="500" d="M200 818 L269 627 L144 627 L47 818 L200 818 Z M384 818 L453 627 L328 627 L231 818 L384 818 Z " />
<glyph glyph-name="uni0311" unicode="&#x311;" horiz-adv-x="500" d="M63 654 Q63 725 114 769 Q165 813 247 813 Q334 813 385.5 771 Q437 729 437 657 Q437 654 436.5 648.5 Q436 643 435 631 L323 631 L323 641 Q323 670 302.5 686 Q282 702 246 702 Q210 702 191 687 Q172 672 172 643 L172 631 L65 631 Q64 644 63.5 647.5 Q63 651 63 654 Z " />
<glyph glyph-name="uni0323" unicode="&#x323;" horiz-adv-x="500" d="M360 -225 L140 -225 L140 -56 L360 -56 L360 -225 Z " />
<glyph glyph-name="uni03A9" unicode="&#x3a9;" horiz-adv-x="828" d="M53 476 Q55 614 155.5 701.5 Q256 789 413 789 Q572 789 673 701.5 Q774 614 774 476 Q774 377 721 311 Q668 245 569 217 L569 181 L792 181 L792 0 L445 0 L445 287 Q499 304 526 340.5 Q553 377 553 434 Q553 502 515.5 541.5 Q478 581 413 581 Q349 581 311.5 541.5 Q274 502 274 434 Q274 379 301 342 Q328 305 381 287 L381 0 L35 0 L35 181 L258 181 L258 216 Q159 245 106.5 311.5 Q54 378 53 476 Z " />
<glyph glyph-name="pi" unicode="&#x3c0;" horiz-adv-x="736" d="M77 395 L13 395 L13 580 L723 580 L723 395 L659 395 L659 0 L443 0 L443 395 L293 395 L293 0 L77 0 L77 395 Z " />
<glyph glyph-name="uni0E3F" unicode="&#xe3f;" horiz-adv-x="753" d="M301 0 L58 0 L58 774 L301 774 L301 898 L463 898 L463 773 Q585 765 645.5 718 Q706 671 706 585 Q706 521 668 474.5 Q630 428 559 406 L559 404 Q645 387 690.5 339.5 Q736 292 736 221 Q736 118 667 62.5 Q598 7 463 1 L463 -145 L301 -145 L301 0 Z M485 538 Q485 573 460.5 589.5 Q436 606 383 606 L281 606 L281 465 L384 465 Q436 465 460.5 482.5 Q485 500 485 538 Z M509 244 Q509 281 482.5 298.5 Q456 316 397 316 L281 316 L281 168 L401 168 Q456 168 482.5 186.5 Q509 205 509 244 Z " />
<glyph glyph-name="Wgrave" unicode="&#x1e80;" horiz-adv-x="1071" d="M194 0 L7 774 L222 774 L325 289 L433 774 L640 774 L760 286 L851 774 L1064 774 L883 0 L658 0 L535 516 L423 0 L194 0 Z M562 981 L614 823 L458 823 L380 981 L562 981 Z " />
<glyph glyph-name="wgrave" unicode="&#x1e81;" horiz-adv-x="915" d="M751 0 L535 0 L460 335 L391 0 L171 0 L4 580 L224 580 L291 219 L374 580 L551 580 L637 213 L701 580 L911 580 L751 0 Z M457 819 L529 628 L394 628 L275 819 L457 819 Z " />
<glyph glyph-name="Wacute" unicode="&#x1e82;" horiz-adv-x="1071" d="M194 0 L7 774 L222 774 L325 289 L433 774 L640 774 L760 286 L851 774 L1064 774 L883 0 L658 0 L535 516 L423 0 L194 0 Z M613 823 L457 823 L509 981 L691 981 L613 823 Z " />
<glyph glyph-name="wacute" unicode="&#x1e83;" horiz-adv-x="915" d="M751 0 L535 0 L460 335 L391 0 L171 0 L4 580 L224 580 L291 219 L374 580 L551 580 L637 213 L701 580 L911 580 L751 0 Z M529 628 L394 628 L466 819 L648 819 L529 628 Z " />
<glyph glyph-name="Wdieresis" unicode="&#x1e84;" horiz-adv-x="1071" d="M194 0 L7 774 L222 774 L325 289 L433 774 L640 774 L760 286 L851 774 L1064 774 L883 0 L658 0 L535 516 L423 0 L194 0 Z M505 820 L333 820 L333 976 L505 976 L505 820 Z M738 820 L567 820 L567 976 L738 976 L738 820 Z " />
<glyph glyph-name="wdieresis" unicode="&#x1e85;" horiz-adv-x="915" d="M751 0 L535 0 L460 335 L391 0 L171 0 L4 580 L224 580 L291 219 L374 580 L551 580 L637 213 L701 580 L911 580 L751 0 Z M433 639 L261 639 L261 795 L433 795 L433 639 Z M662 639 L490 639 L490 795 L662 795 L662 639 Z " />
<glyph glyph-name="uni1E9E" unicode="&#x1e9e;" horiz-adv-x="822" d="M403 303 L327 409 L508 597 L447 597 Q349 597 306.5 550.5 Q264 504 264 393 L264 0 L41 0 L41 396 Q41 583 140.5 678.5 Q240 774 435 774 L740 774 L740 598 L580 431 Q687 423 747.5 370 Q808 317 808 230 Q808 114 732 49.5 Q656 -15 524 -15 Q462 -15 404.5 -3.5 Q347 8 306 28 L365 209 Q391 195 426 186.5 Q461 178 494 178 Q541 178 566 196 Q591 214 591 248 Q591 284 564 303 Q537 322 485 322 Q462 322 441 317 Q420 312 403 303 Z " />
<glyph glyph-name="Ygrave" unicode="&#x1ef2;" horiz-adv-x="696" d="M498 774 L710 774 L465 286 L465 0 L243 0 L243 293 L-15 774 L221 774 L360 493 L498 774 Z M388 981 L440 823 L284 823 L206 981 L388 981 Z " />
<glyph glyph-name="ygrave" unicode="&#x1ef3;" horiz-adv-x="644" d="M639 580 L459 54 Q412 -83 344.5 -140 Q277 -197 159 -197 Q111 -197 64 -189.5 Q17 -182 -16 -170 L28 -1 Q55 -10 82 -15 Q109 -20 134 -20 Q160 -20 177 -14.5 Q194 -9 207 3 L3 580 L227 580 L328 218 L420 580 L639 580 Z M316 819 L388 628 L253 628 L134 819 L316 819 Z " />
<glyph glyph-name="uni200B" unicode="&#x200b;" d="" />
<glyph glyph-name="figuredash" unicode="&#x2012;" horiz-adv-x="636" d="M586 270 L50 270 L50 392 L586 392 L586 270 Z " />
<glyph glyph-name="endash" unicode="&#x2013;" horiz-adv-x="749" d="M697 270 L53 270 L53 392 L697 392 L697 270 Z " />
<glyph glyph-name="emdash" unicode="&#x2014;" horiz-adv-x="929" d="M876 270 L53 270 L53 392 L876 392 L876 270 Z " />
<glyph glyph-name="uni2015" unicode="&#x2015;" horiz-adv-x="722" d="M670 270 L53 270 L53 392 L670 392 L670 270 Z " />
<glyph glyph-name="uni2016" unicode="&#x2016;" horiz-adv-x="495" d="M56 -231 L56 815 L207 815 L207 -231 L56 -231 Z M288 -231 L288 815 L439 815 L439 -231 L288 -231 Z " />
<glyph glyph-name="underscoredbl" unicode="&#x2017;" horiz-adv-x="540" d="M487 -123 L53 -123 L53 -33 L487 -33 L487 -123 Z M487 -243 L53 -243 L53 -153 L487 -153 L487 -243 Z " />
<glyph glyph-name="quoteleft" unicode="&#x2018;" horiz-adv-x="251" d="M136 624 L223 624 L223 445 L28 445 L28 583 Q28 682 69.5 729 Q111 776 207 784 L235 693 Q177 692 156.5 678 Q136 664 136 624 Z " />
<glyph glyph-name="quoteright" unicode="&#x2019;" horiz-adv-x="251" d="M115 595 L28 595 L28 774 L223 774 L223 635 Q223 536 181.5 489.5 Q140 443 44 435 L16 526 Q74 527 94.5 541 Q115 555 115 595 Z " />
<glyph glyph-name="quotesinglbase" unicode="&#x201a;" horiz-adv-x="251" d="M115 0 L28 0 L28 179 L223 179 L223 40 Q223 -59 181.5 -105.5 Q140 -152 44 -160 L16 -69 Q74 -68 94.5 -54 Q115 -40 115 0 Z " />
<glyph glyph-name="quotedblleft" unicode="&#x201c;" horiz-adv-x="488" d="M136 624 L223 624 L223 445 L28 445 L28 583 Q28 682 69.5 729 Q111 776 207 784 L235 693 Q177 692 156.5 678 Q136 664 136 624 Z M373 624 L460 624 L460 445 L265 445 L265 583 Q265 682 306.5 729 Q348 776 444 784 L472 693 Q414 692 393.5 678 Q373 664 373 624 Z " />
<glyph glyph-name="quotedblright" unicode="&#x201d;" horiz-adv-x="488" d="M115 595 L28 595 L28 774 L223 774 L223 635 Q223 536 181.5 489.5 Q140 443 44 435 L16 526 Q74 527 94.5 541 Q115 555 115 595 Z M352 595 L265 595 L265 774 L460 774 L460 635 Q460 536 418.5 489.5 Q377 443 281 435 L253 526 Q311 527 331.5 541 Q352 555 352 595 Z " />
<glyph glyph-name="quotedblbase" unicode="&#x201e;" horiz-adv-x="488" d="M115 0 L28 0 L28 179 L223 179 L223 40 Q223 -59 181.5 -105.5 Q140 -152 44 -160 L16 -69 Q74 -68 94.5 -54 Q115 -40 115 0 Z M352 0 L265 0 L265 179 L460 179 L460 40 Q460 -59 418.5 -105.5 Q377 -152 281 -160 L253 -69 Q311 -68 331.5 -54 Q352 -40 352 0 Z " />
<glyph glyph-name="dagger" unicode="&#x2020;" horiz-adv-x="466" d="M157 506 L42 506 L42 633 L157 633 L157 774 L308 774 L308 633 L424 633 L424 506 L308 506 L308 160 L157 160 L157 506 Z " />
<glyph glyph-name="daggerdbl" unicode="&#x2021;" horiz-adv-x="466" d="M157 301 L42 301 L42 425 L160 425 L160 509 L42 509 L42 633 L157 633 L157 774 L308 774 L308 633 L424 633 L424 509 L304 509 L304 425 L424 425 L424 301 L308 301 L308 160 L157 160 L157 301 Z " />
<glyph glyph-name="bullet" unicode="&#x2022;" horiz-adv-x="325" d="M276 330 Q276 282 243.5 249.5 Q211 217 163 217 Q116 217 82.5 250 Q49 283 49 330 Q49 379 82 411.5 Q115 444 163 444 Q212 444 244 412 Q276 380 276 330 Z " />
<glyph glyph-name="ellipsis" unicode="&#x2026;" horiz-adv-x="723" d="M218 0 L28 0 L28 183 L218 183 L218 0 Z M695 0 L505 0 L505 183 L695 183 L695 0 Z M456 0 L267 0 L267 183 L456 183 L456 0 Z " />
<glyph glyph-name="perthousand" unicode="&#x2030;" horiz-adv-x="1373" d="M241 380 Q158 380 106 432.5 Q54 485 54 576 Q54 672 105.5 727.5 Q157 783 241 783 Q324 783 376.5 728 Q429 673 429 579 Q429 489 375.5 434.5 Q322 380 241 380 Z M680 774 L828 774 L274 0 L117 0 L680 774 Z M241 675 Q212 675 196 650 Q180 625 180 579 Q180 536 196 512 Q212 488 241 488 Q271 488 286.5 511.5 Q302 535 302 579 Q302 625 286 650 Q270 675 241 675 Z M710 -8 Q627 -8 575 44.5 Q523 97 523 188 Q523 284 574.5 339.5 Q626 395 710 395 Q793 395 845.5 340 Q898 285 898 191 Q898 101 844.5 46.5 Q791 -8 710 -8 Z M1132 -8 Q1048 -8 996 44.5 Q944 97 944 188 Q944 284 996 339.5 Q1048 395 1132 395 Q1215 395 1267 340 Q1319 285 1319 191 Q1319 101 1266 46.5 Q1213 -8 1132 -8 Z M710 100 Q740 100 755.5 123.5 Q771 147 771 191 Q771 236 755 261 Q739 286 710 286 Q681 286 665 261 Q649 236 649 191 Q649 148 665 124 Q681 100 710 100 Z M1132 100 Q1161 100 1176.5 123.5 Q1192 147 1192 191 Q1192 236 1176 261 Q1160 286 1132 286 Q1103 286 1086.5 261 Q1070 236 1070 191 Q1070 148 1086.5 124 Q1103 100 1132 100 Z " />
<glyph glyph-name="uni2032" unicode="&#x2032;" horiz-adv-x="255" d="M26 464 L73 774 L237 774 L131 464 L26 464 Z " />
<glyph glyph-name="uni2033" unicode="&#x2033;" horiz-adv-x="463" d="M26 464 L73 774 L237 774 L131 464 L26 464 Z M235 464 L282 774 L446 774 L340 464 L235 464 Z " />
<glyph glyph-name="uni2034" unicode="&#x2034;" horiz-adv-x="670" d="M84 468 L54 774 L218 774 L188 468 L84 468 Z M283 468 L253 774 L417 774 L387 468 L283 468 Z M482 468 L452 774 L616 774 L586 468 L482 468 Z " />
<glyph glyph-name="guilsinglleft" unicode="&#x2039;" horiz-adv-x="289" d="M131 506 L295 507 L157 294 L297 74 L132 74 L-8 290 L131 506 Z " />
<glyph glyph-name="guilsinglright" unicode="&#x203a;" horiz-adv-x="289" d="M157 507 L297 290 L158 74 L-6 74 L133 286 L-8 507 L157 507 Z " />
<glyph glyph-name="exclamdbl" unicode="&#x203c;" horiz-adv-x="607" d="M43 542 L43 774 L260 774 L260 542 L219 239 L84 239 L43 542 Z M252 0 L52 0 L52 183 L252 183 L252 0 Z M346 542 L346 774 L563 774 L563 542 L522 239 L387 239 L346 542 Z M555 0 L355 0 L355 183 L555 183 L555 0 Z " />
<glyph glyph-name="uni203D" unicode="&#x203d;" horiz-adv-x="623" d="M435 313 Q407 295 398 281.5 Q389 268 389 249 L389 240 L246 240 L239 607 Q215 591 201 560.5 Q187 530 183 484 L-8 514 Q13 646 99.5 717.5 Q186 789 323 789 Q454 789 536 725 Q618 661 618 559 Q618 498 592.5 451.5 Q567 405 506 359 Q499 354 481 342 Q463 330 435 313 Z M401 461 Q411 475 415 491.5 Q419 508 419 528 Q419 560 406.5 581 Q394 602 369 613 L358 406 Q364 414 379.5 432 Q395 450 401 461 Z M414 0 L214 0 L214 183 L414 183 L414 0 Z " />
<glyph glyph-name="fraction" unicode="&#x2044;" horiz-adv-x="234" d="M325 774 L473 774 L-81 0 L-238 0 L325 774 Z " />
<glyph glyph-name="uni2070" unicode="&#x2070;" horiz-adv-x="396" d="M197 455 Q109 455 63 507.5 Q17 560 17 660 Q17 753 67.5 807 Q118 861 202 861 Q283 861 330.5 807.5 Q378 754 378 660 Q378 564 329.5 509.5 Q281 455 197 455 Z M198 559 Q223 559 235.5 583.5 Q248 608 248 656 Q248 707 236 732 Q224 757 199 757 Q172 757 160 732.5 Q148 708 148 656 Q148 608 160.5 583.5 Q173 559 198 559 Z " />
<glyph glyph-name="uni2074" unicode="&#x2074;" horiz-adv-x="368" d="M361 626 L361 531 L306 531 L306 463 L178 463 L178 531 L13 531 L13 630 L187 854 L306 854 L306 626 L361 626 Z M188 738 L107 626 L188 626 L188 738 Z " />
<glyph glyph-name="uni2075" unicode="&#x2075;" horiz-adv-x="369" d="M243 733 Q296 733 326.5 699.5 Q357 666 357 608 Q357 538 312.5 496.5 Q268 455 193 455 Q118 455 71.5 490 Q25 525 14 590 L133 614 Q138 584 150 570.5 Q162 557 185 557 Q207 557 218.5 571.5 Q230 586 230 613 Q230 641 219.5 654.5 Q209 668 187 668 Q170 668 158 660 Q146 652 138 636 L32 646 L63 854 L333 854 L333 757 L158 757 L148 693 L150 693 Q167 713 190.5 723 Q214 733 243 733 Z " />
<glyph glyph-name="uni2076" unicode="&#x2076;" horiz-adv-x="374" d="M199 455 Q109 455 61.5 506 Q14 557 14 654 Q14 750 67.5 806 Q121 862 214 862 Q265 862 305.5 839.5 Q346 817 365 780 L253 729 Q245 743 234.5 749.5 Q224 756 209 756 Q177 756 160 731.5 Q143 707 142 658 L144 658 Q160 685 186.5 699 Q213 713 249 713 Q301 713 332.5 681.5 Q364 650 364 597 Q364 533 318.5 494 Q273 455 199 455 Z M198 645 Q177 645 165.5 632.5 Q154 620 154 599 Q154 577 165.5 564.5 Q177 552 197 552 Q216 552 227 565 Q238 578 238 600 Q238 621 227.5 633 Q217 645 198 645 Z " />
<glyph glyph-name="uni2077" unicode="&#x2077;" horiz-adv-x="320" d="M224 645 Q220 621 218.5 589 Q217 557 217 479 L217 463 L82 463 L82 479 Q82 572 108 639 Q134 706 186 745 L7 745 L7 854 L313 854 L313 776 Q274 758 253 727 Q232 696 224 645 Z " />
<glyph glyph-name="uni2078" unicode="&#x2078;" horiz-adv-x="398" d="M379 576 Q379 519 330.5 487 Q282 455 198 455 Q113 455 66 485.5 Q19 516 19 572 Q19 604 39.5 628 Q60 652 99 665 L99 668 Q69 680 53.5 700 Q38 720 38 748 Q38 800 82 830 Q126 860 201 860 Q276 860 318.5 831.5 Q361 803 361 753 Q361 725 345 704 Q329 683 299 669 L299 667 Q338 655 358.5 632 Q379 609 379 576 Z M243 731 Q243 749 231 759.5 Q219 770 199 770 Q179 770 167 759 Q155 748 155 729 Q155 710 167 699.5 Q179 689 200 689 Q220 689 231.5 700 Q243 711 243 731 Z M150 589 Q150 569 163 558 Q176 547 200 547 Q223 547 235.5 558.5 Q248 570 248 591 Q248 610 234.5 621 Q221 632 199 632 Q177 632 163.5 620.5 Q150 609 150 589 Z " />
<glyph glyph-name="uni2079" unicode="&#x2079;" horiz-adv-x="383" d="M181 861 Q267 861 315.5 808.5 Q364 756 364 664 Q364 566 314.5 510.5 Q265 455 176 455 Q120 455 74.5 477.5 Q29 500 11 538 L122 594 Q129 579 142 571.5 Q155 564 174 564 Q204 564 219 587 Q234 610 236 660 L233 660 Q218 635 191.5 622 Q165 609 130 609 Q79 609 47.5 640.5 Q16 672 16 724 Q16 786 61 823.5 Q106 861 181 861 Z M182 677 Q202 677 213 689 Q224 701 224 721 Q224 743 213.5 754.5 Q203 766 183 766 Q163 766 151.5 754 Q140 742 140 721 Q140 700 151 688.5 Q162 677 182 677 Z " />
<glyph glyph-name="uni207A" unicode="&#x207a;" horiz-adv-x="262" d="M92 597 L26 597 L26 673 L92 673 L92 739 L171 739 L171 673 L236 673 L236 597 L171 597 L171 535 L92 535 L92 597 Z " />
<glyph glyph-name="uni207B" unicode="&#x207b;" horiz-adv-x="262" d="M236 597 L26 597 L26 673 L236 673 L236 597 Z " />
<glyph glyph-name="uni207C" unicode="&#x207c;" horiz-adv-x="262" d="M236 643 L26 643 L26 719 L236 719 L236 643 Z M236 541 L26 541 L26 618 L236 618 L236 541 Z " />
<glyph glyph-name="uni207D" unicode="&#x207d;" horiz-adv-x="215" d="M14 636 Q14 720 46 795 Q78 870 132 920 L231 920 Q174 839 152.5 775.5 Q131 712 131 636 Q131 561 153 498 Q175 435 231 354 L132 354 Q79 402 46.5 477 Q14 552 14 636 Z " />
<glyph glyph-name="uni207E" unicode="&#x207e;" horiz-adv-x="216" d="M202 637 Q202 553 169.5 477.5 Q137 402 83 354 L-15 354 Q42 437 63.5 500 Q85 563 85 637 Q85 711 63.5 774 Q42 837 -15 920 L83 920 Q137 870 169.5 795 Q202 720 202 637 Z " />
<glyph glyph-name="uni2080" unicode="&#x2080;" horiz-adv-x="396" d="M197 -88 Q109 -88 63 -35.5 Q17 17 17 117 Q17 210 67.5 264 Q118 318 202 318 Q283 318 330.5 264.5 Q378 211 378 117 Q378 21 329.5 -33.5 Q281 -88 197 -88 Z M198 16 Q223 16 235.5 40.5 Q248 65 248 113 Q248 164 236 189 Q224 214 199 214 Q172 214 160 189.5 Q148 165 148 113 Q148 65 160.5 40.5 Q173 16 198 16 Z " />
<glyph glyph-name="uni2081" unicode="&#x2081;" horiz-adv-x="246" d="M6 176 L6 267 L76 267 Q98 267 105 272.5 Q112 278 113 297 L114 311 L214 311 L214 -80 L87 -80 L87 176 L6 176 Z " />
<glyph glyph-name="uni2082" unicode="&#x2082;" horiz-adv-x="372" d="M220 171 Q220 188 211 197.5 Q202 207 185 207 Q162 207 150.5 187.5 Q139 168 140 131 L20 150 Q24 229 70 273.5 Q116 318 193 318 Q265 318 307 282.5 Q349 247 349 186 Q349 146 326 112.5 Q303 79 244 37 L216 18 L352 18 L352 -80 L22 -80 L22 -6 L143 78 Q191 112 205.5 130.5 Q220 149 220 171 Z " />
<glyph glyph-name="uni2083" unicode="&#x2083;" horiz-adv-x="347" d="M207 194 Q207 208 198.5 215.5 Q190 223 173 223 Q154 223 142.5 211 Q131 199 127 174 L20 195 Q35 254 78.5 286.5 Q122 319 186 319 Q251 319 289.5 289.5 Q328 260 328 211 Q328 181 312 159 Q296 137 266 125 L266 123 Q302 111 320 89 Q338 67 338 33 Q338 -22 295.5 -55 Q253 -88 182 -88 Q107 -88 62 -54.5 Q17 -21 7 43 L119 66 Q124 37 137 23.5 Q150 10 174 10 Q195 10 205.5 19.5 Q216 29 216 47 Q216 65 203.5 73.5 Q191 82 164 82 L117 82 L117 160 L158 160 Q182 160 194.5 168.5 Q207 177 207 194 Z " />
<glyph glyph-name="uni2084" unicode="&#x2084;" horiz-adv-x="368" d="M361 83 L361 -12 L306 -12 L306 -80 L178 -80 L178 -12 L13 -12 L13 87 L187 311 L306 311 L306 83 L361 83 Z M188 195 L107 83 L188 83 L188 195 Z " />
<glyph glyph-name="uni2085" unicode="&#x2085;" horiz-adv-x="369" d="M243 190 Q296 190 326.5 156.5 Q357 123 357 65 Q357 -5 312.5 -46.5 Q268 -88 193 -88 Q118 -88 71.5 -53 Q25 -18 14 47 L133 71 Q138 41 150 27.5 Q162 14 185 14 Q207 14 218.5 28.5 Q230 43 230 70 Q230 98 219.5 111.5 Q209 125 187 125 Q170 125 158 117 Q146 109 138 93 L32 103 L63 311 L333 311 L333 214 L158 214 L148 150 L150 150 Q167 170 190.5 180 Q214 190 243 190 Z " />
<glyph glyph-name="uni2086" unicode="&#x2086;" horiz-adv-x="374" d="M199 -88 Q109 -88 61.5 -37 Q14 14 14 111 Q14 207 67.5 263 Q121 319 214 319 Q265 319 305.5 296.5 Q346 274 365 237 L253 186 Q245 200 234.5 206.5 Q224 213 209 213 Q177 213 160 188.5 Q143 164 142 115 L144 115 Q160 142 186.5 156 Q213 170 249 170 Q301 170 332.5 138.5 Q364 107 364 54 Q364 -10 318.5 -49 Q273 -88 199 -88 Z M198 102 Q177 102 165.5 89.5 Q154 77 154 56 Q154 34 165.5 21.5 Q177 9 197 9 Q216 9 227 22 Q238 35 238 57 Q238 78 227.5 90 Q217 102 198 102 Z " />
<glyph glyph-name="uni2087" unicode="&#x2087;" horiz-adv-x="320" d="M224 102 Q220 78 218.5 46 Q217 14 217 -64 L217 -80 L82 -80 L82 -64 Q82 29 108 96 Q134 163 186 202 L7 202 L7 311 L313 311 L313 233 Q274 215 253 184 Q232 153 224 102 Z " />
<glyph glyph-name="uni2088" unicode="&#x2088;" horiz-adv-x="398" d="M379 33 Q379 -24 330.5 -56 Q282 -88 198 -88 Q113 -88 66 -57.5 Q19 -27 19 29 Q19 61 39.5 85 Q60 109 99 122 L99 125 Q69 137 53.5 157 Q38 177 38 205 Q38 257 82 287 Q126 317 201 317 Q276 317 318.5 288.5 Q361 260 361 210 Q361 182 345 161 Q329 140 299 126 L299 124 Q338 112 358.5 89 Q379 66 379 33 Z M243 188 Q243 206 231 216.5 Q219 227 199 227 Q179 227 167 216 Q155 205 155 186 Q155 167 167 156.5 Q179 146 200 146 Q220 146 231.5 157 Q243 168 243 188 Z M150 46 Q150 26 163 15 Q176 4 200 4 Q223 4 235.5 15.5 Q248 27 248 48 Q248 67 234.5 78 Q221 89 199 89 Q177 89 163.5 77.5 Q150 66 150 46 Z " />
<glyph glyph-name="uni2089" unicode="&#x2089;" horiz-adv-x="383" d="M181 318 Q267 318 315.5 265.5 Q364 213 364 121 Q364 23 314.5 -32.5 Q265 -88 176 -88 Q120 -88 74.5 -65.5 Q29 -43 11 -5 L122 51 Q129 36 142 28.5 Q155 21 174 21 Q204 21 219 44 Q234 67 236 117 L233 117 Q218 92 191.5 79 Q165 66 130 66 Q79 66 47.5 97.5 Q16 129 16 181 Q16 243 61 280.5 Q106 318 181 318 Z M182 134 Q202 134 213 146 Q224 158 224 178 Q224 200 213.5 211.5 Q203 223 183 223 Q163 223 151.5 211 Q140 199 140 178 Q140 157 151 145.5 Q162 134 182 134 Z " />
<glyph glyph-name="uni208A" unicode="&#x208a;" horiz-adv-x="262" d="M92 83 L26 83 L26 159 L92 159 L92 225 L171 225 L171 159 L236 159 L236 83 L171 83 L171 21 L92 21 L92 83 Z " />
<glyph glyph-name="uni208B" unicode="&#x208b;" horiz-adv-x="262" d="M236 83 L26 83 L26 159 L236 159 L236 83 Z " />
<glyph glyph-name="uni208C" unicode="&#x208c;" horiz-adv-x="262" d="M236 129 L26 129 L26 205 L236 205 L236 129 Z M236 27 L26 27 L26 104 L236 104 L236 27 Z " />
<glyph glyph-name="uni208D" unicode="&#x208d;" horiz-adv-x="215" d="M14 122 Q14 206 46 281 Q78 356 132 406 L231 406 Q174 325 152.5 261.5 Q131 198 131 122 Q131 47 153 -16 Q175 -79 231 -160 L132 -160 Q79 -112 46.5 -37 Q14 38 14 122 Z " />
<glyph glyph-name="uni208E" unicode="&#x208e;" horiz-adv-x="216" d="M202 123 Q202 39 169.5 -36.5 Q137 -112 83 -160 L-15 -160 Q42 -77 63.5 -14 Q85 49 85 123 Q85 197 63.5 260 Q42 323 -15 406 L83 406 Q137 356 169.5 281 Q202 206 202 123 Z " />
<glyph glyph-name="uni20A1" unicode="&#x20a1;" horiz-adv-x="796" d="M156 -54 L78 -15 L134 93 Q84 145 57.5 217 Q31 289 31 375 Q31 562 137.5 675.5 Q244 789 414 789 Q435 789 457.5 786.5 Q480 784 506 779 L553 870 L632 831 L589 748 Q596 745 603.5 740.5 Q611 736 626 726 L672 816 L750 775 L434 168 Q483 173 517 208.5 Q551 244 575 315 L778 272 Q743 132 649.5 58.5 Q556 -15 412 -15 Q391 -15 370 -13 Q349 -11 327 -7 L275 -109 L197 -70 L243 18 Q238 20 228.5 25 Q219 30 204 38 L156 -54 Z M256 380 Q256 363 258 346 Q260 329 264 313 L415 603 Q343 603 299.5 542.5 Q256 482 256 380 Z M502 581 L313 217 Q319 208 327.5 200.5 Q336 193 345 187 L538 557 Q529 564 520 570 Q511 576 502 581 Z " />
<glyph glyph-name="uni20A2" unicode="&#x20a2;" horiz-adv-x="776" d="M413 -15 Q235 -15 133 88.5 Q31 192 31 376 Q31 563 137.5 676 Q244 789 416 789 Q542 789 628 727.5 Q714 666 754 547 L557 488 Q545 548 506.5 580 Q468 612 409 612 Q324 612 278.5 551 Q233 490 233 375 Q233 310 249.5 262.5 Q266 215 299 188 L299 465 L479 465 L479 327 L482 327 Q504 408 542 443.5 Q580 479 640 479 Q656 479 669.5 476.5 Q683 474 694 469 L694 302 Q668 307 649 309 Q630 311 612 311 Q577 311 553.5 302 Q530 293 515 274 Q500 256 492 229 Q484 202 482 163 Q516 176 539.5 203.5 Q563 231 578 278 L762 240 Q734 119 642 52 Q550 -15 413 -15 Z " />
<glyph glyph-name="franc" unicode="&#x20a3;" horiz-adv-x="669" d="M65 123 L-25 123 L-25 253 L65 253 L65 774 L643 774 L643 599 L288 599 L288 508 L605 508 L605 341 L288 341 L288 253 L529 253 L529 123 L288 123 L288 0 L65 0 L65 123 Z " />
<glyph glyph-name="lira" unicode="&#x20a4;" horiz-adv-x="742" d="M181 246 L14 246 L14 336 L137 336 Q132 346 130 349 Q128 352 127 355 L14 355 L14 445 L86 445 Q82 462 80 479 Q78 496 78 512 Q78 639 163.5 714 Q249 789 393 789 Q535 789 615 714 Q695 639 702 500 L471 472 Q470 532 449.5 560 Q429 588 385 588 Q338 588 314 558.5 Q290 529 290 471 L290 445 L535 445 L535 355 L300 355 Q300 353 300.5 351.5 Q301 350 302 346 Q303 341 303.5 339.5 Q304 338 304 336 L535 336 L535 246 L329 246 Q331 237 331.5 228 Q332 219 332 210 Q332 204 332 201 Q332 198 331 195 Q375 178 408 171.5 Q441 165 476 165 Q521 165 540 184 Q559 203 561 253 L562 275 L722 275 Q726 253 728 231 Q730 209 730 191 Q730 94 674 41 Q618 -12 520 -12 Q466 -12 416.5 6.5 Q367 25 300 75 Q277 34 239.5 12 Q202 -10 154 -10 Q91 -10 54.5 22 Q18 54 18 107 Q18 165 59 199.5 Q100 234 171 234 Q177 234 180 234 Q183 234 186 233 Q185 236 184 239.5 Q183 243 181 246 Z M158 148 Q138 148 127 139 Q116 130 116 114 Q116 99 125 91 Q134 83 152 83 Q172 83 183.5 97.5 Q195 112 198 141 Q188 144 177.5 146 Q167 148 158 148 Z " />
<glyph glyph-name="uni20A6" unicode="&#x20a6;" horiz-adv-x="831" d="M70 329 L-18 329 L-18 470 L70 470 L70 774 L302 774 L566 328 L566 774 L761 774 L761 470 L848 470 L848 329 L761 329 L761 0 L546 0 L265 466 L265 0 L70 0 L70 329 Z " />
<glyph glyph-name="peseta" unicode="&#x20a7;" horiz-adv-x="768" d="M70 438 L-18 438 L-18 578 L70 578 L70 774 L401 774 Q534 774 613.5 723.5 Q693 673 710 578 L788 578 L788 438 L704 438 Q679 345 598 296 Q517 247 386 247 L292 247 L292 0 L70 0 L70 438 Z M382 607 L292 607 L292 561 L482 561 Q471 584 445.5 595.5 Q420 607 382 607 Z M292 407 L384 407 Q422 407 446.5 419 Q471 431 483 456 L292 456 L292 407 Z " />
<glyph glyph-name="uni20A8" unicode="&#x20a8;" horiz-adv-x="953" d="M326 148 Q321 231 311.5 250 Q302 269 273 269 L232 269 L232 0 L64 0 L64 774 L305 774 Q413 774 470 717.5 Q527 661 527 554 Q527 473 489.5 416.5 Q452 360 387 344 L387 341 Q435 330 457 296 Q479 262 490 181 Q500 107 507.5 71 Q515 35 525 5 L525 0 L344 0 Q338 19 334 50 Q330 81 326 148 Z M357 521 Q357 572 338 594 Q319 616 276 616 L232 616 L232 412 L282 412 Q320 412 338.5 438.5 Q357 465 357 521 Z M735 121 Q753 121 764 133.5 Q775 146 775 167 Q775 186 762 198 Q749 210 716 220 Q711 221 680.5 229 Q650 237 632 244 Q587 261 564.5 299.5 Q542 338 542 398 Q542 487 596 539 Q650 591 740 591 Q823 591 870 547 Q917 503 925 417 L786 388 Q783 424 771 441 Q759 458 736 458 Q718 458 706.5 445.5 Q695 433 695 411 Q695 392 708 379.5 Q721 367 755 358 Q757 357 788.5 349.5 Q820 342 839 334 Q887 315 909 278.5 Q931 242 931 184 Q931 93 878 39.5 Q825 -14 735 -14 Q641 -14 587 31 Q533 76 525 161 L675 193 Q676 157 691 139 Q706 121 735 121 Z " />
<glyph glyph-name="uni20A9" unicode="&#x20a9;" horiz-adv-x="1056" d="M169 221 L24 221 L24 346 L143 346 L132 402 L24 402 L24 528 L106 528 L56 774 L271 774 L351 274 L437 774 L624 774 L719 265 L788 774 L1005 774 L957 528 L1032 528 L1032 402 L932 402 L921 346 L1032 346 L1032 221 L897 221 L853 0 L624 0 L531 484 L444 0 L214 0 L169 221 Z " />
<glyph glyph-name="uni20AA" unicode="&#x20aa;" horiz-adv-x="917" d="M58 0 L58 774 L406 774 Q519 774 568.5 722 Q618 670 618 552 L618 196 L484 196 L484 619 L246 619 L246 0 L58 0 Z M858 774 L858 0 L510 0 Q397 0 347.5 52 Q298 104 298 222 L298 578 L432 578 L432 155 L670 155 L670 774 L858 774 Z " />
<glyph glyph-name="Euro" unicode="&#x20ac;" horiz-adv-x="803" d="M88 250 L10 250 L10 353 L81 353 Q80 358 80 362.5 Q80 367 80 376 Q80 383 80 386 Q80 389 81 393 L10 393 L10 496 L86 496 Q118 634 213.5 711.5 Q309 789 446 789 Q579 789 667.5 707.5 Q756 626 778 482 L564 450 Q556 527 525.5 565 Q495 603 440 603 Q391 603 360 576.5 Q329 550 314 496 L495 496 L476 393 L294 393 L294 353 L466 353 L447 250 L320 250 Q336 208 366 187.5 Q396 167 439 167 Q492 167 524 202.5 Q556 238 569 310 L781 276 Q754 138 663 61.5 Q572 -15 434 -15 Q298 -15 209 53 Q120 121 88 250 Z " />
<glyph glyph-name="uni20AE" unicode="&#x20ae;" horiz-adv-x="693" d="M100 134 L75 232 L238 281 L238 329 L107 288 L81 386 L238 433 L238 598 L19 598 L19 774 L681 774 L681 598 L461 598 L461 490 L602 533 L628 438 L461 387 L461 338 L596 380 L622 284 L461 235 L461 0 L238 0 L238 177 L100 134 Z " />
<glyph glyph-name="uni20B1" unicode="&#x20b1;" horiz-adv-x="768" d="M70 633 L70 774 L401 774 Q509 774 582 738 Q655 702 689 633 L788 633 L788 513 L715 513 L715 506 Q715 494 715 487.5 Q715 481 714 476 L788 476 L788 356 L680 356 Q643 289 569 255 Q495 221 389 221 L292 221 L292 0 L70 0 L70 356 L-18 356 L-18 476 L70 476 L70 513 L-18 513 L-18 633 L70 633 Z M488 498 Q488 550 460 575.5 Q432 601 375 601 L292 601 L292 387 L374 387 Q433 387 460.5 414 Q488 441 488 498 Z " />
<glyph glyph-name="uni20B9" unicode="&#x20b9;" horiz-adv-x="748" d="M725 583 L725 461 L610 461 Q590 412 540 379.5 Q490 347 418 336 L418 335 Q455 332 477.5 323.5 Q500 315 518 299 Q539 281 552.5 250 Q566 219 577 165 Q589 108 597.5 76 Q606 44 622 5 L622 0 L391 0 Q386 12 381.5 29 Q377 46 362 134 Q352 192 347.5 207.5 Q343 223 337 233 Q328 248 310.5 255 Q293 262 264 262 L30 262 L30 407 L276 407 Q322 407 349.5 420 Q377 433 388 461 L30 461 L30 583 L384 583 Q370 609 339 621 Q308 633 253 633 L30 633 L30 774 L725 774 L725 633 L541 633 L541 629 Q565 621 582 609.5 Q599 598 608 583 L725 583 Z " />
<glyph glyph-name="uni2113" unicode="&#x2113;" horiz-adv-x="515" d="M477 180 L527 37 Q491 12 441.5 -2.5 Q392 -17 342 -17 Q236 -17 172 30 Q108 77 80 176 Q76 175 71 173.5 Q66 172 56 169 Q37 162 27 159 Q17 156 8 154 L-19 270 Q-10 273 0 277 Q10 281 31 288 Q42 293 48 295 Q54 297 59 299 Q58 319 57 341 Q56 363 56 386 Q56 581 124.5 683.5 Q193 786 323 786 Q410 786 460 733.5 Q510 681 510 587 Q510 505 454.5 425 Q399 345 286 266 Q295 209 319.5 183.5 Q344 158 390 158 Q410 158 432.5 163.5 Q455 169 477 180 Z M364 577 Q364 601 356 613 Q348 625 333 625 Q305 625 292.5 572.5 Q280 520 279 405 Q321 444 342.5 488 Q364 532 364 577 Z " />
<glyph glyph-name="uni2116" unicode="&#x2116;" horiz-adv-x="1263" d="M554 774 L749 774 L749 0 L534 0 L253 466 L253 0 L58 0 L58 774 L290 774 L554 328 L554 774 Z M1035 373 Q938 373 881.5 426.5 Q825 480 826 576 Q826 670 885 727.5 Q944 785 1037 785 Q1130 785 1187.5 729.5 Q1245 674 1245 580 Q1245 482 1188.5 427.5 Q1132 373 1035 373 Z M1036 491 Q1064 491 1078.5 513 Q1093 535 1093 578 Q1093 621 1078.5 644 Q1064 667 1037 667 Q1008 667 993.5 644.5 Q979 622 979 578 Q979 536 993.5 513.5 Q1008 491 1036 491 Z M1247 222 L823 222 L823 328 L1247 328 L1247 222 Z " />
<glyph glyph-name="uni2117" unicode="&#x2117;" horiz-adv-x="844" d="M422 -16 Q248 -16 139 97.5 Q30 211 30 384 Q30 467 59 542 Q88 617 141 672 Q195 728 268.5 757 Q342 786 429 786 Q600 786 707 671.5 Q814 557 814 384 Q814 211 705 97.5 Q596 -16 422 -16 Z M428 707 Q284 707 200.5 619 Q117 531 117 384 Q117 243 202.5 153 Q288 63 424 63 Q562 63 644.5 151.5 Q727 240 727 384 Q727 530 646 618.5 Q565 707 428 707 Z M272 165 L272 613 L464 613 Q549 613 597 574 Q645 535 645 465 Q645 390 595.5 350 Q546 310 453 310 L400 310 L400 165 L272 165 Z M515 460 Q515 486 498 499.5 Q481 513 447 513 L400 513 L400 404 L448 404 Q482 404 498.5 417.5 Q515 431 515 460 Z " />
<glyph glyph-name="uni2120" unicode="&#x2120;" horiz-adv-x="865" d="M230 617 Q307 605 336.5 578.5 Q366 552 366 503 Q366 437 320.5 400 Q275 363 196 363 Q120 363 70 392 Q20 421 5 476 L121 508 Q128 484 148 470.5 Q168 457 198 457 Q221 457 233 465 Q245 473 245 489 Q245 501 236.5 507.5 Q228 514 204 518 Q199 519 180 521.5 Q161 524 148 527 Q81 539 52.5 567 Q24 595 24 646 Q24 706 70 744 Q116 782 187 782 Q257 782 301.5 752.5 Q346 723 362 665 L250 641 Q244 665 229 676.5 Q214 688 190 688 Q168 688 156.5 679.5 Q145 671 145 655 Q145 640 159 632 Q173 624 230 617 Z M394 371 L394 774 L536 774 L622 516 L710 774 L841 774 L841 371 L734 371 L734 614 L663 371 L575 371 L499 610 L499 371 L394 371 Z " />
<glyph glyph-name="trademark" unicode="&#x2122;" horiz-adv-x="859" d="M120 677 L8 677 L8 774 L356 774 L356 677 L244 677 L244 371 L120 371 L120 677 Z M388 371 L388 774 L530 774 L616 516 L704 774 L835 774 L835 371 L728 371 L728 612 L656 371 L568 371 L493 612 L493 371 L388 371 Z " />
<glyph glyph-name="estimated" unicode="&#x212e;" horiz-adv-x="816" d="M736 236 L781 221 Q734 106 642 45.5 Q550 -15 423 -15 Q247 -15 143.5 83 Q40 181 40 348 Q40 427 69.5 496 Q99 565 154 618 Q208 669 279 697 Q350 725 427 725 Q590 725 689.5 628.5 Q789 532 789 359 L266 359 L266 58 Q300 43 340.5 35 Q381 27 424 27 Q539 27 618 80 Q697 133 736 236 Z M425 683 Q384 683 343.5 673 Q303 663 266 644 L266 401 L571 401 L571 657 Q538 670 501 676.5 Q464 683 425 683 Z " />
<glyph glyph-name="uni2150" unicode="&#x2150;" horiz-adv-x="803" d="M574 774 L722 774 L168 0 L11 0 L574 774 Z M15 639 L15 730 L85 730 Q107 730 114 735.5 Q121 741 122 760 L123 774 L223 774 L223 383 L96 383 L96 639 L15 639 Z M708 182 Q704 158 702.5 126 Q701 94 701 16 L701 0 L566 0 L566 16 Q566 109 592 176 Q618 243 670 282 L491 282 L491 391 L797 391 L797 313 Q758 295 737 264 Q716 233 708 182 Z " />
<glyph glyph-name="uni2153" unicode="&#x2153;" horiz-adv-x="788" d="M574 774 L722 774 L168 0 L11 0 L574 774 Z M15 639 L15 730 L85 730 Q107 730 114 735.5 Q121 741 122 760 L123 774 L223 774 L223 383 L96 383 L96 639 L15 639 Z M648 274 Q648 288 639.5 295.5 Q631 303 614 303 Q595 303 583.5 291 Q572 279 568 254 L461 275 Q476 334 519.5 366.5 Q563 399 627 399 Q692 399 730.5 369.5 Q769 340 769 291 Q769 261 753 239 Q737 217 707 205 L707 203 Q743 191 761 169 Q779 147 779 113 Q779 58 736.5 25 Q694 -8 623 -8 Q548 -8 503 25.5 Q458 59 448 123 L560 146 Q565 117 578 103.5 Q591 90 615 90 Q636 90 646.5 99.5 Q657 109 657 127 Q657 145 644.5 153.5 Q632 162 605 162 L558 162 L558 240 L599 240 Q623 240 635.5 248.5 Q648 257 648 274 Z " />
<glyph glyph-name="uni2154" unicode="&#x2154;" horiz-adv-x="889" d="M676 774 L824 774 L270 0 L113 0 L676 774 Z M224 634 Q224 651 215 660.5 Q206 670 189 670 Q166 670 154.5 650.5 Q143 631 144 594 L24 613 Q28 692 74 736.5 Q120 781 197 781 Q269 781 311 745.5 Q353 710 353 649 Q353 609 330 575.5 Q307 542 248 500 L220 481 L356 481 L356 383 L26 383 L26 457 L147 541 Q195 575 209.5 593.5 Q224 612 224 634 Z M749 274 Q749 288 740.5 295.5 Q732 303 715 303 Q696 303 684.5 291 Q673 279 669 254 L562 275 Q577 334 620.5 366.5 Q664 399 728 399 Q793 399 831.5 369.5 Q870 340 870 291 Q870 261 854 239 Q838 217 808 205 L808 203 Q844 191 862 169 Q880 147 880 113 Q880 58 837.5 25 Q795 -8 724 -8 Q649 -8 604 25.5 Q559 59 549 123 L661 146 Q666 117 679 103.5 Q692 90 716 90 Q737 90 747.5 99.5 Q758 109 758 127 Q758 145 745.5 153.5 Q733 162 706 162 L659 162 L659 240 L700 240 Q724 240 736.5 248.5 Q749 257 749 274 Z " />
<glyph glyph-name="uni2155" unicode="&#x2155;" horiz-adv-x="805" d="M574 774 L722 774 L168 0 L11 0 L574 774 Z M15 639 L15 730 L85 730 Q107 730 114 735.5 Q121 741 122 760 L123 774 L223 774 L223 383 L96 383 L96 639 L15 639 Z M679 270 Q732 270 762.5 236.5 Q793 203 793 145 Q793 75 748.5 33.5 Q704 -8 629 -8 Q554 -8 507.5 27 Q461 62 450 127 L569 151 Q574 121 586 107.5 Q598 94 621 94 Q643 94 654.5 108.5 Q666 123 666 150 Q666 178 655.5 191.5 Q645 205 623 205 Q606 205 594 197 Q582 189 574 173 L468 183 L499 391 L769 391 L769 294 L594 294 L584 230 L586 230 Q603 250 626.5 260 Q650 270 679 270 Z " />
<glyph glyph-name="uni2156" unicode="&#x2156;" horiz-adv-x="907" d="M676 774 L824 774 L270 0 L113 0 L676 774 Z M224 634 Q224 651 215 660.5 Q206 670 189 670 Q166 670 154.5 650.5 Q143 631 144 594 L24 613 Q28 692 74 736.5 Q120 781 197 781 Q269 781 311 745.5 Q353 710 353 649 Q353 609 330 575.5 Q307 542 248 500 L220 481 L356 481 L356 383 L26 383 L26 457 L147 541 Q195 575 209.5 593.5 Q224 612 224 634 Z M781 270 Q834 270 864.5 236.5 Q895 203 895 145 Q895 75 850.5 33.5 Q806 -8 731 -8 Q656 -8 609.5 27 Q563 62 552 127 L671 151 Q676 121 688 107.5 Q700 94 723 94 Q745 94 756.5 108.5 Q768 123 768 150 Q768 178 757.5 191.5 Q747 205 725 205 Q708 205 696 197 Q684 189 676 173 L570 183 L601 391 L871 391 L871 294 L696 294 L686 230 L688 230 Q705 250 728.5 260 Q752 270 781 270 Z " />
<glyph glyph-name="uni2157" unicode="&#x2157;" horiz-adv-x="883" d="M652 774 L800 774 L246 0 L89 0 L652 774 Z M226 657 Q226 671 217.5 678.5 Q209 686 192 686 Q173 686 161.5 674 Q150 662 146 637 L39 658 Q54 717 97.5 749.5 Q141 782 205 782 Q270 782 308.5 752.5 Q347 723 347 674 Q347 644 331 622 Q315 600 285 588 L285 586 Q321 574 339 552 Q357 530 357 496 Q357 441 314.5 408 Q272 375 201 375 Q126 375 81 408.5 Q36 442 26 506 L138 529 Q143 500 156 486.5 Q169 473 193 473 Q214 473 224.5 482.5 Q235 492 235 510 Q235 528 222.5 536.5 Q210 545 183 545 L136 545 L136 623 L177 623 Q201 623 213.5 631.5 Q226 640 226 657 Z M757 270 Q810 270 840.5 236.5 Q871 203 871 145 Q871 75 826.5 33.5 Q782 -8 707 -8 Q632 -8 585.5 27 Q539 62 528 127 L647 151 Q652 121 664 107.5 Q676 94 699 94 Q721 94 732.5 108.5 Q744 123 744 150 Q744 178 733.5 191.5 Q723 205 701 205 Q684 205 672 197 Q660 189 652 173 L546 183 L577 391 L847 391 L847 294 L672 294 L662 230 L664 230 Q681 250 704.5 260 Q728 270 757 270 Z " />
<glyph glyph-name="uni2158" unicode="&#x2158;" horiz-adv-x="892" d="M661 774 L809 774 L255 0 L98 0 L661 774 Z M375 546 L375 451 L320 451 L320 383 L192 383 L192 451 L27 451 L27 550 L201 774 L320 774 L320 546 L375 546 Z M202 658 L121 546 L202 546 L202 658 Z M766 270 Q819 270 849.5 236.5 Q880 203 880 145 Q880 75 835.5 33.5 Q791 -8 716 -8 Q641 -8 594.5 27 Q548 62 537 127 L656 151 Q661 121 673 107.5 Q685 94 708 94 Q730 94 741.5 108.5 Q753 123 753 150 Q753 178 742.5 191.5 Q732 205 710 205 Q693 205 681 197 Q669 189 661 173 L555 183 L586 391 L856 391 L856 294 L681 294 L671 230 L673 230 Q690 250 713.5 260 Q737 270 766 270 Z " />
<glyph glyph-name="uni2159" unicode="&#x2159;" horiz-adv-x="798" d="M574 774 L722 774 L168 0 L11 0 L574 774 Z M15 639 L15 730 L85 730 Q107 730 114 735.5 Q121 741 122 760 L123 774 L223 774 L223 383 L96 383 L96 639 L15 639 Z M622 -8 Q532 -8 484.5 43 Q437 94 437 191 Q437 287 490.5 343 Q544 399 637 399 Q688 399 728.5 376.5 Q769 354 788 317 L676 266 Q668 280 657.5 286.5 Q647 293 632 293 Q600 293 583 268.5 Q566 244 565 195 L567 195 Q583 222 609.5 236 Q636 250 672 250 Q724 250 755.5 218.5 Q787 187 787 134 Q787 70 741.5 31 Q696 -8 622 -8 Z M621 182 Q600 182 588.5 169.5 Q577 157 577 136 Q577 114 588.5 101.5 Q600 89 620 89 Q639 89 650 102 Q661 115 661 137 Q661 158 650.5 170 Q640 182 621 182 Z " />
<glyph glyph-name="uni215A" unicode="&#x215a;" horiz-adv-x="885" d="M661 774 L809 774 L255 0 L98 0 L661 774 Z M258 653 Q311 653 341.5 619.5 Q372 586 372 528 Q372 458 327.5 416.5 Q283 375 208 375 Q133 375 86.5 410 Q40 445 29 510 L148 534 Q153 504 165 490.5 Q177 477 200 477 Q222 477 233.5 491.5 Q245 506 245 533 Q245 561 234.5 574.5 Q224 588 202 588 Q185 588 173 580 Q161 572 153 556 L47 566 L78 774 L348 774 L348 677 L173 677 L163 613 L165 613 Q182 633 205.5 643 Q229 653 258 653 Z M709 -8 Q619 -8 571.5 43 Q524 94 524 191 Q524 287 577.5 343 Q631 399 724 399 Q775 399 815.5 376.5 Q856 354 875 317 L763 266 Q755 280 744.5 286.5 Q734 293 719 293 Q687 293 670 268.5 Q653 244 652 195 L654 195 Q670 222 696.5 236 Q723 250 759 250 Q811 250 842.5 218.5 Q874 187 874 134 Q874 70 828.5 31 Q783 -8 709 -8 Z M708 182 Q687 182 675.5 169.5 Q664 157 664 136 Q664 114 675.5 101.5 Q687 89 707 89 Q726 89 737 102 Q748 115 748 137 Q748 158 737.5 170 Q727 182 708 182 Z " />
<glyph glyph-name="uni215B" unicode="&#x215b;" horiz-adv-x="822" d="M574 774 L722 774 L168 0 L11 0 L574 774 Z M15 639 L15 730 L85 730 Q107 730 114 735.5 Q121 741 122 760 L123 774 L223 774 L223 383 L96 383 L96 639 L15 639 Z M803 113 Q803 56 754.5 24 Q706 -8 622 -8 Q537 -8 490 22.5 Q443 53 443 109 Q443 141 463.5 165 Q484 189 523 202 L523 205 Q493 217 477.5 237 Q462 257 462 285 Q462 337 506 367 Q550 397 625 397 Q700 397 742.5 368.5 Q785 340 785 290 Q785 262 769 241 Q753 220 723 206 L723 204 Q762 192 782.5 169 Q803 146 803 113 Z M667 268 Q667 286 655 296.5 Q643 307 623 307 Q603 307 591 296 Q579 285 579 266 Q579 247 591 236.5 Q603 226 624 226 Q644 226 655.5 237 Q667 248 667 268 Z M574 126 Q574 106 587 95 Q600 84 624 84 Q647 84 659.5 95.5 Q672 107 672 128 Q672 147 658.5 158 Q645 169 623 169 Q601 169 587.5 157.5 Q574 146 574 126 Z " />
<glyph glyph-name="uni215C" unicode="&#x215c;" horiz-adv-x="900" d="M652 774 L800 774 L246 0 L89 0 L652 774 Z M226 657 Q226 671 217.5 678.5 Q209 686 192 686 Q173 686 161.5 674 Q150 662 146 637 L39 658 Q54 717 97.5 749.5 Q141 782 205 782 Q270 782 308.5 752.5 Q347 723 347 674 Q347 644 331 622 Q315 600 285 588 L285 586 Q321 574 339 552 Q357 530 357 496 Q357 441 314.5 408 Q272 375 201 375 Q126 375 81 408.5 Q36 442 26 506 L138 529 Q143 500 156 486.5 Q169 473 193 473 Q214 473 224.5 482.5 Q235 492 235 510 Q235 528 222.5 536.5 Q210 545 183 545 L136 545 L136 623 L177 623 Q201 623 213.5 631.5 Q226 640 226 657 Z M881 113 Q881 56 832.5 24 Q784 -8 700 -8 Q615 -8 568 22.5 Q521 53 521 109 Q521 141 541.5 165 Q562 189 601 202 L601 205 Q571 217 555.5 237 Q540 257 540 285 Q540 337 584 367 Q628 397 703 397 Q778 397 820.5 368.5 Q863 340 863 290 Q863 262 847 241 Q831 220 801 206 L801 204 Q840 192 860.5 169 Q881 146 881 113 Z M745 268 Q745 286 733 296.5 Q721 307 701 307 Q681 307 669 296 Q657 285 657 266 Q657 247 669 236.5 Q681 226 702 226 Q722 226 733.5 237 Q745 248 745 268 Z M652 126 Q652 106 665 95 Q678 84 702 84 Q725 84 737.5 95.5 Q750 107 750 128 Q750 147 736.5 158 Q723 169 701 169 Q679 169 665.5 157.5 Q652 146 652 126 Z " />
<glyph glyph-name="uni215D" unicode="&#x215d;" horiz-adv-x="909" d="M661 774 L809 774 L255 0 L98 0 L661 774 Z M258 653 Q311 653 341.5 619.5 Q372 586 372 528 Q372 458 327.5 416.5 Q283 375 208 375 Q133 375 86.5 410 Q40 445 29 510 L148 534 Q153 504 165 490.5 Q177 477 200 477 Q222 477 233.5 491.5 Q245 506 245 533 Q245 561 234.5 574.5 Q224 588 202 588 Q185 588 173 580 Q161 572 153 556 L47 566 L78 774 L348 774 L348 677 L173 677 L163 613 L165 613 Q182 633 205.5 643 Q229 653 258 653 Z M890 113 Q890 56 841.5 24 Q793 -8 709 -8 Q624 -8 577 22.5 Q530 53 530 109 Q530 141 550.5 165 Q571 189 610 202 L610 205 Q580 217 564.5 237 Q549 257 549 285 Q549 337 593 367 Q637 397 712 397 Q787 397 829.5 368.5 Q872 340 872 290 Q872 262 856 241 Q840 220 810 206 L810 204 Q849 192 869.5 169 Q890 146 890 113 Z M754 268 Q754 286 742 296.5 Q730 307 710 307 Q690 307 678 296 Q666 285 666 266 Q666 247 678 236.5 Q690 226 711 226 Q731 226 742.5 237 Q754 248 754 268 Z M661 126 Q661 106 674 95 Q687 84 711 84 Q734 84 746.5 95.5 Q759 107 759 128 Q759 147 745.5 158 Q732 169 710 169 Q688 169 674.5 157.5 Q661 146 661 126 Z " />
<glyph glyph-name="uni215E" unicode="&#x215e;" horiz-adv-x="871" d="M624 774 L772 774 L218 0 L61 0 L624 774 Z M265 565 Q261 541 259.5 509 Q258 477 258 399 L258 383 L123 383 L123 399 Q123 492 149 559 Q175 626 227 665 L48 665 L48 774 L354 774 L354 696 Q315 678 294 647 Q273 616 265 565 Z M853 113 Q853 56 804.5 24 Q756 -8 672 -8 Q587 -8 540 22.5 Q493 53 493 109 Q493 141 513.5 165 Q534 189 573 202 L573 205 Q543 217 527.5 237 Q512 257 512 285 Q512 337 556 367 Q600 397 675 397 Q750 397 792.5 368.5 Q835 340 835 290 Q835 262 819 241 Q803 220 773 206 L773 204 Q812 192 832.5 169 Q853 146 853 113 Z M717 268 Q717 286 705 296.5 Q693 307 673 307 Q653 307 641 296 Q629 285 629 266 Q629 247 641 236.5 Q653 226 674 226 Q694 226 705.5 237 Q717 248 717 268 Z M624 126 Q624 106 637 95 Q650 84 674 84 Q697 84 709.5 95.5 Q722 107 722 128 Q722 147 708.5 158 Q695 169 673 169 Q651 169 637.5 157.5 Q624 146 624 126 Z " />
<glyph glyph-name="uni215F" unicode="&#x215f;" horiz-adv-x="723" d="M574 774 L722 774 L168 0 L11 0 L574 774 Z M15 639 L15 730 L85 730 Q107 730 114 735.5 Q121 741 122 760 L123 774 L223 774 L223 383 L96 383 L96 639 L15 639 Z " />
<glyph glyph-name="uni2190" unicode="&#x2190;" horiz-adv-x="726" d="M202 128 L-15 378 L202 627 L296 547 L221 465 L713 465 L713 291 L221 291 L296 209 L202 128 Z " />
<glyph glyph-name="arrowup" unicode="&#x2191;" horiz-adv-x="484" d="M-9 539 L241 756 L490 539 L410 445 L328 520 L328 28 L154 28 L154 520 L72 445 L-9 539 Z " />
<glyph glyph-name="uni2192" unicode="&#x2192;" horiz-adv-x="726" d="M523 627 L740 377 L523 128 L429 208 L504 290 L12 290 L12 464 L504 464 L429 546 L523 627 Z " />
<glyph glyph-name="arrowdown" unicode="&#x2193;" horiz-adv-x="484" d="M492 235 L242 18 L-7 235 L73 329 L155 254 L155 746 L329 746 L329 254 L411 329 L492 235 Z " />
<glyph glyph-name="uni2194" unicode="&#x2194;" horiz-adv-x="793" d="M204 128 L-14 377 L204 627 L298 546 L221 464 L572 464 L496 546 L590 627 L807 377 L590 128 L496 208 L572 290 L221 290 L298 208 L204 128 Z " />
<glyph glyph-name="uni2195" unicode="&#x2195;" horiz-adv-x="484" d="M-8 567 L242 784 L492 567 L411 473 L329 549 L329 245 L411 322 L492 228 L242 10 L-8 228 L73 322 L155 246 L155 549 L73 473 L-8 567 Z " />
<glyph glyph-name="uni2196" unicode="&#x2196;" horiz-adv-x="611" d="M-2 320 L22 651 L351 673 L361 550 L250 545 L598 197 L475 74 L127 422 L122 311 L-2 320 Z " />
<glyph glyph-name="uni2197" unicode="&#x2197;" horiz-adv-x="610" d="M248 663 L578 640 L601 310 L478 300 L473 411 L125 64 L2 187 L350 534 L239 539 L248 663 Z " />
<glyph glyph-name="uni2198" unicode="&#x2198;" horiz-adv-x="611" d="M602 448 L578 117 L249 95 L239 218 L350 223 L2 571 L125 694 L473 346 L478 457 L602 448 Z " />
<glyph glyph-name="uni2199" unicode="&#x2199;" horiz-adv-x="610" d="M352 84 L22 107 L-1 437 L122 447 L127 336 L475 684 L598 561 L250 213 L361 208 L352 84 Z " />
<glyph glyph-name="uni21A9" unicode="&#x21a9;" horiz-adv-x="727" d="M222 392 L478 392 Q513 392 529.5 405 Q546 418 546 446 Q546 472 530 484.5 Q514 497 481 497 L375 497 L375 638 L488 638 Q604 638 663 588 Q722 538 722 440 Q722 330 659.5 273.5 Q597 217 475 217 L222 217 L298 136 L203 55 L-14 305 L203 554 L298 473 L222 392 Z " />
<glyph glyph-name="uni21AA" unicode="&#x21aa;" horiz-adv-x="727" d="M181 446 Q181 418 197.5 405 Q214 392 249 392 L505 392 L429 473 L524 554 L741 305 L524 55 L429 136 L505 217 L253 217 Q129 217 67 271.5 Q5 326 5 435 Q5 534 65 586 Q125 638 240 638 L353 638 L353 497 L246 497 Q213 497 197 484.5 Q181 472 181 446 Z " />
<glyph glyph-name="uni21AF" unicode="&#x21af;" horiz-adv-x="489" d="M479 577 L478 452 L284 167 L396 184 L405 59 L76 22 L-6 343 L114 377 L140 266 L260 444 L44 444 L44 549 L235 820 L377 728 L271 577 L479 577 Z " />
<glyph glyph-name="uni21B0" unicode="&#x21b0;" horiz-adv-x="662" d="M222 647 L619 647 L619 41 L445 41 L445 473 L222 473 L298 391 L204 310 L-14 560 L204 809 L298 729 L222 647 Z " />
<glyph glyph-name="uni21B1" unicode="&#x21b1;" horiz-adv-x="662" d="M458 310 L364 391 L440 473 L217 473 L217 41 L43 41 L43 647 L440 647 L364 729 L458 809 L676 560 L458 310 Z " />
<glyph glyph-name="uni21B2" unicode="&#x21b2;" horiz-adv-x="662" d="M222 168 L298 86 L204 6 L-14 255 L204 505 L298 424 L222 342 L445 342 L445 774 L619 774 L619 168 L222 168 Z " />
<glyph glyph-name="uni21B3" unicode="&#x21b3;" horiz-adv-x="662" d="M458 505 L676 255 L458 6 L364 86 L440 168 L43 168 L43 774 L217 774 L217 342 L440 342 L364 424 L458 505 Z " />
<glyph glyph-name="partialdiff" unicode="&#x2202;" horiz-adv-x="680" d="M378 783 Q514 784 590 700 Q666 616 666 471 Q666 247 562.5 115.5 Q459 -16 283 -16 Q159 -16 84 49 Q9 114 9 224 Q9 336 83.5 412 Q158 488 268 488 Q332 488 376.5 463.5 Q421 439 441 394 L444 394 Q448 416 450 435.5 Q452 455 452 478 Q452 542 430.5 575 Q409 608 368 608 Q337 608 308.5 585 Q280 562 261 523 L79 606 Q127 686 207.5 734 Q288 782 378 783 Z M342 375 Q295 375 264 333.5 Q233 292 233 231 Q233 185 252.5 161 Q272 137 309 137 Q355 137 386 179.5 Q417 222 417 287 Q417 329 397.5 352 Q378 375 342 375 Z " />
<glyph glyph-name="uni2206" unicode="&#x2206;" horiz-adv-x="800" d="M790 0 L10 0 L10 97 L324 774 L469 774 L790 97 L790 0 Z M393 506 L258 183 L540 183 L393 506 Z " />
<glyph glyph-name="product" unicode="&#x220f;" horiz-adv-x="853" d="M69 -184 L69 774 L784 774 L784 -184 L562 -184 L562 595 L291 595 L291 -184 L69 -184 Z " />
<glyph glyph-name="summation" unicode="&#x2211;" horiz-adv-x="684" d="M25 651 L25 774 L652 774 L652 601 L302 601 L535 307 L535 284 L304 -13 L668 -13 L668 -186 L7 -186 L7 -80 L313 299 L25 651 Z " />
<glyph glyph-name="minus" unicode="&#x2212;" horiz-adv-x="560" d="M501 326 L58 326 L58 456 L501 456 L501 326 Z " />
<glyph glyph-name="radical" unicode="&#x221a;" horiz-adv-x="778" d="M556 774 L788 774 L510 0 L274 0 L140 319 L5 319 L5 489 L299 489 L388 228 L556 774 Z " />
<glyph glyph-name="infinity" unicode="&#x221e;" horiz-adv-x="881" d="M422 278 Q381 228 330.5 200.5 Q280 173 229 173 Q139 173 86 228 Q33 283 33 370 Q33 456 88.5 513 Q144 570 236 570 Q295 570 351 543 Q407 516 455 465 Q496 515 546.5 542.5 Q597 570 649 570 Q739 570 791.5 514.5 Q844 459 844 373 Q844 287 788.5 230 Q733 173 641 173 Q583 173 526.5 200 Q470 227 422 278 Z M623 321 Q650 321 665 334.5 Q680 348 680 372 Q680 398 661.5 413 Q643 428 610 428 Q587 428 562.5 416.5 Q538 405 515 384 Q541 352 568 336.5 Q595 321 623 321 Z M254 422 Q228 422 213 408.5 Q198 395 198 372 Q198 345 216 330 Q234 315 267 315 Q290 315 315 326.5 Q340 338 362 360 Q336 391 309 406.5 Q282 422 254 422 Z " />
<glyph glyph-name="integral" unicode="&#x222b;" horiz-adv-x="369" d="M344 599 Q313 599 299 582.5 Q285 566 285 529 L285 5 Q285 -103 230.5 -158 Q176 -213 70 -213 Q40 -213 8.5 -208.5 Q-23 -204 -44 -197 L-24 -21 Q-17 -23 -7.5 -24 Q2 -25 11 -25 Q44 -25 56.5 -9 Q69 7 69 47 L69 572 Q69 678 126 733 Q183 788 292 788 Q321 788 350.5 783.5 Q380 779 398 772 L378 596 Q366 598 358.5 598.5 Q351 599 344 599 Z " />
<glyph glyph-name="approxequal" unicode="&#x2248;" horiz-adv-x="560" d="M384 370 Q365 370 344 375.5 Q323 381 284 398 Q244 415 222.5 420.5 Q201 426 181 426 Q147 426 115 409.5 Q83 393 58 363 L58 496 Q83 523 116.5 539 Q150 555 184 555 Q206 555 229.5 549 Q253 543 296 524 Q333 508 352 503 Q371 498 387 498 Q421 498 449.5 512 Q478 526 502 555 L502 423 Q481 396 451.5 383 Q422 370 384 370 Z M384 153 Q365 153 344 158.5 Q323 164 284 181 Q244 199 222.5 204.5 Q201 210 181 210 Q147 210 115 193.5 Q83 177 58 147 L58 279 Q83 307 116.5 323 Q150 339 184 339 Q206 339 229.5 333 Q253 327 296 308 Q333 292 352 287 Q371 282 387 282 Q422 282 450 296 Q478 310 502 339 L502 206 Q480 180 450.5 166.5 Q421 153 384 153 Z " />
<glyph glyph-name="notequal" unicode="&#x2260;" horiz-adv-x="560" d="M155 180 L58 180 L58 309 L215 309 L250 391 L58 391 L58 521 L299 521 L350 643 L464 643 L413 521 L501 521 L501 391 L358 391 L323 309 L501 309 L501 180 L269 180 L219 58 L105 58 L155 180 Z " />
<glyph glyph-name="equivalence" unicode="&#x2261;" horiz-adv-x="450" d="M397 424 L53 424 L53 549 L397 549 L397 424 Z M397 242 L53 242 L53 366 L397 366 L397 242 Z M397 59 L53 59 L53 183 L397 183 L397 59 Z " />
<glyph glyph-name="lessequal" unicode="&#x2264;" horiz-adv-x="560" d="M500 170 L60 383 L60 469 L500 681 L500 540 L249 428 L500 314 L500 170 Z M500 0 L61 0 L61 130 L500 130 L500 0 Z " />
<glyph glyph-name="greaterequal" unicode="&#x2265;" horiz-adv-x="560" d="M60 681 L500 468 L500 382 L60 170 L60 311 L311 423 L60 537 L60 681 Z M499 130 L499 0 L60 0 L60 130 L499 130 Z " />
<glyph glyph-name="house" unicode="&#x2302;" horiz-adv-x="904" d="M789 427 L789 0 L115 0 L115 427 L452 750 L789 427 Z " />
<glyph glyph-name="uni25A0" unicode="&#x25a0;" horiz-adv-x="956" d="M841 0 L115 0 L115 730 L841 730 L841 0 Z " />
<glyph glyph-name="uni25A1" unicode="&#x25a1;" horiz-adv-x="956" d="M841 0 L115 0 L115 730 L841 730 L841 0 Z M752 644 L204 644 L204 86 L752 86 L752 644 Z " />
<glyph glyph-name="uni25AA" unicode="&#x25aa;" horiz-adv-x="730" d="M615 0 L115 0 L115 500 L615 500 L615 0 Z " />
<glyph glyph-name="uni25AB" unicode="&#x25ab;" horiz-adv-x="730" d="M615 0 L115 0 L115 500 L615 500 L615 0 Z M530 418 L200 418 L200 83 L530 83 L530 418 Z " />
<glyph glyph-name="triagup" unicode="&#x25b2;" horiz-adv-x="927" d="M464 742 L892 0 L35 0 L464 742 Z " />
<glyph glyph-name="triagrt" unicode="&#x25ba;" horiz-adv-x="927" d="M857 372 L115 -57 L115 800 L857 372 Z " />
<glyph glyph-name="triagdn" unicode="&#x25bc;" horiz-adv-x="927" d="M464 -12 L35 730 L892 730 L464 -12 Z " />
<glyph glyph-name="triaglf" unicode="&#x25c4;" horiz-adv-x="927" d="M70 372 L812 800 L812 -57 L70 372 Z " />
<glyph glyph-name="lozenge" unicode="&#x25ca;" horiz-adv-x="640" d="M370 774 L603 404 L603 373 L376 0 L273 0 L42 372 L42 403 L267 774 L370 774 Z M316 577 L215 394 L326 197 L431 383 L316 577 Z " />
<glyph glyph-name="uni25CB" unicode="&#x25cb;" horiz-adv-x="827" d="M769 350 Q769 199 665.5 94.5 Q562 -10 414 -10 Q265 -10 161.5 94.5 Q58 199 58 350 Q58 500 161.5 604.5 Q265 709 414 709 Q562 709 665.5 604.5 Q769 500 769 350 Z M156 350 Q156 233 229.5 155.5 Q303 78 414 78 Q526 78 598.5 155 Q671 232 671 350 Q671 468 598.5 544.5 Q526 621 414 621 Q303 621 229.5 544 Q156 467 156 350 Z " />
<glyph glyph-name="uni25CE" unicode="&#x25ce;" horiz-adv-x="957" d="M854 365 Q854 210 744 100 Q634 -10 479 -10 Q324 -10 214 100 Q104 210 104 365 Q104 520 214 630 Q324 740 479 740 Q634 740 744 630 Q854 520 854 365 Z M190 365 Q190 242 273.5 157.5 Q357 73 479 73 Q601 73 684.5 157.5 Q768 242 768 365 Q768 488 684.5 572.5 Q601 657 479 657 Q357 657 273.5 572.5 Q190 488 190 365 Z M706 364 Q706 269 639.5 203 Q573 137 479 137 Q385 137 319 203 Q253 269 253 364 Q253 459 319 525 Q385 591 479 591 Q573 591 639.5 525 Q706 459 706 364 Z M330 364 Q330 303 374.5 257 Q419 211 479 211 Q539 211 584.5 257 Q630 303 630 364 Q630 426 585 471.5 Q540 517 479 517 Q419 517 374.5 471.5 Q330 426 330 364 Z M467 303 Q441 308 426.5 330 Q412 352 417 378 Q422 404 444.5 418 Q467 432 493 427 Q518 422 532.5 400 Q547 378 542 352 Q536 326 514 312 Q492 298 467 303 Z " />
<glyph glyph-name="uni25CF" unicode="&#x25cf;" horiz-adv-x="827" d="M769 350 Q769 199 665.5 94.5 Q562 -10 414 -10 Q265 -10 161.5 94.5 Q58 199 58 350 Q58 500 161.5 604.5 Q265 709 414 709 Q562 709 665.5 604.5 Q769 500 769 350 Z " />
<glyph glyph-name="uni25E2" unicode="&#x25e2;" horiz-adv-x="927" d="M60 755 L888 533 L282 -73 L60 755 Z " />
<glyph glyph-name="uni25E3" unicode="&#x25e3;" horiz-adv-x="927" d="M869 755 L647 -73 L41 533 L869 755 Z " />
<glyph glyph-name="uni25E4" unicode="&#x25e4;" horiz-adv-x="927" d="M650 774 L872 -54 L44 168 L650 774 Z " />
<glyph glyph-name="uni25E5" unicode="&#x25e5;" horiz-adv-x="927" d="M282 770 L887 163 L59 -58 L282 770 Z " />
<glyph glyph-name="uni2605" unicode="&#x2605;" horiz-adv-x="930" d="M534 438 L764 437 L577 303 L649 85 L462 221 L276 85 L348 304 L162 439 L391 438 L463 656 L534 438 Z " />
<glyph glyph-name="uni2608" unicode="&#x2608;" horiz-adv-x="723" d="M206 628 L274 488 L206 305 L206 -61 L32 -61 L32 319 L101 492 L22 644 L22 774 L623 774 L623 638 L488 436 L592 249 L622 363 L740 324 L644 8 L318 59 L337 184 L457 161 L309 428 L439 628 L206 628 Z " />
<glyph glyph-name="uni263C" unicode="&#x263c;" horiz-adv-x="958" d="M486 577 L466 577 L449 719 L503 719 L486 577 Z M378 554 L363 544 L276 659 L323 687 L378 554 Z M589 544 L574 554 L629 687 L676 659 L589 544 Z M298 479 L288 464 L155 519 L183 566 L298 479 Z M664 464 L654 480 L767 566 L797 520 L664 464 Z M476 191 Q405 191 353.5 242.5 Q302 294 302 365 Q302 436 353.5 487.5 Q405 539 476 539 Q547 539 598.5 487.5 Q650 436 650 365 Q650 294 598.5 242.5 Q547 191 476 191 Z M265 376 L265 356 L123 339 L123 393 L265 376 Z M687 356 L687 376 L829 393 L829 339 L687 356 Z M288 268 L298 252 L185 166 L155 212 L288 268 Z M654 253 L664 268 L797 213 L769 166 L654 253 Z M363 188 L378 178 L323 45 L276 73 L363 188 Z M574 178 L589 188 L676 73 L629 45 L574 178 Z M466 155 L486 155 L503 13 L449 13 L466 155 Z " />
<glyph glyph-name="uni263E" unicode="&#x263e;" horiz-adv-x="817" d="M620 604 Q593 611 577.5 613.5 Q562 616 549 616 Q450 616 380 542.5 Q310 469 310 365 Q310 261 380 187.5 Q450 114 549 114 Q565 114 582.5 117 Q600 120 620 126 Q581 98 535 83.5 Q489 69 442 69 Q320 69 233 156 Q146 243 146 365 Q146 487 233 574 Q320 661 442 661 Q489 661 535 646.5 Q581 632 620 604 Z " />
<glyph glyph-name="spade" unicode="&#x2660;" horiz-adv-x="950" d="M541 140 Q548 120 557 100.5 Q566 81 611 4 L609 0 L350 0 L348 4 Q385 71 396 94 Q407 117 415 140 Q429 178 436 215.5 Q443 253 444 290 Q418 224 374.5 189 Q331 154 274 154 Q202 154 152.5 199 Q103 244 103 312 Q103 390 149 455 Q195 520 338 635 L478 747 L479 747 L619 635 Q755 526 801 459.5 Q847 393 847 312 Q847 244 802 199.5 Q757 155 690 155 Q627 155 580.5 189.5 Q534 224 509 289 Q510 252 518 214.5 Q526 177 541 140 Z " />
<glyph glyph-name="club" unicode="&#x2663;" horiz-adv-x="950" d="M569 81 Q578 61 593 34.5 Q608 8 610 4 L608 0 L353 0 L351 4 Q401 98 419 149.5 Q437 201 442 248 Q421 194 376 162 Q331 130 275 130 Q202 130 150 182 Q98 234 98 307 Q98 381 150 432.5 Q202 484 275 484 Q285 484 295 482.5 Q305 481 317 477 Q308 500 303 522 Q298 544 298 564 Q298 637 349 688.5 Q400 740 473 740 Q546 740 597.5 688.5 Q649 637 649 564 Q649 541 644 518.5 Q639 496 630 476 Q641 480 652.5 482 Q664 484 676 484 Q749 484 800.5 432.5 Q852 381 852 307 Q852 234 800.5 182 Q749 130 675 130 Q621 130 577.5 161 Q534 192 513 246 Q516 226 521 204.5 Q526 183 534 161 Q541 142 549.5 122 Q558 102 569 81 Z " />
<glyph glyph-name="heart" unicode="&#x2665;" horiz-adv-x="950" d="M104 550 Q104 635 155 687.5 Q206 740 287 740 Q363 740 413.5 696.5 Q464 653 472 580 Q480 653 530.5 696.5 Q581 740 657 740 Q739 740 792.5 687 Q846 634 846 550 Q846 465 794 373 Q742 281 614 140 L472 -17 L331 140 Q206 279 155 371.5 Q104 464 104 550 Z " />
<glyph glyph-name="diamond" unicode="&#x2666;" horiz-adv-x="950" d="M475 -10 L148 390 L475 791 L802 390 L475 -10 Z " />
<glyph glyph-name="uni267B" unicode="&#x267b;" horiz-adv-x="884" d="M379 728 L379 729 L561 729 Q596 729 614.5 719.5 Q633 710 647 685 L673 639 L714 662 L656 505 L494 535 L532 557 L465 675 Q451 701 430.5 713.5 Q410 726 379 728 Z M437 666 L328 477 L187 558 L250 670 Q261 691 284 702 Q307 713 337 713 Q370 713 396.5 700.5 Q423 688 437 666 Z M717 232 L608 421 L748 502 L814 392 Q819 383 821.5 373 Q824 363 824 352 Q824 308 794 275 Q764 242 717 232 Z M158 172 Q158 160 161.5 147.5 Q165 135 171 122 L170 122 L79 279 Q69 296 64.5 308.5 Q60 321 60 333 Q60 343 63 353 Q66 363 74 376 L101 421 L60 445 L225 473 L280 318 L242 340 L174 223 Q166 210 162 197.5 Q158 185 158 172 Z M799 251 L800 250 L709 93 Q692 63 675 52 Q658 41 628 41 L575 41 L575 -6 L468 123 L575 248 L575 203 L711 203 Q741 203 761.5 214.5 Q782 226 799 251 Z M195 203 L414 203 L414 41 L294 41 Q246 41 216 76 Q186 111 186 161 Q186 172 188.5 182.5 Q191 193 195 203 Z " />
<glyph glyph-name="uni267C" unicode="&#x267c;" horiz-adv-x="951" d="M742 633 Q795 579 823.5 510 Q852 441 852 366 Q852 210 742.5 100.5 Q633 -9 477 -9 Q320 -9 210 100.5 Q100 210 100 366 Q100 441 128.5 510 Q157 579 210 633 Q263 686 332 714.5 Q401 743 477 743 Q552 743 620.5 714.5 Q689 686 742 633 Z M424 643 L424 642 Q447 640 462 630.5 Q477 621 489 601 L540 513 L511 496 L633 474 L678 593 L646 574 L626 609 Q617 628 602.5 635.5 Q588 643 561 643 L424 643 Z M279 514 L385 452 L469 595 Q458 612 438 621 Q418 630 393 630 Q370 630 353 622 Q336 614 327 598 L279 514 Z M703 471 L597 410 L679 268 Q715 276 738 300.5 Q761 325 761 358 Q761 365 759 372 Q757 379 753 388 L703 471 Z M266 185 L267 185 Q262 194 260 203 Q258 212 258 222 Q258 233 261 242.5 Q264 252 270 261 L321 350 L349 332 L308 449 L184 428 L214 410 L194 377 Q188 365 186 358 Q184 351 184 344 Q184 334 187.5 325 Q191 316 199 303 L266 185 Z M742 281 L741 282 Q728 263 712.5 254.5 Q697 246 675 246 L572 246 L572 279 L492 185 L572 89 L572 123 L613 123 Q635 123 647.5 131.5 Q660 140 673 163 L742 281 Z M450 123 L450 246 L286 246 Q282 238 280 230 Q278 222 278 213 Q278 176 301 149.5 Q324 123 360 123 L450 123 Z " />
<glyph glyph-name="uni267D" unicode="&#x267d;" horiz-adv-x="952" d="M742 633 Q795 579 823.5 510 Q852 441 852 366 Q852 210 742.5 100.5 Q633 -9 477 -9 Q320 -9 210 100.5 Q100 210 100 366 Q100 441 128.5 510 Q157 579 210 633 Q263 686 332 714.5 Q401 743 477 743 Q552 743 620.5 714.5 Q689 686 742 633 Z M477 27 Q618 27 717 126 Q816 225 816 366 Q816 507 716.5 607 Q617 707 477 707 Q336 707 236 607 Q136 507 136 366 Q136 225 235.5 126 Q335 27 477 27 Z M424 642 L424 643 L561 643 Q588 643 602.5 635.5 Q617 628 626 609 L646 574 L678 593 L633 474 L511 496 L540 513 L489 601 Q477 621 462 630.5 Q447 640 424 642 Z M469 595 L385 452 L279 514 L327 598 Q336 614 353 622 Q370 630 393 630 Q418 630 438 621 Q458 612 469 595 Z M679 268 L597 410 L703 471 L753 388 Q757 379 759 372 Q761 365 761 358 Q761 325 738 300.5 Q715 276 679 268 Z M258 222 Q258 212 260 203 Q262 194 267 185 L266 185 L199 303 Q191 316 187.5 325 Q184 334 184 344 Q184 351 186 358 Q188 365 194 377 L214 410 L184 428 L308 449 L349 332 L321 350 L270 261 Q264 252 261 242.5 Q258 233 258 222 Z M741 282 L742 281 L673 163 Q660 140 647.5 131.5 Q635 123 613 123 L572 123 L572 89 L492 185 L572 279 L572 246 L675 246 Q697 246 712.5 254.5 Q728 263 741 282 Z M286 246 L450 246 L450 123 L360 123 Q324 123 301 149.5 Q278 176 278 213 Q278 222 280 230 Q282 238 286 246 Z " />
<glyph glyph-name="uni3008" unicode="&#x3008;" horiz-adv-x="422" d="M52 294 L265 815 L467 815 L252 303 L467 -231 L259 -231 L52 294 Z " />
<glyph glyph-name="uni3009" unicode="&#x3009;" horiz-adv-x="422" d="M369 290 L156 -231 L-46 -231 L169 281 L-46 815 L162 815 L369 290 Z " />
<glyph glyph-name="uniFB00" unicode="&#xfb00;" horiz-adv-x="844" d="M321 0 L105 0 L105 433 L3 433 L3 580 L105 580 L105 607 Q105 713 162.5 769 Q220 825 326 825 Q363 825 398.5 819 Q434 813 458 803 L433 657 Q420 662 406.5 664.5 Q393 667 380 667 Q346 667 331.5 650.5 Q317 634 317 596 L317 580 L504 580 L504 607 Q504 713 561.5 769 Q619 825 725 825 Q762 825 797.5 819 Q833 813 857 803 L832 657 Q819 662 805.5 664.5 Q792 667 779 667 Q745 667 730.5 650.5 Q716 634 716 596 L716 580 L837 580 L837 433 L720 433 L720 0 L504 0 L504 433 L321 433 L321 0 Z " />
<glyph glyph-name="uniFB01" unicode="&#xfb01;" horiz-adv-x="759" d="M105 433 L3 433 L3 580 L105 580 L105 610 Q105 714 161.5 769.5 Q218 825 318 825 Q345 825 373.5 822 Q402 819 424 813 L424 672 Q420 672 407.5 673 Q395 674 388 674 Q348 674 331.5 657 Q315 640 315 601 L315 580 L424 580 L424 433 L321 433 L321 0 L105 0 L105 433 Z M710 646 L490 646 L490 815 L710 815 L710 646 Z M492 0 L492 580 L708 580 L708 0 L492 0 Z " />
<glyph glyph-name="uniFB02" unicode="&#xfb02;" horiz-adv-x="759" d="M105 433 L3 433 L3 580 L105 580 L105 610 Q105 714 161.5 769.5 Q218 825 318 825 Q345 825 373.5 822 Q402 819 424 813 L424 672 Q420 672 407.5 673 Q395 674 388 674 Q348 674 331.5 657 Q315 640 315 601 L315 580 L424 580 L424 433 L321 433 L321 0 L105 0 L105 433 Z M492 0 L492 815 L708 815 L708 0 L492 0 Z " />
<glyph glyph-name="uniFF3F" unicode="&#xff3f;" horiz-adv-x="620" d="M620 -132 L0 -132 L0 -43 L620 -43 L620 -132 Z " />
</font>
</defs>
</svg>
